Snd_AIZ1_Header:
	smpsHeaderStartSong 3
	smpsHeaderVoiceUVB
	smpsHeaderChan      0x06, 0x03
	smpsHeaderTempo     0x01, 0x1F

	smpsHeaderDAC       Snd_AIZ1_DAC
	smpsHeaderFM        Snd_AIZ1_FM1,	0x18, 0x0F
	smpsHeaderFM        Snd_AIZ1_FM2,	0x0C, 0x16
	smpsHeaderFM        Snd_AIZ1_FM3,	0x0C, 0x16
	smpsHeaderFM        Snd_AIZ1_FM4,	0x0C, 0x16
	smpsHeaderFM        Snd_AIZ1_FM5,	0x0C, 0x16
	smpsHeaderPSG       Snd_AIZ1_PSG1,	0xF4, 0x04, 0x00, sTone_0C
	smpsHeaderPSG       Snd_AIZ1_PSG2,	0xF4, 0x04, 0x00, sTone_0C
	smpsHeaderPSG       Snd_AIZ1_PSG3,	0x00, 0x04, 0x00, sTone_0C

/*  Unreachable */
	smpsStop

/*  DAC Data */
Snd_AIZ1_DAC:
	smpsCall            Snd_AIZ1_Call00
	smpsLoop            0x00, 0x03, Snd_AIZ1_DAC
	.byte	dKickS3, 0x0C, dHighMetalHit, 0x06, dLowTomS3, dKickS3, 0x0C, dMidTomS3, 0x06, dLowMetalHit, dKickS3, 0x0C
	.byte	dHighMetalHit, 0x06, dLowTomS3, dKickS3, 0x0C, dSnareS3

Snd_AIZ1_Loop00:
	smpsCall            Snd_AIZ1_Call00
	smpsLoop            0x00, 0x03, Snd_AIZ1_Loop00
	.byte	dSnareS3, dSnareS3, dSnareS3, dSnareS3, dKickS3, dHighTom, dMidTomS3, dLowTomS3, dKickS3, dHigherMetalHit, 0x09, dHigherMetalHit
	.byte	0x02, dHigherMetalHit, 0x01, dHigherMetalHit, 0x06, dHigherMetalHit, dHigherMetalHit, 0x12

Snd_AIZ1_Loop01:
	smpsCall            Snd_AIZ1_Call00
	smpsLoop            0x00, 0x07, Snd_AIZ1_Loop01
	.byte	dKickS3, 0x18, dKickS3, 0x17, dSnareS3, 0x01, dSnareS3, 0x06, dSnareS3, 0x0C, dSnareS3, dSnareS3
	.byte	0x06, dSnareS3, 0x0C
	smpsCall            Snd_AIZ1_Call00
	.byte	dKickS3, 0x0C, dHighMetalHit, 0x06, dLowTomS3, dKickS3, 0x0C, dMidTomS3, 0x06, dLowMetalHit, dKickS3, 0x0C
	.byte	dHighMetalHit, 0x06, dLowTomS3, dKickS3, 0x0C, dSnareS3
	smpsCall            Snd_AIZ1_Call00
	.byte	dKickS3, 0x0C, dHighMetalHit, 0x06, dLowTomS3, dKickS3, 0x0C, dMidTomS3, 0x06, dLowMetalHit, dKickS3, dHigherMetalHit
	.byte	dHighMetalHit, dLowTomS3, dKickS3, 0x0C, dSnareS3, 0x06, dSnareS3
	smpsCall            Snd_AIZ1_Call00
	.byte	dKickS3, 0x0C, dHighMetalHit, 0x06, dLowTomS3, dKickS3, 0x0C, dMidTomS3, 0x06, dLowMetalHit, dKickS3, 0x0C
	.byte	dHighMetalHit, 0x06, dLowTomS3, dKickS3, 0x0C, dSnareS3
	smpsCall            Snd_AIZ1_Call00
	.byte	dKickS3, 0x0C, dHighMetalHit, 0x06, dLowTomS3, dKickS3, 0x0C, dMidTomS3, 0x06, dLowMetalHit, dSnareS3, dSnareS3
	.byte	dSnareS3, 0x0C, dSnareS3, 0x06, dSnareS3, dSnareS3, 0x0C, dKickS3

Snd_AIZ1_Loop02:
	smpsCall            Snd_AIZ1_Call01
	smpsLoop            0x00, 0x03, Snd_AIZ1_Loop02
	.byte	dHighMetalHit, 0x06, dLowTomS3, dKickS3, 0x0C, dMidTomS3, 0x06, dLowMetalHit, dKickS3, dSnareS3, dHighMetalHit, dSnareS3
	.byte	dSnareS3, 0x0C, dSnareS3, 0x06, dMetalHit, dKickS3, 0x0C

Snd_AIZ1_Loop03:
	smpsCall            Snd_AIZ1_Call01
	smpsLoop            0x00, 0x03, Snd_AIZ1_Loop03
	.byte	dHighMetalHit, 0x06, dLowTomS3, dKickS3, 0x0C, dMidTomS3, 0x06, dLowMetalHit, dKickS3, 0x0C, dHighMetalHit, 0x06
	.byte	dLowTomS3, dSnareS3, 0x0C, dSnareS3, 0x06, dMetalHit, dKickS3, 0x0C

Snd_AIZ1_Loop04:
	smpsCall            Snd_AIZ1_Call01
	smpsLoop            0x00, 0x02, Snd_AIZ1_Loop04
	.byte	dHighMetalHit, 0x06, dLowTomS3, dKickS3, 0x0C, dMidTomS3, 0x06, dLowMetalHit, dKickS3, 0x0C, dHighMetalHit, 0x06
	.byte	dLowTomS3, dSnareS3, 0x0C, dHighTom, 0x06, dMetalHit, 0x03, dMidMetalHit, 0x02, dMidMetalHit, 0x01, dHigherMetalHit
	.byte	0x06, dHigherMetalHit, 0x0C, dHigherMetalHit, dLowTomS3, 0x06, dSnareS3, 0x06, dKickS3, 0x0C, dKickS3, dKickS3
	.byte	0x03, dKickS3, dSnareS3, 0x06, nRst, 0x12
	smpsJump            Snd_AIZ1_DAC

/*  Unreachable */
	smpsStop

Snd_AIZ1_Call00:
	.byte	dKickS3, 0x0C, dHighMetalHit, 0x06, dLowTomS3, dKickS3, 0x0C, dMidTomS3, 0x06, dLowMetalHit, dKickS3, 0x0C
	.byte	dHighMetalHit, 0x06, dLowTomS3, dKickS3, 0x0C, dHighTom, 0x06, dMetalHit
	smpsReturn

Snd_AIZ1_Call01:
	.byte	dHighMetalHit, 0x06, dLowTomS3, dKickS3, 0x0C, dMidTomS3, 0x06, dLowMetalHit, dKickS3, 0x0C, dHighMetalHit, 0x06
	.byte	dLowTomS3, dSnareS3, 0x0C, dHighTom, 0x06, dMetalHit, dKickS3, 0x0C
	smpsReturn

/*  FM1 Data */
Snd_AIZ1_FM1:
	smpsSetvoice        0x15
	smpsAlterNote       0x00
	smpsModSet          0x03, 0x01, 0x02, 0x05
	.byte	nC1, 0x0B, nRst, 0x01
	smpsSetvoice        0x14
	smpsAlterNote       0x00
	smpsModSet          0x03, 0x01, 0x02, 0x05
	.byte	nRst, nC2, 0x04, nRst, 0x07, nBb1, 0x0B, nRst, 0x01, nA1, 0x05, nRst
	.byte	0x01, nBb1, 0x05, nRst, 0x07, nA1, 0x05, nRst, 0x01, nBb1, 0x05, nRst
	.byte	0x07, nBb1, 0x05, nRst, 0x07, nC2, 0x0B, nRst, 0x01
	smpsSetvoice        0x15
	smpsAlterNote       0x00
	smpsModSet          0x03, 0x01, 0x02, 0x05
	.byte	nC1, 0x0B, nRst, 0x01
	smpsSetvoice        0x14
	smpsAlterNote       0x00
	smpsModSet          0x03, 0x01, 0x02, 0x05
	.byte	nBb1, nC2, 0x04, nRst, 0x07, nBb1, 0x0B, nRst, 0x01, nA1, 0x05, nRst
	.byte	0x01, nBb1, 0x05, nRst, 0x07
	smpsSetvoice        0x15
	smpsAlterNote       0x00
	smpsModSet          0x03, 0x01, 0x02, 0x05
	.byte	nBb0, 0x05, nRst, 0x07, nBb0, 0x05, nRst, 0x07, nBb0, 0x05, nRst, 0x01
	.byte	nB0, 0x0B, nRst, 0x01, nC1, 0x0B, nRst, 0x01
	smpsSetvoice        0x14
	smpsAlterNote       0x00
	smpsModSet          0x03, 0x01, 0x02, 0x05
	.byte	nB1, nC2, 0x04, nRst, 0x07, nBb1, 0x0B, nRst, 0x01, nA1, 0x05, nRst
	.byte	0x01, nBb1, 0x05, nRst, 0x07, nA1, 0x05, nRst, 0x01, nBb1, 0x05, nRst
	.byte	0x07, nBb1, 0x05, nRst, 0x08, nC2, 0x0A, nRst, 0x01
	smpsSetvoice        0x15
	smpsAlterNote       0x00
	smpsModSet          0x03, 0x01, 0x02, 0x05
	.byte	nC1, 0x0B, nRst, 0x01
	smpsSetvoice        0x14
	smpsAlterNote       0x00
	smpsModSet          0x03, 0x01, 0x02, 0x05
	.byte	nC2, 0x05, nRst, 0x07, nBb1, 0x0B, nRst, 0x01, nA1, 0x05, nRst, 0x01
	.byte	nBb1, 0x05, nRst, 0x07
	smpsSetvoice        0x15
	smpsAlterNote       0x00
	smpsModSet          0x03, 0x01, 0x02, 0x05
	.byte	nBb0, 0x05, nRst, 0x07, nBb0, 0x05, nRst, 0x07, nBb0, 0x05, nRst, 0x01
	.byte	nB0, 0x0B, nRst, 0x01
	smpsSetvoice        0x15
	smpsAlterNote       0x00
	smpsModSet          0x03, 0x01, 0x02, 0x05
	.byte	nC1, 0x0B, nRst, 0x01
	smpsSetvoice        0x14
	smpsAlterNote       0x00
	smpsModSet          0x03, 0x01, 0x02, 0x05
	.byte	nRst, nC2, 0x04, nRst, 0x07, nBb1, 0x0B, nRst, 0x01, nA1, 0x05, nRst
	.byte	0x01, nBb1, 0x05, nRst, 0x07, nA1, 0x05, nRst, 0x01, nBb1, 0x05, nRst
	.byte	0x07, nBb1, 0x05, nRst, 0x07, nC2, 0x0B, nRst, 0x01
	smpsSetvoice        0x15
	smpsAlterNote       0x00
	smpsModSet          0x03, 0x01, 0x02, 0x05
	.byte	nC1, 0x0B, nRst, 0x01
	smpsSetvoice        0x14
	smpsAlterNote       0x00
	smpsModSet          0x03, 0x01, 0x02, 0x05
	.byte	nBb1, nC2, 0x04, nRst, 0x07, nBb1, 0x0B, nRst, 0x01, nA1, 0x05, nRst
	.byte	0x01, nBb1, 0x05, nRst, 0x07
	smpsSetvoice        0x15
	smpsAlterNote       0x00
	smpsModSet          0x03, 0x01, 0x02, 0x05
	.byte	nBb0, 0x05, nRst, 0x07, nBb0, 0x05, nRst, 0x07, nBb0, 0x05, nRst, 0x01
	.byte	nB0, 0x0B, nRst, 0x01, nC1, 0x0B, nRst, 0x01
	smpsSetvoice        0x14
	smpsAlterNote       0x00
	smpsModSet          0x03, 0x01, 0x02, 0x05
	.byte	nB1, nC2, 0x04, nRst, 0x07, nBb1, 0x0B, nRst, 0x01, nA1, 0x05, nRst
	.byte	0x01, nBb1, 0x05, nRst, 0x07, nA1, 0x05, nRst, 0x01, nBb1, 0x05, nRst
	.byte	0x07, nBb1, 0x05, nRst, 0x08, nC2, 0x0A, nRst, 0x01
	smpsSetvoice        0x15
	smpsAlterNote       0x00
	smpsModSet          0x03, 0x01, 0x02, 0x05
	.byte	nG0, 0x05, nRst, 0x01, nG0, 0x05, nRst, 0x01, nG0, 0x05, nRst, 0x01
	.byte	nG0, 0x05, nRst, 0x1F, nF0, 0x05, nRst, 0x01, nA0, 0x0B, nRst, 0x01
	.byte	nBb0, 0x0B, nRst, 0x01, nB0, 0x0B, nRst, 0x01, nC1, 0x16, nRst, 0x02
	.byte	nC1, 0x10, nRst, 0x02, nC1, 0x10, nRst, 0x02, nG0, 0x0A, nRst, 0x02
	.byte	nC1, 0x0A, nRst, 0x02, nG0, 0x0A, nRst, 0x02, nF0, 0x16, nRst, 0x02
	.byte	nF0, 0x10, nRst, 0x02, nF0, 0x0A, nRst, 0x02, nF0, 0x04, nRst, 0x02
	.byte	nA0, 0x0A, nRst, 0x02, nBb0, 0x0A, nRst, 0x02, nB0, 0x0A, nRst, 0x02
	.byte	nC1, 0x16, nRst, 0x02, nC1, 0x10, nRst, 0x02, nC1, 0x10, nRst, 0x02
	.byte	nG0, 0x0A, nRst, 0x02, nC1, 0x0A, nRst, 0x02, nG0, 0x0A, nRst, 0x02
	.byte	nF0, 0x16, nRst, 0x02, nF0, 0x10, nRst, 0x02, nF0, 0x0A, nRst, 0x02
	.byte	nF0, 0x04, nRst, 0x02, nA0, 0x0A, nRst, 0x02, nBb0, 0x0A, nRst, 0x02
	.byte	nB0, 0x0A, nRst, 0x02, nC1, 0x16, nRst, 0x02, nC1, 0x10, nRst, 0x02
	.byte	nC1, 0x10, nRst, 0x02, nG0, 0x0A, nRst, 0x02, nC1, 0x0A, nRst, 0x02
	.byte	nG0, 0x0A, nRst, 0x02, nF0, 0x16, nRst, 0x02, nF0, 0x10, nRst, 0x02
	.byte	nF0, 0x0A, nRst, 0x02, nF0, 0x04, nRst, 0x02, nA0, 0x0A, nRst, 0x02
	.byte	nBb0, 0x0A, nRst, 0x02, nB0, 0x0A, nRst, 0x02, nC1, 0x16, nRst, 0x02
	.byte	nC1, 0x10, nRst, 0x02, nC1, 0x10, nRst, 0x02, nG0, 0x0A, nRst, 0x02
	.byte	nC1, 0x0A, nRst, 0x02, nG0, 0x0A, nRst, 0x02, nF0, 0x16, nRst, 0x02
	.byte	nF0, 0x10, nRst, 0x02, nF0, 0x0A, nRst, 0x02, nF0, 0x04, nRst, 0x02
	.byte	nA0, 0x0A, nRst, 0x02, nBb0, 0x0A, nRst, 0x02, nB0, 0x0A, nRst, 0x02
	.byte	nC1, 0x16, nRst, 0x02, nC1, 0x10, nRst, 0x02, nC1, 0x10, nRst, 0x02
	.byte	nG0, 0x0A, nRst, 0x02, nC1, 0x0A, nRst, 0x02, nG0, 0x0A, nRst, 0x02
	.byte	nF0, 0x16, nRst, 0x02, nF0, 0x10, nRst, 0x02, nF0, 0x0A, nRst, 0x02
	.byte	nF0, 0x04, nRst, 0x02, nA0, 0x0A, nRst, 0x02, nBb0, 0x0A, nRst, 0x02
	.byte	nB0, 0x0A, nRst, 0x02, nC1, 0x16, nRst, 0x02, nC1, 0x10, nRst, 0x02
	.byte	nC1, 0x10, nRst, 0x02, nG0, 0x0A, nRst, 0x02, nC1, 0x0A, nRst, 0x02
	.byte	nG0, 0x0A, nRst, 0x02, nF0, 0x16, nRst, 0x02, nF0, 0x10, nRst, 0x02
	.byte	nF0, 0x0A, nRst, 0x02, nF0, 0x04, nRst, 0x02, nA0, 0x0A, nRst, 0x02
	.byte	nBb0, 0x0A, nRst, 0x02, nB0, 0x0A, nRst, 0x02, nC1, 0x16, nRst, 0x02
	.byte	nC1, 0x10, nRst, 0x02, nC1, 0x10, nRst, 0x02, nG0, 0x0A, nRst, 0x02
	.byte	nC1, 0x0A, nRst, 0x02, nG0, 0x0A, nRst, 0x02, nF0, 0x16, nRst, 0x02
	.byte	nF0, 0x10, nRst, 0x02, nF0, 0x0A, nRst, 0x02, nF0, 0x04, nRst, 0x02
	.byte	nA0, 0x0A, nRst, 0x02, nBb0, 0x0A, nRst, 0x02, nB0, 0x0A, nRst, 0x02
	.byte	nC1, 0x16, nRst, 0x02, nC1, 0x10, nRst, 0x02, nC1, 0x10, nRst, 0x02
	.byte	nG0, 0x0A, nRst, 0x02, nC1, 0x0A, nRst, 0x02, nG0, 0x0A, nRst, 0x02
	.byte	nF0, 0x16, nRst, 0x02, nF0, 0x10, nRst, 0x02, nF0, 0x0A, nRst, 0x02
	.byte	nF0, 0x04, nRst, 0x02, nC1, 0x04, nRst, 0x02, nF1, 0x04, nRst, 0x02
	.byte	nF1, 0x04, nRst, 0x02, nC1, 0x04, nRst, 0x02, nF0, 0x0A, nRst, 0x02
	.byte	nE0, 0x16, nRst, 0x02, nE0, 0x10, nRst, 0x02, nA0, 0x10, nRst, 0x02
	.byte	nA0, 0x0A, nRst, 0x02, nE1, 0x0A, nRst, 0x02, nA0, 0x0A, nRst, 0x02
	.byte	nD1, 0x16, nRst, 0x02, nD1, 0x10, nRst, 0x02, nG0, 0x0A, nRst, 0x02
	.byte	nG0, 0x04, nRst, 0x02, nG1, 0x0A, nRst, 0x02, nG1, 0x0A, nRst, 0x02
	.byte	nF1, 0x0A, nRst, 0x02, nE1, 0x16, nRst, 0x02, nE1, 0x10, nRst, 0x02
	.byte	nA0, 0x10, nRst, 0x02, nA0, 0x0A, nRst, 0x02, nE1, 0x0A, nRst, 0x02
	.byte	nA0, 0x0A, nRst, 0x02, nD1, 0x16, nRst, 0x02, nD1, 0x10, nRst, 0x02
	.byte	nG0, 0x0A, nRst, 0x02, nG0, 0x04, nRst, 0x02, nG1, 0x0A, nRst, 0x02
	.byte	nG1, 0x0A, nRst, 0x02, nF1, 0x0A, nRst, 0x02, nE1, 0x16, nRst, 0x02
	.byte	nE1, 0x10, nRst, 0x02, nA0, 0x10, nRst, 0x02, nA0, 0x0A, nRst, 0x02
	.byte	nE1, 0x0A, nRst, 0x02, nA0, 0x0A, nRst, 0x02, nD1, 0x16, nRst, 0x02
	.byte	nD1, 0x10, nRst, 0x02, nG0, 0x0A, nRst, 0x02, nG0, 0x04, nRst, 0x02
	.byte	nG1, 0x0A, nRst, 0x02, nG1, 0x0A, nRst, 0x02, nF1, 0x0A, nRst, 0x02
	.byte	nE1, 0x16, nRst, 0x02, nE1, 0x10, nRst, 0x02, nA0, 0x10, nRst, 0x02
	.byte	nA0, 0x0A, nRst, 0x02, nE1, 0x0A, nRst, 0x02, nA0, 0x0A, nRst, 0x02
	.byte	nD1, 0x16, nRst, 0x02, nD1, 0x10, nRst, 0x02, nG0, 0x0A, nRst, 0x02
	.byte	nG0, 0x04, nRst, 0x02, nG1, 0x0A, nRst, 0x02, nFs1, 0x0A, nRst, 0x02
	.byte	nFs1, 0x0A, nRst, 0x02, nF1, 0x16, nRst, 0x02, nF1, 0x10, nRst, 0x02
	.byte	nC1, 0x10, nRst, 0x02, nC1, 0x0A, nRst, 0x02, nF1, 0x0A, nRst, 0x02
	.byte	nF1, 0x0A, nRst, 0x02, nD1, 0x16, nRst, 0x02, nD1, 0x10, nRst, 0x02
	.byte	nA0, 0x10, nRst, 0x02, nA0, 0x0A, nRst, 0x02, nD1, 0x0A, nRst, 0x02
	.byte	nD1, 0x0A, nRst, 0x02, nBb0, 0x16, nRst, 0x02, nBb0, 0x10, nRst, 0x02
	.byte	nF0, 0x10, nRst, 0x02, nF0, 0x0A, nRst, 0x02, nBb0, 0x0A, nRst, 0x02
	.byte	nBb0, 0x0A, nRst, 0x02, nG0, 0x16, nRst, 0x02, nG0, 0x10, nRst, 0x02
	.byte	nB0, 0x10, nRst, 0x02, nB0, 0x0A, nRst, 0x02, nC1, 0x0A, nRst, 0x02
	.byte	nD1, 0x0A, nRst, 0x02
	smpsJump            Snd_AIZ1_FM1

/*  Unreachable */
	smpsStop

/*  FM2 Data */
Snd_AIZ1_FM2:
	smpsSetvoice        0x18
	smpsAlterNote       0xFB
	smpsModSet          0x0F, 0x01, 0x06, 0x05
	smpsPan             panRight, 0x00
	smpsCall            Snd_AIZ1_Call02
	smpsCall            Snd_AIZ1_Call03
	smpsSetvoice        0x17
	smpsAlterNote       0x05
	smpsModSet          0x0F, 0x01, 0x03, 0x05
	smpsPan             panRight, 0x00
	smpsCall            Snd_AIZ1_Call04
	smpsSetvoice        0x11
	smpsAlterNote       0xFB
	smpsModSet          0x0F, 0x01, 0x06, 0x06
	smpsPan             panRight, 0x00
	.byte	nD3, nF3, nD4, nC4, 0x1E
	smpsSetvoice        0x18
	smpsAlterNote       0xFB
	smpsModSet          0x0F, 0x01, 0x06, 0x05
	smpsPan             panRight, 0x00
	smpsCall            Snd_AIZ1_Call05
	smpsSetvoice        0x11
	smpsAlterNote       0xFB
	smpsModSet          0x0F, 0x01, 0x06, 0x06
	smpsPan             panRight, 0x00
	.byte	nA3, 0x06, nA3, nA3, nA3, nRst, 0x24
	smpsFMAlterVol      0xFA
	smpsFMAlterVol      0xFB
	smpsSetvoice        0x06
	smpsAlterNote       0xFB
	smpsModSet          0x0F, 0x01, 0x06, 0x05
	smpsPan             panCenter, 0x00
	smpsCall            Snd_AIZ1_Call06
	smpsSetvoice        0x06
	smpsAlterNote       0xFB
	smpsModSet          0x0F, 0x01, 0x06, 0x05
	smpsPan             panCenter, 0x00
	smpsCall            Snd_AIZ1_Call07
	.byte	nBb1, 0x01, smpsNoAttack, nAb2, 0x01, smpsNoAttack, nBb2, 0x39, nRst, 0x3D
	smpsSetvoice        0x06
	smpsAlterNote       0xFB
	smpsModSet          0x0F, 0x01, 0x06, 0x05
	smpsPan             panCenter, 0x00
	smpsCall            Snd_AIZ1_Call08
	smpsSetvoice        0x06
	smpsAlterNote       0xFB
	smpsModSet          0x0F, 0x01, 0x06, 0x05
	smpsPan             panCenter, 0x00
	smpsCall            Snd_AIZ1_Call09
	.byte	nRst, 0x03
	smpsFMAlterVol      0x05
	smpsFMAlterVol      0xF8
	smpsSetvoice        0x0F
	smpsAlterNote       0x03
	smpsModSet          0x0F, 0x01, 0x06, 0x05
	smpsPan             panRight, 0x00
	smpsCall            Snd_AIZ1_Call0A
	.byte	nRst, 0x1F
	smpsFMAlterVol      0x08
	smpsSetvoice        0x06
	smpsAlterNote       0x03
	smpsModSet          0x0F, 0x01, 0x06, 0x05
	smpsPan             panCenter, 0x00
	smpsCall            Snd_AIZ1_Call0B
	.byte	nRst, 0x07
	smpsFMAlterVol      0xFE
	smpsSetvoice        0x0F
	smpsAlterNote       0x03
	smpsModSet          0x0F, 0x01, 0x06, 0x05
	smpsPan             panRight, 0x00
	.byte	nG3, 0x0B, nRst, 0x01, nD4, 0x0B, nRst, 0x01, nG4, 0x0B, nRst, 0x01
	smpsSetvoice        0x0F
	smpsAlterNote       0x03
	smpsModSet          0x0F, 0x01, 0x06, 0x05
	smpsPan             panRight, 0x00
	.byte	nF4, 0x05, nRst, 0x0D, nE4, 0x05, nRst, 0x0D, nC4, 0x05, nRst, 0x07
	.byte	nA3, 0x30, nD4, 0x05, nRst, 0x0D, nC4, 0x05, nRst, 0x0D, nB3, 0x05
	.byte	nRst, 0x0D
	smpsFMAlterVol      0x02
	smpsSetvoice        0x06
	smpsAlterNote       0x03
	smpsModSet          0x0F, 0x01, 0x06, 0x05
	smpsPan             panCenter, 0x00
	.byte	nG2, 0x30, nE2, 0x2F, nRst, 0x01, nA2, 0x0F, nRst, 0x01, nG2, 0x0F
	.byte	nRst, 0x01, nF2, 0x0F, nRst, 0x01, nE2, 0x0F, nRst, 0x01, nF2, 0x0F
	.byte	nRst, 0x01, nA2, 0x0F, nRst, 0x07
	smpsFMAlterVol      0xFE
	smpsSetvoice        0x0F
	smpsAlterNote       0x03
	smpsModSet          0x0F, 0x01, 0x06, 0x05
	smpsPan             panRight, 0x00
	.byte	nG3, 0x0B, nRst, 0x01, nD4, 0x0B, nRst, 0x01, nG4, 0x0B, nRst, 0x01
	.byte	nF4, 0x05, nRst, 0x0D, nE4, 0x05, nRst, 0x0D, nC4, 0x05, nRst, 0x07
	.byte	nA3, 0x30, nD4, 0x05, nRst, 0x0D, nC4, 0x05, nRst, 0x0D, nB3, 0x05
	.byte	nRst, 0x07
	smpsSetvoice        0x06
	smpsAlterNote       0xFE
	smpsModSet          0x0C, 0x01, 0x06, 0x05
	smpsPan             panLeft, 0x00
	.byte	nA3, 0x1D, nRst, 0x07, nA3, 0x02, nRst, 0x04, nB3, 0x02, nRst, 0x04
	.byte	nC4, 0x12, nB3, 0x12, nA3, 0x0B, nRst, 0x01, nC4, 0x1D, nRst, 0x07
	.byte	nC4, 0x02, nRst, 0x04, nD4, 0x02, nRst, 0x04, nE4, 0x12, nD4, 0x12
	.byte	nC4, 0x0B, nRst, 0x01, nD4, 0x30, nA3, 0x30, nC4, 0x18, nB3, nC4
	.byte	nD4
	smpsFMAlterVol      0x02
	smpsJump            Snd_AIZ1_FM2

/*  Unreachable */
	smpsStop

/*  FM3 Data */
Snd_AIZ1_FM3:
	smpsSetvoice        0x18
	smpsAlterNote       0x05
	smpsModSet          0x0F, 0x01, 0x06, 0x05
	smpsPan             panLeft, 0x00
	smpsCall            Snd_AIZ1_Call02
	smpsSetvoice        0x18
	smpsAlterNote       0x05
	smpsModSet          0x0F, 0x01, 0x06, 0x05
	smpsPan             panLeft, 0x00
	smpsCall            Snd_AIZ1_Call03
	smpsSetvoice        0x17
	smpsAlterNote       0xFB
	smpsModSet          0x0F, 0x01, 0x03, 0x05
	smpsPan             panLeft, 0x00
	smpsCall            Snd_AIZ1_Call04
	smpsSetvoice        0x06
	smpsAlterNote       0xFE
	smpsModSet          0x0C, 0x01, 0x06, 0x05
	smpsPan             panLeft, 0x00
	.byte	nF3, 0x06, nBb3, nF4, nE4, 0x1E
	smpsSetvoice        0x18
	smpsAlterNote       0x05
	smpsModSet          0x0F, 0x01, 0x06, 0x05
	smpsPan             panLeft, 0x00
	smpsCall            Snd_AIZ1_Call05
	.byte	nC5, 0x06, nC5, nC5, nC5, nRst, 0x24
	smpsFMAlterVol      0xFA
	smpsSetvoice        0x06
	smpsAlterNote       0x03
	smpsModSet          0x0F, 0x01, 0x06, 0x05
	smpsPan             panCenter, 0x00
	smpsFMAlterVol      0x00
	.byte	nRst, 0x03
	smpsCall            Snd_AIZ1_Call06
	smpsCall            Snd_AIZ1_Call07
	.byte	nD3, 0x3B, nRst, 0x3D
	smpsCall            Snd_AIZ1_Call08
	smpsCall            Snd_AIZ1_Call09
	smpsFMAlterVol      0x00
	smpsSetvoice        0x0F
	smpsAlterNote       0xFB
	smpsModSet          0x0F, 0x01, 0x06, 0x06
	smpsPan             panRight, 0x00
	smpsCall            Snd_AIZ1_Call0A
	.byte	nRst, 0x19
	smpsSetvoice        0x06
	smpsAlterNote       0x03
	smpsModSet          0x0F, 0x01, 0x06, 0x05
	smpsPan             panCenter, 0x00
	smpsCall            Snd_AIZ1_Call0B
	.byte	nRst, 0x01
	smpsSetvoice        0x06
	smpsAlterNote       0x03
	smpsModSet          0x0F, 0x01, 0x06, 0x05
	smpsPan             panCenter, 0x00
	.byte	nG2, 0x5F, nRst, 0x07, nA3, 0x2F, nRst, 0x01, nD4, 0x05, nRst, 0x0D
	.byte	nC4, 0x05, nRst, 0x0D, nB3, 0x05, nRst, 0x01, nG2, 0x2F, nRst, 0x01
	.byte	nE2, 0x2F, nRst, 0x01
	smpsSetvoice        0x06
	smpsAlterNote       0x03
	smpsModSet          0x0F, 0x01, 0x06, 0x05
	smpsPan             panCenter, 0x00
	.byte	nA2, 0x0F, nRst, 0x01, nG2, 0x0F, nRst, 0x01, nF2, 0x0F, nRst, 0x01
	.byte	nE2, 0x0F, nRst, 0x01, nF2, 0x0F, nRst, 0x01, nA2, 0x0F, nRst, 0x01
	.byte	nG2, 0x5F, nRst, 0x01, nA3, 0x2F, nRst, 0x01, nD4, 0x05, nRst, 0x0D
	.byte	nC4, 0x05, nRst, 0x0D, nB3, 0x05, nRst, 0x07
	smpsSetvoice        0x0F
	smpsAlterNote       0xFB
	smpsModSet          0x0F, 0x01, 0x06, 0x06
	smpsPan             panRight, 0x00
	.byte	nRst, 0x60, nF3, 0x1D, nRst, 0x07, nF3, 0x02, nRst, 0x04, nG3, 0x02
	.byte	nRst, 0x04, nA3, 0x11, nRst, 0x01, nG3, 0x11, nRst, 0x01, nF3, 0x0B
	.byte	nRst, 0x01
	smpsSetvoice        0x11
	smpsAlterNote       0xFB
	smpsModSet          0x0F, 0x01, 0x06, 0x06
	smpsPan             panRight, 0x00
	.byte	nA3, 0x2F, nRst, 0x01, nF3, 0x2F, nRst, 0x01, nA3, 0x17, nRst, 0x01
	.byte	nG3, 0x17, nRst, 0x01, nA3, 0x17, nRst, 0x01, nB3, 0x17, nRst, 0x01
	smpsJump            Snd_AIZ1_FM3

Snd_AIZ1_Call02:
	.byte	nG3, 0x04, nE3
	smpsFMAlterVol      0x06
	.byte	nG3, nE3
	smpsFMAlterVol      0x02
	.byte	nG3, nE3, nG3, nE3
	smpsFMAlterVol      0x02
	.byte	nG3, nE3, nG3, nE3
	smpsFMAlterVol      0x02
	.byte	nG3, nE3
	smpsFMAlterVol      0xFA
	.byte	nG3, nE3
	smpsFMAlterVol      0xFE
	.byte	nG3, nE3
	smpsFMAlterVol      0xFC
	.byte	nA3, nF3
	smpsFMAlterVol      0x06
	.byte	nA3, nF3
	smpsFMAlterVol      0x02
	.byte	nA3, nF3
	smpsFMAlterVol      0xF8
	smpsReturn

Snd_AIZ1_Call03:
	.byte	nBb3, 0x04, nG3
	smpsFMAlterVol      0x04
	.byte	nBb3, nG3
	smpsFMAlterVol      0x02
	.byte	nBb3, nG3
	smpsFMAlterVol      0x02
	.byte	nBb3, nG3
	smpsFMAlterVol      0x02
	.byte	nBb3, nG3, nBb3, nG3
	smpsFMAlterVol      0xFE
	.byte	nBb3, nG3
	smpsFMAlterVol      0xFE
	.byte	nBb3
	smpsFMAlterVol      0xFE
	.byte	nG3
	smpsFMAlterVol      0xFE
	.byte	nBb3, nG3
	smpsFMAlterVol      0xFE
	.byte	nA3, nF3
	smpsFMAlterVol      0x04
	.byte	nA3, nF3
	smpsFMAlterVol      0x02
	.byte	nA3, nF3
	smpsFMAlterVol      0xFE
	.byte	nA3
	smpsFMAlterVol      0xFE
	.byte	nBb3
	smpsFMAlterVol      0x02
	.byte	nA3
	smpsFMAlterVol      0xFE
	.byte	nG3, nE3
	smpsFMAlterVol      0x02
	.byte	nG3, nE3
	smpsFMAlterVol      0x02
	.byte	nG3, nE3
	smpsFMAlterVol      0x02
	.byte	nG3, nE3
	smpsFMAlterVol      0x02
	.byte	nG3, nE3
	smpsFMAlterVol      0xFE
	.byte	nG3, nE3
	smpsFMAlterVol      0xFE
	.byte	nG3, nE3
	smpsFMAlterVol      0xFE
	.byte	nG3, nE3
	smpsFMAlterVol      0xFE
	.byte	nG3, nE3, nG3, nE3
	smpsFMAlterVol      0xFE
	.byte	nG3
	smpsReturn

Snd_AIZ1_Call04:
	.byte	nC4, 0x06, nC4, nC5, nC4, nBb4, nC4, nBb4, nC5
	smpsReturn

Snd_AIZ1_Call05:
	.byte	nG3, 0x04, nE3
	smpsFMAlterVol      0x06
	.byte	nG3, nE3
	smpsFMAlterVol      0x02
	.byte	nG3, nE3, nG3, nE3
	smpsFMAlterVol      0x02
	.byte	nG3, nE3, nG3, nE3
	smpsFMAlterVol      0x02
	.byte	nG3, nE3
	smpsFMAlterVol      0xFA
	.byte	nG3, nE3
	smpsFMAlterVol      0xFE
	.byte	nG3, nE3
	smpsFMAlterVol      0xFC
	.byte	nA3, nF3
	smpsFMAlterVol      0x06
	.byte	nA3, nF3
	smpsFMAlterVol      0x02
	.byte	nA3, nF3
	smpsFMAlterVol      0xF8
	.byte	nBb3, nG3
	smpsFMAlterVol      0x04
	.byte	nBb3, nG3
	smpsFMAlterVol      0x02
	.byte	nBb3, nG3
	smpsFMAlterVol      0x02
	.byte	nBb3, nG3
	smpsFMAlterVol      0x02
	.byte	nBb3, nG3, nBb3, nG3
	smpsFMAlterVol      0xFE
	.byte	nBb3, nG3
	smpsFMAlterVol      0xFE
	.byte	nBb3
	smpsFMAlterVol      0xFE
	.byte	nG3
	smpsFMAlterVol      0xFE
	.byte	nBb3, nG3
	smpsFMAlterVol      0xFE
	.byte	nA3, nF3
	smpsFMAlterVol      0x04
	.byte	nA3, nF3
	smpsFMAlterVol      0x02
	.byte	nA3, nF3
	smpsFMAlterVol      0xFE
	.byte	nA3
	smpsFMAlterVol      0xFE
	.byte	nBb3
	smpsFMAlterVol      0x02
	.byte	nA3
	smpsFMAlterVol      0xFE
	.byte	nG3, nE3
	smpsFMAlterVol      0x02
	.byte	nG3, nE3
	smpsFMAlterVol      0x02
	.byte	nG3, nE3
	smpsFMAlterVol      0x02
	.byte	nG3, nE3
	smpsFMAlterVol      0x02
	.byte	nG3, nE3
	smpsFMAlterVol      0xFE
	.byte	nG3, nE3
	smpsFMAlterVol      0xFE
	.byte	nG3, nE3
	smpsFMAlterVol      0xFE
	.byte	nG3, nE3
	smpsFMAlterVol      0xFE
	.byte	nG3, nE3, nG3, nE3
	smpsFMAlterVol      0xFE
	.byte	nG3
	smpsReturn

Snd_AIZ1_Call06:
	.byte	nF1, 0x01, smpsNoAttack, nEb2, 0x01, smpsNoAttack, nF2, 0x0A, nBb1, 0x01, smpsNoAttack, nAb2
	.byte	0x01, smpsNoAttack, nBb2, 0x0A, nF2, 0x01, smpsNoAttack, nEb3, 0x01, smpsNoAttack, nF3, 0x0A
	.byte	nE2, 0x01, smpsNoAttack, nD3, 0x01, smpsNoAttack, nE3, 0x03, nRst, 0x0D, nC2, 0x01
	.byte	smpsNoAttack, nBb2, 0x01, smpsNoAttack, nC3, 0x03, nRst, 0x0D, nBb1, 0x01, smpsNoAttack, nAb2
	.byte	0x01, smpsNoAttack, nBb2, 0x39, nRst, 0x3D
	smpsReturn

Snd_AIZ1_Call07:
	.byte	nF1, 0x01, smpsNoAttack, nEb2, 0x01, smpsNoAttack, nF2, 0x0A, nBb1, 0x01, smpsNoAttack, nAb2
	.byte	0x01, smpsNoAttack, nBb2, 0x0A, nF2, 0x01, smpsNoAttack, nEb3, 0x01, smpsNoAttack, nF3, 0x0A
	.byte	nE2, 0x01, smpsNoAttack, nD3, 0x01, smpsNoAttack, nE3, 0x03, nRst, 0x0D, nC2, 0x01
	.byte	smpsNoAttack, nBb2, 0x01, smpsNoAttack, nC3, 0x03, nRst, 0x0D
	smpsReturn

Snd_AIZ1_Call08:
	.byte	nF1, 0x01, smpsNoAttack, nEb2, 0x01, smpsNoAttack, nF2, 0x0A, nBb1, 0x01, smpsNoAttack, nAb2
	.byte	0x01, smpsNoAttack, nBb2, 0x0A, nF2, 0x01, smpsNoAttack, nEb3, 0x01, smpsNoAttack, nF3, 0x0A
	.byte	nE2, 0x01, smpsNoAttack, nD3, 0x01, smpsNoAttack, nE3, 0x03, nRst, 0x0D, nC2, 0x01
	.byte	smpsNoAttack, nBb2, 0x01, smpsNoAttack, nC3, 0x03, nRst, 0x0D, nBb1, 0x01, smpsNoAttack, nAb2
	.byte	0x01, smpsNoAttack, nBb2, 0x39, nRst, 0x3D
	smpsReturn

Snd_AIZ1_Call09:
	.byte	nF1, 0x01, smpsNoAttack, nEb2, 0x01, smpsNoAttack, nF2, 0x0A, nBb1, 0x01, smpsNoAttack, nAb2
	.byte	0x01, smpsNoAttack, nBb2, 0x0A, nF2, 0x01, smpsNoAttack, nEb3, 0x01, smpsNoAttack, nF3, 0x0A
	.byte	nE2, 0x01, smpsNoAttack, nD3, 0x01, smpsNoAttack, nE3, 0x03, nRst, 0x0D, nC2, 0x01
	.byte	smpsNoAttack, nBb2, 0x01, smpsNoAttack, nC3, 0x03, nRst, 0x0D, nD2, 0x01, smpsNoAttack, nC3
	.byte	0x01, smpsNoAttack, nD3, 0x39, nRst, 0x49
	smpsFMAlterVol      0x06
	.byte	nRst, 0x09
	smpsReturn

Snd_AIZ1_Call0A:
	.byte	nE4, 0x05, nRst, 0x01, nF4, 0x05, nRst, 0x01, nG4, 0x05, nRst, 0x0D
	.byte	nC4, 0x05, nRst, 0x0D, nBb4, 0x11, nRst, 0x07, nBb4, 0x05, nRst, 0x07
	.byte	nBb4, 0x05, nRst, 0x07, nG4, 0x05, nRst, 0x07, nA4, 0x05, nRst, 0x0D
	.byte	nF4, 0x05, nRst, 0x0D, nC4, 0x29, nRst, 0x07, nE4, 0x05, nRst, 0x01
	.byte	nF4, 0x05, nRst, 0x01, nG4, 0x05, nRst, 0x0D, nC4, 0x05, nRst, 0x0D
	.byte	nBb4, 0x11, nRst, 0x07, nBb4, 0x05, nRst, 0x07, nBb4, 0x05, nRst, 0x07
	.byte	nC5, 0x05, nRst, 0x07, nA4, 0x2F, nRst, 0x25, nE4, 0x05, nRst, 0x01
	.byte	nF4, 0x05, nRst, 0x01, nG4, 0x05, nRst, 0x0D, nC4, 0x05, nRst, 0x0D
	.byte	nBb4, 0x0B, nRst, 0x07, nBb4, 0x02, nRst, 0x04, nBb4, 0x02, nRst, 0x0A
	.byte	nBb4, 0x05, nRst, 0x07, nG4, 0x05, nRst, 0x07, nA4, 0x05, nRst, 0x0D
	.byte	nF4, 0x05, nRst, 0x0D, nC4, 0x23, nRst, 0x0D, nE4, 0x05, nRst, 0x01
	.byte	nF4, 0x05, nRst, 0x01, nG4, 0x05, nRst, 0x0D, nC4, 0x05, nRst, 0x0D
	.byte	nBb4, 0x11, nRst, 0x07, nBb4, 0x05, nRst, 0x07, nBb4, 0x05, nRst, 0x07
	.byte	nC5, 0x05, nRst, 0x07, nA4, 0x11, nRst, 0x01, nBb4, 0x11, nRst, 0x01
	.byte	nC5, 0x23
	smpsReturn

Snd_AIZ1_Call0B:
	.byte	nG1, 0x01, smpsNoAttack, nF2, 0x01, smpsNoAttack, nG2, 0x2D, nRst, 0x01, nE1, 0x01
	.byte	smpsNoAttack, nD2, 0x01, smpsNoAttack, nE2, 0x2D, nRst, 0x01, nA1, 0x01, smpsNoAttack, nG2
	.byte	0x01, smpsNoAttack, nA2, 0x0D, nRst, 0x01, nG1, 0x01, smpsNoAttack, nF2, 0x01, smpsNoAttack
	.byte	nG2, 0x0D, nRst, 0x01, nF1, 0x01, smpsNoAttack, nEb2, 0x01, smpsNoAttack, nF2, 0x0D
	.byte	nRst, 0x01, nE1, 0x01, smpsNoAttack, nD2, 0x01, smpsNoAttack, nE2, 0x0D, nRst, 0x01
	.byte	nF1, 0x01, smpsNoAttack, nEb2, 0x01, smpsNoAttack, nF2, 0x0D, nRst, 0x01, nA1, 0x01
	.byte	smpsNoAttack, nG2, 0x01, smpsNoAttack, nA2, 0x0D
	smpsReturn

/*  Unreachable */
	smpsStop

/*  FM4 Data */
Snd_AIZ1_FM4:
	smpsSetvoice        0x16
	smpsAlterNote       0xFB
	smpsModSet          0x03, 0x01, 0x02, 0x05
	smpsPan             panRight, 0x00
	.byte	nG3, 0x05, nRst, 0x0D, nG3, 0x05, nRst, 0x19, nG3, 0x05, nRst, 0x0D
	.byte	nG3, 0x05, nRst, 0x19, nF3, 0x05, nRst, 0x0D, nF3, 0x05, nRst, 0x07
	smpsSetvoice        0x06
	smpsAlterNote       0xFE
	smpsModSet          0x0C, 0x01, 0x06, 0x05
	smpsPan             panLeft, 0x00
	.byte	nD3, 0x04, nRst, 0x02, nE3, 0x04, nRst, 0x02, nF3, 0x04, nRst, 0x08
	smpsSetvoice        0x16
	smpsAlterNote       0xFB
	smpsModSet          0x03, 0x01, 0x02, 0x05
	smpsPan             panRight, 0x00
	.byte	nF3, 0x05, nRst, 0x07, nF3, 0x05, nRst, 0x07, nF3, 0x05, nRst, 0x01
	.byte	nFs3, 0x05, nRst, 0x07, nG3, 0x05, nRst, 0x0D, nG3, 0x05, nRst, 0x19
	.byte	nG3, 0x05, nRst, 0x0D, nG3, 0x05, nRst, 0x19, nF3, 0x05, nRst, 0x0D
	.byte	nF3, 0x05, nRst, 0x19
	smpsSetvoice        0x06
	smpsAlterNote       0xFE
	smpsModSet          0x0C, 0x01, 0x06, 0x05
	smpsPan             panLeft, 0x00
	.byte	nF3, 0x04, nRst, 0x02, nBb3, 0x04, nRst, 0x02, nF4, 0x04, nRst, 0x02
	.byte	nE4, 0x1D, nRst, 0x01
	smpsSetvoice        0x16
	smpsAlterNote       0xFB
	smpsModSet          0x03, 0x01, 0x02, 0x05
	smpsPan             panRight, 0x00
	.byte	nG3, 0x05, nRst, 0x0D, nG3, 0x05, nRst, 0x19, nG3, 0x05, nRst, 0x0D
	.byte	nG3, 0x05, nRst, 0x19, nF3, 0x05, nRst, 0x0D, nF3, 0x05, nRst, 0x07
	smpsSetvoice        0x06
	smpsAlterNote       0xFE
	smpsModSet          0x0C, 0x01, 0x06, 0x05
	smpsPan             panLeft, 0x00
	.byte	nD3, 0x04, nRst, 0x02, nE3, 0x04, nRst, 0x02, nF3, 0x04, nRst, 0x08
	smpsSetvoice        0x16
	smpsAlterNote       0xFB
	smpsModSet          0x03, 0x01, 0x02, 0x05
	smpsPan             panRight, 0x00
	.byte	nF3, 0x05, nRst, 0x07, nF3, 0x05, nRst, 0x07, nF3, 0x05, nRst, 0x01
	.byte	nFs3, 0x05, nRst, 0x07, nG3, 0x05, nRst, 0x0D, nG3, 0x05, nRst, 0x19
	.byte	nG3, 0x05, nRst, 0x0D, nG3, 0x05, nRst, 0x19
	smpsSetvoice        0x06
	smpsAlterNote       0xFE
	smpsModSet          0x0C, 0x01, 0x06, 0x05
	smpsPan             panLeft, 0x00
	.byte	nC4, 0x05, nRst, 0x01, nC4, 0x05, nRst, 0x01, nC4, 0x05, nRst, 0x01
	.byte	nC4, 0x05, nRst, 0x55
	smpsSetvoice        0x17
	smpsAlterNote       0xFB
	smpsModSet          0x0F, 0x01, 0x03, 0x05
	smpsPan             panLeft, 0x00
	.byte	nD3, 0x02, nRst, 0x0A, nE3, 0x02, nRst, 0x16, nD3, 0x11, nRst, 0x01
	.byte	nE3, 0x02, nRst, 0x28, nA4, 0x05, nRst, 0x01, nBb4, 0x05, nRst, 0x07
	.byte	nBb4, 0x02, nRst, 0x04, nBb4, 0x02, nRst, 0x04, nBb4, 0x02, nRst, 0x04
	.byte	nBb4, 0x02, nRst, 0x0A, nA4, 0x23, nRst, 0x0D, nD3, 0x02, nRst, 0x0A
	.byte	nE3, 0x02, nRst, 0x16, nD3, 0x11, nRst, 0x01, nE3, 0x02, nRst, 0x28
	.byte	nA4, 0x05, nRst, 0x01, nBb4, 0x05, nRst, 0x07, nBb4, 0x02, nRst, 0x04
	.byte	nBb4, 0x02, nRst, 0x04, nBb4, 0x02, nRst, 0x04, nBb4, 0x02, nRst, 0x0A
	.byte	nC5, 0x05, nRst, 0x01, nBb4, 0x1D, nRst, 0x0D, nD3, 0x02, nRst, 0x0A
	.byte	nE3, 0x02, nRst, 0x16, nD3, 0x11, nRst, 0x01, nE3, 0x02, nRst, 0x28
	.byte	nA4, 0x05, nRst, 0x01, nBb4, 0x05, nRst, 0x07, nBb4, 0x02, nRst, 0x04
	.byte	nBb4, 0x02, nRst, 0x04, nBb4, 0x02, nRst, 0x04, nBb4, 0x02, nRst, 0x0A
	.byte	nA4, 0x23, nRst, 0x0D, nD3, 0x02, nRst, 0x0A, nE3, 0x02, nRst, 0x16
	.byte	nD3, 0x11, nRst, 0x01, nE3, 0x02, nRst, 0x28, nA4, 0x05, nRst, 0x01
	.byte	nBb4, 0x05, nRst, 0x07, nBb4, 0x02, nRst, 0x04, nBb4, 0x02, nRst, 0x04
	.byte	nBb4, 0x02, nRst, 0x04, nBb4, 0x02, nRst, 0x0A, nC5, 0x05, nRst, 0x01
	.byte	nBb4, 0x1D, nRst, 0x0D
	smpsSetvoice        0x16
	smpsAlterNote       0xFB
	smpsModSet          0x03, 0x01, 0x02, 0x05
	smpsPan             panRight, 0x00
	.byte	nE3, 0x0B, nRst, 0x01, nE3, 0x0B, nRst, 0x0D, nD3, 0x05, nRst, 0x0D
	.byte	nE3, 0x05, nRst, 0x19, nC2, 0x05, nRst, 0x01, nG2, 0x05, nRst, 0x01
	.byte	nC3, 0x05, nRst, 0x01, nBb2, 0x05, nRst, 0x07, nBb2, 0x05, nRst, 0x07
	.byte	nA2, 0x05, nRst, 0x07, nA2, 0x05, nRst, 0x07, nF2, 0x05, nRst, 0x01
	.byte	nC2, 0x05, nRst, 0x1F, nE3, 0x0B, nRst, 0x01, nE3, 0x0B, nRst, 0x0D
	.byte	nD3, 0x05, nRst, 0x0D, nE3, 0x05, nRst, 0x19, nC2, 0x05, nRst, 0x01
	.byte	nG2, 0x05, nRst, 0x01, nC3, 0x05, nRst, 0x01, nBb2, 0x05, nRst, 0x07
	.byte	nBb2, 0x05, nRst, 0x07, nA2, 0x05, nRst, 0x07, nA2, 0x05, nRst, 0x07
	.byte	nBb2, 0x05, nRst, 0x01, nC3, 0x05, nRst, 0x1F, nE3, 0x0B, nRst, 0x01
	.byte	nE3, 0x0B, nRst, 0x0D, nD3, 0x05, nRst, 0x0D, nE3, 0x05, nRst, 0x19
	.byte	nC2, 0x05, nRst, 0x01, nG2, 0x05, nRst, 0x01, nC3, 0x05, nRst, 0x01
	.byte	nBb2, 0x05, nRst, 0x07, nBb2, 0x05, nRst, 0x07, nA2, 0x05, nRst, 0x07
	.byte	nA2, 0x05, nRst, 0x07, nF2, 0x05, nRst, 0x01, nC2, 0x05, nRst, 0x1F
	.byte	nE3, 0x0B, nRst, 0x01, nE3, 0x0B, nRst, 0x0D, nD3, 0x05, nRst, 0x0D
	.byte	nE3, 0x05, nRst, 0x19, nC2, 0x05, nRst, 0x01, nG2, 0x05, nRst, 0x01
	.byte	nC3, 0x05, nRst, 0x01, nBb2, 0x05, nRst, 0x07, nBb2, 0x05, nRst, 0x07
	.byte	nA2, 0x05, nRst, 0x07
	smpsSetvoice        0x06
	smpsAlterNote       0xFE
	smpsModSet          0x0C, 0x01, 0x06, 0x05
	smpsPan             panLeft, 0x00
	.byte	nA3, 0x02, nRst, 0x04, nBb3, 0x02, nRst, 0x04, nC4, 0x02, nRst, 0x04
	.byte	nEb4, 0x02, nRst, 0x04, nD4, 0x02, nRst, 0x04, nBb3, 0x02, nRst, 0x04
	.byte	nC4, 0x02, nRst, 0x10
	smpsSetvoice        0x18
	smpsAlterNote       0x05
	smpsModSet          0x0F, 0x01, 0x06, 0x05
	smpsPan             panLeft, 0x00
	.byte	nG3, 0x0B, nRst, 0x01, nC4, 0x0B, nRst, 0x01, nG4, 0x0B, nRst, 0x01
	.byte	nF4, 0x05, nRst, 0x0D, nE4, 0x05, nRst, 0x0D, nC4, 0x05, nRst, 0x07
	.byte	nA3, 0x03, nRst, 0x01

Snd_AIZ1_Loop05:
	smpsFMAlterVol      0x02
	.byte	nA3, 0x03, nRst, 0x01, nA3, 0x03, nRst, 0x01
	smpsLoop            0x00, 0x04, Snd_AIZ1_Loop05
	smpsFMAlterVol      0xF8
	.byte	nC4, 0x05, nRst, 0x07, nB3, 0x05, nRst, 0x0D, nC4, 0x05, nRst, 0x0D
	.byte	nD4, 0x05, nRst, 0x07, nE4, 0x03, nRst, 0x01

Snd_AIZ1_Loop06:
	smpsFMAlterVol      0x02
	.byte	nE4, 0x03, nRst, 0x01, nE4, 0x03, nRst, 0x01
	smpsLoop            0x00, 0x05, Snd_AIZ1_Loop06
	smpsFMAlterVol      0x02
	.byte	nE4, 0x03, nRst, 0x01
	smpsFMAlterVol      0xF4
	.byte	nA3, 0x03, nRst, 0x01

Snd_AIZ1_Loop07:
	smpsFMAlterVol      0x02
	.byte	nA3, 0x03, nRst, 0x01, nA3, 0x03, nRst, 0x01
	smpsLoop            0x00, 0x04, Snd_AIZ1_Loop07
	smpsFMAlterVol      0xF8
	.byte	nA3, 0x03, nRst, 0x09, nF4, 0x05, nRst, 0x0D, nE4, 0x05, nRst, 0x0D
	.byte	nD4, 0x05, nRst, 0x07, nB3, 0x05, nRst, 0x0D, nA3, 0x05, nRst, 0x0D
	.byte	nG3, 0x05, nRst, 0x13, nG3, 0x0B, nRst, 0x01, nC4, 0x0B, nRst, 0x01
	.byte	nG4, 0x0B, nRst, 0x01, nF4, 0x05, nRst, 0x0D, nE4, 0x05, nRst, 0x0D
	.byte	nC4, 0x05, nRst, 0x07, nA3, 0x03, nRst, 0x01

Snd_AIZ1_Loop08:
	smpsFMAlterVol      0x02
	.byte	nA3, 0x03, nRst, 0x01, nA3, 0x03, nRst, 0x01
	smpsLoop            0x00, 0x04, Snd_AIZ1_Loop08
	smpsFMAlterVol      0xF8
	.byte	nC4, 0x05, nRst, 0x07, nB3, 0x05, nRst, 0x0D, nC4, 0x05, nRst, 0x0D
	.byte	nD4, 0x05, nRst, 0x07, nG4, 0x03, nRst, 0x01

Snd_AIZ1_Loop09:
	smpsFMAlterVol      0x02
	.byte	nG4, 0x03, nRst, 0x01, nG4, 0x03, nRst, 0x01
	smpsLoop            0x00, 0x05, Snd_AIZ1_Loop09
	smpsFMAlterVol      0x02
	.byte	nG4, 0x03, nRst, 0x01
	smpsFMAlterVol      0xF4
	.byte	nE4, 0x03, nRst, 0x01
	smpsFMAlterVol      0x02
	.byte	nE4, 0x03, nRst, 0x01, nE4, 0x03, nRst, 0x01

Snd_AIZ1_Loop0A:
	smpsFMAlterVol      0x02
	.byte	nE4, 0x03, nRst, 0x01, nE4, 0x03, nRst, 0x01
	smpsLoop            0x00, 0x03, Snd_AIZ1_Loop0A
	smpsFMAlterVol      0xF8
	.byte	nA3, 0x03, nRst, 0x09, nF4, 0x05, nRst, 0x0D, nE4, 0x05, nRst, 0x0D
	.byte	nD4, 0x05, nRst, 0x07, nB3, 0x05, nRst, 0x0D, nA3, 0x05, nRst, 0x0D
	.byte	nG3, 0x05, nRst, 0x07
	smpsFMAlterVol      0xF8
	smpsSetvoice        0x17
	smpsAlterNote       0xFB
	smpsModSet          0x0F, 0x01, 0x03, 0x05
	smpsPan             panLeft, 0x00
	.byte	nE4, 0x0B, nRst, 0x07, nE4, 0x03, nRst, 0x0F
	smpsSetvoice        0x16
	smpsAlterNote       0xFB
	smpsModSet          0x03, 0x01, 0x02, 0x05
	smpsPan             panRight, 0x00
	.byte	nF3, 0x05, nRst, 0x01, nG3, 0x05, nRst, 0x01, nA3, 0x05, nRst, 0x0D
	.byte	nB3, 0x05, nRst, 0x0D, nC4, 0x05, nRst, 0x07
	smpsSetvoice        0x17
	smpsAlterNote       0xFB
	smpsModSet          0x0F, 0x01, 0x03, 0x05
	smpsPan             panLeft, 0x00
	.byte	nE4, 0x0B, nRst, 0x07, nE4, 0x03, nRst, 0x0F
	smpsSetvoice        0x16
	smpsAlterNote       0xFB
	smpsModSet          0x03, 0x01, 0x02, 0x05
	smpsPan             panRight, 0x00
	.byte	nF3, 0x05, nRst, 0x01, nG3, 0x05, nRst, 0x01, nA3, 0x05, nRst, 0x0D
	.byte	nB3, 0x05, nRst, 0x0D, nC4, 0x05, nRst, 0x07, nF2, 0x05, nRst, 0x01
	.byte	nA2, 0x05, nRst, 0x01, nD3, 0x05, nRst, 0x01, nF3, 0x05, nRst, 0x01
	.byte	nD3, 0x05, nRst, 0x01, nF3, 0x05, nRst, 0x01, nA3, 0x05, nRst, 0x01
	.byte	nD4, 0x05, nRst, 0x01, nA3, 0x05, nRst, 0x01, nD4, 0x05, nRst, 0x01
	.byte	nF4, 0x05, nRst, 0x01, nA4, 0x05, nRst, 0x01, nF4, 0x05, nRst, 0x01
	.byte	nA4, 0x05, nRst, 0x01, nD5, 0x05, nRst, 0x01, nF5, 0x05, nRst, 0x01
	smpsSetvoice        0x11
	smpsAlterNote       0xFB
	smpsModSet          0x0F, 0x01, 0x06, 0x06
	smpsPan             panRight, 0x00
	.byte	nC4, 0x17, nRst, 0x01, nB3, 0x17, nRst, 0x01, nC4, 0x17, nRst, 0x01
	.byte	nD4, 0x17, nRst, 0x01
	smpsFMAlterVol      0x08
	smpsJump            Snd_AIZ1_FM4

/*  Unreachable */
	smpsStop

/*  FM5 Data */
Snd_AIZ1_FM5:
	smpsSetvoice        0x16
	smpsAlterNote       0x05
	smpsModSet          0x03, 0x01, 0x02, 0x05
	smpsPan             panLeft, 0x00
	.byte	nE3, 0x05, nRst, 0x0D, nE3, 0x05, nRst, 0x19, nE3, 0x05, nRst, 0x0D
	.byte	nE3, 0x05, nRst, 0x19, nD3, 0x05, nRst, 0x0D, nD3, 0x05, nRst, 0x07
	smpsSetvoice        0x11
	smpsAlterNote       0xFB
	smpsModSet          0x0F, 0x01, 0x06, 0x06
	smpsPan             panRight, 0x00
	.byte	nBb2, 0x04, nRst, 0x02, nC3, 0x04, nRst, 0x02, nD3, 0x04, nRst, 0x08
	smpsSetvoice        0x16
	smpsAlterNote       0x05
	smpsModSet          0x03, 0x01, 0x02, 0x05
	smpsPan             panLeft, 0x00
	.byte	nD3, 0x05, nRst, 0x07, nD3, 0x05, nRst, 0x07, nD3, 0x05, nRst, 0x01
	.byte	nEb3, 0x05, nRst, 0x07, nE3, 0x05, nRst, 0x0D, nE3, 0x05, nRst, 0x19
	.byte	nE3, 0x05, nRst, 0x0D, nE3, 0x05, nRst, 0x19, nD3, 0x05, nRst, 0x0D
	.byte	nD3, 0x05, nRst, 0x19
	smpsSetvoice        0x06
	smpsAlterNote       0x02
	smpsModSet          0x0C, 0x01, 0xFA, 0x05
	smpsPan             panRight, 0x00
	.byte	nD3, 0x02, nRst, 0x04, nF3, 0x02, nRst, 0x04, nD4, 0x02, nRst, 0x04
	.byte	nC4, 0x18, nRst, 0x06
	smpsSetvoice        0x16
	smpsAlterNote       0x05
	smpsModSet          0x03, 0x01, 0x02, 0x05
	smpsPan             panLeft, 0x00
	.byte	nE3, 0x05, nRst, 0x0D, nE3, 0x05, nRst, 0x19, nE3, 0x05, nRst, 0x0D
	.byte	nE3, 0x05, nRst, 0x19, nD3, 0x05, nRst, 0x0D, nD3, 0x05, nRst, 0x07
	smpsSetvoice        0x11
	smpsAlterNote       0xFB
	smpsModSet          0x0F, 0x01, 0x06, 0x06
	smpsPan             panRight, 0x00
	.byte	nBb2, 0x04, nRst, 0x02, nC3, 0x04, nRst, 0x02, nD3, 0x04, nRst, 0x08
	smpsSetvoice        0x16
	smpsAlterNote       0x05
	smpsModSet          0x03, 0x01, 0x02, 0x05
	smpsPan             panLeft, 0x00
	.byte	nD3, 0x05, nRst, 0x07, nD3, 0x05, nRst, 0x07, nD3, 0x05, nRst, 0x01
	.byte	nEb3, 0x05, nRst, 0x07, nE3, 0x05, nRst, 0x0D, nE3, 0x05, nRst, 0x19
	.byte	nE3, 0x05, nRst, 0x0D, nE3, 0x05, nRst, 0x19
	smpsSetvoice        0x11
	smpsAlterNote       0xFB
	smpsModSet          0x0F, 0x01, 0x06, 0x06
	smpsPan             panRight, 0x00
	.byte	nA3, 0x05, nRst, 0x01, nA3, 0x05, nRst, 0x01, nA3, 0x05, nRst, 0x01
	.byte	nA3, 0x05, nRst, 0x28
	smpsFMAlterVol      0x04
	smpsSetvoice        0x06
	smpsAlterNote       0x03
	smpsModSet          0x0F, 0x01, 0x06, 0x05
	smpsPan             panCenter, 0x00
	.byte	nF1, 0x01, smpsNoAttack, nEb2, 0x01, smpsNoAttack, nF2, 0x0A, nBb1, 0x01, smpsNoAttack, nAb2
	.byte	0x01, smpsNoAttack, nBb2, 0x0A, nF2, 0x01, smpsNoAttack, nEb3, 0x01, smpsNoAttack, nF3, 0x0A
	.byte	nE2, 0x01, smpsNoAttack, nD3, 0x01, smpsNoAttack, nE3, 0x03, nRst, 0x0D, nC2, 0x01
	.byte	smpsNoAttack, nBb2, 0x01, smpsNoAttack, nC3, 0x03, nRst, 0x0D, nBb1, 0x01, smpsNoAttack, nAb2
	.byte	0x01, smpsNoAttack, nBb2, 0x39, nRst, 0x3D, nF1, 0x01, smpsNoAttack, nEb2, 0x01, smpsNoAttack
	.byte	nF2, 0x0A, nBb1, 0x01, smpsNoAttack, nAb2, 0x01, smpsNoAttack, nBb2, 0x0A, nF2, 0x01
	.byte	smpsNoAttack, nEb3, 0x01, smpsNoAttack, nF3, 0x0A, nE2, 0x01, smpsNoAttack, nD3, 0x01, smpsNoAttack
	.byte	nE3, 0x03, nRst, 0x0D, nC2, 0x01, smpsNoAttack, nBb2, 0x01, smpsNoAttack, nC3, 0x03
	.byte	nRst, 0x0D, nD2, 0x01, smpsNoAttack, nC3, 0x01, smpsNoAttack, nD3, 0x39, nRst, 0x3D
	.byte	nF1, 0x01, smpsNoAttack, nEb2, 0x01, smpsNoAttack, nF2, 0x0A, nBb1, 0x01, smpsNoAttack, nAb2
	.byte	0x01, smpsNoAttack, nBb2, 0x0A, nF2, 0x01, smpsNoAttack, nEb3, 0x01, smpsNoAttack, nF3, 0x0A
	.byte	nE2, 0x01, smpsNoAttack, nD3, 0x01, smpsNoAttack, nE3, 0x03, nRst, 0x0D, nC2, 0x01
	.byte	smpsNoAttack, nBb2, 0x01, smpsNoAttack, nC3, 0x03, nRst, 0x0D, nBb2, 0x3B, nRst, 0x3D
	.byte	nF2, 0x0C, nBb2, 0x0C, nF3, 0x0C, nE3, 0x05, nRst, 0x0D, nC3, 0x05
	.byte	nRst, 0x0D, nD3, 0x3B, nRst, 0x5E
	smpsFMAlterVol      0xFC
	.byte	nRst, 0x0C
	smpsSetvoice        0x16
	smpsAlterNote       0x05
	smpsModSet          0x03, 0x01, 0x02, 0x05
	smpsPan             panLeft, 0x00
	.byte	nC3, 0x0B, nRst, 0x01, nC3, 0x0B, nRst, 0x0D, nBb2, 0x05, nRst, 0x0D
	.byte	nC3, 0x05, nRst, 0x19
	smpsFMAlterVol      0x08
	smpsSetvoice        0x10
	smpsAlterNote       0x05
	smpsModSet          0x0F, 0x01, 0xFA, 0x06
	smpsPan             panLeft, 0x00
	.byte	nC5, 0x0C, nA4, 0x06, nBb4, 0x0C, nG4, nC5, nA4, 0x06, nBb4, 0x0C
	.byte	nG4, 0x24
	smpsFMAlterVol      0xF8
	smpsSetvoice        0x16
	smpsAlterNote       0x05
	smpsModSet          0x03, 0x01, 0x02, 0x05
	smpsPan             panLeft, 0x00
	.byte	nC3, 0x0B, nRst, 0x01, nC3, 0x0B, nRst, 0x0D, nBb2, 0x05, nRst, 0x0D
	.byte	nC3, 0x05, nRst, 0x19
	smpsFMAlterVol      0x08
	smpsSetvoice        0x10
	smpsAlterNote       0x05
	smpsModSet          0x0F, 0x01, 0xFA, 0x06
	smpsPan             panLeft, 0x00
	.byte	nC5, 0x0C, nA4, 0x06, nBb4, 0x0C, nG4, nC5, nA4, 0x06, nBb4, 0x0C
	.byte	nG4, 0x24
	smpsFMAlterVol      0xF8
	smpsSetvoice        0x16
	smpsAlterNote       0x05
	smpsModSet          0x03, 0x01, 0x02, 0x05
	smpsPan             panLeft, 0x00
	.byte	nC3, 0x0B, nRst, 0x01, nC3, 0x0B, nRst, 0x0D, nBb2, 0x05, nRst, 0x0D
	.byte	nC3, 0x05, nRst, 0x19
	smpsFMAlterVol      0x08
	smpsSetvoice        0x10
	smpsAlterNote       0x05
	smpsModSet          0x0F, 0x01, 0xFA, 0x06
	smpsPan             panLeft, 0x00
	.byte	nC5, 0x0C, nA4, 0x06, nBb4, 0x0C, nG4, nC5, nA4, 0x06, nBb4, 0x0C
	.byte	nG4, 0x24
	smpsFMAlterVol      0xF8
	smpsSetvoice        0x16
	smpsAlterNote       0x05
	smpsModSet          0x03, 0x01, 0x02, 0x05
	smpsPan             panLeft, 0x00
	.byte	nC3, 0x0B, nRst, 0x01, nC3, 0x0B, nRst, 0x0D, nBb2, 0x05, nRst, 0x0D
	.byte	nC3, 0x05, nRst, 0x19
	smpsFMAlterVol      0x08
	smpsSetvoice        0x10
	smpsAlterNote       0x05
	smpsModSet          0x0F, 0x01, 0xFA, 0x06
	smpsPan             panLeft, 0x00
	.byte	nC5, 0x0C, nA4, 0x06, nBb4, 0x0C, nG4, nC5, 0x05, nRst, 0x07
	smpsFMAlterVol      0xF8
	smpsSetvoice        0x11
	smpsAlterNote       0xFB
	smpsModSet          0x0F, 0x01, 0x06, 0x06
	smpsPan             panRight, 0x00
	.byte	nF3, 0x02, nRst, 0x04, nG3, 0x02, nRst, 0x04, nA3, 0x02, nRst, 0x04
	.byte	nC4, 0x02, nRst, 0x04, nBb3, 0x02, nRst, 0x04, nG3, 0x02, nRst, 0x04
	.byte	nA3, 0x02, nRst, 0x04
	smpsSetvoice        0x10
	smpsAlterNote       0x05
	smpsModSet          0x0F, 0x01, 0xFA, 0x06
	smpsPan             panLeft, 0x00
	.byte	nRst, 0x0C, nG4, 0x0B, nRst, 0x01, nC5, 0x0B, nRst, 0x01, nG5, 0x0B
	.byte	nRst, 0x01, nF5, 0x11, nRst, 0x01, nE5, 0x11, nRst, 0x01, nC5, 0x0B
	.byte	nRst, 0x01, nA4, 0x23, nRst, 0x01, nC5, 0x0B, nRst, 0x01, nB4, 0x11
	.byte	nRst, 0x01, nC5, 0x11, nRst, 0x01, nD5, 0x0B, nRst, 0x01, nE5, 0x2F
	.byte	nRst, 0x01, nA4, 0x23, nRst, 0x01, nA4, 0x0B, nRst, 0x01, nF5, 0x11
	.byte	nRst, 0x01, nE5, 0x11, nRst, 0x01, nD5, 0x0B, nRst, 0x01, nB4, 0x11
	.byte	nRst, 0x01, nA4, 0x11, nRst, 0x01, nG4, 0x17, nRst, 0x01, nG4, 0x0B
	.byte	nRst, 0x01, nC5, 0x0B, nRst, 0x01, nG5, 0x0B, nRst, 0x01, nF5, 0x11
	.byte	nRst, 0x01, nE5, 0x11, nRst, 0x01, nC5, 0x0B, nRst, 0x01, nA4, 0x23
	.byte	nRst, 0x01, nC5, 0x0B, nRst, 0x01, nB4, 0x11, nRst, 0x01, nC5, 0x11
	.byte	nRst, 0x01, nD5, 0x0B, nRst, 0x01, nG5, 0x2F, nRst, 0x01, nE5, 0x23
	.byte	nRst, 0x01, nA4, 0x0B, nRst, 0x01, nF5, 0x11, nRst, 0x01, nE5, 0x11
	.byte	nRst, 0x01, nD5, 0x0B, nRst, 0x01, nB4, 0x11, nRst, 0x01, nA4, 0x11
	.byte	nRst, 0x01, nG4, 0x0B, nRst, 0x01
	smpsSetvoice        0x17
	smpsAlterNote       0x05
	smpsModSet          0x0F, 0x01, 0x03, 0x05
	smpsPan             panRight, 0x00
	.byte	nC4, 0x0B, nRst, 0x07, nC4, 0x03, nRst, 0x0F
	smpsSetvoice        0x16
	smpsAlterNote       0x05
	smpsModSet          0x03, 0x01, 0x02, 0x05
	smpsPan             panLeft, 0x00
	.byte	nD3, 0x05, nRst, 0x01, nE3, 0x05, nRst, 0x01, nF3, 0x05, nRst, 0x0D
	.byte	nG3, 0x05, nRst, 0x0D, nA3, 0x05, nRst, 0x07
	smpsSetvoice        0x17
	smpsAlterNote       0x05
	smpsModSet          0x0F, 0x01, 0x03, 0x05
	smpsPan             panRight, 0x00
	.byte	nC4, 0x0B, nRst, 0x07, nC4, 0x03, nRst, 0x0F
	smpsSetvoice        0x16
	smpsAlterNote       0x05
	smpsModSet          0x03, 0x01, 0x02, 0x05
	smpsPan             panLeft, 0x00
	.byte	nD3, 0x05, nRst, 0x01, nE3, 0x05, nRst, 0x01, nF3, 0x05, nRst, 0x0D
	.byte	nG3, 0x05, nRst, 0x0D, nA3, 0x05, nRst, 0x07
	smpsSetvoice        0x10
	smpsAlterNote       0x05
	smpsModSet          0x0F, 0x01, 0xFA, 0x06
	smpsPan             panLeft, 0x00
	.byte	nD5, 0x24, nD5, 0x06, nE5, nF5, 0x12, nE5, nD5, 0x0C, nG5, 0x60
	smpsJump            Snd_AIZ1_FM5

/*  Unreachable */
	smpsStop

/*  PSG1 Data */
Snd_AIZ1_PSG1:
	.byte	nG3, 0x05, nRst, 0x0D, nG3, 0x05, nRst, 0x19, nG3, 0x05, nRst, 0x0D
	.byte	nG3, 0x05, nRst, 0x19, nF3, 0x05, nRst, 0x0D, nF3, 0x05, nRst, 0x07
	.byte	nD3, 0x02, nRst, 0x04, nE3, 0x02, nRst, 0x04, nF3, 0x02, nRst, 0x0A
	.byte	nF3, 0x05, nRst, 0x07, nF3, 0x05, nRst, 0x07, nF3, 0x05, nRst, 0x01
	.byte	nFs3, 0x05, nRst, 0x07, nG3, 0x05, nRst, 0x0D, nG3, 0x05, nRst, 0x19
	.byte	nG3, 0x05, nRst, 0x0D, nG3, 0x05, nRst, 0x19, nC4, 0x03, nRst, nC4
	.byte	nRst, nC5, nRst, nC4, nRst, nBb4, nRst, nC4, nRst, nBb4, nRst, nC5
	.byte	nRst, nF4, 0x02, nRst, 0x04, nBb4, 0x02, nRst, 0x04, nF5, 0x02, nRst
	.byte	0x04, nE5, 0x1D, nRst, 0x01, nG3, 0x05, nRst, 0x0D, nG3, 0x05, nRst
	.byte	0x19, nG3, 0x05, nRst, 0x0D, nG3, 0x05, nRst, 0x19, nF3, 0x05, nRst
	.byte	0x0D, nF3, 0x05, nRst, 0x07, nD3, 0x02, nRst, 0x04, nE3, 0x02, nRst
	.byte	0x04, nF3, 0x02, nRst, 0x0A, nF3, 0x05, nRst, 0x07, nF3, 0x05, nRst
	.byte	0x07, nF3, 0x05, nRst, 0x01, nFs3, 0x05, nRst, 0x07, nG3, 0x05, nRst
	.byte	0x0D, nG3, 0x05, nRst, 0x19, nG3, 0x05, nRst, 0x0D, nG3, 0x05, nRst
	.byte	0x19, nC6, 0x05, nRst, 0x01, nC6, 0x05, nRst, 0x01, nC6, 0x05, nRst
	.byte	0x01, nC6, 0x05, nRst, 0x55, nD3, 0x02, nRst, 0x0A, nE3, 0x02, nRst
	.byte	0x16, nD3, 0x11, nRst, 0x01, nE3, 0x02, nRst, 0x28, nA4, 0x05, nRst
	.byte	0x01, nBb4, 0x05, nRst, 0x07, nBb4, 0x02, nRst, 0x04, nBb4, 0x02, nRst
	.byte	0x04, nBb4, 0x02, nRst, 0x04, nBb4, 0x02, nRst, 0x0A, nA4, 0x23, nRst
	.byte	0x0D, nD3, 0x02, nRst, 0x0A, nE3, 0x02, nRst, 0x16, nD3, 0x11, nRst
	.byte	0x01, nE3, 0x02, nRst, 0x28, nA4, 0x05, nRst, 0x01, nBb4, 0x05, nRst
	.byte	0x07, nBb4, 0x02, nRst, 0x04, nBb4, 0x02, nRst, 0x04, nBb4, 0x02, nRst
	.byte	0x04, nBb4, 0x02, nRst, 0x0A, nC5, 0x05, nRst, 0x01, nBb4, 0x1D, nRst
	.byte	0x0D, nD3, 0x02, nRst, 0x0A, nE3, 0x02, nRst, 0x16, nD3, 0x11, nRst
	.byte	0x01, nE3, 0x02, nRst, 0x28, nA4, 0x05, nRst, 0x01, nBb4, 0x05, nRst
	.byte	0x07, nBb4, 0x02, nRst, 0x04, nBb4, 0x02, nRst, 0x04, nBb4, 0x02, nRst
	.byte	0x04, nBb4, 0x02, nRst, 0x0A, nA4, 0x23, nRst, 0x0D, nD3, 0x02, nRst
	.byte	0x0A, nE3, 0x02, nRst, 0x16, nD3, 0x11, nRst, 0x01, nE3, 0x02, nRst
	.byte	0x28, nA4, 0x05, nRst, 0x01, nBb4, 0x05, nRst, 0x07, nBb4, 0x02, nRst
	.byte	0x04, nBb4, 0x02, nRst, 0x04, nBb4, 0x02, nRst, 0x04, nBb4, 0x02, nRst
	.byte	0x0A, nC5, 0x05, nRst, 0x01, nBb4, 0x1D, nRst, 0x0D, nC3, 0x0B, nRst
	.byte	0x01, nC3, 0x0B, nRst, 0x0D, nBb2, 0x05, nRst, 0x0D, nC3, 0x05, nRst
	.byte	0x19, nC5, 0x0C, nA4, 0x06, nBb4, 0x0C, nG4, nC5, nA4, 0x06, nBb4
	.byte	0x0C, nG4, 0x24, nC3, 0x0B, nRst, 0x01, nC3, 0x0B, nRst, 0x0D, nBb2
	.byte	0x05, nRst, 0x0D, nC3, 0x05, nRst, 0x19, nC5, 0x0C, nA4, 0x06, nBb4
	.byte	0x0C, nG4, nC5, nA4, 0x06, nBb4, 0x0C, nG4, 0x24, nC3, 0x0B, nRst
	.byte	0x01, nC3, 0x0B, nRst, 0x0D, nBb2, 0x05, nRst, 0x0D, nC3, 0x05, nRst
	.byte	0x19, nC5, 0x0C, nA4, 0x06, nBb4, 0x0C, nG4, nC5, nA4, 0x06, nBb4
	.byte	0x0C, nG4, 0x24, nC3, 0x0B, nRst, 0x01, nC3, 0x0B, nRst, 0x0D, nBb2
	.byte	0x05, nRst, 0x0D, nC3, 0x05, nRst, 0x19, nC5, 0x0C, nA4, 0x06, nBb4
	.byte	0x0C, nG4, nC5, nF3, 0x02, nRst, 0x04, nG3, 0x02, nRst, 0x04, nA3
	.byte	0x02, nRst, 0x04, nC4, 0x02, nRst, 0x04, nBb3, 0x02, nRst, 0x04, nG3
	.byte	0x02, nRst, 0x04, nA3, 0x02, nRst, 0x04, nD5, 0x03, nRst, nB4, nRst
	.byte	nG4, nRst, nE4, nRst, nD4, nRst, nB3, nRst, nG3, nRst, nE3, nRst
	.byte	nC5, nRst, nB4, nRst, nG4, nRst, nE4, nRst, nC4, nRst, nB3, nRst
	.byte	nG3, nRst, nE3, nRst, nC5, nRst, nA4, nRst, nF4, nRst, nD4, nRst
	.byte	nC4, nRst, nA3, nRst, nF3, nRst, nD3, nRst, nB4, nRst, nA4, nRst
	.byte	nF4, nRst, nD4, nRst, nB3, nRst, nA3, nRst, nF3, nRst, nD3, nRst
	.byte	0x0F, nG3, 0x0B, nRst, 0x01, nD4, 0x0B, nRst, 0x01, nG4, 0x0B, nRst
	.byte	0x01, nF4, 0x05, nRst, 0x0D, nE4, 0x05, nRst, 0x0D, nC4, 0x05, nRst
	.byte	0x07, nA3, 0x2F, nRst, 0x01, nD4, 0x05, nRst, 0x0D, nC4, 0x05, nRst
	.byte	0x0D, nB3, 0x05, nRst, 0x07, nD5, 0x03, nRst, nB4, nRst, nG4, nRst
	.byte	nE4, nRst, nD4, nRst, nB3, nRst, nG3, nRst, nE3, nRst, nC5, nRst
	.byte	nB4, nRst, nG4, nRst, nE4, nRst, nC4, nRst, nB3, nRst, nG3, nRst
	.byte	nE3, nRst, nC5, nRst, nA4, nRst, nF4, nRst, nD4, nRst, nC4, nRst
	.byte	nA3, nRst, nF3, nRst, nD3, nRst, nB4, nRst, nA4, nRst, nF4, nRst
	.byte	nD4, nRst, nB3, nRst, nA3, nRst, nF3, nRst, nD3, nRst, nG4, 0x2F
	.byte	nRst, 0x01, nE4, 0x23, nRst, 0x01, nA3, 0x0B, nRst, 0x01, nF4, 0x11
	.byte	nRst, 0x01, nE4, 0x11, nRst, 0x01, nD4, 0x0B, nRst, 0x01, nB3, 0x11
	.byte	nRst, 0x01, nA3, 0x11, nRst, 0x01, nG3, 0x0B, nRst, 0x01, nE4, 0x0B
	.byte	nRst, 0x07, nE4, 0x03, nRst, 0x0F, nA3, 0x02, nRst, 0x04, nB3, 0x02
	.byte	nRst, 0x04, nC4, 0x11, nRst, 0x01, nB3, 0x11, nRst, 0x01, nA3, 0x0B
	.byte	nRst, 0x01, nE4, 0x0B, nRst, 0x07, nE4, 0x03, nRst, 0x0F, nF3, 0x02
	.byte	nRst, 0x04, nG3, 0x02, nRst, 0x04, nA3, 0x11, nRst, 0x01, nG3, 0x11
	.byte	nRst, 0x01, nF3, 0x0B, nRst, 0x01, nF2, 0x05, nRst, 0x01, nA2, 0x05
	.byte	nRst, 0x01, nD3, 0x05, nRst, 0x01, nF3, 0x05, nRst, 0x01, nD3, 0x05
	.byte	nRst, 0x01, nF3, 0x05, nRst, 0x01, nA3, 0x05, nRst, 0x01, nD4, 0x05
	.byte	nRst, 0x01, nA3, 0x05, nRst, 0x01, nD4, 0x05, nRst, 0x01, nF4, 0x05
	.byte	nRst, 0x01, nA4, 0x05, nRst, 0x01, nF4, 0x05, nRst, 0x01, nA4, 0x05
	.byte	nRst, 0x01, nD5, 0x05, nRst, 0x01, nF5, 0x05, nRst, 0x01, nC4, 0x17
	.byte	nRst, 0x01, nB3, 0x17, nRst, 0x01, nC4, 0x17, nRst, 0x01, nD4, 0x17
	.byte	nRst, 0x01
	smpsJump            Snd_AIZ1_PSG1

/*  Unreachable */
	smpsStop

/*  PSG2 Data */
Snd_AIZ1_PSG2:
	.byte	nE3, 0x05, nRst, 0x0D, nE3, 0x05, nRst, 0x19, nE3, 0x05, nRst, 0x0D
	.byte	nE3, 0x05, nRst, 0x19, nD3, 0x05, nRst, 0x0D, nD3, 0x05, nRst, 0x07
	.byte	nBb2, 0x02, nRst, 0x04, nC3, 0x02, nRst, 0x04, nD3, 0x02, nRst, 0x0A
	.byte	nD3, 0x05, nRst, 0x07, nD3, 0x05, nRst, 0x07, nD3, 0x05, nRst, 0x01
	.byte	nEb3, 0x05, nRst, 0x07, nE3, 0x05, nRst, 0x0D, nE3, 0x05, nRst, 0x19
	.byte	nE3, 0x05, nRst, 0x0D, nE3, 0x05, nRst, 0x19, nC4, 0x03, nRst, nC4
	.byte	nRst, nC5, nRst, nC4, nRst, nBb4, nRst, nC4, nRst, nBb4, nRst, nC5
	.byte	nRst, nF4, 0x02, nRst, 0x04, nBb4, 0x02, nRst, 0x04, nF5, 0x02, nRst
	.byte	0x04, nE5, 0x1D, nRst, 0x01, nE3, 0x05, nRst, 0x0D, nE3, 0x05, nRst
	.byte	0x19, nE3, 0x05, nRst, 0x0D, nE3, 0x05, nRst, 0x19, nD3, 0x05, nRst
	.byte	0x0D, nD3, 0x05, nRst, 0x07, nBb2, 0x02, nRst, 0x04, nC3, 0x02, nRst
	.byte	0x04, nD3, 0x02, nRst, 0x0A, nD3, 0x05, nRst, 0x07, nD3, 0x05, nRst
	.byte	0x07, nD3, 0x05, nRst, 0x01, nEb3, 0x05, nRst, 0x07, nE3, 0x05, nRst
	.byte	0x0D, nE3, 0x05, nRst, 0x19, nE3, 0x05, nRst, 0x0D, nE3, 0x05, nRst
	.byte	0x19, nA4, 0x05, nRst, 0x01, nA4, 0x05, nRst, 0x01, nA4, 0x05, nRst
	.byte	0x01, nA4, 0x05, nRst, 0x55, nBb2, 0x02, nRst, 0x0A, nC3, 0x02, nRst
	.byte	0x16, nBb2, 0x11, nRst, 0x01, nC3, 0x02, nRst, 0x28, nFs4, 0x05, nRst
	.byte	0x01, nG4, 0x05, nRst, 0x07, nG4, 0x02, nRst, 0x04, nG4, 0x02, nRst
	.byte	0x04, nG4, 0x02, nRst, 0x04, nG4, 0x02, nRst, 0x0A, nF4, 0x23, nRst
	.byte	0x0D, nBb2, 0x02, nRst, 0x0A, nC3, 0x02, nRst, 0x16, nBb2, 0x11, nRst
	.byte	0x01, nC3, 0x02, nRst, 0x28, nFs4, 0x05, nRst, 0x01, nG4, 0x05, nRst
	.byte	0x07, nG4, 0x02, nRst, 0x04, nG4, 0x02, nRst, 0x04, nG4, 0x02, nRst
	.byte	0x04, nG4, 0x02, nRst, 0x0A, nA4, 0x05, nRst, 0x01, nG4, 0x1D, nRst
	.byte	0x0D, nBb2, 0x02, nRst, 0x0A, nC3, 0x02, nRst, 0x16, nBb2, 0x11, nRst
	.byte	0x01, nC3, 0x02, nRst, 0x28, nFs4, 0x05, nRst, 0x01, nG4, 0x05, nRst
	.byte	0x07, nG4, 0x02, nRst, 0x04, nG4, 0x02, nRst, 0x04, nG4, 0x02, nRst
	.byte	0x04, nG4, 0x02, nRst, 0x0A, nF4, 0x23, nRst, 0x0D, nBb2, 0x02, nRst
	.byte	0x0A, nC3, 0x02, nRst, 0x16, nBb2, 0x11, nRst, 0x01, nC3, 0x02, nRst
	.byte	0x28, nFs4, 0x05, nRst, 0x01, nG4, 0x05, nRst, 0x07, nG4, 0x02, nRst
	.byte	0x04, nG4, 0x02, nRst, 0x04, nG4, 0x02, nRst, 0x04, nG4, 0x02, nRst
	.byte	0x0A, nA4, 0x05, nRst, 0x01, nG4, 0x1D, nRst, 0x0D, nC3, 0x0B, nRst
	.byte	0x01, nC3, 0x0B, nRst, 0x0D, nBb2, 0x05, nRst, 0x0D, nC3, 0x05, nRst
	.byte	0x19, nC5, 0x0C, nA4, 0x06, nBb4, 0x0C, nG4, nC5, nA4, 0x06, nBb4
	.byte	0x0C, nG4, 0x24, nC3, 0x0B, nRst, 0x01, nC3, 0x0B, nRst, 0x0D, nBb2
	.byte	0x05, nRst, 0x0D, nC3, 0x05, nRst, 0x19, nC5, 0x0C, nA4, 0x06, nBb4
	.byte	0x0C, nG4, nC5, nA4, 0x06, nBb4, 0x0C, nG4, 0x24, nC3, 0x0B, nRst
	.byte	0x01, nC3, 0x0B, nRst, 0x0D, nBb2, 0x05, nRst, 0x0D, nC3, 0x05, nRst
	.byte	0x19, nC5, 0x0C, nA4, 0x06, nBb4, 0x0C, nG4, nC5, nA4, 0x06, nBb4
	.byte	0x0C, nG4, 0x24, nC3, 0x0B, nRst, 0x01, nC3, 0x0B, nRst, 0x0D, nBb2
	.byte	0x05, nRst, 0x0D, nC3, 0x05, nRst, 0x19, nC5, 0x0C, nA4, 0x06, nBb4
	.byte	0x0C, nG4, nC5, nF3, 0x02, nRst, 0x04, nG3, 0x02, nRst, 0x04, nA3
	.byte	0x02, nRst, 0x04, nC4, 0x02, nRst, 0x04, nBb3, 0x02, nRst, 0x04, nG3
	.byte	0x02, nRst, 0x04, nA3, 0x02, nRst, 0x04, nD5, 0x03, nRst, nB4, nRst
	.byte	nG4, nRst, nE4, nRst, nD4, nRst, nB3, nRst, nG3, nRst, nE3, nRst
	.byte	nC5, nRst, nB4, nRst, nG4, nRst, nE4, nRst, nC4, nRst, nB3, nRst
	.byte	nG3, nRst, nE3, nRst, nC5, nRst, nA4, nRst, nF4, nRst, nD4, nRst
	.byte	nC4, nRst, nA3, nRst, nF3, nRst, nD3, nRst, nB4, nRst, nA4, nRst
	.byte	nF4, nRst, nD4, nRst, nB3, nRst, nA3, nRst, nF3, nRst, nD3, nRst
	.byte	0x15
	smpsFMAlterVol      0x0A, 0xAC
	.byte	0x0B, nRst, 0x01, nD4, 0x0B, nRst, 0x01, nG4, 0x0B, nRst, 0x01, nF4
	.byte	0x05, nRst, 0x0D, nE4, 0x05, nRst, 0x0D, nC4, 0x05, nRst, 0x07, nA3
	.byte	0x2F, nRst, 0x01, nD4, 0x05, nRst, 0x0D, nC4, 0x05, nRst, 0x0D, nB3
	.byte	0x05, nRst, 0x01
	smpsFMAlterVol      0xF6, 0xBF
	.byte	0x03, nRst, nB4, nRst, nG4, nRst, nE4, nRst, nD4, nRst, nB3, nRst
	.byte	nG3, nRst, nE3, nRst, nC5, nRst, nB4, nRst, nG4, nRst, nE4, nRst
	.byte	nC4, nRst, nB3, nRst, nG3, nRst, nE3, nRst, nC5, nRst, nA4, nRst
	.byte	nF4, nRst, nD4, nRst, nC4, nRst, nA3, nRst, nF3, nRst, nD3, nRst
	.byte	nB4, nRst, nA4, nRst, nF4, nRst, nD4, nRst, nB3, nRst, nA3, nRst
	.byte	nF3, nRst, nD3, nRst, 0x09, nG4, 0x2F, nRst, 0x01, nE4, 0x23, nRst
	.byte	0x01, nA3, 0x0B, nRst, 0x01, nF4, 0x11, nRst, 0x01, nE4, 0x11, nRst
	.byte	0x01, nD4, 0x0B, nRst, 0x01, nB3, 0x11, nRst, 0x01, nA3, 0x11, nRst
	.byte	0x01, nG3, 0x06, nC4, 0x0B, nRst, 0x07, nC4, 0x03, nRst, 0x0F, nA3
	.byte	0x02, nRst, 0x04, nB3, 0x02, nRst, 0x04, nC4, 0x11, nRst, 0x01, nB3
	.byte	0x11, nRst, 0x01, nA3, 0x0B, nRst, 0x01, nC4, 0x0B, nRst, 0x07, nC4
	.byte	0x03, nRst, 0x0F, nF3, 0x02, nRst, 0x04, nG3, 0x02, nRst, 0x04, nA3
	.byte	0x11, nRst, 0x01, nG3, 0x11, nRst, 0x01, nF3, 0x0B, nRst, 0x01, nF2
	.byte	0x05, nRst, 0x01, nA2, 0x05, nRst, 0x01, nD3, 0x05, nRst, 0x01, nF3
	.byte	0x05, nRst, 0x01, nD3, 0x05, nRst, 0x01, nF3, 0x05, nRst, 0x01, nA3
	.byte	0x05, nRst, 0x01, nD4, 0x05, nRst, 0x01, nA3, 0x05, nRst, 0x01, nD4
	.byte	0x05, nRst, 0x01, nF4, 0x05, nRst, 0x01, nA4, 0x05, nRst, 0x01, nF4
	.byte	0x05, nRst, 0x01, nA4, 0x05, nRst, 0x01, nD5, 0x05, nRst, 0x01, nF5
	.byte	0x05, nRst, 0x01, nC4, 0x17, nRst, 0x01, nB3, 0x17, nRst, 0x01, nC4
	.byte	0x17, nRst, 0x01, nD4, 0x17, nRst, 0x01
	smpsJump            Snd_AIZ1_PSG2

/*  Unreachable */
	smpsStop

/*  PSG3 Data */
Snd_AIZ1_PSG3:
	smpsPSGvoice        sTone_02
	smpsPSGform         0xE7
	.byte	nMaxPSG1, 0x06, nMaxPSG1
	smpsPSGvoice        sTone_04
	.byte	nMaxPSG1, 0x0C
	smpsPSGvoice        sTone_01

Snd_AIZ1_Loop0B:
	.byte	nMaxPSG1, 0x06, nMaxPSG1
	smpsPSGvoice        sTone_04
	.byte	nMaxPSG1, 0x0C
	smpsPSGvoice        sTone_01
	smpsLoop            0x01, 0x1A, Snd_AIZ1_Loop0B
	.byte	nMaxPSG1, 0x06, nMaxPSG1, nA6, 0x6C

Snd_AIZ1_Loop0C:
	.byte	nMaxPSG1, 0x06, nMaxPSG1
	smpsPSGvoice        sTone_04
	.byte	nMaxPSG1, 0x0C
	smpsPSGvoice        sTone_01
	smpsLoop            0x01, 0x1B, Snd_AIZ1_Loop0C
	.byte	nMaxPSG1, 0x06, nMaxPSG1, nA6, 0x6C

Snd_AIZ1_Loop0D:
	.byte	nMaxPSG1, 0x06, nMaxPSG1
	smpsPSGvoice        sTone_04
	.byte	nMaxPSG1, 0x0C
	smpsPSGvoice        sTone_01
	smpsLoop            0x01, 0x4C, Snd_AIZ1_Loop0D
	.byte	nRst, 0x60
	smpsJump            Snd_AIZ1_PSG3
