Snd_AIZ2_Header:
	smpsHeaderStartSong 3
	smpsHeaderVoiceUVB
	smpsHeaderChan      0x06, 0x03
	smpsHeaderTempo     0x01, 0x15

	smpsHeaderDAC       Snd_AIZ2_DAC
	smpsHeaderFM        Snd_AIZ2_FM1,	0x18, 0x0F
	smpsHeaderFM        Snd_AIZ2_FM2,	0x0C, 0x13
	smpsHeaderFM        Snd_AIZ2_FM3,	0x0C, 0x13
	smpsHeaderFM        Snd_AIZ2_FM4,	0x0C, 0x13
	smpsHeaderFM        Snd_AIZ2_FM5,	0x0C, 0x13
	smpsHeaderPSG       Snd_AIZ2_PSG1,	0xF4, 0x04, 0x00, sTone_0C
	smpsHeaderPSG       Snd_AIZ2_PSG2,	0xF4, 0x04, 0x00, sTone_0C
	smpsHeaderPSG       Snd_AIZ2_PSG3,	0x00, 0x03, 0x00, sTone_0C

/*  Unreachable */
	smpsStop
	smpsStop

Snd_AIZ2_Call00:
	.byte	dKickS3, 0x0C, dKickS3, dSnareS3, dKickS3, 0x06, dSnareS3, 0x0C, dSnareS3, 0x06, dKickS3, 0x0C
	.byte	dSnareS3, dKickS3, dKickS3, dKickS3, dSnareS3, dKickS3, 0x06, dSnareS3, 0x0C, dSnareS3, 0x06, dKickS3
	.byte	dSnareS3, dSnareS3, 0x0C, dKickS3, 0x06, dSnareS3
	smpsReturn

Snd_AIZ2_Call01:
	.byte	dKickS3, 0x0C, dKickS3, dSnareS3, dKickS3, 0x06, dSnareS3, 0x0C, dSnareS3, 0x06, dKickS3, 0x0C
	.byte	dSnareS3, dKickS3
	smpsReturn

/*  DAC Data */
Snd_AIZ2_DAC:
	smpsCall            Snd_AIZ2_Call00
	smpsLoop            0x01, 0x03, Snd_AIZ2_DAC
	smpsCall            Snd_AIZ2_Call01
	.byte	dKickS3, dKickS3, dSnareS3, dKickS3, 0x06, dSnareS3, 0x0C, dSnareS3, 0x06, dKickS3, dSnareS3, dSnareS3
	.byte	dSnareS3, dMidTomS3, 0x0C

Snd_AIZ2_Loop00:
	smpsCall            Snd_AIZ2_Call00
	smpsLoop            0x01, 0x03, Snd_AIZ2_Loop00
	smpsCall            Snd_AIZ2_Call01
	.byte	dKickS3, 0x18, dKickS3, 0x15, dSnareS3, 0x02, dSnareS3, 0x01, dSnareS3, 0x06, dSnareS3, 0x0C
	.byte	dSnareS3, dSnareS3, 0x06, dSnareS3, 0x0C

Snd_AIZ2_Loop01:
	smpsCall            Snd_AIZ2_Call00
	smpsLoop            0x01, 0x03, Snd_AIZ2_Loop01
	smpsCall            Snd_AIZ2_Call01
	.byte	dKickS3, 0x06, dSnareS3, 0x0C, dSnareS3, 0x06, dMidTomS3, 0x0C, dKickS3, 0x06, dSnareS3, 0x0C
	.byte	dSnareS3, 0x06, dHighTom, 0x0C, dSnareS3, 0x06, dSnareS3, dFloorTomS3, dSnareS3
	smpsCall            Snd_AIZ2_Call01
	.byte	dKickS3, dKickS3, dSnareS3, dKickS3, 0x06, dSnareS3, 0x0C, dSnareS3, 0x06, dKickS3, dSnareS3, dSnareS3
	.byte	0x0C, dKickS3, 0x06, dSnareS3
	smpsCall            Snd_AIZ2_Call01
	.byte	dKickS3, dKickS3, dSnareS3, dKickS3, 0x06, dSnareS3, 0x0C, dSnareS3, 0x06, dKickS3, dSnareS3, dSnareS3
	.byte	dSnareS3, dMidTomS3, 0x0C
	smpsCall            Snd_AIZ2_Call01
	.byte	dKickS3, dKickS3, dSnareS3, dKickS3, 0x06, dSnareS3, 0x0C, dSnareS3, 0x06, dKickS3, dSnareS3, dSnareS3
	.byte	0x0C, dKickS3, 0x06, dSnareS3
	smpsCall            Snd_AIZ2_Call01
	.byte	dKickS3, dKickS3, dSnareS3, 0x06, dSnareS3, dKickS3, dSnareS3, 0x0C, dSnareS3, 0x06, dKickS3, dSnareS3
	.byte	dSnareS3, dSnareS3, dSnareS3, dSnareS3
	smpsCall            Snd_AIZ2_Call01
	.byte	dKickS3, dKickS3, dSnareS3, dKickS3, 0x06, dSnareS3, 0x0C, dSnareS3, 0x06, dKickS3, dSnareS3, dSnareS3
	.byte	0x0C, dKickS3, 0x06, dSnareS3
	smpsCall            Snd_AIZ2_Call01
	.byte	dKickS3, dKickS3, dSnareS3, 0x06, dKickS3, 0x0C, dKickS3, 0x06, dHighTom, dMidTomS3, 0x0C, dFloorTomS3
	.byte	0x06, dSnareS3, dSnareS3, dMidTomS3, 0x0C
	smpsJump            Snd_AIZ2_DAC

/*  Unreachable */
	smpsStop

/*  FM1 Data */
Snd_AIZ2_FM1:
	smpsSetvoice        0x15
	smpsAlterNote       0x00
	smpsModSet          0x03, 0x01, 0x02, 0x05
	.byte	nC1, 0x0C
	smpsSetvoice        0x14
	smpsAlterNote       0x00
	smpsModSet          0x02, 0x01, 0x01, 0x02
	.byte	nC2, 0x03, nRst, 0x09
	smpsSetvoice        0x15
	smpsAlterNote       0x00
	smpsModSet          0x03, 0x01, 0x02, 0x05
	.byte	nA0, 0x0C
	smpsSetvoice        0x14
	smpsAlterNote       0x00
	smpsModSet          0x02, 0x01, 0x01, 0x02
	.byte	nA1, 0x03, nRst
	smpsSetvoice        0x15
	smpsAlterNote       0x00
	smpsModSet          0x03, 0x01, 0x02, 0x05
	.byte	nBb0, 0x0C, nBb0, 0x03, nRst, nA0, 0x0C, nBb0, nG0, nC1
	smpsSetvoice        0x14
	smpsAlterNote       0x00
	smpsModSet          0x02, 0x01, 0x01, 0x02
	.byte	nC2, 0x03, nRst, 0x09
	smpsSetvoice        0x15
	smpsAlterNote       0x00
	smpsModSet          0x03, 0x01, 0x02, 0x05
	.byte	nA0, 0x0C
	smpsSetvoice        0x14
	smpsAlterNote       0x00
	smpsModSet          0x02, 0x01, 0x01, 0x02
	.byte	nA1, 0x03, nRst
	smpsSetvoice        0x15
	smpsAlterNote       0x00
	smpsModSet          0x03, 0x01, 0x02, 0x05
	.byte	nBb0, 0x0C, nF0, 0x06, nRst
	smpsSetvoice        0x14
	smpsAlterNote       0x00
	smpsModSet          0x02, 0x01, 0x01, 0x02
	.byte	nF1, 0x03, nRst, 0x09
	smpsSetvoice        0x15
	smpsAlterNote       0x00
	smpsModSet          0x03, 0x01, 0x02, 0x05
	.byte	nG0, 0x06
	smpsSetvoice        0x14
	smpsAlterNote       0x00
	smpsModSet          0x02, 0x01, 0x01, 0x02
	.byte	nG1, 0x0C
	smpsSetvoice        0x15
	smpsAlterNote       0x00
	smpsModSet          0x03, 0x01, 0x02, 0x05
	.byte	nC1
	smpsSetvoice        0x14
	smpsAlterNote       0x00
	smpsModSet          0x02, 0x01, 0x01, 0x02
	.byte	nC2, 0x03, nRst, 0x09
	smpsSetvoice        0x15
	smpsAlterNote       0x00
	smpsModSet          0x03, 0x01, 0x02, 0x05
	.byte	nA0, 0x0C
	smpsSetvoice        0x14
	smpsAlterNote       0x00
	smpsModSet          0x02, 0x01, 0x01, 0x02
	.byte	nA1, 0x03, nRst
	smpsSetvoice        0x15
	smpsAlterNote       0x00
	smpsModSet          0x03, 0x01, 0x02, 0x05
	.byte	nBb0, 0x0C, nBb0, 0x03, nRst, nA0, 0x0C, nBb0, nG0, nC1
	smpsSetvoice        0x14
	smpsAlterNote       0x00
	smpsModSet          0x02, 0x01, 0x01, 0x02
	.byte	nC2, 0x03, nRst, 0x09
	smpsSetvoice        0x15
	smpsAlterNote       0x00
	smpsModSet          0x03, 0x01, 0x02, 0x05
	.byte	nA0, 0x0C
	smpsSetvoice        0x14
	smpsAlterNote       0x00
	smpsModSet          0x02, 0x01, 0x01, 0x02
	.byte	nA1, 0x03, nRst
	smpsSetvoice        0x15
	smpsAlterNote       0x00
	smpsModSet          0x03, 0x01, 0x02, 0x05
	.byte	nBb0, 0x0C, nF0, 0x06, nRst
	smpsSetvoice        0x14
	smpsAlterNote       0x00
	smpsModSet          0x02, 0x01, 0x01, 0x02
	.byte	nF1, 0x03, nRst, 0x09
	smpsSetvoice        0x15
	smpsAlterNote       0x00
	smpsModSet          0x03, 0x01, 0x02, 0x05
	.byte	nG0, 0x06
	smpsSetvoice        0x14
	smpsAlterNote       0x00
	smpsModSet          0x02, 0x01, 0x01, 0x02
	.byte	nG1, 0x0C
	smpsSetvoice        0x15
	smpsAlterNote       0x00
	smpsModSet          0x03, 0x01, 0x02, 0x05
	.byte	nC1
	smpsSetvoice        0x14
	smpsAlterNote       0x00
	smpsModSet          0x02, 0x01, 0x01, 0x02
	.byte	nC2, 0x03, nRst, 0x09
	smpsSetvoice        0x15
	smpsAlterNote       0x00
	smpsModSet          0x03, 0x01, 0x02, 0x05
	.byte	nA0, 0x0C
	smpsSetvoice        0x14
	smpsAlterNote       0x00
	smpsModSet          0x02, 0x01, 0x01, 0x02
	.byte	nA1, 0x03, nRst
	smpsSetvoice        0x15
	smpsAlterNote       0x00
	smpsModSet          0x03, 0x01, 0x02, 0x05
	.byte	nBb0, 0x0C, nBb0, 0x03, nRst, nA0, 0x0C, nBb0, nG0, nC1
	smpsSetvoice        0x14
	smpsAlterNote       0x00
	smpsModSet          0x02, 0x01, 0x01, 0x02
	.byte	nC2, 0x03, nRst, 0x09
	smpsSetvoice        0x15
	smpsAlterNote       0x00
	smpsModSet          0x03, 0x01, 0x02, 0x05
	.byte	nA0, 0x0C
	smpsSetvoice        0x14
	smpsAlterNote       0x00
	smpsModSet          0x02, 0x01, 0x01, 0x02
	.byte	nA1, 0x03, nRst
	smpsSetvoice        0x15
	smpsAlterNote       0x00
	smpsModSet          0x03, 0x01, 0x02, 0x05
	.byte	nBb0, 0x0C, nF0, 0x06, nRst
	smpsSetvoice        0x14
	smpsAlterNote       0x00
	smpsModSet          0x02, 0x01, 0x01, 0x02
	.byte	nF1, 0x03, nRst, 0x09
	smpsSetvoice        0x15
	smpsAlterNote       0x00
	smpsModSet          0x03, 0x01, 0x02, 0x05
	.byte	nG0, 0x06
	smpsSetvoice        0x14
	smpsAlterNote       0x00
	smpsModSet          0x02, 0x01, 0x01, 0x02
	.byte	nG1, 0x0C
	smpsSetvoice        0x15
	smpsAlterNote       0x00
	smpsModSet          0x03, 0x01, 0x02, 0x05
	.byte	nC1
	smpsSetvoice        0x14
	smpsAlterNote       0x00
	smpsModSet          0x02, 0x01, 0x01, 0x02
	.byte	nC2, 0x03, nRst, 0x09
	smpsSetvoice        0x15
	smpsAlterNote       0x00
	smpsModSet          0x03, 0x01, 0x02, 0x05
	.byte	nA0, 0x0C
	smpsSetvoice        0x14
	smpsAlterNote       0x00
	smpsModSet          0x02, 0x01, 0x01, 0x02
	.byte	nA1, 0x03, nRst
	smpsSetvoice        0x15
	smpsAlterNote       0x00
	smpsModSet          0x03, 0x01, 0x02, 0x05
	.byte	nBb0, 0x0C, nBb0, 0x03, nRst, nA0, 0x0C, nBb0, nG0, nF0, 0x06
	smpsSetvoice        0x14
	smpsAlterNote       0x00
	smpsModSet          0x02, 0x01, 0x01, 0x02
	.byte	nF1, 0x03, nRst, 0x09
	smpsSetvoice        0x15
	smpsAlterNote       0x00
	smpsModSet          0x03, 0x01, 0x02, 0x05
	.byte	nF0, 0x0C
	smpsSetvoice        0x14
	smpsAlterNote       0x00
	smpsModSet          0x02, 0x01, 0x01, 0x02
	.byte	nF1, 0x03, nRst
	smpsSetvoice        0x15
	smpsAlterNote       0x00
	smpsModSet          0x03, 0x01, 0x02, 0x05
	.byte	nG0, 0x0C, nRst, 0x06
	smpsSetvoice        0x14
	smpsAlterNote       0x00
	smpsModSet          0x02, 0x01, 0x01, 0x02
	.byte	nG1
	smpsSetvoice        0x15
	smpsAlterNote       0x00
	smpsModSet          0x03, 0x01, 0x02, 0x05
	.byte	nF1, nEb1, nF1, nEb1, nD1, nBb0, nC1, 0x18, nEb1, 0x12, nF1, 0x0C
	.byte	nEb1, 0x03, nRst, nF1, 0x0C, nG1, nEb1, nC1, 0x18, nEb1, 0x12, nF1
	.byte	0x0C, nEb1, 0x03, nRst, nF1, 0x0C, nG1, nBb1, nC1, 0x18, nEb1, 0x12
	.byte	nF1, 0x0C, nEb1, 0x03, nRst, nF1, 0x0C, nG1, nEb1, nC1, 0x18, nEb1
	.byte	0x12, nF1, 0x0C, nEb1, 0x03, nRst, nF1, 0x0C, nG0, nBb0, nC1, 0x18
	.byte	nEb1, 0x12, nF1, 0x0C, nEb1, 0x03, nRst, nF1, 0x0C, nG1, nEb1, nC1
	.byte	0x18, nEb1, 0x12, nF1, 0x0C, nEb1, 0x03, nRst, nF1, 0x0C, nG1, nBb1
	.byte	nC1, 0x18, nEb1, 0x12, nF1, 0x0C, nEb1, 0x03, nRst, nF1, 0x0C, nF1
	.byte	nEb1, nG0, 0x18, nD1, 0x12, nF1, 0x0C, nFs1, 0x03, nRst, nG1, 0x0C
	.byte	nG0, 0x18, nC1, nC1, 0x12, nEb1, 0x0C, nC1, 0x03, nRst, nEb1, 0x0C
	.byte	nF1, nG1, nF0, 0x18, nF0, 0x12, nG0, 0x0C, nF0, 0x03, nRst, nG0
	.byte	0x0C, nBb0, nB0, nC1, 0x18, nC1, 0x12, nEb1, 0x0C, nC1, 0x03, nRst
	.byte	nEb1, 0x0C, nF1, nG1, nF0, 0x18, nF0, 0x12, nG0, 0x0C, nF0, 0x03
	.byte	nRst, nG0, 0x0C, nBb0, nB0, nC1, 0x18, nC1, 0x12, nEb1, 0x0C, nC1
	.byte	0x03, nRst, nEb1, 0x0C, nF1, nG1, nF0, 0x18, nF0, 0x12, nG0, 0x0C
	.byte	nF0, 0x03, nRst, nG0, 0x0C, nBb0, nB0, nC1, 0x18, nC1, 0x12, nEb1
	.byte	0x0C, nC1, 0x03, nRst, nEb1, 0x0C, nF1, nG1, nF0, 0x12, nF1, 0x03
	.byte	nRst, 0x09, nF0, 0x06, nG0, 0x18, nG1, 0x03, nRst, 0x09, nFs0, 0x0C
	.byte	nFs1, 0x03, nRst, 0x09, nF0, 0x18, nF0, 0x12, nF0, 0x0C, nF0, 0x03
	.byte	nRst, nC1, 0x0C, nF1, nF0, nG0, 0x18, nG0, 0x12, nG0, 0x0C, nG0
	.byte	0x03, nRst, nD1, 0x0C, nG1, nG0, nC1, nG0, nBb0, nG0, 0x06, nC1
	.byte	0x0C, nC1, 0x06, nG0, 0x0C, nBb0, nG0, nC1, nG0, nBb0, nG0, 0x06
	.byte	nC1, 0x0C, nC1, 0x06, nG0, 0x0C, nBb0, nG0, nF0, 0x18, nF0, 0x12
	.byte	nF0, 0x0C, nF0, 0x03, nRst, nC1, 0x0C, nF1, nF0, nG0, 0x18, nG0
	.byte	0x12, nG0, 0x0C, nG0, 0x03, nRst, nD1, 0x0C, nG1, nG0, nC1, nG0
	.byte	nBb0, nG0, 0x06, nC1, 0x0C, nC1, 0x06, nG0, 0x0C, nBb0, nG0, nC1
	.byte	nC1, nEb1, nEb1, 0x06, nF1, 0x0C, nEb1, 0x06, nF1, 0x0C, nG0, nFs0
	.byte	nF0, 0x18, nF0, 0x12, nF0, 0x0C, nF0, 0x03, nRst, nC1, 0x0C, nF1
	.byte	nF0, nG0, 0x18, nG0, 0x12, nG0, 0x0C, nG0, 0x03, nRst, nD1, 0x0C
	.byte	nG1, nG0, nAb0, 0x18, nAb0, 0x12, nAb0, 0x0C, nAb0, 0x03, nRst, nEb1
	.byte	0x0C, nAb1, nAb0, nBb0, 0x18, nBb0, 0x12, nBb0, 0x0C, nBb0, 0x03, nRst
	.byte	nD1, 0x0C, nEb1, nF1
	smpsJump            Snd_AIZ2_FM1

/*  Unreachable */
	smpsStop

/*  FM2 Data */
Snd_AIZ2_FM2:
	.byte	nRst, 0x0C
	smpsSetvoice        0x12
	smpsAlterNote       0x03
	smpsModSet          0x00, 0x01, 0x06, 0x06
	smpsPan             panRight, 0x00
	.byte	nG3, 0x06, nRst, 0x0C, nA3, 0x06, nRst, 0x0C, nBb3, 0x06, nRst, 0x36
	smpsSetvoice        0x06
	smpsAlterNote       0x03
	smpsModSet          0x0F, 0x01, 0x06, 0x06
	smpsPan             panCenter, 0x00
	.byte	nC4, 0x06, nRst, 0x12, nD3, 0x06, nC3, 0x06, nRst, 0x30
	smpsSetvoice        0x12
	smpsAlterNote       0x03
	smpsModSet          0x00, 0x01, 0x06, 0x06
	smpsPan             panRight, 0x00
	.byte	nRst, 0x0C, nBb3, 0x06, nRst, 0x0C, nA3, 0x06, nRst, 0x0C, nG3, 0x06
	.byte	nRst, 0x2A
	smpsSetvoice        0x06
	smpsAlterNote       0x03
	smpsModSet          0x0F, 0x01, 0x06, 0x06
	smpsPan             panCenter, 0x00
	.byte	nRst, 0x30, nF3, 0x06, nA3, 0x06, nF4, 0x06, nEb4, 0x1D, nRst, 0x01
	smpsSetvoice        0x12
	smpsAlterNote       0x03
	smpsModSet          0x00, 0x01, 0x06, 0x06
	smpsPan             panRight, 0x00
	.byte	nRst, 0x0C, nG3, 0x06, nRst, 0x0C, nA3, 0x06, nRst, 0x0C, nBb3, 0x06
	.byte	nRst, 0x2A
	smpsSetvoice        0x06
	smpsAlterNote       0x03
	smpsModSet          0x0F, 0x01, 0x06, 0x06
	smpsPan             panCenter, 0x00
	.byte	nRst, 0x0C, nC4, 0x06, nRst, 0x12, nD3, 0x06, nC3, 0x06, nRst, 0x30
	smpsSetvoice        0x12
	smpsAlterNote       0x03
	smpsModSet          0x00, 0x01, 0x06, 0x06
	smpsPan             panRight, 0x00
	.byte	nRst, 0x0C, nBb3, 0x06, nRst, 0x0C, nA3, 0x06, nRst, 0x0C, nG3, 0x06
	.byte	nRst, 0x2A
	smpsSetvoice        0x06
	smpsAlterNote       0x03
	smpsModSet          0x0F, 0x01, 0x06, 0x06
	smpsPan             panCenter, 0x00
	.byte	nA3, 0x06, nRst, 0x0C, nA3, 0x06, nRst, 0x0C, nB3, 0x17, nRst, 0x01
	smpsSetvoice        0x17
	smpsAlterNote       0x01
	smpsModSet          0x0F, 0x01, 0x06, 0x06
	smpsPan             panCenter, 0x00
	.byte	nEb2, 0x0B, nRst, 0x01, nG2, 0x0B, nRst, 0x01, nEb3, 0x0B, nRst, 0x01
	.byte	nD3, 0x05, nRst, 0x0D, nBb2, 0x05, nRst, 0x0D, nG2, 0x3B, nRst, 0x3D
	smpsSetvoice        0x17
	smpsAlterNote       0x01
	smpsModSet          0x0F, 0x01, 0x06, 0x06
	smpsPan             panCenter, 0x00
	.byte	nEb2, 0x0B, nRst, 0x01, nG2, 0x0B, nRst, 0x01, nEb3, 0x0B, nRst, 0x01
	.byte	nD3, 0x05, nRst, 0x0D, nBb2, 0x05, nRst, 0x0D, nC3, 0x3B, nRst, 0x3D
	smpsSetvoice        0x17
	smpsAlterNote       0x01
	smpsModSet          0x0F, 0x01, 0x06, 0x06
	smpsPan             panCenter, 0x00
	.byte	nEb2, 0x0B, nRst, 0x01, nG2, 0x0B, nRst, 0x01, nEb3, 0x0B, nRst, 0x01
	.byte	nD3, 0x05, nRst, 0x0D, nBb2, 0x05, nRst, 0x0D, nG2, 0x3B, nRst, 0x31
	smpsSetvoice        0x17
	smpsAlterNote       0x01
	smpsModSet          0x0F, 0x01, 0x06, 0x06
	smpsPan             panCenter, 0x00
	.byte	nRst, 0x0C, nEb2, 0x0B, nRst, 0x01, nG2, 0x0B, nRst, 0x01, nEb3, 0x0B
	.byte	nRst, 0x01, nD3, 0x05, nRst, 0x0D, nBb2, 0x05, nRst, 0x0D, nC3, 0x3B
	.byte	nRst, 0x01
	smpsSetvoice        0x17
	smpsAlterNote       0xFE
	smpsModSet          0x0F, 0x01, 0x06, 0x06
	smpsPan             panRight, 0x00
	.byte	nRst, 0x0C, nA3, 0x05, nRst, 0x01, nB3, 0x05, nRst, 0x07, nB3, 0x06
	.byte	nB3, 0x06, nB3, 0x06, nB3, 0x06, nRst, 0x06, nC4, 0x05, nRst, 0x01
	.byte	nB3, 0x1D, nRst, 0x0D, nBb3, 0x0B, nRst, 0x01, nBb3, 0x0B, nRst, 0x0D
	.byte	nA3, 0x05, nRst, 0x0D, nBb3, 0x05, nRst, 0x19, nC3, 0x05, nRst, 0x01
	.byte	nG3, 0x05, nRst, 0x01, nC4, 0x05, nRst, 0x01, nBb3, 0x05, nRst, 0x07
	.byte	nBb3, 0x05, nRst, 0x07, nA3, 0x05, nRst, 0x07, nA3, 0x05, nRst, 0x07
	.byte	nF3, 0x05, nRst, 0x01, nC3, 0x05, nRst, 0x1F, nBb3, 0x0B, nRst, 0x01
	.byte	nBb3, 0x0B, nRst, 0x0D, nA3, 0x05, nRst, 0x0D, nBb3, 0x05, nRst, 0x19
	.byte	nC3, 0x05, nRst, 0x01, nG3, 0x05, nRst, 0x01, nC4, 0x05, nRst, 0x01
	.byte	nBb3, 0x05, nRst, 0x07, nBb3, 0x05, nRst, 0x07, nA3, 0x05, nRst, 0x07
	.byte	nA3, 0x05, nRst, 0x07, nBb3, 0x05, nRst, 0x01, nC4, 0x05, nRst, 0x1F
	.byte	nBb3, 0x0B, nRst, 0x01, nBb3, 0x0B, nRst, 0x0D, nA3, 0x05, nRst, 0x0D
	.byte	nBb3, 0x05, nRst, 0x19, nC3, 0x05, nRst, 0x01, nG3, 0x05, nRst, 0x01
	.byte	nC4, 0x05, nRst, 0x01, nBb3, 0x05, nRst, 0x07, nBb3, 0x05, nRst, 0x07
	.byte	nA3, 0x05, nRst, 0x07, nA3, 0x05, nRst, 0x07, nF3, 0x05, nRst, 0x01
	.byte	nC3, 0x05, nRst, 0x1F, nBb3, 0x0B, nRst, 0x01, nBb3, 0x0B, nRst, 0x0D
	.byte	nA3, 0x05, nRst, 0x0D, nBb3, 0x05, nRst, 0x19, nC3, 0x05, nRst, 0x01
	.byte	nG3, 0x05, nRst, 0x01, nC4, 0x05, nRst, 0x01, nBb3, 0x05, nRst, 0x07
	.byte	nBb3, 0x05, nRst, 0x07, nA3, 0x05, nRst, 0x07
	smpsSetvoice        0x06
	smpsAlterNote       0x03
	smpsModSet          0x0F, 0x01, 0x06, 0x06
	smpsPan             panCenter, 0x00
	.byte	nA3, 0x06, nBb3, 0x06, nC4, 0x06, nEb4, 0x06, nD4, 0x06, nBb3, 0x06
	.byte	nC4, 0x06
	smpsSetvoice        0x12
	smpsAlterNote       0x03
	smpsModSet          0x00, 0x01, 0x06, 0x06
	smpsPan             panRight, 0x00
	.byte	nRst, 0x0C, nAb3, 0x0B, nRst, 0x01, nC4, 0x0B, nRst, 0x01, nG4, 0x0B
	.byte	nRst, 0x01, nF4, 0x05, nRst, 0x0D, nEb4, 0x05, nRst, 0x0D, nD4, 0x05
	.byte	nRst, 0x07

Snd_AIZ2_Loop0B:
	.byte	nB3, 0x03, nRst, 0x01
	smpsLoop            0x00, 0x09, Snd_AIZ2_Loop0B
	.byte	nG3, 0x05, nRst, 0x07, nB3, 0x05, nRst, 0x0D, nC4, 0x05, nRst, 0x0D
	.byte	nD4, 0x05, nRst, 0x07

Snd_AIZ2_Loop0C:
	.byte	nEb4, 0x03, nRst, 0x01
	smpsLoop            0x00, 0x0C, Snd_AIZ2_Loop0C

Snd_AIZ2_Loop0D:
	.byte	nD4, 0x03, nRst, 0x01
	smpsLoop            0x00, 0x0C, Snd_AIZ2_Loop0D

Snd_AIZ2_Loop0E:
	.byte	nC4, 0x03, nRst, 0x01
	smpsLoop            0x00, 0x0C, Snd_AIZ2_Loop0E

Snd_AIZ2_Loop0F:
	.byte	nG3, 0x03, nRst, 0x01
	smpsLoop            0x00, 0x0B, Snd_AIZ2_Loop0F
	.byte	nG3, 0x03, nRst, 0x0D, nAb3, 0x0B, nRst, 0x01, nC4, 0x0B, nRst, 0x01
	.byte	nG4, 0x0B, nRst, 0x01, nF4, 0x05, nRst, 0x0D, nEb4, 0x05, nRst, 0x0D
	.byte	nD4, 0x05, nRst, 0x07

Snd_AIZ2_Loop10:
	.byte	nB3, 0x03, nRst, 0x01
	smpsLoop            0x00, 0x09, Snd_AIZ2_Loop10
	.byte	nG3, 0x05, nRst, 0x07, nB3, 0x05, nRst, 0x0D, nC4, 0x05, nRst, 0x0D
	.byte	nD4, 0x05, nRst, 0x07

Snd_AIZ2_Loop11:
	.byte	nEb4, 0x03, nRst, 0x01
	smpsLoop            0x00, 0x09, Snd_AIZ2_Loop11
	.byte	nD4, 0x05, nRst, 0x01, nEb4, 0x05, nRst, 0x01

Snd_AIZ2_Loop12:
	.byte	nF4, 0x03, nRst, 0x01
	smpsLoop            0x00, 0x09, Snd_AIZ2_Loop12
	.byte	nEb4, 0x05, nRst, 0x01, nF4, 0x05, nRst, 0x01

Snd_AIZ2_Loop13:
	.byte	nG4, 0x03, nRst, 0x01
	smpsLoop            0x00, 0x15, Snd_AIZ2_Loop13
	.byte	nG4, 0x03, nRst, 0x2D, nF3, 0x05, nRst, 0x01, nG3, 0x05, nRst, 0x01
	.byte	nAb3, 0x05, nRst, 0x0D, nBb3, 0x05, nRst, 0x0D, nC4, 0x05, nRst, 0x2B
	.byte	nG3, 0x05, nRst, 0x01, nAb3, 0x05, nRst, 0x01, nBb3, 0x05, nRst, 0x0D
	.byte	nC4, 0x05, nRst, 0x0D, nD4, 0x05, nRst, 0x07, nAb2, 0x05, nRst, 0x01
	.byte	nC3, 0x05, nRst, 0x01, nEb3, 0x05, nRst, 0x01, nAb3, 0x05, nRst, 0x01
	.byte	nEb3, 0x05, nRst, 0x01, nAb3, 0x05, nRst, 0x01, nC4, 0x05, nRst, 0x01
	.byte	nEb4, 0x05, nRst, 0x01, nC4, 0x05, nRst, 0x01, nEb4, 0x05, nRst, 0x01
	.byte	nAb4, 0x05, nRst, 0x01, nC5, 0x05, nRst, 0x01, nAb4, 0x05, nRst, 0x01
	.byte	nC5, 0x05, nRst, 0x01, nEb5, 0x05, nRst, 0x01, nAb5, 0x05, nRst, 0x01
	.byte	nRst, 0x60
	smpsJump            Snd_AIZ2_FM2

/*  Unreachable */
	smpsStop

/*  FM3 Data */
Snd_AIZ2_FM3:
	smpsSetvoice        0x12
	smpsAlterNote       0xFE
	smpsModSet          0x0F, 0x01, 0x06, 0x06
	smpsPan             panLeft, 0x00
	.byte	nRst, 0x0C, nEb3, 0x06, nRst, 0x0C, nF3, 0x06, nRst, 0x0C, nG3, 0x06
	.byte	nRst, 0x36
	smpsSetvoice        0x06
	smpsAlterNote       0xFD
	smpsModSet          0x0F, 0x01, 0x06, 0x06
	smpsPan             panCenter, 0x00
	.byte	nG3, 0x06, nRst, 0x12, nF2, 0x06, nG2, 0x06, nRst, 0x30
	smpsSetvoice        0x12
	smpsAlterNote       0xFE
	smpsModSet          0x0F, 0x01, 0x06, 0x06
	smpsPan             panLeft, 0x00
	.byte	nRst, 0x0C, nG3, 0x06, nRst, 0x0C, nF3, 0x06, nRst, 0x0C, nEb3, 0x06
	.byte	nRst, 0x2A
	smpsSetvoice        0x06
	smpsAlterNote       0xFD
	smpsModSet          0x0F, 0x01, 0x06, 0x06
	smpsPan             panCenter, 0x00
	.byte	nRst, 0x30, nD3, 0x06, nF3, 0x06, nD4, 0x06, nC4, 0x1D, nRst, 0x01
	smpsSetvoice        0x12
	smpsAlterNote       0xFE
	smpsModSet          0x0F, 0x01, 0x06, 0x06
	smpsPan             panLeft, 0x00
	.byte	nRst, 0x0C, nEb3, 0x06, nRst, 0x0C, nF3, 0x06, nRst, 0x0C, nG3, 0x06
	.byte	nRst, 0x2A
	smpsSetvoice        0x06
	smpsAlterNote       0xFD
	smpsModSet          0x0F, 0x01, 0x06, 0x06
	smpsPan             panCenter, 0x00
	.byte	nRst, 0x0C, nG3, 0x06, nRst, 0x12, nF2, 0x06, nG2, 0x06, nRst, 0x30
	smpsSetvoice        0x12
	smpsAlterNote       0xFE
	smpsModSet          0x0F, 0x01, 0x06, 0x06
	smpsPan             panLeft, 0x00
	.byte	nRst, 0x0C, nG3, 0x06, nRst, 0x0C, nF3, 0x06, nRst, 0x0C, nEb3, 0x06
	.byte	nRst, 0x2A
	smpsSetvoice        0x06
	smpsAlterNote       0xFD
	smpsModSet          0x0F, 0x01, 0x06, 0x06
	smpsPan             panCenter, 0x00
	.byte	nF3, 0x06, nRst, 0x0C, nF3, 0x06, nRst, 0x0C, nG3, 0x17, nRst, 0x01
	smpsSetvoice        0x17
	smpsAlterNote       0xFE
	smpsModSet          0x0F, 0x01, 0x06, 0x06
	smpsPan             panRight, 0x00
	.byte	nEb2, 0x0B, nRst, 0x01, nG2, 0x0B, nRst, 0x01, nEb3, 0x0B, nRst, 0x01
	.byte	nD3, 0x05, nRst, 0x0D, nBb2, 0x05, nRst, 0x0D, nG2, 0x3B, nRst, 0x31
	smpsSetvoice        0x17
	smpsAlterNote       0xFE
	smpsModSet          0x0F, 0x01, 0x06, 0x06
	smpsPan             panRight, 0x00
	.byte	nRst, 0x0C, nEb2, 0x0B, nRst, 0x01, nG2, 0x0B, nRst, 0x01, nEb3, 0x0B
	.byte	nRst, 0x01, nD3, 0x05, nRst, 0x0D, nBb2, 0x05, nRst, 0x0D, nC3, 0x3B
	.byte	nRst, 0x3D
	smpsSetvoice        0x17
	smpsAlterNote       0xFE
	smpsModSet          0x0F, 0x01, 0x06, 0x06
	smpsPan             panRight, 0x00
	.byte	nEb2, 0x0B, nRst, 0x01, nG2, 0x0B, nRst, 0x01, nEb3, 0x0B, nRst, 0x01
	.byte	nD3, 0x05, nRst, 0x0D, nBb2, 0x05, nRst, 0x0D, nG2, 0x3B, nRst, 0x3D
	smpsSetvoice        0x17
	smpsAlterNote       0xFE
	smpsModSet          0x0F, 0x01, 0x06, 0x06
	smpsPan             panRight, 0x00
	.byte	nEb2, 0x0B, nRst, 0x01, nG2, 0x0B, nRst, 0x01, nEb3, 0x0B, nRst, 0x01
	.byte	nD3, 0x05, nRst, 0x0D, nBb2, 0x05, nRst, 0x0D, nC3, 0x3B, nRst, 0x01
	smpsSetvoice        0x17
	smpsAlterNote       0xFE
	smpsModSet          0x0F, 0x01, 0x06, 0x06
	smpsPan             panRight, 0x00
	.byte	nRst, 0x0C, nCs4, 0x05, nRst, 0x01, nD4, 0x05, nRst, 0x07, nD4, 0x06
	.byte	nD4, 0x06, nD4, 0x06, nD4, 0x06, nRst, 0x06, nEb4, 0x05, nRst, 0x01
	.byte	nD4, 0x1D, nRst, 0x0D, nG3, 0x0B, nRst, 0x01, nG3, 0x0B, nRst, 0x0D
	.byte	nF3, 0x05, nRst, 0x0D, nG3, 0x05, nRst, 0x19
	smpsSetvoice        0x17
	smpsAlterNote       0xFE
	smpsModSet          0x0F, 0x01, 0x06, 0x06
	smpsPan             panRight, 0x00
	.byte	nC5, 0x05, nRst, 0x07, nA4, 0x05, nRst, 0x01, nBb4, 0x05, nRst, 0x07
	.byte	nG4, 0x05, nRst, 0x07, nC5, 0x05, nRst, 0x07, nA4, 0x05, nRst, 0x01
	.byte	nBb4, 0x05, nRst, 0x07, nG4, 0x05, nRst, 0x1F, nG3, 0x0B, nRst, 0x01
	.byte	nG3, 0x0B, nRst, 0x0D, nF3, 0x05, nRst, 0x0D, nG3, 0x05, nRst, 0x19
	smpsSetvoice        0x17
	smpsAlterNote       0xFE
	smpsModSet          0x0F, 0x01, 0x06, 0x06
	smpsPan             panRight, 0x00
	.byte	nC5, 0x05, nRst, 0x07, nA4, 0x05, nRst, 0x01, nBb4, 0x05, nRst, 0x07
	.byte	nG4, 0x05, nRst, 0x07, nC5, 0x05, nRst, 0x07, nA4, 0x05, nRst, 0x01
	.byte	nBb4, 0x05, nRst, 0x07, nG4, 0x05, nRst, 0x1F, nG3, 0x0B, nRst, 0x01
	.byte	nG3, 0x0B, nRst, 0x0D, nF3, 0x05, nRst, 0x0D, nG3, 0x05, nRst, 0x19
	smpsSetvoice        0x17
	smpsAlterNote       0xFE
	smpsModSet          0x0F, 0x01, 0x06, 0x06
	smpsPan             panRight, 0x00
	.byte	nC5, 0x05, nRst, 0x07, nA4, 0x05, nRst, 0x01, nBb4, 0x05, nRst, 0x07
	.byte	nG4, 0x05, nRst, 0x07, nC5, 0x05, nRst, 0x07, nA4, 0x05, nRst, 0x01
	.byte	nBb4, 0x05, nRst, 0x07, nG4, 0x05, nRst, 0x1F, nG3, 0x0B, nRst, 0x01
	.byte	nG3, 0x0B, nRst, 0x0D, nF3, 0x05, nRst, 0x0D, nG3, 0x05, nRst, 0x4F
	.byte	nF3, 0x06, nG3, 0x06, nA3, 0x06, nC4, 0x06, nBb3, 0x06, nG3, 0x06
	.byte	nA3, 0x06
	smpsSetvoice        0x12
	smpsAlterNote       0xFE
	smpsModSet          0x0F, 0x01, 0x06, 0x06
	smpsPan             panLeft, 0x00
	.byte	nRst, 0x0C, nAb3, 0x0B, nRst, 0x01, nC4, 0x0B, nRst, 0x01, nG4, 0x0B
	.byte	nRst, 0x01, nF4, 0x05, nRst, 0x0D, nEb4, 0x05, nRst, 0x0D, nD4, 0x05
	.byte	nRst, 0x07

Snd_AIZ2_Loop02:
	.byte	nB3, 0x03, nRst, 0x01
	smpsLoop            0x00, 0x09, Snd_AIZ2_Loop02
	.byte	nG3, 0x05, nRst, 0x07, nB3, 0x05, nRst, 0x0D, nC4, 0x05, nRst, 0x0D
	.byte	nD4, 0x05, nRst, 0x07

Snd_AIZ2_Loop03:
	.byte	nEb4, 0x03, nRst, 0x01
	smpsLoop            0x00, 0x0C, Snd_AIZ2_Loop03

Snd_AIZ2_Loop04:
	.byte	nD4, 0x03, nRst, 0x01
	smpsLoop            0x00, 0x0C, Snd_AIZ2_Loop04

Snd_AIZ2_Loop05:
	.byte	nC4, 0x03, nRst, 0x01
	smpsLoop            0x00, 0x0C, Snd_AIZ2_Loop05

Snd_AIZ2_Loop06:
	.byte	nG3, 0x03, nRst, 0x01
	smpsLoop            0x00, 0x0B, Snd_AIZ2_Loop06
	.byte	nG3, 0x03, nRst, 0x0D, nAb3, 0x0B, nRst, 0x01, nC4, 0x0B, nRst, 0x01
	.byte	nG4, 0x0B, nRst, 0x01, nF4, 0x05, nRst, 0x0D, nEb4, 0x05, nRst, 0x0D
	.byte	nD4, 0x05, nRst, 0x07

Snd_AIZ2_Loop07:
	.byte	nB3, 0x03, nRst, 0x01
	smpsLoop            0x00, 0x09, Snd_AIZ2_Loop07
	.byte	nG3, 0x05, nRst, 0x07, nB3, 0x05, nRst, 0x0D, nC4, 0x05, nRst, 0x0D
	.byte	nD4, 0x05, nRst, 0x07

Snd_AIZ2_Loop08:
	.byte	nEb4, 0x03, nRst, 0x01
	smpsLoop            0x00, 0x09, Snd_AIZ2_Loop08
	.byte	nD4, 0x05, nRst, 0x01, nEb4, 0x05, nRst, 0x01

Snd_AIZ2_Loop09:
	.byte	nF4, 0x03, nRst, 0x01
	smpsLoop            0x00, 0x09, Snd_AIZ2_Loop09
	.byte	nEb4, 0x05, nRst, 0x01, nF4, 0x05, nRst, 0x01

Snd_AIZ2_Loop0A:
	.byte	nG4, 0x03, nRst, 0x01
	smpsLoop            0x00, 0x15, Snd_AIZ2_Loop0A
	.byte	nG4, 0x03, nRst, 0x2D, nD3, 0x05, nRst, 0x01, nEb3, 0x05, nRst, 0x01
	.byte	nF3, 0x05, nRst, 0x0D, nG3, 0x05, nRst, 0x0D, nAb3, 0x05, nRst, 0x2B
	.byte	nEb3, 0x05, nRst, 0x01, nF3, 0x05, nRst, 0x01, nG3, 0x05, nRst, 0x0D
	.byte	nAb3, 0x05, nRst, 0x0D, nBb3, 0x05, nRst, 0x07
	smpsSetvoice        0x10
	smpsAlterNote       0xFD
	smpsModSet          0x0F, 0x01, 0x06, 0x06
	smpsPan             panCenter, 0x00
	.byte	nC5, 0x23, nRst, 0x01, nC5, 0x05, nRst, 0x01, nD5, 0x05, nRst, 0x01
	.byte	nEb5, 0x11, nRst, 0x01, nD5, 0x11, nRst, 0x01, nC5, 0x0B, nRst, 0x01
	.byte	nG5, 0x60
	smpsJump            Snd_AIZ2_FM3

/*  Unreachable */
	smpsStop

/*  FM4 Data */
Snd_AIZ2_FM4:
	smpsSetvoice        0x16
	smpsAlterNote       0xFF
	smpsModSet          0x0A, 0x01, 0x06, 0x06
	smpsPan             panRight, 0x00
	.byte	nRst, 0x0C, nG3, nRst, 0x06, nG3, 0x0C, nRst, 0x06, nG3, 0x0C, nRst
	.byte	0x06, nG3, 0x0C, nRst, 0x06, nG3, 0x0C, nRst, 0x60
	smpsSetvoice        0x16
	smpsAlterNote       0xFF
	smpsModSet          0x0A, 0x01, 0x06, 0x06
	smpsPan             panRight, 0x00
	.byte	nRst, 0x0C, nG3, nRst, 0x06, nG3, 0x0C, nRst, nA3, 0x03, nRst, 0x09
	.byte	nG3, 0x06, nRst, 0x0C, nF3
	smpsSetvoice        0x17
	smpsAlterNote       0xFE
	smpsModSet          0x0F, 0x01, 0x06, 0x06
	smpsPan             panRight, 0x00
	.byte	nC4, 0x01, nRst, 0x05, nC4, 0x01, nRst, 0x05, nC5, 0x01, nRst, 0x05
	.byte	nC4, 0x01, nRst, 0x05, nBb4, 0x01, nRst, 0x05, nC4, 0x01, nRst, 0x05
	.byte	nBb4, 0x01, nRst, 0x05, nC5, 0x01, nRst, 0x35
	smpsSetvoice        0x16
	smpsAlterNote       0xFF
	smpsModSet          0x0A, 0x01, 0x06, 0x06
	smpsPan             panRight, 0x00
	.byte	nRst, 0x0C, nG3, nRst, 0x06, nG3, 0x0C, nRst, 0x06, nG3, 0x0C, nRst
	.byte	0x06, nG3, 0x0C, nRst, 0x06, nG3, 0x0C, nRst, 0x60
	smpsSetvoice        0x16
	smpsAlterNote       0xFF
	smpsModSet          0x0A, 0x01, 0x06, 0x06
	smpsPan             panRight, 0x00
	.byte	nRst, 0x0C, nG3, nRst, 0x06, nG3, 0x0C, nRst, nA3, 0x03, nRst, 0x09
	.byte	nG3, 0x06, nRst, 0x0C, nF3, nRst, 0x60
	smpsFMAlterVol      0x08
	smpsSetvoice        0x16
	smpsAlterNote       0xFF
	smpsModSet          0x0A, 0x01, 0x06, 0x06
	smpsPan             panRight, 0x00
	.byte	nRst, 0x0C, nEb3, nRst, 0x06, nEb3, 0x0C, nRst, 0x06, nF3, 0x0C, nRst
	.byte	0x06, nF3, 0x0C, nRst, 0x06, nF3, 0x0C, nRst, nG3, nRst, 0x06, nG3
	.byte	0x0C, nRst, 0x06, nF3, 0x0C, nRst, 0x06, nF3, 0x0C, nRst, 0x06, nF3
	.byte	0x0C, nRst, nEb3, nRst, 0x06, nEb3, 0x0C, nRst, 0x06, nF3, 0x0C, nRst
	.byte	0x06, nF3, 0x0C, nRst, 0x06, nF3, 0x0C
	smpsSetvoice        0x17
	smpsAlterNote       0xFE
	smpsModSet          0x0F, 0x01, 0x06, 0x06
	smpsPan             panRight, 0x00
	.byte	nRst, nA4, 0x05, nRst, 0x01, nBb4, 0x05, nRst, 0x07, nBb4, 0x02, nRst
	.byte	0x04, nBb4, 0x02, nRst, 0x04, nBb4, 0x02, nRst, 0x04, nBb4, 0x02, nRst
	.byte	0x0A, nC5, 0x05, nRst, 0x01, nBb4, 0x1D, nRst, 0x01
	smpsSetvoice        0x16
	smpsAlterNote       0xFF
	smpsModSet          0x0A, 0x01, 0x06, 0x06
	smpsPan             panRight, 0x00
	.byte	nRst, 0x0C, nEb3, nRst, 0x06, nEb3, 0x0C, nRst, 0x06, nF3, 0x0C, nRst
	.byte	0x06, nF3, 0x0C, nRst, 0x06, nF3, 0x0C, nRst, nG3, nRst, 0x06, nG3
	.byte	0x0C, nRst, 0x06, nF3, 0x0C, nRst, 0x06, nF3, 0x0C, nRst, 0x06, nF3
	.byte	0x0C, nRst, nEb3, nRst, 0x06, nEb3, 0x0C, nRst, 0x06, nF3, 0x0C, nRst
	.byte	0x06, nF3, 0x0C, nRst, 0x06, nF3, 0x0C
	smpsFMAlterVol      0xF8
	smpsSetvoice        0x0F
	smpsAlterNote       0x01
	smpsModSet          0x0F, 0x01, 0x06, 0x06
	smpsPan             panLeft, 0x00
	smpsCall            Snd_AIZ2_Call02
	smpsCall            Snd_AIZ2_Call03
	.byte	nA4, 0x11, nRst, 0x01, nBb4, 0x11, nRst, 0x01, nC5, 0x23, nRst, 0x19
	smpsSetvoice        0x1E
	smpsAlterNote       0x01
	smpsModSet          0x0F, 0x01, 0x06, 0x06
	smpsPan             panLeft, 0x00
	.byte	nEb3, 0x2F, nRst, 0x01, nC3, 0x2F, nRst, 0x01, nG3, 0x0F, nRst, 0x01
	.byte	nF3, 0x0F, nRst, 0x01, nEb3, 0x0F, nRst, 0x01, nD3, 0x0F, nRst, 0x01
	.byte	nEb3, 0x0F, nRst, 0x01, nF3, 0x0F, nRst, 0x01, nRst, 0x0C
	smpsSetvoice        0x1E
	smpsAlterNote       0x01
	smpsModSet          0x0F, 0x01, 0x06, 0x06
	smpsPan             panLeft, 0x00
	.byte	nG3, nBb3, 0x0B, nRst, 0x01, nEb4, 0x0B, nRst, 0x01, nD4, 0x05, nRst
	.byte	0x0D, nBb3, 0x05, nRst, 0x0D, nC4, 0x05, nRst, 0x07, nG3, 0x2F, nRst
	.byte	0x01
	smpsSetvoice        0x06
	smpsAlterNote       0x01
	smpsModSet          0x0F, 0x01, 0x06, 0x06
	smpsPan             panLeft, 0x00
	.byte	nBb3, 0x05, nRst, 0x0D, nAb3, 0x05, nRst, 0x0D, nG3, 0x05, nRst, 0x07
	smpsSetvoice        0x1E
	smpsAlterNote       0x01
	smpsModSet          0x0F, 0x01, 0x06, 0x06
	smpsPan             panLeft, 0x00
	.byte	nEb3, 0x2F, nRst, 0x01, nC3, 0x2F, nRst, 0x01, nG3, 0x0F, nRst, 0x01
	.byte	nF3, 0x0F, nRst, 0x01, nEb3, 0x0F, nRst, 0x01, nD3, 0x0F, nRst, 0x01
	.byte	nEb3, 0x0F, nRst, 0x01, nF3, 0x0F, nRst, 0x01, nG3, 0x0C
	smpsSetvoice        0x1E
	smpsAlterNote       0x01
	smpsModSet          0x0F, 0x01, 0x06, 0x06
	smpsPan             panLeft, 0x00
	.byte	nG3, nBb3, 0x0B, nRst, 0x01, nEb4, 0x0B, nRst, 0x01, nD4, 0x05, nRst
	.byte	0x0D, nBb3, 0x05, nRst, 0x0D, nC4, 0x05, nRst, 0x07, nG3, 0x2F, nRst
	.byte	0x01
	smpsSetvoice        0x06
	smpsAlterNote       0x01
	smpsModSet          0x0F, 0x01, 0x06, 0x06
	smpsPan             panLeft, 0x00
	.byte	nBb3, 0x05, nRst, 0x0D, nAb3, 0x05, nRst, 0x0D, nG3, 0x05, nRst, 0x07
	smpsSetvoice        0x06
	smpsAlterNote       0x03
	smpsModSet          0x0F, 0x01, 0x06, 0x06
	smpsPan             panCenter, 0x00
	.byte	nAb3, 0x1D, nRst, 0x07, nAb3, 0x06, nBb3, 0x06, nC4, 0x11, nRst, 0x01
	.byte	nBb3, 0x11, nRst, 0x01, nAb3, 0x0B, nRst, 0x01, nBb3, 0x1D, nRst, 0x07
	.byte	nBb3, 0x06, nC4, 0x06, nD4, 0x11, nRst, 0x01, nC4, 0x11, nRst, 0x01
	.byte	nBb3, 0x0B, nRst, 0x01, nC4, 0x2F, nRst, 0x01, nAb3, 0x2F, nRst, 0x01
	.byte	nEb4, 0x17, nRst, 0x01, nD4, 0x17, nRst, 0x01, nEb4, 0x17, nRst, 0x01
	.byte	nF4, 0x17, nRst, 0x01
	smpsJump            Snd_AIZ2_FM4

/*  Unreachable */
	smpsStop

Snd_AIZ2_Call02:
	.byte	nRst, 0x54, nEb4, 0x05, nRst, 0x01, nF4, 0x05, nRst, 0x01
	smpsReturn

Snd_AIZ2_Call03:
	.byte	nG4, 0x05, nRst, 0x0D, nC4, 0x05, nRst, 0x0D, nBb4, 0x11, nRst, 0x07
	.byte	nBb4, 0x05, nRst, 0x07, nBb4, 0x05, nRst, 0x07, nG4, 0x05, nRst, 0x07
	.byte	nA4, 0x05, nRst, 0x0D, nF4, 0x05, nRst, 0x0D, nC4, 0x29, nRst, 0x07
	.byte	nEb4, 0x05, nRst, 0x01, nF4, 0x05, nRst, 0x01, nG4, 0x05, nRst, 0x0D
	.byte	nC4, 0x05, nRst, 0x0D, nBb4, 0x11, nRst, 0x07, nBb4, 0x05, nRst, 0x07
	.byte	nBb4, 0x05, nRst, 0x07, nC5, 0x05, nRst, 0x07, nA4, 0x2F, nRst, 0x25
	.byte	nEb4, 0x05, nRst, 0x01, nF4, 0x05, nRst, 0x01, nG4, 0x05, nRst, 0x0D
	.byte	nC4, 0x05, nRst, 0x0D, nBb4, 0x0B, nRst, 0x07, nBb4, 0x06, nBb4, 0x06
	.byte	nRst, 0x06, nBb4, 0x05, nRst, 0x07, nG4, 0x05, nRst, 0x07, nA4, 0x05
	.byte	nRst, 0x0D, nF4, 0x05, nRst, 0x0D, nC4, 0x23, nRst, 0x0D, nEb4, 0x05
	.byte	nRst, 0x01, nF4, 0x05, nRst, 0x01, nG4, 0x05, nRst, 0x0D, nC4, 0x05
	.byte	nRst, 0x0D, nBb4, 0x11, nRst, 0x07, nBb4, 0x05, nRst, 0x07, nBb4, 0x05
	.byte	nRst, 0x07, nC5, 0x05, nRst, 0x07
	smpsReturn

/*  FM5 Data */
Snd_AIZ2_FM5:
	smpsSetvoice        0x16
	smpsAlterNote       0x02
	smpsModSet          0x0A, 0x01, 0x06, 0x06
	smpsPan             panLeft, 0x00
	.byte	nC3, 0x0C, nBb3, nC3, 0x06, nBb3, 0x0C, nC3, 0x06, nBb3, 0x0C, nC3
	.byte	0x06, nBb3, 0x0C, nC3, 0x06, nBb3, 0x60, 0x0C
	smpsSetvoice        0x16
	smpsAlterNote       0x02
	smpsModSet          0x0A, 0x01, 0x06, 0x06
	smpsPan             panLeft, 0x00
	.byte	nC3, nBb3, nC3, 0x06, nBb3, 0x0C, nC3, nC4, 0x06, nC3, nBb3, 0x0C
	.byte	nC3, 0x06, nA3, 0x0C
	smpsSetvoice        0x17
	smpsAlterNote       0xFE
	smpsModSet          0x0F, 0x01, 0x06, 0x06
	smpsPan             panRight, 0x00
	.byte	nC4, 0x03, nRst, nC4, nRst, nC5, nRst, nC4, nRst, nBb4, nRst, nC4
	.byte	nRst, nBb4, nRst, nC5, 0x03, nRst, 0x33
	smpsSetvoice        0x16
	smpsAlterNote       0x02
	smpsModSet          0x0A, 0x01, 0x06, 0x06
	smpsPan             panLeft, 0x00
	.byte	nC3, 0x0C, nBb3, nC3, 0x06, nBb3, 0x0C, nC3, 0x06, nBb3, 0x0C, nC3
	.byte	0x06, nBb3, 0x0C, nC3, 0x06, nBb3, 0x60, 0x0C
	smpsSetvoice        0x16
	smpsAlterNote       0x02
	smpsModSet          0x0A, 0x01, 0x06, 0x06
	smpsPan             panLeft, 0x00
	.byte	nC3, nBb3, nC3, 0x06, nBb3, 0x0C, nC3, nC4, 0x06, nC3, nBb3, 0x0C
	.byte	nC3, 0x06, nA3, 0x60, 0x0C
	smpsFMAlterVol      0x08
	smpsSetvoice        0x16
	smpsAlterNote       0x02
	smpsModSet          0x0A, 0x01, 0x06, 0x06
	smpsPan             panLeft, 0x00
	.byte	nC3, nG3, nC3, 0x06, nG3, 0x0C, nC3, 0x06, nA3, 0x0C, nC3, 0x06
	.byte	nA3, 0x0C, nC3, 0x06, nA3, 0x0C, nC3, nBb3, nC3, 0x06, nBb3, 0x0C
	.byte	nC3, 0x06, nA3, 0x0C, nC3, 0x06, nA3, 0x0C, nC3, 0x06, nA3, 0x0C
	.byte	nC3, nG3, nC3, 0x06, nG3, 0x0C, nC3, 0x06, nA3, 0x0C, nC3, 0x06
	.byte	nA3, 0x0C, nC3, 0x06, nA3, 0x0C
	smpsSetvoice        0x17
	smpsAlterNote       0xFE
	smpsModSet          0x0F, 0x01, 0x06, 0x06
	smpsPan             panRight, 0x00
	.byte	smpsNoAttack, 0x0C, nD4, 0x06, nEb4, 0x0C, nEb4, 0x03, nRst, nEb4, nRst, nEb4
	.byte	nRst, nEb4, 0x03, nRst, 0x09, nF4, 0x03, nRst, 0x03, nEb4, 0x1E
	smpsSetvoice        0x16
	smpsAlterNote       0x02
	smpsModSet          0x0A, 0x01, 0x06, 0x06
	smpsPan             panLeft, 0x00
	.byte	nC3, 0x0C, nG3, nC3, 0x06, nG3, 0x0C, nC3, 0x06, nA3, 0x0C, nC3
	.byte	0x06, nA3, 0x0C, nC3, 0x06, nA3, 0x0C, nC3, nBb3, nC3, 0x06, nBb3
	.byte	0x0C, nC3, 0x06, nA3, 0x0C, nC3, 0x06, nA3, 0x0C, nC3, 0x06, nA3
	.byte	0x0C, nC3, nG3, nC3, 0x06, nG3, 0x0C, nC3, 0x06, nA3, 0x0C, nC3
	.byte	0x06, nA3, 0x0C, nC3, 0x06, nC3, 0x0C
	smpsFMAlterVol      0xF8
	smpsSetvoice        0x0F
	smpsAlterNote       0x00
	smpsModSet          0x0F, 0x01, 0x06, 0x06
	smpsPan             panRight, 0x00
	smpsCall            Snd_AIZ2_Call02
	smpsCall            Snd_AIZ2_Call03
	smpsAlterPitch      0xF4
	smpsSetvoice        0x1E
	smpsAlterNote       0xFD
	smpsModSet          0x0F, 0x01, 0x06, 0x06
	smpsPan             panRight, 0x00
	.byte	nC5, 0x0C, nA4, 0x06, nBb4, 0x0C, nG4, nC5, 0x42, nAb4, 0x0C, nC5
	.byte	nG5, nF5, 0x12, nEb5, nD5, 0x0C, nB4, 0x24, nG4, 0x0C, nB4, 0x12
	.byte	nC5, nD5, 0x0C, nEb5, 0x30, nD5, nC5, nG4, 0x3C, nAb4, 0x0C, nC5
	.byte	nG5, nF5, 0x12, nEb5, nD5, 0x0C, nB4, 0x24, nG4, 0x0C, nB4, 0x12
	.byte	nC5, nD5, 0x0C, nEb5, 0x24, nD5, 0x06, nEb5, nF5, 0x24, nEb5, 0x06
	.byte	nF5, nRst, 0x60, 0x60
	smpsAlterPitch      0x0C
	smpsSetvoice        0x06
	smpsAlterNote       0xFD
	smpsModSet          0x0F, 0x01, 0x06, 0x06
	smpsPan             panCenter, 0x00
	.byte	nD3, 0x24, nD3, 0x06, nEb3, nF3, 0x12, nEb3, nD3, 0x0C, nEb3, 0x30
	.byte	nC3, nG3, 0x18, nF3, nG3, nAb3
	smpsJump            Snd_AIZ2_FM5

/*  Unreachable */
	smpsStop

/*  PSG1 Data */
Snd_AIZ2_PSG1:
	smpsPSGvoice        sTone_05
	smpsAlterNote       0x00
	smpsModSet          0x0F, 0x01, 0x00, 0x06
	.byte	nRst, 0x0C, nG3

Snd_AIZ2_Loop1A:
	.byte	nRst, 0x06, nG3, 0x0C
	smpsLoop            0x00, 0x04, Snd_AIZ2_Loop1A
	.byte	nRst, 0x60
	smpsPSGvoice        sTone_05
	smpsAlterNote       0x00
	smpsModSet          0x0F, 0x01, 0x00, 0x06
	.byte	nRst, 0x0C, nG3, nRst, 0x06, nG3, 0x0C, nRst, nA3, 0x06, nRst, 0x06
	.byte	nG3, 0x06, nRst, 0x0C, nF3
	smpsPSGvoice        sTone_0A
	smpsAlterNote       0x00
	smpsModSet          0x0F, 0x01, 0x01, 0x06
	.byte	nC4, 0x03, nRst, 0x03, nC4, 0x03, nRst, 0x03, nC5, 0x03, nRst, 0x03
	.byte	nC4, 0x03, nRst, 0x03, nBb4, 0x03, nRst, 0x03, nC4, 0x03, nRst, 0x03
	.byte	nBb4, 0x03, nRst, 0x03, nC5, 0x03, nRst, 0x33
	smpsPSGvoice        sTone_05
	smpsAlterNote       0x00
	smpsModSet          0x0F, 0x01, 0x00, 0x06
	.byte	nRst, 0x0C, nG3

Snd_AIZ2_Loop1B:
	.byte	nRst, 0x06, nG3, 0x0C
	smpsLoop            0x00, 0x04, Snd_AIZ2_Loop1B
	.byte	nRst, 0x60
	smpsPSGvoice        sTone_05
	smpsAlterNote       0x00
	smpsModSet          0x0F, 0x01, 0x00, 0x06
	.byte	nRst, 0x0C, nG3, nRst, 0x06, nG3, 0x0C, nRst, nA3, 0x06, nRst, 0x06
	.byte	nG3, 0x06, nRst, 0x0C, nF3, nRst, 0x60
	smpsPSGvoice        sTone_05
	smpsAlterNote       0x00
	smpsModSet          0x0F, 0x01, 0x00, 0x06
	.byte	nRst, 0x0C, nEb3, nRst, 0x06, nEb3, 0x0C, nRst, 0x06, nF3, 0x0C, nRst
	.byte	0x06, nF3, 0x0C, nRst, 0x06, nF3, 0x0C, nRst, nG3, nRst, 0x06, nG3
	.byte	0x0C, nRst, 0x06, nF3, 0x0C, nRst, 0x06, nF3, 0x0C, nRst, 0x06, nF3
	.byte	0x0C, nRst, nEb3, nRst, 0x06, nEb3, 0x0C, nRst, 0x06, nF3, 0x0C, nRst
	.byte	0x06, nF3, 0x0C, nRst, 0x06, nF3, 0x0C
	smpsPSGvoice        sTone_0A
	smpsAlterNote       0x00
	smpsModSet          0x0F, 0x01, 0x01, 0x06
	.byte	nRst, nA4, 0x05, nRst, 0x01, nBb4, 0x05, nRst, 0x07, nBb4, 0x06, nBb4
	.byte	nBb4, nBb4, 0x06, nRst, 0x06, nC5, 0x05, nRst, 0x01, nBb4, 0x1E
	smpsCall            Snd_AIZ2_Call04
	smpsPSGvoice        sTone_0A
	smpsAlterNote       0x00
	smpsModSet          0x0F, 0x01, 0x01, 0x06
	.byte	nRst, 0x0C, nA3, 0x05, nRst, 0x01, nB3, 0x05, nRst, 0x07, nB3, 0x06
	.byte	nB3, nB3, nB3, 0x06, nRst, 0x06, nC4, 0x05, nRst, 0x01, nB3, 0x1E
	smpsPSGvoice        sTone_05
	smpsAlterNote       0x00
	smpsModSet          0x0F, 0x01, 0x00, 0x06
	smpsAlterPitch      0x0C
	smpsCall            Snd_AIZ2_Call03
	smpsAlterPitch      0xF4
	.byte	nRst, 0x60
	smpsPSGvoice        sTone_0A
	smpsAlterNote       0x00
	smpsModSet          0x0F, 0x01, 0x01, 0x06
	smpsNoteFill        0x03
	.byte	nEb5, 0x06, nC5, nAb4, nEb4, nC4, nAb3, nEb3, nC3, nC5, nAb4, nEb4
	.byte	nC4, nAb3, nEb3, nC3, nAb2, nD5, nBb4, nF4, nD4, nBb3, nF3, nD3
	.byte	nBb2, nBb4, nF4, nD4, nBb3, nF3, nD3, nBb2
	smpsNoteFill        0x00
	.byte	nF2, 0x03, nRst, 0x60, nRst, nRst, 0x03
	smpsPSGvoice        sTone_0A
	smpsAlterNote       0x00
	smpsModSet          0x0F, 0x01, 0x01, 0x06
	smpsNoteFill        0x03
	.byte	nEb5, 0x06, nC5, nAb4, nEb4, nC4, nAb3, nEb3, nC3, nC5, nAb4, nEb4
	.byte	nC4, nAb3, nEb3, nC3, nAb2, nD5, nBb4, nF4, nD4, nBb3, nF3, nD3
	.byte	nBb2, nBb4, nF4, nD4, nBb3, nF3, nD3, nBb2
	smpsNoteFill        0x00
	.byte	nF2, 0x03, nRst, 0x60, nRst, nRst, 0x03
	smpsFMAlterVol      0xFE
	smpsPSGvoice        sTone_0A
	smpsAlterNote       0x00
	smpsModSet          0x0F, 0x01, 0x01, 0x06
	.byte	nEb4, 0x0B, nRst, 0x07, nEb4, 0x06, nRst, 0x48, nF4, 0x0B, nRst, 0x07
	.byte	nF4, 0x06
	smpsFMAlterVol      0x02
	.byte	nRst, 0x48, nC4, 0x2F, nRst, 0x01, nAb3, 0x2F, nRst, 0x01, nEb4, 0x17
	.byte	nRst, 0x01, nD4, 0x17, nRst, 0x01, nEb4, 0x17, nRst, 0x01, nF4, 0x17
	.byte	nRst, 0x01
	smpsJump            Snd_AIZ2_PSG1

/*  Unreachable */
	smpsStop

Snd_AIZ2_Call04:
	smpsPSGvoice        sTone_05
	smpsAlterNote       0xFF
	smpsModSet          0x0F, 0x01, 0x00, 0x06
	.byte	nC3, 0x0C, nG3, nC3, 0x06, nG3, 0x0C, nC3, 0x06, nA3, 0x0C, nC3
	.byte	0x06, nA3, 0x0C, nC3, 0x06, nA3, 0x0C, nC3, nBb3, nC3, 0x06, nBb3
	.byte	0x0C, nC3, 0x06, nA3, 0x0C, nC3, 0x06, nA3, 0x0C, nC3, 0x06, nA3
	.byte	0x0C, nC3, nG3, nC3, 0x06, nG3, 0x0C, nC3, 0x06, nA3, 0x0C, nC3
	.byte	0x06, nA3, 0x0C, nC3, 0x06, nC3, 0x0C
	smpsReturn

/*  PSG2 Data */
Snd_AIZ2_PSG2:
	smpsPSGvoice        sTone_05
	smpsAlterNote       0xFF
	smpsModSet          0x0F, 0x01, 0x00, 0x06
	.byte	nC3, 0x0C, nBb3

Snd_AIZ2_Loop18:
	.byte	nC3, 0x06, nBb3, 0x0C
	smpsLoop            0x00, 0x04, Snd_AIZ2_Loop18
	.byte	nRst, 0x60
	smpsPSGvoice        sTone_05
	smpsAlterNote       0xFF
	smpsModSet          0x0F, 0x01, 0x00, 0x06
	.byte	nC3, 0x0C, nBb3, nC3, 0x06, nBb3, 0x0C, nC3, 0x06, nRst, nC4, 0x06
	.byte	nC3, 0x06, nBb3, nRst, nC3, nA3, 0x0C
	smpsPSGvoice        sTone_0A
	smpsAlterNote       0xFF
	smpsModSet          0x0F, 0x01, 0x01, 0x06
	smpsNoteFill        0x03
	.byte	nC4, 0x06, nC4, nC5, nC4, nBb4, nC4, nBb4, nC5, 0x03
	smpsNoteFill        0x00
	.byte	nRst, 0x33
	smpsPSGvoice        sTone_05
	smpsAlterNote       0xFF
	smpsModSet          0x0F, 0x01, 0x00, 0x06
	.byte	nC3, 0x0C, nBb3

Snd_AIZ2_Loop19:
	.byte	nC3, 0x06, nBb3, 0x0C
	smpsLoop            0x00, 0x04, Snd_AIZ2_Loop19
	.byte	nRst, 0x60
	smpsPSGvoice        sTone_05
	smpsAlterNote       0xFF
	smpsModSet          0x0F, 0x01, 0x00, 0x06
	.byte	nC3, 0x0C, nBb3, nC3, 0x06, nBb3, 0x0C, nC3, 0x06, nRst, nC4, 0x06
	.byte	nC3, 0x06, nBb3, nRst, nC3, nA3, 0x0C, nRst, 0x60
	smpsPSGvoice        sTone_05
	smpsAlterNote       0xFF
	smpsModSet          0x0F, 0x01, 0x00, 0x06
	.byte	nC3, 0x0C, nG3, nC3, 0x06, nG3, 0x0C, nC3, 0x06, nA3, 0x0C, nC3
	.byte	0x06, nA3, 0x0C, nC3, 0x06, nA3, 0x0C, nC3, nBb3, nC3, 0x06, nBb3
	.byte	0x0C, nC3, 0x06, nA3, 0x0C, nC3, 0x06, nA3, 0x0C, nC3, 0x06, nA3
	.byte	0x0C, nC3, nG3, nC3, 0x06, nG3, 0x0C, nC3, 0x06, nA3, 0x0C, nC3
	.byte	0x06, nA3, 0x0C, nC3, 0x06, nA3, 0x0C
	smpsPSGvoice        sTone_0A
	smpsAlterNote       0xFF
	smpsModSet          0x0F, 0x01, 0x01, 0x06
	.byte	nRst, nD4, 0x05, nRst, 0x01, nEb4, 0x05, nRst, 0x07, nEb4, 0x02, nRst
	.byte	0x04, nEb4, 0x02, nRst, 0x04, nEb4, 0x02, nRst, 0x04, nEb4, 0x02, nRst
	.byte	0x0A, nF4, 0x05, nRst, 0x01, nEb4, 0x1E
	smpsCall            Snd_AIZ2_Call04
	smpsPSGvoice        sTone_0A
	smpsAlterNote       0xFF
	smpsModSet          0x0F, 0x01, 0x01, 0x06
	.byte	nRst, 0x0C, nCs4, 0x05, nRst, 0x01, nD4, 0x05, nRst, 0x07, nD4, 0x02
	.byte	nRst, 0x04, nD4, 0x02, nRst, 0x04, nD4, 0x02, nRst, 0x04, nD4, 0x02
	.byte	nRst, 0x0A, nEb4, 0x05, nRst, 0x01, nD4, 0x1E
	smpsPSGvoice        sTone_05
	smpsAlterNote       0xFF
	smpsModSet          0x0F, 0x01, 0x00, 0x06
	smpsAlterPitch      0x0C
	smpsCall            Snd_AIZ2_Call03
	smpsAlterPitch      0xF4
	.byte	nRst, 0x60
	smpsPSGvoice        sTone_0A
	smpsAlterNote       0xFF
	smpsModSet          0x0F, 0x01, 0x01, 0x06
	smpsNoteFill        0x03
	.byte	nEb5, 0x06, nC5, nAb4, nEb4, nC4, nAb3, nEb3, nC3, nC5, nAb4, nEb4
	.byte	nC4, nAb3, nEb3, nC3, nAb2, nD5, nBb4, nF4, nD4, nBb3, nF3, nD3
	.byte	nBb2, nBb4, nF4, nD4, nBb3, nF3, nD3, nBb2
	smpsNoteFill        0x00
	.byte	nF2, 0x03, nRst, 0x60, nRst, nRst, 0x03
	smpsPSGvoice        sTone_0A
	smpsAlterNote       0xFF
	smpsModSet          0x0F, 0x01, 0x01, 0x06
	smpsNoteFill        0x03
	.byte	nEb5, 0x06, nC5, nAb4, nEb4, nC4, nAb3, nEb3, nC3, nC5, nAb4, nEb4
	.byte	nC4, nAb3, nEb3, nC3, nAb2, nD5, nBb4, nF4, nD4, nBb3, nF3, nD3
	.byte	nBb2, nBb4, nF4, nD4, nBb3, nF3, nD3, nBb2
	smpsNoteFill        0x00
	.byte	nF2, 0x03, nRst, 0x60, nRst, nRst, 0x03
	smpsFMAlterVol      0xFE
	smpsPSGvoice        sTone_0A
	smpsAlterNote       0xFF
	smpsModSet          0x0F, 0x01, 0x01, 0x06
	.byte	nC4, 0x0B, nRst, 0x07, nC4, 0x02, nRst, 0x4C, nD4, 0x0B, nRst, 0x07
	.byte	nD4, 0x02
	smpsFMAlterVol      0x02
	.byte	nRst, 0x4C, nC4, 0x2F, nRst, 0x01, nAb3, 0x2F, nRst, 0x01, nEb4, 0x17
	.byte	nRst, 0x01, nD4, 0x17, nRst, 0x01, nEb4, 0x17, nRst, 0x01, nF4, 0x17
	.byte	nRst, 0x01
	smpsJump            Snd_AIZ2_PSG2

/*  Unreachable */
	smpsStop

/*  PSG3 Data */
Snd_AIZ2_PSG3:
	smpsPSGvoice        sTone_02
	smpsPSGform         0xE7

Snd_AIZ2_Loop14:
	smpsPSGvoice        sTone_02
	.byte	nMaxPSG1, 0x06, nMaxPSG1
	smpsPSGvoice        sTone_05
	.byte	nMaxPSG1, 0x06, nRst, 0x06
	smpsLoop            0x01, 0x1C, Snd_AIZ2_Loop14
	smpsPSGvoice        sTone_02
	.byte	nMaxPSG1, 0x0C
	smpsPSGvoice        sTone_01
	.byte	nMaxPSG1
	smpsPSGvoice        sTone_01
	.byte	nMaxPSG1
	smpsPSGvoice        sTone_02
	.byte	nMaxPSG1, 0x3C

Snd_AIZ2_Loop15:
	.byte	nMaxPSG1, 0x0C, nMaxPSG1, 0x06, nMaxPSG1, nMaxPSG1, 0x0C, nMaxPSG1, 0x06, nMaxPSG1, nMaxPSG1, 0x0C
	.byte	nMaxPSG1, 0x06, nMaxPSG1, nMaxPSG1, 0x0C, nMaxPSG1, 0x06, nMaxPSG1, nMaxPSG1, nMaxPSG1, nMaxPSG1, 0x0C
	.byte	nMaxPSG1, 0x06, nMaxPSG1, nMaxPSG1, 0x0C, nMaxPSG1, nMaxPSG1, 0x06, nMaxPSG1, nMaxPSG1, 0x0C, nMaxPSG1
	.byte	0x06, nMaxPSG1
	smpsLoop            0x01, 0x03, Snd_AIZ2_Loop15
	.byte	nMaxPSG1, 0x0C, nMaxPSG1, 0x06, nMaxPSG1, nMaxPSG1, 0x0C, nMaxPSG1, 0x06, nMaxPSG1, nMaxPSG1, 0x0C
	.byte	nMaxPSG1, 0x06, nMaxPSG1, nMaxPSG1, 0x0C, nMaxPSG1, 0x06, nMaxPSG1, 0x60, 0x06

Snd_AIZ2_Loop16:
	.byte	nMaxPSG1, 0x0C, nMaxPSG1, 0x06, nMaxPSG1, nMaxPSG1, 0x0C, nMaxPSG1, 0x06, nMaxPSG1, nMaxPSG1, 0x0C
	.byte	nMaxPSG1, 0x06, nMaxPSG1, nMaxPSG1, 0x0C, nMaxPSG1, 0x06, nMaxPSG1, nMaxPSG1, nMaxPSG1, nMaxPSG1, 0x0C
	.byte	nMaxPSG1, 0x06, nMaxPSG1, nMaxPSG1, 0x0C, nMaxPSG1, nMaxPSG1, 0x06, nMaxPSG1, nMaxPSG1, 0x0C, nMaxPSG1
	.byte	0x06, nMaxPSG1
	smpsLoop            0x01, 0x04, Snd_AIZ2_Loop16

Snd_AIZ2_Loop17:
	.byte	nMaxPSG1, 0x06, nMaxPSG1, nMaxPSG1, 0x0C, nMaxPSG1, 0x06, nMaxPSG1, nMaxPSG1, 0x0C, nMaxPSG1, 0x06
	.byte	nMaxPSG1, nMaxPSG1, 0x0C, nMaxPSG1, 0x06, nMaxPSG1, nMaxPSG1, 0x0C
	smpsLoop            0x01, 0x0A, Snd_AIZ2_Loop17
	.byte	nMaxPSG1, 0x06, nMaxPSG1, nMaxPSG1, 0x0C, nMaxPSG1, 0x06, nMaxPSG1, nMaxPSG1, 0x0C, nMaxPSG1, 0x06
	.byte	nMaxPSG1, nMaxPSG1, 0x0C, nMaxPSG1, 0x06, nMaxPSG1, nMaxPSG1, 0x60, 0x0C
	smpsJump            Snd_AIZ2_Loop14

/*  Unreachable */
	smpsStop
