Snd_ALZ_Header:
	smpsHeaderStartSong 3
	smpsHeaderVoice     Snd_ALZ_Voices
	smpsHeaderChan      0x06, 0x03
	smpsHeaderTempo     0x01, 0x00

	smpsHeaderDAC       Snd_ALZ_DAC
	smpsHeaderFM        Snd_ALZ_FM1,	0x00, 0x12
	smpsHeaderFM        Snd_ALZ_FM2,	0x00, 0x08
	smpsHeaderFM        Snd_ALZ_FM3,	0x00, 0x12
	smpsHeaderFM        Snd_ALZ_FM4,	0x00, 0x12
	smpsHeaderFM        Snd_ALZ_FM5,	0x00, 0x16
	smpsHeaderPSG       Snd_ALZ_PSG1,	0xE8, 0x03, 0x00, 0x00
	smpsHeaderPSG       Snd_ALZ_PSG2,	0xE8, 0x02, 0x00, 0x00
	smpsHeaderPSG       Snd_ALZ_PSG3,	0xE8, 0x02, 0x00, 0x00

/*  FM1 Data */
Snd_ALZ_FM1:
	smpsPan             panCenter, 0x00
	smpsSetvoice        0x00
	smpsModSet          0x0D, 0x01, 0x02, 0x06
	.byte	nC4, 0x08, nF4, nG4, nF4, nG4, nC5, nG4, nC5, nD5, nF5, 0x18

Snd_ALZ_Jump01:
	.byte	nRst, 0x60, nRst, nRst, nRst
	smpsSetvoice        0x04
	.byte	nRst, 0x18, nG5, 0x30, nC5, 0x06, nRst, 0x12, nRst, 0x54, nG5, 0x06
	.byte	nRst, nG5, 0x12, nC5, 0x06, nRst, 0x0C, nG4, 0x06, nRst, nG4, 0x12
	.byte	nC4, 0x06, nRst, 0x18
	smpsSetvoice        0x03
	.byte	nRst, 0x30, nRst, 0x06, nC4, nE4, nG4, nE4, nG4, nC5, nE5, nF5
	.byte	0x0C, nE5, nD5, nC5, 0x06, nRst, 0x12, nG5, 0x18, nE5, 0x0C, nF5
	.byte	nE5, nD5, nE5, 0x08, nRst, 0x0A, nC4, 0x06, nE4, nG4, nE4, nG4
	.byte	nC5, nE5, nF5, 0x0C, nE5, nD5, nC5, 0x06, nRst, 0x12, nG5, 0x18
	.byte	nE5, 0x0C, nF5, nE5, nD5, nC5, 0x08, nRst, 0x0A, nC6, 0x06, nG5
	.byte	nE5, nG5, nE5, nC5, nG4
	smpsSetvoice        0x00
	.byte	nRst, 0x18, nG4, 0x06, nRst, 0x1E, nF4, 0x06, nRst, 0x1E, nC5, 0x06
	.byte	nRst, 0x1E, nG4, 0x06, nRst, 0x1E, nE5, 0x06, nRst, 0x12, nRst, 0x0C
	.byte	nC5, 0x06, nRst, 0x1E, nG5, 0x06, nRst, 0x2A, nRst, 0x36
	smpsSetvoice        0x03
	.byte	nC4, 0x06, nE4, nG4, nE4, nG4, nC5, nE5, nF5, 0x0C, nE5, nD5
	.byte	nC5, 0x06, nRst, 0x12, nG5, 0x18, nE5, 0x0C, nF5, nE5, nD5, nE5
	.byte	0x08, nRst, 0x0A, nC4, 0x06, nE4, nG4, nE4, nG4, nC5, nE5, nF5
	.byte	0x0C, nE5, nD5, nC5, 0x06, nRst, 0x12, nG5, 0x18, nE5, 0x0C, nF5
	.byte	nE5, nD5, nC5, 0x08, nRst, 0x0A, nC6, 0x06, nG5, nE5, nG5, nE5
	.byte	nC5, nG4
	smpsSetvoice        0x00
	.byte	nRst, 0x18, nG4, 0x06, nRst, 0x1E, nF4, 0x06, nRst, 0x1E, nC5, 0x06
	.byte	nRst, 0x1E, nG4, 0x06, nRst, 0x1E, nE5, 0x06, nRst, 0x12, nRst, 0x0C
	.byte	nC5, 0x06, nRst, 0x1E, nG5, 0x06, nRst, 0x12, nD5, 0x06, nRst, nE5
	.byte	nRst, nG3, 0x0C, nG3, 0x06, nRst, nBb3, nRst, 0x12, nD4, 0x0C, nC4
	.byte	0x06, nRst, 0x12
	smpsFMAlterVol      0x03
	smpsSetvoice        0x04
	.byte	nE5, 0x18, nD5, 0x06, nRst, nE5, nRst, nD5, nRst, nE5, nRst, nD5
	.byte	nE5, nRst, 0x0C, nF5, 0x18, nE5, 0x06, nRst, nF5, nRst, nE5, nRst
	.byte	nF5, nRst, nE5, nF5, nRst, 0x0C, nG5, 0x18, nF5, 0x06, nRst, nG5
	.byte	nRst, nF5, nRst, nG5, nRst, nF5, nE5, nRst, 0x0C, nA4, 0x1E, nRst
	.byte	0x06, nB4, nRst, nB4, nRst, nB4, 0x0C, nG4, 0x06, nRst, nG4, nRst
	.byte	nE5, 0x18, nD5, 0x06, nRst, nE5, nRst, nD5, nRst, nE5, nRst, nD5
	.byte	nE5, nRst, 0x0C, nF5, 0x18, nE5, 0x06, nRst, nF5, nRst, nE5, nRst
	.byte	nF5, nRst, nE5, nF5, nRst, 0x0C, nG5, 0x18, nF5, 0x06, nRst, nG5
	.byte	nRst, nF5, nRst, nG5, nRst, nF5, nE5, nRst, 0x0C, nA4, 0x1E, nRst
	.byte	0x06, nBb4, nRst, nBb4, nRst, nB4, 0x0C, nRst, nC5, 0x06, nRst, nF5
	.byte	0x3C, nE5, 0x0C, nC5, nA4, nE5, 0x06, nRst, nRst, 0x0C, nD5, 0x08
	.byte	nRst, 0x28, nC5, 0x06, nRst, nC5, nRst, nC5, nRst
	smpsFMAlterVol      0xFD
	smpsJump            Snd_ALZ_Jump01

/*  Unreachable */
	smpsStop

/*  FM2 Data */
Snd_ALZ_FM2:
	smpsSetvoice        0x01
	smpsModSet          0x0D, 0x01, 0x02, 0x06
	.byte	nC2, 0x48, nC2, 0x06, nC2, nC2, nC2

Snd_ALZ_Loop08:
	.byte	nC2, 0x06, nRst, nC2, nRst, nC2, nRst, nC2, nC2, 0x05, nRst, 0x07
	.byte	nC2, 0x06, nG2, nC2, nC2, 0x05, nRst, 0x07, nC2, 0x06, nC2
	smpsLoop            0x00, 0x0C, Snd_ALZ_Loop08
	.byte	nC2, 0x06, nRst, nC2, nRst, nC2, nRst, nC2, nC2, 0x05, nRst, 0x07
	.byte	nC2, 0x03, nRst, nC2, 0x0C, nC2, nC2, nC2, 0x06, nC2, nC2, nRst
	.byte	nC2, nRst, nC2, nC2, 0x05, nRst, 0x07, nC2, 0x05, nRst, 0x07, nC2
	.byte	0x06, nG2, nC2, nG2, nC2, nC2, nRst, nC2, nRst, nC2, nRst, nC2
	.byte	nC2, 0x05, nRst, 0x07, nC2, 0x03, nRst, nC2, 0x0C, nC2, nC2, nC2
	.byte	nC3, 0x01, nRst, 0x0B, nC2, 0x12, nC2, 0x05, nRst, 0x0D, nC2, 0x05
	.byte	nRst, 0x07, nC2, 0x06, nC3, nC2, nC2

Snd_ALZ_Loop09:
	.byte	nC2, 0x06, nRst, nC2, nRst, nC2, nRst, nC2, nC2, 0x05, nRst, 0x07
	.byte	nC2, 0x06, nG2, nC2, nC2, 0x05, nRst, 0x07, nC2, 0x06, nC2
	smpsLoop            0x00, 0x04, Snd_ALZ_Loop09
	.byte	nC2, 0x06, nRst, nC2, nRst, nC2, nRst, nC2, nC2, 0x05, nRst, 0x07
	.byte	nC2, 0x03, nRst, nC2, 0x0C, nC2, nC2, nC2, 0x06, nC2, nC2, nRst
	.byte	nC2, nRst, nC2, nC2, 0x05, nRst, 0x07, nC2, 0x05, nRst, 0x07, nC2
	.byte	0x06, nG2, nC2, nG2, nC2, nC2, nRst, nC2, nRst, nC2, nRst, nC2
	.byte	nC2, 0x05, nRst, 0x07, nC2, 0x03, nRst, nC2, 0x0C, nC2, nC2, nC2
	.byte	nC3, 0x01, nRst, 0x0B, nC2, 0x12, nC2, 0x06, nC2, 0x0C, nC2, 0x05
	.byte	nRst, 0x13

Snd_ALZ_Loop0A:
	.byte	nC2, 0x18, nC2, 0x0C, nC2, nC2, nC2, nC2, nC2
	smpsLoop            0x00, 0x08, Snd_ALZ_Loop0A
	.byte	nC2, 0x18, nC2, 0x0C, nC2, nC2, 0x06, nG2, 0x02, nRst, 0x04, nC3
	.byte	0x0C, nG2, nE2, nC2, nRst, nC2, 0x06, nRst, 0x12, nC2, 0x06, nC2
	.byte	nC2, 0x0C, nC2, nG2, nC2
	smpsJump            Snd_ALZ_Loop08

/*  Unreachable */
	smpsStop

/*  FM3 Data */
Snd_ALZ_FM3:
	smpsSetvoice        0x04
	smpsModSet          0x0D, 0x01, 0x02, 0x06
	.byte	nRst, 0x18, nF5, 0x30, nE4, 0x06, nG4, nC5, nE5

Snd_ALZ_Loop07:
	smpsSetvoice        0x02
	.byte	nF4, 0x06, nRst, 0x0C, nF4, 0x06, nRst, 0x0C, nE4, 0x06, nRst, 0x12
	.byte	nE4, 0x06, nRst, nE4, nRst, nE4, nRst, nD4, nRst, 0x0C, nD4, 0x06
	.byte	nRst, 0x0C, nE4, 0x06, nRst, 0x12, nE4, 0x06, nRst, nE4, nRst, nE4
	.byte	nRst, nF4, nRst, 0x0C, nF4, 0x06, nRst, 0x0C, nE4, 0x06, nRst, 0x12
	.byte	nE4, 0x06, nRst, nE4, nRst, nE4, nRst, nD4, nRst, 0x0C, nD4, 0x06
	.byte	nRst, 0x0C, nC4, 0x06, nRst, 0x12, nC4, 0x06, nRst, nC4, nRst, nC4
	.byte	nRst
	smpsLoop            0x00, 0x03, Snd_ALZ_Loop07
	smpsSetvoice        0x04
	.byte	nRst, 0x0C, nG4, 0x08, nRst, 0x0A, nG4, 0x06, nRst, 0x0C, nG4, 0x08
	.byte	nRst, 0x0A, nG4, 0x08, nRst, 0x0A, nG4, 0x20, nG4, 0x0C, nRst, 0x10
	.byte	nG4, 0x06, nG4, 0x08, nRst, 0x04, nG4, 0x08, nRst, 0x0A, nG4, 0x20
	.byte	nG4, 0x0C, nRst, 0x10, nG4, 0x06, nG4, 0x08, nRst, 0x04, nG4, 0x08
	.byte	nRst, 0x0A, nG4, 0x1E, nG4, 0x0E, nRst, 0x40
	smpsSetvoice        0x02
	.byte	nF4, 0x06, nRst, 0x0C, nF4, 0x06, nRst, 0x0C, nE4, 0x06, nRst, 0x12
	.byte	nE4, 0x06, nRst, nE4, nRst, nE4, nRst, nD4, nRst, 0x0C, nD4, 0x06
	.byte	nRst, 0x0C, nE4, 0x06, nRst, 0x12, nE4, 0x06, nRst, nE4, nRst, nE4
	.byte	nRst, nF4, nRst, 0x0C, nF4, 0x06, nRst, 0x0C, nE4, 0x06, nRst, 0x12
	.byte	nE4, 0x06, nRst, nE4, nRst, nE4, nRst, nD4, nRst, 0x0C, nD4, 0x06
	.byte	nRst, 0x0C, nC4, 0x06, nRst, 0x12, nC4, 0x06, nRst, nC4, nRst, nC4
	.byte	nRst
	smpsSetvoice        0x04
	.byte	nRst, 0x0C, nG4, 0x08, nRst, 0x0A, nG4, 0x06, nRst, 0x0C, nG4, 0x08
	.byte	nRst, 0x0A, nG4, 0x08, nRst, 0x0A, nG4, 0x20, nG4, 0x0C, nRst, 0x10
	.byte	nG4, 0x06, nG4, 0x08, nRst, 0x04, nG4, 0x08, nRst, 0x0A, nG4, 0x1E
	.byte	nG4, 0x0C, nRst, 0x12, nG4, 0x06, nG4, nRst, nG4, nRst, 0x0C, nE4
	.byte	0x1E, nRst, 0x06, nF4, nRst, 0x12, nA4, 0x0C, nG4, 0x06, nRst, 0x12
	smpsSetvoice        0x03
	smpsFMAlterVol      0xFD
	.byte	nC5, 0x54, nG4, 0x06, nRst, nD5, 0x54, nC5, 0x06, nRst, nE5, 0x48
	.byte	nC5, 0x08, nRst, 0x1C, nRst, 0x18, nG5, 0x08, nRst, 0x10, nD5, 0x08
	.byte	nRst, 0x10, nE5, 0x08, nRst, 0x04, nC5, 0x54, nG4, 0x06, nRst, nD5
	.byte	0x54, nC5, 0x06, nRst, nE5, 0x48, nC6, 0x08, nRst, 0x10, nF5, 0x24
	.byte	nE5, 0x18, nG5, 0x08, nRst, 0x28, nRst, 0x60
	smpsSetvoice        0x02
	.byte	nRst, 0x3C, nC4, 0x06, nRst, nC4, nRst, nC4, nRst
	smpsFMAlterVol      0x03
	smpsJump            Snd_ALZ_Loop07

/*  Unreachable */
	smpsStop

/*  FM4 Data */
Snd_ALZ_FM4:
	smpsSetvoice        0x04
	smpsModSet          0x0D, 0x01, 0x02, 0x06
	.byte	nRst, 0x18, nG5, 0x30, nC5, 0x06, nRst, 0x12

Snd_ALZ_Loop06:
	smpsSetvoice        0x02
	.byte	nC4, 0x06, nRst, 0x0C, nC4, 0x06, nRst, 0x0C, nC4, 0x06, nRst, 0x12
	.byte	nC4, 0x06, nRst, nC4, nRst, nC4, nRst, nC4, nRst, 0x0C, nC4, 0x06
	.byte	nRst, 0x0C, nC4, 0x06, nRst, 0x12, nC4, 0x06, nRst, nC4, nRst, nC4
	.byte	nRst, nC4, nRst, 0x0C, nC4, 0x06, nRst, 0x0C, nC4, 0x06, nRst, 0x12
	.byte	nC4, 0x06, nRst, nC4, nRst, nC4, nRst, nC4, nRst, 0x0C, nC4, 0x06
	.byte	nRst, 0x0C, nG3, 0x06, nRst, 0x12, nG3, 0x06, nRst, nG3, nRst, nG3
	.byte	nRst
	smpsLoop            0x00, 0x03, Snd_ALZ_Loop06
	smpsSetvoice        0x04
	.byte	nRst, 0x0C, nF4, 0x08, nRst, 0x0A, nF4, 0x06, nRst, 0x0C, nF4, 0x08
	.byte	nRst, 0x0A, nF4, 0x08, nRst, 0x0A, nE4, 0x20, nE4, 0x0C, nRst, 0x10
	.byte	nE4, 0x06, nE4, 0x08, nRst, 0x04, nE4, 0x08, nRst, 0x0A, nF4, 0x20
	.byte	nF4, 0x0C, nRst, 0x10, nF4, 0x06, nF4, 0x08, nRst, 0x04, nF4, 0x08
	.byte	nRst, 0x0A, nE4, 0x18, nD4, 0x06, nRst, nE4, 0x08, nRst, 0x40
	smpsSetvoice        0x02
	.byte	nC4, 0x06, nRst, 0x0C, nC4, 0x06, nRst, 0x0C, nC4, 0x06, nRst, 0x12
	.byte	nC4, 0x06, nRst, nC4, nRst, nC4, nRst, nC4, nRst, 0x0C, nC4, 0x06
	.byte	nRst, 0x0C, nC4, 0x06, nRst, 0x12, nC4, 0x06, nRst, nC4, nRst, nC4
	.byte	nRst, nC4, nRst, 0x0C, nC4, 0x06, nRst, 0x0C, nC4, 0x06, nRst, 0x12
	.byte	nC4, 0x06, nRst, nC4, nRst, nC4, nRst, nC4, nRst, 0x0C, nC4, 0x06
	.byte	nRst, 0x0C, nG3, 0x06, nRst, 0x12, nG3, 0x06, nRst, nG3, nRst, nG3
	.byte	nRst
	smpsSetvoice        0x04
	.byte	nRst, 0x0C, nF4, 0x08, nRst, 0x0A, nF4, 0x06, nRst, 0x0C, nF4, 0x08
	.byte	nRst, 0x0A, nF4, 0x08, nRst, 0x0A, nE4, 0x20, nE4, 0x0C, nRst, 0x10
	.byte	nE4, 0x06, nE4, 0x08, nRst, 0x04, nE4, 0x08, nRst, 0x0A, nF4, 0x1E
	.byte	nF4, 0x0C, nRst, 0x12, nF4, 0x06, nF4, nRst, nF4, nRst, 0x0C, nC4
	.byte	0x1E, nRst, 0x06, nD4, nRst, 0x12, nF4, 0x0C, nE4, 0x06, nRst, 0x1E
	.byte	nRst, 0x60, nRst, nRst, nRst, nRst, nRst, nRst, nRst, nRst, 0x0C
	if 1=1
	/*  This is an error; it uses data from Balloon Park song as if it were a */
	/*  voice. Any voice in the bank is better than this. */
	smpsSetvoice        0x2D
	else
	/*  This voice seems slightly better than the others. */
	smpsSetvoice        0x00
	endif
	.byte	nF5, 0x06, nG5, nC6, nG5, nF5, nE5, nC5, 0x05, nRst, 0x2B, nRst
	.byte	0x3C
	smpsSetvoice        0x02
	.byte	nG3, 0x06, nRst, nG3, nRst, nG3, nRst
	smpsJump            Snd_ALZ_Loop06

/*  Unreachable */
	smpsStop

/*  FM5 Data */
Snd_ALZ_FM5:
	.byte	nRst, 0x0E
	smpsSetvoice        0x00
	smpsModSet          0x0D, 0x01, 0x02, 0x06
	.byte	nC4, 0x08, nF4, nG4, nF4, nG4, nC5, nG4, nC5, nD5, nF5, 0x18

Snd_ALZ_Jump00:
	.byte	nRst, 0x60, nRst, nRst, nRst
	smpsSetvoice        0x04
	.byte	nRst, 0x18, nG5, 0x30, nC5, 0x06, nRst, 0x12, nRst, 0x54, nG5, 0x06
	.byte	nRst, nG5, 0x12, nC5, 0x06, nRst, 0x0C, nG4, 0x06, nRst, nG4, 0x12
	.byte	nC4, 0x06, nRst, 0x18
	smpsSetvoice        0x03
	.byte	nRst, 0x30, nRst, 0x06, nC4, nE4, nG4, nE4, nG4, nC5, nE5, nF5
	.byte	0x0C, nE5, nD5, nC5, 0x06, nRst, 0x12, nG5, 0x18, nE5, 0x0C, nF5
	.byte	nE5, nD5, nE5, 0x08, nRst, 0x0A, nC4, 0x06, nE4, nG4, nE4, nG4
	.byte	nC5, nE5, nF5, 0x0C, nE5, nD5, nC5, 0x06, nRst, 0x12, nG5, 0x18
	.byte	nE5, 0x0C, nF5, nE5, nD5, nC5, 0x08, nRst, 0x0A, nC6, 0x06, nG5
	.byte	nE5, nG5, nE5, nC5, nG4
	smpsSetvoice        0x00
	.byte	nRst, 0x18, nG4, 0x06, nRst, 0x1E, nF4, 0x06, nRst, 0x1E, nC5, 0x06
	.byte	nRst, 0x1E, nG4, 0x06, nRst, 0x1E, nE5, 0x06, nRst, 0x12, nRst, 0x0C
	.byte	nC5, 0x06, nRst, 0x1E, nG5, 0x06, nRst, 0x2A, nRst, 0x36
	smpsSetvoice        0x03
	.byte	nC4, 0x06, nE4, nG4, nE4, nG4, nC5, nE5, nF5, 0x0C, nE5, nD5
	.byte	nC5, 0x06, nRst, 0x12, nG5, 0x18, nE5, 0x0C, nF5, nE5, nD5, nE5
	.byte	0x08, nRst, 0x0A, nC4, 0x06, nE4, nG4, nE4, nG4, nC5, nE5, nF5
	.byte	0x0C, nE5, nD5, nC5, 0x06, nRst, 0x12, nG5, 0x18, nE5, 0x0C, nF5
	.byte	nE5, nD5, nC5, 0x08, nRst, 0x0A, nC6, 0x06, nG5, nE5, nG5, nE5
	.byte	nC5, nG4
	smpsSetvoice        0x00
	.byte	nRst, 0x18, nG4, 0x06, nRst, 0x1E, nF4, 0x06, nRst, 0x1E, nC5, 0x06
	.byte	nRst, 0x1E, nG4, 0x06, nRst, 0x1E, nE5, 0x06, nRst, 0x12, nRst, 0x0C
	.byte	nC5, 0x06, nRst, 0x1E, nG5, 0x06, nRst, 0x12, nD5, 0x06, nRst, nE5
	.byte	nRst, nG3, 0x0C, nG3, 0x06, nRst, nBb3, nRst, 0x12, nD4, 0x0C, nC4
	.byte	0x06, nRst, 0x12
	smpsSetvoice        0x04
	smpsFMAlterVol      0x03
	.byte	nE5, 0x18, nD5, 0x06, nRst, nE5, nRst, nD5, nRst, nE5, nRst, nD5
	.byte	nE5, nRst, 0x0C, nF5, 0x18, nE5, 0x06, nRst, nF5, nRst, nE5, nRst
	.byte	nF5, nRst, nE5, nF5, nRst, 0x0C, nG5, 0x18, nF5, 0x06, nRst, nG5
	.byte	nRst, nF5, nRst, nG5, nRst, nF5, nE5, nRst, 0x0C, nA4, 0x1E, nRst
	.byte	0x06, nB4, nRst, nB4, nRst, nB4, 0x0C, nG4, 0x06, nRst, nG4, nRst
	.byte	nE5, 0x18, nD5, 0x06, nRst, nE5, nRst, nD5, nRst, nE5, nRst, nD5
	.byte	nE5, nRst, 0x0C, nF5, 0x18, nE5, 0x06, nRst, nF5, nRst, nE5, nRst
	.byte	nF5, nRst, nE5, nF5, nRst, 0x0C, nG5, 0x18, nF5, 0x06, nRst, nG5
	.byte	nRst, nF5, nRst, nG5, nRst, nF5, nE5, nRst, 0x0C, nA4, 0x1E, nRst
	.byte	0x06, nBb4, nRst, nBb4, nRst, nB4, 0x0C, nRst, nC5, 0x06, nRst, nF5
	.byte	0x3C, nE5, 0x0C, nC5, nA4, nE5, 0x06, nRst, nRst, 0x0C, nD5, 0x08
	.byte	nRst, 0x28, nC5, 0x06, nRst, nC5, nRst, nC5, nRst
	smpsFMAlterVol      0xFD
	smpsJump            Snd_ALZ_Jump00

/*  Unreachable */
	smpsStop

/*  DAC Data */
Snd_ALZ_DAC:
	.byte	dSnareS3, 0x18, dKickS3, dKickS3, dSnareS3, 0x06, dSnareS3, dSnareS3, dSnareS3

Snd_ALZ_Loop00:
	.byte	dKickS3, 0x18, dSnareS3, 0x12, dKickS3, dKickS3, 0x0C, dSnareS3, dKickS3
	smpsLoop            0x00, 0x03, Snd_ALZ_Loop00
	.byte	dKickS3, 0x18, dSnareS3, 0x12, dKickS3, dKickS3, 0x0C, dSnareS3, 0x06, dKickS3, dSnareS3, dSnareS3
	.byte	dKickS3, 0x0C, dKickS3, 0x06, dKickS3, dSnareS3, 0x12, dKickS3, dKickS3, 0x0C, dSnareS3, dKickS3

Snd_ALZ_Loop01:
	.byte	dKickS3, 0x18, dSnareS3, 0x12, dKickS3, dKickS3, 0x0C, dSnareS3, dKickS3
	smpsLoop            0x00, 0x02, Snd_ALZ_Loop01
	.byte	dKickS3, 0x18, dSnareS3, 0x12, dKickS3, 0x0C, dSnareS3, 0x06, dKickS3, 0x0C, dSnareS3, dKickS3

Snd_ALZ_Loop02:
	.byte	dKickS3, 0x18, dSnareS3, 0x12, dKickS3, dKickS3, 0x0C, dSnareS3, dKickS3
	smpsLoop            0x00, 0x03, Snd_ALZ_Loop02
	.byte	dKickS3, 0x18, dSnareS3, 0x12, dKickS3, dSnareS3, 0x0C, dSnareS3, dSnareS3, 0x06, dSnareS3

Snd_ALZ_Loop03:
	.byte	dKickS3, 0x18, dSnareS3, 0x12, dKickS3, dKickS3, 0x0C, dSnareS3, dKickS3
	smpsLoop            0x00, 0x02, Snd_ALZ_Loop03
	.byte	dKickS3, 0x18, dSnareS3, 0x12, dKickS3, dKickS3, 0x0C, dSnareS3, 0x06, dSnareS3, dSnareS3, 0x0C
	.byte	dKickS3, dSnareS3, dSnareS3, dSnareS3, 0x06, dSnareS3, dKickS3, dSnareS3, 0x0C, dSnareS3, 0x06, dSnareS3
	.byte	dSnareS3, dKickS3, dSnareS3

Snd_ALZ_Loop04:
	.byte	dKickS3, 0x18, dSnareS3, 0x12, dKickS3, dKickS3, 0x0C, dSnareS3, dKickS3
	smpsLoop            0x00, 0x03, Snd_ALZ_Loop04
	.byte	dKickS3, 0x18, dSnareS3, 0x12, dKickS3, dSnareS3, 0x0C, dSnareS3, dSnareS3, 0x06, dSnareS3

Snd_ALZ_Loop05:
	.byte	dKickS3, 0x18, dSnareS3, 0x12, dKickS3, dKickS3, 0x0C, dSnareS3, dKickS3
	smpsLoop            0x00, 0x02, Snd_ALZ_Loop05
	.byte	dKickS3, 0x18, dSnareS3, 0x12, dKickS3, dKickS3, 0x0C, dSnareS3, 0x06, dSnareS3, dSnareS3, 0x0C
	.byte	dKickS3, dSnareS3, 0x06, dSnareS3, dSnareS3, 0x18, dSnareS3, 0x0C, dSnareS3, 0x06, dSnareS3, dSnareS3
	.byte	dSnareS3, dSnareS3, dSnareS3, dKickS3, 0x0C, dKickS3, dSnareS3, 0x18, dKickS3, 0x0C, dKickS3, dSnareS3
	.byte	dKickS3, dKickS3, dKickS3, dSnareS3, 0x18, dKickS3, 0x0C, dKickS3, dSnareS3, dKickS3, dKickS3, dKickS3
	.byte	dSnareS3, dKickS3, dSnareS3, dKickS3, dSnareS3, dKickS3, dKickS3, dKickS3, dSnareS3, 0x18, dKickS3, 0x0C
	.byte	dKickS3, dSnareS3, dSnareS3, dKickS3, dKickS3, dSnareS3, 0x18, dKickS3, 0x0C, dKickS3, dSnareS3, dKickS3
	.byte	dKickS3, dKickS3, dSnareS3, 0x18, dKickS3, 0x0C, dKickS3, dSnareS3, dKickS3, dKickS3, dKickS3, dSnareS3
	.byte	dKickS3, dSnareS3, dKickS3, dSnareS3, dKickS3, dKickS3, dKickS3, dSnareS3, 0x18, dSnareS3, 0x06, dKickS3
	.byte	dKickS3, 0x0C, dSnareS3, 0x06, dSnareS3, dSnareS3, 0x0C, dKickS3, dKickS3, dSnareS3, 0x18, dKickS3
	.byte	0x0C, dKickS3, dSnareS3, dSnareS3, dKickS3, dSnareS3, dSnareS3, dKickS3, dSnareS3, dKickS3, dSnareS3, dSnareS3
	.byte	0x06, dSnareS3
	smpsJump            Snd_ALZ_Loop00

/*  Unreachable */
	smpsStop

/*  PSG1 Data */
Snd_ALZ_PSG1:
	smpsModSet          0x0D, 0x01, 0x02, 0x06
	.byte	nRst, 0x12, nD5, 0x01, nE5, nF5, nG5, nA5, nB5, nC6, 0x30, nF5
	.byte	0x06, nE5, 0x02, nD5, nC5, nB4, 0x01, nA4, nG4, nF4, nE4, nD4
	.byte	nC4, nB3, nA3, nG3, nF3, nE3

Snd_ALZ_Jump02:
	.byte	nRst, 0x3C, nG4, 0x06, nRst, nC5, nRst, nG4, nRst, nD5, nRst, nG4
	.byte	nD5, nRst, nC5, nRst, nE5, nRst, 0x30, nRst, 0x3C, nG4, 0x06, nRst
	.byte	nC5, nRst, nG4, nRst, nD5, nRst, nG4, nD5, nRst, nC5, nRst, nC5
	.byte	nRst, 0x30, nRst, 0x12, nD5, 0x01, nE5, nF5, nG5, nA5, nB5, nC6
	.byte	0x30, nF5, 0x06, nE5, 0x02, nD5, nC5, nB4, 0x01, nA4, nG4, nF4
	.byte	nE4, nD4, nC4, nB3, nA3, nG3, nF3, nE3, nRst, 0x54, nC6, 0x06
	.byte	nRst, nC6, 0x12, nG5, 0x06, nRst, 0x0C, nC5, 0x06, nRst, nC5, 0x12
	.byte	nG4, 0x06, nRst, 0x18, nRst, 0x30, nRst, 0x06, nE4, nG4, nC5, nG4
	.byte	nC5, nE5, nG5, nRst, 0x0C, nC4, 0x06, nRst, 0x12, nC4, 0x06, nRst
	.byte	0x2A, nC4, 0x06, nRst, nC4, nRst, 0x0C, nC4, 0x06, nRst, 0x1E, nE4
	.byte	0x06, nG4, nC5, nG4, nC5, nE5, nG5, nRst, 0x0C, nC4, 0x06, nRst
	.byte	0x12, nC4, 0x06, nRst, 0x2A, nC4, 0x06, nRst, nC4, nRst, 0x0C, nC4
	.byte	0x06, nRst, 0x1E, nC6, 0x06, nG5, nE5, nG5, nE5, nC5, nG4, nRst
	.byte	0x0C, nC4, 0x08, nRst, 0x0A, nC4, 0x06, nRst, 0x0C, nC4, 0x08, nRst
	.byte	0x0A, nC4, 0x08, nRst, 0x0A, nC4, 0x20, nC4, 0x0C, nRst, 0x10, nC4
	.byte	0x06, nC4, 0x08, nRst, 0x04, nC4, 0x08, nRst, 0x0A, nC4, 0x20, nC4
	.byte	0x0C, nRst, 0x10, nC4, 0x06, nC4, 0x08, nRst, 0x04, nC4, 0x08, nRst
	.byte	0x0A, nC4, 0x18, nB3, 0x06, nRst, nC4, 0x08, nRst, 0x16, nE4, 0x06
	.byte	nG4, nC5, nG4, nC5, nE5, nG5, nRst, 0x0C, nC4, 0x06, nRst, 0x12
	.byte	nC4, 0x06, nRst, 0x2A, nC4, 0x06, nRst, nC4, nRst, 0x0C, nC4, 0x06
	.byte	nRst, 0x1E, nE4, 0x06, nG4, nC5, nG4, nC5, nE5, nG5, nRst, 0x0C
	.byte	nC4, 0x06, nRst, 0x12, nC4, 0x06, nRst, 0x2A, nC4, 0x06, nRst, nC4
	.byte	nRst, 0x0C, nC4, 0x06, nRst, 0x1E, nC6, 0x06, nG5, nE5, nG5, nE5
	.byte	nC5, nG4, nRst, 0x0C, nC4, 0x08, nRst, 0x0A, nC4, 0x06, nRst, 0x0C
	.byte	nC4, 0x08, nRst, 0x0A, nC4, 0x08, nRst, 0x0A, nC4, 0x20, nC4, 0x0C
	.byte	nRst, 0x10, nC4, 0x06, nC4, 0x08, nRst, 0x04, nC4, 0x08, nRst, 0x0A
	.byte	nC4, 0x1E, nC4, 0x0C, nRst, 0x12, nC4, 0x06, nC4, nRst, nC4, nRst
	.byte	0x0C, nG3, 0x1E, nRst, 0x06, nBb3, nRst, 0x12, nD4, 0x0C, nC4, 0x06
	.byte	nRst, 0x12, nC5, 0x18, nB4, 0x06, nRst, nC5, nRst, nB4, nRst, nC5
	.byte	nRst, nB4, nC5, nRst, 0x0C, nD5, 0x18, nC5, 0x06, nRst, nD5, nRst
	.byte	nC5, nRst, nD5, nRst, nC5, nD5, nRst, 0x0C, nE5, 0x18, nD5, 0x06
	.byte	nRst, nE5, nRst, nD5, nRst, nE5, nRst, nD5, nC5, nRst, 0x0C, nF4
	.byte	0x1E, nRst, 0x06, nG4, nRst, nG4, nRst, nG4, 0x0C, nE4, 0x06, nRst
	.byte	nD4, nRst, nC5, 0x18, nB4, 0x06, nRst, nC5, nRst, nB4, nRst, nC5
	.byte	nRst, nB4, nC5, nRst, 0x0C, nD5, 0x18, nC5, 0x06, nRst, nD5, nRst
	.byte	nC5, nRst, nD5, nRst, nC5, nD5, nRst, 0x0C, nE5, 0x18, nD5, 0x06
	.byte	nRst, nE5, nRst, nD5, nRst, nE5, nRst, nD5, nC5, nRst, 0x0C, nF4
	.byte	0x1E, nRst, 0x06, nFs4, nRst, nFs4, nRst, nG4, 0x0C, nRst, nA4, 0x06
	.byte	nRst, nA4, 0x3C, nE5, 0x0C, nRst, 0x18, nG4, 0x06, nRst, nRst, 0x0C
	.byte	nG4, 0x08, nRst, 0x28, nG4, 0x06, nRst, nG4, nRst, nG4, nRst
	smpsJump            Snd_ALZ_Jump02

/*  Unreachable */
	smpsStop

/*  PSG2 Data */
Snd_ALZ_PSG2:
	smpsStop

/*  Unreachable */
	smpsStop

/*  PSG3 Data */
Snd_ALZ_PSG3:
	smpsStop

Snd_ALZ_Voices:
/* 	Voice 0x00 */
/* 	0x3C */
/* 	0x44, 0x31, 0x12, 0x61, 	0x1F, 0x1F, 0x1F, 0x1F, 	0x0A, 0x08, 0x0B, 0x01 */
/* 	0x00, 0x0F, 0x00, 0x00, 	0x1F, 0x3F, 0x5F, 0x1F, 	0x21, 0x87, 0x10, 0x88 */
	smpsVcAlgorithm     0x04
	smpsVcFeedback      0x07
	smpsVcUnusedBits    0x00
	smpsVcDetune        0x06, 0x01, 0x03, 0x04
	smpsVcCoarseFreq    0x01, 0x02, 0x01, 0x04
	smpsVcRateScale     0x00, 0x00, 0x00, 0x00
	smpsVcAttackRate    0x1F, 0x1F, 0x1F, 0x1F
	smpsVcAmpMod        0x00, 0x00, 0x00, 0x00
	smpsVcDecayRate1    0x01, 0x0B, 0x08, 0x0A
	smpsVcDecayRate2    0x00, 0x00, 0x0F, 0x00
	smpsVcDecayLevel    0x01, 0x05, 0x03, 0x01
	smpsVcReleaseRate   0x0F, 0x0F, 0x0F, 0x0F
	smpsVcTotalLevel    0x08, 0x10, 0x07, 0x21

/* 	Voice 0x01 */
/* 	0x38 */
/* 	0x75, 0x13, 0x71, 0x11, 	0xDF, 0x5F, 0x1F, 0x1F, 	0x0C, 0x0D, 0x01, 0x01 */
/* 	0x00, 0x00, 0x00, 0x00, 	0xFF, 0xFF, 0xFF, 0xFF, 	0x1E, 0x1E, 0x1E, 0x81 */
	smpsVcAlgorithm     0x00
	smpsVcFeedback      0x07
	smpsVcUnusedBits    0x00
	smpsVcDetune        0x01, 0x07, 0x01, 0x07
	smpsVcCoarseFreq    0x01, 0x01, 0x03, 0x05
	smpsVcRateScale     0x00, 0x00, 0x01, 0x03
	smpsVcAttackRate    0x1F, 0x1F, 0x1F, 0x1F
	smpsVcAmpMod        0x00, 0x00, 0x00, 0x00
	smpsVcDecayRate1    0x01, 0x01, 0x0D, 0x0C
	smpsVcDecayRate2    0x00, 0x00, 0x00, 0x00
	smpsVcDecayLevel    0x0F, 0x0F, 0x0F, 0x0F
	smpsVcReleaseRate   0x0F, 0x0F, 0x0F, 0x0F
	smpsVcTotalLevel    0x01, 0x1E, 0x1E, 0x1E

/* 	Voice 0x02 */
/* 	0x3D */
/* 	0x71, 0x51, 0x41, 0x11, 	0x1F, 0x1F, 0x1F, 0x1F, 	0x01, 0x01, 0x01, 0x01 */
/* 	0x00, 0x00, 0x00, 0x00, 	0xFF, 0xFF, 0xFF, 0xFF, 	0x20, 0x85, 0x85, 0x85 */
	smpsVcAlgorithm     0x05
	smpsVcFeedback      0x07
	smpsVcUnusedBits    0x00
	smpsVcDetune        0x01, 0x04, 0x05, 0x07
	smpsVcCoarseFreq    0x01, 0x01, 0x01, 0x01
	smpsVcRateScale     0x00, 0x00, 0x00, 0x00
	smpsVcAttackRate    0x1F, 0x1F, 0x1F, 0x1F
	smpsVcAmpMod        0x00, 0x00, 0x00, 0x00
	smpsVcDecayRate1    0x01, 0x01, 0x01, 0x01
	smpsVcDecayRate2    0x00, 0x00, 0x00, 0x00
	smpsVcDecayLevel    0x0F, 0x0F, 0x0F, 0x0F
	smpsVcReleaseRate   0x0F, 0x0F, 0x0F, 0x0F
	smpsVcTotalLevel    0x05, 0x05, 0x05, 0x20

/* 	Voice 0x03 */
/* 	0x3D */
/* 	0x51, 0x61, 0x71, 0x21, 	0x1C, 0x18, 0x18, 0x1B, 	0x06, 0x05, 0x04, 0x05 */
/* 	0x06, 0x05, 0x06, 0x06, 	0x6F, 0x8F, 0x5F, 0x7F, 	0x17, 0x80, 0x80, 0x80 */
	smpsVcAlgorithm     0x05
	smpsVcFeedback      0x07
	smpsVcUnusedBits    0x00
	smpsVcDetune        0x02, 0x07, 0x06, 0x05
	smpsVcCoarseFreq    0x01, 0x01, 0x01, 0x01
	smpsVcRateScale     0x00, 0x00, 0x00, 0x00
	smpsVcAttackRate    0x1B, 0x18, 0x18, 0x1C
	smpsVcAmpMod        0x00, 0x00, 0x00, 0x00
	smpsVcDecayRate1    0x05, 0x04, 0x05, 0x06
	smpsVcDecayRate2    0x06, 0x06, 0x05, 0x06
	smpsVcDecayLevel    0x07, 0x05, 0x08, 0x06
	smpsVcReleaseRate   0x0F, 0x0F, 0x0F, 0x0F
	smpsVcTotalLevel    0x00, 0x00, 0x00, 0x17

/* 	Voice 0x04 */
/* 	0x07 */
/* 	0x78, 0x54, 0x42, 0x11, 	0x1F, 0x1F, 0x1F, 0x1F, 	0x01, 0x01, 0x01, 0x01 */
/* 	0x00, 0x00, 0x00, 0x00, 	0xFF, 0xFF, 0xFF, 0xFF, 	0x8A, 0x84, 0x83, 0x84 */
	smpsVcAlgorithm     0x07
	smpsVcFeedback      0x00
	smpsVcUnusedBits    0x00
	smpsVcDetune        0x01, 0x04, 0x05, 0x07
	smpsVcCoarseFreq    0x01, 0x02, 0x04, 0x08
	smpsVcRateScale     0x00, 0x00, 0x00, 0x00
	smpsVcAttackRate    0x1F, 0x1F, 0x1F, 0x1F
	smpsVcAmpMod        0x00, 0x00, 0x00, 0x00
	smpsVcDecayRate1    0x01, 0x01, 0x01, 0x01
	smpsVcDecayRate2    0x00, 0x00, 0x00, 0x00
	smpsVcDecayLevel    0x0F, 0x0F, 0x0F, 0x0F
	smpsVcReleaseRate   0x0F, 0x0F, 0x0F, 0x0F
	smpsVcTotalLevel    0x04, 0x03, 0x04, 0x0A

