Snd_BPZ_Header:
	smpsHeaderStartSong 3
	smpsHeaderVoice     Snd_BPZ_Voices
	smpsHeaderChan      0x06, 0x03
	smpsHeaderTempo     0x01, 0x08

	smpsHeaderDAC       Snd_BPZ_DAC
	smpsHeaderFM        Snd_BPZ_FM1,	0xF4, 0x0B
	smpsHeaderFM        Snd_BPZ_FM2,	0x00, 0x09
	smpsHeaderFM        Snd_BPZ_FM3,	0xF4, 0x0B
	smpsHeaderFM        Snd_BPZ_FM4,	0x00, 0x0B
	smpsHeaderFM        Snd_BPZ_FM5,	0x00, 0x0B
	smpsHeaderPSG       Snd_BPZ_PSG1,	0xF4, 0x03, 0x00, 0x00
	smpsHeaderPSG       Snd_BPZ_PSG2,	0xF4, 0x03, 0x00, 0x00
	smpsHeaderPSG       Snd_BPZ_PSG3,	0x00, 0x00, 0x00, 0x00

/*  FM1 Data */
Snd_BPZ_FM1:
	.byte	nRst, 0x30

Snd_BPZ_Jump04:
	smpsSetvoice        0x00
	smpsCall            Snd_BPZ_Call01
	smpsModSet          0x18, 0x01, 0xFE, 0xFF
	.byte	nE5, 0x30, smpsNoAttack, 0x0C
	smpsModOff
	smpsSetvoice        0x05
	smpsCall            Snd_BPZ_Call01
	smpsModSet          0x0C, 0x01, 0xFF, 0x30
	.byte	nE5, 0x30, smpsNoAttack, 0x0C
	smpsModOff
	smpsSetvoice        0x01
	smpsAlterPitch      0x0C
	smpsCall            Snd_BPZ_Call02
	smpsSetvoice        0x00
	smpsAlterPitch      0xF4
	.byte	nAb5, 0x06, nA5, nRst, nAb5, nRst, nFs5, nRst, nE5, nFs5, 0x18, nAb5
	.byte	nEb5, 0x06, nE5, nRst, nEb5, nRst, nB4, nCs5, nB4, 0x30, smpsNoAttack, 0x06
	.byte	nAb5, nA5, nRst, nAb5, nRst, nFs5, nRst, nE5, nFs5, 0x18, nAb5, nE5
	.byte	0x06, nFs5, nRst, nAb5, nRst, nB5, nCs6, nB5, 0x30, smpsNoAttack, 0x06, nAb5
	.byte	nA5, nRst, nAb5, nRst, nFs5, nRst, nE5, nFs5, 0x18, nAb5, nEb5, 0x06
	.byte	nE5, nRst, nEb5, nRst, nB4, nCs5, nB4, 0x30, smpsNoAttack, 0x06, nRst, 0x0C
	.byte	nB4, 0x06, nRst, nE5, 0x18, nEb5, nE5, nFs5, 0x0C, nB4, nD5, nEb5
	.byte	nFs5, nB5, 0x24
	smpsJump            Snd_BPZ_Jump04

Snd_BPZ_Call01:
	smpsPan             panCenter, 0x00
	.byte	nRst, 0x0C, nE4, 0x04, nRst, 0x02, nG4, 0x04, nRst, 0x02, nAb4, 0x0C
	.byte	nB4, 0x06, nRst, nD5, 0x12, nCs5, nB4, 0x03, nRst, 0x09, nA4, 0x12
	.byte	nAb4, nE4, 0x04, nRst, 0x08, nE4, 0x04, nRst, 0x08, nEb4, 0x04, nRst
	.byte	0x08, nE4, 0x06, nFs4, nAb4, 0x0C, nRst, nE4, 0x04, nRst, 0x02, nG4
	.byte	0x04, nRst, 0x02, nAb4, 0x0C, nB4, nD5, 0x12, nCs5, nB4, 0x04, nRst
	.byte	0x08, nA4, 0x12, nAb4, nA4, 0x04, nRst, 0x08, nB4, 0x04, nRst, 0x08
	.byte	nCs5, 0x04, nRst, 0x08, nD5, 0x0C, nE5, 0x06, nRst
	smpsFMAlterVol      0xFF
	.byte	nA4, nAb4, nA4, nAb4, nA4, nAb4, nA4, nAb4
	smpsFMAlterVol      0xFF
	.byte	nA4, 0x0C, nAb4, 0x06, nA4, 0x0C, nAb4, 0x06, nA4, 0x0C
	smpsFMAlterVol      0xFF
	.byte	nB4, 0x06, nBb4, nB4, nBb4, nB4, nBb4, nB4, nBb4
	smpsFMAlterVol      0xFF
	.byte	nB4, nRst, nC5, nRst, nCs5, nRst, nD5, nRst
	smpsFMAlterVol      0x04
	.byte	nRst, 0x0C, nE4, 0x04, nRst, 0x02, nG4, 0x04, nRst, 0x02, nAb4, 0x0C
	.byte	nB4, nD5, 0x12, nCs5, nA4, 0x0C, nAb4, 0x0F, nFs5, 0x03, nAb5, 0x12
	smpsReturn

Snd_BPZ_Call02:
	.byte	nCs5, 0x30, smpsNoAttack, 0x30, nEb5, smpsNoAttack, 0x30, 0x30, smpsNoAttack, 0x30, nE5, nE5
	.byte	nE5, smpsNoAttack, 0x30, nFs5, smpsNoAttack, 0x30, nE5, nFs5, nFs5, smpsNoAttack, 0x30
	smpsReturn

/*  FM2 Data */
Snd_BPZ_FM2:
	smpsSetvoice        0x02
	.byte	nRst, 0x30

Snd_BPZ_Loop04:
	.byte	nE2, 0x04, nRst, 0x08, nB2, 0x04, nRst, 0x08, nE3, 0x0C, nB2, 0x04
	.byte	nRst, 0x02, nD3, 0x04, nRst, 0x08, nD3, 0x06, nCs3, 0x0C, nB2, nA2
	.byte	nE2, 0x04, nRst, 0x08, nE2, 0x04, nRst, 0x08, nB2, 0x0C, nCs3, 0x06
	.byte	nD3, nRst, nD3, nRst, nCs3, 0x0C, nB2, 0x06, nA2, 0x0C
	smpsLoop            0x00, 0x02, Snd_BPZ_Loop04
	.byte	nA2, 0x04, nRst, 0x08, nA2, 0x08, nRst, 0x04, nA2, 0x04, nRst, 0x08
	.byte	nA2, 0x08, nRst, 0x04, nA2, 0x04, nRst, 0x08, nA2, 0x08, nRst, 0x04
	.byte	nA2, 0x04, nRst, 0x08, nA2, 0x08, nRst, 0x04, nB2, 0x04, nRst, 0x08
	.byte	nB2, 0x08, nRst, 0x04, nB2, 0x04, nRst, 0x08, nB2, 0x08, nRst, 0x04
	.byte	nB2, 0x04, nRst, 0x08, nB2, 0x08, nRst, 0x04, nB2, 0x04, nRst, 0x08
	.byte	nB2, 0x08, nRst, 0x04, nE2, 0x04, nRst, 0x08, nB2, 0x08, nRst, 0x04
	.byte	nE3, 0x0C, nB2, 0x04, nRst, 0x02, nD3, 0x04, nRst, 0x08, nD3, 0x06
	.byte	nCs3, 0x0C, nB2, nA2, nE2, 0x04, nRst, 0x08, nE2, 0x08, nRst, 0x04
	.byte	nB2, 0x0C, nCs3, 0x06, nD3, nRst, nD3, nRst, nCs3, 0x0C, nB2, 0x06
	.byte	nA2, 0x0C

Snd_BPZ_Loop05:
	.byte	nE2, 0x04, nRst, 0x08, nB2, 0x04, nRst, 0x08, nE3, 0x0C, nB2, 0x04
	.byte	nRst, 0x02, nD3, 0x04, nRst, 0x08, nD3, 0x06, nCs3, 0x0C, nB2, nA2
	.byte	nE2, 0x04, nRst, 0x08, nE2, 0x04, nRst, 0x08, nB2, 0x0C, nCs3, 0x06
	.byte	nD3, nRst, nD3, nRst, nCs3, 0x0C, nB2, 0x06, nA2, 0x0C
	smpsLoop            0x00, 0x02, Snd_BPZ_Loop05
	.byte	nA2, 0x04, nRst, 0x08, nA2, 0x04, nRst, 0x08, nA2, 0x04, nRst, 0x08
	.byte	nA2, 0x04, nRst, 0x08, nA2, 0x04, nRst, 0x08, nA2, 0x04, nRst, 0x08
	.byte	nA2, 0x04, nRst, 0x08, nA2, 0x04, nRst, 0x08, nB2, 0x04, nRst, 0x08
	.byte	nB2, 0x04, nRst, 0x08, nB2, 0x04, nRst, 0x08, nB2, 0x04, nRst, 0x08
	.byte	nB2, 0x04, nRst, 0x08, nB2, 0x04, nRst, 0x08, nB2, 0x04, nRst, 0x08
	.byte	nB2, 0x04, nRst, 0x08, nE2, 0x04, nRst, 0x08, nB2, 0x04, nRst, 0x08
	.byte	nE3, 0x0C, nB2, 0x04, nRst, 0x02, nD3, 0x04, nRst, 0x08, nD3, 0x06
	.byte	nCs3, 0x0C, nB2, nA2, nE2, 0x04, nRst, 0x08, nE2, 0x04, nRst, 0x08
	.byte	nB2, 0x0C, nCs3, 0x06, nD3, nRst, nD3, nRst, nCs3, 0x0C, nB2, 0x06
	.byte	nA2, 0x0C, nA2, 0x04, nRst, 0x08, nA2, 0x08, nRst, 0x04, nA2, 0x04
	.byte	nRst, 0x08, nA2, 0x08, nRst, 0x04, nA2, 0x04, nRst, 0x08, nA2, 0x08
	.byte	nRst, 0x04, nA2, 0x04, nRst, 0x08, nA2, 0x08, nRst, 0x04, nA2, 0x04
	.byte	nRst, 0x08, nA2, 0x08, nRst, 0x04, nA2, 0x04, nRst, 0x08, nA2, 0x08
	.byte	nRst, 0x04, nA2, 0x04, nRst, 0x08, nB2, 0x08, nRst, 0x04, nA2, 0x04
	.byte	nRst, 0x08, nFs2, 0x08, nRst, 0x04, nAb2, 0x04, nRst, 0x08, nAb2, 0x08
	.byte	nRst, 0x04, nAb2, 0x04, nRst, 0x08, nAb2, 0x08, nRst, 0x04, nAb2, 0x04
	.byte	nRst, 0x08, nE2, 0x08, nRst, 0x04, nAb2, 0x04, nRst, 0x08, nB2, 0x08
	.byte	nRst, 0x04, nCs3, 0x04, nRst, 0x08, nAb2, 0x08, nRst, 0x04, nCs3, 0x04
	.byte	nRst, 0x08, nEb3, 0x08, nRst, 0x04, nB2, 0x04, nRst, 0x08, nEb3, 0x08
	.byte	nRst, 0x04, nFs3, 0x04, nRst, 0x08, nEb3, 0x0C, nA2, 0x04, nRst, 0x08
	.byte	nA2, 0x08, nRst, 0x04, nA2, 0x04, nRst, 0x08, nA2, 0x08, nRst, 0x04
	.byte	nA2, 0x04, nRst, 0x08, nFs2, 0x08, nRst, 0x04, nA2, 0x04, nRst, 0x08
	.byte	nCs3, 0x08, nRst, 0x04, nB2, 0x04, nRst, 0x08, nB2, 0x08, nRst, 0x04
	.byte	nB2, 0x04, nRst, 0x08, nB2, 0x08, nRst, 0x04, nB2, 0x04, nRst, 0x08
	.byte	nEb3, 0x08, nRst, 0x04, nCs3, 0x04, nRst, 0x08, nB2, 0x08, nRst, 0x04
	.byte	nCs3, 0x04, nRst, 0x08, nAb2, 0x08, nRst, 0x04, nCs3, 0x04, nRst, 0x08
	.byte	nEb3, 0x08, nRst, 0x04, nD3, 0x04, nRst, 0x08, nFs3, 0x08, nRst, 0x04
	.byte	nA3, 0x04, nRst, 0x08, nD3, 0x08, nRst, 0x04, nEb3, 0x04, nRst, 0x08
	.byte	nEb3, 0x08, nRst, 0x04, nFs3, 0x04, nRst, 0x08, nEb3, 0x08, nRst, 0x04
	.byte	nB2, 0x04, nRst, 0x08, nB2, 0x08, nRst, 0x04, nEb3, 0x04, nRst, 0x08
	.byte	nB2, 0x08, nRst, 0x04

Snd_BPZ_Loop06:
	.byte	nE2, 0x04, nRst, 0x08, nE2, 0x08, nRst, 0x04, nE2, 0x04, nRst, 0x08
	.byte	nE2, 0x08, nRst, 0x04, nA2, 0x04, nRst, 0x08, nA2, 0x08, nRst, 0x04
	.byte	nB2, 0x04, nRst, 0x08, nB2, 0x08, nRst, 0x04
	smpsLoop            0x00, 0x04, Snd_BPZ_Loop06

Snd_BPZ_Loop07:
	.byte	nE2, 0x04, nRst, 0x08, nE2, 0x08, nRst, 0x04, nE2, 0x04, nRst, 0x08
	.byte	nE2, 0x08, nRst, 0x04, nA2, 0x04, nRst, 0x08, nA2, 0x08, nRst, 0x04
	.byte	nB2, 0x04, nRst, 0x08, nB2, 0x08, nRst, 0x04
	smpsLoop            0x00, 0x02, Snd_BPZ_Loop07
	.byte	nA2, 0x04, nRst, 0x08, nA2, 0x08, nRst, 0x04, nA2, 0x04, nRst, 0x08
	.byte	nA2, 0x08, nRst, 0x04, nA2, 0x04, nRst, 0x08, nA2, 0x08, nRst, 0x04
	.byte	nA2, 0x04, nRst, 0x08, nA2, 0x08, nRst, 0x04

Snd_BPZ_Loop08:
	.byte	nB2, 0x04, nRst, 0x08
	smpsLoop            0x00, 0x08, Snd_BPZ_Loop08
	smpsJump            Snd_BPZ_Loop04

/*  FM3 Data */
Snd_BPZ_FM3:
	.byte	nRst, 0x30

Snd_BPZ_Jump03:
	smpsPan             panCenter, 0x00
	.byte	nRst, 0x30, nRst
	smpsAlterPitch      0x0C
	smpsSetvoice        0x03
	.byte	nRst, 0x18, nRst, nAb5, 0x24, nB4, 0x0C, smpsNoAttack, 0x30, smpsNoAttack, 0x30, nRst
	.byte	nRst, nRst, nRst, nRst, nRst, nRst, nRst, nRst, 0x18, nA5, 0x30, nE5
	.byte	0x18
	smpsAlterPitch      0xF4
	smpsSetvoice        0x05
	.byte	nRst, 0x0C, nAb4, 0x04, nRst, 0x02, nB4, 0x04, nRst, 0x02, nE5, 0x0C
	.byte	nFs5, 0x06, nRst, nAb5, 0x12, nFs5, nE5, 0x04, nRst, 0x08, nCs5, 0x12
	.byte	nB4, nAb4, 0x04, nRst, 0x08, nAb4, 0x04, nRst, 0x08, nFs4, 0x04, nRst
	.byte	0x08, nAb4, 0x06, nA4, nB4, 0x0C, nRst, nAb4, 0x04, nRst, 0x02, nB4
	.byte	0x04, nRst, 0x02, nE5, 0x0C, nFs5, 0x06, nRst, nAb5, 0x12, nFs5, nE5
	.byte	0x04, nRst, 0x08, nCs5, 0x12, nB4, nCs5, 0x04, nRst, 0x08, nEb5, 0x04
	.byte	nRst, 0x08, nE5, 0x04, nRst, 0x08, nFs5, 0x0C, nA5, nD5, 0x06, nCs5
	.byte	nD5, nCs5, nD5, nCs5, nD5, nCs5, nD5, 0x0C, nCs5, 0x06, nD5, 0x0C
	.byte	nCs5, 0x06, nD5, 0x0C, nEb5, 0x06, nD5, nEb5, nD5, nEb5, nD5, nEb5
	.byte	nD5, nG5, nRst, nFs5, nRst, nF5, nRst, nE5, nRst, nRst, 0x0C, nAb4
	.byte	0x04, nRst, 0x02, nB4, 0x04, nRst, 0x02, nE5, 0x0C, nFs5, 0x06, nRst
	.byte	nAb5, 0x12, nFs5, nE5, 0x04, nRst, 0x08
	smpsModSet          0x0C, 0x01, 0xFF, 0x30
	.byte	nB4, 0x0F, nA5, 0x03, nB5, 0x12
	smpsModSet          0x0C, 0x01, 0xFF, 0x30
	.byte	nAb5, 0x30, smpsNoAttack, 0x0C
	smpsModOff
	smpsSetvoice        0x03
	smpsFMAlterVol      0xFA
	.byte	nA4, 0x24, nB4, 0x18, nCs5, 0x0C, nE5, 0x18, nEb5, 0x24, nB4, 0x30
	.byte	smpsNoAttack, 0x0C, nAb4, 0x12, nC5, nEb5, 0x0C, nFs5, 0x18, nE5, 0x0C, nCs5
	.byte	smpsNoAttack, 0x30, nRst, nA4, 0x24, 0x18, nB4, 0x0C, nCs5, 0x18, nEb5, 0x24
	.byte	nB4, 0x18, nCs5, 0x0C, nEb5, 0x18, nE5, 0x0C, nEb5, nE5, nFs5, nA5
	.byte	nAb5, nFs5, nE5
	smpsFMAlterVol      0x06
	smpsSetvoice        0x00
	.byte	0x0C, nAb4, 0x06, nA4, nB4, 0x0C, nCs5, nB4, 0x06, nCs5, nEb5, nE5
	.byte	nFs5, nAb5, nA5, 0x0C
	smpsSetvoice        0x04
	smpsAlterPitch      0x0C
	.byte	nE3, 0x06, nE4, nE5, nE4, nE5, nE3, nE4, nEb5, nE5, nE3, nE4
	.byte	nE5, nE3, nE4, nEb5, nE5, nE3, nE4, nE5, nE4, nE5, nE3, nEb5
	.byte	nE4, nE5, nEb5, nE4, nE5, nE3, nE4, nEb5, nE5, nE3, nE4, nE5
	.byte	nE4, nE5, nE3, nE4, nEb5, nE5, nE3, nE4, nE5, nE3, nE4, nEb5
	.byte	nE5, nE3, nE4, nE5, nE4, nE5, nE3, nEb5, nE4, nE5, nEb5, nE4
	.byte	nE5, nE3, nE4, nEb5, nE5, nE3, nE4, nE5, nE4, nE5, nE3, nE4
	.byte	nEb5, nE5, nE3, nE4, nE5, nE3, nE4, nEb5, nE5, nE3, nE4, nE5
	.byte	nE4, nE5, nE3, nEb5, nE4, nE5, nEb5, nE4, nE5, nE3, nE4, nEb5
	.byte	nE5, nA3, nA3, nFs5, nA3, nE5, nA3, nA3, nE5, nAb5, nA3, nA3
	.byte	nCs5, nA3, nA3, nCs5, nE5, nB3, nB3, nFs5, nB3, nEb5, nB3, nE5
	.byte	nB3, nEb5, nE5, nB3, nFs5, nB3, nB3, nB4, nEb5
	smpsAlterPitch      0xF4
	smpsJump            Snd_BPZ_Jump03

/*  FM4 Data */
Snd_BPZ_FM4:
	.byte	nRst, 0x30

Snd_BPZ_Jump02:
	.byte	nRst, 0x0C
	smpsSetvoice        0x04
	smpsPan             panLeft, 0x00
	.byte	nE5, 0x06, nRst, 0x0C, nD5, 0x06, nRst, nB4, nD5, nE5, nRst, nD5
	.byte	nRst, nB4, nD5, nE5, nRst, 0x0C, nE5, 0x06, nRst, 0x0C, nD5, 0x06
	.byte	nRst, nB4, nD5, nE5, nRst, nD5, nRst, nB4, nRst, nD5, nRst, 0x0C
	.byte	nE5, 0x06, nRst, 0x0C, nD5, 0x06, nRst, nB4, nD5, nE5, nRst, nD5
	.byte	nRst, nB4, nD5, nE5, nRst, 0x0C, nE5, 0x06, nRst, 0x0C, nD5, 0x06
	.byte	nRst, nB4, nD5, nE5, nRst, nD5, nRst, nB4, nRst, nD5
	smpsSetvoice        0x01
	smpsPan             panCenter, 0x00
	.byte	nA5, 0x30, smpsNoAttack, 0x18, nCs6, nFs5, 0x30, nB5, 0x2D, nRst, 0x03
	smpsSetvoice        0x04
	smpsPan             panLeft, 0x00
	.byte	nRst, 0x0C, nE5, 0x06, nRst, 0x0C, nD5, 0x06, nRst, nB4, nD5, nE5
	.byte	nRst, nD5, nRst, nB4, nD5, nE5, nRst, 0x0C, nE5, 0x06, nRst, 0x0C
	.byte	nD5, 0x06, nRst, nB4, nD5, nE5, nRst, nD5, nRst, nB4, nRst, nD5
	.byte	nRst, 0x0C, nE5, 0x06, nRst, 0x0C, nD5, 0x06, nRst, nB4, nD5, nE5
	.byte	nRst, nD5, nRst, nB4, nD5, nE5, nRst, 0x0C, nE5, 0x06, nRst, 0x0C
	.byte	nD5, 0x06, nRst, nB4, nD5, nE5, nRst, nD5, nRst, nB4, nRst, nD5
	.byte	nRst, 0x0C, nE5, 0x06, nRst, 0x0C, nD5, 0x06, nRst, nB4, nD5, nE5
	.byte	nRst, nD5, nRst, nB4, nD5, nE5, nRst, 0x0C, nE5, 0x06, nRst, 0x0C
	.byte	nD5, 0x06, nRst, nB4, nD5, nE5, nRst, nD5, nRst, nB4, nRst, nD5
	smpsSetvoice        0x01
	smpsPan             panCenter, 0x00
	.byte	nA5, 0x30, smpsNoAttack, 0x18, nCs6, nFs5, 0x30, nB5
	smpsSetvoice        0x04
	smpsPan             panLeft, 0x00
	.byte	nRst, 0x0C, nE5, 0x06, nRst, 0x0C, nD5, 0x06, nRst, nB4, nD5, nE5
	.byte	nRst, nD5, nRst, nB4, nD5, nE5, nRst, 0x0C, nE5, 0x06, nRst, 0x0C
	.byte	nD5, 0x06, nRst, nB4, nD5, nE5, nRst, nD5, nRst, nB4, nRst, nD5
	smpsPan             panCenter, 0x00
	.byte	nA5, nA4, nAb5, nA4, nFs5, nA4, nE5, nA4, nA5, nA4, nAb5, nA4
	.byte	nE5, nA4, nFs5, nA4, nA5, nA4, nAb5, nA4, nFs5, nA4, nE5, nA4
	.byte	nA5, nA4, nAb5, nA4, nE5, nA4, nFs5, nA4, nA5, nC5, nAb5, nC5
	.byte	nFs5, nC5, nE5, nC5, nA5, nC5, nAb5, nC5, nFs5, nC5, nE5, nC5
	.byte	nA5, nAb5, nFs5, nE5, nFs5, nE5, nEb5, nCs5, nE5, nEb5, nCs5, nB4
	.byte	nCs5, nB4, nA4, nAb4, nA5, nA4, nAb5, nA4, nFs5, nA4, nE5, nA4
	.byte	nA5, nA4, nAb5, nA4, nFs5, nA4, nE5, nA4, nA5, nB4, nAb5, nB4
	.byte	nFs5, nB4, nE5, nB4, nA5, nB4, nAb5, nB4, nFs5, nB4, nE5, nB4
	.byte	nAb5, nCs5, nEb5, nE5, nFs5, nAb5, nA5, nFs5, nA5, nD5, nE5, nFs5
	.byte	nA5, nFs5, nA5, nFs5
	smpsSetvoice        0x03
	.byte	nB5, 0x12, nFs5, nEb5, 0x0C, nB4, 0x30
	smpsSetvoice        0x04
	smpsPan             panLeft, 0x00
	.byte	nRst, 0x0C, nA5, 0x06, nRst, nAb5, nRst, 0x0C, nFs5, 0x06, nAb5, nRst
	.byte	0x0C, nAb5, 0x06, nRst, 0x0C, nFs5, 0x06, nAb5, nRst, 0x0C, nA5, 0x06
	.byte	nRst, nAb5, nRst, nFs5, nRst, nAb5, nFs5, nRst, nAb5, nRst, 0x0C, nFs5
	.byte	0x06, nAb5, nRst, 0x0C, nA5, 0x06, nRst, nAb5, nRst, 0x0C, nFs5, 0x06
	.byte	nAb5, nRst, 0x0C, nAb5, 0x06, nRst, 0x0C, nFs5, 0x06, nAb5, nRst, 0x0C
	.byte	nA5, 0x06, nRst, nAb5, nRst, nFs5, nRst, nAb5, nFs5, nRst, nAb5, nRst
	.byte	0x0C, nFs5, 0x06, nAb5, nRst, 0x0C, nA5, 0x06, nRst, nAb5, nRst, 0x0C
	.byte	nFs5, 0x06, nAb5, nRst, 0x0C, nAb5, 0x06, nRst, 0x0C, nFs5, 0x06, nAb5
	.byte	nRst, 0x0C, nA5, 0x06, nRst, nAb5, nRst, nFs5, nRst, nAb5, nFs5, nRst
	.byte	nAb5, nRst, 0x0C, nFs5, 0x06, nAb5, nRst, 0x0C, nA5, 0x06, nRst, nA5
	.byte	nRst, 0x0C, nA5, 0x06, nA5, nRst, 0x0C, nE5, 0x06, nRst, 0x0C, nE5
	.byte	0x06, nAb5, nRst, 0x0C, nB5, 0x06, nRst, nFs5, nRst, nAb5, nRst, nFs5
	.byte	nAb5, nRst, nB5, nRst, 0x0C, nEb5, 0x06, nFs5
	smpsJump            Snd_BPZ_Jump02

/*  FM5 Data */
Snd_BPZ_FM5:
	.byte	nRst, 0x30

Snd_BPZ_Jump01:
	smpsPan             panCenter, 0x00
	.byte	nRst, 0x30, nRst
	smpsSetvoice        0x03
	.byte	nRst, 0x18, nA5, 0x30, nE5, 0x18, smpsNoAttack, 0x30, nRst, nRst, nRst
	smpsSetvoice        0x01
	.byte	nE5, 0x30, smpsNoAttack, 0x18, nA5, nB4, 0x30, nEb5, 0x2D, nRst, 0x03, nRst
	.byte	0x30, nRst
	smpsSetvoice        0x03
	.byte	nRst, 0x18, nRst, nAb5, 0x24, nB5, 0x0C, smpsNoAttack, 0x30, nRst, nRst, 0x18
	.byte	nA5, nAb5, nE5, 0x0C, nB4, smpsNoAttack, 0x30, nRst, nRst, nRst
	smpsSetvoice        0x01
	smpsPan             panCenter, 0x00
	.byte	nE5, 0x30, smpsNoAttack, 0x18, nA5, nB4, 0x30, nFs5, 0x2D, nRst, 0x03, nRst
	.byte	0x30, nRst, nRst, nRst
	smpsSetvoice        0x01
	smpsCall            Snd_BPZ_Call00
	smpsSetvoice        0x06
	.byte	nE3, 0x30, smpsNoAttack, nE3, nE3, smpsNoAttack, nE3, nE3, smpsNoAttack, nE3, nE3, smpsNoAttack
	.byte	nE3, nE3, smpsNoAttack, nE3, nE3, smpsNoAttack, nE3, nA3, smpsNoAttack, nA3, nB3, smpsNoAttack
	.byte	nB3
	smpsJump            Snd_BPZ_Jump01

Snd_BPZ_Call00:
	.byte	nA4, smpsNoAttack, 0x30, nB4, smpsNoAttack, 0x30, nC5, smpsNoAttack, 0x30, nCs5, nB4, nCs5
	.byte	smpsNoAttack, 0x30, nEb5, smpsNoAttack, 0x30, nCs5, nD5, nEb5, smpsNoAttack, 0x30
	smpsReturn

/*  PSG1 Data */
Snd_BPZ_PSG1:
	.byte	nRst, 0x30

Snd_BPZ_Loop0A:
	smpsPSGvoice        sTone_09
	.byte	nB4, 0x30, smpsNoAttack, nB4, nE4, smpsNoAttack, nE4, nB4, smpsNoAttack, nB4, nE4, smpsNoAttack
	.byte	nE4
	smpsPSGvoice        sTone_03
	smpsPSGAlterVol     0xFE
	.byte	nE4, smpsNoAttack, nE4, 0x18, 0x18, nFs4, 0x30, smpsNoAttack, nEb4
	smpsPSGAlterVol     0x02
	smpsPSGvoice        sTone_09
	.byte	nE4, smpsNoAttack, nE4, nE4, smpsNoAttack, nE4
	smpsLoop            0x00, 0x02, Snd_BPZ_Loop0A
	smpsAlterPitch      0xF4
	smpsCall            Snd_BPZ_Call02
	smpsAlterPitch      0x18
	.byte	nE3, 0x30, smpsNoAttack, nE3, nE3, smpsNoAttack, nE3, nE3, smpsNoAttack, nE3, nE3, smpsNoAttack
	.byte	nE3, nE3, smpsNoAttack, nE3, nE3, smpsNoAttack, nE3, nA3, smpsNoAttack, nA3, nB3, smpsNoAttack
	.byte	nB3
	smpsAlterPitch      0xF4
	smpsJump            Snd_BPZ_Loop0A

/*  Unreachable */
	smpsStop

/*  PSG2 Data */
Snd_BPZ_PSG2:
	.byte	nRst, 0x30

Snd_BPZ_Loop09:
	smpsPSGvoice        sTone_09
	.byte	nFs4, 0x30, smpsNoAttack, nFs4, nA4, smpsNoAttack, nA4, nFs4, smpsNoAttack, nFs4, nA4, smpsNoAttack
	.byte	nA4
	smpsPSGvoice        sTone_03
	smpsPSGAlterVol     0xFE
	.byte	nA4, smpsNoAttack, nA4, 0x18, 0x18, nB4, 0x30, smpsNoAttack, nB4
	smpsPSGAlterVol     0x02
	smpsPSGvoice        sTone_09
	.byte	nFs4, smpsNoAttack, nFs4, nFs4, smpsNoAttack, nFs4
	smpsLoop            0x00, 0x02, Snd_BPZ_Loop09
	smpsCall            Snd_BPZ_Call00
	smpsAlterPitch      0x0C
	.byte	nAb3, 0x30, smpsNoAttack, nAb3, nAb3, smpsNoAttack, nAb3, nAb3, smpsNoAttack, nAb3, nAb3, smpsNoAttack
	.byte	nAb3, nAb3, smpsNoAttack, nAb3, nAb3, smpsNoAttack, nAb3, nCs4, smpsNoAttack, nCs4, nEb4, smpsNoAttack
	.byte	nEb4
	smpsAlterPitch      0xF4
	smpsJump            Snd_BPZ_Loop09

/*  Unreachable */
	smpsStop

/*  PSG3 Data */
Snd_BPZ_PSG3:
	smpsStop

/*  Unreachable */
	smpsPSGform         0xE7
	.byte	nRst, 0x30

Snd_BPZ_Jump05:
	.byte	nRst, 0x30, nRst, nRst, nRst, nRst, nRst, nRst, nRst, nBb4, 0x05, nRst
	.byte	0x13, nBb4, 0x04, nRst, 0x02, nBb4, 0x04, nRst, 0x0E, nBb4, 0x05, nRst
	.byte	0x13, nBb4, 0x06, 0x01, nRst, 0x11, nBb4, 0x07, nRst, 0x11, nBb4, 0x04
	.byte	nRst, 0x02, nBb4, 0x04, nRst, 0x0E, nBb4, 0x07, nRst, 0x11, nBb4, 0x06
	.byte	0x01, nRst, 0x11, nRst, 0x30, nRst, nRst, nRst, nRst, nRst, nRst, nRst
	.byte	nRst, nRst, nRst, nRst, nA4, 0x05, nRst, 0x13, nA4, 0x04, nRst, 0x02
	.byte	nA4, 0x04, nRst, 0x0E, nA4, 0x05, nRst, 0x13, nA4, 0x06, 0x01, nRst
	.byte	0x11, nA4, 0x07, nRst, 0x11, nA4, 0x04, nRst, 0x02, nA4, 0x04, nRst
	.byte	0x0E, nA4, 0x07, nRst, 0x11, nA4, 0x06, 0x01, nRst, 0x11, nRst, 0x30
	.byte	nRst, nRst, nRst, nRst, nRst, nRst, nRst, nRst, nRst, nRst, nRst, nRst
	.byte	nRst, nRst, nRst, nRst, nRst, nRst, nRst, nRst, 0x0C, nA4, 0x06, nA4
	.byte	nRst, 0x0C, nA4, 0x06, nA4, nRst, 0x0C, nA4, 0x06, nA4, nRst, 0x0C
	.byte	nA4, 0x06, nA4, nRst, 0x0C, nA4, 0x06, nA4, nRst, 0x0C, nA4, 0x06
	.byte	nA4, nRst, 0x0C, nA4, 0x06, nA4, nRst, 0x0C, nA4, 0x06, nA4, nRst
	.byte	0x0C, nA4, 0x06, nA4, nRst, 0x0C, nA4, 0x06, nA4, nRst, 0x0C, nA4
	.byte	0x06, nA4, nRst, 0x0C, nA4, 0x06, nA4, nRst, 0x0C, nA4, 0x06, nA4
	.byte	nRst, 0x0C, nA4, 0x06, nA4, nRst, 0x0C, nA4, 0x06, nA4, nRst, 0x0C
	.byte	nA4, 0x06, nA4, nRst, 0x0C, nA4, 0x06, nA4, nRst, 0x0C, nA4, 0x06
	.byte	nA4, nRst, 0x0C, nA4, 0x06, nA4, nRst, 0x0C, nA4, 0x06, nA4, nRst
	.byte	0x0C, nA4, 0x06, nA4, nRst, 0x0C, nA4, 0x06, nA4, nRst, 0x0C, nA4
	.byte	0x06, nA4, nRst, 0x0C, nA4, 0x06, nA4, nRst, 0x0C, nA4, 0x06, nA4
	.byte	nRst, 0x0C, nA4, 0x06, nA4, nRst, 0x0C, nA4, 0x06, nA4, nRst, 0x0C
	.byte	nA4, 0x06, nA4, nRst, 0x0C, nA4, 0x06, nA4, nRst, 0x0C, nA4, 0x06
	.byte	nA4, nRst, 0x0C, nA4, 0x06, nA4, nRst, 0x0C, nA4, 0x06, nA4
	smpsJump            Snd_BPZ_Jump05

/*  DAC Data */
Snd_BPZ_DAC:
	.byte	dSnareS3, 0x06, dSnareS3, dKickS3, 0x0C, dSnareS3, dKickS3

Snd_BPZ_Jump00:
	.byte	dCrashCymbal, 0x0C, nRst, dSnareS3, dKickS3, dKickS3, 0x06, dSnareS3, dKickS3, 0x0C, dSnareS3, dKickS3
	.byte	dKickS3, dKickS3, dSnareS3, dKickS3, dKickS3, 0x06, dSnareS3, dKickS3, 0x0C, dSnareS3, dKickS3, dKickS3
	.byte	nRst, dSnareS3, dKickS3, dKickS3, 0x06, dSnareS3, dKickS3, 0x0C, dSnareS3, dKickS3, dKickS3, dKickS3
	.byte	dSnareS3, dKickS3, dKickS3, 0x06, dSnareS3, dKickS3, 0x0C, dSnareS3, dSnareS3

Snd_BPZ_Loop00:
	.byte	dKickS3, dSnareS3, 0x12, dKickS3, 0x06, dSnareS3, 0x0C, dKickS3, dSnareS3, 0x12, dKickS3, 0x06
	.byte	dSnareS3, 0x0C
	smpsLoop            0x00, 0x02, Snd_BPZ_Loop00
	.byte	dCrashCymbal, nRst, dSnareS3, dKickS3, dKickS3, 0x06, dSnareS3, dKickS3, 0x0C, dSnareS3, dKickS3, dKickS3
	.byte	dKickS3, dSnareS3, dKickS3, dKickS3, 0x06, dSnareS3, dKickS3, 0x0C, dSnareS3, dSnareS3, dCrashCymbal, nRst
	.byte	dSnareS3, dKickS3, dKickS3, 0x06, dSnareS3, dKickS3, 0x0C, dSnareS3, dKickS3, dKickS3, dKickS3, dSnareS3
	.byte	dKickS3, dKickS3, 0x06, dSnareS3, dKickS3, 0x0C, dSnareS3, dKickS3, dKickS3, nRst, dSnareS3, dKickS3
	.byte	dKickS3, 0x06, dSnareS3, dKickS3, 0x0C, dSnareS3, dKickS3, dKickS3, dKickS3, dSnareS3, dKickS3, dKickS3
	.byte	0x06, dSnareS3, dKickS3, 0x0C, dSnareS3, dSnareS3

Snd_BPZ_Loop01:
	.byte	dKickS3, dSnareS3, 0x12, dKickS3, 0x06, dSnareS3, 0x0C, dKickS3, dSnareS3, 0x12, dKickS3, 0x06
	.byte	dSnareS3, 0x0C
	smpsLoop            0x00, 0x02, Snd_BPZ_Loop01
	.byte	dCrashCymbal, nRst, dSnareS3, dKickS3, dKickS3, 0x06, dSnareS3, dKickS3, 0x0C, dSnareS3, dKickS3, dKickS3
	.byte	dKickS3, dSnareS3, dKickS3, dKickS3, 0x06, dSnareS3, dKickS3, 0x0C, dSnareS3, dSnareS3

Snd_BPZ_Loop02:
	.byte	dKickS3, dKickS3, dSnareS3, dKickS3, dKickS3, 0x06, dSnareS3, dKickS3, 0x0C, dSnareS3, dKickS3
	smpsLoop            0x00, 0x03, Snd_BPZ_Loop02
	.byte	dKickS3, dKickS3, dSnareS3, dKickS3, dKickS3, 0x06, dSnareS3, dKickS3, 0x0C, dSnareS3, dSnareS3
	smpsLoop            0x01, 0x02, Snd_BPZ_Loop02

Snd_BPZ_Loop03:
	.byte	dKickS3, dSnareS3, 0x12, dKickS3, 0x06, dSnareS3, 0x0C, dKickS3, dSnareS3, 0x12, dKickS3, 0x06
	.byte	dSnareS3, 0x0C
	smpsLoop            0x00, 0x05, Snd_BPZ_Loop03
	.byte	dKickS3, dSnareS3, 0x12, dKickS3, 0x06, dSnareS3, 0x0C, dKickS3, dSnareS3, dSnareS3, 0x06, dSnareS3
	.byte	dSnareS3, dSnareS3, dKickS3, 0x0C, dSnareS3, 0x12, dKickS3, 0x06, dSnareS3, 0x0C, dKickS3, dSnareS3
	.byte	0x12, dKickS3, 0x06, dSnareS3, 0x0C, dKickS3, dSnareS3, 0x12, dKickS3, 0x06, dSnareS3, 0x0C
	.byte	dKickS3, dSnareS3, dSnareS3, 0x06, dSnareS3, dKickS3, dSnareS3
	smpsJump            Snd_BPZ_Jump00

Snd_BPZ_Voices:
/* 	Voice 0x00 */
/* 	0x02 */
/* 	0x31, 0x26, 0x12, 0x02, 	0x17, 0x17, 0x10, 0x1F, 	0x05, 0x08, 0x02, 0x08 */
/* 	0x00, 0x00, 0x00, 0x00, 	0x9F, 0x0F, 0x0F, 0x1F, 	0x2B, 0x26, 0x16, 0x82 */
	smpsVcAlgorithm     0x02
	smpsVcFeedback      0x00
	smpsVcUnusedBits    0x00
	smpsVcDetune        0x00, 0x01, 0x02, 0x03
	smpsVcCoarseFreq    0x02, 0x02, 0x06, 0x01
	smpsVcRateScale     0x00, 0x00, 0x00, 0x00
	smpsVcAttackRate    0x1F, 0x10, 0x17, 0x17
	smpsVcAmpMod        0x00, 0x00, 0x00, 0x00
	smpsVcDecayRate1    0x08, 0x02, 0x08, 0x05
	smpsVcDecayRate2    0x00, 0x00, 0x00, 0x00
	smpsVcDecayLevel    0x01, 0x00, 0x00, 0x09
	smpsVcReleaseRate   0x0F, 0x0F, 0x0F, 0x0F
	smpsVcTotalLevel    0x02, 0x16, 0x26, 0x2B

/* 	Voice 0x01 */
/* 	0x05 */
/* 	0x20, 0x11, 0x21, 0x03, 	0x18, 0x10, 0x11, 0x10, 	0x0A, 0x06, 0x06, 0x06 */
/* 	0x00, 0x00, 0x00, 0x00, 	0xCF, 0x4F, 0x4F, 0x4F, 	0x10, 0x90, 0x90, 0x90 */
	smpsVcAlgorithm     0x05
	smpsVcFeedback      0x00
	smpsVcUnusedBits    0x00
	smpsVcDetune        0x00, 0x02, 0x01, 0x02
	smpsVcCoarseFreq    0x03, 0x01, 0x01, 0x00
	smpsVcRateScale     0x00, 0x00, 0x00, 0x00
	smpsVcAttackRate    0x10, 0x11, 0x10, 0x18
	smpsVcAmpMod        0x00, 0x00, 0x00, 0x00
	smpsVcDecayRate1    0x06, 0x06, 0x06, 0x0A
	smpsVcDecayRate2    0x00, 0x00, 0x00, 0x00
	smpsVcDecayLevel    0x04, 0x04, 0x04, 0x0C
	smpsVcReleaseRate   0x0F, 0x0F, 0x0F, 0x0F
	smpsVcTotalLevel    0x10, 0x10, 0x10, 0x10

/* 	Voice 0x02 */
/* 	0x00 */
/* 	0x27, 0x37, 0x30, 0x20, 	0x1F, 0x1F, 0x1F, 0x1F, 	0x07, 0x06, 0x09, 0x06 */
/* 	0x07, 0x06, 0x06, 0x08, 	0x20, 0x10, 0x10, 0x0F, 	0x19, 0x37, 0x18, 0x80 */
	smpsVcAlgorithm     0x00
	smpsVcFeedback      0x00
	smpsVcUnusedBits    0x00
	smpsVcDetune        0x02, 0x03, 0x03, 0x02
	smpsVcCoarseFreq    0x00, 0x00, 0x07, 0x07
	smpsVcRateScale     0x00, 0x00, 0x00, 0x00
	smpsVcAttackRate    0x1F, 0x1F, 0x1F, 0x1F
	smpsVcAmpMod        0x00, 0x00, 0x00, 0x00
	smpsVcDecayRate1    0x06, 0x09, 0x06, 0x07
	smpsVcDecayRate2    0x08, 0x06, 0x06, 0x07
	smpsVcDecayLevel    0x00, 0x01, 0x01, 0x02
	smpsVcReleaseRate   0x0F, 0x00, 0x00, 0x00
	smpsVcTotalLevel    0x00, 0x18, 0x37, 0x19

/* 	Voice 0x03 */
/* 	0x04 */
/* 	0x17, 0x03, 0x06, 0x74, 	0x5F, 0x5F, 0x5F, 0x5F, 	0x00, 0x08, 0x00, 0x00 */
/* 	0x00, 0x00, 0x00, 0x0A, 	0x0F, 0xFF, 0x0F, 0x0F, 	0x1C, 0x88, 0x23, 0x88 */
	smpsVcAlgorithm     0x04
	smpsVcFeedback      0x00
	smpsVcUnusedBits    0x00
	smpsVcDetune        0x07, 0x00, 0x00, 0x01
	smpsVcCoarseFreq    0x04, 0x06, 0x03, 0x07
	smpsVcRateScale     0x01, 0x01, 0x01, 0x01
	smpsVcAttackRate    0x1F, 0x1F, 0x1F, 0x1F
	smpsVcAmpMod        0x00, 0x00, 0x00, 0x00
	smpsVcDecayRate1    0x00, 0x00, 0x08, 0x00
	smpsVcDecayRate2    0x0A, 0x00, 0x00, 0x00
	smpsVcDecayLevel    0x00, 0x00, 0x0F, 0x00
	smpsVcReleaseRate   0x0F, 0x0F, 0x0F, 0x0F
	smpsVcTotalLevel    0x08, 0x23, 0x08, 0x1C

/* 	Voice 0x04 */
/* 	0x3C */
/* 	0x02, 0x02, 0x00, 0x02, 	0x1F, 0x1F, 0x1F, 0x1F, 	0x0C, 0x03, 0x07, 0x02 */
/* 	0x04, 0x05, 0x04, 0x05, 	0xFF, 0xFF, 0xFF, 0xFF, 	0x1A, 0x88, 0x1E, 0x88 */
	smpsVcAlgorithm     0x04
	smpsVcFeedback      0x07
	smpsVcUnusedBits    0x00
	smpsVcDetune        0x00, 0x00, 0x00, 0x00
	smpsVcCoarseFreq    0x02, 0x00, 0x02, 0x02
	smpsVcRateScale     0x00, 0x00, 0x00, 0x00
	smpsVcAttackRate    0x1F, 0x1F, 0x1F, 0x1F
	smpsVcAmpMod        0x00, 0x00, 0x00, 0x00
	smpsVcDecayRate1    0x02, 0x07, 0x03, 0x0C
	smpsVcDecayRate2    0x05, 0x04, 0x05, 0x04
	smpsVcDecayLevel    0x0F, 0x0F, 0x0F, 0x0F
	smpsVcReleaseRate   0x0F, 0x0F, 0x0F, 0x0F
	smpsVcTotalLevel    0x08, 0x1E, 0x08, 0x1A

/* 	Voice 0x05 */
/* 	0x01 */
/* 	0x02, 0x04, 0x02, 0x02, 	0x17, 0x17, 0x13, 0x1F, 	0x00, 0x0C, 0x00, 0x08 */
/* 	0x00, 0x00, 0x00, 0x00, 	0x0F, 0xFF, 0x0F, 0x1F, 	0x1F, 0x1A, 0x1B, 0x84 */
	smpsVcAlgorithm     0x01
	smpsVcFeedback      0x00
	smpsVcUnusedBits    0x00
	smpsVcDetune        0x00, 0x00, 0x00, 0x00
	smpsVcCoarseFreq    0x02, 0x02, 0x04, 0x02
	smpsVcRateScale     0x00, 0x00, 0x00, 0x00
	smpsVcAttackRate    0x1F, 0x13, 0x17, 0x17
	smpsVcAmpMod        0x00, 0x00, 0x00, 0x00
	smpsVcDecayRate1    0x08, 0x00, 0x0C, 0x00
	smpsVcDecayRate2    0x00, 0x00, 0x00, 0x00
	smpsVcDecayLevel    0x01, 0x00, 0x0F, 0x00
	smpsVcReleaseRate   0x0F, 0x0F, 0x0F, 0x0F
	smpsVcTotalLevel    0x04, 0x1B, 0x1A, 0x1F

/* 	Voice 0x06 */
/* 	0x04 */
/* 	0x02, 0x04, 0x03, 0x06, 	0x13, 0x0D, 0x13, 0x0D, 	0x06, 0x06, 0x06, 0x06 */
/* 	0x00, 0x00, 0x00, 0x00, 	0x4F, 0x4F, 0x4F, 0x4F, 	0x18, 0x88, 0x18, 0x88 */
	smpsVcAlgorithm     0x04
	smpsVcFeedback      0x00
	smpsVcUnusedBits    0x00
	smpsVcDetune        0x00, 0x00, 0x00, 0x00
	smpsVcCoarseFreq    0x06, 0x03, 0x04, 0x02
	smpsVcRateScale     0x00, 0x00, 0x00, 0x00
	smpsVcAttackRate    0x0D, 0x13, 0x0D, 0x13
	smpsVcAmpMod        0x00, 0x00, 0x00, 0x00
	smpsVcDecayRate1    0x06, 0x06, 0x06, 0x06
	smpsVcDecayRate2    0x00, 0x00, 0x00, 0x00
	smpsVcDecayLevel    0x04, 0x04, 0x04, 0x04
	smpsVcReleaseRate   0x0F, 0x0F, 0x0F, 0x0F
	smpsVcTotalLevel    0x08, 0x18, 0x08, 0x18

