Snd_CGZ_Header:
	smpsHeaderStartSong 3
	smpsHeaderVoiceUVB
	smpsHeaderChan      0x06, 0x03
	smpsHeaderTempo     0x01, 0x25

	smpsHeaderDAC       Snd_CGZ_DAC
	smpsHeaderFM        Snd_CGZ_FM1,	0x18, 0x0C
	smpsHeaderFM        Snd_CGZ_FM2,	0x0C, 0x02
	smpsHeaderFM        Snd_CGZ_FM3,	0x0C, 0x0C
	smpsHeaderFM        Snd_CGZ_FM4,	0x0C, 0x0B
	smpsHeaderFM        Snd_CGZ_FM5,	0x0C, 0x0B
	smpsHeaderPSG       Snd_CGZ_PSG1,	0xF4, 0x03, 0x00, sTone_0C
	smpsHeaderPSG       Snd_CGZ_PSG2,	0xF4, 0x04, 0x00, sTone_0C
	smpsHeaderPSG       Snd_CGZ_PSG3,	0x00, 0x02, 0x00, sTone_0C

/*  Unreachable */
	smpsStop
	smpsStop

Snd_CGZ_Call00:
	.byte	dKickS3, 0x12, dKickS3, 0x06, dSnareS3, 0x0C, dKickS3, 0x06, dKickS3, 0x06, dKickS3, 0x12
	.byte	dKickS3, 0x06, dSnareS3, 0x18
	smpsReturn

Snd_CGZ_Call01:
	.byte	dKickS3, 0x0C, dKickS3, 0x06, dSnareS3, 0x0C, dKickS3, 0x06, dSnareS3, 0x12, dSnareS3, 0x0C
	.byte	dKickS3, 0x06, dSnareS3, 0x18
	smpsReturn

Snd_CGZ_Call03:
	.byte	dKickS3, 0x12, dKickS3, 0x06, dSnareS3, 0x06, dKickS3, 0x06, dKickS3, 0x18, dKickS3, 0x06
	.byte	dKickS3, 0x06, dSnareS3, 0x18
	smpsReturn

Snd_CGZ_Call02:
	.byte	dKickS3, 0x12, dKickS3, 0x06, dSnareS3, 0x0C, dKickS3, 0x06, dKickS3, 0x0C, dKickS3, 0x0C
	.byte	dKickS3, 0x06, dSnareS3, 0x18
	smpsReturn

/*  DAC Data */
Snd_CGZ_DAC:
	smpsCall            Snd_CGZ_Call00
	smpsLoop            0x01, 0x03, Snd_CGZ_DAC
	.byte	dKickS3, 0x12, dKickS3, 0x06, dSnareS3, 0x0C, dKickS3, 0x06, dKickS3, 0x06, dKickS3, 0x12
	.byte	dKickS3, 0x06, dSnareS3, 0x0C, dSnareS3, 0x06, dSnareS3, 0x06

Snd_CGZ_Loop00:
	smpsCall            Snd_CGZ_Call00
	smpsLoop            0x01, 0x03, Snd_CGZ_Loop00
	.byte	dKickS3, 0x12, dKickS3, 0x06, dSnareS3, 0x0C, dKickS3, 0x06, dKickS3, 0x06, dKickS3, 0x12
	.byte	dKickS3, 0x06, dSnareS3, 0x0C, dSnareS3, 0x06, dSnareS3, 0x06
	smpsCall            Snd_CGZ_Call01
	smpsCall            Snd_CGZ_Call02
	smpsCall            Snd_CGZ_Call01
	.byte	dKickS3, 0x12, dKickS3, 0x06, dSnareS3, 0x0C, dKickS3, 0x06, dKickS3, 0x0C, dSnareS3, 0x0C
	.byte	dKickS3, 0x06, dSnareS3, 0x06, dSnareS3, 0x06, dSnareS3, 0x06, dSnareS3, 0x06
	smpsCall            Snd_CGZ_Call01
	smpsCall            Snd_CGZ_Call02
	.byte	dKickS3, 0x0C, dKickS3, 0x06, dSnareS3, 0x0C, dKickS3, 0x06, dSnareS3, 0x06, dKickS3, 0x0C
	.byte	dSnareS3, 0x0C, dKickS3, 0x06, dSnareS3, 0x12, dSnareS3, 0x06, dKickS3, 0x06, dSnareS3, 0x0C
	.byte	dSnareS3, 0x06, dSnareS3, 0x0C, dSnareS3, 0x06, dSnareS3, 0x06, dKickS3, 0x12, dKickS3, 0x06
	.byte	dSnareS3, 0x02, dSnareS3, 0x04, dSnareS3, 0x06, dSnareS3, 0x06, dSnareS3, 0x06

Snd_CGZ_Loop01:
	smpsCall            Snd_CGZ_Call03
	smpsLoop            0x01, 0x03, Snd_CGZ_Loop01
	.byte	dKickS3, 0x12, dKickS3, 0x06, dSnareS3, 0x06, dKickS3, 0x06, dKickS3, 0x18, dKickS3, 0x06
	.byte	dKickS3, 0x06, dSnareS3, 0x0C, dSnareS3, 0x06, dSnareS3, 0x06

Snd_CGZ_Loop02:
	smpsCall            Snd_CGZ_Call03
	smpsLoop            0x01, 0x03, Snd_CGZ_Loop02
	.byte	dKickS3, 0x12, dKickS3, 0x06, dSnareS3, 0x0C, dKickS3, 0x06, dKickS3, 0x06, dKickS3, 0x06
	.byte	dSnareS3, 0x06, dSnareS3, 0x06, dKickS3, 0x06, dSnareS3, 0x06, dSnareS3, 0x06, dSnareS3, 0x06
	.byte	dSnareS3, 0x06

Snd_CGZ_Loop03:
	smpsCall            Snd_CGZ_Call03
	smpsLoop            0x01, 0x03, Snd_CGZ_Loop03
	.byte	dKickS3, 0x12, dKickS3, 0x06, dSnareS3, 0x06, dKickS3, 0x06, dKickS3, 0x12, dSnareS3, 0x06
	.byte	dKickS3, 0x06, dKickS3, 0x06, dSnareS3, 0x0C, dSnareS3, 0x06, dSnareS3, 0x06

Snd_CGZ_Loop04:
	smpsCall            Snd_CGZ_Call03
	smpsLoop            0x01, 0x02, Snd_CGZ_Loop04
	.byte	dSnareS3, 0x12, dKickS3, 0x06, dSnareS3, 0x0C, dKickS3, 0x06, dKickS3, 0x06, dSnareS3, 0x12
	.byte	dKickS3, 0x06, dSnareS3, 0x18, dSnareS3, 0x0C, dSnareS3, 0x06, dSnareS3, 0x06, dSnareS3, 0x06
	.byte	dSnareS3, 0x06, dSnareS3, 0x06, dSnareS3, 0x06, dKickS3, 0x12, dKickS3, 0x06, dSnareS3, 0x02
	.byte	dSnareS3, 0x04, dSnareS3, 0x06, dSnareS3, 0x06, dSnareS3, 0x06
	smpsJump            Snd_CGZ_DAC

/*  Unreachable */
	smpsStop

/*  FM1 Data */
Snd_CGZ_FM1:
	smpsSetvoice        0x14
	smpsAlterNote       0x00
	smpsModSet          0x02, 0x01, 0x01, 0x02

Snd_CGZ_Jump03:
	.byte	nA0, 0x0A, nRst, 0x02, nE1, 0x04, nRst, 0x02, nA1, 0x0A, nRst, 0x02
	.byte	nE1, 0x04, nRst, 0x02, nA1, 0x04, nRst, 0x02, nE1, 0x04, nRst, 0x02
	.byte	nA0, 0x0A, nRst, 0x02, nE1, 0x04, nRst, 0x02, nA1, 0x0A, nRst, 0x02
	.byte	nE1, 0x04, nRst, 0x02, nA1, 0x0A, nRst, 0x02, nA0, 0x0A, nRst, 0x02
	.byte	nE1, 0x04, nRst, 0x02, nA1, 0x0A, nRst, 0x02, nE1, 0x04, nRst, 0x02
	.byte	nA1, 0x04, nRst, 0x02, nE1, 0x04, nRst, 0x02, nA0, 0x0A, nRst, 0x02
	.byte	nE1, 0x04, nRst, 0x02, nA1, 0x0A, nRst, 0x02, nE1, 0x04, nRst, 0x02
	.byte	nA1, 0x0A, nRst, 0x02, nAb0, 0x0A, nRst, 0x02, nEb1, 0x04, nRst, 0x02
	.byte	nAb1, 0x0A, nRst, 0x02, nEb1, 0x04, nRst, 0x02, nAb1, 0x04, nRst, 0x02
	.byte	nEb1, 0x04, nRst, 0x02, nAb0, 0x0A, nRst, 0x02, nEb1, 0x04, nRst, 0x02
	.byte	nAb1, 0x0A, nRst, 0x02, nEb1, 0x04, nRst, 0x02, nAb1, 0x0A, nRst, 0x02
	.byte	nAb0, 0x0A, nRst, 0x02, nEb1, 0x04, nRst, 0x02, nAb1, 0x0A, nRst, 0x02
	.byte	nEb1, 0x04, nRst, 0x02, nAb1, 0x04, nRst, 0x02, nEb1, 0x04, nRst, 0x02
	.byte	nAb0, 0x0A, nRst, 0x02, nEb1, 0x04, nRst, 0x02, nAb1, 0x0A, nRst, 0x02
	.byte	nEb1, 0x04, nRst, 0x02, nAb1, 0x0A, nRst, 0x02, nA0, 0x0A, nRst, 0x02
	.byte	nE1, 0x04, nRst, 0x02, nA1, 0x0A, nRst, 0x02, nE1, 0x04, nRst, 0x02
	.byte	nA1, 0x04, nRst, 0x02, nE1, 0x04, nRst, 0x02, nA0, 0x0A, nRst, 0x02
	.byte	nE1, 0x04, nRst, 0x02, nA1, 0x0A, nRst, 0x02, nE1, 0x04, nRst, 0x02
	.byte	nA1, 0x0A, nRst, 0x02, nA0, 0x0A, nRst, 0x02, nE1, 0x04, nRst, 0x02
	.byte	nA1, 0x0A, nRst, 0x02, nE1, 0x04, nRst, 0x02, nA1, 0x04, nRst, 0x02
	.byte	nE1, 0x04, nRst, 0x02, nA0, 0x0A, nRst, 0x02, nE1, 0x04, nRst, 0x02
	.byte	nA1, 0x0A, nRst, 0x02, nE1, 0x04, nRst, 0x02, nA1, 0x0A, nRst, 0x02
	.byte	nAb0, 0x0A, nRst, 0x02, nEb1, 0x04, nRst, 0x02, nAb1, 0x0A, nRst, 0x02
	.byte	nEb1, 0x04, nRst, 0x02, nAb1, 0x04, nRst, 0x02, nEb1, 0x04, nRst, 0x02
	.byte	nAb0, 0x0A, nRst, 0x02, nEb1, 0x04, nRst, 0x02, nAb1, 0x0A, nRst, 0x02
	.byte	nEb1, 0x04, nRst, 0x02, nAb1, 0x0A, nRst, 0x02, nAb0, 0x0A, nRst, 0x02
	.byte	nEb1, 0x04, nRst, 0x02, nAb1, 0x0A, nRst, 0x02, nEb1, 0x04, nRst, 0x02
	.byte	nAb1, 0x04, nRst, 0x02, nEb1, 0x04, nRst, 0x02, nAb0, 0x0A, nRst, 0x02
	.byte	nEb1, 0x04, nRst, 0x02, nAb1, 0x0A, nRst, 0x02, nEb1, 0x04, nRst, 0x02
	.byte	nAb1, 0x0A, nRst, 0x02, nD1, 0x0A, nRst, 0x02, nD1, 0x04, nRst, 0x02
	.byte	nD1, 0x0A, nRst, 0x02, nD1, 0x04, nRst, 0x02, nD1, 0x10, nRst, 0x02
	.byte	nD2, 0x0A, nRst, 0x02, nD1, 0x04, nRst, 0x02, nD1, 0x0A, nRst, 0x02
	.byte	nD1, 0x04, nRst, 0x02, nD1, 0x04, nRst, 0x02, nCs1, 0x0A, nRst, 0x02
	.byte	nCs1, 0x04, nRst, 0x02, nCs1, 0x0A, nRst, 0x02, nCs1, 0x04, nRst, 0x02
	.byte	nCs1, 0x10, nRst, 0x02, nCs1, 0x0A, nRst, 0x02, nCs1, 0x04, nRst, 0x02
	.byte	nCs1, 0x0A, nRst, 0x02, nCs1, 0x04, nRst, 0x02, nCs1, 0x04, nRst, 0x02
	.byte	nC1, 0x0A, nRst, 0x02, nC1, 0x04, nRst, 0x02, nC1, 0x0A, nRst, 0x02
	.byte	nC1, 0x04, nRst, 0x02, nC1, 0x10, nRst, 0x02, nC2, 0x0A, nRst, 0x02
	.byte	nC1, 0x04, nRst, 0x02, nC1, 0x0A, nRst, 0x02, nC1, 0x04, nRst, 0x02
	.byte	nC1, 0x04, nRst, 0x02, nCs1, 0x0A, nRst, 0x02, nCs1, 0x04, nRst, 0x02
	.byte	nCs1, 0x0A, nRst, 0x02, nCs1, 0x04, nRst, 0x02, nCs1, 0x10, nRst, 0x02
	.byte	nCs1, 0x0A, nRst, 0x02, nCs1, 0x04, nRst, 0x02, nCs1, 0x0A, nRst, 0x02
	.byte	nCs1, 0x04, nRst, 0x02, nCs1, 0x04, nRst, 0x02, nD1, 0x0A, nRst, 0x02
	.byte	nD1, 0x04, nRst, 0x02, nD1, 0x0A, nRst, 0x02, nD1, 0x04, nRst, 0x02
	.byte	nD1, 0x10, nRst, 0x02, nD2, 0x0A, nRst, 0x02, nD1, 0x04, nRst, 0x02
	.byte	nD1, 0x0A, nRst, 0x02, nD1, 0x04, nRst, 0x02, nD1, 0x04, nRst, 0x02
	.byte	nCs1, 0x0A, nRst, 0x02, nCs1, 0x04, nRst, 0x02, nCs1, 0x0A, nRst, 0x02
	.byte	nCs1, 0x04, nRst, 0x02, nCs1, 0x10, nRst, 0x02, nCs1, 0x0A, nRst, 0x02
	.byte	nCs1, 0x04, nRst, 0x02, nCs1, 0x0A, nRst, 0x02, nCs1, 0x04, nRst, 0x02
	.byte	nCs1, 0x04, nRst, 0x02, nC1, 0x0A, nRst, 0x02, nC2, 0x04, nRst, 0x02
	.byte	nC1, 0x0A, nRst, 0x02, nC1, 0x04, nRst, 0x02, nC2, 0x04, nRst, 0x02
	.byte	nC1, 0x04, nRst, 0x08, nEb2, 0x04, nRst, 0x02, nCs2, 0x04, nRst, 0x02
	.byte	nC2, 0x04, nRst, 0x02, nBb1, 0x04, nRst, 0x02, nAb1, 0x04, nRst, 0x02
	.byte	nG1, 0x04, nRst, 0x02, nFs1, 0x04, nRst, 0x08, nFs1, 0x04, nRst, 0x08
	.byte	nFs1, 0x04, nRst, 0x02, nFs1, 0x04, nRst, 0x08, nFs1, 0x04, nRst, 0x02
	.byte	nAb1, 0x04, nRst, 0x1A, nF1, 0x16, nRst, 0x02, nEb1, 0x04, nRst, 0x02
	.byte	nEb1, 0x04, nRst, 0x08, nEb2, 0x0A, nRst, 0x02, nD2, 0x04, nRst, 0x02
	.byte	nEb2, 0x10, nRst, 0x08, nEb1, 0x04, nRst, 0x02, nEb1, 0x04, nRst, 0x02
	.byte	nBb1, 0x04, nRst, 0x02, nBb1, 0x04, nRst, 0x02, nEb1, 0x04, nRst, 0x02
	.byte	nEb1, 0x04, nRst, 0x02, nEb1, 0x04, nRst, 0x02, nEb1, 0x04, nRst, 0x08
	.byte	nEb2, 0x0A, nRst, 0x02, nD2, 0x04, nRst, 0x02, nEb2, 0x10, nRst, 0x08
	.byte	nEb1, 0x04, nRst, 0x02, nEb1, 0x04, nRst, 0x02, nBb1, 0x04, nRst, 0x02
	.byte	nBb1, 0x04, nRst, 0x02, nEb1, 0x04, nRst, 0x02, nEb1, 0x04, nRst, 0x02
	.byte	nD1, 0x04, nRst, 0x02, nD1, 0x04, nRst, 0x08, nD2, 0x0A, nRst, 0x02
	.byte	nC2, 0x04, nRst, 0x02, nD2, 0x10, nRst, 0x08, nD1, 0x04, nRst, 0x02
	.byte	nD1, 0x04, nRst, 0x02, nD2, 0x04, nRst, 0x02, nD2, 0x04, nRst, 0x02
	.byte	nD1, 0x04, nRst, 0x02, nD1, 0x04, nRst, 0x02, nD1, 0x04, nRst, 0x02
	.byte	nD1, 0x04, nRst, 0x08, nD2, 0x0A, nRst, 0x02, nC2, 0x04, nRst, 0x02
	.byte	nD2, 0x10, nRst, 0x08, nD1, 0x04, nRst, 0x02, nD1, 0x04, nRst, 0x02
	.byte	nD2, 0x04, nRst, 0x02, nD2, 0x04, nRst, 0x02, nD1, 0x04, nRst, 0x02
	.byte	nD1, 0x04, nRst, 0x02, nEb1, 0x04, nRst, 0x02, nEb1, 0x04, nRst, 0x08
	.byte	nEb2, 0x0A, nRst, 0x02, nD2, 0x04, nRst, 0x02, nEb2, 0x10, nRst, 0x08
	.byte	nEb1, 0x04, nRst, 0x02, nEb1, 0x04, nRst, 0x02, nBb1, 0x04, nRst, 0x02
	.byte	nBb1, 0x04, nRst, 0x02, nEb1, 0x04, nRst, 0x02, nEb1, 0x04, nRst, 0x02
	.byte	nEb1, 0x04, nRst, 0x02, nEb1, 0x04, nRst, 0x08, nEb2, 0x0A, nRst, 0x02
	.byte	nD2, 0x04, nRst, 0x02, nEb2, 0x10, nRst, 0x08, nEb1, 0x04, nRst, 0x02
	.byte	nEb1, 0x04, nRst, 0x02, nBb1, 0x04, nRst, 0x02, nBb1, 0x04, nRst, 0x02
	.byte	nEb1, 0x04, nRst, 0x02, nEb1, 0x04, nRst, 0x02, nD1, 0x04, nRst, 0x02
	.byte	nD1, 0x04, nRst, 0x08, nD2, 0x0A, nRst, 0x02, nC2, 0x04, nRst, 0x02
	.byte	nD2, 0x10, nRst, 0x08, nD1, 0x04, nRst, 0x02, nD1, 0x04, nRst, 0x02
	.byte	nD2, 0x04, nRst, 0x02, nD2, 0x04, nRst, 0x02, nD1, 0x04, nRst, 0x02
	.byte	nD1, 0x04, nRst, 0x02, nD1, 0x04, nRst, 0x02, nD1, 0x04, nRst, 0x08
	.byte	nD2, 0x0A, nRst, 0x02, nC2, 0x04, nRst, 0x02, nD2, 0x10, nRst, 0x08
	.byte	nD1, 0x04, nRst, 0x02, nD1, 0x04, nRst, 0x02, nD2, 0x04, nRst, 0x02
	.byte	nD2, 0x04, nRst, 0x02, nD1, 0x04, nRst, 0x02, nD1, 0x04, nRst, 0x02
	.byte	nEb1, 0x04, nRst, 0x02, nEb1, 0x04, nRst, 0x08, nEb2, 0x0A, nRst, 0x02
	.byte	nD2, 0x04, nRst, 0x02, nEb2, 0x10, nRst, 0x08, nEb1, 0x04, nRst, 0x02
	.byte	nEb1, 0x04, nRst, 0x02, nBb1, 0x04, nRst, 0x02, nBb1, 0x04, nRst, 0x02
	.byte	nEb1, 0x04, nRst, 0x02, nEb1, 0x04, nRst, 0x02, nEb1, 0x04, nRst, 0x02
	.byte	nEb1, 0x04, nRst, 0x08, nEb2, 0x0A, nRst, 0x02, nD2, 0x04, nRst, 0x02
	.byte	nEb2, 0x10, nRst, 0x08, nEb1, 0x04, nRst, 0x02, nEb1, 0x04, nRst, 0x02
	.byte	nBb1, 0x04, nRst, 0x02, nBb1, 0x04, nRst, 0x02, nEb1, 0x04, nRst, 0x02
	.byte	nEb1, 0x04, nRst, 0x02, nD1, 0x04, nRst, 0x02, nD1, 0x04, nRst, 0x08
	.byte	nD2, 0x0A, nRst, 0x02, nC2, 0x04, nRst, 0x02, nD2, 0x10, nRst, 0x08
	.byte	nD1, 0x04, nRst, 0x02, nD1, 0x04, nRst, 0x02, nD2, 0x04, nRst, 0x02
	.byte	nD2, 0x04, nRst, 0x02, nD1, 0x04, nRst, 0x02, nD1, 0x04, nRst, 0x02
	.byte	nD1, 0x04, nRst, 0x02, nD1, 0x04, nRst, 0x08, nD2, 0x0A, nRst, 0x02
	.byte	nC2, 0x04, nRst, 0x02, nD2, 0x10, nRst, 0x08, nD1, 0x04, nRst, 0x02
	.byte	nD1, 0x04, nRst, 0x02, nD2, 0x04, nRst, 0x02, nD2, 0x04, nRst, 0x02
	.byte	nD1, 0x04, nRst, 0x02, nD1, 0x04, nRst, 0x02, nCs1, 0x04, nRst, 0x02
	.byte	nCs1, 0x04, nRst, 0x08, nCs2, 0x0A, nRst, 0x02, nC2, 0x04, nRst, 0x02
	.byte	nCs2, 0x10, nRst, 0x08, nCs1, 0x04, nRst, 0x02, nCs1, 0x04, nRst, 0x02
	.byte	nCs2, 0x04, nRst, 0x02, nCs2, 0x04, nRst, 0x02, nCs1, 0x04, nRst, 0x02
	.byte	nCs1, 0x04, nRst, 0x02, nCs1, 0x04, nRst, 0x02, nCs1, 0x04, nRst, 0x08
	.byte	nCs2, 0x0A, nRst, 0x02, nC2, 0x04, nRst, 0x02, nCs2, 0x10, nRst, 0x08
	.byte	nCs1, 0x04, nRst, 0x02, nCs1, 0x04, nRst, 0x02, nCs2, 0x04, nRst, 0x02
	.byte	nCs2, 0x04, nRst, 0x02, nCs1, 0x04, nRst, 0x02, nCs1, 0x04, nRst, 0x02
	.byte	nC1, 0x04, nRst, 0x08, nC1, 0x04, nRst, 0x02, nC2, 0x04, nRst, 0x02
	.byte	nC1, 0x04, nRst, 0x08, nC1, 0x04, nRst, 0x02, nC2, 0x04, nRst, 0x02
	.byte	nC1, 0x04, nRst, 0x08, nC1, 0x04, nRst, 0x02, nC2, 0x04, nRst, 0x02
	.byte	nC1, 0x04, nRst, 0x08, nC1, 0x04, nRst, 0x02, nC2, 0x04, nRst, 0x02
	.byte	nC1, 0x04, nRst, 0x08, nC1, 0x04, nRst, 0x02, nC2, 0x04, nRst, 0x02
	.byte	nC1, 0x04, nRst, 0x08, nC1, 0x04, nRst, 0x02, nC2, 0x04, nRst, 0x08
	.byte	nC1, 0x04, nRst, 0x08, nC1, 0x04, nRst, 0x02, nC1, 0x04, nRst, 0x02
	.byte	nC1, 0x04, nRst, 0x02, nG1, 0x04, nRst, 0x02, nC2, 0x04, nRst, 0x02
	smpsJump            Snd_CGZ_Jump03

/*  Unreachable */
	smpsStop

/*  FM2 Data */
Snd_CGZ_FM2:
	smpsSetvoice        0x0C
	smpsAlterNote       0x02
	smpsModSet          0x0F, 0x01, 0x07, 0x07

Snd_CGZ_Jump02:
	.byte	nC4, 0x04, nRst, 0x14, nB3, 0x10, nRst, 0x02, nC4, 0x04, nRst, 0x0E
	.byte	nA3, 0x16, nRst, 0x02, nB3, 0x04, nRst, 0x02, nC4, 0x04, nRst, 0x02
	.byte	nD4, 0x22, nRst, 0x02, nC4, 0x04, nRst, 0x02, nB3, 0x04, nRst, 0x02
	.byte	nA3, 0x16, nRst, 0x02, nG3, 0x04, nRst, 0x02, nA3, 0x04, nRst, 0x02
	.byte	nB3, 0x04, nRst, 0x02, nC4, 0x04, nRst, 0x02, nD4, 0x34, nRst, 0x08
	.byte	nD4, 0x04, nRst, 0x14, nBb3, 0x34, nRst, 0x0E, nC3, 0x04, nRst, 0x02
	.byte	nD3, 0x04, nRst, 0x02, nEb3, 0x04, nRst, 0x02, nF3, 0x04, nRst, 0x02
	.byte	nG3, 0x04, nRst, 0x02, nAb3, 0x04, nRst, 0x02, nBb3, 0x04, nRst, 0x02
	.byte	nC4, 0x04, nRst, 0x14, nB3, 0x10, nRst, 0x02, nC4, 0x04, nRst, 0x0E
	.byte	nA3, 0x16, nRst, 0x02, nB3, 0x04, nRst, 0x02, nC4, 0x04, nRst, 0x02
	.byte	nD4, 0x22, nRst, 0x02, nC4, 0x04, nRst, 0x02, nB3, 0x04, nRst, 0x02
	.byte	nA3, 0x16, nRst, 0x02, nG3, 0x04, nRst, 0x02, nA3, 0x04, nRst, 0x02
	.byte	nB3, 0x04, nRst, 0x02, nC4, 0x04, nRst, 0x02, nD4, 0x34, nRst, 0x08
	.byte	nD4, 0x04, nRst, 0x14, nBb3, 0x34, nRst, 0x0E, nC3, 0x04, nRst, 0x02
	.byte	nD3, 0x04, nRst, 0x02, nEb3, 0x04, nRst, 0x02, nF3, 0x04, nRst, 0x02
	.byte	nG3, 0x04, nRst, 0x02, nAb3, 0x04, nRst, 0x02, nBb3, 0x04, nRst, 0x02
	.byte	nC4, 0x52, nRst, 0x02, nF3, 0x04, nRst, 0x02, nG3, 0x04, nRst, 0x02
	.byte	nAb3, 0x10, nRst, 0x02, nG3, 0x04, nRst, 0x0E, nG3, 0x0A, nRst, 0x02
	.byte	nF3, 0x10, nRst, 0x02, nG3, 0x10, nRst, 0x02, nAb3, 0x0A, nRst, 0x02
	.byte	nAb3, 0x22, nRst, 0x02, nEb3, 0x2E, nRst, 0x02, nAb3, 0x04, nRst, 0x02
	.byte	nEb4, 0x04, nRst, 0x02, nEb4, 0x22, nRst, 0x02, nAb3, 0x16, nRst, 0x0E
	.byte	nG3, 0x0A, nRst, 0x02, nAb3, 0x04, nRst, 0x02, nBb3, 0x04, nRst, 0x02
	.byte	nC4, 0x52, nRst, 0x02, nF3, 0x04, nRst, 0x02, nG3, 0x04, nRst, 0x02
	.byte	nAb3, 0x10, nRst, 0x02, nG3, 0x04, nRst, 0x0E, nG3, 0x0A, nRst, 0x02
	.byte	nF3, 0x10, nRst, 0x02, nG3, 0x10, nRst, 0x02, nAb3, 0x0A, nRst, 0x02
	.byte	nBb3, 0x0A, nRst, 0x02, nBb3, 0x04, nRst, 0x02, nEb4, 0x0A, nRst, 0x02
	.byte	nBb3, 0x04, nRst, 0x02, nEb4, 0x04, nRst, 0x02, nEb4, 0x28, nRst, 0x02
	.byte	nG3, 0x04, nRst, 0x02, nBb3, 0x04, nRst, 0x08, nBb3, 0x04, nRst, 0x08
	.byte	nCs4, 0x04, nRst, 0x02, nCs4, 0x04, nRst, 0x08, nCs4, 0x04, nRst, 0x02
	.byte	nC4, 0x04, nRst, 0x02, nBb3, 0x02, nAb3, 0x02, nFs3, 0x02, nF3, 0x02
	.byte	nEb3, 0x02, nCs3, 0x02, nC3, 0x02, nBb2, 0x02, nAb2, 0x02, nFs2, 0x02
	.byte	nF2, 0x02, nEb2, 0x02, nEb3, 0x04, nRst, 0x02, nF3, 0x04, nRst, 0x02
	.byte	nG3, 0x04, nRst, 0x02, nA3, 0x04, nRst, 0x02, nBb3, 0x10, nRst, 0x02
	.byte	nA3, 0x04, nRst, 0x0E, nBb3, 0x10, nRst, 0x02, nG3, 0x10, nRst, 0x02
	.byte	nA3, 0x04, nRst, 0x08, nBb3, 0x04, nRst, 0x08, nBb3, 0x10, nRst, 0x02
	.byte	nA3, 0x04, nRst, 0x0E, nBb3, 0x10, nRst, 0x02, nC4, 0x04, nRst, 0x08
	.byte	nBb3, 0x04, nRst, 0x02, nC4, 0x0A, nRst, 0x02, nBb3, 0x0A, nRst, 0x02
	.byte	nBb3, 0x28, nRst, 0x02, nF3, 0x34, nRst, 0x38, nBb4, 0x04, nRst, 0x0E
	.byte	nA4, 0x04, nRst, 0x08, nBb4, 0x04, nRst, 0x08, nBb3, 0x10, nRst, 0x02
	.byte	nA3, 0x04, nRst, 0x0E, nBb3, 0x10, nRst, 0x02, nG3, 0x10, nRst, 0x02
	.byte	nA3, 0x04, nRst, 0x08, nBb3, 0x04, nRst, 0x08, nBb3, 0x0A, nRst, 0x02
	.byte	nBb3, 0x04, nRst, 0x02, nA3, 0x04, nRst, 0x08, nA3, 0x04, nRst, 0x02
	.byte	nBb3, 0x10, nRst, 0x02, nC4, 0x04, nRst, 0x08, nBb3, 0x04, nRst, 0x02
	.byte	nC4, 0x0A, nRst, 0x02, nBb3, 0x0A, nRst, 0x02, nBb3, 0x1C, nRst, 0x02
	.byte	nBb3, 0x04, nRst, 0x02, nF4, 0x04, nRst, 0x02, nD4, 0x10, nRst, 0x02
	.byte	nD4, 0x04, nRst, 0x02, nEb4, 0x04, nRst, 0x02, nD4, 0x0A, nRst, 0x02
	.byte	nC4, 0x04, nRst, 0x02, nBb3, 0x34, nRst, 0x08, nC4, 0x04, nRst, 0x02
	.byte	nBb3, 0x0A, nRst, 0x02, nF3, 0x16, nRst, 0x02, nBb3, 0x10, nRst, 0x02
	.byte	nA3, 0x04, nRst, 0x0E, nBb3, 0x10, nRst, 0x02, nG3, 0x10, nRst, 0x02
	.byte	nA3, 0x04, nRst, 0x08, nBb3, 0x04, nRst, 0x08, nBb3, 0x10, nRst, 0x02
	.byte	nA3, 0x04, nRst, 0x0E, nBb3, 0x10, nRst, 0x02, nC4, 0x04, nRst, 0x08
	.byte	nBb3, 0x04, nRst, 0x02, nC4, 0x0A, nRst, 0x02, nBb3, 0x0A, nRst, 0x02
	.byte	nBb3, 0x28, nRst, 0x02, nF3, 0x34, nRst, 0x38, nBb4, 0x04, nRst, 0x0E
	.byte	nA4, 0x04, nRst, 0x08, nBb4, 0x04, nRst, 0x08, nBb3, 0x0A, nRst, 0x02
	.byte	nBb3, 0x04, nRst, 0x02, nAb3, 0x04, nRst, 0x08, nAb3, 0x04, nRst, 0x02
	.byte	nBb3, 0x10, nRst, 0x02, nBb3, 0x04, nRst, 0x0E, nEb3, 0x04, nRst, 0x02
	.byte	nF3, 0x04, nRst, 0x02, nG3, 0x04, nRst, 0x02, nAb3, 0x04, nRst, 0x02
	.byte	nBb3, 0x0A, nRst, 0x02, nBb3, 0x04, nRst, 0x02, nAb3, 0x04, nRst, 0x08
	.byte	nAb3, 0x04, nRst, 0x02, nBb3, 0x10, nRst, 0x02, nBb3, 0x04, nRst, 0x08
	.byte	nF3, 0x04, nRst, 0x02, nG3, 0x04, nRst, 0x02, nAb3, 0x04, nRst, 0x02
	.byte	nBb3, 0x04, nRst, 0x02, nC4, 0x04, nRst, 0x02, nG3, 0x60, 0x2E, nRst
	.byte	0x08, nBb3, 0x04, nRst, 0x08, nG3, 0x04, nRst, 0x08, nBb3, 0x04, nRst
	.byte	0x02, nC4, 0x0A, nRst, 0x02
	smpsJump            Snd_CGZ_Jump02

/*  Unreachable */
	smpsStop

/*  FM3 Data */
Snd_CGZ_FM3:
	.byte	nRst, 0x08
	smpsSetvoice        0x0C
	smpsAlterNote       0xFE
	smpsModSet          0x0F, 0x01, 0x07, 0x07

Snd_CGZ_Jump06:
	smpsJump            Snd_CGZ_Jump02

/*  Unreachable */
	smpsJump            Snd_CGZ_Jump06
	smpsStop

/*  FM4 Data */
Snd_CGZ_FM4:
	smpsPan             panLeft, 0x00
	smpsSetvoice        0x0A
	smpsAlterNote       0x02
	smpsModSet          0x0A, 0x01, 0x03, 0x06

Snd_CGZ_Jump01:
	.byte	nE3, 0x05, nRst, 0x13, nD3, 0x11, nRst, 0x01, nE3, 0x03, nRst, 0x09
	.byte	nC3, 0x05, nRst, 0x01, nC4, 0x05, nRst, 0x01, nC4, 0x05, nRst, 0x19
	.byte	nG2, 0x11, nRst, 0x01, nG2, 0x05, nRst, 0x0D, nG2, 0x23, nRst, 0x01
	.byte	nG3, 0x17, nRst, 0x01, nF3, 0x3B, nRst, 0x01, nF3, 0x05, nRst, 0x13
	.byte	nD3, 0x23, nRst, 0x01, nD4, 0x05, nRst, 0x01, nD4, 0x05, nRst, 0x01
	.byte	nC4, 0x05, nRst, 0x01, nD4, 0x05, nRst, 0x19, nF3, 0x17, nRst, 0x01
	.byte	nE3, 0x05, nRst, 0x13, nD3, 0x11, nRst, 0x01, nE3, 0x03, nRst, 0x09
	.byte	nC3, 0x05, nRst, 0x01, nC4, 0x05, nRst, 0x01, nC4, 0x05, nRst, 0x19
	.byte	nG2, 0x11, nRst, 0x01, nG2, 0x05, nRst, 0x0D, nG2, 0x23, nRst, 0x01
	.byte	nG3, 0x17, nRst, 0x01, nF3, 0x3B, nRst, 0x01, nF3, 0x05, nRst, 0x13
	.byte	nD3, 0x23, nRst, 0x01, nD4, 0x05, nRst, 0x01, nD4, 0x05, nRst, 0x01
	.byte	nC4, 0x05, nRst, 0x01, nD4, 0x05, nRst, 0x19, nF3, 0x17, nRst, 0x0D
	.byte	nG2, 0x05, nRst, 0x01, nBb2, 0x0B, nRst, 0x01, nG2, 0x05, nRst, 0x01
	.byte	nBb2, 0x23, nRst, 0x01, nF3, 0x17, nRst, 0x01, nF3, 0x11, nRst, 0x01
	.byte	nEb3, 0x05, nRst, 0x0D, nEb3, 0x0B, nRst, 0x01, nC3, 0x11, nRst, 0x01
	.byte	nEb3, 0x11, nRst, 0x01, nF3, 0x0B, nRst, 0x0D, nAb2, 0x05, nRst, 0x01
	.byte	nC3, 0x0B, nRst, 0x01, nAb2, 0x05, nRst, 0x01, nC3, 0x24, nEb3, 0x17
	.byte	nRst, 0x01, nF3, 0x11, nRst, 0x01, nF3, 0x05, nRst, 0x0D, nC3, 0x2F
	.byte	nRst, 0x19, nG2, 0x05, nRst, 0x01, nBb2, 0x0B, nRst, 0x01, nG2, 0x05
	.byte	nRst, 0x01, nBb2, 0x23, nRst, 0x01, nF3, 0x17, nRst, 0x01, nF3, 0x11
	.byte	nRst, 0x01, nEb3, 0x05, nRst, 0x0D, nEb3, 0x0B, nRst, 0x01, nC3, 0x11
	.byte	nRst, 0x01, nEb3, 0x11, nRst, 0x01, nF3, 0x0B, nRst, 0x0D, nC3, 0x05
	.byte	nRst, 0x01, nG3, 0x0B, nRst, 0x01, nC3, 0x05, nRst, 0x01, nG3, 0x05
	.byte	nRst, 0x01, nG3, 0x29, nRst, 0x01, nEb3, 0x05, nRst, 0x01, nCs3, 0x05
	.byte	nRst, 0x07, nCs3, 0x05, nRst, 0x07, nF3, 0x05, nRst, 0x01, nF3, 0x05
	.byte	nRst, 0x07, nF3, 0x05, nRst, 0x01, nF3, 0x05, nRst, 0x19, nEb3, 0x17
	.byte	nRst, 0x01, nF3, 0x11, nRst, 0x01, nF3, 0x05, nRst, 0x0D, nF3, 0x11
	.byte	nRst, 0x01, nBb2, 0x11, nRst, 0x01, nC3, 0x05, nRst, 0x07, nEb3, 0x05
	.byte	nRst, 0x07, nF3, 0x11, nRst, 0x01, nF3, 0x05, nRst, 0x0D, nF3, 0x11
	.byte	nRst, 0x01, nF3, 0x05, nRst, 0x07, nEb3, 0x05, nRst, 0x01, nF3, 0x0B
	.byte	nRst, 0x01, nEb3, 0x0B, nRst, 0x01, nD3, 0x11, nRst, 0x01, nD3, 0x05
	.byte	nRst, 0x07, nD3, 0x05, nRst, 0x07, nD3, 0x35, nRst, 0x07, nD3, 0x05
	.byte	nRst, 0x01, nF3, 0x05, nRst, 0x01, nBb3, 0x05, nRst, 0x01, nBb3, 0x05
	.byte	nRst, 0x01, nF3, 0x05, nRst, 0x01, nBb3, 0x05, nRst, 0x01, nD4, 0x05
	.byte	nRst, 0x07, nF4, 0x05, nRst, 0x0D, nF4, 0x05, nRst, 0x07, nF4, 0x05
	.byte	nRst, 0x07, nF3, 0x11, nRst, 0x01, nF3, 0x05, nRst, 0x0D, nF3, 0x11
	.byte	nRst, 0x01, nBb2, 0x11, nRst, 0x01, nC3, 0x05, nRst, 0x07, nEb3, 0x05
	.byte	nRst, 0x07, nF3, 0x11, nRst, 0x01, nF3, 0x05, nRst, 0x0D, nF3, 0x11
	.byte	nRst, 0x01, nF3, 0x05, nRst, 0x07, nEb3, 0x05, nRst, 0x01, nF3, 0x0B
	.byte	nRst, 0x01, nEb3, 0x0B, nRst, 0x01, nD3, 0x11, nRst, 0x01, nD3, 0x05
	.byte	nRst, 0x07, nD3, 0x05, nRst, 0x01, nBb3, 0x05, nRst, 0x01, nF3, 0x11
	.byte	nRst, 0x2B, nD3, 0x05, nRst, 0x01, nF3, 0x05, nRst, 0x01, nBb3, 0x05
	.byte	nRst, 0x01, nBb3, 0x05, nRst, 0x01, nF3, 0x05, nRst, 0x01, nBb3, 0x05
	.byte	nRst, 0x01, nD4, 0x05, nRst, 0x07, nF4, 0x05, nRst, 0x01, nD4, 0x05
	.byte	nRst, 0x07, nBb3, 0x17, nRst, 0x01, nF3, 0x11, nRst, 0x01, nF3, 0x05
	.byte	nRst, 0x0D, nF3, 0x11, nRst, 0x01, nBb2, 0x11, nRst, 0x01, nC3, 0x05
	.byte	nRst, 0x07, nEb3, 0x05, nRst, 0x07, nF3, 0x11, nRst, 0x01, nF3, 0x05
	.byte	nRst, 0x0D, nF3, 0x11, nRst, 0x01, nF3, 0x05, nRst, 0x07, nEb3, 0x05
	.byte	nRst, 0x01, nF3, 0x0B, nRst, 0x01, nEb3, 0x0B, nRst, 0x01, nD3, 0x11
	.byte	nRst, 0x01, nD3, 0x05, nRst, 0x07, nD3, 0x05, nRst, 0x07, nD3, 0x35
	.byte	nRst, 0x07, nD3, 0x05, nRst, 0x01, nF3, 0x05, nRst, 0x01, nBb3, 0x05
	.byte	nRst, 0x01, nBb3, 0x05, nRst, 0x01, nF3, 0x05, nRst, 0x01, nBb3, 0x05
	.byte	nRst, 0x01, nD4, 0x05, nRst, 0x07, nF4, 0x05, nRst, 0x0D, nF4, 0x05
	.byte	nRst, 0x07, nF4, 0x05, nRst, 0x07, nF3, 0x11, nRst, 0x01, nF3, 0x05
	.byte	nRst, 0x0D, nF3, 0x11, nRst, 0x01, nF3, 0x05, nRst, 0x0D, nF3, 0x0B
	.byte	nRst, 0x01, nF3, 0x0B, nRst, 0x01, nF3, 0x11, nRst, 0x01, nF3, 0x05
	.byte	nRst, 0x0D, nF3, 0x11, nRst, 0x01, nF3, 0x05, nRst, 0x0D, nF3, 0x0B
	.byte	nRst, 0x01, nF3, 0x0B, nRst, 0x01, nF3, 0x5F, nRst, 0x01, nE3, 0x2F
	.byte	nRst, 0x07, nE3, 0x05, nRst, 0x07, nC3, 0x05, nRst, 0x07, nE3, 0x05
	.byte	nRst, 0x01, nE3, 0x0B, nRst, 0x01
	smpsSetvoice        0x0A
	smpsAlterNote       0x02
	smpsModSet          0x0A, 0x01, 0x03, 0x06
	smpsJump            Snd_CGZ_Jump01

/*  Unreachable */
	smpsStop

/*  FM5 Data */
Snd_CGZ_FM5:
	smpsPan             panRight, 0x00
	smpsSetvoice        0x0A
	smpsAlterNote       0xFE
	smpsModSet          0x0A, 0x01, 0x03, 0x06

Snd_CGZ_Jump00:
	.byte	nG3, 0x05, nRst, 0x13, nG3, 0x11, nRst, 0x01, nG3, 0x03, nRst, 0x09
	.byte	nE3, 0x05, nRst, 0x01, nE4, 0x05, nRst, 0x01, nE4, 0x05, nRst, 0x19
	.byte	nB2, 0x11, nRst, 0x01, nB2, 0x05, nRst, 0x0D, nC3, 0x23, nRst, 0x01
	.byte	nB3, 0x17, nRst, 0x01, nBb3, 0x3B, nRst, 0x01, nBb3, 0x05, nRst, 0x13
	.byte	nF3, 0x23, nRst, 0x01, nF4, 0x05, nRst, 0x01, nF4, 0x05, nRst, 0x01
	.byte	nEb4, 0x05, nRst, 0x01, nF4, 0x05, nRst, 0x19, nAb3, 0x17, nRst, 0x01
	.byte	nG3, 0x05, nRst, 0x13, nG3, 0x11, nRst, 0x01, nG3, 0x03, nRst, 0x09
	.byte	nE3, 0x05, nRst, 0x01, nE4, 0x05, nRst, 0x01, nE4, 0x05, nRst, 0x19
	.byte	nB2, 0x11, nRst, 0x01, nB2, 0x05, nRst, 0x0D, nC3, 0x23, nRst, 0x01
	.byte	nB3, 0x17, nRst, 0x01, nBb3, 0x3B, nRst, 0x01, nBb3, 0x05, nRst, 0x13
	.byte	nF3, 0x23, nRst, 0x01, nF4, 0x05, nRst, 0x01, nF4, 0x05, nRst, 0x01
	.byte	nEb4, 0x05, nRst, 0x01, nF4, 0x05, nRst, 0x19, nAb3, 0x17, nRst, 0x0D
	.byte	nE3, 0x05, nRst, 0x01, nF3, 0x0B, nRst, 0x01, nE3, 0x05, nRst, 0x01
	.byte	nF3, 0x23, nRst, 0x01, nBb3, 0x17, nRst, 0x01, nC4, 0x11, nRst, 0x01
	.byte	nBb3, 0x05, nRst, 0x0D, nBb3, 0x0B, nRst, 0x01, nAb3, 0x11, nRst, 0x01
	.byte	nBb3, 0x11, nRst, 0x01, nC4, 0x0B, nRst, 0x0D, nC3, 0x05, nRst, 0x01
	.byte	nEb3, 0x0B, nRst, 0x01, nC3, 0x05, nRst, 0x01, nEb3, 0x24, nAb3, 0x17
	.byte	nRst, 0x01, nC4, 0x11, nRst, 0x01, nC4, 0x05, nRst, 0x0D, nF3, 0x2F
	.byte	nRst, 0x19, nE3, 0x05, nRst, 0x01, nF3, 0x0B, nRst, 0x01, nE3, 0x05
	.byte	nRst, 0x01, nF3, 0x23, nRst, 0x01, nBb3, 0x17, nRst, 0x01, nC4, 0x11
	.byte	nRst, 0x01, nBb3, 0x05, nRst, 0x0D, nBb3, 0x0B, nRst, 0x01, nAb3, 0x11
	.byte	nRst, 0x01, nBb3, 0x11, nRst, 0x01, nC4, 0x0B, nRst, 0x0D, nEb3, 0x05
	.byte	nRst, 0x01, nBb3, 0x0B, nRst, 0x01, nEb3, 0x05, nRst, 0x01, nBb3, 0x05
	.byte	nRst, 0x01, nBb3, 0x29, nRst, 0x01, nG3, 0x05, nRst, 0x01, nF3, 0x05
	.byte	nRst, 0x07, nF3, 0x05, nRst, 0x07, nBb3, 0x05, nRst, 0x01, nBb3, 0x05
	.byte	nRst, 0x07, nBb3, 0x05, nRst, 0x01, nC4, 0x05, nRst, 0x19, nA3, 0x17
	.byte	nRst, 0x01, nC4, 0x11, nRst, 0x01, nC4, 0x05, nRst, 0x0D, nC4, 0x11
	.byte	nRst, 0x01, nEb3, 0x11, nRst, 0x01, nF3, 0x05, nRst, 0x07, nG3, 0x05
	.byte	nRst, 0x07, nC4, 0x11, nRst, 0x01, nC4, 0x05, nRst, 0x0D, nC4, 0x11
	.byte	nRst, 0x01, nA3, 0x05, nRst, 0x07, nG3, 0x05, nRst, 0x01, nA3, 0x0B
	.byte	nRst, 0x01, nG3, 0x0B, nRst, 0x01, nF3, 0x11, nRst, 0x01, nF3, 0x05
	.byte	nRst, 0x07, nF3, 0x05, nRst, 0x07, nBb3, 0x35, nRst, 0x07, nF3, 0x05
	.byte	nRst, 0x01, nBb3, 0x05, nRst, 0x01, nD4, 0x05, nRst, 0x01, nD4, 0x05
	.byte	nRst, 0x01, nBb3, 0x05, nRst, 0x01, nD4, 0x05, nRst, 0x01, nF4, 0x05
	.byte	nRst, 0x07, nBb4, 0x05, nRst, 0x0D, nA4, 0x05, nRst, 0x07, nBb4, 0x05
	.byte	nRst, 0x07, nC4, 0x11, nRst, 0x01, nC4, 0x05, nRst, 0x0D, nC4, 0x11
	.byte	nRst, 0x01, nEb3, 0x11, nRst, 0x01, nF3, 0x05, nRst, 0x07, nG3, 0x05
	.byte	nRst, 0x07, nC4, 0x11, nRst, 0x01, nC4, 0x05, nRst, 0x0D, nC4, 0x11
	.byte	nRst, 0x01, nA3, 0x05, nRst, 0x07, nG3, 0x05, nRst, 0x01, nA3, 0x0B
	.byte	nRst, 0x01, nG3, 0x0B, nRst, 0x01, nF3, 0x11, nRst, 0x01, nF3, 0x05
	.byte	nRst, 0x07, nF3, 0x05, nRst, 0x01, nD4, 0x05, nRst, 0x01, nBb3, 0x11
	.byte	nRst, 0x01, nF4, 0x05, nRst, 0x01, nG4, 0x05, nRst, 0x01, nF4, 0x0B
	.byte	nRst, 0x01, nEb4, 0x05, nRst, 0x01, nD4, 0x0B, nRst, 0x01, nF3, 0x05
	.byte	nRst, 0x01, nBb3, 0x05, nRst, 0x01, nD4, 0x05, nRst, 0x01, nD4, 0x05
	.byte	nRst, 0x01, nBb3, 0x05, nRst, 0x01, nD4, 0x05, nRst, 0x01, nF4, 0x05
	.byte	nRst, 0x07, nA4, 0x05, nRst, 0x01, nF4, 0x05, nRst, 0x07, nD4, 0x17
	.byte	nRst, 0x01, nC4, 0x11, nRst, 0x01, nC4, 0x05, nRst, 0x0D, nC4, 0x11
	.byte	nRst, 0x01, nEb3, 0x11, nRst, 0x01, nF3, 0x05, nRst, 0x07, nG3, 0x05
	.byte	nRst, 0x07, nC4, 0x11, nRst, 0x01, nC4, 0x05, nRst, 0x0D, nC4, 0x11
	.byte	nRst, 0x01, nA3, 0x05, nRst, 0x07, nG3, 0x05, nRst, 0x01, nA3, 0x0B
	.byte	nRst, 0x01, nG3, 0x0B, nRst, 0x01, nF3, 0x11, nRst, 0x01, nF3, 0x05
	.byte	nRst, 0x07, nF3, 0x05, nRst, 0x07, nBb3, 0x35, nRst, 0x07, nF3, 0x05
	.byte	nRst, 0x01, nBb3, 0x05, nRst, 0x01, nD4, 0x05, nRst, 0x01, nD4, 0x05
	.byte	nRst, 0x01, nBb3, 0x05, nRst, 0x01, nD4, 0x05, nRst, 0x01, nF4, 0x05
	.byte	nRst, 0x07, nBb4, 0x05, nRst, 0x0D, nA4, 0x05, nRst, 0x07, nBb4, 0x05
	.byte	nRst, 0x07, nC4, 0x11, nRst, 0x01, nC4, 0x05, nRst, 0x0D, nC4, 0x11
	.byte	nRst, 0x01, nC4, 0x05, nRst, 0x0D, nC4, 0x0B, nRst, 0x01, nC4, 0x0B
	.byte	nRst, 0x01, nC4, 0x11, nRst, 0x01, nC4, 0x05, nRst, 0x0D, nC4, 0x11
	.byte	nRst, 0x01, nC4, 0x05, nRst, 0x0D, nC4, 0x0B, nRst, 0x01, nC4, 0x0B
	.byte	nRst, 0x01, nC4, 0x5F, nRst, 0x01, nC4, 0x2F, nRst, 0x07, nG3, 0x05
	.byte	nRst, 0x07, nE3, 0x05, nRst, 0x07, nG3, 0x05, nRst, 0x01, nG3, 0x0B
	.byte	nRst, 0x01
	smpsJump            Snd_CGZ_Jump00

/*  Unreachable */
	smpsStop

/*  PSG1 Data */
Snd_CGZ_PSG1:
	smpsPSGvoice        sTone_04
	smpsAlterNote       0xFF

Snd_CGZ_Jump05:
	.byte	nRst, 0x60, nRst, nRst, 0x24, nBb3, 0x04, nRst, 0x02, nC4, 0x04, nRst
	.byte	0x02, nD4, 0x34, nRst, 0x08, nD4, 0x04, nRst, 0x14, nBb3, 0x34, nRst
	.byte	0x60, nRst, nRst, 0x2C, nBb3, 0x04, nRst, 0x02, nC4, 0x04, nRst, 0x02
	.byte	nD4, 0x34, nRst, 0x08, nD4, 0x04, nRst, 0x14, nBb3, 0x34, nRst, 0x14
	.byte	nE4, 0x04, nRst, 0x02, nF4, 0x0A, nRst, 0x02, nE4, 0x04, nRst, 0x02
	.byte	nF4, 0x10, nRst, 0x02, nF3, 0x04, nRst, 0x02, nF3, 0x04, nRst, 0x02
	.byte	nF3, 0x04, nRst, 0x1A, nC4, 0x10, nRst, 0x02, nBb3, 0x04, nRst, 0x0E
	.byte	nBb3, 0x0A, nRst, 0x02, nAb3, 0x10, nRst, 0x02, nBb3, 0x10, nRst, 0x02
	.byte	nC4, 0x0A, nRst, 0x0E, nEb4, 0x04, nRst, 0x02, nAb4, 0x0A, nRst, 0x02
	.byte	nEb4, 0x04, nRst, 0x02, nAb4, 0x10, nRst, 0x02, nEb4, 0x04, nRst, 0x02
	.byte	nEb4, 0x04, nRst, 0x02, nEb4, 0x04, nRst, 0x1A, nC4, 0x10, nRst, 0x02
	.byte	nC4, 0x04, nRst, 0x0E, nF3, 0x10, nRst, 0x02, nF3, 0x04, nRst, 0x02
	.byte	nF4, 0x04, nRst, 0x02, nF3, 0x04, nRst, 0x08, nF3, 0x04, nRst, 0x02
	.byte	nF4, 0x04, nRst, 0x14, nE4, 0x04, nRst, 0x02, nF4, 0x0A, nRst, 0x02
	.byte	nE4, 0x04, nRst, 0x02, nF4, 0x10, nRst, 0x02, nF3, 0x04, nRst, 0x02
	.byte	nF3, 0x04, nRst, 0x02, nF3, 0x04, nRst, 0x1A, nC4, 0x10, nRst, 0x02
	.byte	nBb3, 0x04, nRst, 0x0E, nBb3, 0x0A, nRst, 0x02, nAb3, 0x10, nRst, 0x02
	.byte	nBb3, 0x10, nRst, 0x02, nC4, 0x0A, nRst, 0x0E, nEb4, 0x04, nRst, 0x02
	.byte	nBb4, 0x0A, nRst, 0x02, nEb4, 0x04, nRst, 0x02, nBb4, 0x10, nRst, 0x02
	.byte	nEb4, 0x04, nRst, 0x02, nEb4, 0x04, nRst, 0x02, nEb4, 0x04, nRst, 0x20
	.byte	nBb3, 0x04, nRst, 0x08, nCs4, 0x04, nRst, 0x02, nCs4, 0x04, nRst, 0x08
	.byte	nCs4, 0x04, nRst, 0x02, nC4, 0x04, nRst, 0x32
	smpsPSGvoice        sTone_0A
	.byte	nF4, 0x04, nRst, 0x08, nF5, 0x04, nRst, 0x02, nF4, 0x04, nRst, 0x08
	.byte	nF5, 0x04, nRst, 0x02, nF5, 0x04, nRst, 0x02, nF4, 0x04, nRst, 0x08
	.byte	nF4, 0x04, nRst, 0x02, nF5, 0x04, nRst, 0x02, nF4, 0x04, nRst, 0x02
	.byte	nF4, 0x04, nRst, 0x08, nF4, 0x04, nRst, 0x02, nF5, 0x04, nRst, 0x02
	.byte	nF4, 0x04, nRst, 0x08, nF5, 0x04, nRst, 0x02, nF4, 0x04, nRst, 0x08
	.byte	nF5, 0x04, nRst, 0x02, nF5, 0x04, nRst, 0x02, nF4, 0x04, nRst, 0x08
	.byte	nF4, 0x04, nRst, 0x02, nF5, 0x04, nRst, 0x02, nF4, 0x04, nRst, 0x02
	.byte	nF4, 0x04, nRst, 0x08, nF4, 0x04, nRst, 0x02, nF5, 0x04, nRst, 0x02
	.byte	nF4, 0x04, nRst, 0x08, nF5, 0x04, nRst, 0x02, nF4, 0x04, nRst, 0x08
	.byte	nF5, 0x04, nRst, 0x02, nF5, 0x04, nRst, 0x02, nF4, 0x04, nRst, 0x08
	.byte	nF4, 0x04, nRst, 0x02, nF5, 0x04, nRst, 0x02, nF4, 0x04, nRst, 0x02
	.byte	nF4, 0x04, nRst, 0x08, nF4, 0x04, nRst, 0x02, nF5, 0x04, nRst, 0x02
	.byte	nF4, 0x04, nRst, 0x08, nF5, 0x04, nRst, 0x02, nF4, 0x04, nRst, 0x08
	.byte	nF5, 0x04, nRst, 0x02, nF5, 0x04, nRst, 0x02, nF4, 0x04, nRst, 0x08
	.byte	nF4, 0x04, nRst, 0x02, nF5, 0x04, nRst, 0x02, nF4, 0x04, nRst, 0x02
	.byte	nF4, 0x04, nRst, 0x08, nF4, 0x04, nRst, 0x02, nF5, 0x04, nRst, 0x02
	.byte	nF4, 0x04, nRst, 0x08, nF5, 0x04, nRst, 0x02, nF4, 0x04, nRst, 0x08
	.byte	nF5, 0x04, nRst, 0x02, nF5, 0x04, nRst, 0x02, nF4, 0x04, nRst, 0x08
	.byte	nF4, 0x04, nRst, 0x02, nF5, 0x04, nRst, 0x02, nF4, 0x04, nRst, 0x02
	.byte	nF4, 0x04, nRst, 0x08, nF4, 0x04, nRst, 0x02, nF5, 0x04, nRst, 0x02
	.byte	nF4, 0x04, nRst, 0x08, nF5, 0x04, nRst, 0x02, nF4, 0x04, nRst, 0x08
	.byte	nF5, 0x04, nRst, 0x02, nF5, 0x04, nRst, 0x02, nF4, 0x04, nRst, 0x08
	.byte	nF4, 0x04, nRst, 0x02, nF5, 0x04, nRst, 0x02, nF4, 0x04, nRst, 0x02
	.byte	nF4, 0x04, nRst, 0x08, nF4, 0x04, nRst, 0x02, nF5, 0x04, nRst, 0x02
	.byte	nF4, 0x04, nRst, 0x08, nF5, 0x04, nRst, 0x02, nF4, 0x04, nRst, 0x08
	.byte	nF5, 0x04, nRst, 0x02, nF5, 0x04, nRst, 0x02, nF4, 0x04, nRst, 0x08
	.byte	nF4, 0x04, nRst, 0x02, nF5, 0x04, nRst, 0x02, nF4, 0x04, nRst, 0x02
	.byte	nF4, 0x04, nRst, 0x08, nF4, 0x04, nRst, 0x02, nF5, 0x04, nRst, 0x02
	.byte	nF4, 0x04, nRst, 0x08, nF5, 0x04, nRst, 0x02, nF4, 0x04, nRst, 0x08
	.byte	nF5, 0x04, nRst, 0x02, nF5, 0x04, nRst, 0x02, nF4, 0x04, nRst, 0x26
	.byte	nF4, 0x04, nRst, 0x02, nF5, 0x04, nRst, 0x02, nF4, 0x04, nRst, 0x08
	.byte	nF5, 0x04, nRst, 0x02, nF4, 0x04, nRst, 0x08, nF5, 0x04, nRst, 0x02
	.byte	nF5, 0x04, nRst, 0x02, nF4, 0x04, nRst, 0x08, nF4, 0x04, nRst, 0x02
	.byte	nF5, 0x04, nRst, 0x02, nF4, 0x04, nRst, 0x02, nF4, 0x04, nRst, 0x08
	.byte	nF4, 0x04, nRst, 0x02, nF5, 0x04, nRst, 0x02, nF4, 0x04, nRst, 0x08
	.byte	nF5, 0x04, nRst, 0x02, nF4, 0x04, nRst, 0x08, nF5, 0x04, nRst, 0x02
	.byte	nF5, 0x04, nRst, 0x02, nF4, 0x04, nRst, 0x08, nF4, 0x04, nRst, 0x02
	.byte	nF5, 0x04, nRst, 0x02, nF4, 0x04, nRst, 0x02, nF4, 0x04, nRst, 0x08
	.byte	nF4, 0x04, nRst, 0x02, nF5, 0x04, nRst, 0x02, nF4, 0x04, nRst, 0x08
	.byte	nF5, 0x04, nRst, 0x02, nF4, 0x04, nRst, 0x08, nF5, 0x04, nRst, 0x02
	.byte	nF5, 0x04, nRst, 0x02, nF4, 0x04, nRst, 0x08, nF4, 0x04, nRst, 0x02
	.byte	nF5, 0x04, nRst, 0x02, nF4, 0x04, nRst, 0x02, nF4, 0x04, nRst, 0x08
	.byte	nF4, 0x04, nRst, 0x02, nF5, 0x04, nRst, 0x02, nF4, 0x04, nRst, 0x08
	.byte	nF5, 0x04, nRst, 0x02, nF4, 0x04, nRst, 0x08, nF5, 0x04, nRst, 0x02
	.byte	nF5, 0x04, nRst, 0x02, nF4, 0x04, nRst, 0x08, nF4, 0x04, nRst, 0x02
	.byte	nF5, 0x04, nRst, 0x02, nF4, 0x04, nRst, 0x02, nF4, 0x04, nRst, 0x08
	.byte	nF4, 0x04, nRst, 0x02, nF5, 0x04, nRst, 0x02, nF4, 0x04, nRst, 0x08
	.byte	nF5, 0x04, nRst, 0x02, nF4, 0x04, nRst, 0x08, nF5, 0x04, nRst, 0x02
	.byte	nF5, 0x04, nRst, 0x02, nF4, 0x04, nRst, 0x08, nF4, 0x04, nRst, 0x02
	.byte	nF5, 0x04, nRst, 0x02, nF4, 0x04, nRst, 0x02, nF4, 0x04, nRst, 0x08
	.byte	nF4, 0x04, nRst, 0x02, nF5, 0x04, nRst, 0x02, nF4, 0x04, nRst, 0x08
	.byte	nF5, 0x04, nRst, 0x02, nF4, 0x04, nRst, 0x08, nF5, 0x04, nRst, 0x02
	.byte	nF5, 0x04, nRst, 0x02, nF4, 0x04, nRst, 0x08, nF4, 0x04, nRst, 0x02
	.byte	nF5, 0x04, nRst, 0x02, nF4, 0x04, nRst, 0x02, nF4, 0x04, nRst, 0x08
	.byte	nF4, 0x04, nRst, 0x02, nF5, 0x04, nRst, 0x02, nF4, 0x04, nRst, 0x08
	.byte	nF5, 0x04, nRst, 0x02, nF4, 0x04, nRst, 0x08, nF5, 0x04, nRst, 0x02
	.byte	nF5, 0x04, nRst, 0x02, nF4, 0x04, nRst, 0x08, nF4, 0x04, nRst, 0x02
	.byte	nF5, 0x04, nRst, 0x02, nF4, 0x04, nRst, 0x02, nF4, 0x04, nRst, 0x08
	.byte	nF4, 0x04, nRst, 0x02, nF5, 0x04, nRst, 0x02, nE4, 0x04, nRst, 0x08
	.byte	nE5, 0x04, nRst, 0x02, nE4, 0x04, nRst, 0x08, nE5, 0x04, nRst, 0x02
	.byte	nE5, 0x04, nRst, 0x02, nE4, 0x04, nRst, 0x32
	smpsJump            Snd_CGZ_Jump05

/*  Unreachable */
	smpsStop

/*  PSG2 Data */
Snd_CGZ_PSG2:
	smpsPSGvoice        sTone_04

Snd_CGZ_Jump04:
	.byte	nRst, 0x60, nRst, nRst, 0x24, nBb3, 0x04, nRst, 0x02, nC4, 0x04, nRst
	.byte	0x02, nD4, 0x34, nRst, 0x08, nD4, 0x04, nRst, 0x14, nBb3, 0x34, nRst
	.byte	0x60, nRst, nRst, 0x2C, nBb3, 0x04, nRst, 0x02, nC4, 0x04, nRst, 0x02
	.byte	nD4, 0x34, nRst, 0x08, nD4, 0x04, nRst, 0x14, nBb3, 0x34, nRst, 0x14
	.byte	nE4, 0x04, nRst, 0x02, nF4, 0x0A, nRst, 0x02, nE4, 0x04, nRst, 0x02
	.byte	nF4, 0x10, nRst, 0x02, nF3, 0x04, nRst, 0x02, nF3, 0x04, nRst, 0x02
	.byte	nF3, 0x04, nRst, 0x1A, nC4, 0x10, nRst, 0x02, nBb3, 0x04, nRst, 0x0E
	.byte	nBb3, 0x0A, nRst, 0x02, nAb3, 0x10, nRst, 0x02, nBb3, 0x10, nRst, 0x02
	.byte	nC4, 0x0A, nRst, 0x0E, nEb4, 0x04, nRst, 0x02, nAb4, 0x0A, nRst, 0x02
	.byte	nEb4, 0x04, nRst, 0x02, nAb4, 0x10, nRst, 0x02, nEb4, 0x04, nRst, 0x02
	.byte	nEb4, 0x04, nRst, 0x02, nEb4, 0x04, nRst, 0x1A, nC4, 0x10, nRst, 0x02
	.byte	nC4, 0x04, nRst, 0x0E, nF3, 0x10, nRst, 0x02, nF3, 0x04, nRst, 0x02
	.byte	nF4, 0x04, nRst, 0x02, nF3, 0x04, nRst, 0x08, nF3, 0x04, nRst, 0x02
	.byte	nF4, 0x04, nRst, 0x14, nE4, 0x04, nRst, 0x02, nF4, 0x0A, nRst, 0x02
	.byte	nE4, 0x04, nRst, 0x02, nF4, 0x10, nRst, 0x02, nF3, 0x04, nRst, 0x02
	.byte	nF3, 0x04, nRst, 0x02, nF3, 0x04, nRst, 0x1A, nC4, 0x10, nRst, 0x02
	.byte	nBb3, 0x04, nRst, 0x0E, nBb3, 0x0A, nRst, 0x02, nAb3, 0x10, nRst, 0x02
	.byte	nBb3, 0x10, nRst, 0x02, nC4, 0x0A, nRst, 0x0E, nEb4, 0x04, nRst, 0x02
	.byte	nBb4, 0x0A, nRst, 0x02, nEb4, 0x04, nRst, 0x02, nBb4, 0x10, nRst, 0x02
	.byte	nEb4, 0x04, nRst, 0x02, nEb4, 0x04, nRst, 0x02, nEb4, 0x04, nRst, 0x20
	.byte	nBb3, 0x04, nRst, 0x08, nCs4, 0x04, nRst, 0x02, nCs4, 0x04, nRst, 0x08
	.byte	nCs4, 0x04, nRst, 0x02, nC4, 0x04, nRst, 0x32
	smpsPSGvoice        sTone_0A
	.byte	nBb3, 0x04, nRst, 0x08, nBb3, 0x04, nRst, 0x02, nA3, 0x04, nRst, 0x08
	.byte	nA3, 0x04, nRst, 0x02, nBb3, 0x04, nRst, 0x38, nBb3, 0x04, nRst, 0x08
	.byte	nBb3, 0x04, nRst, 0x02, nA3, 0x04, nRst, 0x08, nA3, 0x04, nRst, 0x02
	.byte	nBb3, 0x04, nRst, 0x38, nD4, 0x04, nRst, 0x08, nC4, 0x04, nRst, 0x02
	.byte	nD4, 0x04, nRst, 0x08, nC4, 0x04, nRst, 0x08, nD4, 0x04, nRst, 0x08
	.byte	nD4, 0x04, nRst, 0x02, nEb4, 0x04, nRst, 0x08, nF4, 0x04, nRst, 0x08
	.byte	nBb4, 0x04, nRst, 0x02, nF4, 0x04, nRst, 0x60, nRst, 0x02, nBb3, 0x04
	.byte	nRst, 0x08, nBb3, 0x04, nRst, 0x02, nA3, 0x04, nRst, 0x08, nA3, 0x04
	.byte	nRst, 0x02, nBb3, 0x04, nRst, 0x38, nBb3, 0x04, nRst, 0x08, nBb3, 0x04
	.byte	nRst, 0x02, nA3, 0x04, nRst, 0x08, nA3, 0x04, nRst, 0x02, nBb3, 0x04
	.byte	nRst, 0x38, nD4, 0x04, nRst, 0x08, nC4, 0x04, nRst, 0x02, nD4, 0x04
	.byte	nRst, 0x08, nBb3, 0x04, nRst, 0x02, nF4, 0x04, nRst, 0x02, nD4, 0x04
	.byte	nRst, 0x60, nRst, 0x1A, nD3, 0x04, nRst, 0x02, nF3, 0x04, nRst, 0x02
	.byte	nBb3, 0x04, nRst, 0x02, nC4, 0x04, nRst, 0x02, nD4, 0x0A, nRst, 0x02
	.byte	nEb4, 0x04, nRst, 0x02, nF4, 0x04, nRst, 0x0E, nF4, 0x10, nRst, 0x02
	.byte	nG4, 0x10, nRst, 0x02, nA4, 0x04, nRst, 0x08, nBb4, 0x04, nRst, 0x08
	.byte	nC5, 0x0A, nRst, 0x02, nC5, 0x04, nRst, 0x02, nA4, 0x04, nRst, 0x08
	.byte	nA4, 0x04, nRst, 0x02, nBb4, 0x10, nRst, 0x02, nC5, 0x04, nRst, 0x08
	.byte	nBb4, 0x04, nRst, 0x02, nA4, 0x0A, nRst, 0x02, nG4, 0x0A, nRst, 0x02
	.byte	nF4, 0x04, nRst, 0x08, nD4, 0x04, nRst, 0x02, nF4, 0x04, nRst, 0x08
	.byte	nD4, 0x0A, nRst, 0x02, nF4, 0x04, nRst, 0x08, nD4, 0x04, nRst, 0x02
	.byte	nEb4, 0x04, nRst, 0x08, nF4, 0x04, nRst, 0x08, nBb4, 0x04, nRst, 0x02
	.byte	nF4, 0x04, nRst, 0x38, nBb4, 0x10, nRst, 0x02, nC5, 0x0A, nRst, 0x02
	.byte	nD5, 0x0A, nRst, 0x02, nEb5, 0x0A, nRst, 0x02, nC5, 0x04, nRst, 0x02
	.byte	nAb4, 0x0A, nRst, 0x02, nF4, 0x04, nRst, 0x02, nBb4, 0x10, nRst, 0x02
	.byte	nBb4, 0x04, nRst, 0x0E, nC5, 0x0A, nRst, 0x02, nEb5, 0x0A, nRst, 0x02
	.byte	nF5, nG5, 0x08, nRst, 0x02, nEb5, 0x04, nRst, 0x02, nC5, 0x0A, nRst
	.byte	0x02, nAb4, 0x04, nRst, 0x02, nF4, 0x10, nRst, 0x02, nF4, 0x04, nRst
	.byte	0x1A, nBb3, 0x04, nRst, 0x02, nF3, 0x04, nRst, 0x02, nC3, 0x04, nRst
	.byte	0x02, nD3, 0x04, nRst, 0x02, nF3, 0x04, nRst, 0x02, nG3, 0x04, nRst
	.byte	0x02, nD3, 0x04, nRst, 0x02, nF3, 0x04, nRst, 0x02, nG3, 0x04, nRst
	.byte	0x02, nC4, 0x04, nRst, 0x02, nF3, 0x04, nRst, 0x02, nG3, 0x04, nRst
	.byte	0x02, nC4, 0x04, nRst, 0x02, nD4, 0x04, nRst, 0x02, nG3, 0x04, nRst
	.byte	0x02, nC4, 0x04, nRst, 0x02, nD4, 0x04, nRst, 0x02, nF4, 0x04, nRst
	.byte	0x02, nC3, 0x04, nRst, 0x02, nD3, 0x04, nRst, 0x02, nE3, 0x04, nRst
	.byte	0x02, nG3, 0x04, nRst, 0x02, nD3, 0x04, nRst, 0x02, nE3, 0x04, nRst
	.byte	0x02, nG3, 0x04, nRst, 0x02, nC4, 0x04, nRst, 0x32
	smpsJump            Snd_CGZ_Jump04

/*  Unreachable */
	smpsStop

/*  PSG3 Data */
Snd_CGZ_PSG3:
	smpsPSGvoice        sTone_02
	smpsPSGform         0xE7

Snd_CGZ_Loop05:
	smpsCall            Snd_CGZ_Call04
	smpsLoop            0x01, 0x20, Snd_CGZ_Loop05

Snd_CGZ_Loop06:
	smpsPSGvoice        sTone_01
	.byte	nMaxPSG1, 0x06, nMaxPSG1, 0x06, nMaxPSG1, 0x06, nMaxPSG1, 0x06, nMaxPSG1, 0x06, nMaxPSG1, 0x06
	.byte	nMaxPSG1, 0x06, nMaxPSG1, 0x06, nMaxPSG1, 0x06, nMaxPSG1, 0x06, nMaxPSG1, 0x06, nMaxPSG1, 0x06
	.byte	nMaxPSG1, 0x06, nMaxPSG1, 0x06
	smpsPSGvoice        sTone_08
	.byte	nMaxPSG1, 0x06
	smpsPSGvoice        sTone_01
	.byte	nMaxPSG1, 0x06
	smpsLoop            0x01, 0x06, Snd_CGZ_Loop06
	.byte	nMaxPSG1, 0x06, nMaxPSG1, 0x06, nMaxPSG1, 0x06, nMaxPSG1, 0x06, nMaxPSG1, 0x06, nMaxPSG1, 0x06
	.byte	nMaxPSG1, 0x06, nMaxPSG1, 0x06, nMaxPSG1, 0x06, nMaxPSG1, 0x06, nMaxPSG1, 0x06, nMaxPSG1, 0x06
	.byte	nMaxPSG1, 0x06, nMaxPSG1, 0x06
	smpsPSGvoice        sTone_08
	.byte	nMaxPSG1, 0x06
	smpsPSGvoice        sTone_01
	.byte	nMaxPSG1, 0x60, 0x06

Snd_CGZ_Loop07:
	smpsCall            Snd_CGZ_Call04
	smpsLoop            0x01, 0x1E, Snd_CGZ_Loop07
	.byte	nMaxPSG1, 0x06, nMaxPSG1, 0x06
	smpsPSGvoice        sTone_08
	.byte	nMaxPSG1, 0x06
	smpsPSGvoice        sTone_01
	.byte	nMaxPSG1, 0x1E

Snd_CGZ_Loop08:
	smpsCall            Snd_CGZ_Call04
	smpsLoop            0x01, 0x1D, Snd_CGZ_Loop08
	.byte	nMaxPSG1, 0x06, nMaxPSG1, 0x06
	smpsPSGvoice        sTone_08
	.byte	nMaxPSG1, 0x06
	smpsPSGvoice        sTone_01
	.byte	nMaxPSG1, 0x36
	smpsJump            Snd_CGZ_Loop05

/*  Unreachable */
	smpsStop

Snd_CGZ_Call04:
	smpsPSGvoice        sTone_01
	.byte	nMaxPSG1, 0x06, nMaxPSG1, 0x06
	smpsPSGvoice        sTone_08
	.byte	nMaxPSG1, 0x06
	smpsPSGvoice        sTone_01
	.byte	nMaxPSG1, 0x06
	smpsReturn

