Snd_CNZ1_Header:
	smpsHeaderStartSong 3, 1
	smpsHeaderVoiceUVB
	smpsHeaderChan      0x06, 0x03
	smpsHeaderTempo     0x01, 0x31

	smpsHeaderDAC       Snd_CNZ1_DAC,	0x00, 0x0A
	smpsHeaderFM        Snd_CNZ1_FM1,	0x03, 0x15
	smpsHeaderFM        Snd_CNZ1_FM2,	0x03, 0x15
	smpsHeaderFM        Snd_CNZ1_FM3,	0x03, 0x14
	smpsHeaderFM        Snd_CNZ1_FM4,	0x1B, 0x12
	smpsHeaderFM        Snd_CNZ1_FM5,	0x03, 0x18
	smpsHeaderPSG       Snd_CNZ1_PSG1,	0x03, 0x05, 0x00, sTone_0C
	smpsHeaderPSG       Snd_CNZ1_PSG2,	0x03, 0x05, 0x00, sTone_0C
	smpsHeaderPSG       Snd_CNZ1_PSG3,	0x00, 0x03, 0x00, sTone_0C

/*  DAC Data */
Snd_CNZ1_DAC:
	.byte	dKickS3, 0x18, dKickS3, 0x14, dSnareS3, 0x0C, dKickS3, 0x04, dKickS3, 0x18, dSnareS3, 0x0C
	.byte	dKickS3, 0x14, dKickS3, 0x18, dKickS3, 0x04, dKickS3, 0x20, dSnareS3, 0x04, dSnareS3, 0x08
	.byte	dSnareS3, 0x04, dKickS3, 0x18, dKickS3, 0x14, dSnareS3, 0x0C, dKickS3, 0x04, dKickS3, 0x18
	.byte	dSnareS3, 0x0C, dKickS3, 0x14, dKickS3, 0x18, dKickS3, 0x04, dKickS3, 0x08, dSnareS3, 0x10
	.byte	dSnareS3, 0x08, dSnareS3, 0x04, dSnareS3, dSnareS3, dSnareS3, dKickS3, 0x08, dKickS3, 0x04, dSnareS3
	.byte	0x0C, dKickS3, 0x08, dKickS3, 0x04, dSnareS3, 0x08, dKickS3, 0x0C, dKickS3, 0x04, dSnareS3
	.byte	0x0C, dKickS3, 0x08, dKickS3, 0x04, dSnareS3, 0x0C, dKickS3, 0x08, dKickS3, 0x04, dSnareS3
	.byte	0x0C, dKickS3, 0x08, dKickS3, 0x04, dSnareS3, 0x08, dKickS3, 0x0C, dKickS3, 0x04, dSnareS3
	.byte	0x0C, dKickS3, 0x08, dKickS3, 0x04, dSnareS3, 0x0C, dKickS3, 0x08, dKickS3, 0x04, dSnareS3
	.byte	0x0C, dKickS3, 0x08, dKickS3, 0x04, dSnareS3, 0x08, dKickS3, 0x0C, dKickS3, 0x04, dSnareS3
	.byte	0x0C, dKickS3, 0x08, dKickS3, 0x04, dSnareS3, 0x0C, dKickS3, 0x08, dKickS3, 0x04, dSnareS3
	.byte	0x0C, dKickS3, 0x08, dKickS3, 0x04, dSnareS3, 0x08, dKickS3, 0x0C, dKickS3, 0x04, dSnareS3
	.byte	0x0C, dKickS3, 0x08, dKickS3, 0x04, dSnareS3, dSnareS3, dSnareS3, dKickS3, 0x08, dKickS3, 0x04
	.byte	dSnareS3, 0x0C, dKickS3, 0x08, dKickS3, 0x04, dSnareS3, 0x08, dKickS3, 0x0C, dKickS3, 0x04
	.byte	dSnareS3, 0x0C, dKickS3, 0x08, dKickS3, 0x04, dSnareS3, 0x0C, dKickS3, 0x08, dKickS3, 0x04
	.byte	dSnareS3, 0x0C, dKickS3, 0x08, dKickS3, 0x04, dSnareS3, 0x08, dKickS3, 0x0C, dKickS3, 0x04
	.byte	dSnareS3, 0x0C, dKickS3, 0x08, dKickS3, 0x04, dSnareS3, 0x0C, dKickS3, 0x08, dKickS3, 0x04
	.byte	dSnareS3, 0x0C, dKickS3, 0x08, dKickS3, 0x04, dSnareS3, 0x08, dKickS3, 0x0C, dKickS3, 0x04
	.byte	dSnareS3, 0x0C, dKickS3, 0x08, dKickS3, 0x04, dSnareS3, 0x0C, dKickS3, 0x08, dSnareS3, 0x04
	.byte	dKickS3, 0x08, dSnareS3, 0x04, dKickS3, 0x08, dSnareS3, 0x04, dKickS3, 0x08, dSnareS3, 0x04
	.byte	dKickS3, 0x08, dKickS3, 0x04, dSnareS3, 0x0C, dKickS3, 0x08, dKickS3, 0x04, dSnareS3, dSnareS3
	.byte	dSnareS3, dKickS3, 0x0C, dSnareS3, dKickS3, dSnareS3, 0x08, dKickS3, 0x0C, dKickS3, 0x04, dSnareS3
	.byte	0x08
	smpsPan             panRight, 0x00
	.byte	dClapS3, 0x04
	smpsPan             panCenter, 0x00
	.byte	dKickS3, 0x08, dClapS3, 0x04, dSnareS3, 0x08
	smpsPan             panLeft, 0x00
	.byte	dClapS3, 0x04
	smpsPan             panCenter, 0x00
	.byte	dKickS3, 0x0C, dSnareS3, dKickS3, dSnareS3, 0x08, dKickS3, 0x0C, dKickS3, 0x04, dSnareS3, 0x08
	smpsPan             panLeft, 0x00
	.byte	dClapS3, 0x04
	smpsPan             panCenter, 0x00
	.byte	dKickS3, 0x08, dClapS3, 0x04, dSnareS3, 0x08
	smpsPan             panRight, 0x00
	.byte	dClapS3, 0x04
	smpsPan             panCenter, 0x00
	.byte	dKickS3, 0x0C, dSnareS3, dKickS3, dSnareS3, 0x08, dKickS3, 0x0C, dKickS3, 0x04, dSnareS3, 0x08
	smpsPan             panRight, 0x00
	.byte	dClapS3, 0x04
	smpsPan             panCenter, 0x00
	.byte	dKickS3, 0x08, dClapS3, 0x04, dSnareS3, 0x08
	smpsPan             panLeft, 0x00
	.byte	dClapS3, 0x04
	smpsPan             panCenter, 0x00
	.byte	dKickS3, 0x0C
	smpsPan             panLeft, 0x00
	.byte	dHighTom, 0x08, dMidTomS3, 0x04
	smpsPan             panCenter, 0x00
	.byte	dKickS3, 0x08
	smpsPan             panRight, 0x00
	.byte	dLowTomS3, 0x04, dFloorTomS3, 0x08
	smpsPan             panCenter, 0x00
	.byte	dSnareS3, 0x0C, dKickS3, 0x04, dSnareS3, 0x0C, dKickS3, dSnareS3, 0x04, dSnareS3, dSnareS3, dKickS3
	.byte	0x0C, dSnareS3, dKickS3, dSnareS3, 0x08, dKickS3, 0x0C, dKickS3, 0x04, dSnareS3, 0x08
	smpsPan             panRight, 0x00
	.byte	dClapS3, 0x04
	smpsPan             panCenter, 0x00
	.byte	dKickS3, 0x08, dClapS3, 0x04, dSnareS3, 0x08
	smpsPan             panLeft, 0x00
	.byte	dClapS3, 0x04
	smpsPan             panCenter, 0x00
	.byte	dKickS3, 0x0C, dSnareS3, dKickS3, dSnareS3, 0x08, dKickS3, 0x0C, dKickS3, 0x04, dSnareS3, 0x08
	smpsPan             panLeft, 0x00
	.byte	dClapS3, 0x04
	smpsPan             panCenter, 0x00
	.byte	dKickS3, 0x08, dClapS3, 0x04, dSnareS3, 0x08
	smpsPan             panRight, 0x00
	.byte	dClapS3, 0x04
	smpsPan             panCenter, 0x00
	.byte	dKickS3, 0x0C, dSnareS3, dKickS3, dSnareS3, 0x08, dKickS3, 0x0C, dSnareS3, dSnareS3, 0x04, dSnareS3
	.byte	0x0C, dSnareS3, dKickS3, dSnareS3, dKickS3, dSnareS3, 0x08, dSnareS3, 0x0C, dSnareS3, 0x10, dSnareS3
	.byte	0x04, dSnareS3, dSnareS3, dSnareS3, dSnareS3, dSnareS3, dKickS3, 0x08, dKickS3, 0x04, dSnareS3, 0x08
	.byte	dKickS3, 0x0C, dKickS3, 0x04, dSnareS3, 0x14, dKickS3, 0x04, dSnareS3, 0x08, dKickS3, 0x04
	.byte	dKickS3, 0x0C, dSnareS3, dKickS3, 0x08, dKickS3, 0x04, dSnareS3, 0x08, dKickS3, 0x0C, dKickS3
	.byte	0x04, dSnareS3, 0x14, dKickS3, 0x04, dSnareS3, 0x08, dKickS3, 0x04, dSnareS3, 0x0C, dSnareS3
	.byte	dKickS3, 0x08, dKickS3, 0x04, dSnareS3, 0x08, dKickS3, 0x0C, dKickS3, 0x04, dSnareS3, 0x14
	.byte	dKickS3, 0x04, dSnareS3, 0x08, dKickS3, 0x04, dKickS3, 0x0C, dSnareS3, dKickS3, dSnareS3, 0x08
	.byte	dKickS3, 0x0C, dKickS3, 0x04, dSnareS3, 0x08, dKickS3, 0x0C, dSnareS3, dSnareS3, 0x04, dSnareS3
	.byte	0x0C, dSnareS3, 0x04, dSnareS3, dSnareS3, dKickS3, 0x08, dKickS3, 0x04, dSnareS3, 0x08, dKickS3
	.byte	0x0C, dKickS3, 0x04, dSnareS3, 0x14, dKickS3, 0x04, dSnareS3, 0x08, dKickS3, 0x04, dKickS3
	.byte	0x0C, dSnareS3, dKickS3, 0x08, dKickS3, 0x04, dSnareS3, 0x08, dKickS3, 0x0C, dKickS3, 0x04
	.byte	dSnareS3, 0x14, dKickS3, 0x04, dSnareS3, 0x08, dKickS3, 0x04, dSnareS3, 0x0C, dSnareS3, dKickS3
	.byte	0x08, dKickS3, 0x04, dSnareS3, 0x08, dKickS3, 0x0C, dKickS3, 0x04, dSnareS3, 0x14, dKickS3
	.byte	0x04, dSnareS3, 0x08, dKickS3, 0x04, dKickS3, 0x0C, dSnareS3, 0x04, dSnareS3, dSnareS3, dSnareS3
	.byte	0x08, dSnareS3, 0x0C, dSnareS3, 0x04, dSnareS3, 0x0C, dSnareS3, 0x08, dSnareS3, 0x0C, dSnareS3
	.byte	0x04, dSnareS3, 0x08, dSnareS3, 0x04, dSnareS3, 0x0C, dSnareS3
	smpsJump            Snd_CNZ1_DAC

/*  FM1 Data */
Snd_CNZ1_FM1:
	smpsPan             panLeft, 0x00

Snd_CNZ1_Jump03:
	smpsSetvoice        0x1C
	smpsDetune          0x01
	smpsModSet          0x0A, 0x01, 0x03, 0x06
	smpsPan             panRight, 0x00
	.byte	nC4, 0x14, nC4, 0x04, nRst, 0x08, nC4, 0x0C, nC4, 0x04, nRst, 0x18
	.byte	nEb4, 0x02, nE4, 0x06, nC4, 0x04, nRst, 0x0C, nBb3, 0x08, nBb3, 0x04
	.byte	nRst, 0x08, nBb3, 0x04, nRst, 0x08, nBb3, 0x04, nRst, 0x08, nBb3, 0x04
	.byte	nBb3, 0x0C, nA3, nRst, 0x08, nA3, 0x02, nA3, nBb3, 0x0C, nC4, 0x14
	.byte	nC4, 0x04, nRst, 0x08, nC4, 0x0C, nC4, 0x04, nRst, 0x18, nEb4, 0x02
	.byte	nE4, 0x06, nC4, 0x04, nRst, 0x0C, nBb3, 0x08, nBb3, 0x04, nRst, 0x08
	.byte	nBb3, 0x04, nRst, 0x08, nBb3, 0x04, nRst, 0x08, nBb3, 0x04, nBb3, 0x0C
	.byte	nA3, nRst, 0x08, nA3, 0x02, nA3, nBb3, 0x0C, nC4, 0x14, nC4, 0x04
	.byte	nE4, 0x14, nC4, 0x04, nRst, 0x08, nRst, 0x04, nRst, 0x12, nRst, nBb3
	.byte	0x08, nBb3, 0x04, nRst, 0x08, nBb3, 0x04, nRst, 0x08, nBb3, 0x04, nRst
	.byte	0x08, nBb3, 0x04, nBb3, 0x0C, nA3, nRst, 0x18, nC4, 0x14, nC4, 0x04
	.byte	nE4, 0x14, nC4, 0x04, nRst, 0x08, nRst, 0x04, nRst, 0x12, nRst, nBb3
	.byte	0x08, nBb3, 0x04, nRst, 0x08, nBb3, 0x04, nRst, 0x08, nBb3, 0x04, nRst
	.byte	0x08, nBb3, 0x04, nBb3, 0x0C, nA3, nRst, 0x18, nC4, 0x14, nC4, 0x04
	.byte	nE4, 0x14, nC4, 0x04, nRst, 0x08, nRst, 0x04, nRst, 0x12, nRst, nBb3
	.byte	0x08, nBb3, 0x04, nRst, 0x08, nBb3, 0x04, nRst, 0x08, nBb3, 0x04, nRst
	.byte	0x08, nBb3, 0x04, nBb3, 0x0C, nA3, nRst, 0x18, nC4, 0x14, nC4, 0x04
	.byte	nE4, 0x14, nC4, 0x04, nRst, 0x08, nRst, 0x04, nRst, 0x12, nRst, nF3
	.byte	0x08, nF3, 0x04, nRst, 0x08, nE3, 0x04, nRst, 0x08, nE3, 0x0C, nE3
	.byte	0x04, nD3, 0x0C, nD3, nE3, 0x04, nRst, 0x18
	smpsSetvoice        0x0D
	smpsDetune          0x03
	smpsModSet          0x0F, 0x01, 0x06, 0x06
	smpsFMAlterVol      0x02
	.byte	nRst, 0x08, nC4, nC4, 0x04, nB3, 0x0C, nB3, 0x08, nC4, 0x04, nRst
	.byte	0x08
	smpsSetvoice        0x0D
	smpsDetune          0x01
	smpsModSet          0x0A, 0x01, 0x03, 0x06
	smpsPan             panRight, 0x00
	smpsFMAlterVol      0xFE
	.byte	nB2, 0x0C, nC3, 0x04, nRst, 0x08, nC3, 0x04, nB2, 0x08, nC3, 0x04
	.byte	nRst
	smpsSetvoice        0x0D
	smpsDetune          0x03
	smpsModSet          0x0F, 0x01, 0x06, 0x06
	smpsFMAlterVol      0x02
	.byte	nRst, 0x08, nG3, nG3, 0x04, nE3, 0x0C, nE3, 0x08, nG3, 0x04, nRst
	.byte	0x08
	smpsSetvoice        0x1C
	smpsDetune          0x01
	smpsModSet          0x0A, 0x01, 0x03, 0x06
	smpsPan             panRight, 0x00
	smpsFMAlterVol      0xFE
	.byte	nG3, 0x0C, nB3, 0x04, nRst, 0x08, nB3, 0x04, nG3, 0x08, nE3, 0x04
	.byte	nRst
	smpsSetvoice        0x0D
	smpsDetune          0x03
	smpsModSet          0x0F, 0x01, 0x06, 0x06
	smpsFMAlterVol      0x02
	.byte	nRst, 0x08, nA3, nA3, 0x04, nF3, 0x0C, nF3, 0x08, nA3, 0x04, nRst
	.byte	0x08
	smpsSetvoice        0x1C
	smpsDetune          0x01
	smpsModSet          0x0A, 0x01, 0x03, 0x06
	smpsPan             panRight, 0x00
	smpsFMAlterVol      0xFE
	.byte	nRst, 0x0C, nC3, nC3, 0x04, nA2, 0x08, nC3, 0x04, nA3, 0x18, nA3
	.byte	0x14, nG3, 0x04, nRst, 0x34
	smpsSetvoice        0x0D
	smpsDetune          0x03
	smpsModSet          0x0F, 0x01, 0x06, 0x06
	smpsFMAlterVol      0x02
	.byte	nRst, 0x08, nC4, nC4, 0x04, nB3, 0x0C, nB3, 0x08, nC4, 0x04, nRst
	.byte	0x08
	smpsSetvoice        0x1C
	smpsDetune          0x01
	smpsModSet          0x0A, 0x01, 0x03, 0x06
	smpsPan             panRight, 0x00
	smpsFMAlterVol      0xFE
	.byte	nB2, 0x0C, nC3, 0x04, nRst, 0x08, nC3, 0x04, nB2, 0x08, nC3, 0x04
	.byte	nRst
	smpsSetvoice        0x0D
	smpsDetune          0x03
	smpsModSet          0x0F, 0x01, 0x06, 0x06
	smpsFMAlterVol      0x02
	.byte	nRst, 0x08, nG3, nG3, 0x04, nE3, 0x0C, nE3, 0x08, nG3, 0x04, nRst
	.byte	0x08
	smpsSetvoice        0x1C
	smpsDetune          0x01
	smpsModSet          0x0A, 0x01, 0x03, 0x06
	smpsPan             panRight, 0x00
	smpsFMAlterVol      0xFE
	.byte	nG3, 0x0C, nB3, 0x04, nRst, 0x08, nB3, 0x04, nG3, 0x08, nE3, 0x04
	.byte	nRst
	smpsSetvoice        0x0D
	smpsDetune          0x03
	smpsModSet          0x0F, 0x01, 0x06, 0x06
	smpsFMAlterVol      0x02
	.byte	nRst, 0x08, nA3, nA3, 0x04, nF3, 0x0C, nF3, 0x08, nA3, 0x04, nRst
	.byte	0x08
	smpsSetvoice        0x1C
	smpsDetune          0x01
	smpsModSet          0x0A, 0x01, 0x03, 0x06
	smpsPan             panRight, 0x00
	smpsFMAlterVol      0xFE
	.byte	nF3, 0x10, nFs3, 0x0C, nA3, nBb3, 0x18, nD4, 0x14, nE4, 0x04, nRst
	.byte	0x08, nG4, 0x10, nBb4, 0x0C, nBb4, nC4, 0x08, nC4, 0x04, nC4, 0x08
	.byte	nC4, 0x04, nRst, 0x0C, nE4, 0x14, nF4, 0x04, nRst, 0x08, nF4, 0x04
	.byte	nE4, 0x08, nRst, 0x10, nBb3, 0x08, nBb3, 0x04, nBb3, 0x08, nBb3, 0x04
	.byte	nRst, 0x0C, nD4, 0x14, nEb4, 0x04, nRst, 0x08, nEb4, 0x04, nD4, 0x08
	.byte	nRst, 0x10, nBb3, 0x08, nBb3, 0x04, nBb3, 0x08, nBb3, 0x04, nRst, 0x0C
	.byte	nBb3, 0x08, nF3, 0x0C, nA3, 0x04, nRst, 0x08, nBb3, 0x04, nA3, 0x08
	.byte	nRst, 0x10
	smpsSetvoice        0x18
	smpsDetune          0x01
	smpsModSet          0x0A, 0x01, 0x06, 0x06
	.byte	nBb4, 0x18, nBb4, 0x14, nA4, 0x04, nRst, 0x08
	smpsSetvoice        0x1C
	smpsDetune          0x01
	smpsModSet          0x0A, 0x01, 0x03, 0x06
	smpsPan             panRight, 0x00
	.byte	nBb3, 0x0C, nG3, 0x04, nBb3, 0x0C, nD4, nC4, 0x08, nC4, 0x04, nC4
	.byte	0x08, nC4, 0x04, nRst, 0x0C, nE4, 0x14, nF4, 0x04, nRst, 0x08, nF4
	.byte	0x04, nE4, 0x18, nBb3, 0x08, nBb3, 0x04, nBb3, 0x08, nBb3, 0x04, nRst
	.byte	0x0C, nD4, 0x14, nEb4, 0x04, nRst, 0x08, nEb4, 0x04, nD4, 0x18, nBb3
	.byte	0x08, nBb3, 0x04, nBb3, 0x08, nBb3, 0x04, nRst, 0x0C, nBb3, 0x08, nF3
	.byte	0x0C, nA3, 0x04, nRst, 0x08, nBb3, 0x04, nA3, 0x18
	smpsSetvoice        0x18
	smpsDetune          0x01
	smpsModSet          0x0A, 0x01, 0x06, 0x06
	.byte	nB3, 0x04, nRst, nB3, nRst, 0x08, nB3, 0x04, nB3, nRst, 0x08, nB3
	.byte	0x04, nRst, nB3, nRst, 0x08, nB3, 0x04, nB3, 0x0C, nA3, 0x02, nG3
	.byte	nF3, nE3, nD3, nC3, nB2, nRst, 0x0A
	smpsJump            Snd_CNZ1_Jump03

/*  FM2 Data */
Snd_CNZ1_FM2:
	smpsPan             panRight, 0x00

Snd_CNZ1_Jump02:
	smpsSetvoice        0x1C
	smpsDetune          0xFF
	smpsModSet          0x0A, 0x01, 0x03, 0x06
	smpsPan             panLeft, 0x00
	.byte	nE3, 0x14, nE3, 0x04, nRst, 0x08, nE3, 0x0C, nE3, 0x04, nRst, 0x0C
	.byte	nE3, 0x04, nG3, nC4, nG3, 0x08, nE3, 0x04, nRst, 0x0C, nD3, 0x08
	.byte	nD3, 0x04, nRst, 0x08, nD3, 0x04, nRst, 0x08, nD3, 0x04, nRst, 0x08
	.byte	nD3, 0x04, nD3, 0x0C, nC3, nRst, 0x08, nC3, 0x02, nC3, nD3, 0x0C
	.byte	nE3, 0x14, nE3, 0x04, nRst, 0x08, nE3, 0x0C, nE3, 0x04, nRst, 0x0C
	.byte	nE3, 0x04, nG3, nC4, nG3, 0x08, nE3, 0x04, nRst, 0x0C, nD3, 0x08
	.byte	nD3, 0x04, nRst, 0x08, nD3, 0x04, nRst, 0x08, nD3, 0x04, nRst, 0x08
	.byte	nD3, 0x04, nD3, 0x0C, nC3, nRst, 0x08, nC3, 0x02, nC3, nD3, 0x0C
	.byte	nE3, 0x14, nE3, 0x04, nG3, 0x14, nE3, 0x04, nRst, 0x08, nC4, 0x04
	.byte	nC5, 0x12, nRst, nD3, 0x08, nD3, 0x04, nRst, 0x08, nD3, 0x04, nRst
	.byte	0x08, nD3, 0x04, nRst, 0x08, nD3, 0x04, nD3, 0x0C, nC3, nRst, 0x18
	.byte	nE3, 0x14, nE3, 0x04, nG3, 0x14, nE3, 0x04, nRst, 0x08, nC4, 0x04
	.byte	nC5, 0x12, nRst, nD3, 0x08, nD3, 0x04, nRst, 0x08, nD3, 0x04, nRst
	.byte	0x08, nD3, 0x04, nRst, 0x08, nD3, 0x04, nD3, 0x0C, nC3, nRst, 0x18
	.byte	nE3, 0x14, nE3, 0x04, nG3, 0x14, nE3, 0x04, nRst, 0x08, nC4, 0x04
	.byte	nC5, 0x12, nRst, nD3, 0x08, nD3, 0x04, nRst, 0x08, nD3, 0x04, nRst
	.byte	0x08, nD3, 0x04, nRst, 0x08, nD3, 0x04, nD3, 0x0C, nC3, nRst, 0x18
	.byte	nE3, 0x14, nE3, 0x04, nG3, 0x14, nE3, 0x04, nRst, 0x08, nC4, 0x04
	.byte	nC5, 0x12, nRst, nBb2, 0x08, nBb2, 0x04, nRst, 0x08, nC3, 0x04, nRst
	.byte	0x08, nC3, 0x0C, nC3, 0x04, nBb2, 0x0C, nBb2, nBb2, 0x04, nRst, 0x18
	smpsSetvoice        0x0D
	smpsDetune          0xFD
	smpsModSet          0x0F, 0x01, 0x06, 0x06
	smpsFMAlterVol      0x02
	.byte	nRst, 0x08, nA3, nA3, 0x04, nG3, 0x0C, nG3, 0x08, nA3, 0x04, nRst
	.byte	0x08
	smpsSetvoice        0x1C
	smpsDetune          0xFF
	smpsModSet          0x0A, 0x01, 0x03, 0x06
	smpsPan             panLeft, 0x00
	smpsFMAlterVol      0xFE
	.byte	nG2, 0x0C, nA2, 0x04, nRst, 0x08, nA2, 0x04, nG2, 0x08, nA2, 0x04
	.byte	nRst
	smpsSetvoice        0x0D
	smpsDetune          0xFD
	smpsModSet          0x0F, 0x01, 0x06, 0x06
	smpsFMAlterVol      0x02
	.byte	nRst, 0x08, nE3, nE3, 0x04, nC3, 0x0C, nC3, 0x08, nE3, 0x04, nRst
	.byte	0x08
	smpsSetvoice        0x1C
	smpsDetune          0xFF
	smpsModSet          0x0A, 0x01, 0x03, 0x06
	smpsPan             panLeft, 0x00
	smpsFMAlterVol      0xFE
	.byte	nE3, 0x0C, nG3, 0x04, nRst, 0x08, nG3, 0x04, nE3, 0x08, nC3, 0x04
	.byte	nRst
	smpsSetvoice        0x0D
	smpsDetune          0xFD
	smpsModSet          0x0F, 0x01, 0x06, 0x06
	smpsFMAlterVol      0x02
	.byte	nRst, 0x08, nF3, nF3, 0x04, nD3, 0x0C, nD3, 0x08, nF3, 0x04, nRst
	.byte	0x08
	smpsSetvoice        0x1C
	smpsDetune          0xFF
	smpsModSet          0x0A, 0x01, 0x03, 0x06
	smpsPan             panLeft, 0x00
	smpsFMAlterVol      0xFE
	.byte	nRst, 0x0C, nA2, nA2, 0x04, nF2, 0x08, nA2, 0x04, nC3, 0x18, nC3
	.byte	0x14, nB2, 0x04, nRst, 0x08, nG3, 0x04, nG3, 0x08, nA3, 0x04, nB3
	.byte	0x08, nG3, 0x04, nA3, 0x08, nB3, 0x04, nRst
	smpsSetvoice        0x0D
	smpsDetune          0xFD
	smpsModSet          0x0F, 0x01, 0x06, 0x06
	smpsFMAlterVol      0x02
	.byte	nRst, 0x08, nA3, nA3, 0x04, nG3, 0x0C, nG3, 0x08, nA3, 0x04, nRst
	.byte	0x08
	smpsSetvoice        0x1C
	smpsDetune          0xFF
	smpsModSet          0x0A, 0x01, 0x03, 0x06
	smpsPan             panLeft, 0x00
	smpsFMAlterVol      0xFE
	.byte	nG2, 0x0C, nA2, 0x04, nRst, 0x08, nA2, 0x04, nG2, 0x08, nA2, 0x04
	.byte	nRst
	smpsSetvoice        0x0D
	smpsDetune          0xFD
	smpsModSet          0x0F, 0x01, 0x06, 0x06
	smpsFMAlterVol      0x02
	.byte	nRst, 0x08, nE3, nE3, 0x04, nC3, 0x0C, nC3, 0x08, nE3, 0x04, nRst
	.byte	0x08
	smpsSetvoice        0x1C
	smpsDetune          0xFF
	smpsModSet          0x0A, 0x01, 0x03, 0x06
	smpsPan             panLeft, 0x00
	smpsFMAlterVol      0xFE
	.byte	nE3, 0x0C, nG3, 0x04, nRst, 0x08, nG3, 0x04, nE3, 0x08, nC3, 0x04
	.byte	nRst
	smpsSetvoice        0x0D
	smpsDetune          0xFD
	smpsModSet          0x0F, 0x01, 0x06, 0x06
	smpsFMAlterVol      0x02
	.byte	nRst, 0x08, nF3, nF3, 0x04, nD3, 0x0C, nD3, 0x08, nF3, 0x04, nRst
	.byte	0x08
	smpsSetvoice        0x1C
	smpsDetune          0xFF
	smpsModSet          0x0A, 0x01, 0x03, 0x06
	smpsPan             panLeft, 0x00
	smpsFMAlterVol      0xFE
	.byte	nD3, 0x10, nD3, 0x0C, nC3, nD3, 0x18, nBb3, 0x14, nBb3, 0x04, nRst
	.byte	0x08, nBb3, 0x10, nD4, 0x0C, nE4, nA3, 0x08, nA3, 0x04, nA3, 0x08
	.byte	nA3, 0x04, nRst, 0x0C, nG3, 0x14, nA3, 0x04, nRst, 0x08, nA3, 0x04
	.byte	nG3, 0x08, nRst, 0x10, nG3, 0x08, nG3, 0x04, nG3, 0x08, nG3, 0x04
	.byte	nRst, 0x0C, nF3, 0x14, nG3, 0x04, nRst, 0x08, nG3, 0x04, nF3, 0x08
	.byte	nRst, 0x10, nF3, 0x08, nF3, 0x04, nF3, 0x08, nF3, 0x04, nRst, 0x0C
	.byte	nF3, 0x08, nC3, 0x0C, nC3, 0x04, nRst, 0x08, nD3, 0x04, nC3, 0x08
	.byte	nRst, 0x10
	smpsSetvoice        0x18
	smpsDetune          0x01
	smpsModSet          0x0A, 0x01, 0x06, 0x06
	.byte	nD4, 0x18, nD4, 0x14, nC4, 0x04, nRst, 0x08
	smpsSetvoice        0x1C
	smpsDetune          0xFF
	smpsModSet          0x0A, 0x01, 0x03, 0x06
	smpsPan             panLeft, 0x00
	.byte	nG3, 0x0C, nEb3, 0x04, nG3, 0x0C, nBb3, nA3, 0x08, nA3, 0x04, nA3
	.byte	0x08, nA3, 0x04, nRst, 0x0C, nG3, 0x14, nA3, 0x04, nRst, 0x08, nA3
	.byte	0x04, nG3, 0x18, nG3, 0x08, nG3, 0x04, nG3, 0x08, nG3, 0x04, nRst
	.byte	0x0C, nF3, 0x14, nG3, 0x04, nRst, 0x08, nG3, 0x04, nF3, 0x18, nF3
	.byte	0x08, nF3, 0x04, nF3, 0x08, nF3, 0x04, nRst, 0x0C, nF3, 0x08, nC3
	.byte	0x0C, nC3, 0x04, nRst, 0x08, nD3, 0x04, nC3, 0x18
	smpsSetvoice        0x18
	smpsDetune          0x01
	smpsModSet          0x0A, 0x01, 0x06, 0x06
	.byte	nF3, 0x04, nRst, nF3, nRst, 0x08, nF3, 0x04, nF3, nRst, 0x08, nF3
	.byte	0x04, nRst, nF3, nRst, 0x08, nF3, 0x04, nF3, 0x0C, nE3, 0x02, nD3
	.byte	nC3, nB2, nA2, nG2, nF2, nRst, 0x0A
	smpsJump            Snd_CNZ1_Jump02

/*  FM3 Data */
Snd_CNZ1_FM3:
	smpsSetvoice        0x05
	smpsDetune          0xFD
	smpsModSet          0x14, 0x01, 0x07, 0x06

Snd_CNZ1_Jump01:
	.byte	nC4, 0x0C, nBb3, 0x02, nA3, nG3, nF3, nE3, nD3, nC3, nBb2, nA2
	.byte	nG2, nC4, 0x0C, nC4, 0x04, nRst, 0x30, nBb3, 0x08, nBb3, 0x04, nRst
	.byte	0x08, nBb3, 0x04, nRst, 0x08, nBb3, 0x04, nRst, 0x08, nBb3, 0x04, nBb3
	.byte	0x0C, nA3, nRst, 0x08, nA3, 0x04, nBb3, 0x0C, nC4, nBb3, 0x02, nA3
	.byte	nG3, nF3, nE3, nD3, nC3, nBb2, nA2, nG2, nC4, 0x0C, nC4, 0x04
	.byte	nRst, 0x30, nBb3, 0x08, nBb3, 0x04, nRst, 0x08, nBb3, 0x04, nRst, 0x08
	.byte	nBb3, 0x04, nRst, 0x08, nBb3, 0x04, nBb3, 0x0C, nA3, nE4, 0x18, nC4
	.byte	nRst, 0x2C, nE4, 0x04, nD4, nRst, 0x08, nC4, 0x04, nRst, 0x08, nBb3
	.byte	0x18, nBb3, nBb3, 0x04, nRst, 0x08, nA3, 0x04, nRst, 0x08, nA3, 0x04
	.byte	nRst, 0x08, nA3, nG3, 0x1C, nRst, 0x2C, nE4, 0x04, nD4, nRst, 0x08
	.byte	nC4, 0x04, nRst, 0x08, nBb3, 0x18, nBb3, nBb3, 0x08, nRst, 0x04, nA3
	.byte	0x08, nRst, 0x04, nE4, 0x18, nC4, nRst, 0x2C, nE4, 0x04, nD4, nRst
	.byte	0x08, nC4, 0x04, nRst, 0x08, nBb3, 0x18, nBb3, nBb3, 0x04, nRst, 0x08
	.byte	nA3, 0x04, nRst, 0x08, nA3, 0x04, nRst, 0x08, nA3, nG3, 0x1C, nRst
	.byte	0x2C, nE4, 0x04, nD4, nRst, 0x08, nC4, 0x04, nRst, 0x08, nG3, 0x14
	.byte	nA3, 0x04, nRst, 0x08, nA3, 0x0C, nA3, 0x04, nBb3, nRst, 0x08, nBb3
	.byte	0x04, nRst, 0x08, nC4, 0x04, nRst, 0x08
	smpsSetvoice        0x10
	smpsDetune          0x01
	smpsModSet          0x0F, 0x01, 0x07, 0x06
	smpsFMAlterVol      0x04
	.byte	nC4, nD4, 0x04, nF4, 0x50, nC4, 0x04, nB3, 0x08, nC4, 0x04, nC4
	.byte	0x2C, nRst, 0x28, nD4, 0x08, nE4, 0x04, nF4, 0x18, nD4, 0x14, nF4
	.byte	0x04, nRst, 0x08, nD4, 0x0C, nD4, 0x04, nC4, 0x08, nD4, 0x04, nC4
	.byte	0x08, nD4, 0x04, nE4, 0x18, nE4, 0x14, nD4, 0x04, nRst, 0x24, nD4
	.byte	0x08, nE4, 0x04, nF4, 0x50, nC4, 0x04, nB3, 0x08, nC4, 0x04, nC4
	.byte	0x2C, nRst, 0x28, nD4, 0x08, nE4, 0x04, nF4, 0x18, nD4, 0x14, nF4
	.byte	0x04, nRst, 0x08, nD4, 0x0C, nD4, 0x04, nC4, 0x08, nD4, 0x04, nE4
	.byte	0x0C, nF4, 0x18, nF4, 0x14, nE4, 0x04, nRst, 0x2C
	smpsSetvoice        0x05
	smpsDetune          0xFD
	smpsModSet          0x14, 0x01, 0x07, 0x06
	smpsFMAlterVol      0xFC
	.byte	nE4, 0x04, nF4, 0x08, nF4, 0x04, nF4, 0x08, nF4, 0x04, nE4, 0x08
	.byte	nF4, 0x04, nC4, 0x24, nRst, 0x0C, nC4, 0x08, nD4, 0x04, nEb4, 0x08
	.byte	nEb4, 0x04, nEb4, 0x08, nEb4, 0x04, nD4, 0x08, nEb4, 0x04, nBb3, 0x24
	.byte	nRst, 0x0C, nF3, 0x08, nBb3, 0x04, nD4, nRst, 0x08, nC4, 0x04, nRst
	.byte	0x08, nBb3, nRst, 0x04, nBb3, nRst, nA3, 0x18, nRst, 0x0C, nEb3, 0x04
	.byte	nF3, 0x08, nAb3, 0x04, nBb3, 0x08, nAb3, 0x04, nBb3, 0x08, nBb3, 0x04
	.byte	nBb3, 0x08, nAb3, 0x0C, nA3, 0x04, nRst, 0x08, nD4, 0x04, nRst, 0x08
	.byte	nBb3, 0x04, nD4, 0x0C, nG4, nF4, 0x08, nF4, 0x04, nF4, 0x08, nF4
	.byte	0x04, nE4, 0x08, nF4, 0x04, nC4, 0x24, nRst, 0x0C, nC4, 0x08, nD4
	.byte	0x04, nEb4, 0x08, nEb4, 0x04, nEb4, 0x08, nEb4, 0x04, nD4, 0x08, nEb4
	.byte	0x04, nBb3, 0x24, nRst, 0x0C, nF3, 0x08, nBb3, 0x04, nD4, nRst, 0x08
	.byte	nC4, 0x04, nRst, 0x08, nBb3, nRst, 0x04, nBb3, nRst, nA3, 0x18, nRst
	.byte	0x0C, nEb4, 0x04, nF4, 0x08, nAb4, 0x04, nG4, 0x08, nG4, 0x0C, nG4
	.byte	0x04, nG4, nRst, 0x08, nG4, nG4, 0x0C, nG4, 0x04, nG4, nRst, 0x10
	.byte	nA3, 0x04, nBb3, 0x0C
	smpsJump            Snd_CNZ1_Jump01

/*  FM4 Data */
Snd_CNZ1_FM4:
	smpsSetvoice        0x22
	smpsDetune          0x00
	smpsModSet          0x03, 0x01, 0x02, 0x05
	.byte	nC1, 0x16, nRst, 0x02, nA0, 0x12, nRst, 0x02, nBb0, nRst, 0x0A, nBb0
	.byte	0x02, nRst, nA0, 0x16, nRst, 0x02, nBb0, 0x06, nRst, 0x02, nB0, nRst
	.byte	nC1, 0x12, nRst, 0x02, nC1, nRst, 0x16, nBb0, 0x02, nRst, nC1, 0x08
	.byte	nF0, 0x04, nFs0, 0x08, nG0, 0x04, nBb0, 0x08, nBb1, 0x04, nB0, 0x08
	.byte	nB1, 0x04, nC1, 0x16, nRst, 0x02, nA0, 0x12, nRst, 0x02, nBb0, nRst
	.byte	0x0A, nBb0, 0x02, nRst, nA0, 0x16, nRst, 0x02, nBb0, 0x06, nRst, 0x02
	.byte	nB0, nRst, nC1, 0x12, nRst, 0x02, nC1, nRst, 0x16, nBb0, 0x02, nRst
	.byte	nC1, 0x08, nF0, 0x04, nFs0, 0x08, nG0, 0x04, nEb1, 0x08, nC1, 0x04
	.byte	nF1, 0x08, nEb1, 0x04, nC1, 0x14, nC1, 0x04, nBb0, 0x08, nC1, 0x04
	.byte	nBb0, 0x08, nC1, 0x04, nRst, 0x08, nG0, 0x04, nBb0, 0x08, nC1, 0x04
	.byte	nEb1, 0x08, nC1, 0x04, nBb0, 0x0C, nC1, 0x14, nC1, 0x04, nRst, 0x08
	.byte	nC1, 0x04, nBb0, 0x08, nC1, 0x04, nC1, 0x08, nF0, 0x04, nF0, 0x08
	.byte	nG0, 0x04, nEb1, 0x08, nC1, 0x04, nF1, 0x08, nEb1, 0x04, nC1, 0x14
	.byte	nC1, 0x04, nBb0, 0x08, nC1, 0x04, nBb0, 0x08, nC1, 0x04, nRst, 0x08
	.byte	nG0, 0x04, nBb0, 0x08, nC1, 0x04, nEb1, 0x08, nC1, 0x04, nBb0, 0x0C
	.byte	nC1, 0x14, nC1, 0x04, nRst, 0x08, nC1, 0x04, nBb0, 0x08, nC1, 0x04
	.byte	nC1, 0x08, nF0, 0x04, nF0, 0x08, nG0, 0x04, nEb1, 0x08, nC1, 0x04
	.byte	nF1, 0x08, nEb1, 0x04, nC1, 0x14, nC1, 0x04, nBb0, 0x08, nC1, 0x04
	.byte	nBb0, 0x08, nC1, 0x04, nRst, 0x08, nG0, 0x04, nBb0, 0x08, nC1, 0x04
	.byte	nEb1, 0x08, nC1, 0x04, nBb0, 0x0C, nC1, 0x14, nC1, 0x04, nRst, 0x08
	.byte	nC1, 0x04, nBb0, 0x08, nC1, 0x04, nC1, 0x08, nF0, 0x04, nF0, 0x08
	.byte	nG0, 0x04, nEb1, 0x08, nC1, 0x04, nF1, 0x08, nEb1, 0x04, nC1, 0x14
	.byte	nC1, 0x04, nBb0, 0x08, nC1, 0x04, nBb0, 0x08, nC1, 0x04, nRst, 0x08
	.byte	nG0, 0x04, nBb0, 0x08, nC1, 0x04, nEb1, 0x08, nC1, 0x04, nBb0, 0x0C
	.byte	nC1, 0x08, nC1, 0x06, nRst, nC1, 0x02, nRst, 0x0A, nC1, 0x02, nRst
	.byte	nC2, 0x08, nC1, 0x02, nRst, nC1, 0x0A, nRst, 0x02, nC1, 0x06, nRst
	.byte	nC1, 0x16, nRst, 0x02, nF1, 0x04, nRst, 0x08, nF1, 0x06, nRst, nC1
	.byte	0x12, nRst, 0x02, nF1, nRst, 0x0A, nF1, 0x02, nRst, nC1, 0x0A, nRst
	.byte	0x02, nF1, 0x0A, nRst, 0x02, nC1, 0x0A, nRst, 0x02, nE1, 0x04, nRst
	.byte	0x08, nE1, 0x06, nRst, nC1, 0x12, nRst, 0x02, nE1, nRst, 0x0A, nE1
	.byte	0x02, nRst, nC1, 0x0A, nRst, 0x02, nE1, 0x0A, nRst, 0x02, nC1, 0x0A
	.byte	nRst, 0x02, nD1, 0x04, nRst, 0x08, nD1, 0x06, nRst, nA0, 0x12, nRst
	.byte	0x02, nD1, nRst, 0x0A, nD1, 0x02, nRst, nA0, 0x0A, nRst, 0x02, nD1
	.byte	0x0A, nRst, 0x02, nA1, 0x0A, nRst, 0x02, nG1, 0x04, nRst, 0x08, nG1
	.byte	nG1, 0x02, nRst, 0x0A, nD1, nRst, 0x02, nG0, nRst, 0x0A, nG1, 0x02
	.byte	nRst, nG1, 0x06, nRst, 0x02, nA1, nRst, nB1, 0x06, nRst, 0x02, nG1
	.byte	nRst, nA1, 0x06, nRst, 0x02, nB1, nRst, nF1, 0x04, nRst, 0x08, nF1
	.byte	0x06, nRst, nC1, 0x12, nRst, 0x02, nF1, nRst, 0x0A, nF1, 0x02, nRst
	.byte	nC1, 0x0A, nRst, 0x02, nF1, 0x0A, nRst, 0x02, nC1, 0x0A, nRst, 0x02
	.byte	nE1, 0x04, nRst, 0x08, nE1, 0x06, nRst, nC1, 0x12, nRst, 0x02, nE1
	.byte	nRst, 0x0A, nE1, 0x02, nRst, nC1, 0x0A, nRst, 0x02, nE1, 0x0A, nRst
	.byte	0x02, nC1, 0x0A, nRst, 0x02, nD1, 0x04, nRst, 0x08, nD1, 0x06, nRst
	.byte	nA0, 0x12, nRst, 0x02, nD1, nRst, 0x0A, nD1, 0x02, nRst, nA0, 0x0A
	.byte	nRst, 0x02, nD1, 0x0A, nRst, 0x02, nA1, 0x0A, nRst, 0x02, nG1, 0x04
	.byte	nRst, 0x08, nG1, nG1, 0x02, nRst, 0x0A, nD2, nRst, 0x02, nC2, nRst
	.byte	0x0A, nC2, nRst, 0x02, nC2, nRst, nC2, 0x0A, nRst, 0x02, nG1, 0x0A
	.byte	nRst, 0x02, nF1, 0x08
	smpsSetvoice        0x14
	smpsDetune          0x00
	smpsModSet          0x02, 0x01, 0x01, 0x02
	.byte	nF2, 0x0C
	smpsSetvoice        0x22
	smpsDetune          0x00
	smpsModSet          0x03, 0x01, 0x02, 0x05
	.byte	nF1, 0x02, nRst, 0x0E, nF1, 0x08
	smpsSetvoice        0x14
	smpsDetune          0x00
	smpsModSet          0x02, 0x01, 0x01, 0x02
	.byte	nF2, 0x0C
	smpsSetvoice        0x22
	smpsDetune          0x00
	smpsModSet          0x03, 0x01, 0x02, 0x05
	.byte	nF1, 0x02, nRst, 0x0A, nF1, 0x04
	smpsSetvoice        0x14
	smpsDetune          0x00
	smpsModSet          0x02, 0x01, 0x01, 0x02
	.byte	nF2, 0x0A, nRst, 0x02
	smpsSetvoice        0x22
	smpsDetune          0x00
	smpsModSet          0x03, 0x01, 0x02, 0x05
	.byte	nF1, 0x0A, nRst, 0x02, nBb0, 0x08
	smpsSetvoice        0x14
	smpsDetune          0x00
	smpsModSet          0x02, 0x01, 0x01, 0x02
	.byte	nBb1, 0x0C
	smpsSetvoice        0x22
	smpsDetune          0x00
	smpsModSet          0x03, 0x01, 0x02, 0x05
	.byte	nBb0, 0x02, nRst, 0x0E, nBb0, 0x08
	smpsSetvoice        0x14
	smpsDetune          0x00
	smpsModSet          0x02, 0x01, 0x01, 0x02
	.byte	nBb1, 0x0C
	smpsSetvoice        0x22
	smpsDetune          0x00
	smpsModSet          0x03, 0x01, 0x02, 0x05
	.byte	nBb0, 0x02, nRst, 0x0A, nBb0, 0x04
	smpsSetvoice        0x14
	smpsDetune          0x00
	smpsModSet          0x02, 0x01, 0x01, 0x02
	.byte	nBb1, 0x0A, nRst, 0x02, nBb1, 0x0A, nRst, 0x02
	smpsSetvoice        0x22
	smpsDetune          0x00
	smpsModSet          0x03, 0x01, 0x02, 0x05
	.byte	nF1, 0x08
	smpsSetvoice        0x14
	smpsDetune          0x00
	smpsModSet          0x02, 0x01, 0x01, 0x02
	.byte	nF2, 0x0C
	smpsSetvoice        0x22
	smpsDetune          0x00
	smpsModSet          0x03, 0x01, 0x02, 0x05
	.byte	nF1, 0x02, nRst, 0x0A
	smpsSetvoice        0x14
	smpsDetune          0x00
	smpsModSet          0x02, 0x01, 0x01, 0x02
	.byte	nF2, 0x0C
	smpsSetvoice        0x22
	smpsDetune          0x00
	smpsModSet          0x03, 0x01, 0x02, 0x05
	.byte	nF1, 0x04, nRst, 0x08, nF1, 0x04, nRst, 0x08, nF1, 0x04
	smpsSetvoice        0x14
	smpsDetune          0x00
	smpsModSet          0x02, 0x01, 0x01, 0x02
	.byte	nF2, 0x0A, nRst, 0x02
	smpsSetvoice        0x22
	smpsDetune          0x00
	smpsModSet          0x03, 0x01, 0x02, 0x05
	.byte	nF1, 0x0A, nRst, 0x02, nF1, 0x08
	smpsSetvoice        0x14
	smpsDetune          0x00
	smpsModSet          0x02, 0x01, 0x01, 0x02
	.byte	nBb1, 0x0C
	smpsSetvoice        0x22
	smpsDetune          0x00
	smpsModSet          0x03, 0x01, 0x02, 0x05
	.byte	nF1, 0x02, nRst, 0x0A, nF1, 0x04
	smpsSetvoice        0x14
	smpsDetune          0x00
	smpsModSet          0x02, 0x01, 0x01, 0x02
	.byte	nAb1, 0x08
	smpsSetvoice        0x22
	smpsDetune          0x00
	smpsModSet          0x03, 0x01, 0x02, 0x05
	.byte	nF1, 0x02, nRst, 0x0A, nF1, 0x02, nRst, nEb1, 0x0A, nRst, 0x02, nBb1
	.byte	0x0A, nRst, 0x02, nEb1, 0x0A, nRst, 0x02, nF1, 0x08
	smpsSetvoice        0x14
	smpsDetune          0x00
	smpsModSet          0x02, 0x01, 0x01, 0x02
	.byte	nF2, 0x0C
	smpsSetvoice        0x22
	smpsDetune          0x00
	smpsModSet          0x03, 0x01, 0x02, 0x05
	.byte	nF1, 0x02, nRst, 0x0E, nF1, 0x08
	smpsSetvoice        0x14
	smpsDetune          0x00
	smpsModSet          0x02, 0x01, 0x01, 0x02
	.byte	nF2, 0x0C
	smpsSetvoice        0x22
	smpsDetune          0x00
	smpsModSet          0x03, 0x01, 0x02, 0x05
	.byte	nF1, 0x02, nRst, 0x0A, nF1, 0x04
	smpsSetvoice        0x14
	smpsDetune          0x00
	smpsModSet          0x02, 0x01, 0x01, 0x02
	.byte	nF2, 0x0A, nRst, 0x02
	smpsSetvoice        0x22
	smpsDetune          0x00
	smpsModSet          0x03, 0x01, 0x02, 0x05
	.byte	nF1, 0x0A, nRst, 0x02, nBb0, 0x08
	smpsSetvoice        0x14
	smpsDetune          0x00
	smpsModSet          0x02, 0x01, 0x01, 0x02
	.byte	nBb1, 0x0C
	smpsSetvoice        0x22
	smpsDetune          0x00
	smpsModSet          0x03, 0x01, 0x02, 0x05
	.byte	nBb0, 0x02, nRst, 0x0E, nBb0, 0x08
	smpsSetvoice        0x14
	smpsDetune          0x00
	smpsModSet          0x02, 0x01, 0x01, 0x02
	.byte	nBb1, 0x0C
	smpsSetvoice        0x22
	smpsDetune          0x00
	smpsModSet          0x03, 0x01, 0x02, 0x05
	.byte	nBb0, 0x02, nRst, 0x0A, nBb0, 0x04
	smpsSetvoice        0x14
	smpsDetune          0x00
	smpsModSet          0x02, 0x01, 0x01, 0x02
	.byte	nBb1, 0x0A, nRst, 0x02, nBb1, 0x0A, nRst, 0x02
	smpsSetvoice        0x22
	smpsDetune          0x00
	smpsModSet          0x03, 0x01, 0x02, 0x05
	.byte	nF1, 0x08
	smpsSetvoice        0x14
	smpsDetune          0x00
	smpsModSet          0x02, 0x01, 0x01, 0x02
	.byte	nF2, 0x0C
	smpsSetvoice        0x22
	smpsDetune          0x00
	smpsModSet          0x03, 0x01, 0x02, 0x05
	.byte	nF1, 0x02, nRst, 0x0A
	smpsSetvoice        0x14
	smpsDetune          0x00
	smpsModSet          0x02, 0x01, 0x01, 0x02
	.byte	nF2, 0x0C
	smpsSetvoice        0x22
	smpsDetune          0x00
	smpsModSet          0x03, 0x01, 0x02, 0x05
	.byte	nF1, 0x04, nRst, 0x08, nF1, 0x04, nRst, 0x08, nF1, 0x04
	smpsSetvoice        0x14
	smpsDetune          0x00
	smpsModSet          0x02, 0x01, 0x01, 0x02
	.byte	nF2, 0x0A, nRst, 0x02
	smpsSetvoice        0x22
	smpsDetune          0x00
	smpsModSet          0x03, 0x01, 0x02, 0x05
	.byte	nF1, 0x0A, nRst, 0x02
	smpsSetvoice        0x14
	smpsDetune          0x00
	smpsModSet          0x02, 0x01, 0x01, 0x02
	.byte	nCs2, 0x14, nB1, 0x10, nCs2, 0x14, nB1, 0x04, nCs2, nRst, 0x20
	smpsJump            Snd_CNZ1_FM4

/*  FM5 Data */
Snd_CNZ1_FM5:
	.byte	nRst, 0x02
	smpsSetvoice        0x06
	smpsDetune          0x00
	smpsModSet          0x0F, 0x01, 0x06, 0x06
	smpsDetune          0x01

Snd_CNZ1_Jump00:
	.byte	nC4, 0x0C, nBb3, 0x02, nA3, nG3, nF3, nE3, nD3, nC3, nBb2, nA2
	.byte	nG2, nC4, 0x0C, nC4, 0x04, nRst, 0x30, nBb3, 0x08, nBb3, 0x04, nRst
	.byte	0x08, nBb3, 0x04, nRst, 0x08, nBb3, 0x04, nRst, 0x08, nBb3, 0x04, nBb3
	.byte	0x0C, nA3, nRst, 0x08, nA3, 0x04, nBb3, 0x0C, nC4, nBb3, 0x02, nA3
	.byte	nG3, nF3, nE3, nD3, nC3, nBb2, nA2, nG2, nC4, 0x0C, nC4, 0x04
	.byte	nRst, 0x30, nBb3, 0x08, nBb3, 0x04, nRst, 0x08, nBb3, 0x04, nRst, 0x08
	.byte	nBb3, 0x04, nRst, 0x08, nBb3, 0x04, nBb3, 0x0C, nA3, nE4, 0x18, nC4
	.byte	nRst, 0x2C, nE4, 0x04, nD4, nRst, 0x08, nC4, 0x04, nRst, 0x08, nBb3
	.byte	0x18, nBb3, nBb3, 0x04, nRst, 0x08, nA3, 0x04, nRst, 0x08, nA3, 0x04
	.byte	nRst, 0x08, nA3, nG3, 0x1C, nRst, 0x2C, nE4, 0x04, nD4, nRst, 0x08
	.byte	nC4, 0x04, nRst, 0x08, nBb3, 0x18, nBb3, nBb3, 0x08, nRst, 0x04, nA3
	.byte	0x08, nRst, 0x04, nE4, 0x18, nC4, nRst, 0x2C, nE4, 0x04, nD4, nRst
	.byte	0x08, nC4, 0x04, nRst, 0x08, nBb3, 0x18, nBb3, nBb3, 0x04, nRst, 0x08
	.byte	nA3, 0x04, nRst, 0x08, nA3, 0x04, nRst, 0x08, nA3, nG3, 0x1C, nRst
	.byte	0x2C, nE4, 0x04, nD4, nRst, 0x08, nC4, 0x04, nRst, 0x08, nG3, 0x14
	.byte	nA3, 0x04, nRst, 0x08, nA3, 0x0C, nA3, 0x04, nBb3, nRst, 0x08, nBb3
	.byte	0x04, nRst, 0x08, nC4, 0x04, nRst, 0x08
	smpsSetvoice        0x12
	smpsDetune          0xFF
	smpsModSet          0x0F, 0x01, 0x07, 0x06
	smpsFMAlterVol      0x04
	.byte	nC4, nD4, 0x04, nF4, 0x50, nC4, 0x04, nB3, 0x08, nC4, 0x04, nC4
	.byte	0x2C, nRst, 0x28, nD4, 0x08, nE4, 0x04, nF4, 0x18, nD4, 0x14, nF4
	.byte	0x04, nRst, 0x08, nD4, 0x0C, nD4, 0x04, nC4, 0x08, nD4, 0x04, nC4
	.byte	0x08, nD4, 0x04, nE4, 0x18, nE4, 0x14, nD4, 0x04, nRst, 0x24, nD4
	.byte	0x08, nE4, 0x04, nF4, 0x50, nC4, 0x04, nB3, 0x08, nC4, 0x04, nC4
	.byte	0x2C, nRst, 0x28, nD4, 0x08, nE4, 0x04, nF4, 0x18, nD4, 0x14, nF4
	.byte	0x04, nRst, 0x08, nD4, 0x0C, nD4, 0x04, nC4, 0x08, nD4, 0x04, nE4
	.byte	0x0C, nF4, 0x18, nF4, 0x14, nE4, 0x04, nRst, 0x38
	smpsSetvoice        0x05
	smpsDetune          0x03
	smpsModSet          0x14, 0x01, 0x07, 0x06
	smpsFMAlterVol      0x08
	smpsFMAlterVol      0xFC
	.byte	nE4, 0x04, nF4, 0x08, nF4, 0x04, nF4, 0x08, nF4, 0x04, nE4, 0x08
	.byte	nF4, 0x04, nC4, 0x24, nRst, 0x0C, nC4, 0x08, nD4, 0x04, nEb4, 0x08
	.byte	nEb4, 0x04, nEb4, 0x08, nEb4, 0x04, nD4, 0x08, nEb4, 0x04, nBb3, 0x24
	.byte	nRst, 0x0C, nF3, 0x08, nBb3, 0x04, nD4, nRst, 0x08, nC4, 0x04, nRst
	.byte	0x08, nBb3, nRst, 0x04, nBb3, nRst, nA3, 0x18, nEb3, 0x04, nF3, 0x08
	.byte	nAb3, 0x04, nBb3, 0x08, nAb3, 0x04, nBb3, 0x08, nBb3, 0x04, nBb3, 0x08
	.byte	nAb3, 0x0C, nA3, 0x04, nRst, 0x0C, nRst, 0x08, nD4, 0x04, nRst, 0x08
	.byte	nBb3, 0x04, nD4, 0x0C, nG4, nF4, 0x08, nF4, 0x04, nF4, 0x08, nF4
	.byte	0x04, nE4, 0x08, nF4, 0x04, nC4, 0x24, nRst, 0x0C, nC4, 0x08, nD4
	.byte	0x04, nEb4, 0x08, nEb4, 0x04, nEb4, 0x08, nEb4, 0x04, nD4, 0x08, nEb4
	.byte	0x04, nBb3, 0x24, nRst, 0x0C, nF3, 0x08, nBb3, 0x04, nD4, nRst, 0x08
	.byte	nC4, 0x04, nRst, 0x08, nBb3, nRst, 0x04, nBb3, nRst, nA3, 0x18, nRst
	.byte	0x0C, nEb4, 0x04, nF4, 0x08, nAb4, 0x04, nG4, 0x08, nG4, 0x0C, nG4
	.byte	0x04, nG4, nRst, 0x08, nG4, nG4, 0x0C, nG4, 0x04, nG4, nRst, 0x10
	.byte	nA3, 0x04
	smpsFMAlterVol      0xF8
	smpsJump            Snd_CNZ1_Jump00

/*  PSG1 Data */
Snd_CNZ1_PSG1:
	smpsPSGvoice        sTone_0A

Snd_CNZ1_Jump05:
	.byte	nC4, 0x14, nC4, 0x04, nRst, 0x08, nC4, 0x0C, nC4, 0x04, nRst, 0x18
	.byte	nEb4, 0x02, nE4, 0x06, nC4, 0x04, nRst, 0x0C, nBb3, 0x08, nBb3, 0x04
	.byte	nRst, 0x08, nBb3, 0x04, nRst, 0x08, nBb3, 0x04, nRst, 0x08, nBb3, 0x04
	.byte	nBb3, 0x0C, nA3, nRst, 0x08, nA3, 0x02, nA3, nBb3, 0x0C, nC4, 0x14
	.byte	nC4, 0x04, nRst, 0x08, nC4, 0x0C, nC4, 0x04, nRst, 0x18, nEb4, 0x02
	.byte	nE4, 0x06, nC4, 0x04, nRst, 0x0C, nBb3, 0x08, nBb3, 0x04, nRst, 0x08
	.byte	nBb3, 0x04, nRst, 0x08, nBb3, 0x04, nRst, 0x08, nBb3, 0x04, nBb3, 0x0C
	.byte	nA3, nRst, 0x08, nA3, 0x02, nA3, nBb3, 0x0C
	smpsChangeTransposition 0xF4
	.byte	nRst, 0x18, nC4, 0x02, nRst, 0x0A, nG3, 0x02, nRst, 0x06, nC4, 0x02
	.byte	nRst, 0x0A, nC4, 0x04, nC5, 0x12, nRst, 0x3E, nF4, 0x02, nRst, nBb4
	.byte	nRst, 0x0A, nA4, 0x02, nRst, 0x0A, nA4, 0x02, nRst, 0x0A, nA4, 0x02
	.byte	nRst, 0x06, nG4, 0x16, nRst, 0x06, nC4, 0x02, nRst, 0x0A, nG3, 0x02
	.byte	nRst, 0x06, nC4, 0x02, nRst, 0x0A, nC4, 0x04, nC5, 0x12, nRst, 0x3E
	.byte	nF4, 0x02, nRst, nBb4, nRst, 0x0A, nA4, 0x02, nRst, 0x16, nBb4, 0x02
	.byte	nRst, 0x0A, nC5, 0x02, nRst, 0x16, nC4, 0x02, nRst, 0x0A, nG3, 0x02
	.byte	nRst, 0x06, nC4, 0x02, nRst, 0x0A, nC4, 0x04, nC5, 0x12, nRst, 0x3E
	.byte	nF4, 0x02, nRst, nBb4, nRst, 0x0A, nA4, 0x02, nRst, 0x0A, nA4, 0x02
	.byte	nRst, 0x0A, nA4, 0x02, nRst, 0x06, nG4, 0x16, nRst, 0x06, nC4, 0x02
	.byte	nRst, 0x0A, nG3, 0x02, nRst, 0x06, nC4, 0x02, nRst, 0x0A, nC4, 0x04
	.byte	nC5, 0x12, nRst, 0x06, nC4, 0x02, nRst, 0x0A, nG3, 0x06, nRst, 0x02
	.byte	nG3, nRst, 0x0A, nA3, 0x02, nRst, 0x0A, nA3, 0x02, nRst, 0x0A, nA3
	.byte	0x02, nRst, nBb3, nRst, 0x0A, nBb3, 0x02, nRst, 0x0A, nC4, 0x04, nRst
	.byte	0x20, nC5, 0x02, nRst, 0x06, nC5, 0x02, nRst, nB4, 0x0A, nRst, 0x02
	.byte	nB4, 0x04, nRst, nC5, 0x02, nRst, 0x3E, nG4, 0x02, nRst, 0x06, nG4
	.byte	0x02, nRst, nE4, 0x0A, nRst, 0x02, nE4, 0x04, nRst, nG4, 0x02, nRst
	.byte	0x3E, nA4, 0x02, nRst, 0x06, nA4, 0x02, nRst, nF4, 0x0A, nRst, 0x02
	.byte	nF4, 0x04, nRst, nA4, 0x02, nRst, 0x32, nG4, 0x02, nRst, 0x0A, nC5
	.byte	0x02, nRst, 0x0A, nD5, 0x02, nRst, 0x0A, nC5, 0x02, nRst, 0x06, nB4
	.byte	0x02, nRst, 0x3E, nC5, 0x02, nRst, 0x06, nC5, 0x02, nRst, nB4, 0x0A
	.byte	nRst, 0x02, nB4, 0x04, nRst, nC5, 0x02, nRst, 0x3E, nG4, 0x02, nRst
	.byte	0x06, nG4, 0x02, nRst, nE4, 0x0A, nRst, 0x02, nE4, 0x04, nRst, nG4
	.byte	0x02, nRst, 0x3E, nA4, 0x02, nRst, 0x06, nA4, 0x02, nRst, nF4, 0x0A
	.byte	nRst, 0x02, nF4, 0x04, nRst, nA4, 0x02, nRst, 0x0A, nF3, 0x02, nRst
	.byte	0x0E, nFs3, 0x02, nRst, 0x0A, nA3, 0x02, nRst, 0x0A, nG3, 0x02, nRst
	.byte	0x0A, nG3, 0x02, nRst, 0x06, nG4, 0x02, nRst, 0x0A, nG3, 0x02, nRst
	.byte	nG3, 0x06, nRst, 0x02, nC4, nRst, 0x0A, nE4, 0x0E, nRst, 0x02, nF4
	.byte	0x0A, nRst, 0x02, nG4, 0x0A, nRst, 0x02, nC4, nRst, 0x06, nC4, 0x02
	.byte	nRst, nC4, nRst, 0x06, nC5, 0x02, nRst, 0x0A, nC4, 0x02, nRst, nC5
	.byte	nRst, 0x06, nC4, 0x02, nRst, 0x0A, nC4, 0x02, nRst, 0x0A, nC4, 0x02
	.byte	nRst, nC5, 0x08, nC4, 0x02, nRst, nC5, 0x08, nRst, 0x04, nBb3, 0x02
	.byte	nRst, 0x06, nBb3, 0x02, nRst, nBb3, nRst, 0x06, nBb4, 0x02, nRst, 0x0A
	.byte	nBb3, 0x02, nRst, nBb4, nRst, 0x06, nBb3, 0x02, nRst, 0x0A, nBb3, 0x02
	.byte	nRst, 0x0A, nBb3, 0x02, nRst, nBb4, 0x08, nBb3, 0x02, nRst, nBb4, 0x08
	.byte	nRst, 0x04, nBb3, 0x02, nRst, 0x06, nBb3, 0x02, nRst, nBb3, nRst, 0x06
	.byte	nBb4, 0x02, nRst, 0x0A, nBb3, 0x02, nRst, nBb4, 0x06, nRst, 0x02, nA4
	.byte	nRst, 0x0A, nF3, 0x02, nRst, 0x0A, nF3, 0x02, nRst, nF4, 0x08, nF3
	.byte	0x02, nRst, nF4, 0x08, nRst, 0x3C, nD4, 0x02, nRst, 0x0A, nBb3, 0x02
	.byte	nRst, nD4, 0x06, nRst, nG4, nRst, nC4, 0x02, nRst, 0x06, nC4, 0x02
	.byte	nRst, nC4, nRst, 0x06, nC5, 0x02, nRst, 0x0A, nC4, 0x02, nRst, nC5
	.byte	nRst, 0x06, nC4, 0x02, nRst, 0x0A, nC4, 0x02, nRst, 0x0A, nC4, 0x02
	.byte	nRst, nC5, 0x08, nC4, 0x02, nRst, nC5, 0x08, nRst, 0x04, nBb3, 0x02
	.byte	nRst, 0x06, nBb3, 0x02, nRst, nBb3, nRst, 0x06, nBb4, 0x02, nRst, 0x0A
	.byte	nBb3, 0x02, nRst, nBb4, nRst, 0x06, nBb3, 0x02, nRst, 0x0A, nBb3, 0x02
	.byte	nRst, 0x0A, nBb3, 0x02, nRst, nBb4, 0x08, nBb3, 0x02, nRst, nBb4, 0x08
	.byte	nRst, 0x04, nBb3, 0x02, nRst, 0x06, nBb3, 0x02, nRst, nBb3, nRst, 0x06
	.byte	nBb4, 0x02, nRst, 0x0A, nBb3, 0x02, nRst, nBb4, 0x06, nRst, 0x02, nA4
	.byte	nRst, 0x0A, nF3, 0x02, nRst, 0x0A, nF3, 0x02, nRst, nF4, 0x08, nF3
	.byte	0x02, nRst, nF4, 0x08, nRst, 0x04, nB3, 0x02, nRst, 0x06, nB3, 0x02
	.byte	nRst, nB4, nRst, 0x06, nB3, 0x02, nRst, nB3, nRst, 0x06, nB4, 0x02
	.byte	nRst, nB3, nRst, 0x06, nB3, 0x02, nRst, nB4, nRst, 0x06, nB3, 0x02
	.byte	nRst, nB3, nRst, 0x22
	smpsChangeTransposition 0x0C
	smpsJump            Snd_CNZ1_Jump05

/*  PSG2 Data */
Snd_CNZ1_PSG2:
	smpsPSGvoice        sTone_0A
	smpsDetune          0xFF
	.byte	nRst, 0x01

Snd_CNZ1_Jump04:
	.byte	nC4, 0x14, nC4, 0x04, nRst, 0x08, nC4, 0x0C, nC4, 0x04, nRst, 0x18
	.byte	nEb4, 0x02, nE4, 0x06, nC4, 0x04, nRst, 0x0C, nBb3, 0x08, nBb3, 0x04
	.byte	nRst, 0x08, nBb3, 0x04, nRst, 0x08, nBb3, 0x04, nRst, 0x08, nBb3, 0x04
	.byte	nBb3, 0x0C, nA3, nRst, 0x08, nA3, 0x02, nA3, nBb3, 0x0C, nC4, 0x14
	.byte	nC4, 0x04, nRst, 0x08, nC4, 0x0C, nC4, 0x04, nRst, 0x18, nEb4, 0x02
	.byte	nE4, 0x06, nC4, 0x04, nRst, 0x0C, nBb3, 0x08, nBb3, 0x04, nRst, 0x08
	.byte	nBb3, 0x04, nRst, 0x08, nBb3, 0x04, nRst, 0x08, nBb3, 0x04, nBb3, 0x0C
	.byte	nA3, nRst, 0x08, nA3, 0x02, nA3, nBb3, 0x0C
	smpsChangeTransposition 0xF4
	.byte	nRst, 0x18, nC4, 0x02, nRst, 0x0A, nG3, 0x02, nRst, 0x06, nC4, 0x02
	.byte	nRst, 0x0A, nC4, 0x04, nC5, 0x12, nRst, 0x3E, nF4, 0x02, nRst, nBb4
	.byte	nRst, 0x0A, nA4, 0x02, nRst, 0x0A, nA4, 0x02, nRst, 0x0A, nA4, 0x02
	.byte	nRst, 0x06, nG4, 0x16, nRst, 0x06, nC4, 0x02, nRst, 0x0A, nG3, 0x02
	.byte	nRst, 0x06, nC4, 0x02, nRst, 0x0A, nC4, 0x04, nC5, 0x12, nRst, 0x3E
	.byte	nF4, 0x02, nRst, nBb4, nRst, 0x0A, nA4, 0x02, nRst, 0x16, nBb4, 0x02
	.byte	nRst, 0x0A, nC5, 0x02, nRst, 0x16, nC4, 0x02, nRst, 0x0A, nG3, 0x02
	.byte	nRst, 0x06, nC4, 0x02, nRst, 0x0A, nC4, 0x04, nC5, 0x12, nRst, 0x3E
	.byte	nF4, 0x02, nRst, nBb4, nRst, 0x0A, nA4, 0x02, nRst, 0x0A, nA4, 0x02
	.byte	nRst, 0x0A, nA4, 0x02, nRst, 0x06, nG4, 0x16, nRst, 0x06, nC4, 0x02
	.byte	nRst, 0x0A, nG3, 0x02, nRst, 0x06, nC4, 0x02, nRst, 0x0A, nC4, 0x04
	.byte	nC5, 0x12, nRst, 0x06, nC4, 0x02, nRst, 0x0A, nG3, 0x06, nRst, 0x02
	.byte	nG3, nRst, 0x0A, nA3, 0x02, nRst, 0x0A, nA3, 0x02, nRst, 0x0A, nA3
	.byte	0x02, nRst, nBb3, nRst, 0x0A, nBb3, 0x02, nRst, 0x0A, nC4, 0x04, nRst
	.byte	0x20, nC5, 0x02, nRst, 0x06, nC5, 0x02, nRst, nB4, 0x0A, nRst, 0x02
	.byte	nB4, 0x04, nRst, nC5, 0x02, nRst, 0x3E, nG4, 0x02, nRst, 0x06, nG4
	.byte	0x02, nRst, nE4, 0x0A, nRst, 0x02, nE4, 0x04, nRst, nG4, 0x02, nRst
	.byte	0x3E, nA4, 0x02, nRst, 0x06, nA4, 0x02, nRst, nF4, 0x0A, nRst, 0x02
	.byte	nF4, 0x04, nRst, nA4, 0x02, nRst, 0x32, nG4, 0x02, nRst, 0x0A, nC5
	.byte	0x02, nRst, 0x0A, nD5, 0x02, nRst, 0x0A, nC5, 0x02, nRst, 0x06, nB4
	.byte	0x02, nRst, 0x3E, nC5, 0x02, nRst, 0x06, nC5, 0x02, nRst, nB4, 0x0A
	.byte	nRst, 0x02, nB4, 0x04, nRst, nC5, 0x02, nRst, 0x3E, nG4, 0x02, nRst
	.byte	0x06, nG4, 0x02, nRst, nE4, 0x0A, nRst, 0x02, nE4, 0x04, nRst, nG4
	.byte	0x02, nRst, 0x3E, nA4, 0x02, nRst, 0x06, nA4, 0x02, nRst, nF4, 0x0A
	.byte	nRst, 0x02, nF4, 0x04, nRst, nA4, 0x02, nRst, 0x0A, nF3, 0x02, nRst
	.byte	0x0E, nFs3, 0x02, nRst, 0x0A, nA3, 0x02, nRst, 0x0A, nG3, 0x02, nRst
	.byte	0x0A, nG3, 0x02, nRst, 0x06, nG4, 0x02, nRst, 0x0A, nG3, 0x02, nRst
	.byte	nG3, 0x06, nRst, 0x02, nC4, nRst, 0x0A, nE4, 0x0E, nRst, 0x02, nF4
	.byte	0x0A, nRst, 0x02, nG4, 0x0A, nRst, 0x02, nC4, nRst, 0x06, nC4, 0x02
	.byte	nRst, nC4, nRst, 0x06, nC5, 0x02, nRst, 0x0A, nC4, 0x02, nRst, nC5
	.byte	nRst, 0x06, nC4, 0x02, nRst, 0x0A, nC4, 0x02, nRst, 0x0A, nC4, 0x02
	.byte	nRst, nC5, 0x08, nC4, 0x02, nRst, nC5, 0x08, nRst, 0x04, nBb3, 0x02
	.byte	nRst, 0x06, nBb3, 0x02, nRst, nBb3, nRst, 0x06, nBb4, 0x02, nRst, 0x0A
	.byte	nBb3, 0x02, nRst, nBb4, nRst, 0x06, nBb3, 0x02, nRst, 0x0A, nBb3, 0x02
	.byte	nRst, 0x0A, nBb3, 0x02, nRst, nBb4, 0x08, nBb3, 0x02, nRst, nBb4, 0x08
	.byte	nRst, 0x04, nBb3, 0x02, nRst, 0x06, nBb3, 0x02, nRst, nBb3, nRst, 0x06
	.byte	nBb4, 0x02, nRst, 0x0A, nBb3, 0x02, nRst, nBb4, 0x06, nRst, 0x02, nA4
	.byte	nRst, 0x0A, nF3, 0x02, nRst, 0x0A, nF3, 0x02, nRst, nF4, 0x08, nF3
	.byte	0x02, nRst, nF4, 0x08, nRst, 0x3C, nD4, 0x02, nRst, 0x0A, nBb3, 0x02
	.byte	nRst, nD4, 0x06, nRst, nG4, nRst, nC4, 0x02, nRst, 0x06, nC4, 0x02
	.byte	nRst, nC4, nRst, 0x06, nC5, 0x02, nRst, 0x0A, nC4, 0x02, nRst, nC5
	.byte	nRst, 0x06, nC4, 0x02, nRst, 0x0A, nC4, 0x02, nRst, 0x0A, nC4, 0x02
	.byte	nRst, nC5, 0x08, nC4, 0x02, nRst, nC5, 0x08, nRst, 0x04, nBb3, 0x02
	.byte	nRst, 0x06, nBb3, 0x02, nRst, nBb3, nRst, 0x06, nBb4, 0x02, nRst, 0x0A
	.byte	nBb3, 0x02, nRst, nBb4, nRst, 0x06, nBb3, 0x02, nRst, 0x0A, nBb3, 0x02
	.byte	nRst, 0x0A, nBb3, 0x02, nRst, nBb4, 0x08, nBb3, 0x02, nRst, nBb4, 0x08
	.byte	nRst, 0x04, nBb3, 0x02, nRst, 0x06, nBb3, 0x02, nRst, nBb3, nRst, 0x06
	.byte	nBb4, 0x02, nRst, 0x0A, nBb3, 0x02, nRst, nBb4, 0x06, nRst, 0x02, nA4
	.byte	nRst, 0x0A, nF3, 0x02, nRst, 0x0A, nF3, 0x02, nRst, nF4, 0x08, nF3
	.byte	0x02, nRst, nF4, 0x08, nRst, 0x04, nB3, 0x02, nRst, 0x06, nB3, 0x02
	.byte	nRst, nB4, nRst, 0x06, nB3, 0x02, nRst, nB3, nRst, 0x06, nB4, 0x02
	.byte	nRst, nB3, nRst, 0x06, nB3, 0x02, nRst, nB4, nRst, 0x06, nB3, 0x02
	.byte	nRst, nB3, nRst, 0x22
	smpsChangeTransposition 0x0C
	smpsJump            Snd_CNZ1_Jump04

/*  PSG3 Data */
Snd_CNZ1_PSG3:
	smpsPSGvoice        sTone_02
	smpsPSGform         0xE7

Snd_CNZ1_Loop00:
	smpsPSGvoice        sTone_01
	.byte	nMaxPSG1, 0x08
	smpsPSGvoice        sTone_01
	.byte	nMaxPSG1, 0x04
	smpsPSGvoice        sTone_08
	.byte	nMaxPSG1, 0x0C
	smpsPSGvoice        sTone_01
	.byte	nMaxPSG1, 0x08
	smpsPSGvoice        sTone_01
	.byte	nMaxPSG1, 0x04
	smpsPSGvoice        sTone_08
	.byte	nMaxPSG1, 0x08
	smpsPSGvoice        sTone_01
	.byte	nMaxPSG1, 0x28
	smpsPSGvoice        sTone_08
	.byte	nMaxPSG1, 0x0C
	smpsPSGvoice        sTone_01
	.byte	nMaxPSG1, 0x08
	smpsPSGvoice        sTone_01
	.byte	nMaxPSG1, 0x04
	smpsPSGvoice        sTone_08
	.byte	nMaxPSG1, 0x0C
	smpsPSGvoice        sTone_01
	.byte	nMaxPSG1, 0x08
	smpsPSGvoice        sTone_01
	.byte	nMaxPSG1, 0x04
	smpsPSGvoice        sTone_08
	.byte	nMaxPSG1, 0x08
	smpsPSGvoice        sTone_01
	.byte	nMaxPSG1, 0x34
	smpsLoop            0x01, 0x02, Snd_CNZ1_Loop00

Snd_CNZ1_Loop01:
	smpsPSGvoice        sTone_01
	.byte	nMaxPSG1, 0x08
	smpsPSGvoice        sTone_01
	.byte	nMaxPSG1, 0x04
	smpsPSGvoice        sTone_01
	.byte	nMaxPSG1, 0x0C
	smpsPSGvoice        sTone_01
	.byte	nMaxPSG1, 0x08
	smpsPSGvoice        sTone_01
	.byte	nMaxPSG1, 0x04
	smpsPSGvoice        sTone_01
	.byte	nMaxPSG1, 0x0C
	smpsPSGvoice        sTone_01
	.byte	nMaxPSG1, 0x08
	smpsPSGvoice        sTone_01
	.byte	nMaxPSG1, 0x04
	smpsPSGvoice        sTone_01
	.byte	nMaxPSG1, 0x0C
	smpsPSGvoice        sTone_01
	.byte	nMaxPSG1, 0x08
	smpsPSGvoice        sTone_01
	.byte	nMaxPSG1, 0x04
	smpsPSGvoice        sTone_08
	.byte	nMaxPSG1, 0x0C
	smpsLoop            0x01, 0x07, Snd_CNZ1_Loop01
	smpsPSGvoice        sTone_01
	.byte	nMaxPSG1, 0x08
	smpsPSGvoice        sTone_01
	.byte	nMaxPSG1, 0x04
	smpsPSGvoice        sTone_01
	.byte	nMaxPSG1, 0x0C
	smpsPSGvoice        sTone_01
	.byte	nMaxPSG1, 0x08
	smpsPSGvoice        sTone_01
	.byte	nMaxPSG1, 0x04
	smpsPSGvoice        sTone_01
	.byte	nMaxPSG1, 0x3C

Snd_CNZ1_Loop02:
	smpsPSGvoice        sTone_01
	.byte	nMaxPSG1, 0x08
	smpsPSGvoice        sTone_01
	.byte	nMaxPSG1, 0x04
	smpsPSGvoice        sTone_01
	.byte	nMaxPSG1, 0x08
	smpsPSGvoice        sTone_01
	.byte	nMaxPSG1, 0x04
	smpsPSGvoice        sTone_01
	.byte	nMaxPSG1, 0x08
	smpsPSGvoice        sTone_01
	.byte	nMaxPSG1, 0x04
	smpsPSGvoice        sTone_01
	.byte	nMaxPSG1, 0x08
	smpsPSGvoice        sTone_01
	.byte	nMaxPSG1, 0x04
	smpsPSGvoice        sTone_01
	.byte	nMaxPSG1, 0x08
	smpsPSGvoice        sTone_01
	.byte	nMaxPSG1, 0x04
	smpsPSGvoice        sTone_01
	.byte	nMaxPSG1, 0x08
	smpsPSGvoice        sTone_01
	.byte	nMaxPSG1, 0x04
	smpsPSGvoice        sTone_01
	.byte	nMaxPSG1, 0x08
	smpsPSGvoice        sTone_01
	.byte	nMaxPSG1, 0x04
	smpsPSGvoice        sTone_01
	.byte	nMaxPSG1, 0x0C
	smpsLoop            0x01, 0x03, Snd_CNZ1_Loop02
	smpsPSGvoice        sTone_01
	.byte	nMaxPSG1, 0x08
	smpsPSGvoice        sTone_01
	.byte	nMaxPSG1, 0x04
	smpsPSGvoice        sTone_01
	.byte	nMaxPSG1, 0x08
	smpsPSGvoice        sTone_01
	.byte	nMaxPSG1, 0x04
	smpsPSGvoice        sTone_01
	.byte	nMaxPSG1, 0x08
	smpsPSGvoice        sTone_01
	.byte	nMaxPSG1, 0x04
	smpsPSGvoice        sTone_01
	.byte	nMaxPSG1, 0x08
	smpsPSGvoice        sTone_01
	.byte	nMaxPSG1, 0x34

Snd_CNZ1_Loop03:
	smpsPSGvoice        sTone_01
	.byte	nMaxPSG1, 0x08
	smpsPSGvoice        sTone_01
	.byte	nMaxPSG1, 0x04
	smpsPSGvoice        sTone_01
	.byte	nMaxPSG1, 0x08
	smpsPSGvoice        sTone_01
	.byte	nMaxPSG1, 0x04
	smpsPSGvoice        sTone_01
	.byte	nMaxPSG1, 0x08
	smpsPSGvoice        sTone_01
	.byte	nMaxPSG1, 0x04
	smpsPSGvoice        sTone_01
	.byte	nMaxPSG1, 0x08
	smpsPSGvoice        sTone_01
	.byte	nMaxPSG1, 0x04
	smpsPSGvoice        sTone_01
	.byte	nMaxPSG1, 0x08
	smpsPSGvoice        sTone_01
	.byte	nMaxPSG1, 0x04
	smpsPSGvoice        sTone_01
	.byte	nMaxPSG1, 0x08
	smpsPSGvoice        sTone_01
	.byte	nMaxPSG1, 0x04
	smpsPSGvoice        sTone_01
	.byte	nMaxPSG1, 0x08
	smpsPSGvoice        sTone_01
	.byte	nMaxPSG1, 0x04
	smpsPSGvoice        sTone_01
	.byte	nMaxPSG1, 0x0C
	smpsLoop            0x01, 0x03, Snd_CNZ1_Loop03
	smpsPSGvoice        sTone_01
	.byte	nMaxPSG1, 0x08
	smpsPSGvoice        sTone_01
	.byte	nMaxPSG1, 0x04
	smpsPSGvoice        sTone_01
	.byte	nMaxPSG1, 0x08
	smpsPSGvoice        sTone_01
	.byte	nMaxPSG1, 0x04
	smpsPSGvoice        sTone_01
	.byte	nMaxPSG1, 0x08
	smpsPSGvoice        sTone_01
	.byte	nMaxPSG1, 0x04
	smpsPSGvoice        sTone_01
	.byte	nMaxPSG1, 0x08
	smpsPSGvoice        sTone_01
	.byte	nMaxPSG1, 0x34

Snd_CNZ1_Loop04:
	smpsPSGvoice        sTone_01
	.byte	nMaxPSG1, 0x08
	smpsPSGvoice        sTone_01
	.byte	nMaxPSG1, 0x04
	smpsPSGvoice        sTone_08
	.byte	nMaxPSG1, 0x0C
	smpsLoop            0x01, 0x1E, Snd_CNZ1_Loop04
	smpsPSGvoice        sTone_01
	.byte	nMaxPSG1, 0x08
	smpsPSGvoice        sTone_01
	.byte	nMaxPSG1, 0x04
	smpsPSGvoice        sTone_08
	.byte	nMaxPSG1, 0x24
	smpsJump            Snd_CNZ1_PSG3