Snd_CNZ2_Header:
	smpsHeaderStartSong 3, 1
	smpsHeaderVoiceUVB
	smpsHeaderChan      0x06, 0x03
	smpsHeaderTempo     0x01, 0x25

	smpsHeaderDAC       Snd_CNZ2_DAC
	smpsHeaderFM        Snd_CNZ2_FM1,	0x0C, 0x13
	smpsHeaderFM        Snd_CNZ2_FM2,	0x0C, 0x13
	smpsHeaderFM        Snd_CNZ2_FM3,	0x18, 0x18
	smpsHeaderFM        Snd_CNZ2_FM4,	0x18, 0x0C
	smpsHeaderFM        Snd_CNZ2_FM5,	0x0C, 0x18
	smpsHeaderPSG       Snd_CNZ2_PSG1,	0xF4, 0x05, 0x00, sTone_0C
	smpsHeaderPSG       Snd_CNZ2_PSG2,	0xF4, 0x05, 0x00, sTone_0C
	smpsHeaderPSG       Snd_CNZ2_PSG3,	0x00, 0x03, 0x00, sTone_0C

/*  DAC Data */
Snd_CNZ2_DAC:
	.byte	dSnareS3, 0x0C, dClapS3, dSnareS3, 0x06, dClapS3, 0x0C, dClapS3, 0x06, dSnareS3, dClapS3, dClapS3
	.byte	0x0C, dSnareS3, dClapS3, dSnareS3, dClapS3, dSnareS3, 0x06, dClapS3, 0x0C, dSnareS3
	smpsPan             panLeft, 0x00
	.byte	dHighTom, 0x02, dHighTom, dHighTom
	smpsPan             panCenter, 0x00
	.byte	dHighTom, 0x06, dHighTom, dMidTomS3, dMidTomS3
	smpsPan             panRight, 0x00
	.byte	dLowTomS3, dFloorTomS3
	smpsPan             panCenter, 0x00
	.byte	dSnareS3, 0x0C, dClapS3, dSnareS3, 0x06, dClapS3, 0x0C, dClapS3, 0x06, dSnareS3, dClapS3, dClapS3
	.byte	0x0C, dSnareS3, dClapS3, dSnareS3, dClapS3, dSnareS3, 0x06, dClapS3, 0x0C, dSnareS3, 0x1E, dSnareS3
	.byte	0x06, dSnareS3, dSnareS3, dSnareS3, dKickS3, 0x18, dSnareS3, 0x12, dKickS3, 0x0C, dKickS3, dKickS3
	.byte	0x06, dSnareS3, 0x18, dKickS3, dSnareS3, 0x12, dKickS3, 0x0C, dKickS3, dKickS3, 0x06, dSnareS3
	.byte	0x18, dKickS3, dSnareS3, 0x12, dKickS3, 0x0C, dKickS3, dKickS3, 0x06, dSnareS3, 0x18, dKickS3
	.byte	0x12, dSnareS3, 0x0C, dSnareS3, dSnareS3, 0x06, dSnareS3
	smpsPan             panLeft, 0x00
	.byte	dHighTom, 0x02, dHighTom, 0x04, dHighTom, 0x06
	smpsPan             panCenter, 0x00
	.byte	dMidTomS3, dMidTomS3
	smpsPan             panRight, 0x00
	.byte	dLowTomS3, 0x0C, dFloorTomS3, 0x06
	smpsPan             panCenter, 0x00
	.byte	dKickS3, 0x18, dSnareS3, 0x12, dKickS3, 0x0C, dKickS3, dKickS3, 0x06, dSnareS3, 0x18, dKickS3
	.byte	dSnareS3, 0x12, dKickS3, 0x0C, dKickS3, dKickS3, 0x06, dSnareS3, 0x18, dKickS3, dSnareS3, 0x12
	.byte	dKickS3, 0x0C, dKickS3, dKickS3, 0x06, dSnareS3, 0x18, dKickS3, 0x12, dSnareS3, 0x0C, dSnareS3
	.byte	dSnareS3, 0x06, dSnareS3, dMidMetalHit, dMidMetalHit, dMidMetalHit, dHigherMetalHit, dHigherMetalHit, 0x0C, dHigherMetalHit, 0x06, dKickS3
	.byte	dMetalHit, dMetalHit, dLowMetalHit, dSnareS3, dMetalHit, dLowMetalHit, dKickS3, 0x0C, dMetalHit, 0x06, dMetalHit, dLowMetalHit
	.byte	dSnareS3, dMetalHit, dLowMetalHit, dLowMetalHit, dKickS3, dMetalHit, dMetalHit, dLowMetalHit, dSnareS3, dMetalHit, dLowMetalHit, dKickS3
	.byte	0x0C, dMetalHit, 0x06, dMetalHit, dLowMetalHit, dSnareS3, dMetalHit, dLowMetalHit, dLowMetalHit, dKickS3, dMetalHit, dMetalHit
	.byte	dLowMetalHit, dSnareS3, dMetalHit, dLowMetalHit, dKickS3, 0x0C, dMetalHit, 0x06, dMetalHit, dLowMetalHit, dSnareS3, dMetalHit
	.byte	dLowMetalHit, dLowMetalHit, dKickS3, dMetalHit, dMetalHit, dLowMetalHit, dSnareS3, dMetalHit, dLowMetalHit, dKickS3, 0x0C, dSnareS3
	.byte	0x12
	smpsPan             panLeft, 0x00
	.byte	dHighTom, 0x04, dHighTom, dHighTom
	smpsPan             panCenter, 0x00
	.byte	dMidTomS3, 0x06
	smpsPan             panRight, 0x00
	.byte	dLowTomS3
	smpsPan             panCenter, 0x00
	.byte	dKickS3, dMetalHit, dMetalHit, dLowMetalHit, dSnareS3, dMetalHit, dLowMetalHit, dKickS3, 0x0C, dMetalHit, 0x06, dMetalHit
	.byte	dLowMetalHit, dSnareS3, dMetalHit, dLowMetalHit, dLowMetalHit, dKickS3, dMetalHit, dMetalHit, dLowMetalHit, dSnareS3, dMetalHit, dLowMetalHit
	.byte	dKickS3, 0x0C, dMetalHit, 0x06, dMetalHit, dLowMetalHit, dSnareS3, dMetalHit, dLowMetalHit, dLowMetalHit, dKickS3, dMetalHit
	.byte	dMetalHit, dLowMetalHit, dSnareS3, dMetalHit, dLowMetalHit, dKickS3, 0x0C, dMetalHit, 0x06, dMetalHit, dLowMetalHit, dSnareS3
	.byte	dMetalHit, dLowMetalHit, dLowMetalHit, dKickS3, 0x12, dSnareS3, dSnareS3, 0x06, dSnareS3, 0x0C, dSnareS3, 0x12
	.byte	dSnareS3, 0x06, dSnareS3, dSnareS3, dSnareS3, dKickS3, 0x18, dSnareS3, 0x12, dKickS3, 0x0C, dKickS3
	.byte	dKickS3, 0x06, dSnareS3, 0x18, dKickS3, dSnareS3, 0x12, dKickS3, 0x0C, dKickS3, dKickS3, 0x06
	.byte	dSnareS3, 0x18, dKickS3, dSnareS3, 0x12, dKickS3, 0x0C, dKickS3, dKickS3, 0x06, dSnareS3, 0x18
	.byte	dKickS3, dSnareS3, 0x12, dKickS3, 0x0C, dKickS3, dKickS3, 0x06, dSnareS3, dSnareS3, 0x0C, dSnareS3
	.byte	0x06, dKickS3, 0x18, dSnareS3, 0x12, dKickS3, 0x0C, dKickS3, dKickS3, 0x06, dSnareS3, 0x18
	.byte	dKickS3, dSnareS3, 0x12, dKickS3, 0x0C, dKickS3, dKickS3, 0x06, dSnareS3, 0x18, dKickS3, dSnareS3
	.byte	0x12, dKickS3, 0x0C, dKickS3, dKickS3, 0x06, dSnareS3, 0x18, dSnareS3, 0x06, dSnareS3, 0x0C
	.byte	dSnareS3, 0x06, dSnareS3, 0x0C, dSnareS3, 0x06, dSnareS3, 0x0C, dSnareS3, 0x06, dSnareS3, 0x12
	.byte	dSnareS3, 0x06, dSnareS3, dSnareS3, 0x04, nRst, 0x02
	smpsJump            Snd_CNZ2_DAC

/*  FM1 Data */
Snd_CNZ2_FM1:
	smpsPan             panCenter, 0x00
	smpsSetvoice        0x06
	smpsDetune          0x01
	smpsModSet          0x0A, 0x01, 0x03, 0x06
	.byte	nCs4, 0x04, nRst, 0x08, nCs4, 0x04, nRst, 0x08, nBb3, 0x10, nRst, 0x02
	.byte	nC4, 0x04, nRst, 0x08, nC4, 0x04, nRst, 0x08, nC4, 0x04, nRst, 0x08
	.byte	nA3, 0x04, nRst, 0x02, nA3, 0x0A, nRst, 0x02, nCs4, 0x04, nRst, 0x08
	.byte	nCs4, 0x04, nRst, 0x08, nBb3, 0x10, nRst, 0x02, nC4, 0x04, nRst, 0x08
	.byte	nC3, 0x04, nRst, 0x02, nF3, 0x04, nRst, 0x02, nA3, 0x04, nRst, 0x02
	.byte	nA3, 0x04, nRst, 0x02, nA3, 0x04, nRst, 0x08, nA3, 0x04, nRst, 0x02
	.byte	nBb4, 0x04, nRst, 0x08, nBb4, 0x04, nRst, 0x08, nG4, 0x10, nRst, 0x02
	.byte	nA4, 0x04, nRst, 0x08, nA4, 0x04, nRst, 0x08, nA4, 0x04, nRst, 0x08
	.byte	nFs4, 0x04, nRst, 0x02, nFs4, 0x0A, nRst, 0x02, nBb4, 0x04, nRst, 0x08
	.byte	nBb4, 0x04, nRst, 0x08, nG4, 0x10, nRst, 0x02, nA4, 0x04, nRst, 0x08
	.byte	nA2, 0x04, nRst, 0x02, nC3, 0x04, nRst, 0x02, nF3, 0x04, nRst, 0x02
	.byte	nA3, 0x04, nRst, 0x02, nD4, 0x04, nRst, 0x02, nFs4, 0x04, nRst, 0x02
	.byte	nA4, 0x04, nRst, 0x02, nC4, 0x10, nRst, 0x02, nC4, 0x04, nRst, 0x02
	.byte	nE4, 0x10, nRst, 0x02, nC4, 0x04, nRst, 0x26, nC4, 0x0A, nRst, 0x02
	.byte	nBb3, 0x04, nRst, 0x02, nBb3, 0x04, nRst, 0x08, nBb3, 0x04, nRst, 0x08
	.byte	nBb3, 0x04, nRst, 0x08, nBb3, 0x04, nRst, 0x02, nBb3, 0x04, nRst, 0x08
	.byte	nA3, 0x04, nRst, 0x14, nBb3, 0x0A, nRst, 0x02, nC4, 0x10, nRst, 0x02
	.byte	nC4, 0x04, nRst, 0x02, nE4, 0x10, nRst, 0x02, nC4, 0x04, nRst, 0x26
	.byte	nC4, 0x0A, nRst, 0x02, nBb3, 0x04, nRst, 0x02, nBb3, 0x04, nRst, 0x08
	.byte	nBb3, 0x04, nRst, 0x08, nBb3, 0x04, nRst, 0x08, nBb3, 0x04, nRst, 0x02
	.byte	nBb3, 0x04, nRst, 0x08, nA3, 0x04, nRst, 0x14, nBb3, 0x0A, nRst, 0x02
	.byte	nC4, 0x10, nRst, 0x02, nC4, 0x04, nRst, 0x02, nE4, 0x10, nRst, 0x02
	.byte	nC4, 0x04, nRst, 0x26, nC4, 0x0A, nRst, 0x02, nBb3, 0x04, nRst, 0x02
	.byte	nBb3, 0x04, nRst, 0x08, nBb3, 0x04, nRst, 0x08, nBb3, 0x04, nRst, 0x08
	.byte	nBb3, 0x04, nRst, 0x02, nBb3, 0x04, nRst, 0x08, nA3, 0x04, nRst, 0x14
	.byte	nBb3, 0x0A, nRst, 0x02, nC4, 0x10, nRst, 0x02, nC4, 0x04, nRst, 0x02
	.byte	nE4, 0x10, nRst, 0x02, nC4, 0x04, nRst, 0x26, nC4, 0x0A, nRst, 0x02
	.byte	nBb3, 0x04, nRst, 0x02, nBb3, 0x04, nRst, 0x08, nBb3, 0x04, nRst, 0x08
	.byte	nBb3, 0x04, nRst, 0x08, nBb3, 0x04, nRst, 0x02, nBb3, 0x04, nRst, 0x2C
	smpsSetvoice        0x20
	smpsDetune          0x00
	smpsModSet          0x0A, 0x01, 0x00, 0x06
	smpsPan             panLeft, 0x00
	.byte	nC3, 0x16, nRst, 0x02, nD3, 0x10, nRst, 0x02, nEb3, 0x04, nRst, 0x08
	.byte	nEb3, 0x04, nRst, 0x02, nD3, 0x0A, nRst, 0x02, nEb3, 0x0A, nRst, 0x02
	.byte	nC3, 0x0A, nRst, 0x02, nBb2, 0x28, nRst, 0x02, nD3, 0x04, nRst, 0x08
	.byte	nBb2, 0x04, nRst, 0x02, nD3, 0x0A, nRst, 0x02, nG3, 0x0A, nRst, 0x02
	.byte	nBb3, 0x0A, nRst, 0x02, nC3, 0x16, nRst, 0x02, nD3, 0x10, nRst, 0x02
	.byte	nEb3, 0x04, nRst, 0x08, nEb3, 0x04, nRst, 0x02, nD3, 0x0A, nRst, 0x02
	.byte	nEb3, 0x0A, nRst, 0x02, nC3, 0x0A, nRst, 0x02, nBb2, 0x16, nRst, 0x02
	.byte	nC3, 0x10, nRst, 0x02, nD3, 0x04, nRst, 0x08, nD3, 0x04, nRst, 0x02
	.byte	nBb2, 0x0A, nRst, 0x02, nD3, 0x0A, nRst, 0x02, nF3, 0x0A, nRst, 0x02
	.byte	nC3, 0x16, nRst, 0x02, nD3, 0x10, nRst, 0x02, nEb3, 0x04, nRst, 0x08
	.byte	nEb3, 0x04, nRst, 0x02, nD3, 0x0A, nRst, 0x02, nEb3, 0x0A, nRst, 0x02
	.byte	nC3, 0x0A, nRst, 0x02, nBb2, 0x16, nRst, 0x02, nC3, 0x10, nRst, 0x02
	.byte	nD3, 0x04, nRst, 0x08, nBb2, 0x04, nRst, 0x02, nD3, 0x0A, nRst, 0x02
	.byte	nG3, 0x0A, nRst, 0x02, nBb3, 0x0A, nRst, 0x02, nC3, 0x16, nRst, 0x02
	.byte	nD3, 0x10, nRst, 0x02, nEb3, 0x04, nRst, 0x08, nEb3, 0x04, nRst, 0x02
	.byte	nD3, 0x0A, nRst, 0x02, nEb3, 0x0A, nRst, 0x02, nF3, 0x0A, nRst, 0x02
	.byte	nG3, 0x0A, nRst, 0x02, nF3, 0x04, nRst, 0x02, nG3, 0x04, nRst, 0x20
	.byte	nFs3, 0x02, nG3, nRst, 0x08, nF3, 0x04, nRst, 0x02, nG3, 0x0A, nRst
	.byte	0x02, nF3, 0x0A, nRst, 0x02
	smpsSetvoice        0x06
	smpsDetune          0x01
	smpsModSet          0x0A, 0x01, 0x03, 0x06
	smpsPan             panCenter, 0x00
	.byte	nBb3, 0x06, nBb3, nBb3, nBb3, nRst, 0x0C, nD4, 0x12, nEb4, 0x06, nRst
	.byte	nEb4, nD4, nRst, 0x12, nC4, 0x06, nC4, nC4, nC4, nRst, 0x0C, nBb3
	.byte	0x06, nC4, nRst, nD4, 0x12, nBb3, 0x06, nRst, nAb3, nRst, nG3, nG3
	.byte	nG3, nG3, nRst, 0x0C, nD4, 0x12, nEb4, 0x06, nRst, nEb4, nD4, nRst
	.byte	0x12
	smpsSetvoice        0x21
	smpsDetune          0x01
	smpsModSet          0x0A, 0x01, 0x06, 0x06
	.byte	nAb4, 0x18, nAb4, 0x12, nG4, 0x06, nRst
	smpsSetvoice        0x06
	smpsDetune          0x01
	smpsModSet          0x0A, 0x01, 0x03, 0x06
	.byte	nAb3, nRst, nF3, nAb3, nRst, nC4, nRst, nBb3, nBb3, nBb3, nBb3, nRst
	.byte	0x0C, nD4, 0x12, nEb4, 0x06, nRst, nEb4, nD4, nRst, 0x12, nC4, 0x06
	.byte	nC4, nC4, nC4, nRst, 0x0C, nBb3, 0x06, nC4, nRst, nD4, 0x12, nBb3
	.byte	0x06, nRst, nAb3, nRst, nG3, nG3, nG3, nG3, nRst, 0x0C, nD4, 0x12
	.byte	nEb4, 0x06, nRst, nEb4, nD4, nRst, 0x12
	smpsSetvoice        0x21
	smpsDetune          0x01
	smpsModSet          0x0A, 0x01, 0x06, 0x06
	.byte	nA3, 0x06, nA3, nRst, nA3, nA3, nRst, nA3, nA3, nRst, nA3, nA3
	.byte	0x0C, nG3, 0x02, nF3, nEb3, nD3, nC3, nBb2, nA2, nRst, 0x0A
	smpsJump            Snd_CNZ2_FM1

/*  FM2 Data */
Snd_CNZ2_FM2:
	smpsPan             panCenter, 0x00
	smpsSetvoice        0x06
	smpsDetune          0xFF
	smpsModSet          0x0A, 0x01, 0x03, 0x06
	.byte	nBb3, 0x04, nRst, 0x08, nBb3, 0x04, nRst, 0x08, nG3, 0x10, nRst, 0x02
	.byte	nA3, 0x04, nRst, 0x08, nA3, 0x04, nRst, 0x08, nA3, 0x04, nRst, 0x08
	.byte	nFs3, 0x04, nRst, 0x02, nFs3, 0x0A, nRst, 0x02, nBb3, 0x04, nRst, 0x08
	.byte	nBb3, 0x04, nRst, 0x08, nG3, 0x10, nRst, 0x02, nA3, 0x04, nRst, 0x08
	.byte	nA2, 0x04, nRst, 0x02, nC3, 0x04, nRst, 0x02, nF3, 0x04, nRst, 0x02
	.byte	nFs3, 0x04, nRst, 0x02, nFs3, 0x04, nRst, 0x08, nFs3, 0x04, nRst, 0x02
	.byte	nFs4, 0x04, nRst, 0x08, nFs4, 0x04, nRst, 0x08, nEb4, 0x10, nRst, 0x02
	.byte	nF4, 0x04, nRst, 0x08, nF4, 0x04, nRst, 0x08, nF4, 0x04, nRst, 0x08
	.byte	nD4, 0x04, nRst, 0x02, nD4, 0x0A, nRst, 0x02, nFs4, 0x04, nRst, 0x08
	.byte	nFs4, 0x04, nRst, 0x08, nEb4, 0x10, nRst, 0x02, nF4, 0x04, nRst, 0x08
	.byte	nF2, 0x04, nRst, 0x02, nA2, 0x04, nRst, 0x02, nC3, 0x04, nRst, 0x02
	.byte	nFs3, 0x04, nRst, 0x02, nA3, 0x04, nRst, 0x02, nD4, 0x04, nRst, 0x02
	.byte	nFs4, 0x04, nRst, 0x02, nE3, 0x10, nRst, 0x02, nE3, 0x04, nRst, 0x02
	.byte	nG3, 0x10, nRst, 0x02, nE3, 0x04, nRst, 0x08
	smpsSetvoice        0x06
	smpsDetune          0x01
	smpsModSet          0x08, 0x01, 0x0A, 0x03
	.byte	nC4, 0x04, nRst, 0x02, nC5, 0x10, nRst, 0x08
	smpsSetvoice        0x06
	smpsDetune          0xFF
	smpsModSet          0x0A, 0x01, 0x03, 0x06
	.byte	nE3, 0x0A, nRst, 0x02, nD3, 0x04, nRst, 0x02, nD3, 0x04, nRst, 0x08
	.byte	nD3, 0x04, nRst, 0x08, nD3, 0x04, nRst, 0x08, nD3, 0x04, nRst, 0x02
	.byte	nD3, 0x04, nRst, 0x08, nC3, 0x04, nRst, 0x14, nD3, 0x0A, nRst, 0x02
	.byte	nE3, 0x10, nRst, 0x02, nE3, 0x04, nRst, 0x02, nG3, 0x10, nRst, 0x02
	.byte	nE3, 0x04, nRst, 0x08
	smpsSetvoice        0x06
	smpsDetune          0x01
	smpsModSet          0x08, 0x01, 0x0A, 0x03
	.byte	nC4, 0x04, nRst, 0x02, nC5, 0x10, nRst, 0x08
	smpsSetvoice        0x06
	smpsDetune          0xFF
	smpsModSet          0x0A, 0x01, 0x03, 0x06
	.byte	nE3, 0x0A, nRst, 0x02, nD3, 0x04, nRst, 0x02, nD3, 0x04, nRst, 0x08
	.byte	nD3, 0x04, nRst, 0x08, nD3, 0x04, nRst, 0x08, nD3, 0x04, nRst, 0x02
	.byte	nD3, 0x04, nRst, 0x08, nC3, 0x04, nRst, 0x14, nD3, 0x0A, nRst, 0x02
	.byte	nE3, 0x10, nRst, 0x02, nE3, 0x04, nRst, 0x02, nG3, 0x10, nRst, 0x02
	.byte	nE3, 0x04, nRst, 0x08
	smpsSetvoice        0x06
	smpsDetune          0x01
	smpsModSet          0x08, 0x01, 0x0A, 0x03
	.byte	nC4, 0x04, nRst, 0x02, nC5, 0x10, nRst, 0x08
	smpsSetvoice        0x06
	smpsDetune          0xFF
	smpsModSet          0x0A, 0x01, 0x03, 0x06
	.byte	nE3, 0x0A, nRst, 0x02, nD3, 0x04, nRst, 0x02, nD3, 0x04, nRst, 0x08
	.byte	nD3, 0x04, nRst, 0x08, nD3, 0x04, nRst, 0x08, nD3, 0x04, nRst, 0x02
	.byte	nD3, 0x04, nRst, 0x08, nC3, 0x04, nRst, 0x14, nD3, 0x0A, nRst, 0x02
	.byte	nE3, 0x10, nRst, 0x02, nE3, 0x04, nRst, 0x02, nG3, 0x10, nRst, 0x02
	.byte	nE3, 0x04, nRst, 0x08
	smpsSetvoice        0x06
	smpsDetune          0x01
	smpsModSet          0x08, 0x01, 0x0A, 0x03
	.byte	nC4, 0x04, nRst, 0x02, nC5, 0x10, nRst, 0x08
	smpsSetvoice        0x06
	smpsDetune          0xFF
	smpsModSet          0x0A, 0x01, 0x03, 0x06
	.byte	nE3, 0x0A, nRst, 0x02, nD3, 0x04, nRst, 0x02, nD3, 0x04, nRst, 0x08
	.byte	nD3, 0x04, nRst, 0x08, nD3, 0x04, nRst, 0x08, nD3, 0x04, nRst, 0x02
	.byte	nD3, 0x04, nRst, 0x1A, nA2, 0x04, nRst, 0x02, nBb2, 0x04, nRst, 0x02
	.byte	nC3, 0x04, nRst, 0x02
	smpsSetvoice        0x20
	smpsDetune          0x00
	smpsModSet          0x0A, 0x01, 0x00, 0x06
	smpsPan             panRight, 0x00
	.byte	nAb2, 0x16, nRst, 0x02, nBb2, 0x10, nRst, 0x02, nC3, 0x04, nRst, 0x08
	.byte	nC3, 0x04, nRst, 0x02, nBb2, 0x0A, nRst, 0x02, nC3, 0x0A, nRst, 0x02
	.byte	nAb2, 0x0A, nRst, 0x02, nG2, 0x28, nRst, 0x02, nBb2, 0x04, nRst, 0x08
	.byte	nG2, 0x04, nRst, 0x02, nBb2, 0x0A, nRst, 0x02, nD3, 0x0A, nRst, 0x02
	.byte	nG3, 0x0A, nRst, 0x02, nAb2, 0x16, nRst, 0x02, nBb2, 0x10, nRst, 0x02
	.byte	nC3, 0x04, nRst, 0x08, nC3, 0x04, nRst, 0x02, nBb2, 0x0A, nRst, 0x02
	.byte	nC3, 0x0A, nRst, 0x02, nAb2, 0x0A, nRst, 0x02, nG2, 0x16, nRst, 0x02
	.byte	nAb2, 0x10, nRst, 0x02, nBb2, 0x04, nRst, 0x08, nBb2, 0x04, nRst, 0x02
	.byte	nG2, 0x0A, nRst, 0x02, nBb2, 0x0A, nRst, 0x02, nD3, 0x0A, nRst, 0x02
	.byte	nAb2, 0x16, nRst, 0x02, nBb2, 0x10, nRst, 0x02, nC3, 0x04, nRst, 0x08
	.byte	nC3, 0x04, nRst, 0x02, nBb2, 0x0A, nRst, 0x02, nC3, 0x0A, nRst, 0x02
	.byte	nAb2, 0x0A, nRst, 0x02, nG2, 0x16, nRst, 0x02, nAb2, 0x10, nRst, 0x02
	.byte	nBb2, 0x04, nRst, 0x08, nG2, 0x04, nRst, 0x02, nBb2, 0x0A, nRst, 0x02
	.byte	nD3, 0x0A, nRst, 0x02, nG3, 0x0A, nRst, 0x02, nAb2, 0x16, nRst, 0x02
	.byte	nBb2, 0x10, nRst, 0x02, nC3, 0x04, nRst, 0x08, nC3, 0x04, nRst, 0x02
	.byte	nBb2, 0x0A, nRst, 0x02, nC3, 0x0A, nRst, 0x02, nD3, 0x0A, nRst, 0x02
	.byte	nAb2, 0x0A, nRst, 0x02, nAb2, 0x04, nRst, 0x02, nAb2, 0x04, nRst, 0x20
	.byte	nD3, 0x04, nRst, 0x08, nD3, 0x04, nRst, 0x02, nD3, 0x0A, nRst, 0x02
	.byte	nD3, 0x0A, nRst, 0x02
	smpsSetvoice        0x06
	smpsDetune          0xFF
	smpsModSet          0x0A, 0x01, 0x03, 0x06
	smpsPan             panCenter, 0x00
	.byte	nG3, 0x06, nG3, nG3, nG3, nRst, 0x0C, nF3, 0x12, nG3, 0x06, nRst
	.byte	nG3, nF3, nRst, 0x12, nAb3, 0x06, nAb3, nAb3, nAb3, nRst, 0x0C, nF3
	.byte	0x06, nAb3, nRst, nBb3, 0x12, nF3, 0x06, nRst, nEb3, nRst, nEb3, nEb3
	.byte	nEb3, nEb3, nRst, 0x0C, nF3, 0x12, nG3, 0x06, nRst, nG3, nF3, nRst
	.byte	0x12
	smpsSetvoice        0x21
	smpsDetune          0xFF
	smpsModSet          0x0A, 0x01, 0x06, 0x06
	.byte	nC4, 0x18, nC4, 0x12, nBb3, 0x06, nRst
	smpsSetvoice        0x06
	smpsDetune          0xFF
	smpsModSet          0x0A, 0x01, 0x03, 0x06
	.byte	nF3, nRst, nCs3, nF3, nRst, nAb3, nRst, nG3, nG3, nG3, nG3, nRst
	.byte	0x0C, nF3, 0x12, nG3, 0x06, nRst, nG3, nF3, nRst, 0x12, nAb3, 0x06
	.byte	nAb3, nAb3, nAb3, nRst, 0x0C, nF3, 0x06, nAb3, nRst, nBb3, 0x12, nF3
	.byte	0x06, nRst, nEb3, nRst, nEb3, nEb3, nEb3, nEb3, nRst, 0x0C, nF3, 0x12
	.byte	nG3, 0x06, nRst, nG3, nF3, nRst, 0x12
	smpsSetvoice        0x21
	smpsDetune          0xFF
	smpsModSet          0x0A, 0x01, 0x06, 0x06
	.byte	nEb3, 0x06, nEb3, nRst, nEb3, nEb3, nRst, nEb3, nEb3, nRst, nEb3, nEb3
	.byte	0x0C, nD3, 0x02, nC3, nBb2, nA2, nG2, nF2, nEb2, nRst, 0x0A
	smpsJump            Snd_CNZ2_FM2

/*  FM3 Data */
Snd_CNZ2_FM3:
	smpsPan             panLeft, 0x00

Snd_CNZ2_Jump01:
	smpsSetvoice        0x0D
	smpsDetune          0x01
	smpsModSet          0x0F, 0x01, 0x06, 0x04
	.byte	nFs3, 0x04, nRst, 0x08, nFs3, 0x04, nRst, 0x08, nEb3, 0x10, nRst, 0x02
	.byte	nF3, 0x04, nRst, 0x08, nF3, 0x04, nRst, 0x08, nF3, 0x04, nRst, 0x08
	.byte	nD3, 0x04, nRst, 0x02, nD3, 0x0A, nRst, 0x02, nFs3, 0x04, nRst, 0x08
	.byte	nFs3, 0x04, nRst, 0x08, nEb3, 0x10, nRst, 0x02, nF3, 0x04, nRst, 0x08
	.byte	nF2, 0x04, nRst, 0x02, nA2, 0x04, nRst, 0x02, nC3, 0x04, nRst, 0x02
	.byte	nD3, 0x04, nRst, 0x02, nA3, 0x04, nRst, 0x08, nD4, 0x04, nRst, 0x02
	.byte	nCs4, 0x04, nRst, 0x08, nCs4, 0x04, nRst, 0x08, nBb3, 0x10, nRst, 0x02
	.byte	nC4, 0x04, nRst, 0x08, nC4, 0x04, nRst, 0x08, nC4, 0x04, nRst, 0x08
	.byte	nA3, 0x04, nRst, 0x02, nA3, 0x0A, nRst, 0x02, nCs4, 0x04, nRst, 0x08
	.byte	nCs4, 0x04, nRst, 0x08, nBb3, 0x10, nRst, 0x02, nC4, 0x04, nRst, 0x08
	.byte	nC2, 0x04, nRst, 0x02, nF2, 0x04, nRst, 0x02, nA2, 0x04, nRst, 0x02
	.byte	nD3, 0x04, nRst, 0x02, nFs3, 0x04, nRst, 0x02, nA3, 0x04, nRst, 0x02
	.byte	nD4, 0x04, nRst, 0x02
	smpsSetvoice        0x03
	smpsDetune          0xFE
	smpsModSet          0x0F, 0x01, 0x06, 0x06
	.byte	nEb4, nE4, nRst, 0x08, nF4, 0x04, nRst, 0x08, nG4, 0x16, nRst, 0x14
	.byte	nE4, 0x04, nRst, 0x02, nF4, 0x04, nRst, 0x08, nG4, 0x04, nRst, 0x08
	.byte	nBb4, 0x04, nRst, 0x02, nBb4, 0x04, nRst, 0x08, nBb4, 0x04, nRst, 0x08
	.byte	nBb4, 0x04, nRst, 0x08, nBb4, 0x04, nRst, 0x02, nBb4, 0x04, nRst, 0x08
	.byte	nA4, 0x04, nRst, 0x08, nG4, 0x04, nRst, 0x08, nF4, 0x04, nRst, 0x08
	.byte	nEb4, 0x02, nE4, nRst, 0x08, nF4, 0x04, nRst, 0x08, nG4, 0x16, nRst
	.byte	0x14, nEb5, 0x02, nE5, 0x04, nD5, nRst, 0x08, nC5, 0x04, nRst, 0x08
	.byte	nBb4, 0x04, nRst, 0x02, nBb4, 0x04, nRst, 0x08, nBb4, 0x04, nRst, 0x08
	.byte	nBb4, 0x04, nRst, 0x08, nBb4, 0x04, nRst, 0x02, nBb4, 0x08, nA4, 0x02
	.byte	nG4, nF4, nE4, nD4, nC4, nBb3, nRst, nG4, 0x04, nRst, 0x08, nF4
	.byte	0x04, nRst, 0x08, nEb4, 0x02, nE4, nRst, 0x08, nF4, 0x04, nRst, 0x08
	.byte	nG4, 0x16, nRst, 0x14, nE4, 0x04, nRst, 0x02, nF4, 0x04, nRst, 0x08
	.byte	nG4, 0x04, nRst, 0x08, nBb4, 0x04, nRst, 0x02, nBb4, 0x04, nRst, 0x08
	.byte	nBb4, 0x04, nRst, 0x08, nBb4, 0x04, nRst, 0x08, nBb4, 0x04, nRst, 0x02
	.byte	nBb4, 0x04, nRst, 0x08, nA4, 0x04, nRst, 0x08, nG4, 0x04, nRst, 0x08
	.byte	nF4, 0x04, nRst, 0x08, nEb4, 0x02, nE4, nRst, 0x08, nF4, 0x04, nRst
	.byte	0x08, nG4, 0x16, nRst, 0x14, nEb5, 0x02, nE5, 0x04, nD5, nRst, 0x08
	.byte	nC5, 0x04, nRst, 0x08, nC5, 0x04, nRst, 0x02, nF5, 0x04, nRst, 0x08
	.byte	nC5, 0x04, nRst, 0x08, nF5, 0x04, nRst, 0x08, nC5, 0x04, nRst, 0x02
	.byte	nF5, 0x08, nE5, 0x02, nD5, nC5, nBb4, nA4, nG4, nF4, nRst, 0x08
	smpsSetvoice        0x21
	smpsDetune          0x01
	smpsModSet          0x0A, 0x01, 0x06, 0x06
	smpsPan             panCenter, 0x00
	.byte	nC4, 0x04, nRst, 0x02, nD4, 0x04, nRst, 0x02, nF4, 0x04, nRst, 0x02
	.byte	nEb4, 0x06, nD4, nEb4, nF4, nRst, nD4, nRst, nBb3, 0x2A, nEb4, 0x0C
	.byte	nD4, 0x06, nD4, nRst, nD4, nRst, nBb3, nRst, nF3, 0x0C, nF3, 0x06
	.byte	nG3, 0x0C, nBb3, nD4, nEb4, 0x06, nD4, nEb4, nF4, nRst, nD4, nRst
	.byte	nBb3, 0x2A, nEb4, 0x0C, nD4, 0x06, nC4, nD4, nEb4, 0x0C, nD4, 0x06
	.byte	nEb4, nF4, 0x0C, nEb4, 0x06, nF4, nG4, 0x0C, nF4, 0x06, nG4, 0x0C
	.byte	nEb4, 0x06, nD4, nEb4, nF4, nRst, nD4, nRst, nBb3, 0x2A, nEb4, 0x0C
	.byte	nD4, 0x06, nD4, nRst, nD4, nRst, nBb3, nRst, nF3, 0x0C, nF3, 0x06
	.byte	nG3, 0x0C, nBb3, nD4, nEb4, 0x06, nEb4, nRst, nEb4, nRst, nD4, nRst
	.byte	nBb3, 0x36, nD4, 0x0C, nC4, 0x06, nD4, nRst, nEb4, nF4, nC5, 0x18
	.byte	nBb4, 0x06, nRst
	smpsSetvoice        0x08
	smpsDetune          0x01
	smpsModSet          0x0F, 0x01, 0x06, 0x06
	smpsPan             panLeft, 0x00
	.byte	nF4, nG4, nAb4, nBb4, nRst, nC5, nRst, nEb5, 0x0C, nD5, 0x06, nBb4
	.byte	0x36, nBb4, 0x06, nRst, nC5, nRst, nEb5, 0x0C, nD5, 0x06, nEb5, nRst
	.byte	nF5, 0x12, nD5, 0x06, nRst, nC5, nRst, nBb4, nRst, nC5, nRst, nEb5
	.byte	0x0C, nD5, 0x06, nBb4, 0x1E, nRst, 0x06, nC4, nEb4, nFs4, nAb4, nFs4
	.byte	nAb4, nAb4, nAb4, nFs4, nRst, nG4, nRst, nC5, nRst, nAb4, nC5, nRst
	.byte	nF5, nRst, nBb4, nRst, nC5, nRst, nEb5, 0x0C, nD5, 0x06, nBb4, 0x36
	.byte	nBb4, 0x06, nRst, nC5, nRst, nEb5, 0x0C, nD5, 0x06, nEb5, nRst, nF5
	.byte	0x12, nD5, 0x06, nRst, nC5, nRst, nBb4, nRst, nC5, nRst, nEb5, 0x0C
	.byte	nD5, 0x06, nBb4, 0x1E, nRst, 0x06, nC4, nEb4, nFs4, nF5, nF5, nRst
	.byte	nF5, nF5, nRst, nF5, nF5, nRst, nF5, nF5, nRst, 0x0C
	smpsSetvoice        0x0D
	smpsDetune          0x01
	smpsModSet          0x0F, 0x01, 0x06, 0x04
	.byte	nEb3, 0x06, nF3, 0x0C
	smpsJump            Snd_CNZ2_Jump01

/*  FM4 Data */
Snd_CNZ2_FM4:
	smpsSetvoice        0x14
	smpsDetune          0x00
	smpsModSet          0x02, 0x01, 0x01, 0x02
	.byte	nFs1, 0x04, nRst, 0x08, nFs1, 0x04, nRst, 0x08, nEb1, 0x10, nRst, 0x02
	.byte	nF1, 0x04, nRst, 0x08, nF1, 0x04, nRst, 0x08, nF1, 0x04, nRst, 0x08
	.byte	nD1, 0x04, nRst, 0x02, nD1, 0x0A, nRst, 0x02, nFs1, 0x04, nRst, 0x08
	.byte	nFs1, 0x04, nRst, 0x08, nEb1, 0x10, nRst, 0x02, nF1, 0x04, nRst, 0x08
	.byte	nF1, 0x04, nRst, 0x02, nF1, 0x04, nRst, 0x02, nF1, 0x04, nRst, 0x02
	.byte	nD1, 0x16, nRst, 0x02, nFs1, 0x04, nRst, 0x08, nFs1, 0x04, nRst, 0x08
	.byte	nEb1, 0x10, nRst, 0x02, nF1, 0x04, nRst, 0x08, nF1, 0x04, nRst, 0x08
	.byte	nF1, 0x04, nRst, 0x08, nD1, 0x04, nRst, 0x02, nD1, 0x0A, nRst, 0x02
	.byte	nFs1, 0x04, nRst, 0x08, nFs1, 0x04, nRst, 0x08, nEb1, 0x10, nRst, 0x02
	.byte	nF1, 0x04, nRst, 0x32, nC1, 0x10, nRst, 0x02, nG0, 0x16, nRst, 0x02
	.byte	nC1, 0x04, nRst, 0x08, nC1, 0x04, nRst, 0x08, nC1, 0x04, nRst, 0x02
	.byte	nG0, 0x0A, nRst, 0x02, nC1, 0x0A, nRst, 0x02, nBb0, 0x10, nRst, 0x02
	.byte	nF0, 0x16, nRst, 0x02, nBb0, 0x04, nRst, 0x02, nBb0, 0x04, nRst, 0x08
	.byte	nBb0, 0x04, nRst, 0x08, nF0, 0x0A, nRst, 0x02, nBb0, 0x0A, nRst, 0x02
	.byte	nC1, 0x10, nRst, 0x02, nG0, 0x16, nRst, 0x02, nC1, 0x04, nRst, 0x08
	.byte	nC1, 0x04, nRst, 0x08, nC1, 0x04, nRst, 0x02, nG0, 0x0A, nRst, 0x02
	.byte	nC1, 0x0A, nRst, 0x02, nBb0, 0x10, nRst, 0x02, nF0, 0x16, nRst, 0x02
	.byte	nBb0, 0x04, nRst, 0x02, nBb0, 0x04, nRst, 0x0E, nBb0, 0x04, nRst, 0x02
	.byte	nF0, 0x0A, nRst, 0x02, nBb0, 0x0A, nRst, 0x02, nC1, 0x10, nRst, 0x02
	.byte	nG0, 0x16, nRst, 0x02, nC1, 0x04, nRst, 0x08, nC1, 0x04, nRst, 0x08
	.byte	nC1, 0x04, nRst, 0x02, nG0, 0x0A, nRst, 0x02, nC1, 0x0A, nRst, 0x02
	.byte	nBb0, 0x10, nRst, 0x02, nF0, 0x16, nRst, 0x02, nBb0, 0x04, nRst, 0x02
	.byte	nBb0, 0x04, nRst, 0x08, nBb0, 0x04, nRst, 0x08, nF0, 0x0A, nRst, 0x02
	.byte	nBb0, 0x0A, nRst, 0x02, nC1, 0x10, nRst, 0x02, nG0, 0x16, nRst, 0x02
	.byte	nC1, 0x04, nRst, 0x08, nC1, 0x04, nRst, 0x08, nC1, 0x04, nRst, 0x02
	.byte	nG0, 0x0A, nRst, 0x02, nC1, 0x0A, nRst, 0x02, nBb0, 0x10, nRst, 0x02
	.byte	nF0, 0x16, nRst, 0x02, nBb0, 0x04, nRst, 0x02, nBb0, 0x04, nRst, 0x08
	.byte	nBb0, 0x04, nRst, 0x08, nBb0, 0x0A, nRst, 0x02, nF1, 0x0A, nRst, 0x02
	.byte	nAb1, 0x16, nRst, 0x02, nEb1, 0x10, nRst, 0x02, nAb0, 0x1C, nRst, 0x02
	.byte	nEb1, 0x0A, nRst, 0x02, nAb1, 0x0A, nRst, 0x02, nEb1, 0x16, nRst, 0x02
	.byte	nBb0, 0x10, nRst, 0x02, nEb0, 0x1C, nRst, 0x02, nBb0, 0x0A, nRst, 0x02
	.byte	nEb1, 0x0A, nRst, 0x02, nAb1, 0x16, nRst, 0x02, nEb1, 0x10, nRst, 0x02
	.byte	nAb0, 0x1C, nRst, 0x02, nEb1, 0x0A, nRst, 0x02, nAb1, 0x0A, nRst, 0x02
	.byte	nC1, 0x16, nRst, 0x02, nG0, 0x10, nRst, 0x02, nC1, 0x1C, nRst, 0x02
	.byte	nG0, 0x0A, nRst, 0x02, nC1, 0x0A, nRst, 0x02, nAb1, 0x16, nRst, 0x02
	.byte	nEb1, 0x10, nRst, 0x02, nAb0, 0x1C, nRst, 0x02, nEb1, 0x0A, nRst, 0x02
	.byte	nAb1, 0x0A, nRst, 0x02, nEb1, 0x16, nRst, 0x02, nBb0, 0x10, nRst, 0x02
	.byte	nEb0, 0x1C, nRst, 0x02, nBb0, 0x0A, nRst, 0x02, nEb1, 0x0A, nRst, 0x02
	.byte	nAb1, 0x16, nRst, 0x02, nEb1, 0x10, nRst, 0x02, nAb0, 0x1C, nRst, 0x02
	.byte	nEb1, 0x0A, nRst, 0x02, nAb1, 0x0A, nRst, 0x02, nBb0, 0x10, nRst, 0x02
	.byte	nBb0, 0x04, nRst, 0x0E, nAb0, 0x04, nRst, 0x02, nBb0, 0x04, nRst, 0x08
	.byte	nBb0, 0x10, nRst, 0x02, nBb0, 0x0A, nRst, 0x02, nF1, 0x0A, nRst, 0x02
	.byte	nEb1, 0x10, nRst, 0x02, nBb0, 0x10, nRst, 0x02, nEb1, 0x10, nRst, 0x02
	.byte	nEb1, 0x04, nRst, 0x08, nEb1, 0x04, nRst, 0x02, nEb1, 0x0A, nRst, 0x02
	.byte	nBb1, 0x0A, nRst, 0x02, nAb1, 0x10, nRst, 0x02, nEb1, 0x10, nRst, 0x02
	.byte	nAb1, 0x10, nRst, 0x02, nAb1, 0x04, nRst, 0x08, nAb1, 0x04, nRst, 0x02
	.byte	nAb1, 0x0A, nRst, 0x02, nBb1, 0x0A, nRst, 0x02, nEb1, 0x10, nRst, 0x02
	.byte	nBb0, 0x10, nRst, 0x02, nEb1, 0x10, nRst, 0x02, nEb1, 0x04, nRst, 0x08
	.byte	nEb1, 0x04, nRst, 0x02, nBb0, 0x0A, nRst, 0x02, nEb1, 0x0A, nRst, 0x02
	.byte	nEb1, 0x12, nEb1, 0x06, nRst, nEb1, nFs1, nEb1, nRst, nEb1, nCs1, 0x0C
	.byte	nAb1, nCs1, nEb1, 0x10, nRst, 0x02, nBb0, 0x10, nRst, 0x02, nEb1, 0x10
	.byte	nRst, 0x02, nEb1, 0x04, nRst, 0x08, nEb1, 0x04, nRst, 0x02, nEb1, 0x0A
	.byte	nRst, 0x02, nBb1, 0x0A, nRst, 0x02, nAb1, 0x10, nRst, 0x02, nEb1, 0x10
	.byte	nRst, 0x02, nAb1, 0x10, nRst, 0x02, nAb1, 0x04, nRst, 0x08, nAb1, 0x04
	.byte	nRst, 0x02, nAb1, 0x0A, nRst, 0x02, nBb1, 0x0A, nRst, 0x02, nEb1, 0x10
	.byte	nRst, 0x02, nBb0, 0x16, nRst, 0x02, nEb1, 0x04, nRst, 0x08, nEb1, 0x04
	.byte	nRst, 0x08, nEb1, 0x04, nRst, 0x02, nBb0, 0x0A, nRst, 0x02, nEb1, 0x0A
	.byte	nRst, 0x02, nB1, 0x12, nA1, nB1, nA1, 0x06, nB1, nRst, 0x1E
	smpsJump            Snd_CNZ2_FM4

/*  FM5 Data */
Snd_CNZ2_FM5:
	smpsPan             panRight, 0x00
	.byte	nRst, 0x01
	smpsDetune          0x01

Snd_CNZ2_Jump00:
	smpsSetvoice        0x0D
	smpsDetune          0xFF
	smpsModSet          0x0F, 0x01, 0x06, 0x04
	.byte	nFs3, 0x04, nRst, 0x08, nFs3, 0x04, nRst, 0x08, nEb3, 0x10, nRst, 0x02
	.byte	nF3, 0x04, nRst, 0x08, nF3, 0x04, nRst, 0x08, nF3, 0x04, nRst, 0x08
	.byte	nD3, 0x04, nRst, 0x02, nD3, 0x0A, nRst, 0x02, nFs3, 0x04, nRst, 0x08
	.byte	nFs3, 0x04, nRst, 0x08, nEb3, 0x10, nRst, 0x02, nF3, 0x04, nRst, 0x08
	.byte	nF2, 0x04, nRst, 0x02, nA2, 0x04, nRst, 0x02, nC3, 0x04, nRst, 0x02
	.byte	nD3, 0x04, nRst, 0x02, nA3, 0x04, nRst, 0x08, nD4, 0x04, nRst, 0x02
	.byte	nCs4, 0x04, nRst, 0x08, nCs4, 0x04, nRst, 0x08, nBb3, 0x10, nRst, 0x02
	.byte	nC4, 0x04, nRst, 0x08, nC4, 0x04, nRst, 0x08, nC4, 0x04, nRst, 0x08
	.byte	nA3, 0x04, nRst, 0x02, nA3, 0x0A, nRst, 0x02, nCs4, 0x04, nRst, 0x08
	.byte	nCs4, 0x04, nRst, 0x08, nBb3, 0x10, nRst, 0x02, nC4, 0x04, nRst, 0x08
	.byte	nC2, 0x04, nRst, 0x02, nF2, 0x04, nRst, 0x02, nA2, 0x04, nRst, 0x02
	.byte	nD3, 0x04, nRst, 0x02, nFs3, 0x04, nRst, 0x02, nA3, 0x04, nRst, 0x02
	.byte	nD4, 0x04, nRst, 0x02
	smpsSetvoice        0x03
	smpsDetune          0x02
	smpsModSet          0x0F, 0x01, 0x06, 0x06
	.byte	nEb4, nE4, nRst, 0x08, nF4, 0x04, nRst, 0x08, nG4, 0x16, nRst, 0x14
	.byte	nE4, 0x04, nRst, 0x02, nF4, 0x04, nRst, 0x08, nG4, 0x04, nRst, 0x08
	.byte	nBb4, 0x04, nRst, 0x02, nBb4, 0x04, nRst, 0x08, nBb4, 0x04, nRst, 0x08
	.byte	nBb4, 0x04, nRst, 0x08, nBb4, 0x04, nRst, 0x02, nBb4, 0x04, nRst, 0x08
	.byte	nA4, 0x04, nRst, 0x08, nG4, 0x04, nRst, 0x08, nF4, 0x04, nRst, 0x08
	.byte	nEb4, 0x02, nE4, nRst, 0x08, nF4, 0x04, nRst, 0x08, nG4, 0x16, nRst
	.byte	0x14, nEb5, 0x02, nE5, 0x04, nD5, nRst, 0x08, nC5, 0x04, nRst, 0x08
	.byte	nBb4, 0x04, nRst, 0x02, nBb4, 0x04, nRst, 0x08, nBb4, 0x04, nRst, 0x08
	.byte	nBb4, 0x04, nRst, 0x08, nBb4, 0x04, nRst, 0x02, nBb4, 0x08, nA4, 0x02
	.byte	nG4, nF4, nE4, nD4, nC4, nBb3, nRst, nG4, 0x04, nRst, 0x08, nF4
	.byte	0x04, nRst, 0x08, nEb4, 0x02, nE4, nRst, 0x08, nF4, 0x04, nRst, 0x08
	.byte	nG4, 0x16, nRst, 0x14, nE4, 0x04, nRst, 0x02, nF4, 0x04, nRst, 0x08
	.byte	nG4, 0x04, nRst, 0x08, nBb4, 0x04, nRst, 0x02, nBb4, 0x04, nRst, 0x08
	.byte	nBb4, 0x04, nRst, 0x08, nBb4, 0x04, nRst, 0x08, nBb4, 0x04, nRst, 0x02
	.byte	nBb4, 0x04, nRst, 0x08, nA4, 0x04, nRst, 0x08, nG4, 0x04, nRst, 0x08
	.byte	nF4, 0x04, nRst, 0x08, nEb4, 0x02, nE4, nRst, 0x08, nF4, 0x04, nRst
	.byte	0x08, nG4, 0x16, nRst, 0x14, nEb5, 0x02, nE5, 0x04, nD5, nRst, 0x08
	.byte	nC5, 0x04, nRst, 0x08, nC5, 0x04, nRst, 0x02, nF5, 0x04, nRst, 0x08
	.byte	nC5, 0x04, nRst, 0x08, nF5, 0x04, nRst, 0x08, nC5, 0x04, nRst, 0x02
	.byte	nF5, 0x08, nE5, 0x02, nD5, nC5, nBb4, nA4, nG4, nF4, nRst, 0x08
	smpsSetvoice        0x21
	smpsDetune          0xFF
	smpsModSet          0x0A, 0x01, 0x06, 0x06
	smpsPan             panCenter, 0x00
	.byte	nRst, 0x04
	smpsFMAlterVol      0x03
	.byte	nC4, 0x04, nRst, 0x02, nD4, 0x04, nRst, 0x02, nF4, 0x04, nRst, 0x02
	.byte	nEb4, 0x06, nD4, nEb4, nF4, nRst, nD4, nRst, nBb3, 0x2A, nEb4, 0x0C
	.byte	nD4, 0x06, nD4, nRst, nD4, nRst, nBb3, nRst, nF3, 0x0C, nF3, 0x06
	.byte	nG3, 0x0C, nBb3, nD4, nEb4, 0x06, nD4, nEb4, nF4, nRst, nD4, nRst
	.byte	nBb3, 0x2A, nEb4, 0x0C, nD4, 0x06, nC4, nD4, nEb4, 0x0C, nD4, 0x06
	.byte	nEb4, nF4, 0x0C, nEb4, 0x06, nF4, nG4, 0x0C, nF4, 0x06, nG4, 0x0C
	.byte	nEb4, 0x06, nD4, nEb4, nF4, nRst, nD4, nRst, nBb3, 0x2A, nEb4, 0x0C
	.byte	nD4, 0x06, nD4, nRst, nD4, nRst, nBb3, nRst, nF3, 0x0C, nF3, 0x06
	.byte	nG3, 0x0C, nBb3, nD4, nEb4, 0x06, nEb4, nRst, nEb4, nRst, nD4, nRst
	.byte	nBb3, 0x36, nD4, 0x0C, nC4, 0x06, nD4, nRst, nEb4, nF4, nC5, 0x18
	.byte	nBb4, 0x06, nRst, 0x02
	smpsSetvoice        0x08
	smpsDetune          0xFF
	smpsModSet          0x0F, 0x01, 0x06, 0x06
	smpsPan             panRight, 0x00
	smpsFMAlterVol      0xFB
	.byte	nF4, 0x06, nG4, nAb4, nBb4, nRst, nC5, nRst, nEb5, 0x0C, nD5, 0x06
	.byte	nBb4, 0x36, nBb4, 0x06, nRst, nC5, nRst, nEb5, 0x0C, nD5, 0x06, nEb5
	.byte	nRst, nF5, 0x12, nD5, 0x06, nRst, nC5, nRst, nBb4, nRst, nC5, nRst
	.byte	nEb5, 0x0C, nD5, 0x06, nBb4, 0x1E, nRst, 0x06, nC4, nEb4, nFs4, nAb4
	.byte	nFs4, nAb4, nAb4, nAb4, nFs4, nRst, nG4, nRst, nC5, nRst, nAb4, nC5
	.byte	nRst, nF5, nRst, nBb4, nRst, nC5, nRst, nEb5, 0x0C, nD5, 0x06, nBb4
	.byte	0x36, nBb4, 0x06, nRst, nC5, nRst, nEb5, 0x0C, nD5, 0x06, nEb5, nRst
	.byte	nF5, 0x12, nD5, 0x06, nRst, nC5, nRst, nBb4, nRst, nC5, nRst, nEb5
	.byte	0x0C, nD5, 0x06, nBb4, 0x1E, nRst, 0x06, nC4, nEb4, nFs4, nF5, nF5
	.byte	nRst, nF5, nF5, nRst, nF5, nF5, nRst, nF5, nF5, nRst, 0x0C
	smpsSetvoice        0x0D
	smpsDetune          0xFF
	smpsModSet          0x0F, 0x01, 0x06, 0x04
	smpsFMAlterVol      0x02
	.byte	nEb3, 0x06, nF3, 0x0C
	smpsJump            Snd_CNZ2_Jump00

/*  PSG1 Data */
Snd_CNZ2_PSG1:
	smpsPSGvoice        sTone_0A

Snd_CNZ2_Jump03:
	.byte	nFs3, 0x04, nRst, 0x08, nFs3, 0x04, nRst, 0x08, nEb3, 0x10, nRst, 0x02
	.byte	nF3, 0x04, nRst, 0x08, nF3, 0x04, nRst, 0x08, nF3, 0x04, nRst, 0x08
	.byte	nD3, 0x04, nRst, 0x02, nD3, 0x0A, nRst, 0x02, nFs3, 0x04, nRst, 0x08
	.byte	nFs3, 0x04, nRst, 0x08, nEb3, 0x10, nRst, 0x02, nF3, 0x04, nRst, 0x08
	.byte	nF2, 0x04, nRst, 0x02, nA2, 0x04, nRst, 0x02, nC3, 0x04, nRst, 0x02
	.byte	nD3, 0x04, nRst, 0x02, nA3, 0x04, nRst, 0x08, nD4, 0x04, nRst, 0x02
	.byte	nCs4, 0x04, nRst, 0x08, nCs4, 0x04, nRst, 0x08, nBb3, 0x10, nRst, 0x02
	.byte	nC4, 0x04, nRst, 0x08, nC4, 0x04, nRst, 0x08, nC4, 0x04, nRst, 0x08
	.byte	nA3, 0x04, nRst, 0x02, nA3, 0x0A, nRst, 0x02, nCs4, 0x04, nRst, 0x08
	.byte	nCs4, 0x04, nRst, 0x08, nBb3, 0x10, nRst, 0x02, nC4, 0x04, nRst, 0x08
	.byte	nC2, 0x04, nRst, 0x02, nF2, 0x04, nRst, 0x02, nA2, 0x04, nRst, 0x02
	.byte	nD3, 0x04, nRst, 0x02, nFs3, 0x04, nRst, 0x02, nA3, 0x04, nRst, 0x02
	.byte	nD4, 0x04, nRst, 0x02, nC3, 0x04, nRst, 0x02, nC3, 0x04, nRst, 0x08
	.byte	nC3, 0x04, nRst, 0x02, nE3, 0x10, nRst, 0x02, nG3, 0x04, nRst, 0x08
	.byte	nC4, 0x04, nRst, 0x02, nE3, 0x04, nRst, 0x08, nG3, 0x04, nRst, 0x08
	.byte	nC4, 0x04, nRst, 0x08, nBb3, 0x04, nRst, 0x02, nD3, 0x04, nRst, 0x08
	.byte	nF3, 0x04, nRst, 0x08, nBb3, 0x04, nRst, 0x08, nD3, 0x04, nRst, 0x08
	.byte	nF3, 0x04, nRst, 0x02, nF4, 0x04, nRst, 0x08, nD4, 0x04, nRst, 0x08
	.byte	nBb3, 0x04, nRst, 0x08, nC3, 0x04, nRst, 0x02, nC3, 0x04, nRst, 0x08
	.byte	nC3, 0x04, nRst, 0x02, nE3, 0x10, nRst, 0x02, nG3, 0x04, nRst, 0x08
	.byte	nC4, 0x04, nRst, 0x02, nE3, 0x04, nRst, 0x08, nG3, 0x04, nRst, 0x08
	.byte	nC4, 0x04, nRst, 0x08, nBb3, 0x04, nRst, 0x02, nD3, 0x04, nRst, 0x08
	.byte	nF3, 0x04, nRst, 0x08, nBb3, 0x04, nRst, 0x08, nD3, 0x04, nRst, 0x02
	.byte	nF3, 0x04, nRst, 0x08, nA3, 0x04, nRst, 0x08, nG3, 0x04, nRst, 0x08
	.byte	nF3, 0x04, nRst, 0x08, nC3, 0x04, nRst, 0x02, nC3, 0x04, nRst, 0x08
	.byte	nC3, 0x04, nRst, 0x02, nE3, 0x10, nRst, 0x02, nG3, 0x04, nRst, 0x08
	.byte	nC4, 0x04, nRst, 0x02, nE3, 0x04, nRst, 0x08, nG3, 0x04, nRst, 0x08
	.byte	nC4, 0x04, nRst, 0x08, nBb3, 0x04, nRst, 0x02, nD3, 0x04, nRst, 0x08
	.byte	nF3, 0x04, nRst, 0x08, nBb3, 0x04, nRst, 0x08, nD3, 0x04, nRst, 0x08
	.byte	nF3, 0x04, nRst, 0x02, nF4, 0x04, nRst, 0x08, nD4, 0x04, nRst, 0x08
	.byte	nBb3, 0x04, nRst, 0x08, nC3, 0x04, nRst, 0x02, nC3, 0x04, nRst, 0x08
	.byte	nC3, 0x04, nRst, 0x02, nE3, 0x10, nRst, 0x02, nG3, 0x04, nRst, 0x08
	.byte	nC4, 0x04, nRst, 0x02, nE3, 0x04, nRst, 0x08, nG3, 0x04, nRst, 0x08
	.byte	nC4, 0x04, nRst, 0x08, nBb3, 0x04, nRst, 0x02, nD3, 0x04, nRst, 0x08
	.byte	nF3, 0x04, nRst, 0x08, nBb3, 0x04, nRst, 0x08, nD3, 0x04, nRst, 0x02
	.byte	nF3, 0x04, nRst, 0x08, nA3, 0x04, nRst, 0x08, nG3, 0x04, nRst, 0x08
	.byte	nF3, 0x04, nRst, 0x08, nAb3, 0x04, nRst, 0x02, nAb3, 0x04, nRst, 0x02
	.byte	nAb4, 0x04, nRst, 0x02, nAb3, 0x04, nRst, 0x08, nAb3, 0x04, nRst, 0x02
	.byte	nAb4, 0x04, nRst, 0x02, nEb5, 0x04, nRst, 0x08, nEb5, 0x04, nRst, 0x02
	.byte	nD5, 0x04, nRst, 0x08, nEb5, 0x04, nRst, 0x08, nC5, 0x04, nRst, 0x08
	.byte	nEb3, 0x04, nRst, 0x02, nEb3, 0x04, nRst, 0x02, nEb4, 0x04, nRst, 0x02
	.byte	nEb3, 0x04, nRst, 0x08, nEb3, 0x04, nRst, 0x02, nEb4, 0x04, nRst, 0x02
	.byte	nBb4, 0x04, nRst, 0x08, nBb4, 0x04, nRst, 0x02, nD5, 0x04, nRst, 0x08
	.byte	nG5, 0x04, nRst, 0x08, nBb5, 0x04, nRst, 0x08, nAb3, 0x04, nRst, 0x02
	.byte	nAb3, 0x04, nRst, 0x02, nAb4, 0x04, nRst, 0x02, nAb3, 0x04, nRst, 0x08
	.byte	nAb3, 0x04, nRst, 0x02, nAb4, 0x04, nRst, 0x02, nEb5, 0x04, nRst, 0x08
	.byte	nEb5, 0x04, nRst, 0x02, nD5, 0x04, nRst, 0x08, nEb5, 0x04, nRst, 0x08
	.byte	nC5, 0x04, nRst, 0x1A, nG4, 0x0A, nRst, 0x02, nBb4, 0x04, nRst, 0x02
	.byte	nBb4, 0x04, nRst, 0x02, nBb4, 0x0A, nRst, 0x02, nC5, 0x04, nRst, 0x02
	.byte	nC5, 0x04, nRst, 0x02, nC5, 0x0A, nRst, 0x02, nD5, 0x04, nRst, 0x02
	.byte	nD5, 0x0A, nRst, 0x02, nAb3, 0x04, nRst, 0x02, nAb3, 0x04, nRst, 0x02
	.byte	nAb4, 0x04, nRst, 0x02, nAb3, 0x04, nRst, 0x08, nAb3, 0x04, nRst, 0x02
	.byte	nAb4, 0x04, nRst, 0x02, nEb5, 0x04, nRst, 0x08, nEb5, 0x04, nRst, 0x02
	.byte	nD5, 0x04, nRst, 0x08, nEb5, 0x04, nRst, 0x08, nC5, 0x04, nRst, 0x08
	.byte	nEb3, 0x04, nRst, 0x02, nEb3, 0x04, nRst, 0x02, nEb4, 0x04, nRst, 0x02
	.byte	nEb3, 0x04, nRst, 0x08, nEb3, 0x04, nRst, 0x02, nEb4, 0x04, nRst, 0x02
	.byte	nBb4, 0x04, nRst, 0x08, nBb4, 0x04, nRst, 0x02, nD5, 0x04, nRst, 0x08
	.byte	nG5, 0x04, nRst, 0x08, nBb5, 0x04, nRst, 0x08, nAb3, 0x04, nRst, 0x02
	.byte	nAb3, 0x04, nRst, 0x02, nAb4, 0x04, nRst, 0x02, nAb3, 0x04, nRst, 0x08
	.byte	nAb3, 0x04, nRst, 0x02, nAb4, 0x04, nRst, 0x02, nEb5, 0x04, nRst, 0x08
	.byte	nEb5, 0x04, nRst, 0x02, nD5, 0x04, nRst, 0x08, nEb5, 0x04, nRst, 0x08
	.byte	nF5, 0x04, nRst, 0x08, nG5, 0x0A, nRst, 0x02, nF5, 0x04, nRst, 0x02
	.byte	nG5, 0x04, nRst, 0x20, nFs5, 0x02, nG5, nRst, 0x08, nF5, 0x04, nRst
	.byte	0x02, nG5, 0x0A, nRst, 0x02, nF5, 0x0A, nRst, 0x02, nEb3, 0x04, nRst
	.byte	0x02, nEb3, 0x04, nRst, 0x02, nEb4, 0x04, nRst, 0x02, nEb3, 0x04, nRst
	.byte	0x08, nEb4, 0x04, nRst, 0x02, nEb3, 0x04, nRst, 0x02, nEb3, 0x04, nRst
	.byte	0x02, nEb4, 0x04, nRst, 0x02, nEb3, 0x04, nRst, 0x02, nEb3, 0x04, nRst
	.byte	0x02, nEb4, 0x04, nRst, 0x08, nEb3, 0x04, nRst, 0x02, nEb4, 0x04, nRst
	.byte	0x02, nEb3, 0x04, nRst, 0x02, nAb3, 0x04, nRst, 0x02, nAb3, 0x04, nRst
	.byte	0x02, nAb4, 0x04, nRst, 0x02, nAb3, 0x04, nRst, 0x08, nAb4, 0x04, nRst
	.byte	0x02, nAb3, 0x04, nRst, 0x02, nAb3, 0x04, nRst, 0x02, nAb4, 0x04, nRst
	.byte	0x02, nAb3, 0x04, nRst, 0x02, nAb3, 0x04, nRst, 0x02, nAb4, 0x04, nRst
	.byte	0x08, nAb3, 0x04, nRst, 0x02, nAb4, 0x04, nRst, 0x02, nAb3, 0x04, nRst
	.byte	0x02, nEb3, 0x04, nRst, 0x02, nEb3, 0x04, nRst, 0x02, nEb4, 0x04, nRst
	.byte	0x02, nEb3, 0x04, nRst, 0x08, nEb4, 0x04, nRst, 0x02, nEb3, 0x04, nRst
	.byte	0x02, nEb3, 0x04, nRst, 0x02, nEb4, 0x04, nRst, 0x02, nEb3, 0x04, nRst
	.byte	0x02, nEb3, 0x04, nRst, 0x02, nEb4, 0x04, nRst, 0x08, nEb3, 0x04, nRst
	.byte	0x02, nEb4, 0x04, nRst, 0x02, nEb3, 0x04, nRst, 0x02, nAb5, 0x18, nAb5
	.byte	0x12, nG5, 0x06, nRst, nAb4, nRst, nF4, nAb4, nRst, nC5, nRst, nEb3
	.byte	0x04, nRst, 0x02, nEb3, 0x04, nRst, 0x02, nEb4, 0x04, nRst, 0x02, nEb3
	.byte	0x04, nRst, 0x08, nEb4, 0x04, nRst, 0x02, nEb3, 0x04, nRst, 0x02, nEb3
	.byte	0x04, nRst, 0x02, nEb4, 0x04, nRst, 0x02, nEb3, 0x04, nRst, 0x02, nEb3
	.byte	0x04, nRst, 0x02, nEb4, 0x04, nRst, 0x08, nEb3, 0x04, nRst, 0x02, nEb4
	.byte	0x04, nRst, 0x02, nEb3, 0x04, nRst, 0x02, nAb3, 0x04, nRst, 0x02, nAb3
	.byte	0x04, nRst, 0x02, nAb4, 0x04, nRst, 0x02, nAb3, 0x04, nRst, 0x08, nAb4
	.byte	0x04, nRst, 0x02, nAb3, 0x04, nRst, 0x02, nAb3, 0x04, nRst, 0x02, nAb4
	.byte	0x04, nRst, 0x02, nAb3, 0x04, nRst, 0x02, nAb3, 0x04, nRst, 0x02, nAb4
	.byte	0x04, nRst, 0x08, nAb3, 0x04, nRst, 0x02, nAb4, 0x04, nRst, 0x02, nAb3
	.byte	0x04, nRst, 0x02, nEb3, 0x04, nRst, 0x02, nEb3, 0x04, nRst, 0x02, nEb4
	.byte	0x04, nRst, 0x02, nEb3, 0x04, nRst, 0x08, nEb4, 0x04, nRst, 0x02, nEb3
	.byte	0x04, nRst, 0x02, nEb3, 0x04, nRst, 0x02, nEb4, 0x04, nRst, 0x02, nEb3
	.byte	0x04, nRst, 0x02, nEb3, 0x04, nRst, 0x02, nEb4, 0x04, nRst, 0x08, nEb3
	.byte	0x04, nRst, 0x02, nEb4, 0x04, nRst, 0x02, nEb3, 0x04, nRst, 0x02, nB3
	.byte	0x04, nRst, 0x02, nB3, 0x04, nRst, 0x02, nB4, 0x04, nRst, 0x02, nB3
	.byte	0x04, nRst, 0x02, nB3, 0x04, nRst, 0x02, nB4, 0x04, nRst, 0x02, nB3
	.byte	0x04, nRst, 0x02, nB3, 0x04, nRst, 0x02, nB4, 0x04, nRst, 0x02, nB3
	.byte	0x04, nRst, 0x02, nB4, 0x04, nRst, 0x20
	smpsJump            Snd_CNZ2_Jump03

/*  PSG2 Data */
Snd_CNZ2_PSG2:
	smpsPSGvoice        sTone_0A
	smpsDetune          0x01

Snd_CNZ2_Jump02:
	.byte	nFs3, 0x04, nRst, 0x08, nFs3, 0x04, nRst, 0x08, nEb3, 0x10, nRst, 0x02
	.byte	nF3, 0x04, nRst, 0x08, nF3, 0x04, nRst, 0x08, nF3, 0x04, nRst, 0x08
	.byte	nD3, 0x04, nRst, 0x02, nD3, 0x0A, nRst, 0x02, nFs3, 0x04, nRst, 0x08
	.byte	nFs3, 0x04, nRst, 0x08, nEb3, 0x10, nRst, 0x02, nF3, 0x04, nRst, 0x08
	.byte	nF2, 0x04, nRst, 0x02, nA2, 0x04, nRst, 0x02, nC3, 0x04, nRst, 0x02
	.byte	nD3, 0x04, nRst, 0x02, nA3, 0x04, nRst, 0x08, nD4, 0x04, nRst, 0x02
	.byte	nCs4, 0x04, nRst, 0x08, nCs4, 0x04, nRst, 0x08, nBb3, 0x10, nRst, 0x02
	.byte	nC4, 0x04, nRst, 0x08, nC4, 0x04, nRst, 0x08, nC4, 0x04, nRst, 0x08
	.byte	nA3, 0x04, nRst, 0x02, nA3, 0x0A, nRst, 0x02, nCs4, 0x04, nRst, 0x08
	.byte	nCs4, 0x04, nRst, 0x08, nBb3, 0x10, nRst, 0x02, nC4, 0x04, nRst, 0x08
	.byte	nC2, 0x04, nRst, 0x02, nF2, 0x04, nRst, 0x02, nA2, 0x04, nRst, 0x02
	.byte	nD3, 0x04, nRst, 0x02, nFs3, 0x04, nRst, 0x02, nA3, 0x04, nRst, 0x02
	.byte	nD4, 0x04, nRst, 0x02, nC3, 0x04, nRst, 0x02, nC3, 0x04, nRst, 0x08
	.byte	nC3, 0x04, nRst, 0x02, nE3, 0x10, nRst, 0x02, nG3, 0x04, nRst, 0x08
	.byte	nC4, 0x04, nRst, 0x02, nE3, 0x04, nRst, 0x08, nG3, 0x04, nRst, 0x08
	.byte	nC4, 0x04, nRst, 0x08, nBb3, 0x04, nRst, 0x02, nD3, 0x04, nRst, 0x08
	.byte	nF3, 0x04, nRst, 0x08, nBb3, 0x04, nRst, 0x08, nD3, 0x04, nRst, 0x08
	.byte	nF3, 0x04, nRst, 0x02, nF4, 0x04, nRst, 0x08, nD4, 0x04, nRst, 0x08
	.byte	nBb3, 0x04, nRst, 0x08, nC3, 0x04, nRst, 0x02, nC3, 0x04, nRst, 0x08
	.byte	nC3, 0x04, nRst, 0x02, nE3, 0x10, nRst, 0x02, nG3, 0x04, nRst, 0x08
	.byte	nC4, 0x04, nRst, 0x02, nE3, 0x04, nRst, 0x08, nG3, 0x04, nRst, 0x08
	.byte	nC4, 0x04, nRst, 0x08, nBb3, 0x04, nRst, 0x02, nD3, 0x04, nRst, 0x08
	.byte	nF3, 0x04, nRst, 0x08, nBb3, 0x04, nRst, 0x08, nD3, 0x04, nRst, 0x02
	.byte	nF3, 0x04, nRst, 0x08, nA3, 0x04, nRst, 0x08, nG3, 0x04, nRst, 0x08
	.byte	nF3, 0x04, nRst, 0x08, nC3, 0x04, nRst, 0x02, nC3, 0x04, nRst, 0x08
	.byte	nC3, 0x04, nRst, 0x02, nE3, 0x10, nRst, 0x02, nG3, 0x04, nRst, 0x08
	.byte	nC4, 0x04, nRst, 0x02, nE3, 0x04, nRst, 0x08, nG3, 0x04, nRst, 0x08
	.byte	nC4, 0x04, nRst, 0x08, nBb3, 0x04, nRst, 0x02, nD3, 0x04, nRst, 0x08
	.byte	nF3, 0x04, nRst, 0x08, nBb3, 0x04, nRst, 0x08, nD3, 0x04, nRst, 0x08
	.byte	nF3, 0x04, nRst, 0x02, nF4, 0x04, nRst, 0x08, nD4, 0x04, nRst, 0x08
	.byte	nBb3, 0x04, nRst, 0x08, nC3, 0x04, nRst, 0x02, nC3, 0x04, nRst, 0x08
	.byte	nC3, 0x04, nRst, 0x02, nE3, 0x10, nRst, 0x02, nG3, 0x04, nRst, 0x08
	.byte	nC4, 0x04, nRst, 0x02, nE3, 0x04, nRst, 0x08, nG3, 0x04, nRst, 0x08
	.byte	nC4, 0x04, nRst, 0x08, nBb3, 0x04, nRst, 0x02, nD3, 0x04, nRst, 0x08
	.byte	nF3, 0x04, nRst, 0x08, nBb3, 0x04, nRst, 0x08, nD3, 0x04, nRst, 0x02
	.byte	nF3, 0x04, nRst, 0x08, nA3, 0x04, nRst, 0x08, nG3, 0x04, nRst, 0x08
	.byte	nF3, 0x04, nRst, 0x08, nAb3, 0x04, nRst, 0x02, nAb3, 0x04, nRst, 0x02
	.byte	nAb4, 0x04, nRst, 0x02, nAb3, 0x04, nRst, 0x08, nAb3, 0x04, nRst, 0x02
	.byte	nAb4, 0x04, nRst, 0x02, nEb5, 0x04, nRst, 0x08, nEb5, 0x04, nRst, 0x02
	.byte	nD5, 0x04, nRst, 0x08, nEb5, 0x04, nRst, 0x08, nC5, 0x04, nRst, 0x08
	.byte	nEb3, 0x04, nRst, 0x02, nEb3, 0x04, nRst, 0x02, nEb4, 0x04, nRst, 0x02
	.byte	nEb3, 0x04, nRst, 0x08, nEb3, 0x04, nRst, 0x02, nEb4, 0x04, nRst, 0x02
	.byte	nBb4, 0x04, nRst, 0x08, nBb4, 0x04, nRst, 0x02, nD5, 0x04, nRst, 0x08
	.byte	nG5, 0x04, nRst, 0x08, nBb5, 0x04, nRst, 0x08, nAb3, 0x04, nRst, 0x02
	.byte	nAb3, 0x04, nRst, 0x02, nAb4, 0x04, nRst, 0x02, nAb3, 0x04, nRst, 0x08
	.byte	nAb3, 0x04, nRst, 0x02, nAb4, 0x04, nRst, 0x02, nEb5, 0x04, nRst, 0x08
	.byte	nEb5, 0x04, nRst, 0x02, nD5, 0x04, nRst, 0x08, nEb5, 0x04, nRst, 0x08
	.byte	nC5, 0x04, nRst, 0x1A, nG4, 0x0A, nRst, 0x02, nBb4, 0x04, nRst, 0x02
	.byte	nBb4, 0x04, nRst, 0x02, nBb4, 0x0A, nRst, 0x02, nC5, 0x04, nRst, 0x02
	.byte	nC5, 0x04, nRst, 0x02, nC5, 0x0A, nRst, 0x02, nD5, 0x04, nRst, 0x02
	.byte	nD5, 0x0A, nRst, 0x02, nAb3, 0x04, nRst, 0x02, nAb3, 0x04, nRst, 0x02
	.byte	nAb4, 0x04, nRst, 0x02, nAb3, 0x04, nRst, 0x08, nAb3, 0x04, nRst, 0x02
	.byte	nAb4, 0x04, nRst, 0x02, nEb5, 0x04, nRst, 0x08, nEb5, 0x04, nRst, 0x02
	.byte	nD5, 0x04, nRst, 0x08, nEb5, 0x04, nRst, 0x08, nC5, 0x04, nRst, 0x08
	.byte	nEb3, 0x04, nRst, 0x02, nEb3, 0x04, nRst, 0x02, nEb4, 0x04, nRst, 0x02
	.byte	nEb3, 0x04, nRst, 0x08, nEb3, 0x04, nRst, 0x02, nEb4, 0x04, nRst, 0x02
	.byte	nBb4, 0x04, nRst, 0x08, nBb4, 0x04, nRst, 0x02, nD5, 0x04, nRst, 0x08
	.byte	nG5, 0x04, nRst, 0x08, nBb5, 0x04, nRst, 0x08, nAb3, 0x04, nRst, 0x02
	.byte	nAb3, 0x04, nRst, 0x02, nAb4, 0x04, nRst, 0x02, nAb3, 0x04, nRst, 0x08
	.byte	nAb3, 0x04, nRst, 0x02, nAb4, 0x04, nRst, 0x02, nEb5, 0x04, nRst, 0x08
	.byte	nEb5, 0x04, nRst, 0x02, nD5, 0x04, nRst, 0x08, nEb5, 0x04, nRst, 0x08
	.byte	nF5, 0x04, nRst, 0x08, nG5, 0x0A, nRst, 0x02, nF5, 0x04, nRst, 0x02
	.byte	nG5, 0x04, nRst, 0x20, nFs5, 0x02, nG5, nRst, 0x08, nF5, 0x04, nRst
	.byte	0x02, nG5, 0x0A, nRst, 0x02, nF5, 0x0A, nRst, 0x02, nEb3, 0x04, nRst
	.byte	0x02, nEb3, 0x04, nRst, 0x02, nEb4, 0x04, nRst, 0x02, nEb3, 0x04, nRst
	.byte	0x08, nEb4, 0x04, nRst, 0x02, nEb3, 0x04, nRst, 0x02, nEb3, 0x04, nRst
	.byte	0x02, nEb4, 0x04, nRst, 0x02, nEb3, 0x04, nRst, 0x02, nEb3, 0x04, nRst
	.byte	0x02, nEb4, 0x04, nRst, 0x08, nEb3, 0x04, nRst, 0x02, nEb4, 0x04, nRst
	.byte	0x02, nEb3, 0x04, nRst, 0x02, nAb3, 0x04, nRst, 0x02, nAb3, 0x04, nRst
	.byte	0x02, nAb4, 0x04, nRst, 0x02, nAb3, 0x04, nRst, 0x08, nAb4, 0x04, nRst
	.byte	0x02, nAb3, 0x04, nRst, 0x02, nAb3, 0x04, nRst, 0x02, nAb4, 0x04, nRst
	.byte	0x02, nAb3, 0x04, nRst, 0x02, nAb3, 0x04, nRst, 0x02, nAb4, 0x04, nRst
	.byte	0x08, nAb3, 0x04, nRst, 0x02, nAb4, 0x04, nRst, 0x02, nAb3, 0x04, nRst
	.byte	0x02, nEb3, 0x04, nRst, 0x02, nEb3, 0x04, nRst, 0x02, nEb4, 0x04, nRst
	.byte	0x02, nEb3, 0x04, nRst, 0x08, nEb4, 0x04, nRst, 0x02, nEb3, 0x04, nRst
	.byte	0x02, nEb3, 0x04, nRst, 0x02, nEb4, 0x04, nRst, 0x02, nEb3, 0x04, nRst
	.byte	0x02, nEb3, 0x04, nRst, 0x02, nEb4, 0x04, nRst, 0x08, nEb3, 0x04, nRst
	.byte	0x02, nEb4, 0x04, nRst, 0x02, nEb3, 0x04, nRst, 0x02, nC5, 0x18, nC5
	.byte	0x12, nBb4, 0x06, nRst, nF4, nRst, nCs4, nF4, nRst, nAb4, nRst, nEb3
	.byte	0x04, nRst, 0x02, nEb3, 0x04, nRst, 0x02, nEb4, 0x04, nRst, 0x02, nEb3
	.byte	0x04, nRst, 0x08, nEb4, 0x04, nRst, 0x02, nEb3, 0x04, nRst, 0x02, nEb3
	.byte	0x04, nRst, 0x02, nEb4, 0x04, nRst, 0x02, nEb3, 0x04, nRst, 0x02, nEb3
	.byte	0x04, nRst, 0x02, nEb4, 0x04, nRst, 0x08, nEb3, 0x04, nRst, 0x02, nEb4
	.byte	0x04, nRst, 0x02, nEb3, 0x04, nRst, 0x02, nAb3, 0x04, nRst, 0x02, nAb3
	.byte	0x04, nRst, 0x02, nAb4, 0x04, nRst, 0x02, nAb3, 0x04, nRst, 0x08, nAb4
	.byte	0x04, nRst, 0x02, nAb3, 0x04, nRst, 0x02, nAb3, 0x04, nRst, 0x02, nAb4
	.byte	0x04, nRst, 0x02, nAb3, 0x04, nRst, 0x02, nAb3, 0x04, nRst, 0x02, nAb4
	.byte	0x04, nRst, 0x08, nAb3, 0x04, nRst, 0x02, nAb4, 0x04, nRst, 0x02, nAb3
	.byte	0x04, nRst, 0x02, nEb3, 0x04, nRst, 0x02, nEb3, 0x04, nRst, 0x02, nEb4
	.byte	0x04, nRst, 0x02, nEb3, 0x04, nRst, 0x08, nEb4, 0x04, nRst, 0x02, nEb3
	.byte	0x04, nRst, 0x02, nEb3, 0x04, nRst, 0x02, nEb4, 0x04, nRst, 0x02, nEb3
	.byte	0x04, nRst, 0x02, nEb3, 0x04, nRst, 0x02, nEb4, 0x04, nRst, 0x08, nEb3
	.byte	0x04, nRst, 0x02, nEb4, 0x04, nRst, 0x02, nEb3, 0x04, nRst, 0x02, nB3
	.byte	0x04, nRst, 0x02, nB3, 0x04, nRst, 0x02, nB4, 0x04, nRst, 0x02, nB3
	.byte	0x04, nRst, 0x02, nB3, 0x04, nRst, 0x02, nB4, 0x04, nRst, 0x02, nB3
	.byte	0x04, nRst, 0x02, nB3, 0x04, nRst, 0x02, nB4, 0x04, nRst, 0x02, nB3
	.byte	0x04, nRst, 0x02, nB4, 0x04, nRst, 0x20
	smpsJump            Snd_CNZ2_Jump02

/*  PSG3 Data */
Snd_CNZ2_PSG3:
	smpsPSGvoice        sTone_02
	smpsPSGform         0xE7
	.byte	nRst, 0x60, nRst, 0x60, nRst, 0x60, nRst, 0x60

Snd_CNZ2_Loop00:
	smpsPSGvoice        sTone_01
	.byte	nMaxPSG1, 0x06
	smpsPSGvoice        sTone_01
	.byte	nMaxPSG1, 0x06
	smpsPSGvoice        sTone_08
	.byte	nMaxPSG1, 0x0C
	smpsLoop            0x01, 0x0D, Snd_CNZ2_Loop00
	smpsPSGvoice        sTone_01
	.byte	nMaxPSG1, 0x06
	smpsPSGvoice        sTone_01
	.byte	nMaxPSG1, 0x06
	smpsPSGvoice        sTone_08
	.byte	nMaxPSG1, 0x06
	smpsPSGvoice        sTone_01
	.byte	nMaxPSG1, 0x36

Snd_CNZ2_Loop01:
	smpsPSGvoice        sTone_01
	.byte	nMaxPSG1, 0x06
	smpsPSGvoice        sTone_01
	.byte	nMaxPSG1, 0x06
	smpsPSGvoice        sTone_08
	.byte	nMaxPSG1, 0x0C
	smpsLoop            0x01, 0x0D, Snd_CNZ2_Loop01
	smpsPSGvoice        sTone_01
	.byte	nMaxPSG1, 0x06
	smpsPSGvoice        sTone_01
	.byte	nMaxPSG1, 0x06
	smpsPSGvoice        sTone_08
	.byte	nMaxPSG1, 0x06
	smpsPSGvoice        sTone_01
	.byte	nMaxPSG1, 0x36

Snd_CNZ2_Loop02:
	smpsPSGvoice        sTone_01
	.byte	nMaxPSG1, 0x06
	smpsPSGvoice        sTone_01
	.byte	nMaxPSG1, 0x06
	smpsPSGvoice        sTone_01
	.byte	nMaxPSG1, 0x06
	smpsPSGvoice        sTone_01
	.byte	nMaxPSG1, 0x06
	smpsPSGvoice        sTone_01
	.byte	nMaxPSG1, 0x06
	smpsPSGvoice        sTone_01
	.byte	nMaxPSG1, 0x06
	smpsPSGvoice        sTone_01
	.byte	nMaxPSG1, 0x06
	smpsPSGvoice        sTone_01
	.byte	nMaxPSG1, 0x06
	smpsPSGvoice        sTone_01
	.byte	nMaxPSG1, 0x06
	smpsPSGvoice        sTone_01
	.byte	nMaxPSG1, 0x06
	smpsPSGvoice        sTone_01
	.byte	nMaxPSG1, 0x06
	smpsPSGvoice        sTone_01
	.byte	nMaxPSG1, 0x06
	smpsPSGvoice        sTone_01
	.byte	nMaxPSG1, 0x06
	smpsPSGvoice        sTone_01
	.byte	nMaxPSG1, 0x06
	smpsPSGvoice        sTone_08
	.byte	nMaxPSG1, 0x06
	smpsPSGvoice        sTone_01
	.byte	nMaxPSG1, 0x06
	smpsLoop            0x01, 0x08, Snd_CNZ2_Loop02

Snd_CNZ2_Loop03:
	smpsPSGvoice        sTone_01
	.byte	nMaxPSG1, 0x06
	smpsPSGvoice        sTone_01
	.byte	nMaxPSG1, 0x06
	smpsPSGvoice        sTone_08
	.byte	nMaxPSG1, 0x0C
	smpsPSGvoice        sTone_01
	.byte	nMaxPSG1, 0x06
	smpsPSGvoice        sTone_01
	.byte	nMaxPSG1, 0x06
	smpsPSGvoice        sTone_08
	.byte	nMaxPSG1, 0x0C
	smpsPSGvoice        sTone_01
	.byte	nMaxPSG1, 0x06
	smpsPSGvoice        sTone_01
	.byte	nMaxPSG1, 0x06
	smpsPSGvoice        sTone_08
	.byte	nMaxPSG1, 0x0C
	smpsPSGvoice        sTone_01
	.byte	nMaxPSG1, 0x06
	smpsPSGvoice        sTone_01
	.byte	nMaxPSG1, 0x06
	smpsPSGvoice        sTone_08
	.byte	nMaxPSG1, 0x0C
	smpsLoop            0x01, 0x06, Snd_CNZ2_Loop03
	smpsPSGvoice        sTone_01
	.byte	nMaxPSG1, 0x06
	smpsPSGvoice        sTone_01
	.byte	nMaxPSG1, 0x06
	smpsPSGvoice        sTone_08
	.byte	nMaxPSG1, 0x0C
	smpsPSGvoice        sTone_01
	.byte	nMaxPSG1, 0x06
	smpsPSGvoice        sTone_01
	.byte	nMaxPSG1, 0x06
	smpsPSGvoice        sTone_08
	.byte	nMaxPSG1, 0x0C
	smpsPSGvoice        sTone_01
	.byte	nMaxPSG1, 0x06
	smpsPSGvoice        sTone_01
	.byte	nMaxPSG1, 0x06
	smpsPSGvoice        sTone_08
	.byte	nMaxPSG1, 0x0C
	smpsPSGvoice        sTone_01
	.byte	nMaxPSG1, 0x06
	smpsPSGvoice        sTone_01
	.byte	nMaxPSG1, 0x06
	smpsPSGvoice        sTone_08
	.byte	nMaxPSG1, 0x60, 0x0C
	smpsJump            Snd_CNZ2_PSG3