Snd_Comp_Header:
	smpsHeaderStartSong 3, 1
	smpsHeaderVoice     Snd_Comp_Voices
	smpsHeaderChan      0x06, 0x03
	smpsHeaderTempo     0x01, 0x25

	smpsHeaderDAC       Snd_Comp_DAC
	smpsHeaderFM        Snd_Comp_FM1,	0x18, 0x12
	smpsHeaderFM        Snd_Comp_FM2,	0x0C, 0x19
	smpsHeaderFM        Snd_Comp_FM3,	0x0C, 0x19
	smpsHeaderFM        Snd_Comp_FM4,	0x0C, 0x19
	smpsHeaderFM        Snd_Comp_FM5,	0x0C, 0x19
	smpsHeaderPSG       Snd_Comp_PSG1,	0xF4, 0x04, 0x00, sTone_0C
	smpsHeaderPSG       Snd_Comp_PSG2,	0xF4, 0x04, 0x00, sTone_0C
	smpsHeaderPSG       Snd_Comp_PSG3,	0x00, 0x04, 0x00, sTone_0C

/*  DAC Data */
Snd_Comp_DAC:
	.byte	nRst, 0x30, dSnareS3, 0x02, dSnareS3, dSnareS3, dSnareS3, 0x06, dSnareS3, dSnareS3, dSnareS3, dSnareS3
	.byte	dSnareS3, dSnareS3

Snd_Comp_Jump00:
	.byte	dKickS3, 0x18, dSnareS3, 0x06, dSnareS3, 0x0C, dSnareS3, 0x12, dKickS3, 0x0C, dSnareS3, 0x06
	.byte	dKickS3, 0x12, dKickS3, 0x18, dSnareS3, 0x06, dSnareS3, 0x0C, dSnareS3, 0x12, dKickS3, 0x0C
	.byte	dSnareS3, 0x06, dKickS3, 0x12, dKickS3, 0x18, dSnareS3, 0x06, dSnareS3, 0x0C, dSnareS3, 0x12
	.byte	dKickS3, 0x0C, dSnareS3, 0x06, dKickS3, 0x12, dKickS3, 0x18, dSnareS3, 0x06, dSnareS3, 0x0C
	.byte	dSnareS3, 0x12, dKickS3, 0x0C, dSnareS3, 0x06, dKickS3, dSnareS3, dSnareS3, dKickS3, 0x18, dSnareS3
	.byte	0x24, dKickS3, 0x0C, dSnareS3, 0x06, dKickS3, 0x12, dKickS3, 0x18, dSnareS3, 0x24, dKickS3
	.byte	0x0C, dSnareS3, 0x06, dKickS3, 0x12, dKickS3, 0x18, dSnareS3, 0x24, dKickS3, 0x0C, dSnareS3
	.byte	0x06, dKickS3, 0x12, dKickS3, 0x18, dSnareS3, 0x24, dKickS3, 0x0C, dSnareS3, 0x06, dKickS3
	.byte	dSnareS3, 0x0C, dKickS3, 0x18, dSnareS3, 0x24, dKickS3, 0x0C, dSnareS3, 0x06, dKickS3, 0x12
	.byte	dKickS3, 0x18, dSnareS3, 0x24, dKickS3, 0x0C, dSnareS3, 0x06, dKickS3, 0x12, dKickS3, 0x18
	.byte	dSnareS3, 0x24, dKickS3, 0x0C, dSnareS3, 0x06, dKickS3, 0x12, dKickS3, 0x18, dSnareS3, 0x1E
	.byte	dSnareS3, 0x06, dKickS3, dSnareS3, dSnareS3, dKickS3, dSnareS3, dSnareS3, dKickS3, 0x18, dSnareS3, 0x24
	.byte	dKickS3, 0x0C, dSnareS3, 0x06, dKickS3, 0x12, dKickS3, 0x18, dSnareS3, 0x24, dKickS3, 0x0C
	.byte	dSnareS3, 0x06, dKickS3, 0x12, dKickS3, 0x18, dSnareS3, 0x24, dKickS3, 0x0C, dSnareS3, 0x06
	.byte	dKickS3, 0x12, dKickS3, 0x18, dSnareS3, 0x24, dKickS3, 0x06, dSnareS3, dSnareS3, dSnareS3, dSnareS3
	.byte	dSnareS3, dKickS3, dKickS3, dKickS3, dKickS3, dSnareS3, 0x24, dKickS3, 0x06, dKickS3, dSnareS3, dKickS3
	.byte	0x12, dKickS3, 0x06, dKickS3, dKickS3, dKickS3, dSnareS3, 0x24, dKickS3, 0x06, dKickS3, dSnareS3
	.byte	dKickS3, dSnareS3, 0x0C, dKickS3, 0x06, dKickS3, dKickS3, dKickS3, dSnareS3, 0x24, dKickS3, 0x06
	.byte	dKickS3, dSnareS3, dKickS3, 0x12, dKickS3, 0x06, dKickS3, dKickS3, dKickS3, dSnareS3, 0x24, dKickS3
	.byte	0x06, dKickS3, dSnareS3, dKickS3, dSnareS3, 0x0C, dKickS3, 0x06, dKickS3, dKickS3, dKickS3, dSnareS3
	.byte	0x24, dKickS3, 0x06, dKickS3, dSnareS3, dKickS3, 0x12, dKickS3, 0x06, dKickS3, dKickS3, dKickS3
	.byte	dSnareS3, 0x24, dKickS3, 0x06, dKickS3, dSnareS3, dKickS3, dSnareS3, 0x0C, dKickS3, 0x06, dKickS3
	.byte	dKickS3, dKickS3, dSnareS3, 0x24, dKickS3, 0x06, dKickS3, dSnareS3, dKickS3, 0x12, dSnareS3, 0x06
	.byte	dSnareS3, dSnareS3, dSnareS3, 0x26, dSnareS3, 0x02, dSnareS3, dSnareS3, 0x06, dSnareS3, dSnareS3, dSnareS3
	.byte	dSnareS3, dSnareS3
	smpsJump            Snd_Comp_Jump00

/*  FM1 Data */
Snd_Comp_FM1:
	smpsSetvoice        0x15
	smpsDetune          0x00
	smpsModSet          0x0F, 0x01, 0x06, 0x06
	.byte	nRst, 0x60

Snd_Comp_Jump04:
	.byte	nC1, 0x06, nRst, 0x12, nC2, nG1, 0x06, nRst, nBb1, 0x04, nRst, 0x02
	.byte	nC2, 0x04, nRst, 0x08, nBb1, 0x06, nG1, 0x12, nF1, 0x06, nFs1, nG1
	.byte	nF1, nEb1, nC1, 0x0C, nEb1, 0x04, nRst, 0x08, nFs1, 0x04, nRst, 0x02
	.byte	nF1, 0x0C, nEb1, 0x06, nBb0, 0x0E, nRst, 0x04, nC1, 0x06, nRst, 0x12
	.byte	nC2, nG1, 0x06, nRst, nBb1, 0x04, nRst, 0x02, nC2, 0x04, nRst, 0x08
	.byte	nBb1, 0x06, nG1, 0x12, nF1, 0x06, nFs1, nG1, nF1, nEb1, nC1, 0x0C
	.byte	nEb1, 0x04, nRst, 0x08, nFs1, 0x04, nRst, 0x02, nF1, 0x0C, nEb1, 0x06
	.byte	nBb0, 0x0E, nRst, 0x04, nC1, 0x06, nRst, 0x12, nC2, nG1, 0x06, nBb1
	.byte	0x04, nRst, 0x08, nC2, 0x04, nRst, 0x08, nBb1, 0x06, nG1, 0x12, nF1
	.byte	0x06, nFs1, nG1, nF1, nEb1, nC1, 0x0C, nEb1, 0x06, nRst, 0x0C, nF1
	.byte	0x04, nRst, 0x08, nEb1, 0x06, nBb0, 0x0E, nRst, 0x04, nC1, 0x06, nRst
	.byte	0x12, nC2, nG1, 0x06, nBb1, 0x04, nRst, 0x08, nC2, 0x04, nRst, 0x08
	.byte	nBb1, 0x06, nG1, 0x12, nF1, 0x06, nFs1, nG1, nF1, nEb1, nC1, 0x0C
	.byte	nEb1, 0x06, nRst, 0x0C, nF1, 0x04, nRst, 0x08, nEb1, 0x06, nBb0, 0x0E
	.byte	nRst, 0x04, nF1, 0x06, nRst, 0x12, nF2, nC2, 0x06, nEb2, 0x04, nRst
	.byte	0x08, nF2, 0x04, nRst, 0x08, nEb2, 0x06, nC2, 0x12, nBb1, 0x06, nB1
	.byte	nC2, nBb1, nAb1, nF1, 0x0C, nAb1, 0x06, nRst, 0x0C, nBb1, 0x04, nRst
	.byte	0x08, nAb1, 0x06, nF1, 0x0E, nRst, 0x04, nC1, 0x06, nRst, 0x12, nC2
	.byte	nG1, 0x06, nBb1, 0x04, nRst, 0x08, nC2, 0x04, nRst, 0x08, nBb1, 0x06
	.byte	nG1, 0x12, nF1, 0x06, nFs1, nG1, nF1, nEb1, nC1, 0x0C, nEb1, 0x06
	.byte	nRst, 0x0C, nF1, 0x04, nRst, 0x08, nEb1, 0x06, nBb0, 0x0E, nRst, 0x04
	.byte	nAb0, 0x06, nRst, 0x12, nAb1, 0x0E, nRst, 0x04, nAb1, 0x06, nG1, 0x04
	.byte	nRst, 0x08, nF1, 0x04, nRst, 0x08, nEb1, 0x06, nF1, 0x10, nRst, 0x02
	.byte	nC1, 0x06, nRst, 0x12, nC2, 0x10, nRst, 0x02, nC2, 0x04, nRst, 0x02
	.byte	nBb1, 0x04, nRst, 0x08, nG1, 0x04, nRst, 0x08, nF1, 0x04, nRst, 0x02
	.byte	nG1, 0x0E, nRst, 0x04, nAb0, 0x06, nRst, 0x12, nAb1, 0x0E, nRst, 0x04
	.byte	nAb1, 0x06, nG1, 0x04, nRst, 0x08, nF1, 0x04, nRst, 0x08, nEb1, 0x06
	.byte	nF1, 0x10, nRst, 0x02, nC1, 0x06, nRst, 0x12, nC2, 0x10, nRst, 0x02
	.byte	nC2, 0x04, nRst, 0x02, nBb1, 0x04, nRst, 0x08, nG1, 0x04, nRst, 0x08
	.byte	nF1, 0x04, nRst, 0x02, nG1, 0x0E, nRst, 0x04, nAb0, 0x06, nRst, 0x12
	.byte	nAb1, 0x0E, nRst, 0x04, nAb1, 0x06, nG1, 0x04, nRst, 0x08, nF1, 0x04
	.byte	nRst, 0x08, nEb1, 0x06, nF1, 0x10, nRst, 0x02, nC1, 0x06, nRst, 0x12
	.byte	nC2, 0x10, nRst, 0x02, nC2, 0x04, nRst, 0x02, nBb1, 0x04, nRst, 0x08
	.byte	nG1, 0x04, nRst, 0x08, nF1, 0x04, nRst, 0x02, nG1, 0x0E, nRst, 0x04
	.byte	nAb0, 0x06, nRst, 0x12, nAb1, 0x0E, nRst, 0x04, nAb1, 0x06, nG1, 0x04
	.byte	nRst, 0x08, nF1, 0x04, nRst, 0x08, nEb1, 0x06, nF1, 0x10, nRst, 0x02
	.byte	nC1, 0x06, nRst, 0x12, nC2, 0x10, nRst, 0x02, nC2, 0x04, nRst, 0x02
	.byte	nBb1, 0x04, nRst, 0x08, nG1, 0x04, nRst, 0x08, nF1, 0x04, nRst, 0x02
	.byte	nG1, 0x0E, nRst, 0x04, nAb0, 0x06, nRst, 0x12, nAb1, 0x0E, nRst, 0x04
	.byte	nAb1, 0x06, nG1, 0x04, nRst, 0x08, nF1, 0x04, nRst, 0x08, nEb1, 0x06
	.byte	nF1, 0x10, nRst, 0x02, nC1, 0x06, nRst, 0x12, nC2, 0x10, nRst, 0x02
	.byte	nC2, 0x04, nRst, 0x02, nBb1, 0x04, nRst, 0x08, nG1, 0x04, nRst, 0x08
	.byte	nF1, 0x04, nRst, 0x02, nG1, 0x0E, nRst, 0x04, nCs1, 0x06, nRst, 0x12
	.byte	nCs2, 0x0E, nRst, 0x04, nCs2, 0x06, nB1, 0x04, nRst, 0x08, nAb1, 0x04
	.byte	nRst, 0x08, nFs1, 0x06, nAb1, 0x10, nRst, 0x02, nG1, 0x06, nRst, 0x12
	.byte	nG2, 0x10, nRst, 0x02, nG2, 0x04, nRst, 0x02, nF2, 0x04, nRst, 0x08
	.byte	nD2, 0x04, nRst, 0x08, nC2, 0x04, nRst, 0x02, nD2, 0x0E, nRst, 0x04
	smpsJump            Snd_Comp_Jump04

/*  FM5 Data */
Snd_Comp_FM5:
	.byte	nRst, 0x03
	smpsJump            Snd_Comp_FM2

/*  FM2 Data */
Snd_Comp_FM2:
	smpsSetvoice        0x0D
	smpsDetune          0x03
	smpsModSet          0x0F, 0x01, 0x06, 0x06
	.byte	nRst, 0x60

Snd_Comp_Jump03:
	.byte	nRst, 0x1E, nBb4, 0x0A, nRst, 0x02, nA4, 0x04, nRst, 0x50, nA4, 0x0A
	.byte	nRst, 0x02, nBb4, 0x04, nRst, 0x50, nBb4, 0x0A, nRst, 0x02, nA4, 0x04
	.byte	nRst, 0x50, nA4, 0x0A, nRst, 0x02, nBb4, 0x04, nRst, 0x32
	smpsSetvoice        0x17
	smpsDetune          0x03
	smpsModSet          0x0F, 0x01, 0x06, 0x06
	.byte	nEb4, 0x04, nRst, 0x08, nD4, 0x04, nRst, 0x08, nC4, 0x0C, nBb3, 0x06
	.byte	nC4, 0x1C, nRst, 0x08, nF3, 0x02, nFs3, nRst, nG3, 0x06, nBb3, nEb4
	.byte	0x04, nRst, 0x08, nD4, 0x04, nRst, 0x08, nC4, 0x06, nBb3, 0x12, nC4
	.byte	0x0C, nBb3, 0x06, nFs3, 0x02, nG3, 0x06, nRst, 0x04, nF3, nRst, 0x02
	.byte	nG3, 0x06, nBb3, nEb4, 0x04, nRst, 0x08, nD4, 0x04, nRst, 0x08, nC4
	.byte	0x0C, nBb3, 0x04, nRst, 0x02, nC4, 0x20, nRst, 0x04, nF3, nRst, 0x02
	.byte	nG3, 0x06, nBb3, nEb4, 0x04, nRst, 0x08, nD4, 0x04, nRst, 0x08, nC4
	.byte	0x06, nBb3, 0x12, nC4, 0x0C, nBb3, 0x06, nG3, 0x08, nRst, 0x16, nF2
	.byte	0x06, nF3, nEb3, 0x04, nRst, 0x02, nC3, 0x06, nEb3, nF3, 0x04, nRst
	.byte	0x08, nFs3, 0x12, nF3, 0x06, nC3, nEb3, nF3, nRst, nBb3, 0x12, nG3
	.byte	0x06, nF3, 0x04, nRst, 0x02, nG3, 0x06, nF3, nEb3, nC3, nEb3, 0x04
	.byte	nRst, 0x08, nF3, 0x06, nEb3, 0x08, nRst, 0x04, nF3, nRst, 0x02, nG3
	.byte	0x06, nBb3, nEb4, 0x04, nRst, 0x08, nD4, 0x04, nRst, 0x08, nC4, 0x0C
	.byte	nBb3, 0x06, nC4, 0x0C, nD4, 0x06, nC4, 0x20, nRst, 0x04, nF4, 0x0E
	.byte	nRst, 0x04, nF4, 0x12, nEb4, 0x2E, nRst, 0x0E, nD4, nRst, 0x04, nD4
	.byte	0x12, nC4, 0x3C, nBb3, 0x0C, nRst, 0x06, nBb3, 0x12, nG3, 0x38, nRst
	.byte	0x04, nF3, 0x0E, nRst, 0x04, nF3, 0x12, nEb3, 0x18, nF3, 0x0C, nG3
	.byte	0x08, nRst, 0x04, nBb3, 0x0A, nRst, 0x02, nEb3, 0x12, nD3, 0x04, nRst
	.byte	0x0E, nEb3, 0x18
	smpsSetvoice        0x0E
	smpsDetune          0x00
	smpsModSet          0x0F, 0x01, 0x06, 0x06
	.byte	nC3, 0x06, nEb3, nF3, nFs3, nG3, nBb3, nC4, 0x0C, nBb3, 0x04, nRst
	.byte	0x02, nC4, 0x06, nEb4, nF4, nRst, nF4, 0x02, nF4, nFs4, nF4, 0x0C
	.byte	nEb4, 0x06, nC4, nEb4, nF4, 0x10, nRst, 0x02, nFs4, nG4, 0x0A, nBb4
	.byte	0x06, nG4, nBb4, nC5, nRst, nD5, 0x02, nEb5, 0x0A, nD5, 0x04, nRst
	.byte	0x02, nC5, 0x06, nBb4, nC5, 0x0C, nBb4, 0x02, nG4, nF4, nEb4, nC4
	.byte	nBb3
	smpsSetvoice        0x0E
	smpsDetune          0x00
	smpsModSet          0x0F, 0x01, 0x06, 0x06
	.byte	nEb5, 0x06, nF5, 0x0A, nRst, 0x02, nEb5, 0x06, nFs5, 0x0C, nEb5, 0x06
	.byte	nA5, 0x02, nBb5, 0x0A, nF5, 0x06, nEb5, nC5, nEb5, nC5, nBb4, nC5
	.byte	nBb4, nG4, nBb4, nG4, nF4, nG4, nF4, nEb4, nF4, nEb4, nC4, nEb4
	.byte	0x12, nC4, 0x02, nBb3, nG3, nF3, nEb3, nC3
	smpsSetvoice        0x0E
	smpsDetune          0x00
	smpsModSet          0x0F, 0x01, 0x06, 0x06
	.byte	nEb4, 0x12, nFs4, nF4, 0x28, nRst, 0x14, nFs4, 0x02, nG4, 0x10, nBb4
	.byte	0x12, nG4, 0x06, nBb4, nA4, 0x12, nFs4, 0x02, nG4, 0x14, nRst, 0x08
	smpsSetvoice        0x0E
	smpsDetune          0x00
	smpsModSet          0x0F, 0x01, 0x06, 0x06
	.byte	nBb4, 0x12, nEb5, 0x1E, nB4, 0x12, nE5, 0x1E, nF5, 0x08, nRst, 0x10
	.byte	nF5, 0x30, nRst, 0x06, nF3, nG3, nBb3
	smpsJump            Snd_Comp_Jump03

/*  FM3 Data */
Snd_Comp_FM3:
	smpsSetvoice        0x18
	.byte	nRst, 0x60

Snd_Comp_Jump02:
	.byte	nF3, 0x04, nRst, 0x08, nEb3, 0x06, nF3, 0x04, nRst, 0x26, nG3, 0x04
	.byte	nRst, 0x08, nF3, 0x04, nRst, 0x02, nG3, 0x12, nF3, 0x04, nRst, 0x08
	.byte	nEb3, 0x06, nF3, 0x04, nRst, 0x26, nBb3, 0x04, nRst, 0x0E, nBb3, 0x0A
	.byte	nRst, 0x08, nF3, 0x04, nRst, 0x08, nEb3, 0x06, nF3, 0x04, nRst, 0x26
	.byte	nG3, 0x04, nRst, 0x08, nF3, 0x04, nRst, 0x02, nG3, 0x12, nF3, 0x04
	.byte	nRst, 0x08, nEb3, 0x06, nF3, 0x04, nRst, 0x26, nBb3, 0x04, nRst, 0x0E
	.byte	nBb3, 0x0A, nRst, 0x08, nG3, 0x04, nRst, 0x14, nA3, 0x10, nRst, 0x02
	.byte	nG3, 0x04, nRst, 0x3E, nBb4, 0x04, nRst, 0x0E, nBb4, 0x04, nRst, 0x0E
	.byte	nA4, 0x02, nBb4, 0x10, nA4, 0x04, nRst, 0x1A, nG3, 0x04, nRst, 0x14
	.byte	nA3, 0x10, nRst, 0x02, nG3, 0x04, nRst, 0x3E, nBb4, 0x04, nRst, 0x0E
	.byte	nBb4, 0x04, nRst, 0x0E, nA4, 0x02, nBb4, 0x10, nA4, 0x04, nRst, 0x1A
	.byte	nEb3, 0x04, nRst, 0x14, nFs3, 0x02, nG3, 0x0E, nRst, 0x02, nEb3, 0x04
	.byte	nRst, 0x3E, nEb4, 0x04, nRst, 0x0E, nEb4, 0x04, nRst, 0x0E, nF4, 0x02
	.byte	nFs4, 0x0E, nRst, 0x02, nEb4, 0x04, nRst, 0x1A, nG3, 0x04, nRst, 0x14
	.byte	nA3, 0x10, nRst, 0x02, nG3, 0x04, nRst, 0x32, nD4, 0x10, nRst, 0x02
	.byte	nD4, 0x04, nRst, 0x0E, nBb3, 0x10, nRst, 0x2C, nBb3, 0x10, nRst, 0x02
	.byte	nBb3, 0x04, nRst, 0x0E, nG3, 0x10, nRst, 0x02, nEb4, 0x04, nRst, 0x02
	.byte	nG4, 0x04, nRst, 0x08, nF4, 0x04, nRst, 0x02, nEb4, 0x0E, nRst, 0x04
	.byte	nG3, 0x10, nRst, 0x02, nG3, 0x04, nRst, 0x0E, nEb3, 0x10, nRst, 0x02
	.byte	nC4, 0x04, nRst, 0x02, nEb4, 0x04, nRst, 0x08, nD4, 0x06, nC4, 0x12
	.byte	nD3, 0x10, nRst, 0x02, nD3, 0x04, nRst, 0x0E, nC3, 0x10, nRst, 0x02
	.byte	nF4, 0x04, nRst, 0x02, nBb4, 0x04, nRst, 0x08, nAb4, 0x04, nRst, 0x02
	.byte	nG4, 0x10, nRst, 0x02, nBb2, 0x10, nRst, 0x02, nBb2, 0x04, nRst, 0x0E
	.byte	nBb2, 0x10, nRst, 0x02, nBb3, 0x04, nRst, 0x02, nF4, 0x04, nRst, 0x08
	.byte	nEb4, 0x04, nRst, 0x02, nC4, 0x0C, nRst, 0x06, nAb3, 0x04, nRst, 0x02
	.byte	nAb3, 0x04, nRst, 0x02, nEb3, 0x04, nRst, 0x02, nAb3, 0x04, nRst, 0x1A
	.byte	nBb4, 0x02, nC5, 0x0A, nAb3, 0x04, nRst, 0x02, nAb3, 0x04, nRst, 0x02
	.byte	nEb3, 0x04, nRst, 0x02, nAb3, 0x0A, nRst, 0x08, nC4, 0x04, nRst, 0x02
	.byte	nC4, 0x04, nRst, 0x02, nBb3, 0x04, nRst, 0x02, nC4, 0x04, nRst, 0x1A
	.byte	nEb5, 0x0C, nC4, 0x04, nRst, 0x02, nC4, 0x04, nRst, 0x02, nBb3, 0x04
	.byte	nRst, 0x02, nC4, 0x0A, nRst, 0x08, nAb3, 0x04, nRst, 0x02, nAb3, 0x04
	.byte	nRst, 0x02, nEb3, 0x04, nRst, 0x02, nAb3, 0x04, nRst, 0x1A, nF5, 0x02
	.byte	nFs5, 0x0A, nAb3, 0x04, nRst, 0x02, nAb3, 0x04, nRst, 0x02, nEb3, 0x04
	.byte	nRst, 0x02, nAb3, 0x0A, nRst, 0x08, nC4, 0x04, nRst, 0x02, nC4, 0x04
	.byte	nRst, 0x02, nBb3, 0x04, nRst, 0x02, nC4, 0x04, nRst, 0x1A, nEb5, 0x0C
	.byte	nC4, 0x04, nRst, 0x02, nC4, 0x04, nRst, 0x02, nBb3, 0x04, nRst, 0x02
	.byte	nC4, 0x0A, nRst, 0x08, nAb3, 0x04, nRst, 0x02, nAb3, 0x04, nRst, 0x02
	.byte	nEb3, 0x04, nRst, 0x02, nAb3, 0x04, nRst, 0x1A, nBb4, 0x02, nC5, 0x0A
	.byte	nAb3, 0x04, nRst, 0x02, nAb3, 0x04, nRst, 0x02, nEb3, 0x04, nRst, 0x02
	.byte	nAb3, 0x0A, nRst, 0x08, nC4, 0x04, nRst, 0x02, nC4, 0x04, nRst, 0x02
	.byte	nBb3, 0x04, nRst, 0x02, nC4, 0x04, nRst, 0x1A, nF5, 0x0C, nC4, 0x04
	.byte	nRst, 0x02, nC4, 0x04, nRst, 0x02, nBb3, 0x04, nRst, 0x02, nC4, 0x0A
	.byte	nRst, 0x08, nAb3, 0x04, nRst, 0x02, nAb3, 0x04, nRst, 0x02, nEb3, 0x04
	.byte	nRst, 0x02, nAb3, 0x04, nRst, 0x1A, nEb5, 0x02, nF5, 0x0A, nAb3, 0x04
	.byte	nRst, 0x02, nAb3, 0x04, nRst, 0x02, nEb3, 0x04, nRst, 0x02, nAb3, 0x0A
	.byte	nRst, 0x08, nD4, 0x04, nRst, 0x02, nD4, 0x04, nRst, 0x02, nD4, 0x04
	.byte	nRst, 0x02, nD4, 0x04, nRst, 0x26, nD4, 0x04, nRst, 0x02, nD4, 0x04
	.byte	nRst, 0x02, nD4, 0x04, nRst, 0x02, nD4, 0x04, nRst, 0x0E
	smpsJump            Snd_Comp_Jump02

/*  FM4 Data */
Snd_Comp_FM4:
	smpsSetvoice        0x19
	.byte	nRst, 0x60

Snd_Comp_Jump01:
	.byte	nD3, 0x04, nRst, 0x08, nC3, 0x06, nD3, 0x04, nRst, 0x08
	smpsSetvoice        0x0D
	smpsDetune          0xFD
	smpsModSet          0x0F, 0x01, 0x06, 0x06
	.byte	nEb4, 0x0A, nRst, 0x02, nEb4, 0x04, nRst, 0x0E
	smpsSetvoice        0x19
	.byte	nEb3, 0x02, nRst, 0x0A, nD3, 0x04, nRst, 0x02, nEb3, 0x12, nD3, 0x04
	.byte	nRst, 0x08, nC3, 0x06, nD3, 0x04, nRst, 0x08
	smpsSetvoice        0x0D
	smpsDetune          0xFD
	smpsModSet          0x0F, 0x01, 0x06, 0x06
	.byte	nEb4, 0x0A, nRst, 0x02, nEb4, 0x04, nRst, 0x0E
	smpsSetvoice        0x19
	.byte	nG3, 0x02, nRst, 0x10, nG3, 0x0A, nRst, 0x08, nD3, 0x04, nRst, 0x08
	.byte	nC3, 0x06, nD3, 0x04, nRst, 0x08
	smpsSetvoice        0x0D
	smpsDetune          0xFD
	smpsModSet          0x0F, 0x01, 0x06, 0x06
	.byte	nEb4, 0x0A, nRst, 0x02, nEb4, 0x04, nRst, 0x0E
	smpsSetvoice        0x19
	.byte	nEb3, 0x02, nRst, 0x0A, nD3, 0x04, nRst, 0x02, nEb3, 0x12, nD3, 0x04
	.byte	nRst, 0x08, nC3, 0x06, nD3, 0x04, nRst, 0x08
	smpsSetvoice        0x0D
	smpsDetune          0xFD
	smpsModSet          0x0F, 0x01, 0x06, 0x06
	.byte	nEb4, 0x0A, nRst, 0x02, nEb4, 0x04, nRst, 0x0E
	smpsSetvoice        0x19
	.byte	nG3, 0x02, nRst, 0x10, nG3, 0x0A, nRst, 0x08, nEb3, 0x04, nRst, 0x14
	.byte	nF3, 0x10, nRst, 0x02, nEb3, 0x04, nRst, 0x3E, nG4, 0x04, nRst, 0x0E
	.byte	nG4, 0x04, nRst, 0x0E, nG4, 0x10, nRst, 0x02, nF4, 0x04, nRst, 0x1A
	.byte	nEb3, 0x04, nRst, 0x14, nF3, 0x10, nRst, 0x02, nEb3, 0x04, nRst, 0x3E
	.byte	nG4, 0x04, nRst, 0x0E, nG4, 0x04, nRst, 0x0E, nG4, 0x10, nRst, 0x02
	.byte	nF4, 0x04, nRst, 0x1A, nC3, 0x04, nRst, 0x14, nEb3, 0x10, nRst, 0x02
	.byte	nC3, 0x04, nRst, 0x3E, nC4, 0x04, nRst, 0x0E, nC4, 0x04, nRst, 0x0E
	.byte	nEb4, 0x10, nRst, 0x02, nC4, 0x04, nRst, 0x1A, nEb3, 0x04, nRst, 0x14
	.byte	nF3, 0x10, nRst, 0x02, nEb3, 0x04, nRst, 0x32, nBb3, 0x10, nRst, 0x02
	.byte	nBb3, 0x04, nRst, 0x0E, nG3, 0x10, nRst, 0x02, nG4, 0x06, nBb4, nD5
	.byte	nBb4, nG4, nEb4, nBb3, nF3, 0x10, nRst, 0x02, nF3, 0x04, nRst, 0x0E
	.byte	nEb3, 0x10, nRst, 0x02, nBb3, 0x04, nRst, 0x02, nEb4, 0x04, nRst, 0x08
	.byte	nD4, 0x04, nRst, 0x02, nC4, 0x0E, nRst, 0x04, nEb3, 0x10, nRst, 0x02
	.byte	nEb3, 0x04, nRst, 0x0E, nBb2, 0x10, nRst, 0x02, nG3, 0x04, nRst, 0x02
	.byte	nC4, 0x04, nRst, 0x08, nBb3, 0x06, nEb3, 0x12, nBb2, 0x10, nRst, 0x02
	.byte	nBb2, 0x04, nRst, 0x0E, nG2, 0x10, nRst, 0x02, nBb3, 0x04, nRst, 0x02
	.byte	nD4, 0x04, nRst, 0x08, nC4, 0x04, nRst, 0x02, nEb4, 0x10, nRst, 0x02
	.byte	nG2, 0x10, nRst, 0x02, nF2, 0x04, nRst, 0x0E, nG2, 0x10, nRst, 0x02
	.byte	nG3, 0x04, nRst, 0x02, nD4, 0x04, nRst, 0x08, nC4, 0x04, nRst, 0x02
	.byte	nEb3, 0x0C, nRst, 0x06, nEb3, 0x04, nRst, 0x02, nEb3, 0x04, nRst, 0x02
	.byte	nBb2, 0x04, nRst, 0x02, nEb3, 0x04, nRst, 0x1A, nFs4, 0x0C, nEb3, 0x04
	.byte	nRst, 0x02, nEb3, 0x04, nRst, 0x02, nBb2, 0x04, nRst, 0x02, nEb3, 0x0A
	.byte	nFs3, 0x02, nF3, nEb3, nC3, nG3, 0x04, nRst, 0x02, nG3, 0x04, nRst
	.byte	0x02, nF3, 0x04, nRst, 0x02, nG3, 0x04, nRst, 0x1A, nBb4, 0x0C, nG3
	.byte	0x04, nRst, 0x02, nG3, 0x04, nRst, 0x02, nF3, 0x04, nRst, 0x02, nG3
	.byte	0x0A, nBb3, 0x02, nG3, nF3, nEb3, nEb3, 0x04, nRst, 0x02, nEb3, 0x04
	.byte	nRst, 0x02, nBb2, 0x04, nRst, 0x02, nEb3, 0x04, nRst, 0x1A, nC5, 0x0C
	.byte	nEb3, 0x04, nRst, 0x02, nEb3, 0x04, nRst, 0x02, nBb2, 0x04, nRst, 0x02
	.byte	nEb3, 0x0A, nFs3, 0x02, nF3, nEb3, nC3, nG3, 0x04, nRst, 0x02, nG3
	.byte	0x04, nRst, 0x02, nF3, 0x04, nRst, 0x02, nG3, 0x04, nRst, 0x1A, nBb4
	.byte	0x0C, nG3, 0x04, nRst, 0x02, nG3, 0x04, nRst, 0x02, nF3, 0x04, nRst
	.byte	0x02, nG3, 0x0A, nBb3, 0x02, nG3, nF3, nEb3, nEb3, 0x04, nRst, 0x02
	.byte	nEb3, 0x04, nRst, 0x02, nBb2, 0x04, nRst, 0x02, nEb3, 0x04, nRst, 0x1A
	.byte	nFs4, 0x0C, nEb3, 0x04, nRst, 0x02, nEb3, 0x04, nRst, 0x02, nBb2, 0x04
	.byte	nRst, 0x02, nEb3, 0x0A, nFs3, 0x02, nF3, nEb3, nC3, nG3, 0x04, nRst
	.byte	0x02, nG3, 0x04, nRst, 0x02, nF3, 0x04, nRst, 0x02, nG3, 0x04, nRst
	.byte	0x1A, nC5, 0x0C, nG3, 0x04, nRst, 0x02, nG3, 0x04, nRst, 0x02, nF3
	.byte	0x04, nRst, 0x02, nG3, 0x0A, nBb3, 0x02, nG3, nF3, nEb3, nCs3, 0x04
	.byte	nRst, 0x02, nCs3, 0x04, nRst, 0x02, nBb2, 0x04, nRst, 0x02, nCs3, 0x04
	.byte	nRst, 0x1A, nB4, 0x0C, nCs3, 0x04, nRst, 0x02, nCs3, 0x04, nRst, 0x02
	.byte	nBb2, 0x04, nRst, 0x02, nCs3, 0x0A, nFs3, 0x02, nF3, nEb3, nC3, nG3
	.byte	0x04, nRst, 0x02, nG3, 0x04, nRst, 0x02, nG3, 0x04, nRst, 0x02, nG3
	.byte	0x04, nRst, 0x02, nB3, 0x24, nG3, 0x04, nRst, 0x02, nG3, 0x04, nRst
	.byte	0x02, nG3, 0x04, nRst, 0x02, nG3, 0x04, nRst, 0x0E
	smpsJump            Snd_Comp_Jump01

/*  PSG1 Data */
Snd_Comp_PSG1:
	.byte	nRst, 0x60

Snd_Comp_Jump06:
	.byte	nC4, 0x06, nRst, nC5, nC4, nRst, 0x1E, nC4, 0x06, nRst, nC5, nC4
	.byte	0x0C, nC5, nC4, 0x06, nRst, nC5, nC4, nRst, 0x1E, nC4, 0x06, nRst
	.byte	nC5, nC4, 0x0C, nC5, nC4, 0x06, nRst, nC5, nC4, nRst, 0x1E, nC4
	.byte	0x06, nRst, nC5, nC4, 0x0C, nC5, nC4, 0x06, nRst, nC5, nC4, nRst
	.byte	0x1E, nC4, 0x06, nRst, nC5, nC4, 0x0C, nC5, nC5, 0x04, nRst, 0x08
	.byte	nD5, 0x04, nRst, 0x08, nEb5, 0x04, nRst, 0x08, nD5, 0x04, nRst, 0x02
	.byte	nEb5, 0x04, nRst, 0x08, nC5, 0x04, nRst, 0x02, nD5, 0x04, nRst, 0x08
	.byte	nEb5, 0x04, nRst, 0x08, nD5, 0x04, nRst, 0x08, nC5, 0x04, nRst, 0x08
	.byte	nEb5, 0x04, nRst, 0x0E, nEb5, 0x04, nRst, 0x02, nD5, 0x04, nRst, 0x02
	.byte	nEb5, 0x04, nRst, 0x08, nC5, 0x04, nRst, 0x02, nD5, 0x04, nRst, 0x08
	.byte	nEb5, 0x04, nRst, 0x08, nD5, 0x04, nRst, 0x08, nC5, 0x04, nRst, 0x08
	.byte	nD5, 0x04, nRst, 0x08, nEb5, 0x04, nRst, 0x08, nD5, 0x04, nRst, 0x02
	.byte	nEb5, 0x04, nRst, 0x08, nC5, 0x04, nRst, 0x02, nD5, 0x04, nRst, 0x08
	.byte	nEb5, 0x04, nRst, 0x08, nD5, 0x04, nRst, 0x08, nC5, 0x04, nRst, 0x08
	.byte	nEb5, 0x04, nRst, 0x0E, nEb5, 0x04, nRst, 0x02, nD5, 0x04, nRst, 0x02
	.byte	nEb5, 0x04, nRst, 0x08, nC5, 0x04, nRst, 0x02, nD5, 0x04, nRst, 0x08
	.byte	nEb5, 0x04, nRst, 0x08, nD5, 0x04, nRst, 0x08, nC5, 0x04, nRst, 0x08
	.byte	nD5, 0x04, nRst, 0x08, nEb5, 0x04, nRst, 0x08, nD5, 0x04, nRst, 0x02
	.byte	nEb5, 0x04, nRst, 0x08, nC5, 0x04, nRst, 0x02, nD5, 0x04, nRst, 0x08
	.byte	nEb5, 0x04, nRst, 0x08, nD5, 0x04, nRst, 0x08, nC5, 0x04, nRst, 0x08
	.byte	nEb5, 0x04, nRst, 0x0E, nEb5, 0x04, nRst, 0x02, nD5, 0x04, nRst, 0x02
	.byte	nEb5, 0x04, nRst, 0x08, nC5, 0x04, nRst, 0x02, nD5, 0x04, nRst, 0x08
	.byte	nEb5, 0x04, nRst, 0x08, nD5, 0x04, nRst, 0x08, nC5, 0x04, nRst, 0x08
	.byte	nD5, 0x04, nRst, 0x08, nEb5, 0x04, nRst, 0x08, nD5, 0x04, nRst, 0x02
	.byte	nEb5, 0x04, nRst, 0x08, nC5, 0x04, nRst, 0x02, nD5, 0x04, nRst, 0x08
	.byte	nEb5, 0x04, nRst, 0x08, nD5, 0x04, nRst, 0x3E, nG4, 0x06, nBb4, nD5
	.byte	nBb4, nG4, nEb4, nBb3, nBb4, 0x10, nRst, 0x02, nBb4, 0x04, nRst, 0x0E
	.byte	nG4, 0x10, nRst, 0x02, nEb5, 0x04, nRst, 0x02, nG5, 0x04, nRst, 0x08
	.byte	nF5, 0x04, nRst, 0x02, nEb5, 0x0E, nRst, 0x04, nG4, 0x10, nRst, 0x02
	.byte	nG4, 0x04, nRst, 0x0E, nEb4, 0x10, nRst, 0x02, nC5, 0x04, nRst, 0x02
	.byte	nEb5, 0x04, nRst, 0x08, nD5, 0x06, nC5, 0x12, nD4, 0x10, nRst, 0x02
	.byte	nD4, 0x04, nRst, 0x0E, nC4, 0x10, nRst, 0x02, nF5, 0x04, nRst, 0x02
	.byte	nBb5, 0x04, nRst, 0x08, nAb5, 0x04, nRst, 0x02, nG5, 0x10, nRst, 0x02
	.byte	nBb3, 0x10, nRst, 0x02, nBb3, 0x04, nRst, 0x0E, nBb3, 0x10, nRst, 0x02
	.byte	nBb4, 0x04, nRst, 0x02, nF5, 0x04, nRst, 0x08, nEb5, 0x04, nRst, 0x02
	.byte	nC5, 0x0C, nRst, 0x06, nEb4, 0x04, nRst, 0x08, nEb4, 0x04, nRst, 0x08
	.byte	nEb4, 0x04, nRst, 0x02, nEb5, 0x04, nRst, 0x08, nEb4, 0x04, nRst, 0x02
	.byte	nEb5, 0x04, nRst, 0x08, nEb4, 0x04, nRst, 0x02, nEb5, 0x04, nRst, 0x08
	.byte	nEb4, 0x04, nRst, 0x02, nEb4, 0x04, nRst, 0x02, nEb5, 0x04, nRst, 0x02
	.byte	nG4, 0x04, nRst, 0x08, nG4, 0x04, nRst, 0x08, nG4, 0x04, nRst, 0x02
	.byte	nG5, 0x04, nRst, 0x08, nG4, 0x04, nRst, 0x02, nG5, 0x04, nRst, 0x08
	.byte	nG4, 0x04, nRst, 0x02, nG5, 0x04, nRst, 0x08, nG4, 0x04, nRst, 0x02
	.byte	nG4, 0x04, nRst, 0x02, nG5, 0x04, nRst, 0x02, nEb4, 0x04, nRst, 0x08
	.byte	nEb4, 0x04, nRst, 0x08, nEb4, 0x04, nRst, 0x02, nEb5, 0x04, nRst, 0x08
	.byte	nEb4, 0x04, nRst, 0x02, nEb5, 0x04, nRst, 0x08, nEb4, 0x04, nRst, 0x02
	.byte	nEb5, 0x04, nRst, 0x08, nEb4, 0x04, nRst, 0x02, nEb4, 0x04, nRst, 0x02
	.byte	nEb5, 0x04, nRst, 0x02, nG4, 0x04, nRst, 0x08, nG4, 0x04, nRst, 0x08
	.byte	nG4, 0x04, nRst, 0x02, nG5, 0x04, nRst, 0x08, nG4, 0x04, nRst, 0x02
	.byte	nG5, 0x04, nRst, 0x08, nG4, 0x04, nRst, 0x02, nG5, 0x04, nRst, 0x08
	.byte	nG4, 0x04, nRst, 0x02, nG4, 0x04, nRst, 0x02, nG5, 0x04, nRst, 0x02
	.byte	nEb4, 0x04, nRst, 0x08, nEb4, 0x04, nRst, 0x08, nEb4, 0x04, nRst, 0x02
	.byte	nEb5, 0x04, nRst, 0x08, nEb4, 0x04, nRst, 0x02, nEb5, 0x04, nRst, 0x08
	.byte	nEb4, 0x04, nRst, 0x02, nEb5, 0x04, nRst, 0x08, nEb4, 0x04, nRst, 0x02
	.byte	nEb4, 0x04, nRst, 0x02, nEb5, 0x04, nRst, 0x02, nG4, 0x04, nRst, 0x08
	.byte	nG4, 0x04, nRst, 0x08, nG4, 0x04, nRst, 0x02, nG5, 0x04, nRst, 0x08
	.byte	nG4, 0x04, nRst, 0x02, nG5, 0x04, nRst, 0x08, nG4, 0x04, nRst, 0x02
	.byte	nG5, 0x04, nRst, 0x08, nG4, 0x04, nRst, 0x02, nG4, 0x04, nRst, 0x02
	.byte	nG5, 0x04, nRst, 0x02, nF4, 0x04, nRst, 0x08, nF4, 0x04, nRst, 0x08
	.byte	nF4, 0x04, nRst, 0x02, nF5, 0x04, nRst, 0x08, nF4, 0x04, nRst, 0x02
	.byte	nF5, 0x04, nRst, 0x08, nF4, 0x04, nRst, 0x02, nF5, 0x04, nRst, 0x08
	.byte	nF4, 0x04, nRst, 0x02, nF4, 0x04, nRst, 0x02, nF5, 0x04, nRst, 0x02
	.byte	nG4, 0x04, nRst, 0x08, nG4, 0x04, nRst, 0x08, nG4, 0x04, nRst, 0x02
	.byte	nG5, 0x04, nRst, 0x08, nG4, 0x04, nRst, 0x02, nG5, 0x04, nRst, 0x08
	.byte	nG4, 0x04, nRst, 0x02, nG5, 0x04, nRst, 0x08, nG4, 0x04, nRst, 0x02
	.byte	nG4, 0x04, nRst, 0x02, nG5, 0x04, nRst, 0x02
	smpsJump            Snd_Comp_Jump06

/*  PSG2 Data */
Snd_Comp_PSG2:
	.byte	nRst, 0x7F, nRst, nRst, nRst, nRst, nRst, nRst, nRst, nRst, nRst, nRst
	.byte	nRst, nRst, nRst, nRst, nRst, nRst, nRst, nRst, 0x72
	smpsJump            Snd_Comp_Jump06

/*  PSG3 Data */
Snd_Comp_PSG3:
	smpsPSGvoice        sTone_02
	smpsPSGform         0xE7
	.byte	nRst, 0x60

Snd_Comp_Jump05:
	.byte	nMaxPSG1, 0x06, nMaxPSG1, nMaxPSG1, nMaxPSG1, nMaxPSG1, nMaxPSG1, nMaxPSG1, nMaxPSG1, nMaxPSG1, nMaxPSG1, nMaxPSG1
	.byte	nMaxPSG1, nMaxPSG1, nMaxPSG1, nMaxPSG1, nMaxPSG1, nMaxPSG1, nMaxPSG1, nMaxPSG1, nMaxPSG1, nMaxPSG1, nMaxPSG1, nMaxPSG1
	.byte	nMaxPSG1, nMaxPSG1, nMaxPSG1, nMaxPSG1, nMaxPSG1, nMaxPSG1, nMaxPSG1, nMaxPSG1, nMaxPSG1, nMaxPSG1, nMaxPSG1, nMaxPSG1
	.byte	nMaxPSG1, nMaxPSG1, nMaxPSG1, nMaxPSG1, nMaxPSG1, nMaxPSG1, nMaxPSG1, nMaxPSG1, nMaxPSG1, nMaxPSG1, nMaxPSG1, nMaxPSG1
	.byte	nMaxPSG1, nMaxPSG1, nMaxPSG1, nMaxPSG1, nMaxPSG1, nMaxPSG1, nMaxPSG1, nMaxPSG1, nMaxPSG1, nMaxPSG1, nMaxPSG1, nMaxPSG1
	.byte	nMaxPSG1, nMaxPSG1, nMaxPSG1, nMaxPSG1, nMaxPSG1, nMaxPSG1, nMaxPSG1, nMaxPSG1, nMaxPSG1, nMaxPSG1, nMaxPSG1, nMaxPSG1
	.byte	nMaxPSG1, nMaxPSG1, 0x04, nMaxPSG1, nMaxPSG1, nMaxPSG1, 0x06, nMaxPSG1, nMaxPSG1, nMaxPSG1, nMaxPSG1, nMaxPSG1
	.byte	nMaxPSG1, nMaxPSG1, nMaxPSG1, nMaxPSG1, nMaxPSG1, nMaxPSG1, nMaxPSG1, nMaxPSG1, nMaxPSG1, nMaxPSG1, nMaxPSG1, nMaxPSG1
	.byte	nMaxPSG1, nMaxPSG1, nMaxPSG1, nMaxPSG1, nMaxPSG1, nMaxPSG1, nMaxPSG1, nMaxPSG1, nMaxPSG1, nMaxPSG1, nMaxPSG1, nMaxPSG1
	.byte	nMaxPSG1, 0x04, nMaxPSG1, nMaxPSG1, nMaxPSG1, 0x06, nMaxPSG1, nMaxPSG1, nMaxPSG1, nMaxPSG1, nMaxPSG1, nMaxPSG1
	.byte	nMaxPSG1, nMaxPSG1, nMaxPSG1, nMaxPSG1, nMaxPSG1, nMaxPSG1, nMaxPSG1, nMaxPSG1, nMaxPSG1, nMaxPSG1, nMaxPSG1, nMaxPSG1
	.byte	nMaxPSG1, nMaxPSG1, nMaxPSG1, nMaxPSG1, nMaxPSG1, nMaxPSG1, nMaxPSG1, nMaxPSG1, nMaxPSG1, nMaxPSG1, nMaxPSG1, nMaxPSG1
	.byte	0x04, nMaxPSG1, nMaxPSG1, nMaxPSG1, 0x06, nMaxPSG1, nMaxPSG1, nMaxPSG1, nMaxPSG1, nMaxPSG1, nMaxPSG1, nMaxPSG1
	.byte	nMaxPSG1, nMaxPSG1, nMaxPSG1, nMaxPSG1, nMaxPSG1, nMaxPSG1, nMaxPSG1, nMaxPSG1, nMaxPSG1, nMaxPSG1, nMaxPSG1, nMaxPSG1
	.byte	nMaxPSG1, nMaxPSG1, nMaxPSG1, nMaxPSG1, nMaxPSG1, nMaxPSG1, nMaxPSG1, nMaxPSG1, nMaxPSG1, nMaxPSG1, nMaxPSG1, 0x04
	.byte	nMaxPSG1, nMaxPSG1, nMaxPSG1, 0x06, nMaxPSG1, nMaxPSG1, nMaxPSG1, nMaxPSG1, nMaxPSG1, nMaxPSG1, nMaxPSG1, nMaxPSG1
	.byte	nMaxPSG1, nMaxPSG1, nMaxPSG1, nMaxPSG1, nMaxPSG1, nMaxPSG1, nMaxPSG1, nMaxPSG1, nMaxPSG1, nMaxPSG1, nMaxPSG1, nMaxPSG1
	.byte	nMaxPSG1, nMaxPSG1, nMaxPSG1, nMaxPSG1, nMaxPSG1, nMaxPSG1, nMaxPSG1, nMaxPSG1, nMaxPSG1, nMaxPSG1, 0x04, nMaxPSG1
	.byte	nMaxPSG1, nMaxPSG1, 0x06, nMaxPSG1, nMaxPSG1, nMaxPSG1, nMaxPSG1, nMaxPSG1, nMaxPSG1, nMaxPSG1, nMaxPSG1, nMaxPSG1
	.byte	nMaxPSG1, nMaxPSG1, nMaxPSG1, nMaxPSG1, nMaxPSG1, nMaxPSG1, nMaxPSG1, nMaxPSG1, nMaxPSG1, nMaxPSG1, nMaxPSG1, nMaxPSG1
	.byte	nMaxPSG1, nMaxPSG1, nMaxPSG1, nMaxPSG1, nMaxPSG1, nMaxPSG1, nMaxPSG1, nMaxPSG1, nMaxPSG1, 0x04, nMaxPSG1, nMaxPSG1
	.byte	nMaxPSG1, 0x06, nMaxPSG1, nMaxPSG1, nMaxPSG1, nMaxPSG1, nMaxPSG1, nMaxPSG1, nMaxPSG1, nMaxPSG1, nMaxPSG1, nMaxPSG1
	.byte	nMaxPSG1, nMaxPSG1, nMaxPSG1, nMaxPSG1, nMaxPSG1, nMaxPSG1, nMaxPSG1, nMaxPSG1, nMaxPSG1, nMaxPSG1, nMaxPSG1, nMaxPSG1
	.byte	nMaxPSG1, nMaxPSG1, nMaxPSG1, nMaxPSG1, nMaxPSG1, nMaxPSG1, nMaxPSG1, nMaxPSG1, nMaxPSG1, nMaxPSG1, nMaxPSG1, nMaxPSG1
	.byte	nMaxPSG1, nMaxPSG1, nMaxPSG1, nMaxPSG1, nMaxPSG1, nMaxPSG1, nMaxPSG1, nMaxPSG1, nMaxPSG1, nMaxPSG1, nMaxPSG1, nMaxPSG1
	.byte	nMaxPSG1, nMaxPSG1, nMaxPSG1, nMaxPSG1, nMaxPSG1, nMaxPSG1, nMaxPSG1, nMaxPSG1, nMaxPSG1, nMaxPSG1, nMaxPSG1, nMaxPSG1
	.byte	nMaxPSG1, nMaxPSG1, nMaxPSG1, nMaxPSG1, nMaxPSG1, nMaxPSG1, nMaxPSG1, nMaxPSG1, nMaxPSG1, nMaxPSG1, nMaxPSG1, nMaxPSG1
	.byte	nMaxPSG1, nMaxPSG1, nMaxPSG1, nMaxPSG1, nMaxPSG1, nMaxPSG1, nMaxPSG1, nMaxPSG1, nMaxPSG1, nMaxPSG1, nMaxPSG1, nMaxPSG1
	.byte	nMaxPSG1, nMaxPSG1, nMaxPSG1, nMaxPSG1, nMaxPSG1, nMaxPSG1, nMaxPSG1, nMaxPSG1, nMaxPSG1, nMaxPSG1, nMaxPSG1, nMaxPSG1
	.byte	nMaxPSG1, nMaxPSG1, nMaxPSG1, nMaxPSG1, nMaxPSG1, nMaxPSG1, nMaxPSG1, nMaxPSG1, nMaxPSG1, nMaxPSG1, nMaxPSG1, nMaxPSG1
	.byte	nMaxPSG1, nMaxPSG1, nMaxPSG1, nMaxPSG1, nMaxPSG1, nMaxPSG1, nMaxPSG1, nMaxPSG1, nMaxPSG1, nMaxPSG1, nMaxPSG1, nMaxPSG1
	.byte	nMaxPSG1, nMaxPSG1, nMaxPSG1, nMaxPSG1, nMaxPSG1, nMaxPSG1, nMaxPSG1, nMaxPSG1, nMaxPSG1, nMaxPSG1, nMaxPSG1, nMaxPSG1
	.byte	nMaxPSG1, nMaxPSG1, nMaxPSG1, nRst, 0x60
	smpsJump            Snd_Comp_Jump05

Snd_Comp_Voices:
/* 	Voice 0x00 */
/* 	0x3C */
/* 	0x01, 0x00, 0x00, 0x00, 	0x1F, 0x1F, 0x15, 0x1F, 	0x11, 0x0D, 0x12, 0x05 */
/* 	0x07, 0x04, 0x09, 0x02, 	0x55, 0x3A, 0x25, 0x1A, 	0x1A, 0x80, 0x07, 0x80 */
	smpsVcAlgorithm     0x04
	smpsVcFeedback      0x07
	smpsVcUnusedBits    0x00
	smpsVcDetune        0x00, 0x00, 0x00, 0x00
	smpsVcCoarseFreq    0x00, 0x00, 0x00, 0x01
	smpsVcRateScale     0x00, 0x00, 0x00, 0x00
	smpsVcAttackRate    0x1F, 0x15, 0x1F, 0x1F
	smpsVcAmpMod        0x00, 0x00, 0x00, 0x00
	smpsVcDecayRate1    0x05, 0x12, 0x0D, 0x11
	smpsVcDecayRate2    0x02, 0x09, 0x04, 0x07
	smpsVcDecayLevel    0x01, 0x02, 0x03, 0x05
	smpsVcReleaseRate   0x0A, 0x05, 0x0A, 0x05
	smpsVcTotalLevel    0x80, 0x07, 0x80, 0x1A

/* 	Voice 0x01 */
/* 	0x3D */
/* 	0x01, 0x01, 0x01, 0x01, 	0x94, 0x19, 0x19, 0x19, 	0x0F, 0x0D, 0x0D, 0x0D */
/* 	0x07, 0x04, 0x04, 0x04, 	0x25, 0x1A, 0x1A, 0x1A, 	0x15, 0x80, 0x80, 0x80 */
	smpsVcAlgorithm     0x05
	smpsVcFeedback      0x07
	smpsVcUnusedBits    0x00
	smpsVcDetune        0x00, 0x00, 0x00, 0x00
	smpsVcCoarseFreq    0x01, 0x01, 0x01, 0x01
	smpsVcRateScale     0x00, 0x00, 0x00, 0x02
	smpsVcAttackRate    0x19, 0x19, 0x19, 0x14
	smpsVcAmpMod        0x00, 0x00, 0x00, 0x00
	smpsVcDecayRate1    0x0D, 0x0D, 0x0D, 0x0F
	smpsVcDecayRate2    0x04, 0x04, 0x04, 0x07
	smpsVcDecayLevel    0x01, 0x01, 0x01, 0x02
	smpsVcReleaseRate   0x0A, 0x0A, 0x0A, 0x05
	smpsVcTotalLevel    0x80, 0x80, 0x80, 0x15

/* 	Voice 0x02 */
/* 	0x03 */
/* 	0x00, 0xD7, 0x33, 0x02, 	0x5F, 0x9F, 0x5F, 0x1F, 	0x13, 0x0F, 0x0A, 0x0A */
/* 	0x10, 0x0F, 0x02, 0x09, 	0x35, 0x15, 0x25, 0x1A, 	0x13, 0x16, 0x15, 0x80 */
	smpsVcAlgorithm     0x03
	smpsVcFeedback      0x00
	smpsVcUnusedBits    0x00
	smpsVcDetune        0x00, 0x03, 0x0D, 0x00
	smpsVcCoarseFreq    0x02, 0x03, 0x07, 0x00
	smpsVcRateScale     0x00, 0x01, 0x02, 0x01
	smpsVcAttackRate    0x1F, 0x1F, 0x1F, 0x1F
	smpsVcAmpMod        0x00, 0x00, 0x00, 0x00
	smpsVcDecayRate1    0x0A, 0x0A, 0x0F, 0x13
	smpsVcDecayRate2    0x09, 0x02, 0x0F, 0x10
	smpsVcDecayLevel    0x01, 0x02, 0x01, 0x03
	smpsVcReleaseRate   0x0A, 0x05, 0x05, 0x05
	smpsVcTotalLevel    0x80, 0x15, 0x16, 0x13

/* 	Voice 0x03 */
/* 	0x34 */
/* 	0x70, 0x72, 0x31, 0x31, 	0x1F, 0x1F, 0x1F, 0x1F, 	0x10, 0x06, 0x06, 0x06 */
/* 	0x01, 0x06, 0x06, 0x06, 	0x35, 0x1A, 0x15, 0x1A, 	0x10, 0x80, 0x18, 0x80 */
	smpsVcAlgorithm     0x04
	smpsVcFeedback      0x06
	smpsVcUnusedBits    0x00
	smpsVcDetune        0x03, 0x03, 0x07, 0x07
	smpsVcCoarseFreq    0x01, 0x01, 0x02, 0x00
	smpsVcRateScale     0x00, 0x00, 0x00, 0x00
	smpsVcAttackRate    0x1F, 0x1F, 0x1F, 0x1F
	smpsVcAmpMod        0x00, 0x00, 0x00, 0x00
	smpsVcDecayRate1    0x06, 0x06, 0x06, 0x10
	smpsVcDecayRate2    0x06, 0x06, 0x06, 0x01
	smpsVcDecayLevel    0x01, 0x01, 0x01, 0x03
	smpsVcReleaseRate   0x0A, 0x05, 0x0A, 0x05
	smpsVcTotalLevel    0x80, 0x18, 0x80, 0x10

/* 	Voice 0x04 */
/* 	0x3E */
/* 	0x77, 0x71, 0x32, 0x31, 	0x1F, 0x1F, 0x1F, 0x1F, 	0x0D, 0x06, 0x00, 0x00 */
/* 	0x08, 0x06, 0x00, 0x00, 	0x15, 0x0A, 0x0A, 0x0A, 	0x1B, 0x80, 0x80, 0x80 */
	smpsVcAlgorithm     0x06
	smpsVcFeedback      0x07
	smpsVcUnusedBits    0x00
	smpsVcDetune        0x03, 0x03, 0x07, 0x07
	smpsVcCoarseFreq    0x01, 0x02, 0x01, 0x07
	smpsVcRateScale     0x00, 0x00, 0x00, 0x00
	smpsVcAttackRate    0x1F, 0x1F, 0x1F, 0x1F
	smpsVcAmpMod        0x00, 0x00, 0x00, 0x00
	smpsVcDecayRate1    0x00, 0x00, 0x06, 0x0D
	smpsVcDecayRate2    0x00, 0x00, 0x06, 0x08
	smpsVcDecayLevel    0x00, 0x00, 0x00, 0x01
	smpsVcReleaseRate   0x0A, 0x0A, 0x0A, 0x05
	smpsVcTotalLevel    0x80, 0x80, 0x80, 0x1B

/* 	Voice 0x05 */
/* 	0x20 */
/* 	0x36, 0x35, 0x30, 0x31, 	0xDF, 0xDF, 0x9F, 0x9F, 	0x07, 0x06, 0x09, 0x06 */
/* 	0x07, 0x06, 0x06, 0x08, 	0x20, 0x10, 0x10, 0xF8, 	0x19, 0x37, 0x13, 0x80 */
	smpsVcAlgorithm     0x00
	smpsVcFeedback      0x04
	smpsVcUnusedBits    0x00
	smpsVcDetune        0x03, 0x03, 0x03, 0x03
	smpsVcCoarseFreq    0x01, 0x00, 0x05, 0x06
	smpsVcRateScale     0x02, 0x02, 0x03, 0x03
	smpsVcAttackRate    0x1F, 0x1F, 0x1F, 0x1F
	smpsVcAmpMod        0x00, 0x00, 0x00, 0x00
	smpsVcDecayRate1    0x06, 0x09, 0x06, 0x07
	smpsVcDecayRate2    0x08, 0x06, 0x06, 0x07
	smpsVcDecayLevel    0x0F, 0x01, 0x01, 0x02
	smpsVcReleaseRate   0x08, 0x00, 0x00, 0x00
	smpsVcTotalLevel    0x80, 0x13, 0x37, 0x19

/* 	Voice 0x06 */
/* 	0x3A */
/* 	0x01, 0x07, 0x01, 0x01, 	0x8E, 0x8E, 0x8D, 0x53, 	0x0E, 0x0E, 0x0E, 0x03 */
/* 	0x00, 0x00, 0x00, 0x07, 	0x1F, 0xFF, 0x1F, 0x0F, 	0x18, 0x28, 0x27, 0x80 */
	smpsVcAlgorithm     0x02
	smpsVcFeedback      0x07
	smpsVcUnusedBits    0x00
	smpsVcDetune        0x00, 0x00, 0x00, 0x00
	smpsVcCoarseFreq    0x01, 0x01, 0x07, 0x01
	smpsVcRateScale     0x01, 0x02, 0x02, 0x02
	smpsVcAttackRate    0x13, 0x0D, 0x0E, 0x0E
	smpsVcAmpMod        0x00, 0x00, 0x00, 0x00
	smpsVcDecayRate1    0x03, 0x0E, 0x0E, 0x0E
	smpsVcDecayRate2    0x07, 0x00, 0x00, 0x00
	smpsVcDecayLevel    0x00, 0x01, 0x0F, 0x01
	smpsVcReleaseRate   0x0F, 0x0F, 0x0F, 0x0F
	smpsVcTotalLevel    0x80, 0x27, 0x28, 0x18

/* 	Voice 0x07 */
/* 	0x03 */
/* 	0x00, 0xD7, 0x33, 0x02, 	0x5F, 0x9F, 0x5F, 0x1F, 	0x13, 0x0F, 0x0A, 0x0A */
/* 	0x10, 0x0F, 0x02, 0x09, 	0x35, 0x15, 0x25, 0x1A, 	0x13, 0x16, 0x15, 0x80 */
	smpsVcAlgorithm     0x03
	smpsVcFeedback      0x00
	smpsVcUnusedBits    0x00
	smpsVcDetune        0x00, 0x03, 0x0D, 0x00
	smpsVcCoarseFreq    0x02, 0x03, 0x07, 0x00
	smpsVcRateScale     0x00, 0x01, 0x02, 0x01
	smpsVcAttackRate    0x1F, 0x1F, 0x1F, 0x1F
	smpsVcAmpMod        0x00, 0x00, 0x00, 0x00
	smpsVcDecayRate1    0x0A, 0x0A, 0x0F, 0x13
	smpsVcDecayRate2    0x09, 0x02, 0x0F, 0x10
	smpsVcDecayLevel    0x01, 0x02, 0x01, 0x03
	smpsVcReleaseRate   0x0A, 0x05, 0x05, 0x05
	smpsVcTotalLevel    0x80, 0x15, 0x16, 0x13

/* 	Voice 0x08 */
/* 	0x3C */
/* 	0x71, 0x72, 0x3F, 0x34, 	0x8D, 0x52, 0x9F, 0x1F, 	0x09, 0x00, 0x00, 0x0D */
/* 	0x00, 0x00, 0x00, 0x00, 	0x23, 0x08, 0x02, 0xF7, 	0x15, 0x80, 0x1D, 0x87 */
	smpsVcAlgorithm     0x04
	smpsVcFeedback      0x07
	smpsVcUnusedBits    0x00
	smpsVcDetune        0x03, 0x03, 0x07, 0x07
	smpsVcCoarseFreq    0x04, 0x0F, 0x02, 0x01
	smpsVcRateScale     0x00, 0x02, 0x01, 0x02
	smpsVcAttackRate    0x1F, 0x1F, 0x12, 0x0D
	smpsVcAmpMod        0x00, 0x00, 0x00, 0x00
	smpsVcDecayRate1    0x0D, 0x00, 0x00, 0x09
	smpsVcDecayRate2    0x00, 0x00, 0x00, 0x00
	smpsVcDecayLevel    0x0F, 0x00, 0x00, 0x02
	smpsVcReleaseRate   0x07, 0x02, 0x08, 0x03
	smpsVcTotalLevel    0x87, 0x1D, 0x80, 0x15

/* 	Voice 0x09 */
/* 	0x3D */
/* 	0x01, 0x01, 0x00, 0x00, 	0x8E, 0x52, 0x14, 0x4C, 	0x08, 0x08, 0x0E, 0x03 */
/* 	0x00, 0x00, 0x00, 0x00, 	0x1F, 0x1F, 0x1F, 0x1F, 	0x1B, 0x80, 0x80, 0x9B */
	smpsVcAlgorithm     0x05
	smpsVcFeedback      0x07
	smpsVcUnusedBits    0x00
	smpsVcDetune        0x00, 0x00, 0x00, 0x00
	smpsVcCoarseFreq    0x00, 0x00, 0x01, 0x01
	smpsVcRateScale     0x01, 0x00, 0x01, 0x02
	smpsVcAttackRate    0x0C, 0x14, 0x12, 0x0E
	smpsVcAmpMod        0x00, 0x00, 0x00, 0x00
	smpsVcDecayRate1    0x03, 0x0E, 0x08, 0x08
	smpsVcDecayRate2    0x00, 0x00, 0x00, 0x00
	smpsVcDecayLevel    0x01, 0x01, 0x01, 0x01
	smpsVcReleaseRate   0x0F, 0x0F, 0x0F, 0x0F
	smpsVcTotalLevel    0x9B, 0x80, 0x80, 0x1B

/* 	Voice 0x0A */
/* 	0x3A */
/* 	0x01, 0x01, 0x01, 0x02, 	0x8D, 0x07, 0x07, 0x52, 	0x09, 0x00, 0x00, 0x03 */
/* 	0x01, 0x02, 0x02, 0x00, 	0x52, 0x02, 0x02, 0x28, 	0x18, 0x22, 0x18, 0x80 */
	smpsVcAlgorithm     0x02
	smpsVcFeedback      0x07
	smpsVcUnusedBits    0x00
	smpsVcDetune        0x00, 0x00, 0x00, 0x00
	smpsVcCoarseFreq    0x02, 0x01, 0x01, 0x01
	smpsVcRateScale     0x01, 0x00, 0x00, 0x02
	smpsVcAttackRate    0x12, 0x07, 0x07, 0x0D
	smpsVcAmpMod        0x00, 0x00, 0x00, 0x00
	smpsVcDecayRate1    0x03, 0x00, 0x00, 0x09
	smpsVcDecayRate2    0x00, 0x02, 0x02, 0x01
	smpsVcDecayLevel    0x02, 0x00, 0x00, 0x05
	smpsVcReleaseRate   0x08, 0x02, 0x02, 0x02
	smpsVcTotalLevel    0x80, 0x18, 0x22, 0x18

/* 	Voice 0x0B */
/* 	0x3C */
/* 	0x36, 0x31, 0x76, 0x71, 	0x94, 0x9F, 0x96, 0x9F, 	0x12, 0x00, 0x14, 0x0F */
/* 	0x04, 0x0A, 0x04, 0x0D, 	0x2F, 0x0F, 0x4F, 0x2F, 	0x33, 0x80, 0x1A, 0x80 */
	smpsVcAlgorithm     0x04
	smpsVcFeedback      0x07
	smpsVcUnusedBits    0x00
	smpsVcDetune        0x07, 0x07, 0x03, 0x03
	smpsVcCoarseFreq    0x01, 0x06, 0x01, 0x06
	smpsVcRateScale     0x02, 0x02, 0x02, 0x02
	smpsVcAttackRate    0x1F, 0x16, 0x1F, 0x14
	smpsVcAmpMod        0x00, 0x00, 0x00, 0x00
	smpsVcDecayRate1    0x0F, 0x14, 0x00, 0x12
	smpsVcDecayRate2    0x0D, 0x04, 0x0A, 0x04
	smpsVcDecayLevel    0x02, 0x04, 0x00, 0x02
	smpsVcReleaseRate   0x0F, 0x0F, 0x0F, 0x0F
	smpsVcTotalLevel    0x80, 0x1A, 0x80, 0x33

/* 	Voice 0x0C */
/* 	0x1C */
/* 	0x7C, 0x37, 0x3E, 0x37, 	0x94, 0x99, 0x94, 0x99, 	0x08, 0x0A, 0x08, 0x0A */
/* 	0x00, 0x05, 0x00, 0x05, 	0x3F, 0x4F, 0x3F, 0x4F, 	0x2B, 0x80, 0x1B, 0x80 */
	smpsVcAlgorithm     0x04
	smpsVcFeedback      0x03
	smpsVcUnusedBits    0x00
	smpsVcDetune        0x03, 0x03, 0x03, 0x07
	smpsVcCoarseFreq    0x07, 0x0E, 0x07, 0x0C
	smpsVcRateScale     0x02, 0x02, 0x02, 0x02
	smpsVcAttackRate    0x19, 0x14, 0x19, 0x14
	smpsVcAmpMod        0x00, 0x00, 0x00, 0x00
	smpsVcDecayRate1    0x0A, 0x08, 0x0A, 0x08
	smpsVcDecayRate2    0x05, 0x00, 0x05, 0x00
	smpsVcDecayLevel    0x04, 0x03, 0x04, 0x03
	smpsVcReleaseRate   0x0F, 0x0F, 0x0F, 0x0F
	smpsVcTotalLevel    0x80, 0x1B, 0x80, 0x2B

/* 	Voice 0x0D */
/* 	0x3A */
/* 	0x01, 0x07, 0x01, 0x01, 	0x8E, 0x8E, 0x8D, 0x53, 	0x0E, 0x0E, 0x0E, 0x03 */
/* 	0x00, 0x00, 0x00, 0x07, 	0x1F, 0xFF, 0x1F, 0x0F, 	0x18, 0x28, 0x27, 0x80 */
	smpsVcAlgorithm     0x02
	smpsVcFeedback      0x07
	smpsVcUnusedBits    0x00
	smpsVcDetune        0x00, 0x00, 0x00, 0x00
	smpsVcCoarseFreq    0x01, 0x01, 0x07, 0x01
	smpsVcRateScale     0x01, 0x02, 0x02, 0x02
	smpsVcAttackRate    0x13, 0x0D, 0x0E, 0x0E
	smpsVcAmpMod        0x00, 0x00, 0x00, 0x00
	smpsVcDecayRate1    0x03, 0x0E, 0x0E, 0x0E
	smpsVcDecayRate2    0x07, 0x00, 0x00, 0x00
	smpsVcDecayLevel    0x00, 0x01, 0x0F, 0x01
	smpsVcReleaseRate   0x0F, 0x0F, 0x0F, 0x0F
	smpsVcTotalLevel    0x80, 0x27, 0x28, 0x18

/* 	Voice 0x0E */
/* 	0x3A */
/* 	0x31, 0x25, 0x73, 0x41, 	0x5F, 0x1F, 0x1F, 0x9C, 	0x08, 0x05, 0x04, 0x1E */
/* 	0x03, 0x04, 0x02, 0x06, 	0x2F, 0x2F, 0x1F, 0x0F, 	0x29, 0x27, 0x1F, 0x80 */
	smpsVcAlgorithm     0x02
	smpsVcFeedback      0x07
	smpsVcUnusedBits    0x00
	smpsVcDetune        0x04, 0x07, 0x02, 0x03
	smpsVcCoarseFreq    0x01, 0x03, 0x05, 0x01
	smpsVcRateScale     0x02, 0x00, 0x00, 0x01
	smpsVcAttackRate    0x1C, 0x1F, 0x1F, 0x1F
	smpsVcAmpMod        0x00, 0x00, 0x00, 0x00
	smpsVcDecayRate1    0x1E, 0x04, 0x05, 0x08
	smpsVcDecayRate2    0x06, 0x02, 0x04, 0x03
	smpsVcDecayLevel    0x00, 0x01, 0x02, 0x02
	smpsVcReleaseRate   0x0F, 0x0F, 0x0F, 0x0F
	smpsVcTotalLevel    0x80, 0x1F, 0x27, 0x29

/* 	Voice 0x0F */
/* 	0x14 */
/* 	0x71, 0x72, 0x31, 0x31, 	0x0F, 0x0F, 0x0F, 0x0F, 	0x00, 0x0F, 0x00, 0x00 */
/* 	0x00, 0x00, 0x00, 0x00, 	0x0F, 0xAF, 0x0F, 0x0F, 	0x32, 0x80, 0x28, 0x80 */
	smpsVcAlgorithm     0x04
	smpsVcFeedback      0x02
	smpsVcUnusedBits    0x00
	smpsVcDetune        0x03, 0x03, 0x07, 0x07
	smpsVcCoarseFreq    0x01, 0x01, 0x02, 0x01
	smpsVcRateScale     0x00, 0x00, 0x00, 0x00
	smpsVcAttackRate    0x0F, 0x0F, 0x0F, 0x0F
	smpsVcAmpMod        0x00, 0x00, 0x00, 0x00
	smpsVcDecayRate1    0x00, 0x00, 0x0F, 0x00
	smpsVcDecayRate2    0x00, 0x00, 0x00, 0x00
	smpsVcDecayLevel    0x00, 0x00, 0x0A, 0x00
	smpsVcReleaseRate   0x0F, 0x0F, 0x0F, 0x0F
	smpsVcTotalLevel    0x80, 0x28, 0x80, 0x32

/* 	Voice 0x10 */
/* 	0x14 */
/* 	0x75, 0x72, 0x35, 0x32, 	0x9F, 0x9F, 0x9F, 0x9F, 	0x05, 0x05, 0x00, 0x0A */
/* 	0x05, 0x05, 0x07, 0x05, 	0x2F, 0xFF, 0x0F, 0x2F, 	0x1E, 0x80, 0x14, 0x80 */
	smpsVcAlgorithm     0x04
	smpsVcFeedback      0x02
	smpsVcUnusedBits    0x00
	smpsVcDetune        0x03, 0x03, 0x07, 0x07
	smpsVcCoarseFreq    0x02, 0x05, 0x02, 0x05
	smpsVcRateScale     0x02, 0x02, 0x02, 0x02
	smpsVcAttackRate    0x1F, 0x1F, 0x1F, 0x1F
	smpsVcAmpMod        0x00, 0x00, 0x00, 0x00
	smpsVcDecayRate1    0x0A, 0x00, 0x05, 0x05
	smpsVcDecayRate2    0x05, 0x07, 0x05, 0x05
	smpsVcDecayLevel    0x02, 0x00, 0x0F, 0x02
	smpsVcReleaseRate   0x0F, 0x0F, 0x0F, 0x0F
	smpsVcTotalLevel    0x80, 0x14, 0x80, 0x1E

/* 	Voice 0x11 */
/* 	0x3D */
/* 	0x01, 0x00, 0x01, 0x02, 	0x12, 0x1F, 0x1F, 0x14, 	0x07, 0x02, 0x02, 0x0A */
/* 	0x05, 0x05, 0x05, 0x05, 	0x2F, 0x2F, 0x2F, 0xAF, 	0x1C, 0x80, 0x82, 0x80 */
	smpsVcAlgorithm     0x05
	smpsVcFeedback      0x07
	smpsVcUnusedBits    0x00
	smpsVcDetune        0x00, 0x00, 0x00, 0x00
	smpsVcCoarseFreq    0x02, 0x01, 0x00, 0x01
	smpsVcRateScale     0x00, 0x00, 0x00, 0x00
	smpsVcAttackRate    0x14, 0x1F, 0x1F, 0x12
	smpsVcAmpMod        0x00, 0x00, 0x00, 0x00
	smpsVcDecayRate1    0x0A, 0x02, 0x02, 0x07
	smpsVcDecayRate2    0x05, 0x05, 0x05, 0x05
	smpsVcDecayLevel    0x0A, 0x02, 0x02, 0x02
	smpsVcReleaseRate   0x0F, 0x0F, 0x0F, 0x0F
	smpsVcTotalLevel    0x80, 0x82, 0x80, 0x1C

/* 	Voice 0x12 */
/* 	0x1C */
/* 	0x73, 0x72, 0x33, 0x32, 	0x94, 0x99, 0x94, 0x99, 	0x08, 0x0A, 0x08, 0x0A */
/* 	0x00, 0x05, 0x00, 0x05, 	0x3F, 0x4F, 0x3F, 0x4F, 	0x1E, 0x80, 0x19, 0x80 */
	smpsVcAlgorithm     0x04
	smpsVcFeedback      0x03
	smpsVcUnusedBits    0x00
	smpsVcDetune        0x03, 0x03, 0x07, 0x07
	smpsVcCoarseFreq    0x02, 0x03, 0x02, 0x03
	smpsVcRateScale     0x02, 0x02, 0x02, 0x02
	smpsVcAttackRate    0x19, 0x14, 0x19, 0x14
	smpsVcAmpMod        0x00, 0x00, 0x00, 0x00
	smpsVcDecayRate1    0x0A, 0x08, 0x0A, 0x08
	smpsVcDecayRate2    0x05, 0x00, 0x05, 0x00
	smpsVcDecayLevel    0x04, 0x03, 0x04, 0x03
	smpsVcReleaseRate   0x0F, 0x0F, 0x0F, 0x0F
	smpsVcTotalLevel    0x80, 0x19, 0x80, 0x1E

/* 	Voice 0x13 */
/* 	0x31 */
/* 	0x33, 0x01, 0x00, 0x00, 	0x9F, 0x1F, 0x1F, 0x1F, 	0x0D, 0x0A, 0x0A, 0x0A */
/* 	0x0A, 0x07, 0x07, 0x07, 	0xFF, 0xAF, 0xAF, 0xAF, 	0x1E, 0x1E, 0x1E, 0x80 */
	smpsVcAlgorithm     0x01
	smpsVcFeedback      0x06
	smpsVcUnusedBits    0x00
	smpsVcDetune        0x00, 0x00, 0x00, 0x03
	smpsVcCoarseFreq    0x00, 0x00, 0x01, 0x03
	smpsVcRateScale     0x00, 0x00, 0x00, 0x02
	smpsVcAttackRate    0x1F, 0x1F, 0x1F, 0x1F
	smpsVcAmpMod        0x00, 0x00, 0x00, 0x00
	smpsVcDecayRate1    0x0A, 0x0A, 0x0A, 0x0D
	smpsVcDecayRate2    0x07, 0x07, 0x07, 0x0A
	smpsVcDecayLevel    0x0A, 0x0A, 0x0A, 0x0F
	smpsVcReleaseRate   0x0F, 0x0F, 0x0F, 0x0F
	smpsVcTotalLevel    0x80, 0x1E, 0x1E, 0x1E

/* 	Voice 0x14 */
/* 	0x3A */
/* 	0x70, 0x76, 0x30, 0x71, 	0x1F, 0x95, 0x1F, 0x1F, 	0x0E, 0x0F, 0x05, 0x0C */
/* 	0x07, 0x06, 0x06, 0x07, 	0x2F, 0x4F, 0x1F, 0x5F, 	0x21, 0x12, 0x28, 0x80 */
	smpsVcAlgorithm     0x02
	smpsVcFeedback      0x07
	smpsVcUnusedBits    0x00
	smpsVcDetune        0x07, 0x03, 0x07, 0x07
	smpsVcCoarseFreq    0x01, 0x00, 0x06, 0x00
	smpsVcRateScale     0x00, 0x00, 0x02, 0x00
	smpsVcAttackRate    0x1F, 0x1F, 0x15, 0x1F
	smpsVcAmpMod        0x00, 0x00, 0x00, 0x00
	smpsVcDecayRate1    0x0C, 0x05, 0x0F, 0x0E
	smpsVcDecayRate2    0x07, 0x06, 0x06, 0x07
	smpsVcDecayLevel    0x05, 0x01, 0x04, 0x02
	smpsVcReleaseRate   0x0F, 0x0F, 0x0F, 0x0F
	smpsVcTotalLevel    0x80, 0x28, 0x12, 0x21

/* 	Voice 0x15 */
/* 	0x28 */
/* 	0x71, 0x00, 0x30, 0x01, 	0x1F, 0x1F, 0x1D, 0x1F, 	0x06, 0x06, 0x06, 0x05 */
/* 	0x05, 0x05, 0x02, 0x05, 	0x4F, 0x4F, 0x2F, 0x3F, 	0x1E, 0x28, 0x1E, 0x80 */
	smpsVcAlgorithm     0x00
	smpsVcFeedback      0x05
	smpsVcUnusedBits    0x00
	smpsVcDetune        0x00, 0x03, 0x00, 0x07
	smpsVcCoarseFreq    0x01, 0x00, 0x00, 0x01
	smpsVcRateScale     0x00, 0x00, 0x00, 0x00
	smpsVcAttackRate    0x1F, 0x1D, 0x1F, 0x1F
	smpsVcAmpMod        0x00, 0x00, 0x00, 0x00
	smpsVcDecayRate1    0x05, 0x06, 0x06, 0x06
	smpsVcDecayRate2    0x05, 0x02, 0x05, 0x05
	smpsVcDecayLevel    0x03, 0x02, 0x04, 0x04
	smpsVcReleaseRate   0x0F, 0x0F, 0x0F, 0x0F
	smpsVcTotalLevel    0x80, 0x1E, 0x28, 0x1E

/* 	Voice 0x16 */
/* 	0x3E */
/* 	0x38, 0x01, 0x7A, 0x34, 	0x59, 0xD9, 0x5F, 0x9C, 	0x0F, 0x04, 0x0F, 0x0A */
/* 	0x02, 0x02, 0x05, 0x05, 	0xAF, 0xAF, 0x66, 0x66, 	0x28, 0x80, 0xA3, 0x80 */
	smpsVcAlgorithm     0x06
	smpsVcFeedback      0x07
	smpsVcUnusedBits    0x00
	smpsVcDetune        0x03, 0x07, 0x00, 0x03
	smpsVcCoarseFreq    0x04, 0x0A, 0x01, 0x08
	smpsVcRateScale     0x02, 0x01, 0x03, 0x01
	smpsVcAttackRate    0x1C, 0x1F, 0x19, 0x19
	smpsVcAmpMod        0x00, 0x00, 0x00, 0x00
	smpsVcDecayRate1    0x0A, 0x0F, 0x04, 0x0F
	smpsVcDecayRate2    0x05, 0x05, 0x02, 0x02
	smpsVcDecayLevel    0x06, 0x06, 0x0A, 0x0A
	smpsVcReleaseRate   0x06, 0x06, 0x0F, 0x0F
	smpsVcTotalLevel    0x80, 0xA3, 0x80, 0x28

/* 	Voice 0x17 */
/* 	0x39 */
/* 	0x32, 0x31, 0x72, 0x71, 	0x1F, 0x1F, 0x1F, 0x1F, 	0x00, 0x00, 0x00, 0x00 */
/* 	0x00, 0x00, 0x00, 0x00, 	0x0F, 0x0F, 0x0F, 0x0F, 	0x1B, 0x32, 0x28, 0x80 */
	smpsVcAlgorithm     0x01
	smpsVcFeedback      0x07
	smpsVcUnusedBits    0x00
	smpsVcDetune        0x07, 0x07, 0x03, 0x03
	smpsVcCoarseFreq    0x01, 0x02, 0x01, 0x02
	smpsVcRateScale     0x00, 0x00, 0x00, 0x00
	smpsVcAttackRate    0x1F, 0x1F, 0x1F, 0x1F
	smpsVcAmpMod        0x00, 0x00, 0x00, 0x00
	smpsVcDecayRate1    0x00, 0x00, 0x00, 0x00
	smpsVcDecayRate2    0x00, 0x00, 0x00, 0x00
	smpsVcDecayLevel    0x00, 0x00, 0x00, 0x00
	smpsVcReleaseRate   0x0F, 0x0F, 0x0F, 0x0F
	smpsVcTotalLevel    0x80, 0x28, 0x32, 0x1B

/* 	Voice 0x18 */
/* 	0x07 */
/* 	0x34, 0x74, 0x32, 0x71, 	0x1F, 0x1F, 0x1F, 0x1F, 	0x0A, 0x0A, 0x05, 0x03 */
/* 	0x00, 0x00, 0x00, 0x00, 	0x3F, 0x3F, 0x2F, 0x2F, 	0x8A, 0x8A, 0x80, 0x80 */
	smpsVcAlgorithm     0x07
	smpsVcFeedback      0x00
	smpsVcUnusedBits    0x00
	smpsVcDetune        0x07, 0x03, 0x07, 0x03
	smpsVcCoarseFreq    0x01, 0x02, 0x04, 0x04
	smpsVcRateScale     0x00, 0x00, 0x00, 0x00
	smpsVcAttackRate    0x1F, 0x1F, 0x1F, 0x1F
	smpsVcAmpMod        0x00, 0x00, 0x00, 0x00
	smpsVcDecayRate1    0x03, 0x05, 0x0A, 0x0A
	smpsVcDecayRate2    0x00, 0x00, 0x00, 0x00
	smpsVcDecayLevel    0x02, 0x02, 0x03, 0x03
	smpsVcReleaseRate   0x0F, 0x0F, 0x0F, 0x0F
	smpsVcTotalLevel    0x80, 0x80, 0x8A, 0x8A

/* 	Voice 0x19 */
/* 	0x3A */
/* 	0x31, 0x37, 0x31, 0x31, 	0x8D, 0x8D, 0x8E, 0x53, 	0x0E, 0x0E, 0x0E, 0x03 */
/* 	0x00, 0x00, 0x00, 0x00, 	0x1F, 0xFF, 0x1F, 0x0F, 	0x17, 0x28, 0x26, 0x80 */
	smpsVcAlgorithm     0x02
	smpsVcFeedback      0x07
	smpsVcUnusedBits    0x00
	smpsVcDetune        0x03, 0x03, 0x03, 0x03
	smpsVcCoarseFreq    0x01, 0x01, 0x07, 0x01
	smpsVcRateScale     0x01, 0x02, 0x02, 0x02
	smpsVcAttackRate    0x13, 0x0E, 0x0D, 0x0D
	smpsVcAmpMod        0x00, 0x00, 0x00, 0x00
	smpsVcDecayRate1    0x03, 0x0E, 0x0E, 0x0E
	smpsVcDecayRate2    0x00, 0x00, 0x00, 0x00
	smpsVcDecayLevel    0x00, 0x01, 0x0F, 0x01
	smpsVcReleaseRate   0x0F, 0x0F, 0x0F, 0x0F
	smpsVcTotalLevel    0x80, 0x26, 0x28, 0x17

