Snd_SKCredits_Header:
	smpsHeaderStartSong 3
	smpsHeaderVoice     Snd_SKCredits_Voices
	smpsHeaderChan      0x06, 0x03
	smpsHeaderTempo     0x01, 0x0F

	smpsHeaderDAC       Snd_SKCredits_DAC
	smpsHeaderFM        Snd_SKCredits_FM1,	0x00, 0x00
	smpsHeaderFM        Snd_SKCredits_FM2,	0x00, 0x00
	smpsHeaderFM        Snd_SKCredits_FM3,	0x00, 0x00
	smpsHeaderFM        Snd_SKCredits_FM4,	0x00, 0x00
	smpsHeaderFM        Snd_SKCredits_FM5,	0x00, 0x00
	smpsHeaderPSG       Snd_SKCredits_PSG1,	0x00, 0x00, 0x00, sTone_1B
	smpsHeaderPSG       Snd_SKCredits_PSG2,	0x00, 0x00, 0x00, sTone_1B
	smpsHeaderPSG       Snd_SKCredits_PSG3,	0x00, 0x00, 0x00, sTone_1B

/*  FM1 Data */
Snd_SKCredits_FM1:
	smpsSetNote         0x4C
	smpsSetVol          0x75
	.byte	nRst, 0x30
	smpsSetvoice        0x20
	.byte	nD2, 0x10, 0x07, nRst, 0x06, nRst, 0x05, nD2, 0x07, nRst, 0x06, nRst
	.byte	0x05, nD3, 0x06, nD2, nRst, 0x07, nD3, 0x06, nRst, nC2, 0x0C, smpsNoAttack
	.byte	0x0C, 0x0C, nRst, 0x06, nC3, nRst, 0x0C, 0x18, 0x18, nD2, 0x11, 0x07
	.byte	nRst, 0x06, nRst, 0x05, nD2, 0x07, nRst, 0x06, nRst, 0x05, nD3, 0x06
	.byte	nD2, nRst, 0x07, nD3, 0x06, nRst, nC2, 0x0C, smpsNoAttack, 0x06, nRst, nC3
	.byte	nRst, nC2, nC3, nC2, nRst, nC2, nRst, nG1, nRst, nB1, nRst, nBb1
	.byte	0x0C, smpsNoAttack, 0x0D, nBb1, 0x0C, nBb2, nBb1, nBb1, nBb2, nBb1, nAb1, smpsNoAttack
	.byte	nAb1, nAb1, nAb2, nAb1, nAb1, nAb2, nAb1, nC2, smpsNoAttack, nC2, nC2, nC3
	.byte	nC2, nC3, nC2, nC3, nC2, smpsNoAttack, 0x30, nRst, 0x30
	smpsSetNote         0x40
	smpsSetVol          0x72
	smpsSetvoice        0x00
	smpsModSet          0x0D, 0x01, 0x02, 0x06
	smpsPan             panCenter, 0x00
	.byte	nRst, 0x60, nRst, nRst
	smpsSetvoice        0x00
	.byte	nB5, 0x04, nBb5, nG5, nA5, nFs5, nAb5, nF5, nG5, nE5, nFs5, nEb5
	.byte	nF5, nD5, nE5, nCs5, nEb5, nC5, nD5, nB4, nCs5, nBb4, nC5, nA4
	.byte	nB4

Snd_SKCredits_Loop1B:
	smpsSetvoice        0x02
	.byte	nB4, 0x01, nC5, 0x3B, nD5, 0x06, nRst, nF5, nRst, nG5, nRst, nE5
	.byte	0x01, nF5, 0x06, nRst, 0x05, nCs5, 0x06, nRst, nC5, nBb4, nRst, nG4
	.byte	0x36, nRst, 0x0C, nBb4, 0x18, nC5, 0x06, nBb4, 0x05, nC5, 0x01, nCs5
	.byte	0x06, nRst, nC5, nRst, nEb5, nD5, nRst, nBb4, nRst, 0x60
	smpsLoop            0x00, 0x02, Snd_SKCredits_Loop1B
	.byte	nRst, 0x0C, nBb4, 0x18, nC5, 0x06, nBb4, nCs5, nRst, nC5, nRst, nBb4
	.byte	nC5, nRst, nBb4, nRst, 0x60, nRst, 0x0C, nBb4, 0x18, nC5, 0x06, nBb4
	.byte	0x05, nCs5, 0x01, nD5, nEb5, 0x06, nRst, 0x05, nD5, 0x06, nRst, nC5
	.byte	nD5, nRst, nBb4, nRst, 0x60
	smpsSetvoice        0x07
	smpsSetNote         0x4C
	smpsSetVol          0x76
	.byte	nF1, 0x04, nRst, 0x02, nF1, 0x04, nRst, 0x02, nF1, 0x04, nRst, 0x02
	.byte	nF1, 0x06, nF1, 0x02, nRst, 0x46, nG1, 0x04, nRst, 0x02, nG1, 0x04
	.byte	nRst, 0x02, nG1, 0x04, nRst, 0x02, nG1, 0x04, nRst, 0x02, nG1, 0x04
	.byte	nRst, 0x14, nC2, 0x10, nRst, 0x08, nG1, 0x0E, nRst, 0x0A, nA1, 0x04
	.byte	nRst, 0x08, nG1, 0x02, nRst, 0x04, nA1, 0x08, nRst, 0x0A, nC2, 0x04
	.byte	nRst, 0x08, nB1, 0x02, nRst, 0x04, nC2, 0x08, nRst, 0x0A, nD2, 0x04
	.byte	nRst, 0x08, nC2, 0x02, nRst, 0x04, nD2, 0x08, nRst, 0x0A, nE2, 0x04
	.byte	nRst, 0x08, nD2, 0x02, nRst, 0x04, nE2, 0x08, nRst, 0x0A, nG2, 0x16
	.byte	nRst, 0x02, nG1, 0x16, nRst, 0x02, nA1, 0x02, nRst, 0x0A, nA1, 0x04
	.byte	nRst, 0x02, nA1, 0x08, nRst, 0x0A, nC2, 0x04, nRst, 0x08, nC2, 0x06
	.byte	nC2, 0x04, nRst, 0x0E, nD2, 0x04, nRst, 0x02, nC2, 0x06, nA1, 0x02
	.byte	nRst, 0x0A, nG1, 0x06, nRst, 0x0C, nG1, 0x06, nRst, 0x0C, nA1, 0x24
	.byte	nRst, 0x18, nA1, 0x04, nRst, 0x08, nA1, 0x04, nRst, 0x02, nA1, 0x06
	.byte	nRst, 0x0C, nC2, 0x06, nRst, 0x06, nC2, 0x04, nRst, 0x02, nC2, 0x04
	.byte	nRst, 0x0E, nD2, 0x02, nRst, 0x04, nC2, 0x06, nA1, 0x04, nRst, 0x08
	.byte	nG1, 0x06, nRst, 0x0C, nG1, 0x06, nRst, 0x0C, nA1, 0x36, nRst, 0x06
	.byte	nRst, 0x30
	smpsPan             panCenter, 0x00
	smpsSetNote         0x40
	smpsSetVol          0x78
	smpsModSet          0x0D, 0x01, 0x02, 0x06
	smpsCall            Snd_SKCredits_Call01
	smpsCall            Snd_SKCredits_Call01
	smpsCall            Snd_SKCredits_Call02
	.byte	nRst, 0x10
	smpsCall            Snd_SKCredits_Call02
	.byte	nRst, 0x10
	smpsSetNote         0x40
	smpsSetVol          0x74
	smpsSetvoice        0x18
	smpsCall            Snd_SKCredits_Call03
	.byte	nRst, 0x18
	smpsSetvoice        0x03
	smpsSetVol          0x70
	smpsSetvoice        0x1A
	smpsCall            Snd_SKCredits_Call04
	.byte	nRst, 0x10, nRst, 0x60
	smpsPan             panCenter, 0x00
	smpsSetNote         0x28
	smpsSetVol          0x72
	smpsSetvoice        0x0F
	smpsAlterNote       0xFE
	.byte	nG2, 0x07, nRst, 0x04, nG2, 0x08, nRst, 0x04, 0x24, nG3, nG2, nG2
	.byte	0x0C, nRst, nC3, 0x14, nB2, 0x10, nG2, 0x08, nRst, 0x04, nG2, 0x08
	.byte	nRst, 0x04, 0x24, nG3, nG2, nG2, 0x0C, nRst, 0x30

Snd_SKCredits_Loop1C:
	.byte	nC3, 0x60, nC4, 0x24, nC3, nC4, 0x18, nBb2, 0x06, nRst, 0x06, nBb2
	.byte	0x54, nBb3, 0x24, nBb2, nBb3, 0x18, nA2, 0x06, nRst, 0x06, nA2, 0x48
	.byte	nG3, 0x06, nAb3, nA3, 0x24, nA2, nA3, 0x18, nAb2, 0x06, nRst, 0x06
	.byte	nAb2, 0x54, nAb3, 0x24, nAb2, nBb3, 0x18
	smpsLoop            0x00, 0x02, Snd_SKCredits_Loop1C
	.byte	nC3, 0x60, smpsNoAttack, 0x60, smpsNoAttack, 0x61
	smpsSetVol          0x6D
	smpsSetNote         0x41
	smpsSetvoice        0x1E
	smpsPan             panCenter, 0x00
	smpsAlterNote       0xFE
	smpsModSet          0x14, 0x01, 0x06, 0x06
	.byte	nA4, 0x06, nCs5, nB4, nD5
	smpsFMAlterVol      0xFF
	.byte	nCs5, nE5, nD5, nFs5
	smpsFMAlterVol      0xFF
	.byte	nE5, nAb5, nFs5, nA5
	smpsFMAlterVol      0xFF
	.byte	nAb5, nB5, nA5, nCs6
	smpsSetvoice        0x1C
	.byte	nA4, 0x18, nFs4, 0x0C, nE4, nA4, nFs4, nD4, nE4, smpsNoAttack, nE4, 0x24
	.byte	nD5, 0x18
	smpsNoteFill        0x06
	.byte	0x0C, 0x0C, 0x0C
	smpsNoteFill        0x00
	.byte	nCs5, 0x18, nA4, 0x0C, nE4, nFs4, 0x04, nRst, 0x08, nA4, 0x18, nB4
	.byte	0x0C, smpsNoAttack, nB4, 0x30, nRst, nA4, 0x18, nFs4, 0x0C, nE4, nA4, nFs4
	.byte	nD4, nE4, smpsNoAttack, nE4, 0x24, nD5, 0x18
	smpsNoteFill        0x06
	.byte	0x0C, 0x0C, 0x0C
	smpsNoteFill        0x00
	smpsFMAlterVol      0xFD
	.byte	nD5, nCs5, 0x18, nA4, nB4, nRst, 0x0C, nE5, nD5, 0x18, nA4, nB4
	smpsFMAlterVol      0xFE
	.byte	nCs5, 0x0C
	smpsStop

Snd_SKCredits_Call02:
	smpsSetvoice        0x0B
	.byte	nE4, 0x48, nE4, 0x06, nA4, nRst, nE4, 0x42, nD4, 0x06, nRst, nC4
	.byte	nRst, nB3, nRst, nC4, 0x12, nA3, 0x06, nRst, 0x48, nRst, 0x50
	smpsReturn

Snd_SKCredits_Call04:
	.byte	nAb3, 0x06, nBb3, nC4, nEb4
	smpsLoop            0x00, 0x04, Snd_SKCredits_Call04

Snd_SKCredits_Loop2F:
	.byte	nBb3, 0x06, nC4, nD4, nF4
	smpsLoop            0x00, 0x04, Snd_SKCredits_Loop2F
	.byte	nRst, 0x60, nRst, 0x06, nBb4, 0x12, nA4, 0x06, nRst, nG4, nRst, nBb4
	.byte	nRst, nG4, nA4, nRst, nBb4, 0x12

Snd_SKCredits_Loop30:
	.byte	nAb3, 0x06, nBb3, nC4, nEb4
	smpsLoop            0x00, 0x04, Snd_SKCredits_Loop30

Snd_SKCredits_Loop31:
	.byte	nBb3, 0x06, nC4, nD4, nF4
	smpsLoop            0x00, 0x04, Snd_SKCredits_Loop31
	.byte	nRst, 0x60, nRst, 0x06, nBb4, 0x12, nA4, 0x06, nRst, nG4, nRst, nBb4
	.byte	nG4, nRst, nC5, nRst, 0x08
	smpsReturn

Snd_SKCredits_Call03:
	.byte	nRst, 0x0C, nD4, nD4, nC4, nC4, nB3, nB3, nA3, nAb3, 0x18, nA3
	.byte	0x08, nRst, 0x04, nB3, 0x08, nRst, 0x34, nRst, 0x0C, nAb4, 0x08, nRst
	.byte	0x04, nA4, 0x08, nRst, 0x04, nB4, 0x08, nRst, 0x04, nC5, 0x08, nRst
	.byte	0x04, nB4, 0x08, nRst, 0x04, nA4, 0x08, nRst, 0x04, nB4, 0x08, nRst
	.byte	0x04, nD5, 0x08, nRst, 0x04, nC5, 0x08, nRst, 0x04, nB4, 0x08, nRst
	.byte	0x04, nA4, 0x08, nRst, 0x04, nAb4, 0x08, nRst, 0x04, nF4, 0x08, nRst
	.byte	0x04, nE4, 0x08, nRst, 0x04, nD4, 0x08, nRst, 0x04, nE5, 0x08, nRst
	.byte	0x10, nD5, 0x08, nRst, 0x40, nC5, 0x08, nRst, 0x10, nB4, 0x08, nRst
	.byte	0x40, nE5, 0x08, nRst, 0x10, nD5, 0x08, nRst, 0x40, nAb5, 0x08, nRst
	.byte	0x10, nF5, 0x08, nRst, 0x10, nB5, 0x08, nRst, 0x04, nD6, 0x08, nRst
	.byte	0x04
	smpsReturn

Snd_SKCredits_Call01:
	smpsSetvoice        0x13
	.byte	nRst, 0x0C, nB4, 0x04, nRst, 0x08, nC5, 0x04, nRst, 0x08, nB4, 0x24
	.byte	nE5, 0x04, nRst, 0x14, nEb5, 0x02, nE5, 0x16, nC5, 0x04, nRst, 0x08
	.byte	nA4, 0x18, nE4, 0x60, nRst, 0x24
	smpsSetvoice        0x14
	.byte	nRst, 0x36, nD5, 0x06, nE5, nG5, nB4, nC5, nA4, 0x0C
	smpsReturn

/*  Unreachable */
	.byte	nEb4, 0x0C, nD4, 0x02, nC4, nBb3, nAb3, nG3, nF3, nC4, 0x0A, nRst
	.byte	0x02, nEb4, 0x04, nRst, 0x02, nE4, nF4, nRst, 0x08, nD4, 0x10, nRst
	.byte	0x02, nC4, 0x04, nRst, 0x08, nBb3, 0x04, nRst, 0x08, nFs3, 0x02, nG3
	.byte	0x14, nRst, 0x02, nFs3, nG3, 0x08, nRst, 0x02, nF3, 0x04, nRst, 0x02
	.byte	nFs3, nG3, 0x28, nC4, 0x04, nRst, 0x02, nD4, 0x04, nRst, 0x02, nEb4
	.byte	0x0C, nD4, 0x02, nC4, nBb3, nAb3, nG3, nF3, nC4, 0x0A, nRst, 0x02
	.byte	nEb4, 0x04, nRst, 0x02, nE4, nF4, nRst, 0x08, nD4, 0x10, nRst, 0x02
	.byte	nC4, 0x04, nRst, 0x08, nB3, 0x04, nRst, 0x08, nC4, 0x10, nRst, 0x02
	.byte	nC4, 0x04, nRst, 0x02, nD4, 0x0A, nRst, 0x02, nC4, 0x04, nRst, 0x02
	.byte	nD4, 0x04, nRst, 0x08, nEb4, 0x10, nRst, 0x02, nF4, 0x0A, nRst, 0x02
	.byte	nC4, 0x04, nRst, 0x02, nD4, 0x04, nRst, 0x02, nEb4, 0x0C, nD4, 0x02
	.byte	nC4, nBb3, nAb3, nG3, nF3, nC4, 0x0A, nRst, 0x02, nEb4, 0x04, nRst
	.byte	0x02, nE4, nF4, nRst, 0x08, nD4, 0x10, nRst, 0x02, nC4, 0x04, nRst
	.byte	0x08, nBb3, 0x04, nRst, 0x08, nFs3, 0x02, nG3, 0x14, nRst, 0x02, nFs3
	.byte	nG3, 0x08, nRst, 0x02, nF3, 0x04, nRst, 0x02, nFs3, nG3, 0x28, nC4
	.byte	0x04, nRst, 0x02, nD4, 0x04, nRst, 0x02, nEb4, 0x10, nRst, 0x02, nEb4
	.byte	0x04, nRst, 0x08, nD4, 0x04, nRst, 0x02, nEb4, 0x10, nRst, 0x02, nEb4
	.byte	0x04, nRst, 0x02, nF4, 0x0A, nRst, 0x02, nEb4, 0x04, nRst, 0x08, nAb4
	.byte	0x04, nRst, 0x0E, nC5, 0x04, nRst, 0x08, nC5, 0x04, nRst, 0x08, nC5
	.byte	0x04, nRst, 0x02, nC5, 0x0A, nRst, 0x02, nB4, 0x04, 0xF9
	
/*  FM2 Data */
Snd_SKCredits_FM2:
	smpsSetvoice        0x1F
	smpsSetVol          0x68
	.byte	nRst, 0x30
	smpsCall            Snd_SKCredits_Call05
	.byte	nRst, 0x3C
	smpsSetNote         0x40
	smpsSetVol          0x70
	smpsSetvoice        0x01
	smpsModSet          0x0D, 0x01, 0x02, 0x06
	smpsPan             panCenter, 0x00

Snd_SKCredits_Loop16:
	.byte	nG2, 0x06, nA2, nD3, nF3, nRst, nE3, nRst, nD3, nRst, nC3, nRst
	.byte	nC3, nD3, nD3, 0x01, nRst, 0x05, nE3, 0x0C, nC3, 0x06, nBb2, nRst
	.byte	nBb2, nBb2, 0x02, nRst, 0x04, nBb2, 0x02, nRst, 0x04, nC3, 0x06, nBb2
	.byte	nRst, nBb2, nRst, nBb2, 0x02, nRst, 0x04, nC3, 0x0C, nBb2
	smpsLoop            0x00, 0x06, Snd_SKCredits_Loop16
	.byte	nFs2, 0x06, nFs3, nFs2, nRst, nFs2, nRst, nFs2, nRst, nAb2, nRst, nAb2
	.byte	nRst, nAb2, nRst, nAb2, nAb2, nRst, nBb2, 0x12, nBb2, 0x06, nRst, 0x12
	.byte	nBb2, 0x06, nAb2, nA2, nBb2, nRst, 0x18, nFs2, 0x06, nFs3, nFs2, nRst
	.byte	nFs2, nRst, nFs2, nRst, nAb2, nRst, nAb2, nRst, nAb2, nRst, nAb2, nAb2
	.byte	nRst, nBb2, 0x12, nBb2, 0x06, nRst, 0x12, nBb2, 0x06, nAb2, nA2, nBb2
	.byte	nRst, 0x0C
	smpsSetvoice        0x08
	smpsPan             panLeft, 0x00
	smpsSetNote         0x4C
	smpsSetVol          0x7E
	.byte	nE4, 0x06, nF4, 0x06, nG4, 0x24, nC4, 0x36, nRst, 0x06, nG4, 0x18
	.byte	nA4, 0x04, nRst, 0x08, nG4, 0x38, nRst, 0x10, nA4, 0x0C, nG4, 0x06
	.byte	nRst, 0x06, nA4, 0x04, nRst, 0x08, nC5, 0x10, nRst, 0x02, nB4, 0x04
	.byte	nRst, 0x0C, nA4, 0x06, nRst, 0x08, nB4, 0x10, nRst, 0x02, nC5, 0x04
	.byte	nRst, 0x0E, nD5, 0x04, nRst, 0x08, nC5, 0x16, nRst, 0x02, nB4, 0x16
	.byte	nRst, 0x02, nE5, 0x0C, nA4, 0x06, nE5, 0x04, nRst, 0x0E, nA4, 0x22
	.byte	nRst, 0x02, nC5, 0x14, nRst, 0x04, nB4, 0x06, nRst, 0x06, nB4, 0x04
	.byte	nRst, 0x02, nD5, 0x06, nRst, 0x06, nB4, 0x04, nRst, 0x02, nC5, 0x32
	.byte	nRst, 0x0A, nE5, 0x0C, nA4, 0x04, nRst, 0x02, nE5, 0x06, nRst, 0x0C
	.byte	nA4, 0x22, nRst, 0x02, nC5, 0x14, nRst, 0x04, nB4, 0x06, nRst, 0x06
	.byte	nB4, 0x04, nRst, 0x02, nD5, 0x06, nRst, 0x06, nB4, 0x04, nRst, 0x02
	.byte	nC5, 0x26, nRst, 0x16, nRst, 0x30
	smpsPan             panCenter, 0x00
	smpsSetNote         0x40
	smpsSetVol          0x76
	smpsModSet          0x0D, 0x01, 0x02, 0x06

Snd_SKCredits_Loop17:
	smpsSetvoice        0x15
	.byte	nA1, 0x06, nA1, nA2, 0x0C, nA1, 0x06, nA1, nA1, 0x03, nRst, nA1
	.byte	nRst, nAb1, 0x0C, nAb2, 0x04, nRst, 0x08, nAb1, 0x0C, nAb1, 0x06, nAb1
	.byte	nG1, nG1, nG2, 0x0C, nG1, 0x06, nG1, nG1, 0x03, nRst, nG1, nRst
	.byte	nAb1, 0x0C, nAb2, 0x04, nRst, 0x08, nAb1, 0x0C, nAb1, 0x06, nAb1, nA1
	.byte	0x0C, nA1, nA1, nG2, 0x06, nA2, nA1, 0x0C, nA1, nA1, nG2, 0x06
	.byte	nA2, nG2, nA2, 0x03, nRst, nA1, 0x0C, nA1, nG2, 0x06, nA2, 0x03
	.byte	nRst, nA1, 0x0C, nA1, nG2, 0x06, nA2, 0x03, nRst, nA1, 0x0C
	smpsLoop            0x00, 0x04, Snd_SKCredits_Loop17
	smpsSetNote         0x40
	smpsSetVol          0x75

Snd_SKCredits_Loop18:
	.byte	nE1, 0x0C, nRst, 0x24, nE1, 0x0C, nE1, 0x0A, nRst, 0x1A
	smpsLoop            0x00, 0x08, Snd_SKCredits_Loop18
	smpsSetVol          0x73
	smpsSetvoice        0x1B

Snd_SKCredits_Loop19:
	.byte	nAb1, 0x0C, nAb1, nAb1, 0x03, nRst, nAb2, nRst, nAb1, nRst, nAb2, nRst
	.byte	nAb1, 0x0C, nAb1, nAb1, 0x03, nRst, nAb2, nRst, nAb1, nRst, nAb2, nRst
	.byte	nBb1, 0x0C, nBb1, nBb1, 0x03, nRst, nBb2, nRst, nBb1, nRst, nBb2, nRst
	.byte	nBb1, 0x0C, nBb1, nBb1, 0x03, nRst, nBb2, nRst, nBb1, nRst, nBb2, nRst
	.byte	nC2, 0x06, nC2, 0x03, nRst, nBb2, 0x06, nC3, 0x03, nRst, nF2, 0x06
	.byte	nG2, 0x03, nRst, nC2, nRst, nBb1, nRst, nC2, 0x06, nBb1, nC2, 0x03
	.byte	nRst, nC2, 0x06, nRst, nC2, nRst, nC2, nC2, 0x0C, nC2, nRst, 0x48
	smpsLoop            0x00, 0x02, Snd_SKCredits_Loop19
	.byte	nRst, 0x60
	smpsPan             panCenter, 0x00
	smpsSetNote         0x40
	smpsSetVol          0x68
	.byte	nRst, 0x60, nRst, nRst, nRst

Snd_SKCredits_Loop1A:
	smpsSetvoice        0x10
	.byte	nC4, 0x60, smpsNoAttack, 0x60, nBb3, smpsNoAttack, 0x60, nA3, smpsNoAttack, 0x60, nAb3, smpsNoAttack
	.byte	0x60
	smpsLoop            0x00, 0x02, Snd_SKCredits_Loop1A
	.byte	nC4, 0x60, smpsNoAttack, 0x60, smpsNoAttack, 0x60
	smpsSetVol          0x7B
	smpsSetNote         0x4D
	smpsPan             panCenter, 0x00
	smpsSetvoice        0x1D
	.byte	nE1, 0x06, nE1, nRst, nE1, nRst, nE1, nE1, smpsNoAttack, nE1, nRst, nRst
	.byte	nE1, smpsNoAttack, nE1, nE1, nE1, nE1, nE1, nA1, 0x06, nA1, nRst, nA1
	.byte	nRst, nA1, nA1, smpsNoAttack, nA1, nFs1, 0x0C, nFs1, smpsNoAttack, nFs1, nE1, nE1
	.byte	0x06, nE1, nRst, nE1, nRst, nE1, nD1, smpsNoAttack, nD1, nRst, nD1, nRst
	.byte	nD2, smpsNoAttack, nD2, nD1, nD1, nD1, nA1, nA1, nRst, nA1, nRst, nA1
	.byte	nA1, smpsNoAttack, nA1, nFs1, 0x0C, nFs1, smpsNoAttack, nFs1, nG1, nG1, 0x06, nG1
	.byte	nRst, nG1, nRst, nG1, nE1, smpsNoAttack, nE1, nRst, nE1, nRst, nE2, smpsNoAttack
	.byte	nE2, nE1, nE1, nE1, nA1, 0x06, nA1, nRst, nA1, nRst, nA1, nA1
	.byte	smpsNoAttack, nA1, nFs1, 0x0C, nFs1, smpsNoAttack, nFs1, nE1, nE1, 0x06, nE1, nRst
	.byte	nE1, nRst, nE1, nD1, smpsNoAttack, nD1, nRst, nD1, nRst, nD2, smpsNoAttack, nD2
	.byte	nD1, nD1, nD1, nA1, nA1, nRst, nA1, nRst, nA1, nA1, smpsNoAttack, nA1
	.byte	nFs1, 0x0C, nFs1, smpsNoAttack, nFs1, nG1, nG1, 0x06, nG1, nRst, nG1, nRst
	.byte	nG1, nE1, smpsNoAttack, nE1, nRst, nE1, nRst, nE2, smpsNoAttack, nE2, nE1
	smpsFMAlterVol      0xFD
	.byte	nA1, 0x60
	smpsStop

Snd_SKCredits_Call05:
	smpsModSet          0x0C, 0x02, 0x01, 0x0E
	.byte	nA4, 0x30, smpsNoAttack, 0x0C, nB4, nRst, nG4, smpsNoAttack, 0x30, smpsNoAttack, 0x0C
	smpsModSet          0x14, 0x01, 0xFE, 0x01
	.byte	nE4, 0x30
	smpsModSet          0x0C, 0x02, 0x01, 0x0E
	.byte	nRst, 0x0C, nA4, 0x18, nA4, 0x0C, nB4, nRst, nG4, nRst, nE4, nE4
	.byte	nRst, nE4, nEb4, nRst, nD4, nRst
	smpsModSet          0x01, 0x01, 0x05, 0x00
	.byte	nC5, 0x0C, smpsNoAttack
	smpsModSet          0x00, 0x00, 0x00, 0x00
	.byte	nC5, 0x18
	smpsModSet          0x0C, 0x02, 0x01, 0x0E
	.byte	nBb4, 0x0C, nA4, nRst, nAb4, smpsNoAttack, nAb4, 0x18, nEb4, nEb4, 0x0C, nF4
	.byte	nAb4, nG4, smpsNoAttack, nG4, 0x54
	smpsModSet          0x01, 0x01, 0x0A, 0x00
	.byte	nBb4, 0x0C, smpsNoAttack
	smpsModSet          0x00, 0x00, 0x00, 0x00
	.byte	nBb4, 0x24
	smpsModSet          0x0C, 0x02, 0x01, 0x0E
	smpsReturn

/*  Unreachable */
Snd_SKCredits_Loop32:
	.byte	nF2, 0x0C, nBb2, 0x0C, nF3, 0x0C, nE3, 0x05, nRst, 0x0D, nC3, 0x05
	.byte	nRst, 0x0D, nBb2, 0x3B, nRst, 0x3D, nF2, 0x0C, nBb2, 0x0C, nF3, 0x0C
	.byte	nE3, 0x05, nRst, 0x0D, nC3, 0x05, nRst, 0x0D, nD3, 0x3B, nRst, 0x3D
	smpsLoop            0x00, 0x02, Snd_SKCredits_Loop32
	smpsReturn

/*  Unreachable */
	.byte	nC2, 0x06, nRst, nC2, 0x0C, nBb1, 0x12, nA1, 0x06, nRst, 0x2A, nA1
	.byte	0x06, nF1, nRst, nF1, 0x0C, nFs1, 0x12, nG1, 0x06, nRst, 0x18, nD2
	.byte	0x0C, nG2, 0x06, nD2
	smpsReturn

/*  Unreachable */
	.byte	nC2, nRst, nC2, 0x0C, nBb1, 0x12, nA1, 0x06, nRst, 0x2A, nA1, 0x06
	.byte	nF1, nRst, nF1, 0x0C, nFs1, 0x12, nG1, 0x06, nRst, 0x18, nD2
	smpsReturn

/*  FM3 Data */
Snd_SKCredits_FM3:
	smpsModSet          0x0C, 0x01, 0x01, 0x0F
	smpsSetvoice        0x1F
	smpsAlterNote       0xFE
	smpsSetVol          0x5C
	.byte	nRst, 0x30, nRst, 0x09
	smpsCall            Snd_SKCredits_Call05
	.byte	nRst, 0x33
	smpsPan             panLeft, 0x00
	smpsSetNote         0x40
	smpsSetVol          0x75
	smpsSetvoice        0x03
	smpsModSet          0x0D, 0x01, 0x02, 0x06
	smpsPan             panLeft, 0x00

Snd_SKCredits_Loop12:
	.byte	nRst, 0x0C, nG4, 0x06, nG4, nG4, nG4, nRst, 0x0C, nG4, 0x06, nG4
	.byte	nG4, nG4, nRst, 0x0C, nG4, 0x06, nG4, nRst, 0x60
	smpsLoop            0x00, 0x02, Snd_SKCredits_Loop12

Snd_SKCredits_Loop13:
	.byte	nRst, 0x0C, nE4, 0x06, nE4, nE4, nE4, nRst, 0x0C, nE4, 0x06, nE4
	.byte	nE4, nE4, nRst, 0x0C, nE4, 0x06, nE4, nRst, 0x60, nRst, 0x0C, nFs4
	.byte	0x06, nFs4, nFs4, nFs4, nRst, 0x0C, nF4, 0x06, nF4, nF4, nF4, nRst
	.byte	0x0C, nF4, 0x06, nF4, nRst, 0x60
	smpsLoop            0x00, 0x02, Snd_SKCredits_Loop13
	smpsSetvoice        0x04
	.byte	nRst, 0x06, nFs5, 0x12, nFs5, 0x06, nRst, nFs5, nRst, nAb5, nG5, nAb5
	.byte	nC6, nRst, 0x18
	smpsSetvoice        0x05
	.byte	nRst, 0x06, nF4, 0x12, nF4, 0x06, nRst, 0x12, nF4, 0x06, nEb4, nE4
	.byte	nF4, nRst
	smpsSetvoice        0x06
	.byte	nBb4, 0x0C, nC5, 0x06
	smpsSetvoice        0x04
	.byte	nRst, nFs5, 0x12, nFs5, 0x06, nRst, nFs5, nRst, nAb5, nG5, nAb5, nC6
	.byte	nRst, 0x18
	smpsSetvoice        0x05
	.byte	nRst, 0x06, nF4, 0x12, nF4, 0x06, nRst, 0x12, nF4, 0x06, nEb4, nE4
	.byte	nF4, nRst, nRst
	smpsSetvoice        0x08
	smpsPan             panRight, 0x00
	smpsSetNote         0x4C
	smpsSetVol          0x7C
	.byte	nRst, 0x02, nE4, 0x06, nF4, 0x06, nG4, 0x24, nC4, 0x36, nRst, 0x06
	.byte	nG4, 0x18, nA4, 0x04, nRst, 0x08, nG4, 0x38, nRst, 0x10, nA4, 0x0C
	.byte	nG4, 0x06, nRst, 0x06, nA4, 0x04, nRst, 0x08, nC5, 0x10, nRst, 0x02
	.byte	nB4, 0x04, nRst, 0x0C, nA4, 0x06, nRst, 0x08, nB4, 0x10, nRst, 0x02
	.byte	nC5, 0x04, nRst, 0x0E, nD5, 0x04, nRst, 0x08, nC5, 0x16, nRst, 0x02
	.byte	nB4, 0x16, nRst, 0x02, nE5, 0x0C, nA4, 0x06, nE5, 0x04, nRst, 0x0E
	.byte	nA4, 0x22, nRst, 0x02, nC5, 0x14, nRst, 0x04, nB4, 0x06, nRst, 0x06
	.byte	nB4, 0x04, nRst, 0x02, nD5, 0x06, nRst, 0x06, nB4, 0x04, nRst, 0x02
	.byte	nC5, 0x32, nRst, 0x0A, nE5, 0x0C, nA4, 0x04, nRst, 0x02, nE5, 0x06
	.byte	nRst, 0x0C, nA4, 0x22, nRst, 0x02, nC5, 0x14, nRst, 0x04, nB4, 0x06
	.byte	nRst, 0x06, nB4, 0x04, nRst, 0x02, nD5, 0x06, nRst, 0x06, nB4, 0x04
	.byte	nRst, 0x02, nC5, 0x26, nRst, 0x14, 0x30
	smpsPan             panLeft, 0x00
	smpsSetNote         0x40
	smpsSetVol          0x74
	smpsModSet          0x0D, 0x01, 0x02, 0x06

Snd_SKCredits_Loop14:
	smpsSetvoice        0x16
	.byte	nA4, 0x10, nRst, 0x08, nG4, 0x10, nRst, 0x08, nE4, 0x0F, nRst, 0x03
	.byte	nC4, 0x0F, nRst, 0x03, nA3, 0x06, nRst, nRst, nC4, 0x12, nD4, 0x06
	.byte	nRst, nE4, nRst, nD4, 0x12, nC4, 0x06, nRst, 0x18
	smpsSetvoice        0x17
	.byte	nE4, 0x30, nF4, nFs4, nF4
	smpsLoop            0x00, 0x04, Snd_SKCredits_Loop14
	smpsPan             panLeft, 0x00
	smpsSetNote         0x40
	smpsSetVol          0x73
	smpsSetvoice        0x19
	.byte	nRst, 0x0C, nD6, 0x08, nRst, 0x04, nAb6, 0x0A, nRst, 0x0E, nAb6, 0x0C
	.byte	nF6, 0x0A, nRst, 0x0E, nD6, 0x08, nRst, 0x04, nRst, 0x0C, nB5, 0x08
	.byte	nRst, 0x10, nAb5, 0x08, nRst, 0x28, nB5, 0x06, nC6, nB5, 0x08, nRst
	.byte	0x1C, nAb5, 0x08, nRst, 0x1C, nF5, 0x08, nRst, 0x10, nRst, 0x0C, nE5
	.byte	0x08, nRst, 0x1C, nE5, 0x08, nRst, 0x28, nRst, 0x0C, nE5, nF5, nAb5
	.byte	0x08, nRst, 0x04, nAb5, nA5, nAb5, 0x10, nF5, 0x0C, nE5, 0x08, nRst
	.byte	0x04, nRst, 0x0C, nE5, nD5, nC5, nB4, 0x04, nC5, nB4, 0x10, nAb4
	.byte	0x0C, nE4, nRst, nE5, nF5, nAb5, 0x08, nRst, 0x04, nAb5, nA5, nAb5
	.byte	0x10, nF5, 0x0C, nE5, 0x08, nRst, 0x04, nA5, nB5, nA5, 0x10, nAb5
	.byte	0x0C, nA5, nB5, nD6, nRst, 0x18, nRst, 0x60, nRst, nRst, nRst, nRst
	.byte	nRst, nRst, nRst, nRst, 0x60
	smpsPan             panCenter, 0x00
	smpsSetNote         0x40
	smpsSetVol          0x68
	smpsSetvoice        0x12
	.byte	nRst, 0x60, nRst, nF5, 0x12, nE5, nC5, 0x0C, nC6, 0x12, nB5, nG5
	.byte	0x0C, nF5, 0x12, nE5
	smpsFMAlterVol      0xFF
	.byte	nC5, 0x0C, nRst
	smpsFMAlterVol      0x01
	.byte	nB4, nRst, 0x18
	smpsSetvoice        0x11

Snd_SKCredits_Loop15:
	.byte	nC3, 0x06, nC2, nC3, nC2, nD3, nC2, nE3, nC2, nF3, nC2, nE3
	.byte	nC2, nD3, nC2, nE3, nC2
	smpsLoop            0x00, 0x12, Snd_SKCredits_Loop15
	.byte	nC3, 0x06, nC2, nC3, nC2, nD3, nC2, nE3, nC2, nF3, nC2, nE3
	.byte	nC2, nD3, nC2, nE3, nC2, nRst, 0x01
	smpsSetVol          0x63
	smpsSetNote         0x41
	smpsPan             panCenter, 0x00
	smpsSetvoice        0x1E
	smpsAlterNote       0x02
	smpsModSet          0x15, 0x01, 0x06, 0x06
	.byte	nRst, 0x03, nB4, 0x06, nE5, nCs5, nFs5
	smpsFMAlterVol      0xFF
	.byte	nD5, nAb5, nE5, nA5
	smpsFMAlterVol      0xFF
	.byte	nFs5, nB5, nAb5, nCs6
	smpsFMAlterVol      0xFF
	.byte	nA5, nD6, nB5, nE6, 0x03
	smpsSetvoice        0x1C
	.byte	nRst, 0x07, nA4, 0x18, nFs4, 0x0C, nE4, nA4, nFs4, nD4, nE4, smpsNoAttack
	.byte	nE4, 0x24, nD5, 0x18
	smpsNoteFill        0x06
	.byte	0x0C, 0x0C, 0x0C
	smpsNoteFill        0x00
	.byte	nCs5, 0x18, nA4, 0x0C, nE4, nFs4, 0x04, nRst, 0x08, nA4, 0x18, nB4
	.byte	0x0C, smpsNoAttack, nB4, 0x30, nRst, nA4, 0x18, nFs4, 0x0C, nE4, nA4, nFs4
	.byte	nD4, nE4, smpsNoAttack, nE4, 0x24, nD5, 0x18
	smpsNoteFill        0x06
	.byte	0x0C, 0x0C, 0x0C
	smpsNoteFill        0x00
	smpsFMAlterVol      0xFD
	.byte	nD5, nCs5, 0x18, nA4, nB4, nRst, 0x0C, nE5, nD5, 0x18, nA4, nB4
	.byte	0x05, nRst, 0x05
	smpsFMAlterVol      0xFE
	.byte	nA4, 0x0C
	smpsStop

/*  FM4 Data */
Snd_SKCredits_FM4:
	smpsPan             panRight, 0x00
	smpsAlterNote       0xFD
	.byte	nRst, 0x30
	smpsCall            Snd_SKCredits_Call00
	.byte	nRst, 0x30
	smpsPan             panRight, 0x00
	smpsSetNote         0x40
	smpsSetVol          0x75
	smpsSetvoice        0x03
	smpsModSet          0x0D, 0x01, 0x02, 0x06
	smpsPan             panRight, 0x00

Snd_SKCredits_Loop09:
	.byte	nRst, 0x0C, nE4, 0x06, nE4, nE4, nE4, nRst, 0x0C, nE4, 0x06, nE4
	.byte	nE4, nE4, nRst, 0x0C, nE4, 0x06, nE4, nRst, 0x60
	smpsLoop            0x00, 0x02, Snd_SKCredits_Loop09

Snd_SKCredits_Loop0A:
	.byte	nRst, 0x0C, nC4, 0x06, nC4, nC4, nC4, nRst, 0x0C, nC4, 0x06, nC4
	.byte	nC4, nC4, nRst, 0x0C, nC4, 0x06, nC4, nRst, 0x60, nRst, 0x0C, nCs4
	.byte	0x06, nCs4, nCs4, nCs4, nRst, 0x0C, nD4, 0x06, nD4, nD4, nD4, nRst
	.byte	0x0C, nD4, 0x06, nD4, nRst, 0x60
	smpsLoop            0x00, 0x02, Snd_SKCredits_Loop0A
	smpsSetvoice        0x04
	.byte	nRst, 0x06, nFs4, 0x12, nFs4, 0x06, nRst, nFs4, nRst, nAb4, nG4, nAb4
	.byte	nC5, nRst, 0x18
	smpsSetvoice        0x05
	.byte	nRst, 0x06, nD4, 0x12, nD4, 0x06, nRst, 0x12, nD4, 0x06, nC4, nCs4
	.byte	nD4, nRst
	smpsSetvoice        0x06
	.byte	nFs4, 0x0C, nAb4, 0x06
	smpsSetvoice        0x04
	.byte	nRst, nFs4, 0x12, nFs4, 0x06, nRst, nFs4, nRst, nAb4, nG4, nAb4, nC5
	.byte	nRst, 0x18
	smpsSetvoice        0x05
	.byte	nRst, 0x06, nD4, 0x12, nD4, 0x06, nRst, 0x12, nD4, 0x06, nC4, nCs4
	.byte	nD4, nRst, nRst, nRst, nRst
	smpsSetNote         0x4C
	smpsSetVol          0x6C
	smpsPan             panCenter, 0x00
	smpsSetvoice        0x09
	.byte	nF3, 0x04, nRst, 0x02, nF3, 0x04, nRst, 0x02, nF3, 0x04, nRst, 0x02
	.byte	nF3, 0x04, nRst, 0x1A, nA3, 0x02, nB3, 0x02, nC4, 0x0E, nC4, 0x12
	.byte	nE4, 0x06, nRst, 0x06, nG3, 0x04, nRst, 0x02, nG3, 0x04, nRst, 0x02
	.byte	nG3, 0x04, nRst, 0x02, nG3, 0x04, nRst, 0x1C, nG3, 0x14, nRst, 0x02
	.byte	nD4, 0x10, nRst, 0x14, nA3, 0x0C, nG3, 0x06, nRst, 0x06, nA3, 0x04
	.byte	nRst, 0x08, nC4, 0x10, nRst, 0x02, nB3, 0x04, nRst, 0x0C, nA3, 0x06
	.byte	nRst, 0x08, nB3, 0x10, nRst, 0x02, nC4, 0x04, nRst, 0x0E, nD4, 0x04
	.byte	nRst, 0x08, nE4, 0x16, nRst, 0x02, nB3, 0x16, nRst, 0x02
	smpsSetvoice        0x0A
	.byte	nE3, 0x0C, nA2, 0x04, nRst, 0x02, nE3, 0x04, nRst, 0x0E, nA2, 0x24
	.byte	nC3, 0x16, nRst, 0x02, nB2, 0x06, nRst, 0x06, nB2, 0x04, nRst, 0x02
	.byte	nD3, 0x06, nRst, 0x0C, nC3, 0x36, nRst, 0x06, nE3, 0x0C, nA2, 0x04
	.byte	nRst, 0x02, nE3, 0x04, nRst, 0x0E, nA2, 0x24, nC3, 0x16, nRst, 0x02
	.byte	nB2, 0x06, nRst, 0x06, nB2, 0x04, nRst, 0x02, nD3, 0x06, nRst, 0x06
	.byte	nB2, 0x04, nRst, 0x02, nC3, 0x3C, smpsNoAttack, 0x24, nRst, 0x0C
	smpsPan             panRight, 0x00
	smpsSetNote         0x40
	smpsSetVol          0x74
	smpsModSet          0x0D, 0x01, 0x02, 0x06

Snd_SKCredits_Loop0B:
	smpsSetvoice        0x16
	.byte	nE4, 0x10, nRst, 0x08, nE4, 0x10, nRst, 0x08, nC4, 0x0F, nRst, 0x03
	.byte	nA3, 0x0F, nRst, 0x03, nE3, 0x06, nRst, nRst, nA3, 0x12, nB3, 0x06
	.byte	nRst, nC4, nRst, nB3, 0x12, nA3, 0x06, nRst, 0x18
	smpsSetvoice        0x17
	.byte	nC4, 0x30, nC4, nC4, nC4
	smpsLoop            0x00, 0x04, Snd_SKCredits_Loop0B
	smpsPan             panRight, 0x00
	smpsSetNote         0x40
	smpsSetVol          0x73
	.byte	nRst, 0x60, nRst, nRst, nRst
	smpsSetvoice        0x18
	.byte	nC5, 0x08, nRst, 0x10, nB4, 0x08, nRst, 0x40, nA4, 0x08, nRst, 0x10
	.byte	nAb4, 0x08, nRst, 0x40, nC5, 0x08, nRst, 0x10, nB4, 0x08, nRst, 0x40
	.byte	nF5, 0x08, nRst, 0x10, nD5, 0x08, nRst, 0x10, nAb5, 0x08, nRst, 0x04
	.byte	nB5, 0x08, nRst, 0x10, nB5, 0x08, nRst, 0x04
	smpsSetVol          0x70
	smpsSetvoice        0x1A

Snd_SKCredits_Loop0C:
	.byte	nAb2, 0x06, nBb2, nC3, nEb3
	smpsLoop            0x00, 0x04, Snd_SKCredits_Loop0C

Snd_SKCredits_Loop0D:
	.byte	nBb2, 0x06, nC3, nD3, nF3
	smpsLoop            0x00, 0x04, Snd_SKCredits_Loop0D
	.byte	nRst, 0x60, nRst, 0x06, nG4, 0x12, nF4, 0x06, nRst, nE4, nRst, nG4
	.byte	nRst, nE4, nF4, 0x05, nRst, 0x07, nG4, 0x12

Snd_SKCredits_Loop0E:
	.byte	nAb2, 0x06, nBb2, nC3, nEb3
	smpsLoop            0x00, 0x04, Snd_SKCredits_Loop0E

Snd_SKCredits_Loop0F:
	.byte	nBb2, 0x06, nC3, nD3, nF3
	smpsLoop            0x00, 0x04, Snd_SKCredits_Loop0F
	.byte	nRst, 0x60, nRst, 0x06, nG4, 0x12, nF4, 0x06, nRst, nE4, nRst, nG4
	.byte	nE4, nRst, nA4, nRst, nG4, nRst, nRst, nRst, 0x60
	smpsAlterNote       0x00
	smpsPan             panCenter, 0x00
	smpsSetNote         0x40
	smpsSetVol          0x6A
	smpsModSet          0x24, 0x01, 0x04, 0x08
	smpsSetvoice        0x12

Snd_SKCredits_Loop10:
	.byte	nC5, 0x12, nB4, nG4, 0x0C, nG5, 0x12, nF5, nE5, 0x0C
	smpsLoop            0x00, 0x03, Snd_SKCredits_Loop10
	.byte	nC5, 0x12, nB4
	smpsFMAlterVol      0xFF
	.byte	nG4, 0x0C, nRst
	smpsFMAlterVol      0x01
	.byte	nG4, nRst, 0x18
	smpsFMAlterVol      0xFD

Snd_SKCredits_Loop11:
	.byte	nC6, 0x07, nRst, 0x05, nC6, 0x48, nC5, 0x06, nE5, nF5, 0x24, nE5
	.byte	0x18, nC5, 0x24
	smpsLoop            0x00, 0x02, Snd_SKCredits_Loop11
	.byte	nRst, 0x0C, nRst, nA4, nRst, nRst, nC5, nRst, nRst, nF4, nRst, nRst
	.byte	nA4, 0x24, nA4, 0x18, nRst, 0x24, nAb4, 0x0C, nC5, nBb4, nAb4, nEb5
	.byte	0x18, nC5, 0x0C, nD5, nEb5, 0x18, nD5, 0x0C, nC5, 0x18
	smpsLoop            0x01, 0x02, Snd_SKCredits_Loop11
	.byte	nC6, 0x60, smpsNoAttack, 0x60, smpsNoAttack, 0x60
	smpsSetVol          0x6D
	smpsSetNote         0x4D
	smpsSetvoice        0x22
	smpsPan             panRight, 0x00
	smpsModSet          0x01, 0x01, 0x0C, 0x00
	.byte	nG2, 0x60
	smpsSetvoice        0x23
	smpsModSet          0x00, 0x00, 0x00, 0x00
	.byte	nA3, nB3, 0x24, nA3, 0x30, smpsNoAttack, 0x0C, nA3, 0x60, nG3, 0x0C, 0x18
	.byte	nB3, 0x30, smpsNoAttack, 0x0C, nA3, 0x60, nB3, 0x24, nA3, 0x30, smpsNoAttack, 0x0C
	smpsSetvoice        0x24
	.byte	nA4, 0x24, nA4, 0x30, nRst, 0x0C
	smpsFMAlterVol      0xFF
	.byte	nB4, 0x24, nB4, 0x30
	smpsFMAlterVol      0xFF
	.byte	nCs5, 0x0C
	smpsStop

Snd_SKCredits_Call00:
	smpsSetvoice        0x1F
	smpsModSet          0x0C, 0x02, 0x01, 0x10
	smpsSetNote         0x40
	smpsSetVol          0x68
	.byte	nD4, 0x30, smpsNoAttack, 0x0C, nD4, nRst, nC4, smpsNoAttack, 0x30, smpsNoAttack, 0x0C
	smpsModSet          0x1C, 0x01, 0xFE, 0x01
	.byte	nG3, 0x30
	smpsModSet          0x0C, 0x02, 0x01, 0x10
	.byte	nRst, 0x0C, nD4, 0x18, nD4, 0x0C, nD4, nRst, nC4, nRst, nG4, nC4
	.byte	nRst, nC4, nB3, nRst, nBb3, nRst, nF4, 0x24, nD4, 0x0C, nCs4, nRst
	.byte	nC4, smpsNoAttack, 0x30, nC4, 0x0C, nEb4, nF4, nE4, smpsNoAttack, nE4, 0x54, nG4
	.byte	0x3C
	smpsReturn

/*  Unreachable */
Snd_SKCredits_Loop33:
	.byte	nRst, 0x0C, nD3, 0x02, nRst, 0x0A, nE3, 0x02, nRst, 0x16, nD3, 0x11
	.byte	nRst, 0x01, nE3, 0x02, nRst, 0x28, nA4, 0x05, nRst, 0x01, nBb4, 0x05
	.byte	nRst, 0x07, nBb4, 0x02, nRst, 0x04, nBb4, 0x02, nRst, 0x04, nBb4, 0x02
	.byte	nRst, 0x04, nBb4, 0x02, nRst, 0x0A, nA4, 0x23, nRst, 0x01, nRst, 0x0C
	.byte	nD3, 0x02, nRst, 0x0A, nE3, 0x02, nRst, 0x16, nD3, 0x11, nRst, 0x01
	.byte	nE3, 0x02, nRst, 0x28, nA4, 0x05, nRst, 0x01, nBb4, 0x05, nRst, 0x07
	.byte	nBb4, 0x02, nRst, 0x04, nBb4, 0x02, nRst, 0x04, nBb4, 0x02, nRst, 0x04
	.byte	nBb4, 0x02, nRst, 0x0A, nC5, 0x05, nRst, 0x01, nBb4, 0x1D, nRst, 0x01
	smpsLoop            0x00, 0x02, Snd_SKCredits_Loop33
	smpsReturn

/*  Unreachable */
	smpsStop

/*  FM5 Data */
Snd_SKCredits_FM5:
	smpsAlterNote       0x03
	smpsPan             panLeft, 0x00
	.byte	nRst, 0x30
	smpsCall            Snd_SKCredits_Call00
	.byte	nRst, 0x30, nRst, 0x0E
	smpsSetNote         0x40
	smpsSetVol          0x6C
	smpsSetvoice        0x00
	smpsModSet          0x0D, 0x01, 0x02, 0x06
	smpsPan             panCenter, 0x00
	.byte	nRst, 0x60, nRst, nRst
	smpsSetvoice        0x00
	.byte	nB5, 0x04, nBb5, nG5, nA5, nFs5, nAb5, nF5, nG5, nE5, nFs5, nEb5
	.byte	nF5, nD5, nE5, nCs5, nEb5, nC5, nD5, nB4, nCs5, nBb4, nC5, nA4
	.byte	nB4
	smpsSetvoice        0x02
	.byte	nB4, 0x01, nC5, 0x3B, nD5, 0x06, nRst, nF5, nRst, nG5, nRst, nE5
	.byte	0x01, nF5, 0x06, nRst, 0x05, nCs5, 0x06, nRst, nC5, nBb4, nRst, nG4
	.byte	0x36, nRst, 0x0C, nBb4, 0x18, nC5, 0x06, nBb4, 0x05, nC5, 0x01, nCs5
	.byte	0x06, nRst, nC5, nRst, nEb5, nD5, nRst, nBb4, nRst, 0x60, nB4, 0x01
	.byte	nC5, 0x3B, nD5, 0x06, nRst, nF5, nRst, nG5, nRst, nE5, 0x01, nF5
	.byte	0x06, nRst, 0x05, nCs5, 0x06, nRst, nC5, nBb4, nRst, nG4, 0x36, nRst
	.byte	0x0C, nBb4, 0x18, nC5, 0x06, nBb4, 0x05, nC5, 0x01, nCs5, 0x06, nRst
	.byte	nC5, nRst, nEb5, nD5, nRst, nBb4, nRst, 0x60, nRst, 0x0C, nBb4, 0x18
	.byte	nC5, 0x06, nBb4, nCs5, nRst, nC5, nRst, nBb4, nC5, nRst, nBb4, nRst
	.byte	0x60, nRst, 0x0C, nBb4, 0x18, nC5, 0x06, nBb4, 0x05, nCs5, 0x01, nD5
	.byte	nEb5, 0x06, nRst, 0x05, nD5, 0x06, nRst, nC5, nD5, nRst, nBb4, nRst
	.byte	0x52
	smpsSetNote         0x4C
	smpsSetVol          0x6C
	smpsSetvoice        0x09
	.byte	nC4, 0x04, nRst, 0x02, nC4, 0x04, nRst, 0x02, nC4, 0x04, nRst, 0x02
	.byte	nC4, 0x04, nRst, 0x1A, nF4, 0x02, nG4, 0x02, nA4, 0x0E, nA4, 0x12
	.byte	nC5, 0x06, nB4, 0x02, nA4, 0x02, nG4, 0x02, nD4, 0x04, nRst, 0x02
	.byte	nD4, 0x04, nRst, 0x02, nD4, 0x04, nRst, 0x02, nD4, 0x04, nRst, 0x1A
	.byte	nEb4, 0x02, nE4, 0x14, nRst, 0x02, nB4, 0x10, nB4, 0x02, nA4, 0x02
	.byte	nG4, 0x02, nF4, 0x02, nRst, 0x0C, nC4, 0x0C, nC4, 0x06, nRst, 0x06
	.byte	nC4, 0x04, nRst, 0x08, nE4, 0x10, nRst, 0x02, nE4, 0x04, nRst, 0x0C
	.byte	nE4, 0x06, nRst, 0x08, nF4, 0x10, nRst, 0x02, nF4, 0x04, nRst, 0x0E
	.byte	nF4, 0x04, nRst, 0x08, nG4, 0x16, nRst, 0x02, nD4, 0x16, nRst, 0x02
	smpsSetvoice        0x0A
	.byte	nC4, 0x0C, nF3, 0x04, nRst, 0x02, nC4, 0x04, nRst, 0x0E, nF3, 0x24
	.byte	nA3, 0x16, nRst, 0x02, nG3, 0x06, nRst, 0x06, nG3, 0x04, nRst, 0x02
	.byte	nB3, 0x06, nRst, 0x0C, nA3, 0x36, nRst, 0x06, nC4, 0x0C, nF3, 0x04
	.byte	nRst, 0x02, nC4, 0x04, nRst, 0x0E, nF3, 0x24, nA3, 0x16, nRst, 0x02
	.byte	nG3, 0x06, nRst, 0x06, nG3, 0x04, nRst, 0x02, nB3, 0x06, nRst, 0x06
	.byte	nG3, 0x04, nRst, 0x02, nA3, 0x3C, smpsNoAttack, 0x24, nRst, 0x0C
	smpsPan             panCenter, 0x00
	smpsSetNote         0x40
	smpsSetVol          0x6F
	smpsModSet          0x0D, 0x01, 0x02, 0x06
	.byte	nRst, 0x10
	smpsCall            Snd_SKCredits_Call01
	smpsCall            Snd_SKCredits_Call01
	smpsCall            Snd_SKCredits_Call02
	.byte	nRst, 0x10
	smpsCall            Snd_SKCredits_Call02
	smpsSetNote         0x40
	smpsSetVol          0x6B
	.byte	nRst, 0x10
	smpsSetvoice        0x18
	smpsCall            Snd_SKCredits_Call03
	.byte	nRst, 0x08
	smpsSetVol          0x69
	smpsSetvoice        0x1A
	.byte	nRst, 0x10
	smpsCall            Snd_SKCredits_Call04
	.byte	nRst, 0x60
	smpsPan             panCenter, 0x00
	smpsSetNote         0x40
	smpsSetVol          0x60
	smpsModSet          0x24, 0x01, 0x04, 0x08
	smpsAlterNote       0x02
	smpsSetvoice        0x12
	.byte	nRst, 0x0E

Snd_SKCredits_Loop07:
	.byte	nC5, 0x12, nB4, nG4, 0x0C, nG5, 0x12, nF5, nE5, 0x0C
	smpsLoop            0x00, 0x03, Snd_SKCredits_Loop07
	.byte	nC5, 0x12, nB4
	smpsFMAlterVol      0xFF
	.byte	nG4, 0x0C, nRst
	smpsFMAlterVol      0x01
	.byte	nG4, nRst, 0x18
	smpsFMAlterVol      0xFD

Snd_SKCredits_Loop08:
	.byte	nC6, 0x07, nRst, 0x05, nC6, 0x48, nC5, 0x06, nE5, nF5, 0x24, nE5
	.byte	0x18, nC5, 0x24
	smpsLoop            0x00, 0x02, Snd_SKCredits_Loop08
	.byte	nRst, 0x0C, nRst, nA4, nRst, nRst, nC5, nRst, nRst, nF4, nRst, nRst
	.byte	nA4, 0x24, nA4, 0x18, nRst, 0x24, nAb4, 0x0C, nC5, nBb4, nAb4, nEb5
	.byte	0x18, nC5, 0x0C, nD5, nEb5, 0x18, nD5, 0x0C, nC5, 0x18
	smpsLoop            0x01, 0x02, Snd_SKCredits_Loop08
	.byte	nC6, 0x60, smpsNoAttack, nC6, 0x52, smpsNoAttack, 0x60
	smpsSetVol          0x6D
	smpsSetNote         0x4D
	smpsSetvoice        0x22
	smpsPan             panLeft, 0x00
	smpsModSet          0x01, 0x01, 0x0C, 0x00
	.byte	nG2, 0x60
	smpsSetvoice        0x23
	smpsModSet          0x00, 0x00, 0x00, 0x00
	.byte	nE3, nE3, 0x24, nD3, 0x30, smpsNoAttack, 0x0C, nE3, 0x60, nD3, 0x0C, 0x18
	.byte	nE3, 0x30, smpsNoAttack, 0x0C, nE3, 0x60, nE3, 0x24, nD3, 0x30, smpsNoAttack, 0x0C
	smpsSetvoice        0x24
	.byte	nE4, 0x24, nD4, 0x30, nRst, 0x0C
	smpsFMAlterVol      0xFF
	.byte	nG4, 0x24, nE4, 0x30
	smpsFMAlterVol      0xFF
	.byte	nE4, 0x0C
	smpsStop

/*  PSG1 Data */
Snd_SKCredits_PSG1:
	smpsSetNote         0x40
	smpsSetVol          0x4F
	.byte	nRst, 0x30
	smpsPSGvoice        sTone_0A

Snd_SKCredits_Loop27:
	.byte	nA5, 0x0C, nD5
	smpsLoop            0x00, 0x04, Snd_SKCredits_Loop27

Snd_SKCredits_Loop28:
	.byte	nB5, nE5
	smpsLoop            0x00, 0x04, Snd_SKCredits_Loop28
	smpsLoop            0x01, 0x02, Snd_SKCredits_Loop27

Snd_SKCredits_Loop29:
	.byte	nBb5, nF5
	smpsLoop            0x00, 0x04, Snd_SKCredits_Loop29

Snd_SKCredits_Loop2A:
	.byte	nAb5, nC5
	smpsLoop            0x00, 0x04, Snd_SKCredits_Loop2A

Snd_SKCredits_Loop2B:
	.byte	nC6, nE5
	smpsLoop            0x00, 0x04, Snd_SKCredits_Loop2B
	.byte	nC6, nE5, nC6, nE5, nRst, 0x30, nRst, 0x60, nRst, nRst, nRst, nRst
	.byte	nRst, nRst, nRst, nRst, nRst, nRst, nRst, nRst, nRst, nRst, nRst
	smpsSetNote         0x34
	smpsSetVol          0x5F
	.byte	nRst, 0x01
	smpsPSGvoice        sTone_04
	smpsAlterNote       0xFF
	smpsCall            Snd_SKCredits_Call06
	.byte	nA3, nA3, nA3, nA3, 0x12, nC4, 0x06, nC4, nC4, nC4, 0x12, nD4
	.byte	0x06, nD4, nC4, 0x0C, nB3, nB3, 0x06, nB3, 0x0C, nB3, 0x06, nC4
	.byte	0x18, nC4, 0x06, nC4, nC4, nC4, nB3, 0x0C, nA3, 0x06, nA3, nA3
	.byte	nA3, nA3, 0x0C, nC4, 0x06, nC4, nC4, nC4, 0x12, nD4, 0x06, nC4
	.byte	nB3, 0x0C, nG3, 0x12, nG3, nA3, 0x3B, smpsNoAttack, 0x24, nRst, 0x0C, nRst
	.byte	0x60, nRst, nRst, nRst, nRst, nRst, nRst, nRst, nRst, nRst, nRst, nRst
	.byte	nRst, nRst, nRst, nRst, nRst, nRst, nRst, nRst, nRst, nRst, nRst, nRst
	.byte	nRst, nRst, nRst, nRst, nRst, nRst, nRst, nRst, nRst, 0x60
	smpsSetNote         0x34
	smpsSetVol          0x57
	smpsPSGvoice        sTone_04

Snd_SKCredits_Loop2C:
	.byte	nG4, 0x06, nF4, nC4, nF4
	smpsLoop            0x00, 0x0E, Snd_SKCredits_Loop2C
	.byte	nRst, 0x0C, nB3, nRst, 0x18

Snd_SKCredits_Loop2D:
	.byte	nC5, 0x06, nC4, nC5, nC4, nC5, nC4, nC5, nC4, nC6, nC4, nC6
	.byte	nC4, nC5, nC4, nC5, nC4
	smpsLoop            0x00, 0x12, Snd_SKCredits_Loop2D
	smpsSetVol          0x17
	smpsSetNote         0x41
	smpsPSGvoice        sTone_0C
	.byte	nA1, 0x06, nCs2, nB1, nD2
	smpsPSGAlterVol     0xFF
	.byte	nCs2, nE2, nD2, nFs2
	smpsPSGAlterVol     0xFF
	.byte	nE2, nAb2, nFs2, nA2
	smpsPSGAlterVol     0xFF
	.byte	nAb2, nB2, nA2, nCs3
	smpsPSGAlterVol     0xFF
	.byte	nA2, 0x06, nCs3, nB2, nD3
	smpsPSGAlterVol     0xFF
	.byte	nCs3, nE3, nD3, nFs3
	smpsPSGAlterVol     0xFF
	.byte	nE3, nAb3, nFs3, nA3
	smpsPSGAlterVol     0xFF
	.byte	nAb3, nB3, nA3, nCs4
	smpsPSGAlterVol     0xFD
	smpsPSGvoice        sTone_0A
	.byte	nE4, 0x0C, nB3, nE4, nB3, nE4, nB3, nE4, nB3, nD4, nB3, nE4
	.byte	nB3, nE4, nB3, nE4, nB3, nE4, 0x0C, nB3, nE4, nB3, nE4, nB3
	.byte	nE4, nB3, nD4, nB3, nD4, nB3, nD5, nB4, nD5, nB4, nE4, 0x0C
	.byte	nB3, nE4, nB3, nE4, nB3, nE4, nB3, nD4, nB3, nD4, nB3, nD4
	.byte	nB3, nD4, nB3, nE4, 0x0C, nB3, nE4, nB3, nD4, nB3, nD4, nB3
	.byte	nD4, nA3, nD4, nA3, nE4, nB3, nE4
	smpsPSGAlterVol     0x01

Snd_SKCredits_Loop2E:
	.byte	nA4
	smpsPSGAlterVol     0x01
	.byte	nG5
	smpsPSGAlterVol     0x01
	smpsLoop            0x00, 0x05, Snd_SKCredits_Loop2E
	smpsStop

Snd_SKCredits_Call06:
	.byte	nF3, 0x0C, nF3, nF3, nC3, 0x06, nF3, 0x0C, nF3, nC3, 0x06, nF3
	.byte	0x0C, nC3, nG3, nG3, nG3, nD3, 0x06, nG3, 0x0C, nG3, nD3, 0x06
	.byte	nG3, 0x0C, nD3, nD3, 0x06, nF3, nA3, nG3, nF3, nE3, nG3, nB3
	.byte	nD4, nC4, nB3, nA3, nA3, nC4, nE4, nD4, nC4, nB3, nB3, nD4
	.byte	nF4, nE4, nD4, nC4, nG4, nF4, nE4, nD4, nE4, nD4, nC4, nG3
	smpsReturn

/*  Unreachable */
	smpsStop

/*  PSG2 Data */
Snd_SKCredits_PSG2:
	smpsSetNote         0x40
	smpsSetVol          0x4F
	smpsPSGvoice        sTone_0A
	.byte	nRst, 0x30, nRst, 0x06

Snd_SKCredits_Loop21:
	.byte	nFs5, 0x0C, nFs5
	smpsLoop            0x00, 0x04, Snd_SKCredits_Loop21

Snd_SKCredits_Loop22:
	.byte	nG5, nC5
	smpsLoop            0x00, 0x04, Snd_SKCredits_Loop22
	smpsLoop            0x01, 0x02, Snd_SKCredits_Loop21

Snd_SKCredits_Loop23:
	.byte	nA5, nD5
	smpsLoop            0x00, 0x04, Snd_SKCredits_Loop23

Snd_SKCredits_Loop24:
	.byte	nEb5, nEb5
	smpsLoop            0x00, 0x04, Snd_SKCredits_Loop24

Snd_SKCredits_Loop25:
	.byte	nG5, nG5
	smpsLoop            0x00, 0x04, Snd_SKCredits_Loop25
	.byte	nG5, nG5, nG5, nC5, nRst, 0x2A, nRst, 0x60, nRst, nRst, nRst, nRst
	.byte	nRst, nRst, nRst, nRst, nRst, nRst, nRst, nRst, nRst, nRst, nRst
	smpsSetNote         0x34
	smpsSetVol          0x5F
	smpsPSGvoice        sTone_04
	smpsAlterNote       0x00
	smpsCall            Snd_SKCredits_Call06
	.byte	nC4, 0x0C, nC4, 0x06, nC5, 0x0C, nC4, 0x06, nE4, nE5, 0x0C, nE4
	.byte	0x06, nE4, nE5, nD5, nD5, nC5, 0x0C, nB3, nB3, 0x06, nB4, 0x0C
	.byte	nB3, 0x06, nE4, nE5, 0x0C, nE4, 0x06, nE4, nE4, 0x1E, nC4, 0x0C
	.byte	nC4, 0x06, nC5, 0x0C, nC4, 0x06, nE4, nE5, 0x0C, nE4, 0x06, nE4
	.byte	nE5, nD5, nC5, nA4, 0x0C, nB3, nB3, 0x06, nB4, 0x0C, nB3, 0x06
	.byte	nE4, nE5, 0x0C, nE4, 0x06, nE4, nE4, 0x1E, smpsNoAttack, 0x24, nRst, 0x0C
	.byte	nRst, 0x60, nRst, nRst, nRst, nRst, nRst, nRst, nRst, nRst, nRst, nRst
	.byte	nRst, nRst, nRst, nRst, nRst, nRst, nRst, nRst, nRst, nRst, nRst, nRst
	.byte	nRst, nRst, nRst, nRst, nRst, nRst, nRst, nRst, nRst, nRst, 0x60, nRst
	.byte	0x60, nRst, nRst, nRst, nRst, nRst, nRst, nRst, nRst, nRst, nRst, nRst
	.byte	nRst, nRst, nRst, nRst, nRst, nRst, nRst, nRst, nRst, 0x60, nRst
	smpsSetVol          0x17
	smpsSetNote         0x41
	smpsPSGvoice        sTone_0C
	.byte	nRst, 0x03, nB1, 0x06, nE2, nCs2, nFs2
	smpsPSGAlterVol     0xFF
	.byte	nD2, nAb2, nE2, nA2
	smpsPSGAlterVol     0xFF
	.byte	nFs2, nB2, nAb2, nCs3
	smpsPSGAlterVol     0xFF
	.byte	nA2, nD3, nB2, nE3
	smpsPSGAlterVol     0xFF
	.byte	nB2, 0x06, nE3, nCs3, nFs3
	smpsPSGAlterVol     0xFF
	.byte	nD3, nAb3, nE3, nA3
	smpsPSGAlterVol     0xFF
	.byte	nFs3, nB3, nAb3, nCs4
	smpsPSGAlterVol     0xFF
	.byte	nA3, nD4, nB3, nE4, 0x03
	smpsPSGAlterVol     0xFD
	smpsPSGvoice        sTone_0A
	.byte	nRst, 0x06, nCs4, 0x0C, nA3, nCs4, nA3, nCs4, nA3, nCs4, nA3, nCs4
	.byte	nA3, nCs4, nA3, nCs4, nA3, nCs4, nA3, nCs4, 0x0C, nA3, nCs4, nA3
	.byte	nCs4, nA3, nCs4, nA3, nCs4, nA3, nCs4, nA3, nCs5, nA4, nCs5, nA4
	.byte	nCs4, 0x0C, nA3, nCs4, nA3, nCs4, nA3, nCs4, nA3, nCs4, nA3, nCs4
	.byte	nA3, nCs4, nA3, nCs4, nA3, nCs4, 0x0C, nA3, nCs4, nA3, nCs4, nA3
	.byte	nCs4, nA3, nB3, nG3, nB3, nG3, nCs4, nA3, nCs4
	smpsPSGAlterVol     0x01

Snd_SKCredits_Loop26:
	.byte	nE5
	smpsPSGAlterVol     0x01
	.byte	nA5
	smpsPSGAlterVol     0x01
	smpsLoop            0x00, 0x05, Snd_SKCredits_Loop26
	smpsStop

/*  PSG3 Data */
Snd_SKCredits_PSG3:
	smpsPSGform         0xE7
	smpsSetVol          0x67
	.byte	nRst, 0x30

Snd_SKCredits_Loop1D:
	smpsPSGvoice        sTone_01
	.byte	nMaxPSG1, 0x0C, 0x0C
	smpsPSGvoice        sTone_04
	.byte	0x0C
	smpsPSGvoice        sTone_01
	.byte	0x06
	smpsPSGvoice        sTone_04
	.byte	0x06
	smpsPSGvoice        sTone_01
	.byte	0x0C, 0x0C
	smpsPSGvoice        sTone_04
	.byte	0x18
	smpsLoop            0x00, 0x02, Snd_SKCredits_Loop1D
	smpsPSGvoice        sTone_01
	.byte	nMaxPSG1, 0x0C, 0x0C
	smpsPSGvoice        sTone_04
	.byte	0x0C
	smpsPSGvoice        sTone_01
	.byte	0x06
	smpsPSGvoice        sTone_04
	.byte	0x06
	smpsPSGvoice        sTone_01
	.byte	0x0C, 0x0C
	smpsPSGvoice        sTone_04
	.byte	0x0C
	smpsPSGvoice        sTone_01
	.byte	0x0C, nMaxPSG1, 0x0C, 0x0C
	smpsPSGvoice        sTone_04
	.byte	0x0C
	smpsPSGvoice        sTone_01
	.byte	0x06
	smpsPSGvoice        sTone_04
	.byte	0x06
	smpsPSGvoice        sTone_01
	.byte	0x0C, 0x0C, 0x0C, 0x0C

Snd_SKCredits_Loop1E:
	smpsPSGvoice        sTone_01
	.byte	0x0C, 0x0C, 0x0C, 0x0C, 0x0C, 0x0C, 0x0C
	smpsPSGvoice        sTone_04
	.byte	0x0C
	smpsLoop            0x00, 0x03, Snd_SKCredits_Loop1E
	.byte	nRst, 0x60, nRst, 0x60, nRst, nRst, nRst, nRst, nRst, nRst, nRst, nRst
	.byte	nRst, nRst, nRst, nRst, nRst, nRst, nRst
	smpsSetNote         0x34
	smpsSetVol          0x77
	.byte	nRst, 0x3C
	smpsPSGvoice        sTone_01
	.byte	nMaxPSG1, 0x06, nMaxPSG1, 0x12
	smpsPSGvoice        sTone_08
	.byte	nMaxPSG1, 0x48
	smpsPSGvoice        sTone_01
	.byte	nMaxPSG1, 0x06, nMaxPSG1, 0x12
	smpsPSGvoice        sTone_08
	.byte	nMaxPSG1, 0x60, 0x60, 0x48
	smpsPSGvoice        sTone_01
	.byte	nMaxPSG1, 0x06, nMaxPSG1, 0x12
	smpsPSGvoice        sTone_08
	.byte	nMaxPSG1, 0x5A
	smpsPSGvoice        sTone_01
	.byte	nMaxPSG1, 0x06
	smpsPSGvoice        sTone_08
	.byte	nMaxPSG1, 0x5A
	smpsPSGvoice        sTone_01
	.byte	nMaxPSG1, 0x06, nRst, 0x6C, nRst, 0x30, nRst, 0x60, nRst, nRst, nRst, nRst
	.byte	nRst, nRst, nRst, nRst, nRst, nRst, nRst, nRst, nRst, nRst, nRst, nRst
	.byte	nRst, nRst, nRst, nRst, nRst, nRst, nRst, nRst, nRst, nRst, nRst, nRst
	.byte	nRst, nRst, nRst, nRst, 0x60
	smpsSetNote         0x40
	smpsSetVol          0x68

Snd_SKCredits_Loop1F:
	smpsPSGvoice        sTone_01
	.byte	nMaxPSG2, 0x06, nMaxPSG2
	smpsPSGvoice        sTone_04
	.byte	nMaxPSG2, 0x0C
	smpsLoop            0x00, 0x50, Snd_SKCredits_Loop1F

Snd_SKCredits_Loop20:
	smpsPSGvoice        sTone_04
	.byte	nMaxPSG2, 0x0C
	smpsPSGvoice        sTone_01
	.byte	nMaxPSG2, 0x06, nMaxPSG2
	smpsLoop            0x00, 0x08, Snd_SKCredits_Loop20
	smpsStop

/*  Unreachable */
	smpsPSGvoice        sTone_01
	.byte	nMaxPSG1, 0x06, 0x06
	smpsPSGvoice        sTone_08
	.byte	0x0C
	smpsPSGvoice        sTone_01
	.byte	nMaxPSG1, 0x06, 0x06
	smpsPSGvoice        sTone_08
	.byte	0x0C
	smpsPSGvoice        sTone_01
	.byte	nMaxPSG1, 0x06, 0x06, 0x06, 0x06
	smpsPSGvoice        sTone_01
	.byte	nMaxPSG1, 0x06, 0x06
	smpsPSGvoice        sTone_08
	.byte	0x0C
	smpsReturn

/*  Unreachable */
Snd_SKCredits_Loop34:
	smpsPSGvoice        sTone_01
	.byte	nMaxPSG1, 0x06, 0x06, 0x06, 0x06
	smpsLoop            0x02, 0x03, Snd_SKCredits_Loop34
	smpsReturn

/*  DAC Data */
Snd_SKCredits_DAC:
	smpsFade            0x00
	.byte	nRst, 0x02, dElectricHighTom, 0x04, 0x04, 0x04, dElectricMidTom, 0x05, dElectricMidTom, 0x06, dElectricLowTom, nRst
	.byte	nRst, nRst, 0x05, dCrashCymbal, 0x12, dKickS3, dKickS3, 0x18, 0x06, 0x06, dSnareS3, 0x0C
	.byte	dCrashCymbal, nRst, dKickS3, nRst, 0x06, dKickS3, nRst, 0x0C, dKickS3, 0x18, dSnareS3, dCrashCymbal
	.byte	0x12, dKickS3, dKickS3, 0x18, 0x06, 0x06, dSnareS3, 0x0C, dCrashCymbal, nRst, dKickS3, nRst
	.byte	0x06, dKickS3, nRst, 0x0C, dSnareS3, 0x06, dSnareS3, dSnareS3, nRst, dSnareS3, nRst, dSnareS3
	.byte	dSnareS3, dKickS3, 0x18, dSnareS3, dKickS3, 0x0C, dKickS3, dSnareS3, dKickS3, nRst, dKickS3, dSnareS3
	.byte	nRst, dKickS3, dKickS3, dSnareS3, dKickS3, nRst, dKickS3, dSnareS3, nRst, dKickS3, dKickS3, dSnareS3
	.byte	dKickS3, dSnareS3, 0x06, dSnareS3, nRst, dSnareS3, nRst, dSnareS3, dSnareS3, nRst, dSnareS3, 0x0C
	.byte	dElectricHighTom, 0x06, dElectricMidTom, dElectricLowTom, nRst, nRst, nRst
	smpsSetTempoMod     0x1F
	.byte	dKickS3, 0x18, dKickS3, dKickS3, dKickS3, 0x0C, dSnareS3, 0x06, dKickS3, dSnareS3, dKickS3, 0x0C
	.byte	dKickS3, 0x12, dSnareS3, 0x06, dKickS3, 0x0C, dKickS3, dKickS3, 0x06, dSnareS3, 0x0C, dKickS3
	.byte	dKickS3, 0x18, dKickS3, dKickS3, dKickS3, 0x0C, dSnareS3, 0x06, dKickS3, dSnareS3, dKickS3, 0x0C
	.byte	dKickS3, 0x12, dSnareS3, 0x06, dKickS3, dSnareS3, 0x0C, dSnareS3, dSnareS3, 0x06, dSnareS3, dSnareS3
	.byte	0x0C

Snd_SKCredits_Loop00:
	.byte	dKickS3, 0x0C, dSnareS3, dSnareS3, dKickS3, dKickS3, dKickS3, dSnareS3, 0x18, dSnareS3, 0x06, dKickS3
	.byte	0x0C, dKickS3, 0x12, dSnareS3, 0x06, dKickS3, 0x0C, dKickS3, dKickS3, 0x06, dSnareS3, 0x0C
	.byte	dKickS3
	smpsLoop            0x00, 0x03, Snd_SKCredits_Loop00
	.byte	dKickS3, 0x0C, dSnareS3, dSnareS3, dKickS3, dKickS3, dKickS3, dSnareS3, 0x18, dSnareS3, 0x06, dKickS3
	.byte	0x0C, dKickS3, 0x12, dSnareS3, 0x06, dKickS3, 0x0C, dKickS3, dKickS3, 0x06, dSnareS3, dSnareS3
	.byte	dSnareS3, dSnareS3, dKickS3, 0x0C, dSnareS3, dKickS3, dSnareS3, dKickS3, dSnareS3, dSnareS3, dSnareS3, dKickS3
	.byte	0x06, dSnareS3, 0x12, dSnareS3, 0x18, dSnareS3, 0x06, dKickS3, dKickS3, dSnareS3, 0x0C, dSnareS3
	.byte	dSnareS3, 0x06, dKickS3, 0x0C, dSnareS3, dKickS3, dSnareS3, dKickS3, dSnareS3, dSnareS3, dSnareS3, dKickS3
	.byte	0x06, dSnareS3, 0x12, dSnareS3, 0x18, dElectricHighTom, 0x02, dElectricMidTom, 0x04, dElectricLowTom, 0x06, dSnareS3
	.byte	dSnareS3, dSnareS3, nRst, nRst, nRst

Snd_SKCredits_Loop01:
	.byte	dKickS3, 0x06, dKickS3, dKickS3, dKickS3, dSnareS3, 0x24, dElectricFloorTom, 0x06, dElectricFloorTom, dSnareS3, 0x06
	.byte	dKickS3, 0x06, dMidpitchSnare, 0x0C
	smpsLoop            0x01, 0x02, Snd_SKCredits_Loop01
	.byte	dKickS3, 0x0C, 0x06, 0x06, dSnareS3, 0x0C, dKickS3, 0x0C, 0x06, dKickS3, 0x12, dSnareS3
	.byte	0x0C, dKickS3, 0x06, 0x12, 0x0C, dSnareS3, 0x06, dKickS3, 0x12, 0x12, dSnareS3, 0x06
	.byte	0x06, 0x06, 0x0C, dKickS3, 0x0C, 0x06, 0x06, dSnareS3, 0x0C, dKickS3, 0x06, 0x12
	.byte	dElectricFloorTom, 0x06, dElectricFloorTom, dSnareS3, dKickS3, dMidpitchSnare, 0x0C, dKickS3, 0x0C, 0x06, dSnareS3, dKickS3
	.byte	dKickS3, dSnareS3, 0x18, dKickS3, 0x06, dKickS3, dSnareS3, dElectricFloorTom, dMidpitchSnare, 0x0C, dKickS3, 0x0C
	.byte	0x06, 0x06, dSnareS3, 0x0C, dKickS3, 0x06, 0x12, dElectricFloorTom, 0x06, dElectricFloorTom, dSnareS3, dKickS3
	.byte	dMidpitchSnare, 0x0C, dMidTomS3, 0x06, dLowTomS3, 0x03, 0x03, dFloorTomS3, 0x06, dMidTomS3, dLowTomS3, 0x03
	.byte	0x03, dFloorTomS3, 0x06, dCrashCymbal, 0x0C, nRst, 0x30, nRst, 0x06
	smpsSetTempoMod     0x08
	.byte	dKickS3, dKickS3, nRst, dSnareS3, nRst, dSnareS3, dSnareS3

Snd_SKCredits_Loop02:
	.byte	dKickS3, 0x18, dSnareS3, 0x06, dKickS3, dKickS3, dKickS3, dKickS3, 0x0C, dKickS3, dSnareS3, 0x18
	.byte	dKickS3, dSnareS3, 0x06, dKickS3, dKickS3, dKickS3, dKickS3, 0x0C, dKickS3, dSnareS3, 0x18, dKickS3
	.byte	dSnareS3, 0x06, dKickS3, dKickS3, dKickS3, dKickS3, 0x0C, dKickS3, dSnareS3, 0x18, dSnareS3, 0x06
	.byte	dSnareS3, dKickS3, 0x0C, dKickS3, dSnareS3, 0x06, dSnareS3, dKickS3, 0x0C, dKickS3, dSnareS3, 0x06
	.byte	dSnareS3, dSnareS3, 0x0C
	smpsLoop            0x00, 0x03, Snd_SKCredits_Loop02
	.byte	dKickS3, 0x18, dSnareS3, 0x06, dKickS3, dKickS3, dKickS3, dKickS3, 0x0C, dKickS3, dSnareS3, 0x18
	.byte	dKickS3, dSnareS3, 0x06, dKickS3, dKickS3, dKickS3, dKickS3, 0x0C, dKickS3, dSnareS3, 0x18, dKickS3
	.byte	dSnareS3, 0x06, dKickS3, dKickS3, dKickS3, dKickS3, 0x0C, dKickS3, dSnareS3, 0x18, dSnareS3, 0x06
	.byte	dSnareS3, dElectricHighTom, 0x0C, dElectricLowTom, dSnareS3, 0x06, dSnareS3, dElectricHighTom, 0x0C, dElectricLowTom, dSnareS3, 0x02
	.byte	0x04, 0x06, 0x06, 0x06
	smpsSetTempoMod     0x10

Snd_SKCredits_Loop03:
	.byte	dKickS3, 0x18, dSnareS3, 0x0C, dKickS3, dKickS3, dKickS3, dSnareS3, 0x18
	smpsLoop            0x00, 0x03, Snd_SKCredits_Loop03
	.byte	dKickS3, 0x18, dSnareS3, 0x0C, dKickS3, dKickS3, dKickS3, dSnareS3, dSnareS3, 0x06, dSnareS3

Snd_SKCredits_Loop04:
	.byte	dKickS3, 0x18, dSnareS3, 0x0C, dKickS3, dKickS3, dKickS3, dSnareS3, 0x18
	smpsLoop            0x00, 0x03, Snd_SKCredits_Loop04
	.byte	dKickS3, 0x18, dSnareS3, 0x0C, dKickS3, dKickS3, dSnareS3, 0x06, dSnareS3, dSnareS3, dSnareS3, dSnareS3
	.byte	dSnareS3
	smpsSetTempoMod     0x08

Snd_SKCredits_Loop05:
	.byte	dKickS3, 0x18, dSnareS3, dKickS3, dSnareS3
	smpsLoop            0x00, 0x07, Snd_SKCredits_Loop05
	.byte	dCrashCymbal, 0x30, dElectricFloorTom, 0x04, 0x04, 0x04, 0x06, 0x06, dTightSnare, dTightSnare, dMidpitchSnare, 0x0C
	.byte	dKickS3, 0x06, nRst, nRst, nRst, dSnareS3, nRst, nRst, dSnareS3, nRst, dKickS3, dKickS3
	.byte	nRst, dSnareS3, dSnareS3, nRst, nRst
	smpsSetTempoMod     0x0C
	smpsPan             panCenter, 0x00
	.byte	dCrashCymbal, 0x60, nRst, nRst, nRst, 0x17, nRst, 0x0C, dSnareS3, nRst, dSnareS3, nRst
	.byte	dKickS3, 0x06, dKickS3

Snd_SKCredits_Loop06:
	smpsPan             panCenter, 0x00
	.byte	dKickS3, 0x05, dKickS3, dKickS3, 0x0E, nRst, 0x0C, dMuffledSnare, 0x05, dMuffledSnare, dMuffledSnare, 0x0E
	.byte	dMuffledSnare, 0x0C, nRst, dKickS3, 0x06, dKickS3, dKickS3, 0x0C, dKickS3, nRst, dMuffledSnare, 0x05
	.byte	dMuffledSnare, dMuffledSnare, 0x0E, dMuffledSnare, 0x0C, nRst, dKickS3, dKickS3, 0x0C, dKickS3, nRst, dMuffledSnare
	.byte	0x05, dMuffledSnare, dMuffledSnare, 0x0E, dMuffledSnare, 0x0C, nRst, dKickS3, 0x06, dKickS3, dKickS3, 0x0C
	.byte	dKickS3, nRst, dMuffledSnare, 0x05, dMuffledSnare, dMuffledSnare, 0x08
	smpsPan             panLeft, 0x00
	.byte	dElectricMidTom, 0x06, dElectricMidTom, dElectricMidTom
	smpsPan             panCenter, 0x00
	.byte	dElectricLowTom, dElectricLowTom
	smpsPan             panRight, 0x00
	.byte	dElectricFloorTom, nRst
	smpsLoop            0x00, 0x04, Snd_SKCredits_Loop06
	smpsPan             panCenter, 0x00
	.byte	dKickS3, 0x05, dKickS3, dKickS3, 0x0E, nRst, 0x0C, dMuffledSnare, 0x05, dMuffledSnare, dMuffledSnare, 0x0E
	.byte	dMuffledSnare, 0x0C, nRst, dKickS3, 0x06, dKickS3, dKickS3, 0x0C, dKickS3, nRst, dMuffledSnare, 0x05
	.byte	dMuffledSnare, dMuffledSnare, 0x0E, dMuffledSnare, 0x0C, nRst, dKickS3, dKickS3, 0x0C, dKickS3, nRst, dMuffledSnare
	.byte	0x05, dMuffledSnare, dMuffledSnare, 0x0E, dKickS3, 0x06, dKickS3, dMuffledSnare, dMuffledSnare, dMuffledSnare, dMuffledSnare, nRst
	.byte	0x01, dCrashCymbal, 0x30, nRst, 0x0C, dSnareS3, dSnareS3, dSnareS3, 0x06, 0x06, dCrashCymbal, 0x18
	.byte	dSnareS3, 0x0C, dKickS3, dKickS3, 0x06, dKickS3, dKickS3, 0x0C, dSnareS3, 0x18, dKickS3, 0x18
	.byte	dSnareS3, 0x0C, dKickS3, dKickS3, 0x06, dKickS3, dKickS3, 0x0C, dSnareS3, 0x18, dKickS3, 0x18
	.byte	dSnareS3, 0x0C, dKickS3, dKickS3, 0x06, dKickS3, dKickS3, 0x0C, dSnareS3, 0x18, dKickS3, 0x18
	.byte	dSnareS3, 0x0C, dKickS3, dKickS3, 0x06, dKickS3, dKickS3, 0x0C, dSnareS3, 0x06, 0x06, nRst
	.byte	nRst, dCrashCymbal, 0x18, dSnareS3, 0x0C, dKickS3, dKickS3, 0x06, dKickS3, dKickS3, 0x0C, dSnareS3
	.byte	0x18, dKickS3, 0x18, dSnareS3, 0x0C, dKickS3, dKickS3, 0x06, dKickS3, dKickS3, 0x0C, dSnareS3
	.byte	0x06, 0x06, nRst, nRst, dKickS3, 0x18, dSnareS3, dKickS3, 0x06, dKickS3, dKickS3, 0x0C
	.byte	dSnareS3, 0x18, dKickS3, 0x18, dSnareS3, 0x12, dKickS3, 0x06, dKickS3, dKickS3, dKickS3, 0x0C
	.byte	dSnareS3, dCrashCymbal, 0x60, nRst, 0x60
	smpsFade            0x01
	smpsStop

Snd_SKCredits_Voices:
/* 	Voice 0x00 */
/* 	0x38 */
/* 	0x4C, 0x33, 0x74, 0x41, 	0x1F, 0x1F, 0x1F, 0x1F, 	0x11, 0x0F, 0x0D, 0x0D */
/* 	0x00, 0x0F, 0x00, 0x00, 	0xFF, 0xFF, 0xFF, 0xFF, 	0x21, 0x16, 0x26, 0x81 */
	smpsVcAlgorithm     0x00
	smpsVcFeedback      0x07
	smpsVcUnusedBits    0x00
	smpsVcDetune        0x04, 0x07, 0x03, 0x04
	smpsVcCoarseFreq    0x01, 0x04, 0x03, 0x0C
	smpsVcRateScale     0x00, 0x00, 0x00, 0x00
	smpsVcAttackRate    0x1F, 0x1F, 0x1F, 0x1F
	smpsVcAmpMod        0x00, 0x00, 0x00, 0x00
	smpsVcDecayRate1    0x0D, 0x0D, 0x0F, 0x11
	smpsVcDecayRate2    0x00, 0x00, 0x0F, 0x00
	smpsVcDecayLevel    0x0F, 0x0F, 0x0F, 0x0F
	smpsVcReleaseRate   0x0F, 0x0F, 0x0F, 0x0F
	smpsVcTotalLevel    0x01, 0x26, 0x16, 0x21

/* 	Voice 0x01 */
/* 	0x35 */
/* 	0x40, 0x30, 0x50, 0x30, 	0x18, 0x1F, 0x1F, 0x1F, 	0x0D, 0x0B, 0x09, 0x09 */
/* 	0x00, 0x00, 0x00, 0x00, 	0xEF, 0xEF, 0xEF, 0xEF, 	0x14, 0x85, 0x85, 0x85 */
	smpsVcAlgorithm     0x05
	smpsVcFeedback      0x06
	smpsVcUnusedBits    0x00
	smpsVcDetune        0x03, 0x05, 0x03, 0x04
	smpsVcCoarseFreq    0x00, 0x00, 0x00, 0x00
	smpsVcRateScale     0x00, 0x00, 0x00, 0x00
	smpsVcAttackRate    0x1F, 0x1F, 0x1F, 0x18
	smpsVcAmpMod        0x00, 0x00, 0x00, 0x00
	smpsVcDecayRate1    0x09, 0x09, 0x0B, 0x0D
	smpsVcDecayRate2    0x00, 0x00, 0x00, 0x00
	smpsVcDecayLevel    0x0E, 0x0E, 0x0E, 0x0E
	smpsVcReleaseRate   0x0F, 0x0F, 0x0F, 0x0F
	smpsVcTotalLevel    0x05, 0x05, 0x05, 0x14

/* 	Voice 0x02 */
/* 	0x3B */
/* 	0x71, 0x12, 0x13, 0x71, 	0x11, 0x10, 0x14, 0x1A, 	0x0C, 0x09, 0x0A, 0x02 */
/* 	0x00, 0x06, 0x04, 0x07, 	0x1F, 0xEF, 0xFF, 0xEF, 	0x1B, 0x24, 0x24, 0x81 */
	smpsVcAlgorithm     0x03
	smpsVcFeedback      0x07
	smpsVcUnusedBits    0x00
	smpsVcDetune        0x07, 0x01, 0x01, 0x07
	smpsVcCoarseFreq    0x01, 0x03, 0x02, 0x01
	smpsVcRateScale     0x00, 0x00, 0x00, 0x00
	smpsVcAttackRate    0x1A, 0x14, 0x10, 0x11
	smpsVcAmpMod        0x00, 0x00, 0x00, 0x00
	smpsVcDecayRate1    0x02, 0x0A, 0x09, 0x0C
	smpsVcDecayRate2    0x07, 0x04, 0x06, 0x00
	smpsVcDecayLevel    0x0E, 0x0F, 0x0E, 0x01
	smpsVcReleaseRate   0x0F, 0x0F, 0x0F, 0x0F
	smpsVcTotalLevel    0x01, 0x24, 0x24, 0x1B

/* 	Voice 0x03 */
/* 	0x34 */
/* 	0x61, 0x03, 0x00, 0x61, 	0x1F, 0x1E, 0x51, 0xD0, 	0x0C, 0x08, 0x01, 0x01 */
/* 	0x08, 0x00, 0x09, 0x00, 	0x8F, 0xFF, 0xFF, 0xFF, 	0x11, 0x85, 0x19, 0x86 */
	smpsVcAlgorithm     0x04
	smpsVcFeedback      0x06
	smpsVcUnusedBits    0x00
	smpsVcDetune        0x06, 0x00, 0x00, 0x06
	smpsVcCoarseFreq    0x01, 0x00, 0x03, 0x01
	smpsVcRateScale     0x03, 0x01, 0x00, 0x00
	smpsVcAttackRate    0x10, 0x11, 0x1E, 0x1F
	smpsVcAmpMod        0x00, 0x00, 0x00, 0x00
	smpsVcDecayRate1    0x01, 0x01, 0x08, 0x0C
	smpsVcDecayRate2    0x00, 0x09, 0x00, 0x08
	smpsVcDecayLevel    0x0F, 0x0F, 0x0F, 0x08
	smpsVcReleaseRate   0x0F, 0x0F, 0x0F, 0x0F
	smpsVcTotalLevel    0x06, 0x19, 0x05, 0x11

/* 	Voice 0x04 */
/* 	0x1B */
/* 	0x63, 0x50, 0x21, 0x41, 	0x15, 0x0F, 0x16, 0x13, 	0x10, 0x01, 0x06, 0x05 */
/* 	0x05, 0x01, 0x05, 0x01, 	0xCF, 0x0F, 0xDF, 0xCF, 	0x21, 0x12, 0x2A, 0x81 */
	smpsVcAlgorithm     0x03
	smpsVcFeedback      0x03
	smpsVcUnusedBits    0x00
	smpsVcDetune        0x04, 0x02, 0x05, 0x06
	smpsVcCoarseFreq    0x01, 0x01, 0x00, 0x03
	smpsVcRateScale     0x00, 0x00, 0x00, 0x00
	smpsVcAttackRate    0x13, 0x16, 0x0F, 0x15
	smpsVcAmpMod        0x00, 0x00, 0x00, 0x00
	smpsVcDecayRate1    0x05, 0x06, 0x01, 0x10
	smpsVcDecayRate2    0x01, 0x05, 0x01, 0x05
	smpsVcDecayLevel    0x0C, 0x0D, 0x00, 0x0C
	smpsVcReleaseRate   0x0F, 0x0F, 0x0F, 0x0F
	smpsVcTotalLevel    0x01, 0x2A, 0x12, 0x21

/* 	Voice 0x05 */
/* 	0x34 */
/* 	0x31, 0x30, 0x71, 0x31, 	0x16, 0x1B, 0x13, 0x1F, 	0x13, 0x06, 0x08, 0x08 */
/* 	0x08, 0x0B, 0x0C, 0x0D, 	0x9F, 0x8F, 0x9F, 0x8F, 	0x0F, 0x8C, 0x12, 0x83 */
	smpsVcAlgorithm     0x04
	smpsVcFeedback      0x06
	smpsVcUnusedBits    0x00
	smpsVcDetune        0x03, 0x07, 0x03, 0x03
	smpsVcCoarseFreq    0x01, 0x01, 0x00, 0x01
	smpsVcRateScale     0x00, 0x00, 0x00, 0x00
	smpsVcAttackRate    0x1F, 0x13, 0x1B, 0x16
	smpsVcAmpMod        0x00, 0x00, 0x00, 0x00
	smpsVcDecayRate1    0x08, 0x08, 0x06, 0x13
	smpsVcDecayRate2    0x0D, 0x0C, 0x0B, 0x08
	smpsVcDecayLevel    0x08, 0x09, 0x08, 0x09
	smpsVcReleaseRate   0x0F, 0x0F, 0x0F, 0x0F
	smpsVcTotalLevel    0x03, 0x12, 0x0C, 0x0F

/* 	Voice 0x06 */
/* 	0x07 */
/* 	0x14, 0x76, 0x72, 0x71, 	0x9F, 0x9F, 0x1F, 0x1F, 	0x0C, 0x0C, 0x0C, 0x0C */
/* 	0x0E, 0x0E, 0x03, 0x02, 	0x0F, 0x0F, 0xDF, 0xDF, 	0x81, 0x81, 0x81, 0x81 */
	smpsVcAlgorithm     0x07
	smpsVcFeedback      0x00
	smpsVcUnusedBits    0x00
	smpsVcDetune        0x07, 0x07, 0x07, 0x01
	smpsVcCoarseFreq    0x01, 0x02, 0x06, 0x04
	smpsVcRateScale     0x00, 0x00, 0x02, 0x02
	smpsVcAttackRate    0x1F, 0x1F, 0x1F, 0x1F
	smpsVcAmpMod        0x00, 0x00, 0x00, 0x00
	smpsVcDecayRate1    0x0C, 0x0C, 0x0C, 0x0C
	smpsVcDecayRate2    0x02, 0x03, 0x0E, 0x0E
	smpsVcDecayLevel    0x0D, 0x0D, 0x00, 0x00
	smpsVcReleaseRate   0x0F, 0x0F, 0x0F, 0x0F
	smpsVcTotalLevel    0x01, 0x01, 0x01, 0x01

/* 	Voice 0x07 */
/* 	0x20 */
/* 	0x36, 0x35, 0x30, 0x31, 	0xDF, 0xDF, 0x9F, 0x9F, 	0x07, 0x06, 0x09, 0x06 */
/* 	0x07, 0x06, 0x06, 0x08, 	0x20, 0x10, 0x10, 0xF8, 	0x19, 0x37, 0x13, 0x80 */
	smpsVcAlgorithm     0x00
	smpsVcFeedback      0x04
	smpsVcUnusedBits    0x00
	smpsVcDetune        0x03, 0x03, 0x03, 0x03
	smpsVcCoarseFreq    0x01, 0x00, 0x05, 0x06
	smpsVcRateScale     0x02, 0x02, 0x03, 0x03
	smpsVcAttackRate    0x1F, 0x1F, 0x1F, 0x1F
	smpsVcAmpMod        0x00, 0x00, 0x00, 0x00
	smpsVcDecayRate1    0x06, 0x09, 0x06, 0x07
	smpsVcDecayRate2    0x08, 0x06, 0x06, 0x07
	smpsVcDecayLevel    0x0F, 0x01, 0x01, 0x02
	smpsVcReleaseRate   0x08, 0x00, 0x00, 0x00
	smpsVcTotalLevel    0x00, 0x13, 0x37, 0x19

/* 	Voice 0x08 */
/* 	0x34 */
/* 	0x33, 0x41, 0x7E, 0x74, 	0x5B, 0x9F, 0x5F, 0x1F, 	0x04, 0x07, 0x07, 0x08 */
/* 	0x00, 0x00, 0x00, 0x00, 	0xFF, 0xFF, 0xEF, 0xFF, 	0x23, 0x90, 0x29, 0x97 */
	smpsVcAlgorithm     0x04
	smpsVcFeedback      0x06
	smpsVcUnusedBits    0x00
	smpsVcDetune        0x07, 0x07, 0x04, 0x03
	smpsVcCoarseFreq    0x04, 0x0E, 0x01, 0x03
	smpsVcRateScale     0x00, 0x01, 0x02, 0x01
	smpsVcAttackRate    0x1F, 0x1F, 0x1F, 0x1B
	smpsVcAmpMod        0x00, 0x00, 0x00, 0x00
	smpsVcDecayRate1    0x08, 0x07, 0x07, 0x04
	smpsVcDecayRate2    0x00, 0x00, 0x00, 0x00
	smpsVcDecayLevel    0x0F, 0x0E, 0x0F, 0x0F
	smpsVcReleaseRate   0x0F, 0x0F, 0x0F, 0x0F
	smpsVcTotalLevel    0x17, 0x29, 0x10, 0x23

/* 	Voice 0x09 */
/* 	0x3A */
/* 	0x01, 0x07, 0x31, 0x71, 	0x8E, 0x8E, 0x8D, 0x53, 	0x0E, 0x0E, 0x0E, 0x03 */
/* 	0x00, 0x00, 0x00, 0x07, 	0x1F, 0xFF, 0x1F, 0x0F, 	0x18, 0x28, 0x27, 0x80 */
	smpsVcAlgorithm     0x02
	smpsVcFeedback      0x07
	smpsVcUnusedBits    0x00
	smpsVcDetune        0x07, 0x03, 0x00, 0x00
	smpsVcCoarseFreq    0x01, 0x01, 0x07, 0x01
	smpsVcRateScale     0x01, 0x02, 0x02, 0x02
	smpsVcAttackRate    0x13, 0x0D, 0x0E, 0x0E
	smpsVcAmpMod        0x00, 0x00, 0x00, 0x00
	smpsVcDecayRate1    0x03, 0x0E, 0x0E, 0x0E
	smpsVcDecayRate2    0x07, 0x00, 0x00, 0x00
	smpsVcDecayLevel    0x00, 0x01, 0x0F, 0x01
	smpsVcReleaseRate   0x0F, 0x0F, 0x0F, 0x0F
	smpsVcTotalLevel    0x00, 0x27, 0x28, 0x18

/* 	Voice 0x0A */
/* 	0x38 */
/* 	0x63, 0x31, 0x31, 0x31, 	0x10, 0x13, 0x1A, 0x1B, 	0x0E, 0x00, 0x00, 0x00 */
/* 	0x00, 0x00, 0x00, 0x00, 	0x3F, 0x0F, 0x0F, 0x0F, 	0x1A, 0x19, 0x1A, 0x80 */
	smpsVcAlgorithm     0x00
	smpsVcFeedback      0x07
	smpsVcUnusedBits    0x00
	smpsVcDetune        0x03, 0x03, 0x03, 0x06
	smpsVcCoarseFreq    0x01, 0x01, 0x01, 0x03
	smpsVcRateScale     0x00, 0x00, 0x00, 0x00
	smpsVcAttackRate    0x1B, 0x1A, 0x13, 0x10
	smpsVcAmpMod        0x00, 0x00, 0x00, 0x00
	smpsVcDecayRate1    0x00, 0x00, 0x00, 0x0E
	smpsVcDecayRate2    0x00, 0x00, 0x00, 0x00
	smpsVcDecayLevel    0x00, 0x00, 0x00, 0x03
	smpsVcReleaseRate   0x0F, 0x0F, 0x0F, 0x0F
	smpsVcTotalLevel    0x00, 0x1A, 0x19, 0x1A

/* 	Voice 0x0B */
/* 	0x02 */
/* 	0x74, 0x51, 0x13, 0x31, 	0x93, 0xD3, 0x12, 0x13, 	0x06, 0x01, 0x01, 0x03 */
/* 	0x0C, 0x13, 0x0C, 0x0B, 	0xFF, 0xEF, 0xDF, 0x8F, 	0x33, 0x13, 0x19, 0x83 */
	smpsVcAlgorithm     0x02
	smpsVcFeedback      0x00
	smpsVcUnusedBits    0x00
	smpsVcDetune        0x03, 0x01, 0x05, 0x07
	smpsVcCoarseFreq    0x01, 0x03, 0x01, 0x04
	smpsVcRateScale     0x00, 0x00, 0x03, 0x02
	smpsVcAttackRate    0x13, 0x12, 0x13, 0x13
	smpsVcAmpMod        0x00, 0x00, 0x00, 0x00
	smpsVcDecayRate1    0x03, 0x01, 0x01, 0x06
	smpsVcDecayRate2    0x0B, 0x0C, 0x13, 0x0C
	smpsVcDecayLevel    0x08, 0x0D, 0x0E, 0x0F
	smpsVcReleaseRate   0x0F, 0x0F, 0x0F, 0x0F
	smpsVcTotalLevel    0x03, 0x19, 0x13, 0x33

/* 	Voice 0x0C */
/* 	0x35 */
/* 	0x02, 0x04, 0x02, 0x01, 	0x10, 0x0A, 0x0C, 0x0E, 	0x07, 0x04, 0x04, 0x04 */
/* 	0x01, 0x0A, 0x0A, 0x0A, 	0x28, 0x1B, 0x1B, 0x1B, 	0x1D, 0x8E, 0x8D, 0x8E */
	smpsVcAlgorithm     0x05
	smpsVcFeedback      0x06
	smpsVcUnusedBits    0x00
	smpsVcDetune        0x00, 0x00, 0x00, 0x00
	smpsVcCoarseFreq    0x01, 0x02, 0x04, 0x02
	smpsVcRateScale     0x00, 0x00, 0x00, 0x00
	smpsVcAttackRate    0x0E, 0x0C, 0x0A, 0x10
	smpsVcAmpMod        0x00, 0x00, 0x00, 0x00
	smpsVcDecayRate1    0x04, 0x04, 0x04, 0x07
	smpsVcDecayRate2    0x0A, 0x0A, 0x0A, 0x01
	smpsVcDecayLevel    0x01, 0x01, 0x01, 0x02
	smpsVcReleaseRate   0x0B, 0x0B, 0x0B, 0x08
	smpsVcTotalLevel    0x0E, 0x0D, 0x0E, 0x1D

/* 	Voice 0x0D */
/* 	0x3D */
/* 	0x00, 0x04, 0x07, 0x0A, 	0x1F, 0x1F, 0x1F, 0x1F, 	0x1F, 0x1D, 0x1D, 0x1D */
/* 	0x05, 0x06, 0x16, 0x00, 	0x09, 0x1F, 0x1F, 0x1F, 	0x34, 0x8D, 0x87, 0x86 */
	smpsVcAlgorithm     0x05
	smpsVcFeedback      0x07
	smpsVcUnusedBits    0x00
	smpsVcDetune        0x00, 0x00, 0x00, 0x00
	smpsVcCoarseFreq    0x0A, 0x07, 0x04, 0x00
	smpsVcRateScale     0x00, 0x00, 0x00, 0x00
	smpsVcAttackRate    0x1F, 0x1F, 0x1F, 0x1F
	smpsVcAmpMod        0x00, 0x00, 0x00, 0x00
	smpsVcDecayRate1    0x1D, 0x1D, 0x1D, 0x1F
	smpsVcDecayRate2    0x00, 0x16, 0x06, 0x05
	smpsVcDecayLevel    0x01, 0x01, 0x01, 0x00
	smpsVcReleaseRate   0x0F, 0x0F, 0x0F, 0x09
	smpsVcTotalLevel    0x06, 0x07, 0x0D, 0x34

/* 	Voice 0x0E */
/* 	0x32 */
/* 	0x38, 0x46, 0x4F, 0x32, 	0x1F, 0x1F, 0x1F, 0x1F, 	0x0E, 0x1C, 0x16, 0x02 */
/* 	0x00, 0x00, 0x00, 0x00, 	0x60, 0x60, 0x40, 0x39, 	0x05, 0x04, 0x18, 0x80 */
	smpsVcAlgorithm     0x02
	smpsVcFeedback      0x06
	smpsVcUnusedBits    0x00
	smpsVcDetune        0x03, 0x04, 0x04, 0x03
	smpsVcCoarseFreq    0x02, 0x0F, 0x06, 0x08
	smpsVcRateScale     0x00, 0x00, 0x00, 0x00
	smpsVcAttackRate    0x1F, 0x1F, 0x1F, 0x1F
	smpsVcAmpMod        0x00, 0x00, 0x00, 0x00
	smpsVcDecayRate1    0x02, 0x16, 0x1C, 0x0E
	smpsVcDecayRate2    0x00, 0x00, 0x00, 0x00
	smpsVcDecayLevel    0x03, 0x04, 0x06, 0x06
	smpsVcReleaseRate   0x09, 0x00, 0x00, 0x00
	smpsVcTotalLevel    0x00, 0x18, 0x04, 0x05

/* 	Voice 0x0F */
/* 	0x34 */
/* 	0x02, 0x02, 0x02, 0x02, 	0x1F, 0x5F, 0x1F, 0x5F, 	0x0E, 0x00, 0x12, 0x00 */
/* 	0x00, 0x08, 0x02, 0x08, 	0x4F, 0x0F, 0x4F, 0x0F, 	0x12, 0x80, 0x12, 0x80 */
	smpsVcAlgorithm     0x04
	smpsVcFeedback      0x06
	smpsVcUnusedBits    0x00
	smpsVcDetune        0x00, 0x00, 0x00, 0x00
	smpsVcCoarseFreq    0x02, 0x02, 0x02, 0x02
	smpsVcRateScale     0x01, 0x00, 0x01, 0x00
	smpsVcAttackRate    0x1F, 0x1F, 0x1F, 0x1F
	smpsVcAmpMod        0x00, 0x00, 0x00, 0x00
	smpsVcDecayRate1    0x00, 0x12, 0x00, 0x0E
	smpsVcDecayRate2    0x08, 0x02, 0x08, 0x00
	smpsVcDecayLevel    0x00, 0x04, 0x00, 0x04
	smpsVcReleaseRate   0x0F, 0x0F, 0x0F, 0x0F
	smpsVcTotalLevel    0x00, 0x12, 0x00, 0x12

/* 	Voice 0x10 */
/* 	0x04 */
/* 	0x02, 0x02, 0x03, 0x03, 	0x13, 0x10, 0x13, 0x10, 	0x06, 0x0C, 0x06, 0x0C */
/* 	0x00, 0x00, 0x00, 0x00, 	0x4F, 0x2F, 0x4F, 0x2F, 	0x18, 0x90, 0x18, 0x90 */
	smpsVcAlgorithm     0x04
	smpsVcFeedback      0x00
	smpsVcUnusedBits    0x00
	smpsVcDetune        0x00, 0x00, 0x00, 0x00
	smpsVcCoarseFreq    0x03, 0x03, 0x02, 0x02
	smpsVcRateScale     0x00, 0x00, 0x00, 0x00
	smpsVcAttackRate    0x10, 0x13, 0x10, 0x13
	smpsVcAmpMod        0x00, 0x00, 0x00, 0x00
	smpsVcDecayRate1    0x0C, 0x06, 0x0C, 0x06
	smpsVcDecayRate2    0x00, 0x00, 0x00, 0x00
	smpsVcDecayLevel    0x02, 0x04, 0x02, 0x04
	smpsVcReleaseRate   0x0F, 0x0F, 0x0F, 0x0F
	smpsVcTotalLevel    0x10, 0x18, 0x10, 0x18

/* 	Voice 0x11 */
/* 	0x3D */
/* 	0x02, 0x01, 0x01, 0x11, 	0x1C, 0x18, 0x18, 0x1B, 	0x06, 0x05, 0x04, 0x05 */
/* 	0x06, 0x05, 0x06, 0x06, 	0x6F, 0x8F, 0x5F, 0x7F, 	0x18, 0x88, 0x88, 0x88 */
	smpsVcAlgorithm     0x05
	smpsVcFeedback      0x07
	smpsVcUnusedBits    0x00
	smpsVcDetune        0x01, 0x00, 0x00, 0x00
	smpsVcCoarseFreq    0x01, 0x01, 0x01, 0x02
	smpsVcRateScale     0x00, 0x00, 0x00, 0x00
	smpsVcAttackRate    0x1B, 0x18, 0x18, 0x1C
	smpsVcAmpMod        0x00, 0x00, 0x00, 0x00
	smpsVcDecayRate1    0x05, 0x04, 0x05, 0x06
	smpsVcDecayRate2    0x06, 0x06, 0x05, 0x06
	smpsVcDecayLevel    0x07, 0x05, 0x08, 0x06
	smpsVcReleaseRate   0x0F, 0x0F, 0x0F, 0x0F
	smpsVcTotalLevel    0x08, 0x08, 0x08, 0x18

/* 	Voice 0x12 */
/* 	0x3D */
/* 	0x01, 0x01, 0x01, 0x11, 	0x1C, 0x18, 0x18, 0x1B, 	0x06, 0x05, 0x04, 0x05 */
/* 	0x06, 0x05, 0x06, 0x06, 	0x60, 0x89, 0x59, 0x79, 	0x18, 0x80, 0x80, 0x80 */
	smpsVcAlgorithm     0x05
	smpsVcFeedback      0x07
	smpsVcUnusedBits    0x00
	smpsVcDetune        0x01, 0x00, 0x00, 0x00
	smpsVcCoarseFreq    0x01, 0x01, 0x01, 0x01
	smpsVcRateScale     0x00, 0x00, 0x00, 0x00
	smpsVcAttackRate    0x1B, 0x18, 0x18, 0x1C
	smpsVcAmpMod        0x00, 0x00, 0x00, 0x00
	smpsVcDecayRate1    0x05, 0x04, 0x05, 0x06
	smpsVcDecayRate2    0x06, 0x06, 0x05, 0x06
	smpsVcDecayLevel    0x07, 0x05, 0x08, 0x06
	smpsVcReleaseRate   0x09, 0x09, 0x09, 0x00
	smpsVcTotalLevel    0x00, 0x00, 0x00, 0x18

/* 	Voice 0x13 */
/* 	0x05 */
/* 	0x2E, 0x17, 0x1F, 0x1F, 	0x1F, 0x1F, 0x1F, 0x1F, 	0x00, 0x0B, 0x08, 0x08 */
/* 	0x00, 0x08, 0x08, 0x08, 	0x00, 0x19, 0x19, 0x19, 	0x28, 0x8A, 0x89, 0x89 */
	smpsVcAlgorithm     0x05
	smpsVcFeedback      0x00
	smpsVcUnusedBits    0x00
	smpsVcDetune        0x01, 0x01, 0x01, 0x02
	smpsVcCoarseFreq    0x0F, 0x0F, 0x07, 0x0E
	smpsVcRateScale     0x00, 0x00, 0x00, 0x00
	smpsVcAttackRate    0x1F, 0x1F, 0x1F, 0x1F
	smpsVcAmpMod        0x00, 0x00, 0x00, 0x00
	smpsVcDecayRate1    0x08, 0x08, 0x0B, 0x00
	smpsVcDecayRate2    0x08, 0x08, 0x08, 0x00
	smpsVcDecayLevel    0x01, 0x01, 0x01, 0x00
	smpsVcReleaseRate   0x09, 0x09, 0x09, 0x00
	smpsVcTotalLevel    0x09, 0x09, 0x0A, 0x28

/* 	Voice 0x14 */
/* 	0x02 */
/* 	0x71, 0x52, 0x41, 0x11, 	0x17, 0x16, 0x15, 0x17, 	0x0A, 0x03, 0x05, 0x03 */
/* 	0x00, 0x00, 0x00, 0x00, 	0xFF, 0xFF, 0xFF, 0xFF, 	0x07, 0x1F, 0x25, 0x87 */
	smpsVcAlgorithm     0x02
	smpsVcFeedback      0x00
	smpsVcUnusedBits    0x00
	smpsVcDetune        0x01, 0x04, 0x05, 0x07
	smpsVcCoarseFreq    0x01, 0x01, 0x02, 0x01
	smpsVcRateScale     0x00, 0x00, 0x00, 0x00
	smpsVcAttackRate    0x17, 0x15, 0x16, 0x17
	smpsVcAmpMod        0x00, 0x00, 0x00, 0x00
	smpsVcDecayRate1    0x03, 0x05, 0x03, 0x0A
	smpsVcDecayRate2    0x00, 0x00, 0x00, 0x00
	smpsVcDecayLevel    0x0F, 0x0F, 0x0F, 0x0F
	smpsVcReleaseRate   0x0F, 0x0F, 0x0F, 0x0F
	smpsVcTotalLevel    0x07, 0x25, 0x1F, 0x07

/* 	Voice 0x15 */
/* 	0x03 */
/* 	0x74, 0x18, 0x71, 0x11, 	0xDF, 0x5F, 0x1F, 0x1F, 	0x0C, 0x0F, 0x01, 0x01 */
/* 	0x00, 0x00, 0x00, 0x00, 	0xFF, 0xFF, 0xFF, 0xFF, 	0x0B, 0x1D, 0x10, 0x84 */
	smpsVcAlgorithm     0x03
	smpsVcFeedback      0x00
	smpsVcUnusedBits    0x00
	smpsVcDetune        0x01, 0x07, 0x01, 0x07
	smpsVcCoarseFreq    0x01, 0x01, 0x08, 0x04
	smpsVcRateScale     0x00, 0x00, 0x01, 0x03
	smpsVcAttackRate    0x1F, 0x1F, 0x1F, 0x1F
	smpsVcAmpMod        0x00, 0x00, 0x00, 0x00
	smpsVcDecayRate1    0x01, 0x01, 0x0F, 0x0C
	smpsVcDecayRate2    0x00, 0x00, 0x00, 0x00
	smpsVcDecayLevel    0x0F, 0x0F, 0x0F, 0x0F
	smpsVcReleaseRate   0x0F, 0x0F, 0x0F, 0x0F
	smpsVcTotalLevel    0x04, 0x10, 0x1D, 0x0B

/* 	Voice 0x16 */
/* 	0x3D */
/* 	0x41, 0x01, 0x21, 0x71, 	0x0D, 0x12, 0x52, 0xD2, 	0x01, 0x01, 0x01, 0x01 */
/* 	0x08, 0x00, 0x09, 0x00, 	0x89, 0xF8, 0xF9, 0xF8, 	0x1D, 0x87, 0x87, 0x87 */
	smpsVcAlgorithm     0x05
	smpsVcFeedback      0x07
	smpsVcUnusedBits    0x00
	smpsVcDetune        0x07, 0x02, 0x00, 0x04
	smpsVcCoarseFreq    0x01, 0x01, 0x01, 0x01
	smpsVcRateScale     0x03, 0x01, 0x00, 0x00
	smpsVcAttackRate    0x12, 0x12, 0x12, 0x0D
	smpsVcAmpMod        0x00, 0x00, 0x00, 0x00
	smpsVcDecayRate1    0x01, 0x01, 0x01, 0x01
	smpsVcDecayRate2    0x00, 0x09, 0x00, 0x08
	smpsVcDecayLevel    0x0F, 0x0F, 0x0F, 0x08
	smpsVcReleaseRate   0x08, 0x09, 0x08, 0x09
	smpsVcTotalLevel    0x07, 0x07, 0x07, 0x1D

/* 	Voice 0x17 */
/* 	0x03 */
/* 	0x61, 0x51, 0x23, 0x41, 	0x10, 0x10, 0x0F, 0x15, 	0x1C, 0x01, 0x06, 0x05 */
/* 	0x05, 0x01, 0x05, 0x01, 	0xC9, 0x0C, 0xD9, 0xC9, 	0x18, 0x17, 0x17, 0x83 */
	smpsVcAlgorithm     0x03
	smpsVcFeedback      0x00
	smpsVcUnusedBits    0x00
	smpsVcDetune        0x04, 0x02, 0x05, 0x06
	smpsVcCoarseFreq    0x01, 0x03, 0x01, 0x01
	smpsVcRateScale     0x00, 0x00, 0x00, 0x00
	smpsVcAttackRate    0x15, 0x0F, 0x10, 0x10
	smpsVcAmpMod        0x00, 0x00, 0x00, 0x00
	smpsVcDecayRate1    0x05, 0x06, 0x01, 0x1C
	smpsVcDecayRate2    0x01, 0x05, 0x01, 0x05
	smpsVcDecayLevel    0x0C, 0x0D, 0x00, 0x0C
	smpsVcReleaseRate   0x09, 0x09, 0x0C, 0x09
	smpsVcTotalLevel    0x03, 0x17, 0x17, 0x18

/* 	Voice 0x18 */
/* 	0x10 */
/* 	0x57, 0x4B, 0x76, 0x41, 	0x19, 0x12, 0x5F, 0x1F, 	0x02, 0x06, 0x05, 0x01 */
/* 	0x00, 0x0F, 0x00, 0x00, 	0x18, 0x38, 0x58, 0x18, 	0x26, 0x1F, 0x1C, 0x87 */
	smpsVcAlgorithm     0x00
	smpsVcFeedback      0x02
	smpsVcUnusedBits    0x00
	smpsVcDetune        0x04, 0x07, 0x04, 0x05
	smpsVcCoarseFreq    0x01, 0x06, 0x0B, 0x07
	smpsVcRateScale     0x00, 0x01, 0x00, 0x00
	smpsVcAttackRate    0x1F, 0x1F, 0x12, 0x19
	smpsVcAmpMod        0x00, 0x00, 0x00, 0x00
	smpsVcDecayRate1    0x01, 0x05, 0x06, 0x02
	smpsVcDecayRate2    0x00, 0x00, 0x0F, 0x00
	smpsVcDecayLevel    0x01, 0x05, 0x03, 0x01
	smpsVcReleaseRate   0x08, 0x08, 0x08, 0x08
	smpsVcTotalLevel    0x07, 0x1C, 0x1F, 0x26

/* 	Voice 0x19 */
/* 	0x02 */
/* 	0x74, 0x50, 0x13, 0x31, 	0x95, 0xD5, 0x15, 0x16, 	0x06, 0x01, 0x01, 0x03 */
/* 	0x0C, 0x13, 0x0C, 0x0B, 	0xFF, 0xEF, 0xDF, 0x8F, 	0x3D, 0x1D, 0x22, 0x81 */
	smpsVcAlgorithm     0x02
	smpsVcFeedback      0x00
	smpsVcUnusedBits    0x00
	smpsVcDetune        0x03, 0x01, 0x05, 0x07
	smpsVcCoarseFreq    0x01, 0x03, 0x00, 0x04
	smpsVcRateScale     0x00, 0x00, 0x03, 0x02
	smpsVcAttackRate    0x16, 0x15, 0x15, 0x15
	smpsVcAmpMod        0x00, 0x00, 0x00, 0x00
	smpsVcDecayRate1    0x03, 0x01, 0x01, 0x06
	smpsVcDecayRate2    0x0B, 0x0C, 0x13, 0x0C
	smpsVcDecayLevel    0x08, 0x0D, 0x0E, 0x0F
	smpsVcReleaseRate   0x0F, 0x0F, 0x0F, 0x0F
	smpsVcTotalLevel    0x01, 0x22, 0x1D, 0x3D

/* 	Voice 0x1A */
/* 	0x3D */
/* 	0x43, 0x05, 0x23, 0x71, 	0x11, 0x16, 0x55, 0xD5, 	0x01, 0x01, 0x01, 0x01 */
/* 	0x08, 0x00, 0x09, 0x00, 	0x89, 0xF8, 0xF9, 0xF8, 	0x1B, 0x88, 0x8A, 0x88 */
	smpsVcAlgorithm     0x05
	smpsVcFeedback      0x07
	smpsVcUnusedBits    0x00
	smpsVcDetune        0x07, 0x02, 0x00, 0x04
	smpsVcCoarseFreq    0x01, 0x03, 0x05, 0x03
	smpsVcRateScale     0x03, 0x01, 0x00, 0x00
	smpsVcAttackRate    0x15, 0x15, 0x16, 0x11
	smpsVcAmpMod        0x00, 0x00, 0x00, 0x00
	smpsVcDecayRate1    0x01, 0x01, 0x01, 0x01
	smpsVcDecayRate2    0x00, 0x09, 0x00, 0x08
	smpsVcDecayLevel    0x0F, 0x0F, 0x0F, 0x08
	smpsVcReleaseRate   0x08, 0x09, 0x08, 0x09
	smpsVcTotalLevel    0x08, 0x0A, 0x08, 0x1B

/* 	Voice 0x1B */
/* 	0x38 */
/* 	0x75, 0x13, 0x71, 0x11, 	0x1F, 0x5F, 0x1F, 0x1F, 	0x10, 0x0D, 0x03, 0x04 */
/* 	0x00, 0x00, 0x00, 0x00, 	0xFF, 0xFF, 0xFF, 0xFF, 	0x1F, 0x16, 0x1D, 0x81 */
	smpsVcAlgorithm     0x00
	smpsVcFeedback      0x07
	smpsVcUnusedBits    0x00
	smpsVcDetune        0x01, 0x07, 0x01, 0x07
	smpsVcCoarseFreq    0x01, 0x01, 0x03, 0x05
	smpsVcRateScale     0x00, 0x00, 0x01, 0x00
	smpsVcAttackRate    0x1F, 0x1F, 0x1F, 0x1F
	smpsVcAmpMod        0x00, 0x00, 0x00, 0x00
	smpsVcDecayRate1    0x04, 0x03, 0x0D, 0x10
	smpsVcDecayRate2    0x00, 0x00, 0x00, 0x00
	smpsVcDecayLevel    0x0F, 0x0F, 0x0F, 0x0F
	smpsVcReleaseRate   0x0F, 0x0F, 0x0F, 0x0F
	smpsVcTotalLevel    0x01, 0x1D, 0x16, 0x1F

/* 	Voice 0x1C */
/* 	0x3D */
/* 	0x01, 0x01, 0x11, 0x12, 	0x18, 0x1F, 0x1F, 0x1F, 	0x10, 0x06, 0x06, 0x06 */
/* 	0x01, 0x00, 0x00, 0x00, 	0x3F, 0x1F, 0x1F, 0x1F, 	0x10, 0x83, 0x83, 0x83 */
	smpsVcAlgorithm     0x05
	smpsVcFeedback      0x07
	smpsVcUnusedBits    0x00
	smpsVcDetune        0x01, 0x01, 0x00, 0x00
	smpsVcCoarseFreq    0x02, 0x01, 0x01, 0x01
	smpsVcRateScale     0x00, 0x00, 0x00, 0x00
	smpsVcAttackRate    0x1F, 0x1F, 0x1F, 0x18
	smpsVcAmpMod        0x00, 0x00, 0x00, 0x00
	smpsVcDecayRate1    0x06, 0x06, 0x06, 0x10
	smpsVcDecayRate2    0x00, 0x00, 0x00, 0x01
	smpsVcDecayLevel    0x01, 0x01, 0x01, 0x03
	smpsVcReleaseRate   0x0F, 0x0F, 0x0F, 0x0F
	smpsVcTotalLevel    0x03, 0x03, 0x03, 0x10

/* 	Voice 0x1D */
/* 	0x00 */
/* 	0x23, 0x30, 0x30, 0x21, 	0x9F, 0x5F, 0x1F, 0x1F, 	0x00, 0x0F, 0x01, 0x00 */
/* 	0x07, 0x00, 0x00, 0x0C, 	0x0F, 0x4F, 0xFF, 0x0F, 	0x26, 0x30, 0x1D, 0x80 */
	smpsVcAlgorithm     0x00
	smpsVcFeedback      0x00
	smpsVcUnusedBits    0x00
	smpsVcDetune        0x02, 0x03, 0x03, 0x02
	smpsVcCoarseFreq    0x01, 0x00, 0x00, 0x03
	smpsVcRateScale     0x00, 0x00, 0x01, 0x02
	smpsVcAttackRate    0x1F, 0x1F, 0x1F, 0x1F
	smpsVcAmpMod        0x00, 0x00, 0x00, 0x00
	smpsVcDecayRate1    0x00, 0x01, 0x0F, 0x00
	smpsVcDecayRate2    0x0C, 0x00, 0x00, 0x07
	smpsVcDecayLevel    0x00, 0x0F, 0x04, 0x00
	smpsVcReleaseRate   0x0F, 0x0F, 0x0F, 0x0F
	smpsVcTotalLevel    0x00, 0x1D, 0x30, 0x26

/* 	Voice 0x1E */
/* 	0x04 */
/* 	0x12, 0x0A, 0x06, 0x7C, 	0x5F, 0x5F, 0x5F, 0x5F, 	0x00, 0x08, 0x00, 0x00 */
/* 	0x00, 0x00, 0x00, 0x0A, 	0x0F, 0xFF, 0x0F, 0x0F, 	0x11, 0x8C, 0x13, 0x8C */
	smpsVcAlgorithm     0x04
	smpsVcFeedback      0x00
	smpsVcUnusedBits    0x00
	smpsVcDetune        0x07, 0x00, 0x00, 0x01
	smpsVcCoarseFreq    0x0C, 0x06, 0x0A, 0x02
	smpsVcRateScale     0x01, 0x01, 0x01, 0x01
	smpsVcAttackRate    0x1F, 0x1F, 0x1F, 0x1F
	smpsVcAmpMod        0x00, 0x00, 0x00, 0x00
	smpsVcDecayRate1    0x00, 0x00, 0x08, 0x00
	smpsVcDecayRate2    0x0A, 0x00, 0x00, 0x00
	smpsVcDecayLevel    0x00, 0x00, 0x0F, 0x00
	smpsVcReleaseRate   0x0F, 0x0F, 0x0F, 0x0F
	smpsVcTotalLevel    0x0C, 0x13, 0x0C, 0x11

/* 	Voice 0x1F */
/* 	0x3D */
/* 	0x02, 0x02, 0x01, 0x02, 	0x1F, 0x1F, 0x1F, 0x1F, 	0x06, 0x05, 0x04, 0x05 */
/* 	0x06, 0x05, 0x06, 0x06, 	0x60, 0x87, 0x58, 0x78, 	0x1B, 0x80, 0x80, 0x80 */
	smpsVcAlgorithm     0x05
	smpsVcFeedback      0x07
	smpsVcUnusedBits    0x00
	smpsVcDetune        0x00, 0x00, 0x00, 0x00
	smpsVcCoarseFreq    0x02, 0x01, 0x02, 0x02
	smpsVcRateScale     0x00, 0x00, 0x00, 0x00
	smpsVcAttackRate    0x1F, 0x1F, 0x1F, 0x1F
	smpsVcAmpMod        0x00, 0x00, 0x00, 0x00
	smpsVcDecayRate1    0x05, 0x04, 0x05, 0x06
	smpsVcDecayRate2    0x06, 0x06, 0x05, 0x06
	smpsVcDecayLevel    0x07, 0x05, 0x08, 0x06
	smpsVcReleaseRate   0x08, 0x08, 0x07, 0x00
	smpsVcTotalLevel    0x00, 0x00, 0x00, 0x1B

/* 	Voice 0x20 */
/* 	0x04 */
/* 	0x70, 0x71, 0x00, 0x00, 	0x1F, 0x1F, 0x1F, 0x1F, 	0x00, 0x0F, 0x01, 0x00 */
/* 	0x07, 0x00, 0x00, 0x0C, 	0x4F, 0x4F, 0xFF, 0x0F, 	0x19, 0x80, 0x1A, 0x80 */
	smpsVcAlgorithm     0x04
	smpsVcFeedback      0x00
	smpsVcUnusedBits    0x00
	smpsVcDetune        0x00, 0x00, 0x07, 0x07
	smpsVcCoarseFreq    0x00, 0x00, 0x01, 0x00
	smpsVcRateScale     0x00, 0x00, 0x00, 0x00
	smpsVcAttackRate    0x1F, 0x1F, 0x1F, 0x1F
	smpsVcAmpMod        0x00, 0x00, 0x00, 0x00
	smpsVcDecayRate1    0x00, 0x01, 0x0F, 0x00
	smpsVcDecayRate2    0x0C, 0x00, 0x00, 0x07
	smpsVcDecayLevel    0x00, 0x0F, 0x04, 0x04
	smpsVcReleaseRate   0x0F, 0x0F, 0x0F, 0x0F
	smpsVcTotalLevel    0x00, 0x1A, 0x00, 0x19

/* 	Voice 0x21 */
/* 	0x07 */
/* 	0x02, 0x03, 0x04, 0x05, 	0x0F, 0x0F, 0x0F, 0x0F, 	0x06, 0x06, 0x06, 0x06 */
/* 	0x00, 0x00, 0x00, 0x00, 	0xFF, 0xFF, 0xFF, 0xFF, 	0x8C, 0x8C, 0x88, 0x80 */
	smpsVcAlgorithm     0x07
	smpsVcFeedback      0x00
	smpsVcUnusedBits    0x00
	smpsVcDetune        0x00, 0x00, 0x00, 0x00
	smpsVcCoarseFreq    0x05, 0x04, 0x03, 0x02
	smpsVcRateScale     0x00, 0x00, 0x00, 0x00
	smpsVcAttackRate    0x0F, 0x0F, 0x0F, 0x0F
	smpsVcAmpMod        0x00, 0x00, 0x00, 0x00
	smpsVcDecayRate1    0x06, 0x06, 0x06, 0x06
	smpsVcDecayRate2    0x00, 0x00, 0x00, 0x00
	smpsVcDecayLevel    0x0F, 0x0F, 0x0F, 0x0F
	smpsVcReleaseRate   0x0F, 0x0F, 0x0F, 0x0F
	smpsVcTotalLevel    0x00, 0x08, 0x0C, 0x0C

/* 	Voice 0x22 */
/* 	0x3D */
/* 	0x51, 0x21, 0x30, 0x10, 	0x1F, 0x1F, 0x1F, 0x1F, 	0x0F, 0x00, 0x00, 0x00 */
/* 	0x00, 0x00, 0x00, 0x00, 	0x1F, 0x4F, 0x4F, 0x4F, 	0x10, 0x8E, 0x8E, 0x8E */
	smpsVcAlgorithm     0x05
	smpsVcFeedback      0x07
	smpsVcUnusedBits    0x00
	smpsVcDetune        0x01, 0x03, 0x02, 0x05
	smpsVcCoarseFreq    0x00, 0x00, 0x01, 0x01
	smpsVcRateScale     0x00, 0x00, 0x00, 0x00
	smpsVcAttackRate    0x1F, 0x1F, 0x1F, 0x1F
	smpsVcAmpMod        0x00, 0x00, 0x00, 0x00
	smpsVcDecayRate1    0x00, 0x00, 0x00, 0x0F
	smpsVcDecayRate2    0x00, 0x00, 0x00, 0x00
	smpsVcDecayLevel    0x04, 0x04, 0x04, 0x01
	smpsVcReleaseRate   0x0F, 0x0F, 0x0F, 0x0F
	smpsVcTotalLevel    0x0E, 0x0E, 0x0E, 0x10

/* 	Voice 0x23 */
/* 	0x2C */
/* 	0x71, 0x62, 0x31, 0x32, 	0x5F, 0x54, 0x5F, 0x5F, 	0x00, 0x09, 0x00, 0x09 */
/* 	0x00, 0x03, 0x00, 0x03, 	0x0F, 0x8F, 0x0F, 0xAF, 	0x16, 0x80, 0x11, 0x80 */
	smpsVcAlgorithm     0x04
	smpsVcFeedback      0x05
	smpsVcUnusedBits    0x00
	smpsVcDetune        0x03, 0x03, 0x06, 0x07
	smpsVcCoarseFreq    0x02, 0x01, 0x02, 0x01
	smpsVcRateScale     0x01, 0x01, 0x01, 0x01
	smpsVcAttackRate    0x1F, 0x1F, 0x14, 0x1F
	smpsVcAmpMod        0x00, 0x00, 0x00, 0x00
	smpsVcDecayRate1    0x09, 0x00, 0x09, 0x00
	smpsVcDecayRate2    0x03, 0x00, 0x03, 0x00
	smpsVcDecayLevel    0x0A, 0x00, 0x08, 0x00
	smpsVcReleaseRate   0x0F, 0x0F, 0x0F, 0x0F
	smpsVcTotalLevel    0x00, 0x11, 0x00, 0x16

/* 	Voice 0x24 */
/* 	0x3C */
/* 	0x71, 0x31, 0x12, 0x11, 	0x17, 0x1F, 0x19, 0x2F, 	0x04, 0x01, 0x07, 0x01 */
/* 	0x00, 0x00, 0x00, 0x00, 	0xF7, 0xF8, 0xF7, 0xF8, 	0x1D, 0x80, 0x19, 0x80 */
	smpsVcAlgorithm     0x04
	smpsVcFeedback      0x07
	smpsVcUnusedBits    0x00
	smpsVcDetune        0x01, 0x01, 0x03, 0x07
	smpsVcCoarseFreq    0x01, 0x02, 0x01, 0x01
	smpsVcRateScale     0x00, 0x00, 0x00, 0x00
	smpsVcAttackRate    0x2F, 0x19, 0x1F, 0x17
	smpsVcAmpMod        0x00, 0x00, 0x00, 0x00
	smpsVcDecayRate1    0x01, 0x07, 0x01, 0x04
	smpsVcDecayRate2    0x00, 0x00, 0x00, 0x00
	smpsVcDecayLevel    0x0F, 0x0F, 0x0F, 0x0F
	smpsVcReleaseRate   0x08, 0x07, 0x08, 0x07
	smpsVcTotalLevel    0x00, 0x19, 0x00, 0x1D

