Snd_DPZ_Header:
	smpsHeaderStartSong 3
	smpsHeaderVoiceUVB
	smpsHeaderChan      0x06, 0x03
	smpsHeaderTempo     0x01, 0x23

	smpsHeaderDAC       Snd_DPZ_DAC
	smpsHeaderFM        Snd_DPZ_FM1,	0x18, 0x0A
	smpsHeaderFM        Snd_DPZ_FM2,	0x0C, 0x11
	smpsHeaderFM        Snd_DPZ_FM3,	0x0C, 0x11
	smpsHeaderFM        Snd_DPZ_FM4,	0x00, 0x0F
	smpsHeaderFM        Snd_DPZ_FM5,	0x00, 0x0F
	smpsHeaderPSG       Snd_DPZ_PSG1,	0xF4, 0x04, 0x00, sTone_0C
	smpsHeaderPSG       Snd_DPZ_PSG2,	0xF4, 0x04, 0x00, sTone_0C
	smpsHeaderPSG       Snd_DPZ_PSG3,	0x00, 0x00, 0x00, sTone_0C

/*  Unreachable */
	smpsStop
	smpsStop

/*  DAC Data */
Snd_DPZ_DAC:
	.byte	dSnareS3, 0x18, dSnareS3, 0x18, dSnareS3, 0x18, dSnareS3, 0x18, dKickS3, 0x12, dKickS3, 0x06
	.byte	dSnareS3, 0x0C, dKickS3, 0x0C, dKickS3, 0x12, dKickS3, 0x06, dSnareS3, 0x0C, dKickS3, 0x0C
	.byte	dSnareS3, 0x18, dSnareS3, 0x18, dKickS3, 0x06, dSnareS3, 0x12, dSnareS3, 0x0C, dSnareS3, 0x06
	.byte	dSnareS3, 0x06, dKickS3, 0x12, dKickS3, 0x06, dSnareS3, 0x0C, dKickS3, 0x0C, dKickS3, 0x12
	.byte	dKickS3, 0x06, dSnareS3, 0x0C, dKickS3, 0x0C, dSnareS3, 0x18, dSnareS3, 0x18, dSnareS3, 0x18
	.byte	dSnareS3, 0x18, dKickS3, 0x12, dKickS3, 0x06, dSnareS3, 0x0C, dKickS3, 0x0C, dKickS3, 0x12
	.byte	dKickS3, 0x06, dSnareS3, 0x0C, dKickS3, 0x0C, dSnareS3, 0x18, dSnareS3, 0x18, dKickS3, 0x06
	.byte	dSnareS3, 0x12, dSnareS3, 0x0C, dSnareS3, 0x06, dSnareS3, 0x06, dKickS3, 0x12, dKickS3, 0x06
	.byte	dSnareS3, 0x0C, dKickS3, 0x0C, dKickS3, 0x12, dKickS3, 0x06, dSnareS3, 0x06, dSnareS3, 0x06
	.byte	dSnareS3, 0x06, dSnareS3, 0x06, dKickS3, 0x18, dSnareS3, 0x12, dKickS3, 0x06, dKickS3, 0x18
	.byte	dSnareS3, 0x18, dKickS3, 0x18, dSnareS3, 0x12, dKickS3, 0x06, dKickS3, 0x18, dSnareS3, 0x18
	.byte	dKickS3, 0x18, dSnareS3, 0x12, dKickS3, 0x06, dKickS3, 0x18, dSnareS3, 0x18, dKickS3, 0x18
	.byte	dSnareS3, 0x12, dKickS3, 0x06, dKickS3, 0x18, dSnareS3, 0x0C, dSnareS3, 0x0C, dKickS3, 0x18
	.byte	dSnareS3, 0x12, dKickS3, 0x06, dKickS3, 0x18, dSnareS3, 0x18, dKickS3, 0x18, dSnareS3, 0x12
	.byte	dKickS3, 0x06, dKickS3, 0x18, dSnareS3, 0x18, dKickS3, 0x18, dSnareS3, 0x12, dKickS3, 0x06
	.byte	dKickS3, 0x18, dSnareS3, 0x18, dKickS3, 0x18, dSnareS3, 0x12, dKickS3, 0x06, dKickS3, 0x06
	.byte	dSnareS3, 0x0C, dSnareS3, 0x06, dSnareS3, 0x0C, dSnareS3, 0x06, dSnareS3, 0x06, dKickS3, 0x18
	.byte	dSnareS3, 0x12, dKickS3, 0x06, dKickS3, 0x18, dSnareS3, 0x18, dKickS3, 0x18, dSnareS3, 0x12
	.byte	dKickS3, 0x06, dKickS3, 0x18, dSnareS3, 0x18, dKickS3, 0x18, dSnareS3, 0x12, dKickS3, 0x06
	.byte	dKickS3, 0x18, dSnareS3, 0x0C, dSnareS3, 0x0C, dSnareS3, 0x18, dSnareS3, 0x18, dSnareS3, 0x18
	.byte	dSnareS3, 0x0C, dSnareS3, 0x0C, dKickS3, 0x18, dSnareS3, 0x12, dKickS3, 0x06, dKickS3, 0x18
	.byte	dSnareS3, 0x18, dKickS3, 0x18, dSnareS3, 0x12, dKickS3, 0x06, dKickS3, 0x18, dSnareS3, 0x18
	.byte	dSnareS3, 0x06, dKickS3, 0x06, dSnareS3, 0x06, dSnareS3, 0x06, nRst, 0x0C, dSnareS3, 0x06
	.byte	dKickS3, 0x06, dKickS3, 0x0C, dSnareS3, 0x06, dKickS3, 0x06, dSnareS3, 0x06, dSnareS3, 0x0C
	.byte	dKickS3, 0x06, dSnareS3, 0x06, dSnareS3, 0x0C, dSnareS3, 0x06, nRst, 0x06, dKickS3, 0x06
	.byte	dSnareS3, 0x0C, nRst, 0x0C, dSnareS3, 0x06, dSnareS3, 0x06, dSnareS3, 0x06, dSnareS3, 0x06
	.byte	dSnareS3, 0x02, nRst, 0x08
	smpsJump            Snd_DPZ_DAC

/*  Unreachable */
	smpsStop

/*  FM1 Data */
Snd_DPZ_FM1:
	smpsSetvoice        0x14
	smpsAlterNote       0x00
	smpsModSet          0x02, 0x01, 0x01, 0x02
	.byte	nA1, 0x04, nRst, 0x02, nC2, 0x04, nRst, 0x02, nA1, 0x04, nRst, 0x08
	.byte	nG1, 0x04, nRst, 0x02, nB1, 0x04, nRst, 0x02, nG1, 0x04, nRst, 0x08
	.byte	nF1, 0x04, nRst, 0x02, nA1, 0x04, nRst, 0x02, nF1, 0x04, nRst, 0x08
	.byte	nE1, 0x04, nRst, 0x02, nG1, 0x04, nRst, 0x02, nE1, 0x04, nRst, 0x08
	.byte	nD1, 0x10, nRst, 0x02, nD1, 0x06, smpsNoAttack, 0x0A, nRst, 0x02, nD1, 0x04
	.byte	nRst, 0x08, nE1, 0x10, nRst, 0x02, nE1, 0x06, smpsNoAttack, 0x0A, nRst, 0x02
	.byte	nE1, 0x04, nRst, 0x08, nA1, 0x04, nRst, 0x02, nC2, 0x04, nRst, 0x02
	.byte	nA1, 0x04, nRst, 0x08, nG1, 0x04, nRst, 0x02, nB1, 0x04, nRst, 0x02
	.byte	nG1, 0x04, nRst, 0x08, nF1, 0x04, nRst, 0x02, nA1, 0x04, nRst, 0x02
	.byte	nF1, 0x04, nRst, 0x08, nE1, 0x04, nRst, 0x02, nG1, 0x04, nRst, 0x02
	.byte	nE1, 0x04, nRst, 0x08, nD1, 0x10, nRst, 0x02, nD1, 0x06, smpsNoAttack, 0x0A
	.byte	nRst, 0x02, nD1, 0x04, nRst, 0x08, nE1, 0x10, nRst, 0x02, nE1, 0x06
	.byte	smpsNoAttack, 0x0A, nRst, 0x02, nE1, 0x04, nRst, 0x08, nA1, 0x04, nRst, 0x02
	.byte	nC2, 0x04, nRst, 0x02, nA1, 0x04, nRst, 0x08, nG1, 0x04, nRst, 0x02
	.byte	nB1, 0x04, nRst, 0x02, nG1, 0x04, nRst, 0x08, nF1, 0x04, nRst, 0x02
	.byte	nA1, 0x04, nRst, 0x02, nF1, 0x04, nRst, 0x08, nE1, 0x04, nRst, 0x02
	.byte	nG1, 0x04, nRst, 0x02, nE1, 0x04, nRst, 0x08, nD1, 0x10, nRst, 0x02
	.byte	nD1, 0x06, smpsNoAttack, 0x0A, nRst, 0x02, nD1, 0x04, nRst, 0x08, nE1, 0x10
	.byte	nRst, 0x02, nE1, 0x06, smpsNoAttack, 0x0A, nRst, 0x02, nE1, 0x04, nRst, 0x08
	.byte	nA1, 0x04, nRst, 0x02, nC2, 0x04, nRst, 0x02, nA1, 0x04, nRst, 0x08
	.byte	nG1, 0x04, nRst, 0x02, nB1, 0x04, nRst, 0x02, nG1, 0x04, nRst, 0x08
	.byte	nF1, 0x04, nRst, 0x02, nA1, 0x04, nRst, 0x02, nF1, 0x04, nRst, 0x08
	.byte	nE1, 0x04, nRst, 0x02, nG1, 0x04, nRst, 0x02, nE1, 0x04, nRst, 0x08
	.byte	nD1, 0x10, nRst, 0x02, nD1, 0x06, smpsNoAttack, 0x0A, nRst, 0x02, nD1, 0x04
	.byte	nRst, 0x08, nE1, 0x10, nRst, 0x02, nE1, 0x06, smpsNoAttack, 0x0A, nRst, 0x02
	.byte	nG1, 0x04, nRst, 0x08, nC2, 0x10, nRst, 0x02, nC2, 0x02, nRst, 0x04
	.byte	nRst, 0x06, nG1, 0x04, nRst, 0x02, nA1, 0x06, nG1, 0x06, nC2, 0x10
	.byte	nRst, 0x02, nC2, 0x02, nRst, 0x04, nRst, 0x06, nG1, 0x04, nRst, 0x02
	.byte	nA1, 0x06, nC2, 0x06, nBb1, 0x10, nRst, 0x02, nBb1, 0x02, nRst, 0x04
	.byte	nRst, 0x06, nF1, 0x04, nRst, 0x02, nG1, 0x06, nF1, 0x06, nBb1, 0x10
	.byte	nRst, 0x02, nBb1, 0x02, nRst, 0x04, nRst, 0x06, nF1, 0x04, nRst, 0x02
	.byte	nG1, 0x06, nBb1, 0x06, nA1, 0x10, nRst, 0x02, nA1, 0x02, nRst, 0x04
	.byte	nRst, 0x06, nF1, 0x04, nRst, 0x02, nG1, 0x06, nF1, 0x06, nA1, 0x10
	.byte	nRst, 0x02, nA1, 0x02, nRst, 0x04, nRst, 0x06, nF1, 0x04, nRst, 0x02
	.byte	nG1, 0x06, nA1, 0x06, nG1, 0x04, nRst, 0x08, nG1, 0x0C, nA1, 0x02
	.byte	nRst, 0x0A, nA1, 0x0A, nRst, 0x02, nB1, 0x04, nRst, 0x08, nB1, 0x0C
	.byte	nC2, 0x02, nRst, 0x0A, nD2, 0x0C, nC2, 0x0E, nRst, 0x04, nC2, 0x04
	.byte	nRst, 0x02, nRst, 0x06, nG1, 0x06, nA1, 0x06, nG1, 0x04, nRst, 0x02
	.byte	nC2, 0x0E, nRst, 0x04, nC2, 0x04, nRst, 0x02, nRst, 0x06, nG1, 0x06
	.byte	nA1, 0x06, nC2, 0x04, nRst, 0x02, nBb1, 0x10, nRst, 0x02, nBb1, 0x04
	.byte	nRst, 0x02, nRst, 0x06, nF1, 0x06, nG1, 0x06, nF1, 0x06, nBb1, 0x10
	.byte	nRst, 0x02, nBb1, 0x04, nRst, 0x02, nRst, 0x06, nF1, 0x06, nG1, 0x06
	.byte	nBb1, 0x04, nRst, 0x02, nA1, 0x10, nRst, 0x02, nA1, 0x04, nRst, 0x02
	.byte	nRst, 0x06, nF1, 0x04, nRst, 0x02, nG1, 0x06, nF1, 0x04, nRst, 0x02
	.byte	nA1, 0x0E, nRst, 0x04, nA1, 0x06, nRst, 0x06, nF1, 0x06, nG1, 0x06
	.byte	nA1, 0x04, nRst, 0x02, nG1, 0x02, nRst, 0x0A, nG1, 0x0C, nA1, 0x04
	.byte	nRst, 0x08, nA1, 0x0C, nB1, 0x04, nRst, 0x08, nB1, 0x0C, nC2, 0x02
	.byte	nRst, 0x0A, nD2, 0x0A, nRst, 0x02, nF1, 0x10, nRst, 0x02, nF1, 0x04
	.byte	nRst, 0x02, nRst, 0x06, nC1, 0x06, nD1, 0x06, nC1, 0x06, nF1, 0x10
	.byte	nRst, 0x02, nF1, 0x02, nRst, 0x04, nRst, 0x06, nC1, 0x06, nD1, 0x06
	.byte	nF1, 0x06, nE1, 0x10, nRst, 0x02, nE1, 0x02, nRst, 0x04, nRst, 0x06
	.byte	nG0, 0x06, nA0, 0x06, nG0, 0x06, nE1, 0x10, nRst, 0x02, nE1, 0x02
	.byte	nRst, 0x04, nRst, 0x06, nG0, 0x06, nA0, 0x06, nG0, 0x06, nD1, 0x10
	.byte	nRst, 0x02, nD1, 0x02, nRst, 0x04, nRst, 0x06, nG0, 0x06, nA0, 0x06
	.byte	nG0, 0x06, nD1, 0x10, nRst, 0x02, nD1, 0x02, nRst, 0x04, nRst, 0x06
	.byte	nG0, 0x06, nA0, 0x06, nG0, 0x06, nC1, 0x04, nRst, 0x08, nC1, 0x0C
	.byte	nD1, 0x02, nRst, 0x0A, nD1, 0x0C, nE1, 0x04, nRst, 0x08, nE1, 0x0C
	.byte	nF1, 0x04, nRst, 0x08, nG1, 0x0C, nF1, 0x10, nRst, 0x02, nF1, 0x04
	.byte	nRst, 0x02, nRst, 0x06, nC1, 0x06, nD1, 0x06, nC1, 0x06, nF1, 0x10
	.byte	nRst, 0x02, nF1, 0x04, nRst, 0x02, nRst, 0x06, nG1, 0x06, nA1, 0x06
	.byte	nC2, 0x06, nB1, 0x12, nG1, 0x02, nRst, 0x04, nRst, 0x06, nG0, 0x06
	.byte	nA0, 0x06, nC1, 0x06, nA1, 0x12, nE1, 0x02, nRst, 0x04, nRst, 0x18
	.byte	nD1, 0x06, nRst, 0x06, nD1, 0x02, nRst, 0x04, nD1, 0x04, nRst, 0x02
	.byte	nRst, 0x0C, nD1, 0x06, nRst, 0x06, nRst, 0x0C, nD1, 0x06, nRst, 0x06
	.byte	nC1, 0x06, nD1, 0x06, nRst, 0x0C, nG1, 0x04, nRst, 0x02, nG1, 0x06
	.byte	nRst, 0x06, nG1, 0x04, nRst, 0x02, nRst, 0x0C, nAb1, 0x0C, smpsNoAttack, 0x0A
	.byte	nRst, 0x02, nE1, 0x0C, smpsNoAttack, 0x12, nRst, 0x04
	smpsJump            Snd_DPZ_FM1

/*  Unreachable */
	smpsStop

/*  FM2 Data */
Snd_DPZ_FM2:
	smpsPan             panLeft, 0x00
	smpsSetvoice        0x0C
	smpsAlterNote       0xFD
	smpsModSet          0x0F, 0x01, 0x06, 0x06
	smpsCall            Snd_DPZ_Call00
	smpsSetvoice        0x03
	smpsAlterNote       0xFE
	smpsModSet          0x0F, 0x01, 0x06, 0x06
	smpsCall            Snd_DPZ_Call01
	smpsJump            Snd_DPZ_FM2

Snd_DPZ_Call00:
	.byte	nA3, 0x10, nRst, 0x02, nA3, 0x04, nRst, 0x02, nRst, 0x06, nG3, 0x02
	.byte	nRst, 0x04, nG3, 0x04, nRst, 0x08, nF3, 0x16, nRst, 0x02, nE3, 0x16
	.byte	nRst, 0x02, nRst, 0x18, nA3, 0x16, nRst, 0x02, nB3, 0x16, nRst, 0x02
	.byte	nG3, 0x16, nRst, 0x02, nA3, 0x10, nRst, 0x02, nA3, 0x04, nRst, 0x02
	.byte	nRst, 0x06, nG3, 0x02, nRst, 0x04, nG3, 0x04, nRst, 0x08, nRst, 0x06
	.byte	nF3, 0x10, nRst, 0x02, nE3, 0x16, nRst, 0x02, nRst, 0x18, nA3, 0x16
	.byte	nRst, 0x02, nB3, 0x16, nRst, 0x02, nG3, 0x16, nRst, 0x02, nA3, 0x10
	.byte	nRst, 0x02, nA3, 0x04, nRst, 0x02, nRst, 0x06, nG3, 0x02, nRst, 0x04
	.byte	nG3, 0x04, nRst, 0x08, nF3, 0x16, nRst, 0x02, nE3, 0x16, nRst, 0x02
	.byte	nRst, 0x18, nA3, 0x16, nRst, 0x02, nB3, 0x16, nRst, 0x02, nG3, 0x16
	.byte	nRst, 0x02, nA3, 0x10, nRst, 0x02, nA3, 0x04, nRst, 0x02, nRst, 0x06
	.byte	nG3, 0x02, nRst, 0x04, nG3, 0x04, nRst, 0x08, nRst, 0x06, nF3, 0x10
	.byte	nRst, 0x02, nE3, 0x16, nRst, 0x02, nRst, 0x18, nA3, 0x16, nRst, 0x02
	.byte	nB3, 0x16, nRst, 0x02, nG3, 0x16, nRst, 0x02
	smpsReturn

Snd_DPZ_Call01:
	smpsAlterPitch      0x0C
	smpsFMAlterVol      0x04
	.byte	nG4, 0x18, smpsNoAttack, 0x0A, nRst, 0x02, nE4, 0x0C, smpsNoAttack, 0x18, smpsNoAttack, 0x0A
	.byte	nRst, 0x02, nF4, 0x04, nRst, 0x02, nG4, 0x04, nRst, 0x02, nF4, 0x18
	.byte	smpsNoAttack, 0x0A, nRst, 0x02, nD4, 0x0C, smpsNoAttack, 0x18, smpsNoAttack, 0x0A, nRst, 0x02
	.byte	nE4, 0x04, nRst, 0x02, nF4, 0x04, nRst, 0x02, nE4, 0x18, smpsNoAttack, 0x0A
	.byte	nRst, 0x02, nC4, 0x0C, smpsNoAttack, 0x18, smpsNoAttack, 0x0A, nRst, 0x02, nD4, 0x04
	.byte	nRst, 0x02, nE4, 0x04, nRst, 0x02, nD4, 0x04, nRst, 0x08, nD4, 0x0A
	.byte	nRst, 0x02, nRst, 0x0C, nG3, 0x0C, smpsNoAttack, 0x18, smpsNoAttack, 0x0A, nRst, 0x0E
	.byte	nG4, 0x18, smpsNoAttack, 0x0A, nRst, 0x02, nE4, 0x0C, smpsNoAttack, 0x18, smpsNoAttack, 0x0A
	.byte	nRst, 0x02, nF4, 0x04, nRst, 0x02, nG4, 0x04, nRst, 0x02, nF4, 0x18
	.byte	smpsNoAttack, 0x0A, nRst, 0x02, nD4, 0x0C, smpsNoAttack, 0x18, smpsNoAttack, 0x0A, nRst, 0x02
	.byte	nE4, 0x04, nRst, 0x02, nF4, 0x04, nRst, 0x02, nE4, 0x18, smpsNoAttack, 0x0A
	.byte	nRst, 0x02, nC4, 0x0C, smpsNoAttack, 0x18, smpsNoAttack, 0x0A, nRst, 0x02, nD4, 0x04
	.byte	nRst, 0x02, nE4, 0x04, nRst, 0x02, nD4, 0x04, nRst, 0x08, nD4, 0x0C
	.byte	smpsNoAttack, 0x02, nRst, 0x0A, nG3, 0x0C, smpsNoAttack, 0x16, nRst, 0x02
	smpsSetvoice        0x0A
	smpsAlterNote       0x01
	smpsModSet          0x0A, 0x01, 0x03, 0x06
	smpsAlterPitch      0xF4
	smpsFMAlterVol      0xFA
	.byte	nRst, 0x0C, nC5, 0x04, nRst, 0x02, nD5, 0x04, nRst, 0x02, nE5, 0x18
	.byte	smpsNoAttack, 0x16, nRst, 0x02, nD5, 0x10, nRst, 0x02, nG5, 0x06, smpsNoAttack, 0x0A
	.byte	nRst, 0x02, nF5, 0x0A, nRst, 0x02, nE5, 0x18, smpsNoAttack, 0x16, nRst, 0x02
	.byte	nC5, 0x10, nRst, 0x02, nD5, 0x06, smpsNoAttack, 0x0A, nRst, 0x02, nE5, 0x0A
	.byte	nRst, 0x02, nD5, 0x18, smpsNoAttack, 0x18, smpsNoAttack, 0x0A, nRst, 0x02, nE5, 0x0C
	.byte	smpsNoAttack, 0x0A, nRst, 0x02, nF5, 0x0A, nRst, 0x02, nE5, 0x18, smpsNoAttack, 0x18
	.byte	smpsNoAttack, 0x16, nRst, 0x02, nRst, 0x0C, nD5, 0x04, nRst, 0x02, nE5, 0x04
	.byte	nRst, 0x02, nF5, 0x18, smpsNoAttack, 0x16, nRst, 0x02, nD5, 0x10, nRst, 0x02
	.byte	nG5, 0x06, smpsNoAttack, 0x0A, nRst, 0x02, nF5, 0x0A, nRst, 0x02, nE5, 0x04
	.byte	nRst, 0x08, nE5, 0x0C, smpsNoAttack, 0x16, nRst, 0x02, nC5, 0x18, smpsNoAttack, 0x16
	.byte	nRst, 0x02, nRst, 0x0C, nD5, 0x04, nRst, 0x02, nC5, 0x04, nRst, 0x02
	.byte	nD5, 0x04, nRst, 0x08, nE5, 0x04, nRst, 0x02, nD5, 0x04, nRst, 0x02
	.byte	nE5, 0x04, nRst, 0x08, nF5, 0x04, nRst, 0x02, nE5, 0x04, nRst, 0x02
	.byte	nF5, 0x04, nRst, 0x08, nG5, 0x04, nRst, 0x02, nF5, 0x04, nRst, 0x02
	.byte	nG5, 0x04, nRst, 0x08, nA5, 0x04, nRst, 0x02, nAb5, 0x04, nRst, 0x02
	.byte	nA5, 0x04, nRst, 0x08, nAb5, 0x0C, smpsNoAttack, 0x0A, nRst, 0x02, nE5, 0x0C
	.byte	smpsNoAttack, 0x16
	smpsFMAlterVol      0x02
	smpsReturn

/*  Unreachable */
	smpsStop

/*  FM3 Data */
Snd_DPZ_FM3:
	.byte	nRst, 0x02

Snd_DPZ_Jump00:
	smpsPan             panRight, 0x00
	smpsSetvoice        0x0C
	smpsAlterNote       0x03
	smpsModSet          0x0F, 0x01, 0x06, 0x06
	smpsCall            Snd_DPZ_Call00
	smpsSetvoice        0x03
	smpsAlterNote       0x02
	smpsModSet          0x0F, 0x01, 0x06, 0x06
	smpsCall            Snd_DPZ_Call01
	smpsJump            Snd_DPZ_Jump00

/*  Unreachable */
	smpsStop

/*  FM4 Data */
Snd_DPZ_FM4:
	smpsSetvoice        0x19
	smpsAlterNote       0x03
	smpsModSet          0x00, 0x01, 0x03, 0x06
	.byte	nC4, 0x10, nRst, 0x02, nC4, 0x04, nRst, 0x02, nRst, 0x06, nB3, 0x02
	.byte	nRst, 0x04, nB3, 0x04, nRst, 0x08, nA3, 0x16, nRst, 0x02, nG3, 0x16
	.byte	nRst, 0x02, nRst, 0x18, nC4, 0x16, nRst, 0x02, nD4, 0x16, nRst, 0x02
	.byte	nB3, 0x16, nRst, 0x02, nC4, 0x10, nRst, 0x02, nC4, 0x04, nRst, 0x02
	.byte	nRst, 0x06, nB3, 0x02, nRst, 0x04, nB3, 0x04, nRst, 0x08, nRst, 0x06
	.byte	nA3, 0x10, nRst, 0x02, nG3, 0x16, nRst, 0x02, nRst, 0x18, nD4, 0x16
	.byte	nRst, 0x02, nE4, 0x16, nRst, 0x02, nB3, 0x16, nRst, 0x02, nC4, 0x10
	.byte	nRst, 0x02, nC4, 0x04, nRst, 0x02, nRst, 0x06, nB3, 0x02, nRst, 0x04
	.byte	nB3, 0x04, nRst, 0x08, nA3, 0x16, nRst, 0x02, nG3, 0x16, nRst, 0x02
	.byte	nRst, 0x18, nC4, 0x16, nRst, 0x02, nD4, 0x16, nRst, 0x02, nB3, 0x16
	.byte	nRst, 0x02, nC4, 0x10, nRst, 0x02, nC4, 0x04, nRst, 0x02, nRst, 0x06
	.byte	nB3, 0x02, nRst, 0x04, nB3, 0x04, nRst, 0x08, nRst, 0x06, nA3, 0x10
	.byte	nRst, 0x02, nG3, 0x16, nRst, 0x02, nRst, 0x18, nD4, 0x16, nRst, 0x02
	.byte	nE4, 0x16, nRst, 0x02, nB3, 0x16, nRst, 0x02
	smpsAlterPitch      0x0C
	.byte	nC2, 0x10, nRst, 0x02, nC2, 0x04, nRst, 0x02, nRst, 0x06, nG3, 0x04
	.byte	nRst, 0x08, nG3, 0x04, nRst, 0x02, nRst, 0x06, nC2, 0x04, nRst, 0x02
	.byte	nG3, 0x04, nRst, 0x02, nC2, 0x04, nRst, 0x02, nRst, 0x06, nC2, 0x04
	.byte	nRst, 0x02, nG3, 0x0A, nRst, 0x02, nBb1, 0x10, nRst, 0x02, nBb1, 0x04
	.byte	nRst, 0x02, nRst, 0x06, nF3, 0x04, nRst, 0x08, nF3, 0x04, nRst, 0x02
	.byte	nRst, 0x06, nBb1, 0x04, nRst, 0x02, nF3, 0x04, nRst, 0x02, nBb1, 0x04
	.byte	nRst, 0x02, nF3, 0x16, nRst, 0x02, nA1, 0x10, nRst, 0x02, nA1, 0x04
	.byte	nRst, 0x02, nRst, 0x06, nE3, 0x04, nRst, 0x08, nE3, 0x04, nRst, 0x02
	.byte	nRst, 0x06, nA1, 0x04, nRst, 0x02, nE3, 0x04, nRst, 0x02, nA1, 0x04
	.byte	nRst, 0x02, nRst, 0x06, nA1, 0x04, nRst, 0x02, nE3, 0x0A, nRst, 0x02
	.byte	nRst, 0x06, nG2, 0x04, nRst, 0x02, nB2, 0x04, nRst, 0x02, nD3, 0x04
	.byte	nRst, 0x02, nG3, 0x04, nRst, 0x02, nD3, 0x04, nRst, 0x02, nG3, 0x04
	.byte	nRst, 0x02, nG3, 0x04, nRst, 0x02, nRst, 0x06, nB3, 0x04, nRst, 0x08
	.byte	nB3, 0x04, nRst, 0x02, nC4, 0x04, nRst, 0x08, nD4, 0x04, nRst, 0x08
	.byte	nC2, 0x10, nRst, 0x02, nC2, 0x04, nRst, 0x02, nRst, 0x06, nG3, 0x04
	.byte	nRst, 0x08, nG3, 0x04, nRst, 0x02, nRst, 0x06, nC2, 0x04, nRst, 0x02
	.byte	nG3, 0x04, nRst, 0x02, nC2, 0x04, nRst, 0x02, nRst, 0x06, nC2, 0x04
	.byte	nRst, 0x02, nG3, 0x0A, nRst, 0x02, nBb1, 0x10, nRst, 0x02, nBb1, 0x04
	.byte	nRst, 0x02, nRst, 0x06, nF3, 0x04, nRst, 0x08, nF3, 0x04, nRst, 0x02
	.byte	nRst, 0x06, nBb1, 0x04, nRst, 0x02, nF3, 0x04, nRst, 0x02, nBb1, 0x04
	.byte	nRst, 0x02, nF3, 0x16, nRst, 0x02, nA1, 0x10, nRst, 0x02, nA1, 0x04
	.byte	nRst, 0x02, nRst, 0x06, nE3, 0x04, nRst, 0x08, nE3, 0x04, nRst, 0x02
	.byte	nRst, 0x06, nA1, 0x04, nRst, 0x02, nE3, 0x04, nRst, 0x02, nA1, 0x04
	.byte	nRst, 0x02, nRst, 0x06, nA1, 0x04, nRst, 0x02, nE3, 0x0A, nRst, 0x02
	.byte	nRst, 0x06, nG2, 0x04, nRst, 0x02, nB2, 0x04, nRst, 0x02, nD3, 0x04
	.byte	nRst, 0x02, nG3, 0x04, nRst, 0x02, nD3, 0x04, nRst, 0x02, nG3, 0x04
	.byte	nRst, 0x02, nG3, 0x04, nRst, 0x02, nRst, 0x06, nB3, 0x04, nRst, 0x08
	.byte	nB3, 0x04, nRst, 0x02, nC4, 0x04, nRst, 0x08, nC4, 0x04, nRst, 0x08
	.byte	nA3, 0x18, smpsNoAttack, 0x16, nRst, 0x02, nA3, 0x10, nRst, 0x02, nB3, 0x06
	.byte	smpsNoAttack, 0x0A, nRst, 0x02, nC4, 0x0A, nRst, 0x02, nB3, 0x18, smpsNoAttack, 0x16
	.byte	nRst, 0x02, nG3, 0x10, nRst, 0x02, nA3, 0x06, smpsNoAttack, 0x0A, nRst, 0x02
	.byte	nB3, 0x0A, nRst, 0x02, nA3, 0x18, smpsNoAttack, 0x16, nRst, 0x02, nF3, 0x10
	.byte	nRst, 0x02, nG3, 0x06, smpsNoAttack, 0x0A, nRst, 0x02, nA3, 0x0A, nRst, 0x02
	.byte	nRst, 0x06, nC3, 0x04, nRst, 0x02, nE3, 0x04, nRst, 0x02, nG3, 0x04
	.byte	nRst, 0x02, nC4, 0x04, nRst, 0x02, nG3, 0x04, nRst, 0x02, nC4, 0x04
	.byte	nRst, 0x02, nC4, 0x04, nRst, 0x02, nRst, 0x06, nE4, 0x04, nRst, 0x08
	.byte	nE4, 0x04, nRst, 0x02, nF4, 0x04, nRst, 0x08, nG4, 0x04, nRst, 0x08
	.byte	nC4, 0x18, smpsNoAttack, 0x18, nC4, 0x12, nD4, 0x06, smpsNoAttack, 0x0A, nRst, 0x02
	.byte	nF4, 0x0A, nRst, 0x02, nE4, 0x04, nRst, 0x08, nE4, 0x0C, smpsNoAttack, 0x0A
	.byte	nRst, 0x02, nE4, 0x0A, nRst, 0x02, nA4, 0x18, smpsNoAttack, 0x16, nRst, 0x02
	.byte	nRst, 0x0C, nB4, 0x06, nA4, 0x06, nB4, 0x06, nRst, 0x06, nC5, 0x04
	.byte	nRst, 0x02, nB4, 0x06, nC5, 0x04, nRst, 0x08, nD5, 0x04, nRst, 0x02
	.byte	nC5, 0x06, nD5, 0x04, nRst, 0x08, nE5, 0x06, nD5, 0x06, nE5, 0x04
	.byte	nRst, 0x08, nF5, 0x04, nRst, 0x02, nE5, 0x06, nF5, 0x04, nRst, 0x08
	.byte	nE5, 0x0C, smpsNoAttack, 0x0A, nRst, 0x02, nC5, 0x0C, smpsNoAttack, 0x16
	smpsAlterPitch      0xF4
	smpsJump            Snd_DPZ_FM4

/*  Unreachable */
	smpsStop

/*  FM5 Data */
Snd_DPZ_FM5:
	smpsSetvoice        0x1B
	smpsAlterNote       0x00
	smpsModSet          0x0F, 0x01, 0x06, 0x06
	smpsAlterPitch      0xF4
	.byte	nE5, 0x18, smpsNoAttack, 0x16, nRst, 0x02, nF5, 0x10, nRst, 0x02, nF5, 0x04
	.byte	nRst, 0x02, nG5, 0x16, nRst, 0x02, nC6, 0x10, nRst, 0x02, nB5, 0x06
	.byte	smpsNoAttack, 0x0A, nRst, 0x02, nA5, 0x0A, nRst, 0x02, nG5, 0x10, nRst, 0x02
	.byte	nE5, 0x06, smpsNoAttack, 0x0A, nRst, 0x02, nF5, 0x0A, nRst, 0x02, nE5, 0x18
	.byte	smpsNoAttack, 0x16, nRst, 0x02, nRst, 0x06, nA5, 0x10, nRst, 0x02, nB5, 0x16
	.byte	nRst, 0x02, nC6, 0x10, nRst, 0x02, nB5, 0x06, smpsNoAttack, 0x0A, nRst, 0x02
	.byte	nA5, 0x0A, nRst, 0x02, nG5, 0x10, nRst, 0x02, nE5, 0x06, smpsNoAttack, 0x0A
	.byte	nRst, 0x02, nG5, 0x0A, nRst, 0x02, nE5, 0x18, smpsNoAttack, 0x16, nRst, 0x02
	.byte	nF5, 0x10, nRst, 0x02, nF5, 0x04, nRst, 0x02, nG5, 0x16, nRst, 0x02
	.byte	nC6, 0x10, nRst, 0x02, nB5, 0x06, smpsNoAttack, 0x0A, nRst, 0x02, nA5, 0x0A
	.byte	nRst, 0x02, nG5, 0x10, nRst, 0x02, nE5, 0x06, smpsNoAttack, 0x0A, nRst, 0x02
	.byte	nF5, 0x0A, nRst, 0x02, nE5, 0x18, smpsNoAttack, 0x16, nRst, 0x02, nRst, 0x06
	.byte	nA5, 0x10, nRst, 0x02, nB5, 0x16, nRst, 0x02, nC6, 0x10, nRst, 0x02
	.byte	nB5, 0x06, smpsNoAttack, 0x0A, nRst, 0x02, nA5, 0x0A, nRst, 0x02, nG5, 0x10
	.byte	nRst, 0x02, nE5, 0x06, smpsNoAttack, 0x0A, nRst, 0x02, nG5, 0x0A, nRst, 0x02
	.byte	nE5, 0x18, smpsNoAttack, 0x04, nRst, 0x02
	smpsSetvoice        0x19
	smpsAlterNote       0xFD
	smpsModSet          0x00, 0x01, 0x03, 0x06
	smpsAlterPitch      0x18
	.byte	nE3, 0x04, nRst, 0x08, nE3, 0x04, nRst, 0x02, nRst, 0x0C, nE3, 0x04
	.byte	nRst, 0x08, nRst, 0x0C, nE3, 0x0A, nRst, 0x02, nRst, 0x18, nRst, 0x06
	.byte	nD3, 0x04, nRst, 0x08, nD3, 0x04, nRst, 0x02, nRst, 0x0C, nD3, 0x04
	.byte	nRst, 0x08, nD3, 0x16, nRst, 0x02, nRst, 0x18, nRst, 0x06, nC3, 0x04
	.byte	nRst, 0x08, nC3, 0x04, nRst, 0x02, nRst, 0x0C, nC3, 0x04, nRst, 0x08
	.byte	nRst, 0x0C, nC3, 0x0A, nRst, 0x02, nRst, 0x18, nRst, 0x18, nRst, 0x06
	.byte	nG3, 0x04, nRst, 0x08, nG3, 0x04, nRst, 0x02, nA3, 0x04, nRst, 0x08
	.byte	nB3, 0x04, nRst, 0x08, nRst, 0x18, nRst, 0x06, nE3, 0x04, nRst, 0x08
	.byte	nE3, 0x04, nRst, 0x02, nRst, 0x0C, nE3, 0x04, nRst, 0x08, nRst, 0x0C
	.byte	nE3, 0x0A, nRst, 0x02, nRst, 0x18, nRst, 0x06, nD3, 0x04, nRst, 0x08
	.byte	nD3, 0x04, nRst, 0x02, nRst, 0x0C, nD3, 0x04, nRst, 0x08, nD3, 0x16
	.byte	nRst, 0x02, nRst, 0x18, nRst, 0x06, nC3, 0x04, nRst, 0x08, nC3, 0x04
	.byte	nRst, 0x02, nRst, 0x0C, nC3, 0x04, nRst, 0x08, nRst, 0x0C, nC3, 0x0A
	.byte	nRst, 0x02, nRst, 0x18, nRst, 0x18, nRst, 0x06, nG3, 0x04, nRst, 0x08
	.byte	nG3, 0x04, nRst, 0x02, nA3, 0x04, nRst, 0x08, nA3, 0x04, nRst, 0x08
	.byte	nC4, 0x10, nRst, 0x02, nC4, 0x04, nRst, 0x02, nRst, 0x0C, nC4, 0x04
	.byte	nRst, 0x08, nRst, 0x18, nRst, 0x18, nG3, 0x10, nRst, 0x02, nG3, 0x04
	.byte	nRst, 0x02, nRst, 0x0C, nG3, 0x04, nRst, 0x08, nRst, 0x18, nRst, 0x18
	.byte	nF3, 0x10, nRst, 0x02, nF3, 0x04, nRst, 0x02, nRst, 0x0C, nF3, 0x04
	.byte	nRst, 0x08, nRst, 0x18, nRst, 0x18, nRst, 0x18, nRst, 0x18, nRst, 0x06
	.byte	nC4, 0x04, nRst, 0x08, nC4, 0x04, nRst, 0x02, nD4, 0x04, nRst, 0x08
	.byte	nE4, 0x04, nRst, 0x08, nC4, 0x10, nRst, 0x02, nC4, 0x04, nRst, 0x02
	.byte	nRst, 0x0C, nC4, 0x04, nRst, 0x08, nRst, 0x18, nRst, 0x18, nB3, 0x10
	.byte	nRst, 0x02, nB3, 0x04, nRst, 0x02, nRst, 0x06, nB3, 0x04, nRst, 0x0E
	.byte	nE4, 0x10, nRst, 0x02, nE4, 0x04, nRst, 0x02, nRst, 0x06, nE4, 0x04
	.byte	nRst, 0x0E, nRst, 0x18, nRst, 0x18, nRst, 0x18, nRst, 0x18, nRst, 0x18
	.byte	nRst, 0x18, nRst, 0x18, nRst, 0x16
	smpsAlterPitch      0xF4
	smpsJump            Snd_DPZ_FM5

/*  Unreachable */
	smpsStop

/*  PSG1 Data */
Snd_DPZ_PSG1:
	.byte	nRst, 0x01
	smpsPSGvoice        sTone_0A
	smpsAlterNote       0xFF
	smpsJump            Snd_DPZ_Jump02

/*  PSG2 Data */
Snd_DPZ_PSG2:
	smpsAlterNote       0x00
	smpsPSGvoice        sTone_0A

Snd_DPZ_Jump02:
	.byte	nC5, 0x04, nRst, 0x02, nE5, 0x04, nRst, 0x02, nC5, 0x04, nRst, 0x08
	.byte	nB4, 0x04, nRst, 0x02, nD5, 0x04, nRst, 0x02, nB4, 0x04, nRst, 0x08
	.byte	nA4, 0x04, nRst, 0x02, nC5, 0x04, nRst, 0x02, nA4, 0x04, nRst, 0x08
	.byte	nG4, 0x04, nRst, 0x02, nB4, 0x04, nRst, 0x02, nG4, 0x04, nRst, 0x08
	.byte	nF4, 0x0C, nRst, 0x06, nF4, 0x06, smpsNoAttack, 0x04, nRst, 0x08, nF4, 0x04
	.byte	nRst, 0x08, nG4, 0x0C, nRst, 0x06, nG4, 0x06, smpsNoAttack, 0x04, nRst, 0x08
	.byte	nG4, 0x04, nRst, 0x08, nC5, 0x04, nRst, 0x02, nE5, 0x04, nRst, 0x02
	.byte	nC5, 0x04, nRst, 0x08, nB4, 0x04, nRst, 0x02, nD5, 0x04, nRst, 0x02
	.byte	nB4, 0x04, nRst, 0x08, nA4, 0x04, nRst, 0x02, nC5, 0x04, nRst, 0x02
	.byte	nA4, 0x04, nRst, 0x08, nG4, 0x04, nRst, 0x02, nB4, 0x04, nRst, 0x02
	.byte	nG4, 0x04, nRst, 0x08, nF4, 0x0C, nRst, 0x06, nF4, 0x06, smpsNoAttack, 0x04
	.byte	nRst, 0x08, nF4, 0x06, nRst, 0x06, nG4, 0x0A, nRst, 0x08, nG4, 0x06
	.byte	smpsNoAttack, 0x02, nRst, 0x0A, nG4, 0x02, nRst, 0x0A, nC5, 0x04, nRst, 0x02
	.byte	nE5, 0x04, nRst, 0x02, nC5, 0x04, nRst, 0x08, nB4, 0x04, nRst, 0x02
	.byte	nD5, 0x04, nRst, 0x02, nB4, 0x04, nRst, 0x08, nA4, 0x04, nRst, 0x02
	.byte	nC5, 0x04, nRst, 0x02, nA4, 0x04, nRst, 0x08, nG4, 0x04, nRst, 0x02
	.byte	nB4, 0x04, nRst, 0x02, nG4, 0x04, nRst, 0x08, nF4, 0x0C, nRst, 0x06
	.byte	nF4, 0x06, smpsNoAttack, 0x04, nRst, 0x08, nF4, 0x04, nRst, 0x08, nG4, 0x0C
	.byte	nRst, 0x06, nG4, 0x06, smpsNoAttack, 0x02, nRst, 0x0A, nG4, 0x02, nRst, 0x0A
	.byte	nC5, 0x04, nRst, 0x02, nE5, 0x04, nRst, 0x02, nC5, 0x04, nRst, 0x08
	.byte	nB4, 0x04, nRst, 0x02, nD5, 0x04, nRst, 0x02, nB4, 0x04, nRst, 0x08
	.byte	nA4, 0x04, nRst, 0x02, nC5, 0x04, nRst, 0x02, nA4, 0x04, nRst, 0x08
	.byte	nG4, 0x04, nRst, 0x02, nB4, 0x04, nRst, 0x02, nG4, 0x04, nRst, 0x08
	.byte	nF4, 0x0C, nRst, 0x06, nF4, 0x06, smpsNoAttack, 0x04, nRst, 0x08, nF4, 0x06
	.byte	nRst, 0x06, nG4, 0x0C, nRst, 0x06, nG4, 0x06, smpsNoAttack, 0x02, nRst, 0x0A
	.byte	nD4, 0x0A, nRst, 0x02, nC4, 0x04, nRst, 0x02, nC4, 0x04, nRst, 0x02
	.byte	nC5, 0x04, nRst, 0x02, nC4, 0x04, nRst, 0x02, nC4, 0x04, nRst, 0x02
	.byte	nC5, 0x04, nRst, 0x0E, nRst, 0x18, nRst, 0x18, nBb3, 0x04, nRst, 0x02
	.byte	nBb3, 0x04, nRst, 0x02, nBb4, 0x04, nRst, 0x02, nBb3, 0x04, nRst, 0x02
	.byte	nRst, 0x18, nRst, 0x18, nRst, 0x18, nA3, 0x04, nRst, 0x02, nA3, 0x04
	.byte	nRst, 0x02, nA4, 0x04, nRst, 0x02, nA3, 0x04, nRst, 0x02, nA3, 0x04
	.byte	nRst, 0x02, nA4, 0x04, nRst, 0x02, nA3, 0x04, nRst, 0x02, nA3, 0x04
	.byte	nRst, 0x02, nRst, 0x18, nRst, 0x18, nRst, 0x06, nG3, 0x04, nRst, 0x02
	.byte	nB3, 0x04, nRst, 0x02, nD4, 0x04, nRst, 0x02, nG4, 0x04, nRst, 0x02
	.byte	nD4, 0x04, nRst, 0x02, nG4, 0x04, nRst, 0x02, nG4, 0x04, nRst, 0x02
	.byte	nRst, 0x06, nB4, 0x04, nRst, 0x08, nB4, 0x04, nRst, 0x02, nC5, 0x04
	.byte	nRst, 0x08, nD5, 0x04, nRst, 0x08, nC4, 0x04, nRst, 0x02, nC4, 0x04
	.byte	nRst, 0x02, nC5, 0x04, nRst, 0x02, nC4, 0x04, nRst, 0x02, nC4, 0x04
	.byte	nRst, 0x02, nC5, 0x04, nRst, 0x02, nC4, 0x04, nRst, 0x02, nC4, 0x04
	.byte	nRst, 0x02, nRst, 0x18, nRst, 0x18, nBb3, 0x04, nRst, 0x02, nBb3, 0x04
	.byte	nRst, 0x02, nBb4, 0x04, nRst, 0x02, nBb3, 0x04, nRst, 0x02, nBb3, 0x04
	.byte	nRst, 0x02, nBb4, 0x04, nRst, 0x02, nBb3, 0x04, nRst, 0x02, nBb3, 0x04
	.byte	nRst, 0x02, nRst, 0x18, nRst, 0x18, nA3, 0x04, nRst, 0x02, nA3, 0x04
	.byte	nRst, 0x02, nA4, 0x04, nRst, 0x02, nA3, 0x04, nRst, 0x02, nA3, 0x04
	.byte	nRst, 0x02, nA4, 0x04, nRst, 0x02, nA3, 0x04, nRst, 0x02, nA3, 0x04
	.byte	nRst, 0x02, nRst, 0x18, nRst, 0x18, nRst, 0x06, nG3, 0x04, nRst, 0x02
	.byte	nB3, 0x04, nRst, 0x02, nD4, 0x04, nRst, 0x02, nG4, 0x04, nRst, 0x02
	.byte	nD4, 0x04, nRst, 0x02, nG4, 0x04, nRst, 0x02, nG4, 0x04, nRst, 0x02
	.byte	nRst, 0x06, nB4, 0x04, nRst, 0x08, nB4, 0x04, nRst, 0x02, nC5, 0x04
	.byte	nRst, 0x14, nE4, 0x10, nRst, 0x02, nE4, 0x04, nRst, 0x02, nRst, 0x0C
	.byte	nE4, 0x04, nRst, 0x08, nRst, 0x0C, nA4, 0x04, nRst, 0x02, nB4, 0x04
	.byte	nRst, 0x02, nRst, 0x06, nB4, 0x04, nRst, 0x02, nC5, 0x04, nRst, 0x08
	.byte	nB3, 0x10, nRst, 0x02, nB3, 0x04, nRst, 0x02, nRst, 0x0C, nB3, 0x04
	.byte	nRst, 0x08, nRst, 0x0C, nG4, 0x04, nRst, 0x02, nA4, 0x04, nRst, 0x02
	.byte	nRst, 0x06, nA4, 0x04, nRst, 0x02, nB4, 0x04, nRst, 0x08, nA3, 0x10
	.byte	nRst, 0x02, nA3, 0x04, nRst, 0x02, nRst, 0x0C, nA3, 0x04, nRst, 0x08
	.byte	nRst, 0x0C, nF4, 0x04, nRst, 0x02, nG4, 0x04, nRst, 0x02, nRst, 0x06
	.byte	nG4, 0x04, nRst, 0x02, nA4, 0x04, nRst, 0x08, nRst, 0x06, nC4, 0x04
	.byte	nRst, 0x02, nE4, 0x04, nRst, 0x02, nG4, 0x04, nRst, 0x02, nC5, 0x04
	.byte	nRst, 0x02, nG4, 0x04, nRst, 0x02, nC5, 0x04, nRst, 0x02, nC5, 0x04
	.byte	nRst, 0x02, nRst, 0x06, nE5, 0x04, nRst, 0x08, nE5, 0x04, nRst, 0x02
	.byte	nF5, 0x04, nRst, 0x08, nG5, 0x04, nRst, 0x08, nF4, 0x10, nRst, 0x02
	.byte	nF4, 0x04, nRst, 0x02, nRst, 0x0C, nF4, 0x04, nRst, 0x08, nRst, 0x0C
	.byte	nC4, 0x04, nRst, 0x02, nD4, 0x04, nRst, 0x02, nRst, 0x06, nD4, 0x04
	.byte	nRst, 0x02, nF4, 0x04, nRst, 0x08, nE4, 0x04, nRst, 0x02, nE5, 0x04
	.byte	nRst, 0x02, nE4, 0x04, nRst, 0x02, nE5, 0x04, nRst, 0x02, nE4, 0x04
	.byte	nRst, 0x02, nE5, 0x04, nRst, 0x02, nE4, 0x04, nRst, 0x08, nA4, 0x04
	.byte	nRst, 0x02, nA4, 0x04, nRst, 0x02, nA3, 0x04, nRst, 0x02, nA4, 0x04
	.byte	nRst, 0x02, nA3, 0x04, nRst, 0x02, nA4, 0x04, nRst, 0x02, nA3, 0x04
	.byte	nRst, 0x08, nD4, 0x04, nRst, 0x02, nD4, 0x04, nRst, 0x02, nD5, 0x04
	.byte	nRst, 0x02, nD4, 0x04, nRst, 0x02, nD4, 0x04, nRst, 0x02, nD5, 0x04
	.byte	nRst, 0x02, nE4, 0x04, nRst, 0x02, nE4, 0x04, nRst, 0x02, nE5, 0x04
	.byte	nRst, 0x02, nE4, 0x04, nRst, 0x02, nF4, 0x04, nRst, 0x02, nF4, 0x04
	.byte	nRst, 0x02, nF5, 0x04, nRst, 0x02, nF4, 0x04, nRst, 0x02, nG4, 0x04
	.byte	nRst, 0x02, nG4, 0x04, nRst, 0x02, nG5, 0x04, nRst, 0x02, nG4, 0x04
	.byte	nRst, 0x02, nG4, 0x04, nRst, 0x02, nAb4, 0x04, nRst, 0x02, nA4, 0x04
	.byte	nRst, 0x08, nAb4, 0x0C, smpsNoAttack, 0x04, nRst, 0x02, nF4, 0x04, nRst, 0x02
	.byte	nFs4, 0x04, nRst, 0x02, nG4, 0x04, nRst, 0x02, nAb4, 0x04, nRst, 0x02
	.byte	nA4, 0x04, nRst, 0x02, nBb4, 0x04, nRst, 0x02, nB4, 0x04
	smpsJump            Snd_DPZ_PSG2

/*  Unreachable */
	smpsStop

/*  PSG3 Data */
Snd_DPZ_PSG3:
	smpsPSGvoice        sTone_02
	smpsPSGform         0xE7

Snd_DPZ_Jump01:
	.byte	nRst, 0x0C
	smpsPSGvoice        sTone_01
	.byte	nMaxPSG1, 0x06, nMaxPSG1, 0x06, smpsNoAttack, 0x0C, nMaxPSG1, 0x06, nMaxPSG1, 0x06, smpsNoAttack, 0x0C
	.byte	nMaxPSG1, 0x06, nMaxPSG1, 0x06, smpsNoAttack, 0x0C, nMaxPSG1, 0x06, nMaxPSG1, 0x06, smpsNoAttack, 0x0C
	.byte	nMaxPSG1, 0x06, nMaxPSG1, 0x06, smpsNoAttack, 0x0C, nMaxPSG1, 0x06, nMaxPSG1, 0x06, smpsNoAttack, 0x0C
	.byte	nMaxPSG1, 0x06, nMaxPSG1, 0x06, smpsNoAttack, 0x0C
	smpsPSGvoice        sTone_08
	.byte	nMaxPSG1, 0x06
	smpsPSGvoice        sTone_01
	.byte	nMaxPSG1, 0x06, smpsNoAttack, 0x0C, nMaxPSG1, 0x06, nMaxPSG1, 0x06, smpsNoAttack, 0x0C, nMaxPSG1, 0x06
	.byte	nMaxPSG1, 0x06, smpsNoAttack, 0x0C, nMaxPSG1, 0x06, nMaxPSG1, 0x06, smpsNoAttack, 0x0C, nMaxPSG1, 0x06
	.byte	nMaxPSG1, 0x06, smpsNoAttack, 0x0C, nMaxPSG1, 0x06, nMaxPSG1, 0x06, smpsNoAttack, 0x0C, nMaxPSG1, 0x06
	.byte	nMaxPSG1, 0x06, smpsNoAttack, 0x0C, nMaxPSG1, 0x06, nMaxPSG1, 0x06, smpsNoAttack, 0x0C
	smpsPSGvoice        sTone_08
	.byte	nMaxPSG1, 0x06
	smpsPSGvoice        sTone_01
	.byte	nMaxPSG1, 0x06, smpsNoAttack, 0x0C, nMaxPSG1, 0x06, nMaxPSG1, 0x06, smpsNoAttack, 0x0C, nMaxPSG1, 0x06
	.byte	nMaxPSG1, 0x06, smpsNoAttack, 0x0C, nMaxPSG1, 0x06, nMaxPSG1, 0x06, smpsNoAttack, 0x0C
	smpsPSGvoice        sTone_08
	.byte	nMaxPSG1, 0x06
	smpsPSGvoice        sTone_01
	.byte	nMaxPSG1, 0x06, smpsNoAttack, 0x0C, nMaxPSG1, 0x06, nMaxPSG1, 0x06, smpsNoAttack, 0x0C, nMaxPSG1, 0x06
	.byte	nMaxPSG1, 0x06, smpsNoAttack, 0x0C, nMaxPSG1, 0x06, nMaxPSG1, 0x06, smpsNoAttack, 0x0C
	smpsPSGvoice        sTone_08
	.byte	nMaxPSG1, 0x06
	smpsPSGvoice        sTone_01
	.byte	nMaxPSG1, 0x06, smpsNoAttack, 0x0C, nMaxPSG1, 0x06, nMaxPSG1, 0x06, smpsNoAttack, 0x0C, nMaxPSG1, 0x06
	.byte	nMaxPSG1, 0x06, smpsNoAttack, 0x0C, nMaxPSG1, 0x06, nMaxPSG1, 0x06, smpsNoAttack, 0x0C, nMaxPSG1, 0x06
	.byte	nMaxPSG1, 0x06, smpsNoAttack, 0x0C, nMaxPSG1, 0x06, nMaxPSG1, 0x06, smpsNoAttack, 0x0C, nMaxPSG1, 0x06
	.byte	nMaxPSG1, 0x06, smpsNoAttack, 0x0C, nMaxPSG1, 0x06, nMaxPSG1, 0x06, smpsNoAttack, 0x0C, nMaxPSG1, 0x06
	.byte	nMaxPSG1, 0x06, smpsNoAttack, 0x0C, nMaxPSG1, 0x06, nMaxPSG1, 0x06, smpsNoAttack, 0x0C, nMaxPSG1, 0x06
	.byte	nMaxPSG1, 0x06, smpsNoAttack, 0x0C, nMaxPSG1, 0x06, nMaxPSG1, 0x06, smpsNoAttack, 0x0C
	smpsPSGvoice        sTone_08
	.byte	nMaxPSG1, 0x06
	smpsPSGvoice        sTone_01
	.byte	nMaxPSG1, 0x06, smpsNoAttack, 0x0C, nMaxPSG1, 0x06, nMaxPSG1, 0x06, smpsNoAttack, 0x0C, nMaxPSG1, 0x06
	.byte	nMaxPSG1, 0x06, smpsNoAttack, 0x0C, nMaxPSG1, 0x06, nMaxPSG1, 0x06, smpsNoAttack, 0x0C
	smpsPSGvoice        sTone_08
	.byte	nMaxPSG1, 0x06
	smpsPSGvoice        sTone_01
	.byte	nMaxPSG1, 0x06, smpsNoAttack, 0x0C, nMaxPSG1, 0x06, nMaxPSG1, 0x06, smpsNoAttack, 0x0C, nMaxPSG1, 0x06
	.byte	nMaxPSG1, 0x06, smpsNoAttack, 0x0C, nMaxPSG1, 0x06, nMaxPSG1, 0x06, smpsNoAttack, 0x0C
	smpsPSGvoice        sTone_08
	.byte	nMaxPSG1, 0x06
	smpsPSGvoice        sTone_01
	.byte	nMaxPSG1, 0x06, smpsNoAttack, 0x0C, nMaxPSG1, 0x06, nMaxPSG1, 0x06, smpsNoAttack, 0x0C, nMaxPSG1, 0x06
	.byte	nMaxPSG1, 0x06, smpsNoAttack, 0x0C, nMaxPSG1, 0x06, nMaxPSG1, 0x06, smpsNoAttack, 0x0C, nMaxPSG1, 0x06
	.byte	nMaxPSG1, 0x06, smpsNoAttack, 0x0C, nMaxPSG1, 0x06, nMaxPSG1, 0x06, smpsNoAttack, 0x0C, nMaxPSG1, 0x06
	.byte	nMaxPSG1, 0x06, smpsNoAttack, 0x0C, nMaxPSG1, 0x06, nMaxPSG1, 0x06, smpsNoAttack, 0x0C
	smpsPSGvoice        sTone_08
	.byte	nMaxPSG1, 0x06
	smpsPSGvoice        sTone_01
	.byte	nMaxPSG1, 0x06, smpsNoAttack, 0x0C, nMaxPSG1, 0x06, nMaxPSG1, 0x06, smpsNoAttack, 0x0C, nMaxPSG1, 0x06
	.byte	nMaxPSG1, 0x06, smpsNoAttack, 0x0C, nMaxPSG1, 0x06, nMaxPSG1, 0x06, smpsNoAttack, 0x0C
	smpsPSGvoice        sTone_08
	.byte	nMaxPSG1, 0x06
	smpsPSGvoice        sTone_01
	.byte	nMaxPSG1, 0x06, smpsNoAttack, 0x0C, nMaxPSG1, 0x06, nMaxPSG1, 0x06, smpsNoAttack, 0x0C, nMaxPSG1, 0x06
	.byte	nMaxPSG1, 0x06, smpsNoAttack, 0x0C, nMaxPSG1, 0x06, nMaxPSG1, 0x06, smpsNoAttack, 0x0C
	smpsPSGvoice        sTone_08
	.byte	nMaxPSG1, 0x06
	smpsPSGvoice        sTone_01
	.byte	nMaxPSG1, 0x06, smpsNoAttack, 0x0C, nMaxPSG1, 0x06, nMaxPSG1, 0x06, smpsNoAttack, 0x0C, nMaxPSG1, 0x06
	.byte	nMaxPSG1, 0x06, smpsNoAttack, 0x0C, nMaxPSG1, 0x06, nMaxPSG1, 0x06, smpsNoAttack, 0x0C, nMaxPSG1, 0x06
	.byte	nMaxPSG1, 0x06, smpsNoAttack, 0x0C
	smpsPSGvoice        sTone_08
	.byte	nMaxPSG1, 0x06
	smpsPSGvoice        sTone_01
	.byte	nMaxPSG1, 0x06, smpsNoAttack, 0x0C
	smpsPSGvoice        sTone_08
	.byte	nMaxPSG1, 0x06
	smpsPSGvoice        sTone_01
	.byte	nMaxPSG1, 0x06, smpsNoAttack, 0x0C
	smpsPSGvoice        sTone_08
	.byte	nMaxPSG1, 0x06
	smpsPSGvoice        sTone_01
	.byte	nMaxPSG1, 0x06, smpsNoAttack, 0x0C
	smpsPSGvoice        sTone_08
	.byte	nMaxPSG1, 0x06
	smpsPSGvoice        sTone_01
	.byte	nMaxPSG1, 0x06, smpsNoAttack, 0x0C
	smpsPSGvoice        sTone_08
	.byte	nMaxPSG1, 0x06
	smpsPSGvoice        sTone_01
	.byte	nMaxPSG1, 0x06, smpsNoAttack, 0x0C
	smpsPSGvoice        sTone_08
	.byte	nMaxPSG1, 0x06
	smpsPSGvoice        sTone_01
	.byte	nMaxPSG1, 0x06, smpsNoAttack, 0x0C
	smpsPSGvoice        sTone_08
	.byte	nMaxPSG1, 0x06
	smpsPSGvoice        sTone_01
	.byte	nMaxPSG1, 0x06, smpsNoAttack, 0x0C
	smpsPSGvoice        sTone_08
	.byte	nMaxPSG1, 0x06
	smpsPSGvoice        sTone_01
	.byte	nMaxPSG1, 0x06, smpsNoAttack, 0x0C
	smpsPSGvoice        sTone_08
	.byte	nMaxPSG1, 0x06
	smpsPSGvoice        sTone_01
	.byte	nMaxPSG1, 0x06, smpsNoAttack, 0x0C
	smpsPSGvoice        sTone_08
	.byte	nMaxPSG1, 0x06
	smpsPSGvoice        sTone_01
	.byte	nMaxPSG1, 0x06, smpsNoAttack, 0x0C
	smpsPSGvoice        sTone_08
	.byte	nMaxPSG1, 0x06
	smpsPSGvoice        sTone_01
	.byte	nMaxPSG1, 0x06, smpsNoAttack, 0x0C
	smpsPSGvoice        sTone_08
	.byte	nMaxPSG1, 0x06
	smpsPSGvoice        sTone_01
	.byte	nMaxPSG1, 0x06, smpsNoAttack, 0x18, smpsNoAttack, 0x18, smpsNoAttack, 0x18, smpsNoAttack, 0x18, smpsNoAttack, 0x0C
	smpsPSGvoice        sTone_08
	.byte	nMaxPSG1, 0x06
	smpsPSGvoice        sTone_01
	.byte	nMaxPSG1, 0x06, smpsNoAttack, 0x0C
	smpsPSGvoice        sTone_08
	.byte	nMaxPSG1, 0x06
	smpsPSGvoice        sTone_01
	.byte	nMaxPSG1, 0x06, smpsNoAttack, 0x0C
	smpsPSGvoice        sTone_08
	.byte	nMaxPSG1, 0x06
	smpsPSGvoice        sTone_01
	.byte	nMaxPSG1, 0x06, smpsNoAttack, 0x0C
	smpsPSGvoice        sTone_08
	.byte	nMaxPSG1, 0x06
	smpsPSGvoice        sTone_01
	.byte	nMaxPSG1, 0x06, smpsNoAttack, 0x0C
	smpsPSGvoice        sTone_08
	.byte	nMaxPSG1, 0x06
	smpsPSGvoice        sTone_01
	.byte	nMaxPSG1, 0x06, smpsNoAttack, 0x0C
	smpsPSGvoice        sTone_08
	.byte	nMaxPSG1, 0x06
	smpsPSGvoice        sTone_01
	.byte	nMaxPSG1, 0x06, smpsNoAttack, 0x0C
	smpsPSGvoice        sTone_08
	.byte	nMaxPSG1, 0x06
	smpsPSGvoice        sTone_01
	.byte	nMaxPSG1, 0x06, smpsNoAttack, 0x0C
	smpsPSGvoice        sTone_08
	.byte	nMaxPSG1, 0x06
	smpsPSGvoice        sTone_01
	.byte	nMaxPSG1, 0x04, smpsNoAttack, 0x02, smpsNoAttack, 0x18, smpsNoAttack, 0x18, smpsNoAttack, 0x18, smpsNoAttack, 0x18
	.byte	smpsNoAttack, 0x18, smpsNoAttack, 0x18, smpsNoAttack, 0x18, smpsNoAttack, 0x16
	smpsJump            Snd_DPZ_Jump01

/*  Unreachable */
	smpsStop

