Snd_DEZ1_Header:
	smpsHeaderStartSong 3
	smpsHeaderVoice     Snd_DEZ1_Voices
	smpsHeaderChan      0x06, 0x03
	smpsHeaderTempo     0x01, 0x08

	smpsHeaderDAC       Snd_DEZ1_DAC
	smpsHeaderFM        Snd_DEZ1_FM1,	0x00, 0x0F
	smpsHeaderFM        Snd_DEZ1_FM2,	0x00, 0x0B
	smpsHeaderFM        Snd_DEZ1_FM3,	0x00, 0x0C
	smpsHeaderFM        Snd_DEZ1_FM4,	0x00, 0x0F
	smpsHeaderFM        Snd_DEZ1_FM5,	0x00, 0x18
	smpsHeaderPSG       Snd_DEZ1_PSG1,	0xE8, 0x02, 0x00, 0x00
	smpsHeaderPSG       Snd_DEZ1_PSG2,	0xE8, 0x02, 0x00, 0x00
	smpsHeaderPSG       Snd_DEZ1_PSG3,	0xE8, 0x02, 0x00, 0x00

/*  FM1 Data */
Snd_DEZ1_FM1:
	smpsModSet          0x0D, 0x01, 0x02, 0x06
	smpsPan             panCenter, 0x00

Snd_DEZ1_Loop13:
	smpsSetvoice        0x00
	.byte	nRst, 0x18, nG4, 0x0B, nRst, 0x0D, nF4, 0x0B, nRst, 0x25, nE4, 0x0C
	.byte	nF4, nRst, nG4, nRst, nF4, 0x24, nRst, 0x18, nG4, 0x0B, nRst, 0x0D
	.byte	nF4, 0x0B, nRst, 0x25, nE4, 0x0C, nF4, nRst, nG4, nRst, nF4, nRst
	.byte	nF4, 0x7F, smpsNoAttack, nF4, 0x29, nE4, 0x0B, nRst, 0x0D, nF4, 0x6C, nA4
	.byte	0x06, nBb4, nA4, nRst, nG4, nA4, nG4, nRst, nF4, nG4, nF4, nRst
	.byte	nE4, nF4, nE4, nRst
	smpsLoop            0x00, 0x02, Snd_DEZ1_Loop13
	smpsSetvoice        0x03

Snd_DEZ1_Loop14:
	.byte	nAb3, 0x06, nBb3, nC4, nEb4
	smpsLoop            0x00, 0x04, Snd_DEZ1_Loop14

Snd_DEZ1_Loop15:
	.byte	nBb3, 0x06, nC4, nD4, nF4
	smpsLoop            0x00, 0x04, Snd_DEZ1_Loop15
	.byte	nRst, 0x60, nRst, 0x06, nBb4, 0x12, nA4, 0x06, nRst, nG4, nRst, nBb4
	.byte	nRst, nG4, nA4, nRst, nBb4, 0x12

Snd_DEZ1_Loop16:
	.byte	nAb3, 0x06, nBb3, nC4, nEb4
	smpsLoop            0x00, 0x04, Snd_DEZ1_Loop16

Snd_DEZ1_Loop17:
	.byte	nBb3, 0x06, nC4, nD4, nF4
	smpsLoop            0x00, 0x04, Snd_DEZ1_Loop17
	.byte	nRst, 0x60, nRst, 0x06, nBb4, 0x12, nA4, 0x06, nRst, nG4, nRst, nBb4
	.byte	nG4, nRst, nC5, nRst, nBb4, nRst, nG4
	smpsJump            Snd_DEZ1_FM1

/*  Unreachable */
	smpsStop

/*  FM2 Data */
Snd_DEZ1_FM2:
	smpsSetvoice        0x01
	smpsModSet          0x0D, 0x01, 0x02, 0x06
	smpsPan             panCenter, 0x00

Snd_DEZ1_Loop11:
	.byte	nG1, 0x0C, nG1, nG1, nF2, 0x06, nG2, nG1, 0x0C, nG1, nG1, 0x06
	.byte	nD2, nG1, 0x0C, nG1, nG1, nG1, nF2, 0x06, nG2, nG1, 0x0C, nG1
	.byte	nC2, 0x06, nD2, nG1, 0x0C, nG1, nG1, nG1, nF2, 0x06, nG2, nG1
	.byte	0x0C, nG1, nC2, 0x06, nD2, nG1, 0x0C, nG1, nG1, nG1, nF2, 0x06
	.byte	nG2, nG1, 0x0C, nG1, nC2, 0x06, nD2, nG1, 0x0C, nBb1, nBb1, nBb1
	.byte	nBb1, nBb1, nBb1, nBb1, nAb1, 0x06, nBb1, nBb1, 0x0C, nBb1, nBb1, nBb1
	.byte	nBb1, nBb1, nBb1, nBb1, nBb1, nBb1, nBb1, nBb1, nBb1, nBb1, nBb1, nAb1
	.byte	0x06, nBb1, nBb1, 0x0C, nBb1, nBb1, nBb1, nBb1, nBb1, nBb1, nBb1
	smpsLoop            0x00, 0x02, Snd_DEZ1_Loop11

Snd_DEZ1_Loop12:
	.byte	nAb1, 0x0C, nAb1, nAb1, 0x03, nRst, nAb2, nRst, nAb1, nRst, nAb2, nRst
	.byte	nAb1, 0x0C, nAb1, nAb1, 0x03, nRst, nAb2, nRst, nAb1, nRst, nAb2, nRst
	.byte	nBb1, 0x0C, nBb1, nBb1, 0x03, nRst, nBb2, nRst, nBb1, nRst, nBb2, nRst
	.byte	nBb1, 0x0C, nBb1, nBb1, 0x03, nRst, nBb2, nRst, nBb1, nRst, nBb2, nRst
	.byte	nC2, 0x06, nC2, 0x03, nRst, nBb2, 0x06, nC3, 0x03, nRst, nF2, 0x06
	.byte	nG2, 0x03, nRst, nC2, nRst, nBb1, nRst, nC2, 0x06, nBb1, nC2, 0x03
	.byte	nRst, nC2, 0x06, nRst, nC2, nRst, nC2, nC2, 0x0C, nC2, nRst, 0x48
	smpsLoop            0x00, 0x02, Snd_DEZ1_Loop12
	smpsJump            Snd_DEZ1_FM2

/*  Unreachable */
	smpsStop

/*  FM3 Data */
Snd_DEZ1_FM3:
	smpsSetvoice        0x02
	smpsModSet          0x0D, 0x01, 0x02, 0x06
	smpsPan             panRight, 0x00

Snd_DEZ1_Loop0F:
	smpsPan             panRight, 0x00
	.byte	nG2, 0x06, nBb2, nG2, nE2, nRst, 0x30
	smpsPan             panLeft, 0x00
	.byte	nBb3, 0x06, nC4, nE4, nC4, nRst, 0x18
	smpsPan             panRight, 0x00
	.byte	nEb3, 0x06, nG3, nF3, nBb3, nRst, 0x30
	smpsPan             panLeft, 0x00
	.byte	nG2, 0x06, nBb2, nG2, nE2, nRst, 0x30
	smpsPan             panRight, 0x00
	.byte	nBb3, 0x06, nC4, nE4, nC4, nRst, 0x18
	smpsPan             panLeft, 0x00
	.byte	nEb3, 0x06, nG3, nF3, nBb3, nRst, 0x30, nRst, 0x18
	smpsPan             panRight, 0x00
	.byte	nBb4, 0x06, nA4, nBb4, nBb4, nBb5, nA5, nBb5, nBb5, nBb4, nA4, nBb4
	.byte	nBb4, nRst, 0x18
	smpsPan             panLeft, 0x00
	.byte	nBb3, 0x06, nF3, nFs3, nD3, nEb3, nE3, nBb2, nB2, nG2, nAb2, nE2
	.byte	nFs2, nRst, 0x18
	smpsPan             panRight, 0x00
	.byte	nBb4, 0x06, nA4, nBb4, nBb4, nBb5, nA5, nBb5, nBb5, nBb4, nA4, nBb4
	.byte	nBb4, nRst, 0x18
	smpsPan             panLeft, 0x00
	.byte	nBb3, 0x06, nF3, nFs3, nD3, nEb3, nE3, nBb2, nB2, nG2, nAb2, nE2
	.byte	nFs2
	smpsLoop            0x00, 0x02, Snd_DEZ1_Loop0F

Snd_DEZ1_Loop10:
	.byte	nRst, 0x60
	smpsLoop            0x00, 0x08, Snd_DEZ1_Loop10
	smpsJump            Snd_DEZ1_FM3

/*  Unreachable */
	smpsStop

/*  FM4 Data */
Snd_DEZ1_FM4:
	smpsModSet          0x0D, 0x01, 0x02, 0x06
	smpsPan             panLeft, 0x00
	smpsSetvoice        0x00

Snd_DEZ1_Loop0A:
	.byte	nRst, 0x18, nE4, 0x0B, nRst, 0x0D, nD4, 0x0B, nRst, 0x25, nC4, 0x0C
	.byte	nD4, 0x0B, nRst, 0x0D, nE4, 0x0B, nRst, 0x0D, nD4, 0x24, nRst, 0x18
	.byte	nE4, 0x0B, nRst, 0x0D, nD4, 0x0B, nRst, 0x25, nC4, 0x0C, nD4, 0x0B
	.byte	nRst, 0x0D, nE4, 0x0B, nRst, 0x0D, nD4, 0x0B, nRst, 0x0D, nD4, 0x7F
	.byte	smpsNoAttack, nD4, 0x29, nC4, 0x0B, nRst, 0x0D, nD4, 0x6C, nA3, 0x06, nBb3
	.byte	nA3, nRst, nG3, nA3, nG3, nRst, nF3, nG3, nF3, nRst, nE3, nF3
	.byte	nE3, nRst
	smpsLoop            0x00, 0x02, Snd_DEZ1_Loop0A
	smpsSetvoice        0x03

Snd_DEZ1_Loop0B:
	.byte	nAb2, 0x06, nBb2, nC3, nEb3
	smpsLoop            0x00, 0x04, Snd_DEZ1_Loop0B

Snd_DEZ1_Loop0C:
	.byte	nBb2, 0x06, nC3, nD3, nF3
	smpsLoop            0x00, 0x04, Snd_DEZ1_Loop0C
	.byte	nRst, 0x60, nRst, 0x06, nG4, 0x12, nF4, 0x06, nRst, nE4, nRst, nG4
	.byte	nRst, nE4, nF4, 0x05, nRst, 0x07, nG4, 0x12

Snd_DEZ1_Loop0D:
	.byte	nAb2, 0x06, nBb2, nC3, nEb3
	smpsLoop            0x00, 0x04, Snd_DEZ1_Loop0D

Snd_DEZ1_Loop0E:
	.byte	nBb2, 0x06, nC3, nD3, nF3
	smpsLoop            0x00, 0x04, Snd_DEZ1_Loop0E
	.byte	nRst, 0x60, nRst, 0x06, nG4, 0x12, nF4, 0x06, nRst, nE4, nRst, nG4
	.byte	nE4, nRst, nA4, nRst, nG4, nRst, nE4
	smpsJump            Snd_DEZ1_FM4

/*  Unreachable */
	smpsStop

/*  FM5 Data */
Snd_DEZ1_FM5:
	.byte	nRst, 0x10

Snd_DEZ1_Jump00:
	smpsModSet          0x0D, 0x01, 0x02, 0x06
	smpsPan             panCenter, 0x00

Snd_DEZ1_Loop05:
	smpsSetvoice        0x00
	.byte	nRst, 0x18, nG4, 0x0B, nRst, 0x0D, nF4, 0x0B, nRst, 0x25, nE4, 0x0C
	.byte	nF4, nRst, nG4, nRst, nF4, 0x24, nRst, 0x18, nG4, 0x0B, nRst, 0x0D
	.byte	nF4, 0x0B, nRst, 0x25, nE4, 0x0C, nF4, nRst, nG4, nRst, nF4, nRst
	.byte	nF4, 0x7F, smpsNoAttack, nF4, 0x29, nE4, 0x0B, nRst, 0x0D, nF4, 0x6C, nA4
	.byte	0x06, nBb4, nA4, nRst, nG4, nA4, nG4, nRst, nF4, nG4, nF4, nRst
	.byte	nE4, nF4, nE4, nRst
	smpsLoop            0x00, 0x02, Snd_DEZ1_Loop05
	smpsSetvoice        0x03

Snd_DEZ1_Loop06:
	.byte	nAb3, 0x06, nBb3, nC4, nEb4
	smpsLoop            0x00, 0x04, Snd_DEZ1_Loop06

Snd_DEZ1_Loop07:
	.byte	nBb3, 0x06, nC4, nD4, nF4
	smpsLoop            0x00, 0x04, Snd_DEZ1_Loop07
	.byte	nRst, 0x60, nRst, 0x06, nBb4, 0x12, nA4, 0x06, nRst, nG4, nRst, nBb4
	.byte	nRst, nG4, nA4, nRst, nBb4, 0x12

Snd_DEZ1_Loop08:
	.byte	nAb3, 0x06, nBb3, nC4, nEb4
	smpsLoop            0x00, 0x04, Snd_DEZ1_Loop08

Snd_DEZ1_Loop09:
	.byte	nBb3, 0x06, nC4, nD4, nF4
	smpsLoop            0x00, 0x04, Snd_DEZ1_Loop09
	.byte	nRst, 0x60, nRst, 0x06, nBb4, 0x12, nA4, 0x06, nRst, nG4, nRst, nBb4
	.byte	nG4, nRst, nC5, nRst, nBb4, nRst, nG4
	smpsJump            Snd_DEZ1_Jump00

/*  Unreachable */
	smpsStop

/*  DAC Data */
Snd_DEZ1_DAC:
	.byte	dKickS3, 0x06, dKickS3, dKickS3, dKickS3, dSnareS3, 0x18, dKickS3, 0x06, dKickS3, dKickS3, dKickS3
	.byte	dSnareS3, 0x18
	smpsLoop            0x00, 0x03, Snd_DEZ1_DAC
	.byte	dKickS3, 0x06, dKickS3, dKickS3, dKickS3, dSnareS3, 0x18, dKickS3, 0x06, dKickS3, dKickS3, dKickS3
	.byte	dSnareS3, 0x0C, dSnareS3, 0x06, dSnareS3

Snd_DEZ1_Loop00:
	.byte	dKickS3, 0x06, dKickS3, dKickS3, dKickS3, dSnareS3, 0x0C, dKickS3, 0x06, dKickS3, dKickS3, 0x0C
	.byte	dKickS3, dSnareS3, 0x18
	smpsLoop            0x00, 0x03, Snd_DEZ1_Loop00
	.byte	dKickS3, 0x06, dKickS3, dKickS3, dKickS3, dSnareS3, 0x0C, dKickS3, 0x06, dKickS3, dKickS3, dSnareS3
	.byte	dKickS3, 0x0C, dSnareS3, dSnareS3, 0x06, dSnareS3

Snd_DEZ1_Loop01:
	.byte	dKickS3, 0x06, dKickS3, dKickS3, dKickS3, dSnareS3, 0x18, dKickS3, 0x06, dKickS3, dKickS3, dKickS3
	.byte	dSnareS3, 0x18
	smpsLoop            0x00, 0x03, Snd_DEZ1_Loop01
	.byte	dKickS3, 0x06, dKickS3, dKickS3, dKickS3, dSnareS3, 0x18, dKickS3, 0x06, dKickS3, dKickS3, dKickS3
	.byte	dSnareS3, 0x0C, dSnareS3, 0x06, dSnareS3

Snd_DEZ1_Loop02:
	.byte	dKickS3, 0x06, dKickS3, dKickS3, dKickS3, dSnareS3, 0x0C, dKickS3, 0x06, dKickS3, dKickS3, 0x0C
	.byte	dKickS3, dSnareS3, 0x18
	smpsLoop            0x00, 0x03, Snd_DEZ1_Loop02
	.byte	dKickS3, 0x06, dKickS3, dKickS3, dKickS3, dSnareS3, 0x0C, dKickS3, 0x06, dKickS3, dKickS3, dSnareS3
	.byte	dKickS3, 0x0C, dSnareS3, dSnareS3, 0x06, dSnareS3

Snd_DEZ1_Loop03:
	.byte	dKickS3, 0x06, dKickS3, dKickS3, dKickS3, dSnareS3, 0x0C, dSnareS3, 0x06, dSnareS3
	smpsLoop            0x00, 0x04, Snd_DEZ1_Loop03
	.byte	dKickS3, 0x06, dKickS3, dKickS3, dKickS3, dSnareS3, dSnareS3, dSnareS3, dSnareS3, dSnareS3, dSnareS3, dKickS3
	.byte	dSnareS3, 0x0C, dSnareS3, dSnareS3, 0x06, dKickS3, 0x06, dSnareS3, dKickS3, dKickS3, dSnareS3, 0x0C
	.byte	dSnareS3, dKickS3, 0x06, dKickS3, dKickS3, dKickS3, dSnareS3, 0x18

Snd_DEZ1_Loop04:
	.byte	dKickS3, 0x06, dKickS3, dKickS3, dKickS3, dSnareS3, 0x0C, dSnareS3, 0x06, dSnareS3
	smpsLoop            0x00, 0x04, Snd_DEZ1_Loop04
	.byte	dKickS3, 0x06, dKickS3, dKickS3, dKickS3, dSnareS3, dSnareS3, dSnareS3, dSnareS3, dSnareS3, dSnareS3, dKickS3
	.byte	dSnareS3, 0x0C, dSnareS3, dSnareS3, 0x06, dSnareS3, 0x0C, dSnareS3, nRst, 0x48
	smpsJump            Snd_DEZ1_DAC

/*  Unreachable */
	smpsStop

/*  PSG1 Data */
Snd_DEZ1_PSG1:
	smpsStop

/*  PSG2 Data */
Snd_DEZ1_PSG2:
	smpsStop

/*  Unreachable */
	smpsStop

/*  PSG3 Data */
Snd_DEZ1_PSG3:
	smpsStop

Snd_DEZ1_Voices:
/* 	Voice 0x00 */
/* 	0x10 */
/* 	0x45, 0x50, 0x64, 0x41, 	0x1F, 0x1F, 0x5F, 0x1F, 	0x04, 0x08, 0x08, 0x04 */
/* 	0x00, 0x0F, 0x00, 0x00, 	0x18, 0x38, 0x58, 0x18, 	0x20, 0x25, 0x1C, 0x85 */
	smpsVcAlgorithm     0x00
	smpsVcFeedback      0x02
	smpsVcUnusedBits    0x00
	smpsVcDetune        0x04, 0x06, 0x05, 0x04
	smpsVcCoarseFreq    0x01, 0x04, 0x00, 0x05
	smpsVcRateScale     0x00, 0x01, 0x00, 0x00
	smpsVcAttackRate    0x1F, 0x1F, 0x1F, 0x1F
	smpsVcAmpMod        0x00, 0x00, 0x00, 0x00
	smpsVcDecayRate1    0x04, 0x08, 0x08, 0x04
	smpsVcDecayRate2    0x00, 0x00, 0x0F, 0x00
	smpsVcDecayLevel    0x01, 0x05, 0x03, 0x01
	smpsVcReleaseRate   0x08, 0x08, 0x08, 0x08
	smpsVcTotalLevel    0x05, 0x1C, 0x25, 0x20

/* 	Voice 0x01 */
/* 	0x38 */
/* 	0x75, 0x13, 0x71, 0x11, 	0x1F, 0x5F, 0x1F, 0x1F, 	0x10, 0x0D, 0x03, 0x04 */
/* 	0x00, 0x00, 0x00, 0x00, 	0xFF, 0xFF, 0xFF, 0xFF, 	0x1F, 0x16, 0x1D, 0x81 */
	smpsVcAlgorithm     0x00
	smpsVcFeedback      0x07
	smpsVcUnusedBits    0x00
	smpsVcDetune        0x01, 0x07, 0x01, 0x07
	smpsVcCoarseFreq    0x01, 0x01, 0x03, 0x05
	smpsVcRateScale     0x00, 0x00, 0x01, 0x00
	smpsVcAttackRate    0x1F, 0x1F, 0x1F, 0x1F
	smpsVcAmpMod        0x00, 0x00, 0x00, 0x00
	smpsVcDecayRate1    0x04, 0x03, 0x0D, 0x10
	smpsVcDecayRate2    0x00, 0x00, 0x00, 0x00
	smpsVcDecayLevel    0x0F, 0x0F, 0x0F, 0x0F
	smpsVcReleaseRate   0x0F, 0x0F, 0x0F, 0x0F
	smpsVcTotalLevel    0x01, 0x1D, 0x16, 0x1F

/* 	Voice 0x02 */
/* 	0x01 */
/* 	0x71, 0x52, 0x23, 0x12, 	0x1F, 0x1F, 0x1F, 0x1F, 	0x0D, 0x0C, 0x0F, 0x0E */
/* 	0x00, 0x00, 0x00, 0x00, 	0xFF, 0xFF, 0xFF, 0xFF, 	0x0B, 0x17, 0x13, 0x81 */
	smpsVcAlgorithm     0x01
	smpsVcFeedback      0x00
	smpsVcUnusedBits    0x00
	smpsVcDetune        0x01, 0x02, 0x05, 0x07
	smpsVcCoarseFreq    0x02, 0x03, 0x02, 0x01
	smpsVcRateScale     0x00, 0x00, 0x00, 0x00
	smpsVcAttackRate    0x1F, 0x1F, 0x1F, 0x1F
	smpsVcAmpMod        0x00, 0x00, 0x00, 0x00
	smpsVcDecayRate1    0x0E, 0x0F, 0x0C, 0x0D
	smpsVcDecayRate2    0x00, 0x00, 0x00, 0x00
	smpsVcDecayLevel    0x0F, 0x0F, 0x0F, 0x0F
	smpsVcReleaseRate   0x0F, 0x0F, 0x0F, 0x0F
	smpsVcTotalLevel    0x01, 0x13, 0x17, 0x0B

/* 	Voice 0x03 */
/* 	0x3D */
/* 	0x46, 0x04, 0x01, 0x60, 	0x11, 0x52, 0x55, 0xD5, 	0x0A, 0x06, 0x08, 0x08 */
/* 	0x08, 0x00, 0x09, 0x00, 	0x89, 0xF8, 0xF9, 0xF8, 	0x82, 0x88, 0x88, 0x88 */
	smpsVcAlgorithm     0x05
	smpsVcFeedback      0x07
	smpsVcUnusedBits    0x00
	smpsVcDetune        0x06, 0x00, 0x00, 0x04
	smpsVcCoarseFreq    0x00, 0x01, 0x04, 0x06
	smpsVcRateScale     0x03, 0x01, 0x01, 0x00
	smpsVcAttackRate    0x15, 0x15, 0x12, 0x11
	smpsVcAmpMod        0x00, 0x00, 0x00, 0x00
	smpsVcDecayRate1    0x08, 0x08, 0x06, 0x0A
	smpsVcDecayRate2    0x00, 0x09, 0x00, 0x08
	smpsVcDecayLevel    0x0F, 0x0F, 0x0F, 0x08
	smpsVcReleaseRate   0x08, 0x09, 0x08, 0x09
	smpsVcTotalLevel    0x08, 0x08, 0x08, 0x82

/*  Unused voice: */
/* 	Voice 0x04 */
/* 	0x03 */
/* 	0x61, 0x51, 0x23, 0x41, 	0x10, 0x10, 0x0F, 0x15, 	0x1C, 0x01, 0x06, 0x05 */
/* 	0x05, 0x01, 0x05, 0x01, 	0xC9, 0x0C, 0xD9, 0xC9, 	0x18, 0x17, 0x17, 0x83 */
	smpsVcAlgorithm     0x03
	smpsVcFeedback      0x00
	smpsVcUnusedBits    0x00
	smpsVcDetune        0x04, 0x02, 0x05, 0x06
	smpsVcCoarseFreq    0x01, 0x03, 0x01, 0x01
	smpsVcRateScale     0x00, 0x00, 0x00, 0x00
	smpsVcAttackRate    0x15, 0x0F, 0x10, 0x10
	smpsVcAmpMod        0x00, 0x00, 0x00, 0x00
	smpsVcDecayRate1    0x05, 0x06, 0x01, 0x1C
	smpsVcDecayRate2    0x01, 0x05, 0x01, 0x05
	smpsVcDecayLevel    0x0C, 0x0D, 0x00, 0x0C
	smpsVcReleaseRate   0x09, 0x09, 0x0C, 0x09
	smpsVcTotalLevel    0x03, 0x17, 0x17, 0x18

