Snd_EMZ_Header:
	smpsHeaderStartSong 3
	smpsHeaderVoice     Snd_EMZ_Voices
	smpsHeaderChan      0x06, 0x03
	smpsHeaderTempo     0x01, 0x1C

	smpsHeaderDAC       Snd_EMZ_DAC
	smpsHeaderFM        Snd_EMZ_FM1,	0x00, 0x10
	smpsHeaderFM        Snd_EMZ_FM2,	0x00, 0x0F
	smpsHeaderFM        Snd_EMZ_FM3,	0x00, 0x0E
	smpsHeaderFM        Snd_EMZ_FM4,	0x00, 0x0E
	smpsHeaderFM        Snd_EMZ_FM5,	0x00, 0x1D
	smpsHeaderPSG       Snd_EMZ_PSG1,	0xE8, 0x05, 0x00, 0x00
	smpsHeaderPSG       Snd_EMZ_PSG2,	0xE8, 0x02, 0x00, 0x00
	smpsHeaderPSG       Snd_EMZ_PSG3,	0xE8, 0x02, 0x00, 0x00

/*  FM1 Data */
Snd_EMZ_FM1:
	smpsSetvoice        0x00
	smpsModSet          0x0D, 0x01, 0x02, 0x06
	smpsPan             panCenter, 0x00
	.byte	nG5, 0x06, nG5, nG5, nRst, 0x4E

Snd_EMZ_Jump01:
	.byte	nRst, 0x60, nRst, nRst, nRst
	smpsSetvoice        0x06
	.byte	nG5, nC5, nF5, nG5
	smpsSetvoice        0x03
	.byte	nRst, 0x0C, nC5, nB4, nC5, nG5, 0x12, nC5, nB4, 0x0C, nB4, 0x12
	.byte	nC5, nA4, 0x2F, nRst, 0x0D, nG5, 0x12, nF5, nE5, 0x0C, nF5, 0x12
	.byte	nE5, nD5, 0x0C, nC5, 0x12, nB4, nG4, 0x24, nRst, 0x18, nRst, 0x0C
	.byte	nC5, nB4, nC5, nG5, 0x12, nC5, nB4, 0x0C, nB4, 0x12, nC5, nA4
	.byte	0x30, nRst, 0x0C, nG5, 0x12, nF5, nE5, 0x0C, nF5, 0x12, nG5, nA5
	.byte	0x0C, nC6, 0x12, nB5, nC6, 0x0C, nD6, 0x24, nRst, 0x0C
	smpsSetvoice        0x05
	.byte	nC5, 0x4E, nE4, 0x06, nA4, nC5, nD5, 0x30, nG4, nA4, nA4, 0x06
	.byte	nD4, nE4, nG4, nAb4, nA4, nC5, nE5, nD5, 0x24, nA4, 0x3C
	smpsSetvoice        0x04
	.byte	nF4, 0x06, nC4, nG4, nC4, nA4, nC4, nF4, nC4, nG4, nC4, nA4
	.byte	nC4, nB4, nC4, nA4, nC4, nG4, nD4, nA4, nD4, nB4, nD4, nG4
	.byte	nD4, nA4, nD4, nB4, nD4, nD5, nD4, nC5, 0x0C
	smpsSetvoice        0x07
	.byte	nE5, 0x06, nRst, nA4, 0x0C, nC5, nD5, nE5, 0x12, nD5, nC5, 0x0C
	.byte	nAb4, 0x12, nC5, nE5, 0x30, nD5, 0x06, nC5, nG4, 0x12, nC5, nE5
	.byte	0x18, nE5, 0x0C, nD5, nC5, nD5, 0x12, nA4, nFs4, 0x3C
	smpsSetvoice        0x05
	.byte	nF4, nC4, 0x0C, nF4, nA4, nG4, 0x24, nA4, 0x0C, nB4, 0x30, nA4
	.byte	0x7F, smpsNoAttack, nA4, 0x1D, nA4, 0x0C, nB4, nC5, nD5, 0x60, nD5, 0x06
	.byte	nD5, nRst, 0x54
	smpsJump            Snd_EMZ_Jump01

/*  Unreachable */
	smpsStop

/*  FM2 Data */
Snd_EMZ_FM2:
	smpsSetvoice        0x01
	smpsModSet          0x0D, 0x01, 0x02, 0x06
	smpsPan             panCenter, 0x00
	.byte	nB1, 0x06, nB1, nG1, nRst, 0x2A, nG1, 0x0C, nB1, nG1

Snd_EMZ_Loop03:
	.byte	nC2, 0x12, nG2, 0x06, nG2, 0x12, nC2, 0x06, nC2, 0x12, nG2, 0x06
	.byte	nG2, 0x0C, nC2, nA1, 0x12, nE2, 0x06, nE2, 0x12, nA1, 0x06, nA1
	.byte	0x12, nE2, 0x06, nE2, 0x0C, nA1, nF1, 0x12, nC2, 0x06, nC2, 0x12
	.byte	nF1, 0x06, nF1, 0x12, nC2, 0x06, nC2, 0x0C, nF1, nG1, 0x12, nD2
	.byte	0x06, nD2, 0x12, nG1, 0x06, nG1, 0x12, nD2, 0x06, nD2, 0x0C, nG1
	smpsLoop            0x00, 0x04, Snd_EMZ_Loop03
	.byte	nF1, 0x12, nC2, 0x06, nC2, 0x12, nF1, 0x06, nF1, 0x12, nC2, 0x06
	.byte	nC2, 0x0C, nF1, nG1, 0x12, nD2, 0x06, nD2, 0x12, nG1, 0x06, nG1
	.byte	0x12, nD2, 0x06, nD2, 0x0C, nG1, nA1, 0x12, nE2, 0x06, nE2, 0x12
	.byte	nA1, 0x06, nA1, 0x12, nE2, 0x06, nE2, 0x0C, nA1, nD2, 0x12, nA1
	.byte	0x06, nA1, 0x12, nD2, 0x06, nD2, 0x12, nA1, 0x06, nA1, 0x0C, nD2
	.byte	nF1, 0x12, nC2, 0x06, nC2, 0x12, nF1, 0x06, nF1, 0x12, nC2, 0x06
	.byte	nC2, 0x0C, nF1, nG1, 0x12, nD2, 0x06, nD2, 0x12, nG1, 0x06, nG1
	.byte	0x12, nD2, 0x06, nD2, 0x0C, nG1

Snd_EMZ_Loop04:
	.byte	nA1, 0x12, nE2, 0x06, nE2, 0x12, nA1, 0x06, nA1, 0x12, nE2, 0x06
	.byte	nE2, 0x0C, nA1
	smpsLoop            0x00, 0x03, Snd_EMZ_Loop04
	.byte	nFs1, 0x12, nD2, 0x06, nD2, 0x0C, nFs1, nFs2, 0x12, nFs1, 0x06, nD2
	.byte	0x0C, nFs1, nF1, 0x12, nC2, 0x06, nC2, 0x12, nF1, 0x06, nF1, 0x12
	.byte	nC2, 0x06, nC2, 0x0C, nF1, nG1, 0x12, nD2, 0x06, nD2, 0x12, nG1
	.byte	0x06, nG1, 0x12, nD2, 0x06, nD2, 0x0C, nG1, nA1, 0x12, nF2, 0x06
	.byte	nF2, 0x12, nA1, 0x06, nA1, 0x12, nF2, 0x06, nF2, 0x0C, nA1, nA1
	.byte	0x12, nF2, 0x06, nF2, 0x12, nA1, 0x06, nA1, 0x12, nF2, 0x06, nF2
	.byte	0x0C, nA1, nB1, 0x12, nG2, 0x06, nG2, 0x12, nB1, 0x06, nB1, 0x12
	.byte	nG2, 0x06, nG2, 0x0C, nB1, nB1, 0x06, nB1, nRst, 0x30, nG1, 0x0C
	.byte	nB1, nG1
	smpsJump            Snd_EMZ_Loop03

/*  Unreachable */
	smpsStop

/*  FM3 Data */
Snd_EMZ_FM3:
	smpsSetvoice        0x00
	smpsModSet          0x0D, 0x01, 0x02, 0x06
	smpsPan             panRight, 0x00
	.byte	nD5, 0x06, nD5, nD5, nRst, 0x4E

Snd_EMZ_Loop02:
	smpsSetvoice        0x02
	.byte	nC3, 0x06, nC4, nE5, nC4, nD5, 0x12, nC5, 0x06, nRst, nC5, nC4
	.byte	0x0C, nB4, nA4, nRst, 0x06, nA3, nE5, nA3, nD5, 0x12, nC5, 0x06
	.byte	nRst, nD5, nA3, 0x0C, nA4, nB4, 0x06, nA4, nA2, nA3, nA4, nA3
	.byte	nB4, 0x12, nC5, 0x06, nRst, nB4, nA3, 0x0C, nB4, nC5, nG2, 0x06
	.byte	nG3, nC5, nG3, nB4, 0x12, nA4, 0x06, nRst, nD5, nG3, 0x0C, nB4
	.byte	nC5, 0x06, nB4
	smpsLoop            0x00, 0x04, Snd_EMZ_Loop02
	.byte	nF3, 0x06, nRst, nC5, nRst, nF3, nC5, nRst, nF3, nF2, nRst, nA4
	.byte	nF3, nC5, nRst, nF2, nF3, nG3, nRst, nB4, nRst, nG3, nG4, nRst
	.byte	nG3, nG2, nRst, nB4, nG3, nC5, nRst, nG3, nG2, nA2, nA3, nC5
	.byte	nRst, nA3, nC5, nRst, nA3, nA2, nRst, nA4, nA3, nC5, nRst, nA2
	.byte	nA3, nA3, nRst, nC5, nRst, nD3, nC5, nRst, nD3, nD2, nRst, nFs4
	.byte	nD3, nC5, nRst, nD3, nE3, nF3, nRst, nA4, nRst, nF3, nA4, nRst
	.byte	nF3, nRst, 0x0C, nF3, 0x06, nF2, nA4, nRst, nF3, nRst, nG3, nG2
	.byte	nB4, nRst, nG3, nB4, nRst, nG3, nRst, 0x0C, nG2, 0x06, nG3, nB4
	.byte	nRst, nG3, nRst, nA2, nA3, nC5, nA3, nC5, 0x0C, nRst, 0x06, nC5
	.byte	nRst, nC5, nA3, nA3, nC5, 0x0C, nA4, nRst, 0x06, nA3, nC5, nA3
	.byte	nC5, 0x12, nC5, 0x06, nRst, nC5, nA3, 0x0C, nC5, nC5, 0x06, nAb4
	.byte	nA2, nA3, nC5, nA3, nC5, 0x0C, nRst, 0x06, nC5, nRst, nC5, nA3
	.byte	nA3, nC5, 0x0C, nC5, nRst, 0x06, nFs3, nA4, nFs3, nA4, 0x0C, nRst
	.byte	0x06, nA4, nRst, nA4, nFs3, 0x0C, nA4, nA4, 0x06, nFs4, nF2, nF3
	.byte	nC5, nF3, nC5, 0x0C, nRst, 0x06, nC5, nRst, nC5, nF3, nF3, nC5
	.byte	0x0C, nC5, nRst, 0x06, nG3, nD5, nG3, nD5, 0x0C, nRst, 0x06, nD5
	.byte	nRst, nD5, nG3, 0x0C, nA4, nB4, 0x06, nA4, nA2, nA3, nA4, nA3
	.byte	nA4, 0x0C, nRst, 0x06, nA4, nRst, nA4, nA3, nA3, nA4, 0x0C, nA4
	.byte	nRst, nA4, 0x06, nA3, nC5, 0x0C, nRst, 0x06, nA4, nRst, nC5, nA2
	.byte	nA3, nF5, 0x0C, nC5, 0x06, nA4, nB3, nB3, nB4, nRst, nB3, nB4
	.byte	nB2, nF5, nRst, nB4, nB2, nB3, nB4, nB3, nB3, nRst, nD5, nD5
	.byte	nRst, 0x54
	smpsJump            Snd_EMZ_Loop02

/*  Unreachable */
	smpsStop

/*  FM4 Data */
Snd_EMZ_FM4:
	smpsSetvoice        0x00
	smpsModSet          0x0D, 0x01, 0x02, 0x06
	smpsPan             panLeft, 0x00
	.byte	nA4, 0x06, nA4, nA4, nRst, 0x4E

Snd_EMZ_Loop01:
	smpsSetvoice        0x02
	.byte	nRst, 0x0C, nC5, 0x06, nRst, nB4, 0x0C, nC4, 0x06, nA4, nRst, nA4
	.byte	nRst, nC3, nG4, nC3, nF4, 0x0C, nA2, nC5, 0x05, nRst, 0x07, nB4
	.byte	0x0C, nA3, 0x06, nA4, nRst, nB4, nRst, nA2, nF4, nA2, nG4, nF4
	.byte	nRst, 0x0C, nF4, 0x06, nRst, nG4, 0x0C, nA3, 0x06, nA4, nRst, nG4
	.byte	nRst, nA2, nG4, nA2, nA4, nRst, nRst, 0x0C, nG4, 0x06, nRst, nG4
	.byte	0x0C, nG3, 0x06, nF4, nRst, nB4, nRst, nG2, nG4, nA2, nG4, nG4
	smpsLoop            0x00, 0x04, Snd_EMZ_Loop01
	.byte	nRst, 0x06, nF2, nA4, nRst, 0x0C, nA4, 0x06, nRst, 0x18, nF4, 0x06
	.byte	nRst, nA4, nRst, 0x12, nRst, 0x06, nG2, nG4, nRst, 0x0C, nD4, 0x06
	.byte	nRst, 0x18, nG4, 0x06, nRst, nG4, nRst, 0x12, nRst, 0x0C, nA4, 0x06
	.byte	nRst, 0x0C, nA4, 0x06, nRst, 0x18, nE4, 0x06, nRst, nA4, nRst, 0x12
	.byte	nD3, 0x06, nD2, nFs4, nRst, 0x0C, nFs4, 0x06, nRst, 0x18, nD4, 0x06
	.byte	nRst, nFs4, nRst, 0x12, nRst, 0x06, nF2, nF4, nRst, 0x0C, nF4, 0x06
	.byte	nRst, 0x24, nF4, 0x06, nRst, 0x12, nRst, 0x0C, nG4, 0x06, nRst, 0x0C
	.byte	nG4, 0x06, nRst, 0x24, nG4, 0x06, nRst, 0x12, nRst, 0x0C, nA4, 0x06
	.byte	nRst, nA4, 0x0C, nA3, 0x06, nA4, nRst, nA4, nRst, 0x0C, nA4, 0x06
	.byte	nA3, nE4, 0x0C, nA2, nAb4, 0x06, nRst, nAb4, 0x0C, nA3, 0x06, nAb4
	.byte	nRst, nAb4, nRst, nA2, nAb4, nA2, nAb4, nE4, nRst, 0x0C, nG4, 0x06
	.byte	nRst, nG4, 0x0C, nA3, 0x06, nG4, nRst, nG4, nRst, 0x0C, nG4, 0x06
	.byte	nA3, nG4, 0x0C, nFs2, nFs4, 0x06, nRst, nFs4, 0x0C, nFs3, 0x06, nFs4
	.byte	nRst, nFs4, nRst, nFs2, nFs4, nFs3, nFs4, nD4, nRst, 0x0C, nA4, 0x06
	.byte	nRst, nA4, 0x0C, nF3, 0x06, nA4, nRst, nA4, nRst, 0x0C, nA4, 0x06
	.byte	nF3, nA4, 0x0C, nG2, nB4, 0x06, nRst, nB4, nRst, nG3, nB4, nRst
	.byte	nB4, nRst, nG2, nF4, nG3, nG4, nF4, nRst, 0x0C, nF4, 0x06, nRst
	.byte	nF4, 0x0C, nA2, 0x06, nF4, nRst, nF4, nRst, 0x0C, nF4, 0x06, nA3
	.byte	nF4, 0x0C, nA3, 0x06, nA2, nF4, nRst, nF4, 0x0C, nA3, 0x06, nF4
	.byte	nRst, nF4, nRst, 0x0C, nC5, 0x06, nA3, nF4, nF4, nRst, 0x0C, nG4
	.byte	0x06, nRst, 0x0C, nG4, 0x06, nRst, nD5, nRst, nG4, nRst, 0x0C, nG4
	.byte	0x06, nRst, 0x12, nG4, 0x06, nG4, nRst, 0x54
	smpsJump            Snd_EMZ_Loop01

/*  Unreachable */
	smpsStop

/*  FM5 Data */
Snd_EMZ_FM5:
	.byte	nRst, 0x08
	smpsSetvoice        0x00
	smpsModSet          0x0D, 0x01, 0x02, 0x06
	smpsPan             panCenter, 0x00
	.byte	nG5, 0x06, nG5, nG5, nRst, 0x4E

Snd_EMZ_Jump00:
	.byte	nRst, 0x60, nRst, nRst, nRst
	smpsSetvoice        0x06
	.byte	nG5, nC5, nF5, nG5
	smpsSetvoice        0x03
	.byte	nRst, 0x0C, nC5, nB4, nC5, nG5, 0x12, nC5, nB4, 0x0C, nB4, 0x12
	.byte	nC5, nA4, 0x2F, nRst, 0x0D, nG5, 0x12, nF5, nE5, 0x0C, nF5, 0x12
	.byte	nE5, nD5, 0x0C, nC5, 0x12, nB4, nG4, 0x24, nRst, 0x18, nRst, 0x0C
	.byte	nC5, nB4, nC5, nG5, 0x12, nC5, nB4, 0x0C, nB4, 0x12, nC5, nA4
	.byte	0x30, nRst, 0x0C, nG5, 0x12, nF5, nE5, 0x0C, nF5, 0x12, nG5, nA5
	.byte	0x0C, nC6, 0x12, nB5, nC6, 0x0C, nD6, 0x24, nRst, 0x0C
	smpsSetvoice        0x05
	.byte	nC5, 0x4E, nE4, 0x06, nA4, nC5, nD5, 0x30, nG4, nA4, nA4, 0x06
	.byte	nD4, nE4, nG4, nAb4, nA4, nC5, nE5, nD5, 0x24, nA4, 0x3C
	smpsSetvoice        0x04
	.byte	nF4, 0x06, nC4, nG4, nC4, nA4, nC4, nF4, nC4, nG4, nC4, nA4
	.byte	nC4, nB4, nC4, nA4, nC4, nG4, nD4, nA4, nD4, nB4, nD4, nG4
	.byte	nD4, nA4, nD4, nB4, nD4, nD5, nD4, nC5, 0x0C
	smpsSetvoice        0x07
	.byte	nE5, 0x06, nRst, nA4, 0x0C, nC5, nD5, nE5, 0x12, nD5, nC5, 0x0C
	.byte	nAb4, 0x12, nC5, nE5, 0x30, nD5, 0x06, nC5, nG4, 0x12, nC5, nE5
	.byte	0x18, nE5, 0x0C, nD5, nC5, nD5, 0x12, nA4, nFs4, 0x3C
	smpsSetvoice        0x05
	.byte	nF4, nC4, 0x0C, nF4, nA4, nG4, 0x24, nA4, 0x0C, nB4, 0x30, nA4
	.byte	0x7F, smpsNoAttack, nA4, 0x1D, nA4, 0x0C, nB4, nC5, nD5, 0x60, nD5, 0x06
	.byte	nD5, nRst, 0x54
	smpsJump            Snd_EMZ_Jump00

/*  Unreachable */
	smpsStop

/*  DAC Data */
Snd_EMZ_DAC:
	.byte	dKickS3, 0x06, dKickS3, dKickS3, 0x54

Snd_EMZ_Loop00:
	.byte	dKickS3, 0x18, dKickS3, dKickS3, dKickS3, 0x0C, dSnareS3, 0x06, dSnareS3, dKickS3, 0x18, dKickS3
	.byte	dKickS3, dKickS3, 0x0C, dSnareS3
	smpsLoop            0x00, 0x0F, Snd_EMZ_Loop00
	.byte	dKickS3, 0x18, dKickS3, dKickS3, dKickS3, 0x0C, dSnareS3, 0x06, dSnareS3, dSnareS3, dSnareS3, 0x12
	.byte	dKickS3, 0x18, dKickS3, dKickS3
	smpsJump            Snd_EMZ_Loop00

/*  Unreachable */
	smpsStop

/*  PSG1 Data */
Snd_EMZ_PSG1:
	smpsModSet          0x0D, 0x01, 0x02, 0x06
	.byte	nD5, 0x06, nD5, nD5, nRst, 0x4E

Snd_EMZ_Jump02:
	.byte	nRst, 0x60, nRst, nRst, nRst, nC5, 0x0C, nRst, 0x54, nA4, 0x0C, nRst
	.byte	0x54, nC5, 0x0C, nRst, 0x54, nB4, 0x0C, nRst, 0x54, nRst, 0x60, nRst
	.byte	nRst, nRst, nRst, nRst, nRst, nRst, nRst, 0x1E, nA4, 0x06, nC5, nD5
	.byte	nF5, nRst, nE5, nRst, nD5, nA4, nRst, 0x0C, nRst, 0x60, nRst, nRst
	.byte	nRst, 0x18, nC6, nB5, nA5, nRst, nE5, nD5, nG5, nA5, 0x60, nAb5
	.byte	0x48, nE6, 0x18, nG5, 0x60, nFs5, 0x24, nD6, 0x3C, nA4, nF4, 0x0C
	.byte	nA4, nC5, nB4, 0x24, nC5, 0x0C, nD5, 0x30, nC5, 0x48, nE5, 0x18
	.byte	nD5, 0x24, nC5, 0x18, nC5, 0x0C, nD5, nE5, nG5, 0x60, nG5, 0x06
	.byte	nG5, nRst, 0x54
	smpsJump            Snd_EMZ_Jump02

/*  Unreachable */
	smpsStop

/*  PSG2 Data */
Snd_EMZ_PSG2:
	smpsStop

/*  Unreachable */
	smpsStop

/*  PSG3 Data */
Snd_EMZ_PSG3:
	smpsStop

Snd_EMZ_Voices:
/* 	Voice 0x00 */
/* 	0x2D */
/* 	0x41, 0x51, 0x61, 0x41, 	0x11, 0x1F, 0x5F, 0x1F, 	0x04, 0x08, 0x08, 0x04 */
/* 	0x00, 0x0F, 0x00, 0x00, 	0x18, 0x38, 0x58, 0x18, 	0x13, 0x8D, 0x8C, 0x8C */
	smpsVcAlgorithm     0x05
	smpsVcFeedback      0x05
	smpsVcUnusedBits    0x00
	smpsVcDetune        0x04, 0x06, 0x05, 0x04
	smpsVcCoarseFreq    0x01, 0x01, 0x01, 0x01
	smpsVcRateScale     0x00, 0x01, 0x00, 0x00
	smpsVcAttackRate    0x1F, 0x1F, 0x1F, 0x11
	smpsVcAmpMod        0x00, 0x00, 0x00, 0x00
	smpsVcDecayRate1    0x04, 0x08, 0x08, 0x04
	smpsVcDecayRate2    0x00, 0x00, 0x0F, 0x00
	smpsVcDecayLevel    0x01, 0x05, 0x03, 0x01
	smpsVcReleaseRate   0x08, 0x08, 0x08, 0x08
	smpsVcTotalLevel    0x0C, 0x0C, 0x0D, 0x13

/* 	Voice 0x01 */
/* 	0x0C */
/* 	0x74, 0x11, 0x71, 0x11, 	0x1F, 0x5F, 0x1F, 0x1F, 	0x10, 0x0D, 0x03, 0x04 */
/* 	0x00, 0x00, 0x00, 0x00, 	0xFF, 0xFF, 0xFF, 0xFF, 	0x17, 0x81, 0x15, 0x81 */
	smpsVcAlgorithm     0x04
	smpsVcFeedback      0x01
	smpsVcUnusedBits    0x00
	smpsVcDetune        0x01, 0x07, 0x01, 0x07
	smpsVcCoarseFreq    0x01, 0x01, 0x01, 0x04
	smpsVcRateScale     0x00, 0x00, 0x01, 0x00
	smpsVcAttackRate    0x1F, 0x1F, 0x1F, 0x1F
	smpsVcAmpMod        0x00, 0x00, 0x00, 0x00
	smpsVcDecayRate1    0x04, 0x03, 0x0D, 0x10
	smpsVcDecayRate2    0x00, 0x00, 0x00, 0x00
	smpsVcDecayLevel    0x0F, 0x0F, 0x0F, 0x0F
	smpsVcReleaseRate   0x0F, 0x0F, 0x0F, 0x0F
	smpsVcTotalLevel    0x01, 0x15, 0x01, 0x17

/* 	Voice 0x02 */
/* 	0x03 */
/* 	0x75, 0x53, 0x20, 0x11, 	0x1F, 0x1F, 0x1F, 0x1F, 	0x0A, 0x08, 0x09, 0x0B */
/* 	0x00, 0x00, 0x00, 0x00, 	0xFF, 0xFF, 0xFF, 0xFF, 	0x15, 0x23, 0x2B, 0x82 */
	smpsVcAlgorithm     0x03
	smpsVcFeedback      0x00
	smpsVcUnusedBits    0x00
	smpsVcDetune        0x01, 0x02, 0x05, 0x07
	smpsVcCoarseFreq    0x01, 0x00, 0x03, 0x05
	smpsVcRateScale     0x00, 0x00, 0x00, 0x00
	smpsVcAttackRate    0x1F, 0x1F, 0x1F, 0x1F
	smpsVcAmpMod        0x00, 0x00, 0x00, 0x00
	smpsVcDecayRate1    0x0B, 0x09, 0x08, 0x0A
	smpsVcDecayRate2    0x00, 0x00, 0x00, 0x00
	smpsVcDecayLevel    0x0F, 0x0F, 0x0F, 0x0F
	smpsVcReleaseRate   0x0F, 0x0F, 0x0F, 0x0F
	smpsVcTotalLevel    0x02, 0x2B, 0x23, 0x15

/* 	Voice 0x03 */
/* 	0x3D */
/* 	0x42, 0x01, 0x01, 0x61, 	0x14, 0x19, 0x57, 0xD6, 	0x06, 0x00, 0x00, 0x00 */
/* 	0x08, 0x00, 0x09, 0x00, 	0x8F, 0xFF, 0xFF, 0xFF, 	0x23, 0x8C, 0x8C, 0x8C */
	smpsVcAlgorithm     0x05
	smpsVcFeedback      0x07
	smpsVcUnusedBits    0x00
	smpsVcDetune        0x06, 0x00, 0x00, 0x04
	smpsVcCoarseFreq    0x01, 0x01, 0x01, 0x02
	smpsVcRateScale     0x03, 0x01, 0x00, 0x00
	smpsVcAttackRate    0x16, 0x17, 0x19, 0x14
	smpsVcAmpMod        0x00, 0x00, 0x00, 0x00
	smpsVcDecayRate1    0x00, 0x00, 0x00, 0x06
	smpsVcDecayRate2    0x00, 0x09, 0x00, 0x08
	smpsVcDecayLevel    0x0F, 0x0F, 0x0F, 0x08
	smpsVcReleaseRate   0x0F, 0x0F, 0x0F, 0x0F
	smpsVcTotalLevel    0x0C, 0x0C, 0x0C, 0x23

/* 	Voice 0x04 */
/* 	0x03 */
/* 	0x61, 0x51, 0x21, 0x41, 	0x10, 0x10, 0x0F, 0x15, 	0x07, 0x01, 0x06, 0x05 */
/* 	0x05, 0x01, 0x05, 0x01, 	0xCF, 0x0F, 0xDF, 0xCF, 	0x1D, 0x1E, 0x14, 0x81 */
	smpsVcAlgorithm     0x03
	smpsVcFeedback      0x00
	smpsVcUnusedBits    0x00
	smpsVcDetune        0x04, 0x02, 0x05, 0x06
	smpsVcCoarseFreq    0x01, 0x01, 0x01, 0x01
	smpsVcRateScale     0x00, 0x00, 0x00, 0x00
	smpsVcAttackRate    0x15, 0x0F, 0x10, 0x10
	smpsVcAmpMod        0x00, 0x00, 0x00, 0x00
	smpsVcDecayRate1    0x05, 0x06, 0x01, 0x07
	smpsVcDecayRate2    0x01, 0x05, 0x01, 0x05
	smpsVcDecayLevel    0x0C, 0x0D, 0x00, 0x0C
	smpsVcReleaseRate   0x0F, 0x0F, 0x0F, 0x0F
	smpsVcTotalLevel    0x01, 0x14, 0x1E, 0x1D

/* 	Voice 0x05 */
/* 	0x02 */
/* 	0x74, 0x51, 0x13, 0x31, 	0x90, 0xD9, 0x0F, 0x13, 	0x06, 0x01, 0x01, 0x03 */
/* 	0x0C, 0x13, 0x0C, 0x0B, 	0xFF, 0xEF, 0xDF, 0x8F, 	0x1B, 0x15, 0x17, 0x85 */
	smpsVcAlgorithm     0x02
	smpsVcFeedback      0x00
	smpsVcUnusedBits    0x00
	smpsVcDetune        0x03, 0x01, 0x05, 0x07
	smpsVcCoarseFreq    0x01, 0x03, 0x01, 0x04
	smpsVcRateScale     0x00, 0x00, 0x03, 0x02
	smpsVcAttackRate    0x13, 0x0F, 0x19, 0x10
	smpsVcAmpMod        0x00, 0x00, 0x00, 0x00
	smpsVcDecayRate1    0x03, 0x01, 0x01, 0x06
	smpsVcDecayRate2    0x0B, 0x0C, 0x13, 0x0C
	smpsVcDecayLevel    0x08, 0x0D, 0x0E, 0x0F
	smpsVcReleaseRate   0x0F, 0x0F, 0x0F, 0x0F
	smpsVcTotalLevel    0x05, 0x17, 0x15, 0x1B

/* 	Voice 0x06 */
/* 	0x10 */
/* 	0x45, 0x50, 0x64, 0x41, 	0x1F, 0x1F, 0x5F, 0x1F, 	0x04, 0x08, 0x08, 0x04 */
/* 	0x00, 0x0F, 0x00, 0x00, 	0x18, 0x38, 0x58, 0x18, 	0x20, 0x25, 0x1C, 0x88 */
	smpsVcAlgorithm     0x00
	smpsVcFeedback      0x02
	smpsVcUnusedBits    0x00
	smpsVcDetune        0x04, 0x06, 0x05, 0x04
	smpsVcCoarseFreq    0x01, 0x04, 0x00, 0x05
	smpsVcRateScale     0x00, 0x01, 0x00, 0x00
	smpsVcAttackRate    0x1F, 0x1F, 0x1F, 0x1F
	smpsVcAmpMod        0x00, 0x00, 0x00, 0x00
	smpsVcDecayRate1    0x04, 0x08, 0x08, 0x04
	smpsVcDecayRate2    0x00, 0x00, 0x0F, 0x00
	smpsVcDecayLevel    0x01, 0x05, 0x03, 0x01
	smpsVcReleaseRate   0x08, 0x08, 0x08, 0x08
	smpsVcTotalLevel    0x08, 0x1C, 0x25, 0x20

/* 	Voice 0x07 */
/* 	0x10 */
/* 	0x45, 0x51, 0x64, 0x41, 	0x1F, 0x1F, 0x5F, 0x1F, 	0x0C, 0x0A, 0x08, 0x04 */
/* 	0x00, 0x0F, 0x00, 0x00, 	0x18, 0x38, 0x58, 0x18, 	0x20, 0x25, 0x1C, 0x86 */
	smpsVcAlgorithm     0x00
	smpsVcFeedback      0x02
	smpsVcUnusedBits    0x00
	smpsVcDetune        0x04, 0x06, 0x05, 0x04
	smpsVcCoarseFreq    0x01, 0x04, 0x01, 0x05
	smpsVcRateScale     0x00, 0x01, 0x00, 0x00
	smpsVcAttackRate    0x1F, 0x1F, 0x1F, 0x1F
	smpsVcAmpMod        0x00, 0x00, 0x00, 0x00
	smpsVcDecayRate1    0x04, 0x08, 0x0A, 0x0C
	smpsVcDecayRate2    0x00, 0x00, 0x0F, 0x00
	smpsVcDecayLevel    0x01, 0x05, 0x03, 0x01
	smpsVcReleaseRate   0x08, 0x08, 0x08, 0x08
	smpsVcTotalLevel    0x06, 0x1C, 0x25, 0x20

