Snd_FBZ1_Header:
	smpsHeaderStartSong 3
	smpsHeaderVoice     Snd_FBZ1_Voices
	smpsHeaderChan      0x06, 0x03
	smpsHeaderTempo     0x01, 0x00

	smpsHeaderDAC       Snd_FBZ1_DAC
	smpsHeaderFM        Snd_FBZ1_FM1,	0x00, 0x0A
	smpsHeaderFM        Snd_FBZ1_FM2,	0x00, 0x0A
	smpsHeaderFM        Snd_FBZ1_FM3,	0x00, 0x0D
	smpsHeaderFM        Snd_FBZ1_FM4,	0x00, 0x0D
	smpsHeaderFM        Snd_FBZ1_FM5,	0x00, 0x13
	smpsHeaderPSG       Snd_FBZ1_PSG1,	0xE8, 0x02, 0x00, 0x00
	smpsHeaderPSG       Snd_FBZ1_PSG2,	0xE8, 0x02, 0x00, 0x00
	smpsHeaderPSG       Snd_FBZ1_PSG3,	0xE8, 0x02, 0x00, 0x00

/*  FM1 Data */
Snd_FBZ1_FM1:
	smpsModSet          0x0D, 0x01, 0x02, 0x06
	smpsPan             panCenter, 0x00
	.byte	nRst, 0x18

Snd_FBZ1_Jump01:
	smpsSetvoice        0x05
	.byte	nRst, 0x0C, nA6, 0x7F, smpsNoAttack, nA6, 0x0B, nG6, 0x06, nE6, nD6, nE6
	.byte	nD6, nC6, nA5, nD6, 0x02, nEb6, 0x0A, nA5, 0x0C, nRst, 0x48, nRst
	.byte	0x30, nD6, 0x06, nEb6, nD6, nEb6, nG6, nA6, nC7, nA6, nRst, 0x0C
	.byte	nA6, 0x7F, smpsNoAttack, nA6, 0x0B, nG6, 0x06, nE6, nD6, nE6, nD6, nC6
	.byte	nA5, nD6, 0x02, nEb6, 0x0A, nA5, 0x0C, nRst, 0x48, nE5, 0x06, nG5
	.byte	nE5, nG5, nA5, nG5, nA5, nC6, nEb6, nE6, nD6, nC6, nA6, nG6
	.byte	nE6, nC6
	smpsSetvoice        0x00
	.byte	nE4, 0x48, nE4, 0x06, nA4, 0x04, nRst, 0x08, nE4, 0x42, nD4, 0x05
	.byte	nRst, 0x07, nC4, 0x05, nRst, 0x07, nB3, 0x05, nRst, 0x07, nC4, 0x12
	.byte	nA3, 0x06, nRst, 0x48, nRst, 0x60, nE4, 0x48, nE4, 0x06, nA4, 0x04
	.byte	nRst, 0x08, nE4, 0x42, nD4, 0x05, nRst, 0x07, nC4, 0x05, nRst, 0x07
	.byte	nB3, 0x05, nRst, 0x07, nC4, 0x12, nE4, 0x06, nRst, 0x48, nRst, 0x3C
	.byte	nE5, 0x0C, nD5, nC5, nC5, 0x12, nA4, nE5, 0x30, nD5, 0x06, nC5
	.byte	nD5, 0x0B, nRst, 0x07, nB4, 0x0B, nRst, 0x07, nG4, 0x24, nB4, 0x0C
	.byte	nA4, nAb4, 0x12, nB4, 0x06, nRst, 0x0C, nD5, 0x18, nF5, 0x06, nRst
	.byte	nE5, nRst, nD5, nRst, nE5, 0x10, nRst, 0x08, nD5, 0x10, nRst, 0x08
	.byte	nC5, 0x10, nRst, 0x08, nB4, 0x10, nRst, 0x08, nC5, 0x12, nA4, nE5
	.byte	0x2D, nRst, 0x03, nD5, 0x06, nC5, nD5, 0x0B, nRst, 0x07, nB4, 0x0B
	.byte	nRst, 0x07, nG4, 0x24, nB4, 0x0C, nA4, nAb4, 0x12, nB4, 0x06, nRst
	.byte	0x0C, nD5, 0x18, nF5, 0x06, nRst, nE5, nRst, nD5, nRst, nE5, nD5
	.byte	nE5, 0x7F, smpsNoAttack, nE5, 0x05, nRst, 0x30
	smpsJump            Snd_FBZ1_Jump01

/*  Unreachable */
	smpsStop

/*  FM2 Data */
Snd_FBZ1_FM2:
	smpsSetvoice        0x01
	smpsModSet          0x0D, 0x01, 0x02, 0x06
	smpsPan             panCenter, 0x00
	.byte	nD3, 0x06, nE3, nA2, 0x03, nRst, nA2, nRst

Snd_FBZ1_Loop08:
	.byte	nA2, 0x0C, nG3, 0x06, nA3, nA2, 0x04, nRst, 0x08, nA2, 0x03, nRst
	.byte	nA2, nRst, nAb2, 0x0C, nG3, 0x06, nAb3, nAb2, 0x04, nRst, 0x08, nAb2
	.byte	0x03, nRst, nAb2, nRst, nG2, 0x0C, nG2, 0x06, nG3, nG2, 0x04, nRst
	.byte	0x08, nG2, 0x03, nRst, nG2, nRst, nAb2, 0x0C, nAb3, 0x04, nRst, 0x08
	.byte	nAb2, 0x04, nRst, 0x08, nAb2, 0x03, nRst, nAb2, nRst, nA2, 0x0C, nG3
	.byte	0x06, nA3, nD3, nE3, nA2, 0x03, nRst, nA2, nRst, nA2, 0x0C, nA2
	.byte	0x03, nRst, nA2, 0x0C, nA2, nA2, 0x03, nRst, nA2, 0x06, nD3, nE3
	.byte	nG3, nA3, nA2, 0x0C, nA2, 0x03, nRst, nA2, nRst, nG3, 0x06, nA3
	.byte	nA2, nD3, nE3, nA2, 0x0C
	smpsLoop            0x00, 0x04, Snd_FBZ1_Loop08
	.byte	nF2, 0x06, nF3, 0x0C, nF2, 0x03, nRst, nF2, 0x06, nF3, 0x0C, nF2
	.byte	0x03, nRst, nF2, 0x0C, nF3, 0x06, nRst, nF2, 0x0C, nF3, 0x06, nRst
	.byte	nG2, nG3, 0x0C, nG2, 0x03, nRst, nG2, 0x06, nG3, 0x0C, nG2, 0x03
	.byte	nRst, nG2, 0x0C, nG3, 0x06, nRst, nG2, 0x0C, nG3, 0x06, nRst, nAb2
	.byte	nAb3, 0x0C, nAb2, 0x03, nRst, nAb2, 0x06, nAb3, 0x0C, nAb2, 0x03, nRst
	.byte	nAb2, 0x0C, nAb3, 0x06, nRst, nAb2, 0x0C, nAb3, 0x06, nRst, nA2, nA3
	.byte	0x0C, nA2, 0x03, nRst, nA2, 0x06, nA3, 0x0C, nA2, 0x03, nRst, nG2
	.byte	0x0C, nG3, 0x06, nRst, nG2, 0x0C, nG3, 0x06, nRst, nF2, nF3, 0x0C
	.byte	nF2, 0x03, nRst, nF2, 0x06, nF3, 0x0C, nF2, 0x03, nRst, nF2, 0x0C
	.byte	nF3, 0x06, nRst, nF2, 0x0C, nF3, 0x06, nRst, nG2, nG3, 0x0C, nG2
	.byte	0x03, nRst, nG2, 0x06, nG3, 0x0C, nG2, 0x03, nRst, nG2, 0x0C, nG3
	.byte	0x06, nRst, nG2, 0x0C, nG3, 0x06, nRst, nAb2, nAb3, 0x0C, nAb2, 0x03
	.byte	nRst, nAb2, 0x06, nAb3, 0x0C, nAb2, 0x03, nRst, nAb2, 0x0C, nAb3, 0x06
	.byte	nRst, nAb2, 0x0C, nAb3, 0x06, nRst, nA2, nA3, 0x0C, nA2, 0x03, nRst
	.byte	nA2, 0x06, nA3, 0x0C, nA2, 0x03, nRst, nA2, 0x0C, nA3, 0x06, nRst
	.byte	nA2, 0x0C, nA3, 0x06, nRst, nA2, nRst, nA2, nRst, nA2, nRst, nA2
	.byte	0x03, nRst, nA2, nRst, nA2, nRst, nA3, nRst, nG3, 0x06, nA3, nD3
	.byte	nE3, nA2, 0x03, nRst, nA2, nRst
	smpsJump            Snd_FBZ1_Loop08
	
/*  Unreachable */
	smpsStop

/*  FM3 Data */
Snd_FBZ1_FM3:
	smpsModSet          0x0D, 0x01, 0x02, 0x06
	smpsPan             panLeft, 0x00
	.byte	nRst, 0x18

Snd_FBZ1_Loop06:
	smpsSetvoice        0x02
	.byte	nA4, 0x10, nRst, 0x08, nG4, 0x10, nRst, 0x08, nE4, 0x0F, nRst, 0x03
	.byte	nD4, 0x0F, nRst, 0x03, nC4, 0x06, nRst, nRst, nC4, 0x12, nD4, 0x06
	.byte	nRst, nE4, nRst, nD4, 0x12, nC4, 0x06, nRst, 0x18
	smpsSetvoice        0x03
	.byte	nE4, 0x06, nRst, nE5, 0x24, nF4, 0x06, nRst, nF5, 0x24, nFs4, 0x06
	.byte	nRst, nFs5, 0x24, nF4, 0x06, nRst, nF5, 0x24
	smpsLoop            0x00, 0x04, Snd_FBZ1_Loop06

Snd_FBZ1_Loop07:
	smpsSetvoice        0x04
	.byte	nRst, 0x0C, nC5, 0x24, nRst, 0x0C, nC5, 0x06, nRst, nB4, nC5, nRst
	.byte	0x0C, nRst, nD5, 0x23, nRst, 0x0D, nD5, 0x06, nRst, nC5, nD5, nRst
	.byte	0x0C, nRst, nD5, 0x23, nRst, 0x0D, nD5, 0x06, nRst, nC5, nD5, nRst
	.byte	0x0C, nRst, nE5, nE5, 0x06, nE5, nRst, nE5, nRst, nE5, nRst, nE5
	.byte	nE5, nRst, nE5, nRst
	smpsLoop            0x00, 0x02, Snd_FBZ1_Loop07
	.byte	nRst, 0x0C, nE5, 0x06, nRst, nE5, nRst, nE5, nRst, nE5, nRst, 0x2A
	smpsJump            Snd_FBZ1_Loop06
	
/*  Unreachable */
	smpsStop

/*  FM4 Data */
Snd_FBZ1_FM4:
	smpsModSet          0x0D, 0x01, 0x02, 0x06
	smpsPan             panRight, 0x00
	.byte	nRst, 0x18

Snd_FBZ1_Loop04:
	smpsSetvoice        0x02
	.byte	nE4, 0x10, nRst, 0x08, nE4, 0x10, nRst, 0x08, nC4, 0x0F, nRst, 0x03
	.byte	nA3, 0x0F, nRst, 0x03, nE3, 0x06, nRst, nRst, nA3, 0x12, nB3, 0x06
	.byte	nRst, nC4, nRst, nB3, 0x12, nA3, 0x06, nRst, 0x18
	smpsSetvoice        0x03
	.byte	nC4, 0x06, nRst, nC5, 0x24, nC4, 0x06, nRst, nC5, 0x24, nC4, 0x06
	.byte	nRst, nC5, 0x24, nC4, 0x06, nRst, nC5, 0x24
	smpsLoop            0x00, 0x04, Snd_FBZ1_Loop04

Snd_FBZ1_Loop05:
	smpsSetvoice        0x04
	.byte	nRst, 0x0C, nA4, 0x24, nRst, 0x0C, nA4, 0x06, nRst, nG4, nA4, nRst
	.byte	0x0C, nRst, nB4, 0x23, nRst, 0x0D, nB4, 0x06, nRst, nA4, nB4, nRst
	.byte	0x0C, nRst, nB4, 0x23, nRst, 0x0D, nB4, 0x06, nRst, nA4, nB4, nRst
	.byte	0x0C, nRst, nC5, nC5, 0x06, nC5, nRst, nC5, nRst, nC5, nRst, nC5
	.byte	nC5, nRst, nC5, nRst
	smpsLoop            0x00, 0x02, Snd_FBZ1_Loop05
	.byte	nRst, 0x0C, nC5, 0x06, nRst, nC5, nRst, nC5, nRst, nC5, nRst, 0x2A
	smpsJump            Snd_FBZ1_Loop04
	
/*  Unreachable */
	smpsStop

/*  FM5 Data */
Snd_FBZ1_FM5:
	.byte	nRst, 0x10
	smpsModSet          0x0D, 0x01, 0x02, 0x06
	smpsPan             panCenter, 0x00
	.byte	nRst, 0x18

Snd_FBZ1_Jump00:
	smpsSetvoice        0x05
	.byte	nRst, 0x0C, nA6, 0x7F, smpsNoAttack, nA6, 0x0B, nG6, 0x06, nE6, nD6, nE6
	.byte	nD6, nC6, nA5, nD6, 0x02, nEb6, 0x0A, nA5, 0x0C, nRst, 0x48, nRst
	.byte	0x30, nD6, 0x06, nEb6, nD6, nEb6, nG6, nA6, nC7, nA6, nRst, 0x0C
	.byte	nA6, 0x7F, smpsNoAttack, nA6, 0x0B, nG6, 0x06, nE6, nD6, nE6, nD6, nC6
	.byte	nA5, nD6, 0x02, nEb6, 0x0A, nA5, 0x0C, nRst, 0x48, nE5, 0x06, nG5
	.byte	nE5, nG5, nA5, nG5, nA5, nC6, nEb6, nE6, nD6, nC6, nA6, nG6
	.byte	nE6, nC6
	smpsSetvoice        0x00
	.byte	nE4, 0x48, nE4, 0x06, nA4, 0x04, nRst, 0x08, nE4, 0x42, nD4, 0x05
	.byte	nRst, 0x07, nC4, 0x05, nRst, 0x07, nB3, 0x05, nRst, 0x07, nC4, 0x12
	.byte	nA3, 0x06, nRst, 0x48, nRst, 0x60, nE4, 0x48, nE4, 0x06, nA4, 0x04
	.byte	nRst, 0x08, nE4, 0x42, nD4, 0x05, nRst, 0x07, nC4, 0x05, nRst, 0x07
	.byte	nB3, 0x05, nRst, 0x07, nC4, 0x12, nE4, 0x06, nRst, 0x48, nRst, 0x3C
	.byte	nE5, 0x0C, nD5, nC5, nC5, 0x12, nA4, nE5, 0x30, nD5, 0x06, nC5
	.byte	nD5, 0x0B, nRst, 0x07, nB4, 0x0B, nRst, 0x07, nG4, 0x24, nB4, 0x0C
	.byte	nA4, nAb4, 0x12, nB4, 0x06, nRst, 0x0C, nD5, 0x18, nF5, 0x06, nRst
	.byte	nE5, nRst, nD5, nRst, nE5, 0x10, nRst, 0x08, nD5, 0x10, nRst, 0x08
	.byte	nC5, 0x10, nRst, 0x08, nB4, 0x10, nRst, 0x08, nC5, 0x12, nA4, nE5
	.byte	0x2D, nRst, 0x03, nD5, 0x06, nC5, nD5, 0x0B, nRst, 0x07, nB4, 0x0B
	.byte	nRst, 0x07, nG4, 0x24, nB4, 0x0C, nA4, nAb4, 0x12, nB4, 0x06, nRst
	.byte	0x0C, nD5, 0x18, nF5, 0x06, nRst, nE5, nRst, nD5, nRst, nE5, nD5
	.byte	nE5, 0x7F, smpsNoAttack, nE5, 0x05, nRst, 0x30
	smpsJump            Snd_FBZ1_Jump00
	
/*  Unreachable */
	smpsStop

/*  DAC Data */
Snd_FBZ1_DAC:
	.byte	dKickS3, 0x06, dKickS3, dKickS3, dKickS3

Snd_FBZ1_Loop00:
	.byte	dKickS3, 0x18, dSnareS3
	smpsLoop            0x00, 0x07, Snd_FBZ1_Loop00
	.byte	dKickS3, 0x18, dSnareS3, 0x0C, dSnareS3

Snd_FBZ1_Loop01:
	.byte	dKickS3, 0x18, dSnareS3
	smpsLoop            0x00, 0x07, Snd_FBZ1_Loop01
	.byte	dKickS3, 0x18, dSnareS3, 0x0C, dSnareS3

Snd_FBZ1_Loop02:
	.byte	dKickS3, 0x18, dSnareS3
	smpsLoop            0x00, 0x0F, Snd_FBZ1_Loop02
	.byte	dKickS3, 0x0C, dSnareS3, dSnareS3, dSnareS3

Snd_FBZ1_Loop03:
	.byte	dKickS3, 0x0C, dClapS3, dSnareS3, dClapS3, 0x06, dClapS3, dKickS3, 0x0C, dClapS3, dSnareS3, dClapS3
	.byte	0x06, dClapS3, dKickS3, 0x0C, dClapS3, dSnareS3, dClapS3, 0x06, dClapS3, dKickS3, dClapS3, dClapS3
	.byte	dClapS3, dSnareS3, 0x0C, dClapS3
	smpsLoop            0x00, 0x04, Snd_FBZ1_Loop03
	.byte	dKickS3, 0x0C, dSnareS3, dSnareS3, dSnareS3, 0x06, dSnareS3, dSnareS3, 0x30
	smpsJump            Snd_FBZ1_Loop00
	
/*  Unreachable */
	smpsStop

/*  PSG1 Data */
Snd_FBZ1_PSG1:
	smpsStop

/*  PSG2 Data */
Snd_FBZ1_PSG2:
	smpsStop

/*  Unreachable */
	smpsStop

/*  PSG3 Data */
Snd_FBZ1_PSG3:
	smpsStop

Snd_FBZ1_Voices:
/* 	Voice 0x00 */
/* 	0x38 */
/* 	0x47, 0x31, 0x73, 0x41, 	0x17, 0x11, 0x14, 0x18, 	0x02, 0x0C, 0x05, 0x01 */
/* 	0x00, 0x0F, 0x00, 0x00, 	0x1F, 0x3F, 0x5F, 0x1F, 	0x28, 0x13, 0x23, 0x81 */
	smpsVcAlgorithm     0x00
	smpsVcFeedback      0x07
	smpsVcUnusedBits    0x00
	smpsVcDetune        0x04, 0x07, 0x03, 0x04
	smpsVcCoarseFreq    0x01, 0x03, 0x01, 0x07
	smpsVcRateScale     0x00, 0x00, 0x00, 0x00
	smpsVcAttackRate    0x18, 0x14, 0x11, 0x17
	smpsVcAmpMod        0x00, 0x00, 0x00, 0x00
	smpsVcDecayRate1    0x01, 0x05, 0x0C, 0x02
	smpsVcDecayRate2    0x00, 0x00, 0x0F, 0x00
	smpsVcDecayLevel    0x01, 0x05, 0x03, 0x01
	smpsVcReleaseRate   0x0F, 0x0F, 0x0F, 0x0F
	smpsVcTotalLevel    0x01, 0x23, 0x13, 0x28

/* 	Voice 0x01 */
/* 	0x3B */
/* 	0x47, 0x40, 0x41, 0x40, 	0x9F, 0x1F, 0x1F, 0x1F, 	0x0F, 0x0E, 0x09, 0x09 */
/* 	0x00, 0x00, 0x00, 0x00, 	0xEF, 0xEF, 0xEF, 0xEF, 	0x24, 0x12, 0x15, 0x81 */
	smpsVcAlgorithm     0x03
	smpsVcFeedback      0x07
	smpsVcUnusedBits    0x00
	smpsVcDetune        0x04, 0x04, 0x04, 0x04
	smpsVcCoarseFreq    0x00, 0x01, 0x00, 0x07
	smpsVcRateScale     0x00, 0x00, 0x00, 0x02
	smpsVcAttackRate    0x1F, 0x1F, 0x1F, 0x1F
	smpsVcAmpMod        0x00, 0x00, 0x00, 0x00
	smpsVcDecayRate1    0x09, 0x09, 0x0E, 0x0F
	smpsVcDecayRate2    0x00, 0x00, 0x00, 0x00
	smpsVcDecayLevel    0x0E, 0x0E, 0x0E, 0x0E
	smpsVcReleaseRate   0x0F, 0x0F, 0x0F, 0x0F
	smpsVcTotalLevel    0x01, 0x15, 0x12, 0x24

/* 	Voice 0x02 */
/* 	0x3B */
/* 	0x7C, 0x19, 0x11, 0x71, 	0x13, 0x1C, 0x1C, 0x1B, 	0x0C, 0x09, 0x0A, 0x02 */
/* 	0x00, 0x06, 0x04, 0x07, 	0x1F, 0xEF, 0xFF, 0xEF, 	0x23, 0x29, 0x10, 0x81 */
	smpsVcAlgorithm     0x03
	smpsVcFeedback      0x07
	smpsVcUnusedBits    0x00
	smpsVcDetune        0x07, 0x01, 0x01, 0x07
	smpsVcCoarseFreq    0x01, 0x01, 0x09, 0x0C
	smpsVcRateScale     0x00, 0x00, 0x00, 0x00
	smpsVcAttackRate    0x1B, 0x1C, 0x1C, 0x13
	smpsVcAmpMod        0x00, 0x00, 0x00, 0x00
	smpsVcDecayRate1    0x02, 0x0A, 0x09, 0x0C
	smpsVcDecayRate2    0x07, 0x04, 0x06, 0x00
	smpsVcDecayLevel    0x0E, 0x0F, 0x0E, 0x01
	smpsVcReleaseRate   0x0F, 0x0F, 0x0F, 0x0F
	smpsVcTotalLevel    0x01, 0x10, 0x29, 0x23

/* 	Voice 0x03 */
/* 	0x34 */
/* 	0x61, 0x01, 0x01, 0x61, 	0x10, 0x11, 0x50, 0xD1, 	0x06, 0x01, 0x01, 0x01 */
/* 	0x08, 0x00, 0x09, 0x00, 	0x8F, 0xFF, 0xFF, 0xFF, 	0x19, 0x85, 0x17, 0x86 */
	smpsVcAlgorithm     0x04
	smpsVcFeedback      0x06
	smpsVcUnusedBits    0x00
	smpsVcDetune        0x06, 0x00, 0x00, 0x06
	smpsVcCoarseFreq    0x01, 0x01, 0x01, 0x01
	smpsVcRateScale     0x03, 0x01, 0x00, 0x00
	smpsVcAttackRate    0x11, 0x10, 0x11, 0x10
	smpsVcAmpMod        0x00, 0x00, 0x00, 0x00
	smpsVcDecayRate1    0x01, 0x01, 0x01, 0x06
	smpsVcDecayRate2    0x00, 0x09, 0x00, 0x08
	smpsVcDecayLevel    0x0F, 0x0F, 0x0F, 0x08
	smpsVcReleaseRate   0x0F, 0x0F, 0x0F, 0x0F
	smpsVcTotalLevel    0x06, 0x17, 0x05, 0x19

/* 	Voice 0x04 */
/* 	0x1B */
/* 	0x65, 0x50, 0x20, 0x41, 	0x1C, 0x18, 0x1A, 0x18, 	0x0F, 0x0C, 0x0B, 0x07 */
/* 	0x05, 0x01, 0x05, 0x01, 	0xCF, 0x0F, 0xDF, 0xCF, 	0x21, 0x19, 0x26, 0x81 */
	smpsVcAlgorithm     0x03
	smpsVcFeedback      0x03
	smpsVcUnusedBits    0x00
	smpsVcDetune        0x04, 0x02, 0x05, 0x06
	smpsVcCoarseFreq    0x01, 0x00, 0x00, 0x05
	smpsVcRateScale     0x00, 0x00, 0x00, 0x00
	smpsVcAttackRate    0x18, 0x1A, 0x18, 0x1C
	smpsVcAmpMod        0x00, 0x00, 0x00, 0x00
	smpsVcDecayRate1    0x07, 0x0B, 0x0C, 0x0F
	smpsVcDecayRate2    0x01, 0x05, 0x01, 0x05
	smpsVcDecayLevel    0x0C, 0x0D, 0x00, 0x0C
	smpsVcReleaseRate   0x0F, 0x0F, 0x0F, 0x0F
	smpsVcTotalLevel    0x01, 0x26, 0x19, 0x21

/* 	Voice 0x05 */
/* 	0x38 */
/* 	0x73, 0x55, 0x12, 0x31, 	0x16, 0x15, 0x14, 0x12, 	0x0E, 0x01, 0x05, 0x04 */
/* 	0x0C, 0x13, 0x0C, 0x0B, 	0xFF, 0xEF, 0xDF, 0x8F, 	0x36, 0x38, 0x21, 0x85 */
	smpsVcAlgorithm     0x00
	smpsVcFeedback      0x07
	smpsVcUnusedBits    0x00
	smpsVcDetune        0x03, 0x01, 0x05, 0x07
	smpsVcCoarseFreq    0x01, 0x02, 0x05, 0x03
	smpsVcRateScale     0x00, 0x00, 0x00, 0x00
	smpsVcAttackRate    0x12, 0x14, 0x15, 0x16
	smpsVcAmpMod        0x00, 0x00, 0x00, 0x00
	smpsVcDecayRate1    0x04, 0x05, 0x01, 0x0E
	smpsVcDecayRate2    0x0B, 0x0C, 0x13, 0x0C
	smpsVcDecayLevel    0x08, 0x0D, 0x0E, 0x0F
	smpsVcReleaseRate   0x0F, 0x0F, 0x0F, 0x0F
	smpsVcTotalLevel    0x05, 0x21, 0x38, 0x36

