Snd_FBZ2_Header:
	smpsHeaderStartSong 3
	smpsHeaderVoice     Snd_FBZ2_Voices
	smpsHeaderChan      0x06, 0x03
	smpsHeaderTempo     0x01, 0x00

	smpsHeaderDAC       Snd_FBZ2_DAC
	smpsHeaderFM        Snd_FBZ2_FM1,	0x00, 0x07
	smpsHeaderFM        Snd_FBZ2_FM2,	0x00, 0x09
	smpsHeaderFM        Snd_FBZ2_FM3,	0x00, 0x0B
	smpsHeaderFM        Snd_FBZ2_FM4,	0x00, 0x0B
	smpsHeaderFM        Snd_FBZ2_FM5,	0x00, 0x10
	smpsHeaderPSG       Snd_FBZ2_PSG1,	0xE8, 0x02, 0x00, 0x00
	smpsHeaderPSG       Snd_FBZ2_PSG2,	0xE8, 0x02, 0x00, 0x00
	smpsHeaderPSG       Snd_FBZ2_PSG3,	0xE8, 0x02, 0x00, 0x00

/*  FM1 Data */
Snd_FBZ2_FM1:
	smpsModSet          0x0D, 0x01, 0x02, 0x06
	smpsAlterNote       0x02
	smpsPan             panCenter, 0x00
	.byte	nRst, 0x60

Snd_FBZ2_Loop07:
	smpsSetvoice        0x00
	.byte	nRst, 0x0C, nB4, 0x04, nRst, 0x08, nC5, 0x04, nRst, 0x08, nB4, 0x24
	.byte	nE5, 0x04, nRst, 0x14, nEb5, 0x02, nE5, 0x16, nC5, 0x04, nRst, 0x08
	.byte	nA4, 0x18, nE4, 0x60, nRst, 0x24
	smpsSetvoice        0x02
	.byte	nRst, 0x36, nD5, 0x06, nE5, nG5, nB4, nC5, nA4, 0x0C
	smpsLoop            0x00, 0x02, Snd_FBZ2_Loop07
	smpsSetvoice        0x05
	.byte	nE4, 0x48, nE4, 0x06, nA4, nRst, nE4, 0x42, nD4, 0x06, nRst, nC4
	.byte	nRst, nB3, nRst, nC4, 0x12, nA3, 0x06, nRst, 0x48, nRst, 0x60, nE4
	.byte	0x48, nE4, 0x06, nA4, 0x04, nRst, 0x08, nE4, 0x42, nD4, 0x06, nRst
	.byte	nC4, nRst, nB3, nRst, nC4, 0x12, nE4, 0x06, nRst, 0x48, nRst, 0x3C
	.byte	nE5, 0x0C, nD5, nC5, nC5, 0x12, nA4, nE5, 0x30, nD5, 0x06, nC5
	.byte	nD5, 0x0B, nRst, 0x07, nB4, 0x0B, nRst, 0x07, nG4, 0x24, nB4, 0x0C
	.byte	nA4, nAb4, 0x12, nB4, 0x06, nRst, 0x0C, nD5, 0x18, nF5, 0x06, nRst
	.byte	nE5, nRst, nD5, nRst, nE5, 0x10, nRst, 0x08, nD5, 0x10, nRst, 0x08
	.byte	nC5, 0x10, nRst, 0x08, nB4, 0x10, nRst, 0x08, nC5, 0x12, nA4, nE5
	.byte	0x2D, nRst, 0x03, nD5, 0x06, nC5, nD5, 0x0B, nRst, 0x07, nB4, 0x0B
	.byte	nRst, 0x07, nG4, 0x24, nB4, 0x0C, nA4, nAb4, 0x12, nB4, 0x06, nRst
	.byte	0x0C, nD5, 0x18, nF5, 0x06, nRst, nE5, nRst, nD5, nRst, nE5, nD5
	.byte	nE5, 0x7F, smpsNoAttack, nE5, 0x05, nRst, 0x30
	smpsJump            Snd_FBZ2_Loop07

/*  Unreachable */
	smpsStop

/*  FM2 Data */
Snd_FBZ2_FM2:
	smpsSetvoice        0x01
	smpsModSet          0x0D, 0x01, 0x02, 0x06
	smpsPan             panCenter, 0x00
	.byte	nD5, 0x06, nE5, nA4, 0x02, nRst, 0x04, nA4, 0x02, nRst, 0x04, nD4
	.byte	0x06, nE4, nA3, 0x02, nRst, 0x04, nA3, 0x02, nRst, 0x04, nD3, 0x06
	.byte	nE3, nA2, 0x02, nRst, 0x04, nA2, 0x02, nRst, 0x04, nD2, 0x06, nE2
	.byte	nA1, 0x02, nRst, 0x04, nA1, 0x02, nRst, 0x04

Snd_FBZ2_Loop06:
	.byte	nA1, 0x06, nA1, nA2, 0x0C, nA1, 0x06, nA1, nA1, 0x03, nRst, nA1
	.byte	nRst, nAb1, 0x0C, nAb2, 0x04, nRst, 0x08, nAb1, 0x0C, nAb1, 0x06, nAb1
	.byte	nG1, nG1, nG2, 0x0C, nG1, 0x06, nG1, nG1, 0x03, nRst, nG1, nRst
	.byte	nAb1, 0x0C, nAb2, 0x04, nRst, 0x08, nAb1, 0x0C, nAb1, 0x06, nAb1, nA1
	.byte	0x0C, nA1, nA1, nG2, 0x06, nA2, nA1, 0x0C, nA1, nA1, nG2, 0x06
	.byte	nA2, nG2, nA2, 0x03, nRst, nA1, 0x0C, nA1, nG2, 0x06, nA2, 0x03
	.byte	nRst, nA1, 0x0C, nA1, nG2, 0x06, nA2, 0x03, nRst, nA1, 0x0C
	smpsLoop            0x00, 0x04, Snd_FBZ2_Loop06
	.byte	nF1, 0x06, nF1, nF2, 0x0C, nF1, 0x06, nF1, nF2, 0x0C, nF1, 0x06
	.byte	nF1, nF2, 0x0C, nF1, 0x06, nF1, nF2, 0x0C, nG1, 0x06, nG1, nG2
	.byte	0x0C, nG1, 0x06, nG1, nG2, 0x0C, nG1, 0x06, nG1, nG2, 0x0C, nG1
	.byte	0x06, nG1, nG2, 0x0C, nAb1, 0x06, nAb1, nAb2, 0x0C, nAb1, 0x06, nAb1
	.byte	nAb2, 0x0C, nAb1, 0x06, nAb1, nAb2, 0x0C, nAb1, 0x06, nAb1, nAb2, 0x0C
	.byte	nA1, 0x06, nA1, nA2, 0x0C, nA1, 0x06, nA1, nA2, 0x0C, nG1, 0x06
	.byte	nG1, nG2, 0x0C, nG1, 0x06, nG1, nG2, 0x0C, nF1, 0x06, nF1, nF2
	.byte	0x0C, nF1, 0x06, nF1, nF2, 0x0C, nF1, 0x06, nF1, nF2, 0x0C, nF1
	.byte	0x06, nF1, nF2, 0x0C, nG1, 0x06, nG1, nG2, 0x0C, nG1, 0x06, nG1
	.byte	nG2, 0x0C, nG1, 0x06, nG1, nG2, 0x0C, nG1, 0x06, nG1, nG2, 0x0C
	.byte	nAb1, 0x06, nAb1, nAb2, 0x0C, nAb1, 0x06, nAb1, nAb2, 0x0C, nAb1, 0x06
	.byte	nAb1, nAb2, 0x0C, nAb1, 0x06, nAb1, nAb2, 0x0C, nA1, 0x06, nA1, nA2
	.byte	0x0C, nA1, 0x06, nA1, nA2, 0x0C, nA1, 0x06, nA1, nA2, 0x0C, nA1
	.byte	0x06, nA1, nA2, 0x0C, nA1, 0x06, nRst, nA1, nRst, nA1, nRst, nA1
	.byte	nA1, nA1, nA2, 0x02, nRst, 0x04, nG2, 0x06, nA2, nD2, nE2, nA1
	.byte	0x02, nRst, 0x04, nA1, 0x02, nRst, 0x04
	smpsJump            Snd_FBZ2_Loop06

/*  Unreachable */
	smpsStop

/*  FM3 Data */
Snd_FBZ2_FM3:
	smpsModSet          0x0D, 0x01, 0x02, 0x06
	smpsPan             panRight, 0x00
	.byte	nRst, 0x60

Snd_FBZ2_Loop05:
	smpsSetvoice        0x03
	.byte	nA4, 0x10, nRst, 0x08, nG4, 0x10, nRst, 0x08, nE4, 0x0F, nRst, 0x03
	.byte	nC4, 0x0F, nRst, 0x03, nA3, 0x06, nRst, nRst, nC4, 0x12, nD4, 0x06
	.byte	nRst, nE4, nRst, nD4, 0x12, nC4, 0x06, nRst, 0x18
	smpsSetvoice        0x04
	.byte	nE4, 0x30, nF4, nFs4, nF4
	smpsLoop            0x00, 0x04, Snd_FBZ2_Loop05
	smpsSetvoice        0x06
	.byte	nF4, 0x30, nC4, 0x18, nA4, nG4, 0x48, nD4, 0x18, nD4, 0x48, nF4
	.byte	0x0C
	smpsSetvoice        0x07
	.byte	nAb4, 0x03, nA4, nBb4, nB4, nC5, 0x18, nA4, nA4, nE4
	smpsSetvoice        0x06
	.byte	nF4, 0x30, nC4, 0x18, nA4, nG4, 0x48, nD4, 0x18, nD4, 0x48, nF4
	.byte	0x18, nE4, 0x7F, smpsNoAttack, nE4, 0x11, nRst, 0x30
	smpsJump            Snd_FBZ2_Loop05

/*  Unreachable */
	smpsStop

/*  FM4 Data */
Snd_FBZ2_FM4:
	smpsModSet          0x0D, 0x01, 0x02, 0x06
	smpsPan             panLeft, 0x00
	.byte	nRst, 0x60

Snd_FBZ2_Loop04:
	smpsSetvoice        0x03
	.byte	nE4, 0x10, nRst, 0x08, nE4, 0x10, nRst, 0x08, nC4, 0x0F, nRst, 0x03
	.byte	nA3, 0x0F, nRst, 0x03, nE3, 0x06, nRst, nRst, nA3, 0x12, nB3, 0x06
	.byte	nRst, nC4, nRst, nB3, 0x12, nA3, 0x06, nRst, 0x18
	smpsSetvoice        0x04
	.byte	nC4, 0x30, nC4, nC4, nC4
	smpsLoop            0x00, 0x04, Snd_FBZ2_Loop04
	smpsSetvoice        0x06
	.byte	nA3, 0x30, nA3, nD4, 0x18, nC4, nB3, 0x30, nB3, 0x18, nA3, nAb3
	.byte	0x24
	smpsSetvoice        0x07
	.byte	nF4, 0x03, nFs4, nG4, nAb4, nA4, 0x18, nE4, nE4, nC4
	smpsSetvoice        0x06
	.byte	nA3, 0x30, nA3, nD4, 0x18, nC4, nB3, 0x30, nB3, 0x18, nA3, nAb3
	.byte	0x30, nC4, 0x7F, smpsNoAttack, nC4, 0x11, nRst, 0x30
	smpsJump            Snd_FBZ2_Loop04

/*  Unreachable */
	smpsStop

/*  FM5 Data */
Snd_FBZ2_FM5:
	.byte	nRst, 0x10
	smpsModSet          0x0D, 0x01, 0x02, 0x06
	smpsPan             panCenter, 0x00
	smpsAlterNote       0xFE
	.byte	nRst, 0x60

Snd_FBZ2_Loop03:
	smpsSetvoice        0x00
	.byte	nRst, 0x0C, nB4, 0x04, nRst, 0x08, nC5, 0x04, nRst, 0x08, nB4, 0x24
	.byte	nE5, 0x04, nRst, 0x14, nEb5, 0x02, nE5, 0x16, nC5, 0x04, nRst, 0x08
	.byte	nA4, 0x18, nE4, 0x60, nRst, 0x24
	smpsSetvoice        0x02
	.byte	nRst, 0x36, nD5, 0x06, nE5, nG5, nB4, nC5, nA4, 0x0C
	smpsLoop            0x00, 0x02, Snd_FBZ2_Loop03
	smpsSetvoice        0x05
	.byte	nE4, 0x48, nE4, 0x06, nA4, 0x04, nRst, 0x08, nE4, 0x42, nD4, 0x06
	.byte	nRst, nC4, nRst, nB3, nRst, nC4, 0x12, nA3, 0x06, nRst, 0x48, nRst
	.byte	0x60, nE4, 0x48, nE4, 0x06, nA4, 0x04, nRst, 0x08, nE4, 0x42, nD4
	.byte	0x06, nRst, nC4, nRst, nB3, nRst, nC4, 0x12, nE4, 0x06, nRst, 0x48
	.byte	nRst, 0x3C, nE5, 0x0C, nD5, nC5, nC5, 0x12, nA4, nE5, 0x30, nD5
	.byte	0x06, nC5, nD5, 0x0B, nRst, 0x07, nB4, 0x0B, nRst, 0x07, nG4, 0x24
	.byte	nB4, 0x0C, nA4, nAb4, 0x12, nB4, 0x06, nRst, 0x0C, nD5, 0x18, nF5
	.byte	0x06, nRst, nE5, nRst, nD5, nRst, nE5, 0x10, nRst, 0x08, nD5, 0x10
	.byte	nRst, 0x08, nC5, 0x10, nRst, 0x08, nB4, 0x10, nRst, 0x08, nC5, 0x12
	.byte	nA4, nE5, 0x2D, nRst, 0x03, nD5, 0x06, nC5, nD5, 0x0B, nRst, 0x07
	.byte	nB4, 0x0B, nRst, 0x07, nG4, 0x24, nB4, 0x0C, nA4, nAb4, 0x12, nB4
	.byte	0x06, nRst, 0x0C, nD5, 0x18, nF5, 0x06, nRst, nE5, nRst, nD5, nRst
	.byte	nE5, nD5, nE5, 0x7F, smpsNoAttack, nE5, 0x05, nRst, 0x30
	smpsJump            Snd_FBZ2_Loop03

/*  Unreachable */
	smpsStop

/*  DAC Data */
Snd_FBZ2_DAC:
	.byte	nRst, 0x48, dSnareS3, 0x06, dSnareS3, dSnareS3, dSnareS3

Snd_FBZ2_Loop00:
	.byte	dKickS3, 0x18, dSnareS3, 0x06, dKickS3, dKickS3, dKickS3, dKickS3, 0x0C, dKickS3, dSnareS3, 0x18
	.byte	dKickS3, dSnareS3, 0x06, dKickS3, dKickS3, dKickS3, dKickS3, 0x0C, dKickS3, dSnareS3, 0x18, dKickS3
	.byte	dSnareS3, 0x06, dKickS3, dKickS3, dKickS3, dKickS3, 0x0C, dKickS3, dSnareS3, 0x18, dSnareS3, 0x06
	.byte	dSnareS3, dKickS3, 0x0C, dKickS3, dSnareS3, 0x06, dSnareS3, dKickS3, 0x0C, dKickS3, dSnareS3, 0x06
	.byte	dSnareS3, dSnareS3, 0x0C
	smpsLoop            0x00, 0x03, Snd_FBZ2_Loop00

Snd_FBZ2_Loop01:
	.byte	dKickS3, 0x18, dSnareS3, 0x06, dKickS3, dKickS3, dKickS3, dKickS3, 0x0C, dKickS3, dSnareS3, 0x18
	smpsLoop            0x00, 0x03, Snd_FBZ2_Loop01
	.byte	dSnareS3, 0x06, dSnareS3, dKickS3, 0x0C, dKickS3, dSnareS3, 0x06, dSnareS3, dKickS3, 0x0C, dSnareS3
	.byte	dSnareS3, 0x06, dSnareS3, dSnareS3, dSnareS3

Snd_FBZ2_Loop02:
	.byte	dKickS3, 0x0C, dClapS3, dSnareS3, dClapS3, 0x06, dClapS3, dKickS3, 0x0C, dClapS3, dSnareS3, dClapS3
	.byte	0x06, dClapS3, dKickS3, 0x0C, dClapS3, dSnareS3, dClapS3, 0x06, dClapS3, dKickS3, dClapS3, dClapS3
	.byte	dClapS3, dSnareS3, 0x0C, dClapS3
	smpsLoop            0x00, 0x04, Snd_FBZ2_Loop02
	.byte	dKickS3, 0x0C, dSnareS3, dSnareS3, dSnareS3, 0x06, dSnareS3, dSnareS3, 0x30
	smpsJump            Snd_FBZ2_Loop00

/*  Unreachable */
	smpsStop

/*  PSG1 Data */
Snd_FBZ2_PSG1:
	smpsStop

/*  PSG2 Data */
Snd_FBZ2_PSG2:
	smpsStop

/*  Unreachable */
	smpsStop

/*  PSG3 Data */
Snd_FBZ2_PSG3:
	smpsStop

Snd_FBZ2_Voices:
/* 	Voice 0x00 */
/* 	0x05 */
/* 	0x2E, 0x17, 0x1F, 0x1F, 	0x1F, 0x1F, 0x1F, 0x1F, 	0x00, 0x0B, 0x08, 0x08 */
/* 	0x00, 0x08, 0x08, 0x08, 	0x00, 0x19, 0x19, 0x19, 	0x28, 0x8A, 0x89, 0x89 */
	smpsVcAlgorithm     0x05
	smpsVcFeedback      0x00
	smpsVcUnusedBits    0x00
	smpsVcDetune        0x01, 0x01, 0x01, 0x02
	smpsVcCoarseFreq    0x0F, 0x0F, 0x07, 0x0E
	smpsVcRateScale     0x00, 0x00, 0x00, 0x00
	smpsVcAttackRate    0x1F, 0x1F, 0x1F, 0x1F
	smpsVcAmpMod        0x00, 0x00, 0x00, 0x00
	smpsVcDecayRate1    0x08, 0x08, 0x0B, 0x00
	smpsVcDecayRate2    0x08, 0x08, 0x08, 0x00
	smpsVcDecayLevel    0x01, 0x01, 0x01, 0x00
	smpsVcReleaseRate   0x09, 0x09, 0x09, 0x00
	smpsVcTotalLevel    0x09, 0x09, 0x0A, 0x28

/* 	Voice 0x01 */
/* 	0x03 */
/* 	0x74, 0x18, 0x71, 0x11, 	0xDF, 0x5F, 0x1F, 0x1F, 	0x0C, 0x0F, 0x01, 0x01 */
/* 	0x00, 0x00, 0x00, 0x00, 	0xFF, 0xFF, 0xFF, 0xFF, 	0x0B, 0x1D, 0x10, 0x84 */
	smpsVcAlgorithm     0x03
	smpsVcFeedback      0x00
	smpsVcUnusedBits    0x00
	smpsVcDetune        0x01, 0x07, 0x01, 0x07
	smpsVcCoarseFreq    0x01, 0x01, 0x08, 0x04
	smpsVcRateScale     0x00, 0x00, 0x01, 0x03
	smpsVcAttackRate    0x1F, 0x1F, 0x1F, 0x1F
	smpsVcAmpMod        0x00, 0x00, 0x00, 0x00
	smpsVcDecayRate1    0x01, 0x01, 0x0F, 0x0C
	smpsVcDecayRate2    0x00, 0x00, 0x00, 0x00
	smpsVcDecayLevel    0x0F, 0x0F, 0x0F, 0x0F
	smpsVcReleaseRate   0x0F, 0x0F, 0x0F, 0x0F
	smpsVcTotalLevel    0x04, 0x10, 0x1D, 0x0B

/* 	Voice 0x02 */
/* 	0x02 */
/* 	0x71, 0x52, 0x41, 0x11, 	0x17, 0x16, 0x15, 0x17, 	0x0A, 0x03, 0x05, 0x03 */
/* 	0x00, 0x00, 0x00, 0x00, 	0xFF, 0xFF, 0xFF, 0xFF, 	0x07, 0x1F, 0x25, 0x87 */
	smpsVcAlgorithm     0x02
	smpsVcFeedback      0x00
	smpsVcUnusedBits    0x00
	smpsVcDetune        0x01, 0x04, 0x05, 0x07
	smpsVcCoarseFreq    0x01, 0x01, 0x02, 0x01
	smpsVcRateScale     0x00, 0x00, 0x00, 0x00
	smpsVcAttackRate    0x17, 0x15, 0x16, 0x17
	smpsVcAmpMod        0x00, 0x00, 0x00, 0x00
	smpsVcDecayRate1    0x03, 0x05, 0x03, 0x0A
	smpsVcDecayRate2    0x00, 0x00, 0x00, 0x00
	smpsVcDecayLevel    0x0F, 0x0F, 0x0F, 0x0F
	smpsVcReleaseRate   0x0F, 0x0F, 0x0F, 0x0F
	smpsVcTotalLevel    0x07, 0x25, 0x1F, 0x07

/* 	Voice 0x03 */
/* 	0x3D */
/* 	0x41, 0x01, 0x21, 0x71, 	0x0D, 0x12, 0x52, 0xD2, 	0x01, 0x01, 0x01, 0x01 */
/* 	0x08, 0x00, 0x09, 0x00, 	0x89, 0xF8, 0xF9, 0xF8, 	0x1D, 0x87, 0x87, 0x87 */
	smpsVcAlgorithm     0x05
	smpsVcFeedback      0x07
	smpsVcUnusedBits    0x00
	smpsVcDetune        0x07, 0x02, 0x00, 0x04
	smpsVcCoarseFreq    0x01, 0x01, 0x01, 0x01
	smpsVcRateScale     0x03, 0x01, 0x00, 0x00
	smpsVcAttackRate    0x12, 0x12, 0x12, 0x0D
	smpsVcAmpMod        0x00, 0x00, 0x00, 0x00
	smpsVcDecayRate1    0x01, 0x01, 0x01, 0x01
	smpsVcDecayRate2    0x00, 0x09, 0x00, 0x08
	smpsVcDecayLevel    0x0F, 0x0F, 0x0F, 0x08
	smpsVcReleaseRate   0x08, 0x09, 0x08, 0x09
	smpsVcTotalLevel    0x07, 0x07, 0x07, 0x1D

/* 	Voice 0x04 */
/* 	0x03 */
/* 	0x61, 0x51, 0x23, 0x41, 	0x10, 0x10, 0x0F, 0x15, 	0x1C, 0x01, 0x06, 0x05 */
/* 	0x05, 0x01, 0x05, 0x01, 	0xC9, 0x0C, 0xD9, 0xC9, 	0x18, 0x17, 0x17, 0x83 */
	smpsVcAlgorithm     0x03
	smpsVcFeedback      0x00
	smpsVcUnusedBits    0x00
	smpsVcDetune        0x04, 0x02, 0x05, 0x06
	smpsVcCoarseFreq    0x01, 0x03, 0x01, 0x01
	smpsVcRateScale     0x00, 0x00, 0x00, 0x00
	smpsVcAttackRate    0x15, 0x0F, 0x10, 0x10
	smpsVcAmpMod        0x00, 0x00, 0x00, 0x00
	smpsVcDecayRate1    0x05, 0x06, 0x01, 0x1C
	smpsVcDecayRate2    0x01, 0x05, 0x01, 0x05
	smpsVcDecayLevel    0x0C, 0x0D, 0x00, 0x0C
	smpsVcReleaseRate   0x09, 0x09, 0x0C, 0x09
	smpsVcTotalLevel    0x03, 0x17, 0x17, 0x18

/* 	Voice 0x05 */
/* 	0x02 */
/* 	0x74, 0x51, 0x13, 0x31, 	0x93, 0xD3, 0x12, 0x13, 	0x06, 0x01, 0x01, 0x03 */
/* 	0x0C, 0x13, 0x0C, 0x0B, 	0xFF, 0xEF, 0xDF, 0x8F, 	0x33, 0x13, 0x19, 0x83 */
	smpsVcAlgorithm     0x02
	smpsVcFeedback      0x00
	smpsVcUnusedBits    0x00
	smpsVcDetune        0x03, 0x01, 0x05, 0x07
	smpsVcCoarseFreq    0x01, 0x03, 0x01, 0x04
	smpsVcRateScale     0x00, 0x00, 0x03, 0x02
	smpsVcAttackRate    0x13, 0x12, 0x13, 0x13
	smpsVcAmpMod        0x00, 0x00, 0x00, 0x00
	smpsVcDecayRate1    0x03, 0x01, 0x01, 0x06
	smpsVcDecayRate2    0x0B, 0x0C, 0x13, 0x0C
	smpsVcDecayLevel    0x08, 0x0D, 0x0E, 0x0F
	smpsVcReleaseRate   0x0F, 0x0F, 0x0F, 0x0F
	smpsVcTotalLevel    0x03, 0x19, 0x13, 0x33

/* 	Voice 0x06 */
/* 	0x3D */
/* 	0x71, 0x73, 0x22, 0x31, 	0x10, 0x18, 0x14, 0x14, 	0x01, 0x01, 0x00, 0x02 */
/* 	0x00, 0x06, 0x04, 0x07, 	0xFF, 0xFC, 0xFF, 0xF8, 	0x1E, 0x8A, 0x87, 0x87 */
	smpsVcAlgorithm     0x05
	smpsVcFeedback      0x07
	smpsVcUnusedBits    0x00
	smpsVcDetune        0x03, 0x02, 0x07, 0x07
	smpsVcCoarseFreq    0x01, 0x02, 0x03, 0x01
	smpsVcRateScale     0x00, 0x00, 0x00, 0x00
	smpsVcAttackRate    0x14, 0x14, 0x18, 0x10
	smpsVcAmpMod        0x00, 0x00, 0x00, 0x00
	smpsVcDecayRate1    0x02, 0x00, 0x01, 0x01
	smpsVcDecayRate2    0x07, 0x04, 0x06, 0x00
	smpsVcDecayLevel    0x0F, 0x0F, 0x0F, 0x0F
	smpsVcReleaseRate   0x08, 0x0F, 0x0C, 0x0F
	smpsVcTotalLevel    0x07, 0x07, 0x0A, 0x1E

/* 	Voice 0x07 */
/* 	0x14 */
/* 	0x21, 0x12, 0x33, 0x44, 	0x1D, 0x1D, 0x1D, 0x1E, 	0x00, 0x01, 0x01, 0x01 */
/* 	0x00, 0x00, 0x00, 0x00, 	0xFF, 0xFF, 0xFF, 0xFF, 	0x2D, 0x86, 0x2D, 0x87 */
	smpsVcAlgorithm     0x04
	smpsVcFeedback      0x02
	smpsVcUnusedBits    0x00
	smpsVcDetune        0x04, 0x03, 0x01, 0x02
	smpsVcCoarseFreq    0x04, 0x03, 0x02, 0x01
	smpsVcRateScale     0x00, 0x00, 0x00, 0x00
	smpsVcAttackRate    0x1E, 0x1D, 0x1D, 0x1D
	smpsVcAmpMod        0x00, 0x00, 0x00, 0x00
	smpsVcDecayRate1    0x01, 0x01, 0x01, 0x00
	smpsVcDecayRate2    0x00, 0x00, 0x00, 0x00
	smpsVcDecayLevel    0x0F, 0x0F, 0x0F, 0x0F
	smpsVcReleaseRate   0x0F, 0x0F, 0x0F, 0x0F
	smpsVcTotalLevel    0x07, 0x2D, 0x06, 0x2D

