Snd_PresSega_Header:
	smpsHeaderStartSong 3
	smpsHeaderVoice     Snd_PresSega_Voices
	smpsHeaderChan      0x06, 0x03
	smpsHeaderTempo     0x01, 0x08

	smpsHeaderDAC       Snd_PresSega_DAC
	smpsHeaderFM        Snd_PresSega_FM1,	0x01, 0x12
	smpsHeaderFM        Snd_PresSega_FM2,	0x0D, 0x04
	smpsHeaderFM        Snd_PresSega_FM3,	0x01, 0x1C
	smpsHeaderFM        Snd_PresSega_FM4,	0x0D, 0x12
	smpsHeaderFM        Snd_PresSega_FM5,	0x0D, 0x12
	smpsHeaderPSG       Snd_PresSega_PSG1,	0x01, 0x09, 0x00, 0x00
	smpsHeaderPSG       Snd_PresSega_PSG2,	0x01, 0x09, 0x00, 0x00
	smpsHeaderPSG       Snd_PresSega_PSG3,	0xE9, 0x01, 0x00, 0x00

/*  FM1 Data */
Snd_PresSega_FM1:
	smpsSetvoice        0x05
	smpsAlterNote       0xFE
	smpsModSet          0x14, 0x01, 0x06, 0x06
	.byte	nA4, 0x06, nCs5, nB4, nD5
	smpsFMAlterVol      0xFF
	.byte	nCs5, nE5, nD5, nFs5
	smpsFMAlterVol      0xFF
	.byte	nE5, nAb5, nFs5, nA5
	smpsFMAlterVol      0xFF
	.byte	nAb5, nB5, nA5, nCs6
	smpsSetvoice        0x00
	.byte	nA4, 0x18, nFs4, 0x0C, nE4, nA4, nFs4, nD4, nE4, smpsNoAttack, nE4, 0x24
	.byte	nD5, 0x18
	smpsNoteFill        0x06
	.byte	0x0C, 0x0C, 0x0C
	smpsNoteFill        0x00
	smpsFMAlterVol      0xFD
	.byte	nD5, nCs5, 0x18, nA4, nB4, nRst, 0x0C, nE5, nD5, 0x18, nA4, nB4
	smpsFMAlterVol      0xFE
	.byte	nCs5, 0x0C
	smpsStop

/*  FM2 Data */
Snd_PresSega_FM2:
	smpsSetvoice        0x01
	.byte	nE1, 0x06, nE1, nRst, nE1, nRst, nE1, nE1, smpsNoAttack, nE1, nRst, nRst
	.byte	nE1, smpsNoAttack, nE1, nE1, nE1, nE1, nE1, nA1, 0x06, nA1, nRst, nA1
	.byte	nRst, nA1, nA1, smpsNoAttack, nA1, nFs1, 0x0C, nFs1, smpsNoAttack, nFs1, nE1, nE1
	.byte	0x06, nE1, nRst, nE1, nRst, nE1, nD1, smpsNoAttack, nD1, nRst, nD1, nRst
	.byte	nD2, smpsNoAttack, nD2, nD1, nD1, nD1, nA1, nA1, nRst, nA1, nRst, nA1
	.byte	nA1, smpsNoAttack, nA1, nFs1, 0x0C, nFs1, smpsNoAttack, nFs1, nG1, nG1, 0x06, nG1
	.byte	nRst, nG1, nRst, nG1, nE1, smpsNoAttack, nE1, nRst, nE1, nRst, nE2, smpsNoAttack
	.byte	nE2, nE1
	smpsFMAlterVol      0xFD
	.byte	nA1, 0x60
	smpsStop

/*  FM3 Data */
Snd_PresSega_FM3:
	smpsSetvoice        0x05
	smpsAlterNote       0x02
	smpsModSet          0x15, 0x01, 0x06, 0x06
	.byte	nRst, 0x03, nB4, 0x06, nE5, nCs5, nFs5
	smpsFMAlterVol      0xFF
	.byte	nD5, nAb5, nE5, nA5
	smpsFMAlterVol      0xFF
	.byte	nFs5, nB5, nAb5, nCs6
	smpsFMAlterVol      0xFF
	.byte	nA5, nD6, nB5, nE6, 0x03
	smpsSetvoice        0x00
	.byte	nRst, 0x07, nA4, 0x18, nFs4, 0x0C, nE4, nA4, nFs4, nD4, nE4, smpsNoAttack
	.byte	nE4, 0x24, nD5, 0x18
	smpsNoteFill        0x06
	.byte	0x0C, 0x0C, 0x0C
	smpsNoteFill        0x00
	smpsFMAlterVol      0xFD
	.byte	nD5, nCs5, 0x18, nA4, nB4, nRst, 0x0C, nE5, nD5, 0x18, nA4, nB4
	.byte	0x05, nRst, 0x05
	smpsFMAlterVol      0xFE
	.byte	nA4, 0x0C
	smpsStop

/*  FM4 Data */
Snd_PresSega_FM4:
	smpsSetvoice        0x04
	smpsPan             panRight, 0x00
	smpsModSet          0x01, 0x01, 0x0C, 0x00
	.byte	nG2, 0x60
	smpsSetvoice        0x03
	smpsModSet          0x00, 0x00, 0x00, 0x00
	.byte	nA3, nB3, 0x24, nA3, 0x30, smpsNoAttack, 0x0C
	smpsSetvoice        0x02
	.byte	nA4, 0x24, nA4, 0x30, nRst, 0x0C
	smpsFMAlterVol      0xFF
	.byte	nB4, 0x24, nB4, 0x30
	smpsFMAlterVol      0xFF
	.byte	nCs5, 0x0C
	smpsStop

/*  FM5 Data */
Snd_PresSega_FM5:
	smpsSetvoice        0x04
	smpsPan             panLeft, 0x00
	smpsModSet          0x01, 0x01, 0x0C, 0x00
	.byte	nG2, 0x60
	smpsSetvoice        0x03
	smpsModSet          0x00, 0x00, 0x00, 0x00
	.byte	nE3, nE3, 0x24, nD3, 0x30, smpsNoAttack, 0x0C
	smpsSetvoice        0x02
	.byte	nE4, 0x24, nD4, 0x30, nRst, 0x0C
	smpsFMAlterVol      0xFF
	.byte	nG4, 0x24, nE4, 0x30
	smpsFMAlterVol      0xFF
	.byte	nE4, 0x0C
	smpsStop

/*  PSG1 Data */
Snd_PresSega_PSG1:
	smpsPSGvoice        sTone_0C
	.byte	nA2, 0x06, nCs3, nB2, nD3
	smpsPSGAlterVol     0xFF
	.byte	nCs3, nE3, nD3, nFs3
	smpsPSGAlterVol     0xFF
	.byte	nE3, nAb3, nFs3, nA3
	smpsPSGAlterVol     0xFF
	.byte	nAb3, nB3, nA3, nCs4
	smpsPSGAlterVol     0xFD
	smpsPSGvoice        sTone_0A
	.byte	nE4, 0x0C, nB3, nE4, nB3, nE4, nB3, nE4, nB3, nD4, nB3, nD4
	.byte	nB3, nD4, nB3, nD4, nB3, nE4, 0x0C, nB3, nE4, nB3, nD4, nB3
	.byte	nD4, nB3, nD4, nA3, nD4, nA3, nE4, nB3, nE4
	smpsPSGAlterVol     0x01

Snd_PresSega_Loop01:
	.byte	nA4
	smpsPSGAlterVol     0x01
	.byte	nG5
	smpsPSGAlterVol     0x01
	smpsLoop            0x00, 0x05, Snd_PresSega_Loop01
	smpsStop

/*  PSG2 Data */
Snd_PresSega_PSG2:
	smpsPSGvoice        sTone_0C
	.byte	nRst, 0x03, nB2, 0x06, nE3, nCs3, nFs3
	smpsPSGAlterVol     0xFF
	.byte	nD3, nAb3, nE3, nA3
	smpsPSGAlterVol     0xFF
	.byte	nFs3, nB3, nAb3, nCs4
	smpsPSGAlterVol     0xFF
	.byte	nA3, nD4, nB3, nE4, 0x03
	smpsPSGAlterVol     0xFD
	smpsPSGvoice        sTone_0A
	.byte	nRst, 0x06, nCs4, 0x0C, nA3, nCs4, nA3, nCs4, nA3, nCs4, nA3, nCs4
	.byte	nA3, nCs4, nA3, nCs4, nA3, nCs4, nA3, nCs4, 0x0C, nA3, nCs4, nA3
	.byte	nCs4, nA3, nCs4, nA3, nB3, nG3, nB3, nG3, nCs4, nA3, nCs4
	smpsPSGAlterVol     0x01

Snd_PresSega_Loop00:
	.byte	nE5
	smpsPSGAlterVol     0x01
	.byte	nA5
	smpsPSGAlterVol     0x01
	smpsLoop            0x00, 0x05, Snd_PresSega_Loop00
	smpsStop

/*  PSG3 Data */
Snd_PresSega_PSG3:
	smpsPSGvoice        sTone_0A
	smpsModSet          0x14, 0x01, 0x03, 0x06
	.byte	nRst, 0x60, nA4, 0x18, nFs4, 0x0C, nE4, nA4, nFs4, nD4, nE4, smpsNoAttack
	.byte	nE4, 0x24, nD5, 0x18
	smpsNoteFill        0x06
	.byte	0x0C, 0x0C, 0x0C
	smpsNoteFill        0x00
	smpsModSet          0x00, 0x00, 0x00, 0x00
	.byte	nA4, 0x24, nD4, 0x30, nRst, 0x0C, nG4, 0x24, nE4, 0x30, nCs4, 0x0C
	smpsStop

/*  DAC Data */
Snd_PresSega_DAC:
	smpsFade            0x25
	.byte	dCrashCymbal, 0x30, nRst, 0x0C, dSnareS3, dSnareS3, dSnareS3, 0x06, 0x06, dCrashCymbal, 0x18, dSnareS3
	.byte	0x0C, dKickS3, dKickS3, 0x06, dKickS3, dKickS3, 0x0C, dSnareS3, 0x18, dKickS3, 0x18, dSnareS3
	.byte	0x0C, dKickS3, dKickS3, 0x06, dKickS3, dKickS3, 0x0C, dSnareS3, 0x06, 0x06, nRst, nRst
	.byte	dKickS3, 0x18, dSnareS3, dKickS3, 0x06, dKickS3, dKickS3, 0x0C, dSnareS3, 0x18, dKickS3, dSnareS3
	.byte	0x12, dKickS3, 0x06, dKickS3, dKickS3, dKickS3, 0x0C, dSnareS3, dCrashCymbal, 0x60
	smpsStop

Snd_PresSega_Voices:
/* 	Voice 0x00 */
/* 	0x3D */
/* 	0x01, 0x01, 0x11, 0x12, 	0x18, 0x1F, 0x1F, 0x1F, 	0x10, 0x06, 0x06, 0x06 */
/* 	0x01, 0x00, 0x00, 0x00, 	0x3F, 0x1F, 0x1F, 0x1F, 	0x10, 0x83, 0x83, 0x83 */
	smpsVcAlgorithm     0x05
	smpsVcFeedback      0x07
	smpsVcUnusedBits    0x00
	smpsVcDetune        0x01, 0x01, 0x00, 0x00
	smpsVcCoarseFreq    0x02, 0x01, 0x01, 0x01
	smpsVcRateScale     0x00, 0x00, 0x00, 0x00
	smpsVcAttackRate    0x1F, 0x1F, 0x1F, 0x18
	smpsVcAmpMod        0x00, 0x00, 0x00, 0x00
	smpsVcDecayRate1    0x06, 0x06, 0x06, 0x10
	smpsVcDecayRate2    0x00, 0x00, 0x00, 0x01
	smpsVcDecayLevel    0x01, 0x01, 0x01, 0x03
	smpsVcReleaseRate   0x0F, 0x0F, 0x0F, 0x0F
	smpsVcTotalLevel    0x03, 0x03, 0x03, 0x10

/* 	Voice 0x01 */
/* 	0x00 */
/* 	0x23, 0x30, 0x30, 0x21, 	0x9F, 0x5F, 0x1F, 0x1F, 	0x00, 0x0F, 0x01, 0x00 */
/* 	0x07, 0x00, 0x00, 0x0C, 	0x0F, 0x4F, 0xFF, 0x0F, 	0x26, 0x30, 0x1D, 0x80 */
	smpsVcAlgorithm     0x00
	smpsVcFeedback      0x00
	smpsVcUnusedBits    0x00
	smpsVcDetune        0x02, 0x03, 0x03, 0x02
	smpsVcCoarseFreq    0x01, 0x00, 0x00, 0x03
	smpsVcRateScale     0x00, 0x00, 0x01, 0x02
	smpsVcAttackRate    0x1F, 0x1F, 0x1F, 0x1F
	smpsVcAmpMod        0x00, 0x00, 0x00, 0x00
	smpsVcDecayRate1    0x00, 0x01, 0x0F, 0x00
	smpsVcDecayRate2    0x0C, 0x00, 0x00, 0x07
	smpsVcDecayLevel    0x00, 0x0F, 0x04, 0x00
	smpsVcReleaseRate   0x0F, 0x0F, 0x0F, 0x0F
	smpsVcTotalLevel    0x00, 0x1D, 0x30, 0x26

/* 	Voice 0x02 */
/* 	0x3C */
/* 	0x71, 0x31, 0x12, 0x11, 	0x17, 0x1F, 0x19, 0x2F, 	0x04, 0x01, 0x07, 0x01 */
/* 	0x00, 0x00, 0x00, 0x00, 	0xF7, 0xF8, 0xF7, 0xF8, 	0x1D, 0x80, 0x19, 0x80 */
	smpsVcAlgorithm     0x04
	smpsVcFeedback      0x07
	smpsVcUnusedBits    0x00
	smpsVcDetune        0x01, 0x01, 0x03, 0x07
	smpsVcCoarseFreq    0x01, 0x02, 0x01, 0x01
	smpsVcRateScale     0x00, 0x00, 0x00, 0x00
	smpsVcAttackRate    0x2F, 0x19, 0x1F, 0x17
	smpsVcAmpMod        0x00, 0x00, 0x00, 0x00
	smpsVcDecayRate1    0x01, 0x07, 0x01, 0x04
	smpsVcDecayRate2    0x00, 0x00, 0x00, 0x00
	smpsVcDecayLevel    0x0F, 0x0F, 0x0F, 0x0F
	smpsVcReleaseRate   0x08, 0x07, 0x08, 0x07
	smpsVcTotalLevel    0x00, 0x19, 0x00, 0x1D

/* 	Voice 0x03 */
/* 	0x2C */
/* 	0x71, 0x62, 0x31, 0x32, 	0x5F, 0x54, 0x5F, 0x5F, 	0x00, 0x09, 0x00, 0x09 */
/* 	0x00, 0x03, 0x00, 0x03, 	0x0F, 0x8F, 0x0F, 0xAF, 	0x16, 0x80, 0x11, 0x80 */
	smpsVcAlgorithm     0x04
	smpsVcFeedback      0x05
	smpsVcUnusedBits    0x00
	smpsVcDetune        0x03, 0x03, 0x06, 0x07
	smpsVcCoarseFreq    0x02, 0x01, 0x02, 0x01
	smpsVcRateScale     0x01, 0x01, 0x01, 0x01
	smpsVcAttackRate    0x1F, 0x1F, 0x14, 0x1F
	smpsVcAmpMod        0x00, 0x00, 0x00, 0x00
	smpsVcDecayRate1    0x09, 0x00, 0x09, 0x00
	smpsVcDecayRate2    0x03, 0x00, 0x03, 0x00
	smpsVcDecayLevel    0x0A, 0x00, 0x08, 0x00
	smpsVcReleaseRate   0x0F, 0x0F, 0x0F, 0x0F
	smpsVcTotalLevel    0x00, 0x11, 0x00, 0x16

/* 	Voice 0x04 */
/* 	0x3D */
/* 	0x51, 0x21, 0x30, 0x10, 	0x1F, 0x1F, 0x1F, 0x1F, 	0x0F, 0x00, 0x00, 0x00 */
/* 	0x00, 0x00, 0x00, 0x00, 	0x1F, 0x4F, 0x4F, 0x4F, 	0x10, 0x8E, 0x8E, 0x8E */
	smpsVcAlgorithm     0x05
	smpsVcFeedback      0x07
	smpsVcUnusedBits    0x00
	smpsVcDetune        0x01, 0x03, 0x02, 0x05
	smpsVcCoarseFreq    0x00, 0x00, 0x01, 0x01
	smpsVcRateScale     0x00, 0x00, 0x00, 0x00
	smpsVcAttackRate    0x1F, 0x1F, 0x1F, 0x1F
	smpsVcAmpMod        0x00, 0x00, 0x00, 0x00
	smpsVcDecayRate1    0x00, 0x00, 0x00, 0x0F
	smpsVcDecayRate2    0x00, 0x00, 0x00, 0x00
	smpsVcDecayLevel    0x04, 0x04, 0x04, 0x01
	smpsVcReleaseRate   0x0F, 0x0F, 0x0F, 0x0F
	smpsVcTotalLevel    0x0E, 0x0E, 0x0E, 0x10

/* 	Voice 0x05 */
/* 	0x04 */
/* 	0x12, 0x0A, 0x06, 0x7C, 	0x5F, 0x5F, 0x5F, 0x5F, 	0x00, 0x08, 0x00, 0x00 */
/* 	0x00, 0x00, 0x00, 0x0A, 	0x0F, 0xFF, 0x0F, 0x0F, 	0x11, 0x8C, 0x13, 0x8C */
	smpsVcAlgorithm     0x04
	smpsVcFeedback      0x00
	smpsVcUnusedBits    0x00
	smpsVcDetune        0x07, 0x00, 0x00, 0x01
	smpsVcCoarseFreq    0x0C, 0x06, 0x0A, 0x02
	smpsVcRateScale     0x01, 0x01, 0x01, 0x01
	smpsVcAttackRate    0x1F, 0x1F, 0x1F, 0x1F
	smpsVcAmpMod        0x00, 0x00, 0x00, 0x00
	smpsVcDecayRate1    0x00, 0x00, 0x08, 0x00
	smpsVcDecayRate2    0x0A, 0x00, 0x00, 0x00
	smpsVcDecayLevel    0x00, 0x00, 0x0F, 0x00
	smpsVcReleaseRate   0x0F, 0x0F, 0x0F, 0x0F
	smpsVcTotalLevel    0x0C, 0x13, 0x0C, 0x11

