Snd_GameOver_Header:
	smpsHeaderStartSong 3
	smpsHeaderVoice     Snd_GameOver_Voices
	smpsHeaderChan      0x06, 0x03
	smpsHeaderTempo     0x01, 0x05

	smpsHeaderDAC       Snd_GameOver_DAC
	smpsHeaderFM        Snd_GameOver_FM1,	0x00, 0x11
	smpsHeaderFM        Snd_GameOver_FM2,	0x00, 0x11
	smpsHeaderFM        Snd_GameOver_FM3,	0xF4, 0x0E
	smpsHeaderFM        Snd_GameOver_FM4,	0x00, 0x12
	smpsHeaderFM        Snd_GameOver_FM5,	0x00, 0x12
	smpsHeaderPSG       Snd_GameOver_PSG1,	0xF4, 0x03, 0x05, 0x00
	smpsHeaderPSG       Snd_GameOver_PSG2,	0xE8, 0x03, 0x05, 0x00
	smpsHeaderPSG       Snd_GameOver_PSG3,	0x00, 0x00, 0x00, sTone_03

/*  FM1 Data */
Snd_GameOver_FM1:
	smpsPan             panLeft, 0x00
	smpsSetvoice        0x00
	smpsModSet          0x07, 0x01, 0x02, 0x05
	.byte	nF2, 0x30, nC3, 0x20, nF2, 0x10, nG2, 0x30, nD3, 0x20, nG2, 0x10
	.byte	nEb3, 0x18, nD3, nCs3, nC3, nAb3, 0x08, nG3, nFs3, nF3, nE3, nEb3
	.byte	nD3, nCs3, nC3, nB3, nBb3, nA3
	smpsModSet          0x07, 0x01, 0x09, 0x05
	.byte	nAb2, 0x60
	smpsStop

/*  FM2 Data */
Snd_GameOver_FM2:
	smpsPan             panRight, 0x00
	smpsSetvoice        0x00
	smpsModSet          0x07, 0x01, 0x01, 0x05
	.byte	nRst, 0x01, nF2, 0x30, nC3, 0x20, nF2, 0x10, nG2, 0x30, nD3, 0x20
	.byte	nG2, 0x10, nG3, 0x18, nFs3, nF3, nE3, nAb3, 0x08, nG3, nFs3, nF3
	.byte	nE3, nEb3, nD3, nCs3, nC3, nB3, nBb3, nA3
	smpsModSet          0x07, 0x01, 0x09, 0x05
	.byte	nAb2, 0x60
	smpsStop

/*  FM3 Data */
Snd_GameOver_FM3:
	smpsSetvoice        0x01
	smpsModSet          0x07, 0x01, 0x0F, 0x05
	.byte	nC5, 0x30, nF5, 0x20, nC5, 0x10, nB4, 0x30, nF5, 0x20, nB4, 0x10
	.byte	nBb4, 0x08, nEb5, nBb4, nA4, nD5, nA4, nAb4, nCs5, nAb4, nG4, nC5
	.byte	nG4, nCs5, nC5, nB4, nBb4, nA4, nAb4, nG4, nFs4, nF4, nE4, nEb4
	.byte	nD4
	smpsModSet          0x28, 0x01, 0x18, 0x05
	.byte	nCs4, 0x60
	smpsSetvoice        0x00
	.byte	nRst, 0x01
	smpsStop

/*  FM4 Data */
Snd_GameOver_FM4:
	smpsPan             panLeft, 0x00
	smpsSetvoice        0x03
	smpsAlterPitch      0xE8
	smpsModSet          0x07, 0x01, 0x03, 0x05
	.byte	nC5, 0x30, nF5, 0x20, nC5, 0x10, nB4, 0x30, nF5, 0x20, nB4, 0x10
	.byte	nBb4, 0x08, nEb5, nBb4, nA4, nD5, nA4, nAb4, nCs5, nAb4, nG4, nC5
	.byte	nG4
	smpsSetvoice        0x01
	smpsAlterPitch      0x18
	smpsModSet          0x07, 0x01, 0x0F, 0x05
	smpsPan             panRight, 0x00
	.byte	nG5, 0x08, nG4, nD5
	smpsPan             panCenter, 0x00
	.byte	nE4, nA4, nB3
	smpsPan             panLeft, 0x00
	.byte	nD4, nE3, nA3
	smpsPan             panCenter, 0x00
	.byte	nB2, nE3, nF2
	smpsPan             panLeft, 0x00
	.byte	nAb2, 0x60
	smpsSetvoice        0x00
	.byte	nRst, 0x01
	smpsStop

/*  FM5 Data */
Snd_GameOver_FM5:
	smpsPan             panRight, 0x00
	smpsSetvoice        0x04
	smpsFMAlterVol      0xFB
	smpsModSet          0x07, 0x01, 0x03, 0x05
	.byte	nC5, 0x30, nF5, 0x20, nC5, 0x10, nB4, 0x30, nF5, 0x20, nB4, 0x10
	.byte	nBb4, 0x08, nEb5, nBb4, nA4, nD5, nA4, nAb4, nCs5, nAb4, nG4, nC5
	.byte	nG4
	smpsSetvoice        0x02
	smpsFMAlterVol      0x05
	smpsModSet          0x07, 0x01, 0x0F, 0x05
	.byte	nG5, 0x08, nA4, nD5
	smpsPan             panCenter, 0x00
	.byte	nE4, nA4, nB3
	smpsPan             panLeft, 0x00
	.byte	nD4, nE3, nA3
	smpsPan             panCenter, 0x00
	.byte	nA2, nE3, nE2
	smpsPan             panRight, 0x00
	.byte	nAb2, 0x60
	smpsSetvoice        0x00
	.byte	nRst, 0x01
	smpsStop

/*  PSG1 Data */
Snd_GameOver_PSG1:
	smpsPSGvoice        sTone_09
	.byte	nA3, 0x60, nG3, nBb4, 0x08, nEb5, nBb4, nA4, nD5, nA4, nAb4, nCs5
	.byte	nAb4, nG4, nC5, nG4, nCs5, nC5, nB4, nBb4, nA4, nAb4, nG4, nFs4
	.byte	nF4, nE4, nEb4, nD4, nCs4, 0x60
	smpsStop

/*  PSG2 Data */
Snd_GameOver_PSG2:
	smpsPSGvoice        sTone_09
	.byte	nC5, 0x30, nF5, 0x20, nC5, 0x10, nB4, 0x30, nF5, 0x20, nB4, 0x10
	.byte	nRst, 0x60, nRst, 0x60, nCs4, 0x60
	smpsStop

/*  PSG3 Data */
Snd_GameOver_PSG3:
	smpsPSGform         0xE7
	smpsPSGvoice        sTone_01
	.byte	nMaxPSG2, 0x10, nMaxPSG2, nMaxPSG2, nMaxPSG2, nMaxPSG2
	smpsPSGvoice        sTone_02
	.byte	nMaxPSG2
	smpsPSGvoice        sTone_01
	.byte	nMaxPSG2, nMaxPSG2, nMaxPSG2, nMaxPSG2, nMaxPSG2
	smpsPSGvoice        sTone_02
	.byte	nMaxPSG2, nMaxPSG2, 0x18, nMaxPSG2, nMaxPSG2, nMaxPSG2, nMaxPSG2, nMaxPSG2, nMaxPSG2, nMaxPSG2, nMaxPSG2, 0x60
	smpsStop

/*  DAC Data */
Snd_GameOver_DAC:
	.byte	dKickS3, 0x30, dSnareS3, 0x20, dKickS3, 0x10, dKickS3, 0x20, dKickS3, 0x10, dSnareS3, dKickS3
	.byte	dKickS3, dKickS3, 0x08, dSnareS3, dSnareS3, dKickS3, dHighTom, dHighTom, dKickS3, dMidTomS3, dMidTomS3, dKickS3
	.byte	dLowTomS3, dLowTomS3, dElectricHighTom, dElectricHighTom, dKickS3, dSnareS3, dElectricMidTom, dElectricMidTom, dKickS3, dElectricLowTom, dElectricLowTom, dSnareS3
	.byte	dElectricFloorTom, dElectricFloorTom, dCrashCymbal, 0x60
	smpsStop

Snd_GameOver_Voices:
/* 	Voice 0x00 */
/* 	0x31 */
/* 	0x34, 0x35, 0x30, 0x31, 	0xDF, 0xDF, 0x9F, 0x9F, 	0x0C, 0x07, 0x0C, 0x09 */
/* 	0x07, 0x07, 0x07, 0x08, 	0x2F, 0x1F, 0x1F, 0x2F, 	0x17, 0x32, 0x14, 0x80 */
	smpsVcAlgorithm     0x01
	smpsVcFeedback      0x06
	smpsVcUnusedBits    0x00
	smpsVcDetune        0x03, 0x03, 0x03, 0x03
	smpsVcCoarseFreq    0x01, 0x00, 0x05, 0x04
	smpsVcRateScale     0x02, 0x02, 0x03, 0x03
	smpsVcAttackRate    0x1F, 0x1F, 0x1F, 0x1F
	smpsVcAmpMod        0x00, 0x00, 0x00, 0x00
	smpsVcDecayRate1    0x09, 0x0C, 0x07, 0x0C
	smpsVcDecayRate2    0x08, 0x07, 0x07, 0x07
	smpsVcDecayLevel    0x02, 0x01, 0x01, 0x02
	smpsVcReleaseRate   0x0F, 0x0F, 0x0F, 0x0F
	smpsVcTotalLevel    0x00, 0x14, 0x32, 0x17

/* 	Voice 0x01 */
/* 	0x3A */
/* 	0x51, 0x08, 0x51, 0x02, 	0x1E, 0x1E, 0x1E, 0x10, 	0x1F, 0x1F, 0x1F, 0x0F */
/* 	0x00, 0x00, 0x00, 0x02, 	0x0F, 0x0F, 0x0F, 0x1F, 	0x18, 0x24, 0x22, 0x81 */
	smpsVcAlgorithm     0x02
	smpsVcFeedback      0x07
	smpsVcUnusedBits    0x00
	smpsVcDetune        0x00, 0x05, 0x00, 0x05
	smpsVcCoarseFreq    0x02, 0x01, 0x08, 0x01
	smpsVcRateScale     0x00, 0x00, 0x00, 0x00
	smpsVcAttackRate    0x10, 0x1E, 0x1E, 0x1E
	smpsVcAmpMod        0x00, 0x00, 0x00, 0x00
	smpsVcDecayRate1    0x0F, 0x1F, 0x1F, 0x1F
	smpsVcDecayRate2    0x02, 0x00, 0x00, 0x00
	smpsVcDecayLevel    0x01, 0x00, 0x00, 0x00
	smpsVcReleaseRate   0x0F, 0x0F, 0x0F, 0x0F
	smpsVcTotalLevel    0x01, 0x22, 0x24, 0x18

/* 	Voice 0x02 */
/* 	0x3C */
/* 	0x01, 0x02, 0x0F, 0x04, 	0x8D, 0x52, 0x9F, 0x1F, 	0x09, 0x00, 0x00, 0x0D */
/* 	0x00, 0x00, 0x00, 0x00, 	0x23, 0x08, 0x02, 0xF7, 	0x15, 0x80, 0x1D, 0x87 */
	smpsVcAlgorithm     0x04
	smpsVcFeedback      0x07
	smpsVcUnusedBits    0x00
	smpsVcDetune        0x00, 0x00, 0x00, 0x00
	smpsVcCoarseFreq    0x04, 0x0F, 0x02, 0x01
	smpsVcRateScale     0x00, 0x02, 0x01, 0x02
	smpsVcAttackRate    0x1F, 0x1F, 0x12, 0x0D
	smpsVcAmpMod        0x00, 0x00, 0x00, 0x00
	smpsVcDecayRate1    0x0D, 0x00, 0x00, 0x09
	smpsVcDecayRate2    0x00, 0x00, 0x00, 0x00
	smpsVcDecayLevel    0x0F, 0x00, 0x00, 0x02
	smpsVcReleaseRate   0x07, 0x02, 0x08, 0x03
	smpsVcTotalLevel    0x07, 0x1D, 0x00, 0x15

/* 	Voice 0x03 */
/* 	0x3A */
/* 	0x01, 0x07, 0x01, 0x01, 	0x8E, 0x8E, 0x8D, 0x53, 	0x0E, 0x0E, 0x0E, 0x03 */
/* 	0x00, 0x00, 0x00, 0x07, 	0x1F, 0xFF, 0x1F, 0x0F, 	0x1C, 0x28, 0x27, 0x80 */
	smpsVcAlgorithm     0x02
	smpsVcFeedback      0x07
	smpsVcUnusedBits    0x00
	smpsVcDetune        0x00, 0x00, 0x00, 0x00
	smpsVcCoarseFreq    0x01, 0x01, 0x07, 0x01
	smpsVcRateScale     0x01, 0x02, 0x02, 0x02
	smpsVcAttackRate    0x13, 0x0D, 0x0E, 0x0E
	smpsVcAmpMod        0x00, 0x00, 0x00, 0x00
	smpsVcDecayRate1    0x03, 0x0E, 0x0E, 0x0E
	smpsVcDecayRate2    0x07, 0x00, 0x00, 0x00
	smpsVcDecayLevel    0x00, 0x01, 0x0F, 0x01
	smpsVcReleaseRate   0x0F, 0x0F, 0x0F, 0x0F
	smpsVcTotalLevel    0x00, 0x27, 0x28, 0x1C

/* 	Voice 0x04 */
/* 	0x1F */
/* 	0x66, 0x31, 0x53, 0x22, 	0x1C, 0x98, 0x1F, 0x1F, 	0x12, 0x0F, 0x0F, 0x0F */
/* 	0x00, 0x00, 0x00, 0x00, 	0xFF, 0x0F, 0x0F, 0x0F, 	0x8C, 0x8D, 0x8A, 0x8B */
	smpsVcAlgorithm     0x07
	smpsVcFeedback      0x03
	smpsVcUnusedBits    0x00
	smpsVcDetune        0x02, 0x05, 0x03, 0x06
	smpsVcCoarseFreq    0x02, 0x03, 0x01, 0x06
	smpsVcRateScale     0x00, 0x00, 0x02, 0x00
	smpsVcAttackRate    0x1F, 0x1F, 0x18, 0x1C
	smpsVcAmpMod        0x00, 0x00, 0x00, 0x00
	smpsVcDecayRate1    0x0F, 0x0F, 0x0F, 0x12
	smpsVcDecayRate2    0x00, 0x00, 0x00, 0x00
	smpsVcDecayLevel    0x00, 0x00, 0x00, 0x0F
	smpsVcReleaseRate   0x0F, 0x0F, 0x0F, 0x0F
	smpsVcTotalLevel    0x0B, 0x0A, 0x0D, 0x0C

