Snd_GumBonus_Header:
	smpsHeaderStartSong 3
	smpsHeaderVoice     Snd_GumBonus_Voices
	smpsHeaderChan      0x06, 0x03
	smpsHeaderTempo     0x01, 0x1E

	smpsHeaderDAC       Snd_GumBonus_DAC
	smpsHeaderFM        Snd_GumBonus_FM1,	0xF4, 0x1A
	smpsHeaderFM        Snd_GumBonus_FM2,	0xF4, 0x09
	smpsHeaderFM        Snd_GumBonus_FM3,	0xF4, 0x1A
	smpsHeaderFM        Snd_GumBonus_FM4,	0xF4, 0x16
	smpsHeaderFM        Snd_GumBonus_FM5,	0xF4, 0x19
	smpsHeaderPSG       Snd_GumBonus_PSG1,	0xDC, 0x03, 0x00, 0x00
	smpsHeaderPSG       Snd_GumBonus_PSG2,	0xE8, 0x03, 0x00, 0x00
	smpsHeaderPSG       Snd_GumBonus_PSG3,	0x00, 0x00, 0x00, sTone_03

/*  FM1 Data */
Snd_GumBonus_FM1:
	smpsPan             panRight, 0x00
	smpsFMAlterVol      0x08
	smpsSetvoice        0x00
	smpsModSet          0x07, 0x01, 0x08, 0x05
	.byte	nRst, 0x01, nA5, 0x06, nC5, nF5, nA5, nB5, nD5, nG5, nB5, nC6
	.byte	nE5, nA5, nC6, nD6, nF5, nB5, nD6, nE6, nG5, nC6, nE6, nF6
	.byte	nA5, nD6, nF6
	smpsFMAlterVol      0xFF
	.byte	nE6
	smpsFMAlterVol      0xFF
	.byte	nD6
	smpsFMAlterVol      0xFF
	.byte	nC6
	smpsFMAlterVol      0xFF
	.byte	nB5
	smpsFMAlterVol      0xFF
	.byte	nA5
	smpsFMAlterVol      0xFF
	.byte	nG5
	smpsFMAlterVol      0xFF
	.byte	nF5
	smpsFMAlterVol      0xFF
	.byte	nD5
	smpsSetvoice        0x01

Snd_GumBonus_Jump05:
	smpsModSet          0x07, 0x01, 0x08, 0x05
	smpsPan             panRight, 0x00
	.byte	nF5, 0x12, 0x03, nBb5, nB5, 0x02, nRst, 0x0A, nF5, 0x05, nRst, 0x07
	.byte	nE5, 0x12, 0x03, nBb5, nB5, 0x02, nRst, 0x0A, nE5, 0x05, nRst, 0x07
	.byte	nEb5, 0x12, 0x03, nBb5, nC6, 0x05, nRst, 0x07, nEb5, 0x05, nRst, 0x07
	.byte	nD5, 0x0D, nRst, 0x05, nD5, 0x0F, nRst, 0x03, nD5, 0x06, nRst, nCs5
	.byte	0x0D, nRst, 0x05, nCs5, 0x0C, nG5, 0x06, nF5, 0x04, nRst, 0x08, nC5
	.byte	0x0D, nRst, 0x05, nC5, 0x0C, nG5, 0x06, nF5, 0x05, nRst, 0x07, nD5
	.byte	0x05, nRst, 0x07, nD5, 0x05, nRst, 0x07, nB4, 0x05, nRst, 0x07, nB4
	.byte	0x05, nRst, 0x07, nC5, 0x23, nRst, 0x0D, nF5, 0x12, 0x03, nBb5, nC6
	.byte	nRst, 0x09, nF5, 0x05, nRst, 0x07, nE5, 0x12, 0x03, nBb5, nB5, 0x02
	.byte	nRst, 0x0A, nE5, 0x05, nRst, 0x07, nEb5, 0x12, 0x03, nBb5, nC6, 0x06
	.byte	nRst, nEb5, 0x05, nRst, 0x07, nD5, 0x0E, nRst, 0x04, nD5, 0x0F, nRst
	.byte	0x03, nD5, 0x06, nRst, nCs5, 0x0E, nRst, 0x04, nCs5, 0x0C, nG5, 0x06
	.byte	nF5, 0x05, nRst, 0x07, nC5, 0x0E, nRst, 0x04, nC5, 0x0C, nG5, 0x06
	.byte	nF5, nRst, nC5, 0x08, nRst, 0x04, nC5, 0x0C, nD5, 0x04, nRst, 0x08
	.byte	nBb4, 0x05, nRst, 0x07, nA4, 0x30
	smpsPan             panLeft, 0x00
	smpsSetvoice        0x02
	smpsModSet          0x07, 0x01, 0x03, 0x05
	smpsAlterPitch      0x0C
	smpsFMAlterVol      0xF6
	.byte	nRst, 0x0C, nD5, 0x18, 0x07, nRst, 0x05, nF5, 0x12, nRst, 0x06, nF5
	.byte	0x11, nRst, 0x07, nE5, 0x12, nRst, 0x06, nE5, 0x0F, nRst, 0x09, nE5
	.byte	0x30, nRst, 0x0C, nD5, 0x12, nRst, 0x06, nD5, nRst, nD5, nRst, nD5
	.byte	nRst, nD5, nRst, nD5, 0x05, nRst, 0x07, nE5, 0x11, nRst, 0x07, nE5
	.byte	0x11, nRst, 0x07, nE5, 0x11, nRst, 0x07, nE5, 0x18, smpsNoAttack, 0x05, nRst
	.byte	0x07, nD5, 0x13, nRst, 0x05, nD5, 0x07, nRst, 0x05, nF5, 0x12, nRst
	.byte	0x06, nF5, 0x10, nRst, 0x08, nE5, 0x11, nRst, 0x07, nE5, 0x0F, nRst
	.byte	0x09, nF5, 0x30, smpsNoAttack, 0x05, nRst, 0x07, nD5, 0x12, nRst, 0x06, nD5
	.byte	nRst, nD5, nRst, nD5, nRst, nD5, nRst, nD5, 0x05, nRst, 0x07, nE5
	.byte	0x08, nRst, 0x10, nE5, 0x18, nE5, 0x18, nE5, 0x18
	smpsAlterPitch      0xF4
	smpsSetvoice        0x01
	smpsFMAlterVol      0x0A
	smpsJump            Snd_GumBonus_Jump05

/*  FM3 Data */
Snd_GumBonus_FM3:
	smpsSetvoice        0x01
	smpsFMAlterVol      0x08
	smpsPan             panLeft, 0x00
	smpsModSet          0x07, 0x01, 0x09, 0x05
	.byte	nA5, 0x06, nC5, nF5, nA5, nB5, nD5, nG5, nB5, nC6, nE5, nA5
	.byte	nC6, nD6, nF5, nB5, nD6, nE6, nG5, nC6, nE6, nF6, nA5, nD6
	.byte	nF6
	smpsFMAlterVol      0xFF
	.byte	nE6
	smpsFMAlterVol      0xFF
	.byte	nD6
	smpsFMAlterVol      0xFF
	.byte	nC6
	smpsFMAlterVol      0xFF
	.byte	nB5
	smpsFMAlterVol      0xFF
	.byte	nA5
	smpsFMAlterVol      0xFF
	.byte	nG5
	smpsFMAlterVol      0xFF
	.byte	nF5
	smpsFMAlterVol      0xFF
	.byte	nD5

Snd_GumBonus_Jump04:
	smpsModSet          0x07, 0x01, 0x09, 0x05
	smpsPan             panLeft, 0x00
	.byte	nA5, 0x12, 0x03, nBb5, nC6, 0x05, nRst, 0x07, nA5, 0x05, nRst, 0x07
	.byte	nA5, 0x12, 0x03, nBb5, nC6, 0x05, nRst, 0x07, nA5, 0x05, nRst, 0x07
	.byte	nA5, 0x12, 0x03, nBb5, nC6, 0x05, nRst, 0x07, nA5, 0x04, nRst, 0x08
	.byte	nG5, 0x0E, nRst, 0x04, nF5, 0x11, nRst, 0x01, nE5, 0x06, nRst, nF5
	.byte	0x0F, nRst, 0x03, nCs5, 0x0C, nG5, 0x06, nF5, 0x04, nRst, 0x08, nF5
	.byte	0x0D, nRst, 0x05, nC5, 0x0C, nG5, 0x06, nF5, 0x05, nRst, 0x07, nF5
	.byte	0x04, nRst, 0x08, nF5, 0x05, nRst, 0x07, nE5, 0x06, nRst, nF5, 0x05
	.byte	nRst, 0x07, nG5, 0x24, nRst, 0x0C, nA5, 0x12, 0x03, nBb5, nC6, nRst
	.byte	0x09, nA5, 0x04, nRst, 0x08, nA5, 0x12, 0x03, nBb5, nC6, 0x05, nRst
	.byte	0x07, nA5, 0x05, nRst, 0x07, nA5, 0x12, 0x03, nBb5, nC6, 0x06, nRst
	.byte	nA5, 0x04, nRst, 0x08, nG5, 0x0F, nRst, 0x03, nF5, 0x11, nRst, 0x01
	.byte	nE5, 0x07, nRst, 0x05, nF5, 0x10, nRst, 0x02, nCs5, 0x0C, nG5, 0x06
	.byte	nF5, 0x05, nRst, 0x07, nF5, 0x0F, nRst, 0x03, nC5, 0x0C, nG5, 0x06
	.byte	nF5, nRst, nE5, 0x0C, nC5, nD5, 0x04, nRst, 0x08, nE5, 0x06, nRst
	.byte	nF5, 0x30
	smpsPan             panRight, 0x00
	smpsSetvoice        0x02
	smpsModSet          0x07, 0x01, 0x03, 0x05
	smpsAlterPitch      0x0C
	smpsFMAlterVol      0xF6
	.byte	nRst, 0x0C, nD5, 0x18, 0x07, nRst, 0x05, nF5, 0x12, nRst, 0x06, nF5
	.byte	0x11, nRst, 0x07, nE5, 0x12, nRst, 0x06, nE5, 0x0F, nRst, 0x09, nE5
	.byte	0x30, nRst, 0x0C, nD5, 0x12, nRst, 0x06, nD5, nRst, nD5, nRst, nD5
	.byte	nRst, nD5, nRst, nD5, 0x05, nRst, 0x07, nE5, 0x11, nRst, 0x07, nE5
	.byte	0x11, nRst, 0x07, nE5, 0x11, nRst, 0x07, nE5, 0x18, smpsNoAttack, 0x05, nRst
	.byte	0x07, nD5, 0x13, nRst, 0x05, nD5, 0x07, nRst, 0x05, nF5, 0x12, nRst
	.byte	0x06, nF5, 0x10, nRst, 0x08, nE5, 0x11, nRst, 0x07, nE5, 0x0F, nRst
	.byte	0x09, nF5, 0x30, smpsNoAttack, 0x05, nRst, 0x07, nD5, 0x12, nRst, 0x06, nD5
	.byte	nRst, nD5, nRst, nD5, nRst, nD5, nRst, nD5, 0x05, nRst, 0x07, nE5
	.byte	0x08, nRst, 0x10, nE5, 0x18, nE5, 0x18, nE5, 0x18
	smpsAlterPitch      0xF4
	smpsSetvoice        0x01
	smpsFMAlterVol      0x0A
	smpsJump            Snd_GumBonus_Jump04

/*  FM2 Data */
Snd_GumBonus_FM2:
	smpsSetvoice        0x03
	smpsPan             panCenter, 0x00
	.byte	nF4, 0x18, nG4, nA4, nB4, nC5, nD5, nRst, 0x06, nC5, nB4, 0x0C
	.byte	nA4, nG4

Snd_GumBonus_Jump03:
	.byte	nF4, 0x09, nRst, 0x03, nF5, 0x05, nRst, 0x07, nF4, 0x0A, nRst, 0x02
	.byte	nF5, 0x07, nRst, 0x05, nE4, 0x0C, nE5, 0x06, nE4, 0x07, nRst, 0x05
	.byte	nE4, 0x06, nE5, 0x07, nRst, 0x05, nEb4, 0x0B, nRst, 0x01, nEb5, 0x06
	.byte	nRst, nEb4, 0x0B, nRst, 0x01, nEb5, 0x06, nRst, nD4, 0x0A, nRst, 0x02
	.byte	nD5, 0x06, nD4, nRst, nD4, nD5, 0x07, nRst, 0x05, nCs4, 0x0C, nCs5
	.byte	0x07, nRst, 0x05, nCs4, 0x0B, nRst, 0x01, nCs5, 0x06, nRst, nC4, 0x0A
	.byte	nRst, 0x02, nC5, 0x06, nC4, nRst, nC4, nC5, 0x09, nRst, 0x03, nD4
	.byte	0x0B, nRst, 0x01, nD5, 0x07, nRst, 0x05, nD4, 0x0C, nD5, 0x04, nRst
	.byte	0x02, nD5, 0x06, nRst, nC5, nC4, 0x07, nRst, 0x05, nD4, 0x06, nRst
	.byte	nE4, nRst, nF4, 0x0A, nRst, 0x02, nF5, 0x05, nRst, 0x07, nF4, 0x0C
	.byte	nF5, 0x07, nRst, 0x05, nE4, 0x0C, nE5, 0x06, nE4, nRst, nE4, nE5
	.byte	0x08, nRst, 0x04, nEb4, 0x0B, nRst, 0x01, nEb5, 0x06, nRst, nEb4, 0x0C
	.byte	nEb5, 0x06, nRst, nD4, 0x0A, nRst, 0x02, nD5, 0x06, nD4, nRst, nD4
	.byte	nD5, 0x08, nRst, 0x04, nCs4, 0x0A, nRst, 0x02, nCs5, 0x06, nRst, nCs4
	.byte	0x0B, nRst, 0x01, nCs5, 0x06, nRst, nC4, 0x0B, nRst, 0x01, nC5, 0x06
	.byte	nC4, 0x07, nRst, 0x05, nC4, 0x06, nC5, nRst, nC5, nRst, nC4, nRst
	.byte	nD4, nRst, nE4, 0x05, nRst, 0x07, nF4, 0x06, nRst, nC4, 0x05, nRst
	.byte	0x07, nA3, 0x06, nRst, nF3, 0x07, nRst, 0x05, nBb3, 0x0C, nBb4, 0x05
	.byte	nRst, 0x07, nBb3, 0x0C, nBb4, 0x05, nRst, 0x01, nBb3, 0x06, nRst, nBb3
	.byte	nC4, 0x08, nRst, 0x04, nD4, 0x06, nRst, nF4, 0x05, nRst, 0x07, nA3
	.byte	0x0A, nRst, 0x02, nA4, 0x06, nRst, nA3, 0x07, nRst, 0x05, nA4, 0x06
	.byte	nA3, nRst, nA3, nBb3, nRst, nC4, 0x07, nRst, 0x05, nE4, 0x06, nRst
	.byte	nG3, 0x09, nRst, 0x03, nG4, 0x06, nRst, nG3, 0x0A, nRst, 0x02, nG4
	.byte	0x06, nG3, nRst, nG3, nA3, nRst, nB3, 0x09, nRst, 0x03, nD4, 0x06
	.byte	nRst, nC4, 0x0C, nC5, 0x06, nRst, nC4, 0x08, nRst, 0x04, nC5, 0x06
	.byte	nC4, nRst, nC4, nD4, nRst, nE4, 0x07, nRst, 0x05, nG4, 0x06, nRst
	.byte	nBb3, 0x08, nRst, 0x04, nBb4, 0x06, nRst, nBb3, 0x0B, nRst, 0x01, nBb4
	.byte	0x05, nRst, 0x01, nBb3, 0x06, nRst, nBb3, nC4, 0x08, nRst, 0x04, nD4
	.byte	0x06, nRst, nF4, nRst, nA3, 0x0C, nA4, 0x06, nRst, nA3, 0x0C, nA4
	.byte	0x06, nRst, nD4, 0x05, nRst, 0x07, nD4, nRst, 0x05, nE4, 0x07, nRst
	.byte	0x05, nF4, 0x07, nRst, 0x05, nG4, 0x07, nRst, 0x05, nG3, 0x12, nRst
	.byte	0x06, nG3, nRst, nG3, 0x07, nRst, 0x05, nG3, 0x06, nRst, nA3, 0x07
	.byte	nRst, 0x05, nB3, 0x06, nRst, nC4, nRst, 0x12, nE4, 0x0D, nRst, 0x0B
	.byte	nG4, 0x0E, nRst, 0x0A, nC5, 0x12, nRst, 0x06
	smpsJump            Snd_GumBonus_Jump03

/*  FM4 Data */
Snd_GumBonus_FM4:
	smpsSetvoice        0x00
	smpsFMAlterVol      0xFB
	smpsPan             panCenter, 0x00
	smpsModSet          0x07, 0x01, 0x05, 0x05
	.byte	nC6, 0x06, nF5, nA5, nC6, nD6, nG5, nB5, nD6, nE6, nA5, nC6
	.byte	nE6, nF6, nB5, nD6, nF6, nG6, nC6, nE6, nG6, nA6, nD6, nF6
	.byte	nA6, nG5, nA5, nB5, nC6, nD6, nE6, nF6, nG6
	smpsFMAlterVol      0x05

Snd_GumBonus_Jump02:
	.byte	nF5, 0x18, nG5, 0x0C, nF5, nE5, 0x18, nF5, 0x0C, nE5, nEb5, 0x18
	.byte	nF5, 0x0C, nEb5, 0x0B, nRst, 0x01, nD5, 0x18, nE5, 0x0C, nD5, 0x0B
	.byte	nRst, 0x01, nCs5, 0x18, nRst, 0x06, nEb5, nCs5, 0x0B, nRst, 0x01, nC5
	.byte	0x19, nRst, 0x05, nD5, 0x06, nC5, 0x0C, nF5, 0x18, nD5, 0x16, nRst
	.byte	0x02, nC5, 0x18, nD5, 0x0C, nE5, 0x0B, nRst, 0x01, nF5, 0x18, nG5
	.byte	0x0C, nF5, nE5, 0x18, nF5, 0x0C, nE5, nEb5, 0x18, nF5, 0x0C, nEb5
	.byte	0x0B, nRst, 0x01, nD5, 0x18, nE5, 0x0C, nD5, nCs5, 0x1A, nRst, 0x04
	.byte	nEb5, 0x06, nCs5, 0x0B, nRst, 0x01, nC5, 0x19, nRst, 0x05, nD5, 0x06
	.byte	nC5, 0x0C, nG5, nF5, nE5, nC5, nF5, nC5, nA4, nF4, 0x0B, nRst
	.byte	0x01, nBb4, 0x30, nD5, 0x12, nC5, nBb4, 0x0C, nA4, 0x2F, nRst, 0x01
	.byte	nC5, 0x12, nBb4, 0x11, nRst, 0x01, nA4, 0x0C, nG4, 0x30, 0x0C, nB4
	.byte	nC5, nD5, 0x0A, nRst, 0x02, nC5, 0x17, nRst, 0x01, nD5, 0x18, nE5
	.byte	nG5, nBb4, 0x2F, nRst, 0x01, nD5, 0x0C, nC5, nBb4, nD5, nCs5, 0x18
	.byte	nA4, 0x17, nRst, 0x01, nD5, 0x18, nC5, 0x17, nRst, 0x01, nB4, 0x18
	.byte	nG4, 0x17, nRst, 0x01, nA4, 0x18, nB4, nC5, nE5, 0x16, nRst, 0x02
	.byte	nG5, 0x18, nBb5, 0x17, nRst, 0x01
	smpsJump            Snd_GumBonus_Jump02

/*  FM5 Data */
Snd_GumBonus_FM5:
	smpsPan             panCenter, 0x00
	.byte	nRst, 0x30, nRst, nRst, nRst

Snd_GumBonus_Jump01:
	smpsSetvoice        0x01
	.byte	nF3, 0x03, nRst, 0x09, nF4, 0x04, nRst, 0x08, nF3, 0x04, nRst, 0x08
	.byte	nF4, 0x03, nRst, 0x09, nE3, 0x04, nRst, 0x08, nE4, 0x04, nRst, 0x08
	.byte	nE3, 0x04, nRst, 0x08, nE4, 0x04, nRst, 0x08, nEb3, 0x03, nRst, 0x09
	.byte	nEb4, 0x04, nRst, 0x08, nEb3, 0x04, nRst, 0x08, nEb4, 0x04, nRst, 0x08
	.byte	nD3, 0x03, nRst, 0x09, nD4, 0x04, nRst, 0x08, nD3, 0x05, nRst, 0x07
	.byte	nD4, 0x04, nRst, 0x08, nCs3, 0x03, nRst, 0x09, nCs4, 0x04, nRst, 0x08
	.byte	nCs3, 0x03, nRst, 0x09, nCs4, 0x03, nRst, 0x09, nC3, 0x03, nRst, 0x09
	.byte	nC4, 0x03, nRst, 0x09, nC3, 0x03, nRst, 0x09, nC4, 0x04, nRst, 0x08
	.byte	nD3, 0x03, nRst, 0x09, nD4, 0x04, nRst, 0x08, nD3, 0x04, nRst, 0x08
	.byte	nD4, 0x04, nRst, 0x08, nRst, 0x06, nC4, 0x05, nRst, 0x01, nC3, 0x04
	.byte	nRst, 0x08, nD3, 0x04, nRst, 0x08, nE3, 0x03, nRst, 0x09, nF3, 0x03
	.byte	nRst, 0x09, nF4, 0x04, nRst, 0x08, nF3, 0x03, nRst, 0x09, nF4, 0x03
	.byte	nRst, 0x09, nE3, 0x02, nRst, 0x0A, nE4, 0x03, nRst, 0x09, nE3, 0x03
	.byte	nRst, 0x09, nE4, 0x03, nRst, 0x09, nEb3, 0x03, nRst, 0x09, nEb4, 0x03
	.byte	nRst, 0x09, nEb3, 0x03, nRst, 0x09, nEb4, 0x03, nRst, 0x09, nD3, 0x03
	.byte	nRst, 0x09, nD4, 0x03, nRst, 0x09, nD3, 0x04, nRst, 0x08, nD4, 0x04
	.byte	nRst, 0x08, nCs3, 0x02, nRst, 0x0A, nCs4, 0x03, nRst, 0x09, nCs3, 0x03
	.byte	nRst, 0x09, nCs4, 0x03, nRst, 0x09, nC3, 0x04, nRst, 0x08, nC4, 0x04
	.byte	nRst, 0x08, nC3, 0x04, nRst, 0x08, nC4, 0x03, nRst, 0x09, nRst, 0x06
	.byte	nG3, 0x05, nRst, 0x01, nC3, 0x03, nRst, 0x09, nD3, 0x05, nRst, 0x07
	.byte	nE3, 0x04, nRst, 0x08, nF3, 0x02, nRst, 0x0A, nC3, 0x04, nRst, 0x08
	.byte	nA2, 0x04, nRst, 0x08, nF2, 0x03, nRst, 0x09
	smpsSetvoice        0x00
	smpsModSet          0x07, 0x01, 0x07, 0x05
	smpsFMAlterVol      0xF4
	.byte	nRst, 0x0C, nD5, 0x18, nF5, 0x06, nRst, nBb5, 0x13, nRst, 0x05, nD6
	.byte	0x0F, nRst, 0x09, nC6, 0x10, nRst, 0x08, nA5, 0x0E, nRst, 0x0A, nC6
	.byte	0x30, nRst, 0x0C, nB5, 0x11, nRst, 0x07, nB5, 0x06, nRst, nB5, 0x05
	.byte	nRst, 0x07, nG5, 0x06, nRst, nA5, 0x05, nRst, 0x07, nB5, 0x06, nRst
	.byte	nC6, 0x10, nRst, 0x08, nBb5, 0x11, nRst, 0x07, nA5, 0x12, nRst, 0x06
	.byte	nG5, 0x18, smpsNoAttack, 0x05, nRst, 0x07, nD5, 0x13, nRst, 0x05, nF5, 0x06
	.byte	nRst, nBb5, 0x12, nRst, 0x06, nD6, 0x10, nRst, 0x08, nCs6, 0x10, nRst
	.byte	0x08, nA5, 0x11, nRst, 0x07, nD6, 0x30, smpsNoAttack, 0x04, nRst, 0x08, nB5
	.byte	0x12, nRst, 0x06, nB5, 0x05, nRst, 0x07, nB5, 0x05, nRst, 0x07, nG5
	.byte	0x05, nRst, 0x07, nA5, 0x05, nRst, 0x07, nB5, 0x06, nRst, nC6, 0x08
	.byte	nRst, 0x10, nBb5, 0x18, nA5, 0x18, nG5, 0x18
	smpsFMAlterVol      0x0C
	smpsModSet          0x00, 0x00, 0x00, 0x00
	smpsJump            Snd_GumBonus_Jump01

/*  PSG1 Data */
Snd_GumBonus_PSG1:
	smpsPSGvoice        0x00
	.byte	nRst, 0x02, nA5, 0x06, nC5, nF5, nA5, nB5, nD5, nG5, nB5, nC6
	.byte	nE5, nA5, nC6, nD6, nF5, nB5, nD6, nE6, nG5, nC6, nE6, nF6
	.byte	nA5, nD6, nF6, nE6, nD6, nC6, nB5, nA5, nG5, nF5, nD5

Snd_GumBonus_Jump08:
	.byte	nF5, 0x12, 0x03, nBb5, nC6, 0x02, nRst, 0x0A, nF5, 0x05, nRst, 0x07
	.byte	nE5, 0x12, 0x03, nBb5, nC6, 0x02, nRst, 0x0A, nE5, 0x05, nRst, 0x07
	.byte	nEb5, 0x12, 0x03, nBb5, nC6, 0x05, nRst, 0x07, nEb5, 0x05, nRst, 0x07
	.byte	nD5, 0x0D, nRst, 0x05, nD5, 0x0F, nRst, 0x03, nD5, 0x06, nRst, nCs5
	.byte	0x0D, nRst, 0x05, nCs5, 0x0C, nG5, 0x06, nF5, 0x04, nRst, 0x08, nC5
	.byte	0x0D, nRst, 0x05, nC5, 0x0C, nG5, 0x06, nF5, 0x05, nRst, 0x07, nD5
	.byte	0x05, nRst, 0x07, nD5, 0x05, nRst, 0x07, nB4, 0x05, nRst, 0x07, nB4
	.byte	0x05, nRst, 0x07, nC5, 0x23, nRst, 0x0D, nF5, 0x12, 0x03, nBb5, nC6
	.byte	nRst, 0x09, nF5, 0x05, nRst, 0x07, nE5, 0x12, 0x03, nBb5, nC6, 0x02
	.byte	nRst, 0x0A, nE5, 0x05, nRst, 0x07, nEb5, 0x12, 0x03, nBb5, nC6, 0x06
	.byte	nRst, nEb5, 0x05, nRst, 0x07, nD5, 0x0E, nRst, 0x04, nD5, 0x0F, nRst
	.byte	0x03, nD5, 0x06, nRst, nCs5, 0x0E, nRst, 0x04, nCs5, 0x0C, nG5, 0x06
	.byte	nF5, 0x05, nRst, 0x07, nC5, 0x0E, nRst, 0x04, nC5, 0x0C, nG5, 0x06
	.byte	nF5, nRst, nC5, 0x08, nRst, 0x04, nC5, 0x0C, nD5, 0x04, nRst, 0x08
	.byte	nBb4, 0x05, nRst, 0x07, nA4, 0x30
	smpsPSGvoice        sTone_09
	smpsPSGAlterVol     0xFF
	.byte	nF5, 0x05, nRst, 0x07, nBb5, 0x06, nRst, nD6, 0x05, nRst, 0x07, nBb5
	.byte	0x06, nRst, nF6, 0x05, nRst, 0x07, nBb5, 0x06, nRst, nD6, nRst, nF6
	.byte	nRst, nF5, nRst, nA5, nRst, nC6, nRst, nA5, 0x07, nRst, 0x05, nF6
	.byte	nRst, 0x07, nC6, 0x06, nRst, nA5, nRst, nC6, 0x05, nRst, 0x07, nG5
	.byte	0x06, nRst, nB5, nRst, nD6, 0x05, nRst, 0x07, nB5, nRst, 0x05, nG6
	.byte	0x06, nRst, nB5, nRst, nD6, nRst, nG6, 0x05, nRst, 0x07, nE5, 0x05
	.byte	nRst, 0x07, nG5, 0x06, nRst, nC6, 0x05, nRst, 0x07, nD6, 0x06, nRst
	.byte	nE6, nRst, nD6, 0x05, nRst, 0x07, nC6, 0x05, nRst, 0x07, nBb5, 0x05
	.byte	nRst, 0x07, nF5, 0x05, nRst, 0x07, nBb5, 0x06, nRst, nD6, nRst, nBb5
	.byte	nRst, nF6, 0x05, nRst, 0x07, nD6, nRst, 0x05, nBb5, 0x06, nRst, nD6
	.byte	0x05, nRst, 0x07, nE5, 0x06, nRst, nA5, nRst, nCs6, nRst, nE6, 0x05
	.byte	nRst, 0x07, nD6, 0x05, nRst, 0x07, nA5, 0x06, nRst, nF5, 0x07, nRst
	.byte	0x05, nD5, 0x04, nRst, 0x08, nD5, 0x05, nRst, 0x07, nD5, 0x05, nRst
	.byte	0x07, nG5, 0x05, nRst, 0x07, nB5, 0x05, nRst, 0x07, nD6, 0x06, nRst
	.byte	nG5, 0x05, nRst, 0x07, nB5, 0x06, nRst, nD6, 0x05, nRst, 0x07, nG5
	.byte	0x06, nRst, 0x12, nG5, 0x18, nF5, 0x18, nE5, 0x18
	smpsPSGAlterVol     0x01
	smpsPSGvoice        0x00
	smpsJump            Snd_GumBonus_Jump08

/*  PSG2 Data */
Snd_GumBonus_PSG2:
	smpsPSGvoice        0x00
	.byte	nRst, 0x03, nA5, 0x06, nC5, nF5, nA5, nB5, nD5, nG5, nB5, nC6
	.byte	nE5, nA5, nC6, nD6, nF5, nB5, nD6, nE6, nG5, nC6, nE6, nF6
	.byte	nA5, nD6, nF6, nE6, nD6, nC6, nB5, nA5, nG5, nF5, nD5

Snd_GumBonus_Jump07:
	.byte	nA5, 0x12, 0x03, nBb5, nC6, 0x05, nRst, 0x07, nA5, 0x05, nRst, 0x07
	.byte	nA5, 0x12, 0x03, nBb5, nC6, 0x05, nRst, 0x07, nA5, 0x05, nRst, 0x07
	.byte	nA5, 0x12, 0x03, nBb5, nC6, 0x05, nRst, 0x07, nA5, 0x04, nRst, 0x08
	.byte	nG5, 0x0E, nRst, 0x04, nF5, 0x11, nRst, 0x01, nE5, 0x06, nRst, nF5
	.byte	0x0F, nRst, 0x03, nCs5, 0x0C, nG5, 0x06, nF5, 0x04, nRst, 0x08, nF5
	.byte	0x0D, nRst, 0x05, nC5, 0x0C, nG5, 0x06, nF5, 0x05, nRst, 0x07, nF5
	.byte	0x04, nRst, 0x08, nF5, 0x05, nRst, 0x07, nE5, 0x06, nRst, nF5, 0x05
	.byte	nRst, 0x07, nG5, 0x24, nRst, 0x0C, nA5, 0x12, 0x03, nBb5, nC6, nRst
	.byte	0x09, nA5, 0x04, nRst, 0x08, nA5, 0x12, 0x03, nBb5, nC6, 0x05, nRst
	.byte	0x07, nA5, 0x05, nRst, 0x07, nA5, 0x12, 0x03, nBb5, nC6, 0x06, nRst
	.byte	nA5, 0x04, nRst, 0x08, nG5, 0x0F, nRst, 0x03, nF5, 0x11, nRst, 0x01
	.byte	nE5, 0x07, nRst, 0x05, nF5, 0x10, nRst, 0x02, nCs5, 0x0C, nG5, 0x06
	.byte	nF5, 0x05, nRst, 0x07, nF5, 0x0F, nRst, 0x03, nC5, 0x0C, nG5, 0x06
	.byte	nF5, nRst, nE5, 0x0C, nC5, nD5, 0x04, nRst, 0x08, nE5, 0x06, nRst
	.byte	nF5, 0x30
	smpsPSGvoice        sTone_09
	smpsPSGAlterVol     0xFF
	.byte	nBb4, 0x05, nRst, 0x07, nD5, 0x06, nRst, nF5, 0x05, nRst, 0x07, nD5
	.byte	0x06, nRst, nBb5, 0x05, nRst, 0x07, nD5, 0x06, nRst, nF5, nRst, nBb5
	.byte	nRst, nA4, nRst, nC5, nRst, nF5, nRst, nC5, 0x07, nRst, 0x05, nA5
	.byte	nRst, 0x07, nC5, 0x06, nRst, nF5, nRst, nA5, 0x05, nRst, 0x07, nG4
	.byte	0x06, nRst, nB4, nRst, nD5, 0x05, nRst, 0x07, nB4, nRst, 0x05, nG5
	.byte	0x06, nRst, nB4, nRst, nD5, nRst, nG5, 0x05, nRst, 0x07, nC5, 0x05
	.byte	nRst, 0x07, nE5, 0x06, nRst, nG5, 0x05, nRst, 0x07, nE5, 0x06, nRst
	.byte	nC6, nRst, nBb5, 0x05, nRst, 0x07, nA5, 0x05, nRst, 0x07, nG5, 0x05
	.byte	nRst, 0x07, nBb4, 0x05, nRst, 0x07, nD5, 0x06, nRst, nF5, nRst, nD5
	.byte	nRst, nBb5, 0x05, nRst, 0x07, nD5, nRst, 0x05, nF5, 0x06, nRst, nBb5
	.byte	0x05, nRst, 0x07, nA4, 0x06, nRst, nCs5, nRst, nE5, nRst, nA5, 0x05
	.byte	nRst, 0x07, nD5, 0x05, nRst, 0x07, nF5, 0x06, nRst, nA5, 0x07, nRst
	.byte	0x05, nD6, 0x04, nRst, 0x08, nG5, 0x05, nRst, 0x07, nG4, 0x05, nRst
	.byte	0x07, nB4, 0x05, nRst, 0x07, nD5, 0x05, nRst, 0x07, nG5, 0x06, nRst
	.byte	nD5, 0x05, nRst, 0x07, nG5, 0x06, nRst, nB5, 0x05, nRst, 0x07, nC5
	.byte	0x06, nRst, 0x12, nC5, 0x18, nD5, 0x18, nE5, 0x18
	smpsPSGAlterVol     0x01
	smpsPSGvoice        0x00
	smpsJump            Snd_GumBonus_Jump07

/*  PSG3 Data */
Snd_GumBonus_PSG3:
	smpsPSGform         0xE7
	smpsPSGvoice        sTone_02
	.byte	nMaxPSG2, 0x18, nMaxPSG2, nMaxPSG2, nMaxPSG2, nMaxPSG2, nMaxPSG2
	smpsPSGvoice        sTone_01
	.byte	nMaxPSG2, 0x0C
	smpsPSGvoice        sTone_02
	.byte	nMaxPSG2, 0x0C, nMaxPSG2, nMaxPSG2

Snd_GumBonus_Jump06:
	.byte	nRst, nMaxPSG2
	smpsPSGvoice        sTone_01
	.byte	nMaxPSG2
	smpsPSGvoice        sTone_02
	.byte	nMaxPSG2
	smpsPSGvoice        sTone_01
	.byte	nMaxPSG2
	smpsPSGvoice        sTone_02
	.byte	nMaxPSG2
	smpsPSGvoice        sTone_01
	.byte	nMaxPSG2
	smpsPSGvoice        sTone_01
	.byte	nMaxPSG2
	smpsPSGvoice        sTone_01
	.byte	nMaxPSG2
	smpsPSGvoice        sTone_02
	.byte	nMaxPSG2
	smpsPSGvoice        sTone_01
	.byte	nMaxPSG2
	smpsPSGvoice        sTone_02
	.byte	nMaxPSG2
	smpsPSGvoice        sTone_01
	.byte	nMaxPSG2
	smpsPSGvoice        sTone_02
	.byte	nMaxPSG2
	smpsPSGvoice        sTone_01
	.byte	nMaxPSG2
	smpsPSGvoice        sTone_02
	.byte	nMaxPSG2
	smpsPSGvoice        sTone_01
	.byte	nMaxPSG2
	smpsPSGvoice        sTone_02
	.byte	nMaxPSG2
	smpsPSGvoice        sTone_01
	.byte	nMaxPSG2, nMaxPSG2, nRst, nMaxPSG2, 0x18, 0x0C, nMaxPSG2
	smpsPSGvoice        sTone_02
	.byte	nMaxPSG2
	smpsPSGvoice        sTone_01
	.byte	nMaxPSG2
	smpsPSGvoice        sTone_02
	.byte	nMaxPSG2
	smpsPSGvoice        sTone_01
	.byte	nMaxPSG2
	smpsPSGvoice        sTone_02
	.byte	nMaxPSG2
	smpsPSGvoice        sTone_01
	.byte	nMaxPSG2, 0x18, nRst, 0x0C
	smpsPSGvoice        sTone_01
	.byte	nMaxPSG2, 0x18, 0x0C, nMaxPSG2
	smpsPSGvoice        sTone_02
	.byte	nMaxPSG2
	smpsPSGvoice        sTone_01
	.byte	nMaxPSG2
	smpsPSGvoice        sTone_02
	.byte	nMaxPSG2
	smpsPSGvoice        sTone_01
	.byte	nMaxPSG2
	smpsPSGvoice        sTone_02
	.byte	nMaxPSG2
	smpsPSGvoice        sTone_01
	.byte	nMaxPSG2
	smpsPSGvoice        sTone_02
	.byte	nMaxPSG2
	smpsPSGvoice        sTone_01
	.byte	nMaxPSG2
	smpsPSGvoice        sTone_02
	.byte	nMaxPSG2
	smpsPSGvoice        sTone_01
	.byte	nMaxPSG2
	smpsPSGvoice        sTone_02
	.byte	nMaxPSG2
	smpsPSGvoice        sTone_01
	.byte	nMaxPSG2
	smpsPSGvoice        sTone_02
	.byte	nMaxPSG2
	smpsPSGvoice        sTone_01
	.byte	nMaxPSG2, nMaxPSG2, nRst, nMaxPSG2, 0x18, 0x0C
	smpsPSGvoice        sTone_01
	.byte	nMaxPSG2
	smpsPSGvoice        sTone_02
	.byte	nMaxPSG2
	smpsPSGvoice        sTone_01
	.byte	nMaxPSG2
	smpsPSGvoice        sTone_02
	.byte	nMaxPSG2, nMaxPSG2
	smpsPSGvoice        sTone_01
	.byte	nMaxPSG2, nMaxPSG2
	smpsPSGvoice        sTone_02
	.byte	nMaxPSG2
	smpsPSGvoice        sTone_01
	.byte	nMaxPSG2, nMaxPSG2, 0x18
	smpsPSGvoice        sTone_02
	.byte	nMaxPSG2, 0x0C
	smpsPSGvoice        sTone_01
	.byte	nMaxPSG2
	smpsPSGvoice        sTone_02
	.byte	nMaxPSG2
	smpsPSGvoice        sTone_01
	.byte	nMaxPSG2
	smpsPSGvoice        sTone_02
	.byte	nMaxPSG2
	smpsPSGvoice        sTone_01
	.byte	nMaxPSG2
	smpsPSGvoice        sTone_02
	.byte	nMaxPSG2
	smpsPSGvoice        sTone_01
	.byte	nMaxPSG2
	smpsPSGvoice        sTone_02
	.byte	nMaxPSG2
	smpsPSGvoice        sTone_01
	.byte	nMaxPSG2
	smpsPSGvoice        sTone_02
	.byte	nMaxPSG2
	smpsPSGvoice        sTone_01
	.byte	nMaxPSG2
	smpsPSGvoice        sTone_02
	.byte	nMaxPSG2
	smpsPSGvoice        sTone_01
	.byte	nMaxPSG2, nMaxPSG2, 0x18
	smpsPSGvoice        sTone_02
	.byte	nMaxPSG2, 0x0C
	smpsPSGvoice        sTone_01
	.byte	nMaxPSG2, nMaxPSG2, 0x18
	smpsPSGvoice        sTone_02
	.byte	nMaxPSG2, 0x0C, nRst, 0x30
	smpsPSGvoice        sTone_02
	.byte	nMaxPSG2, 0x0C
	smpsPSGvoice        sTone_01
	.byte	nMaxPSG2
	smpsPSGvoice        sTone_02
	.byte	nMaxPSG2
	smpsPSGvoice        sTone_01
	.byte	nMaxPSG2, nMaxPSG2, nMaxPSG2, 0x18
	smpsPSGvoice        sTone_02
	.byte	nMaxPSG2, 0x0C
	smpsPSGvoice        sTone_01
	.byte	nMaxPSG2
	smpsPSGvoice        sTone_02
	.byte	nMaxPSG2
	smpsPSGvoice        sTone_01
	.byte	nMaxPSG2
	smpsPSGvoice        sTone_02
	.byte	nMaxPSG2
	smpsPSGvoice        sTone_01
	.byte	nMaxPSG2, 0x18, nMaxPSG2, nMaxPSG2, nMaxPSG2, nMaxPSG2, 0x0C
	smpsPSGvoice        sTone_02
	.byte	nMaxPSG2
	smpsPSGvoice        sTone_01
	.byte	nMaxPSG2
	smpsPSGvoice        sTone_02
	.byte	nMaxPSG2
	smpsPSGvoice        sTone_01
	.byte	nMaxPSG2
	smpsPSGvoice        sTone_02
	.byte	nMaxPSG2
	smpsPSGvoice        sTone_01
	.byte	nMaxPSG2
	smpsPSGvoice        sTone_02
	.byte	nMaxPSG2
	smpsPSGvoice        sTone_01
	.byte	nMaxPSG2
	smpsPSGvoice        sTone_02
	.byte	nMaxPSG2
	smpsPSGvoice        sTone_01
	.byte	nMaxPSG2
	smpsPSGvoice        sTone_02
	.byte	nMaxPSG2, nRst, 0x18
	smpsPSGvoice        sTone_01
	.byte	nMaxPSG2
	smpsJump            Snd_GumBonus_Jump06

/*  DAC Data */
Snd_GumBonus_DAC:
	.byte	dKickS3, 0x18, dKickS3, dKickS3, dKickS3, dKickS3, dKickS3, 0x0C, dSnareS3, nRst, 0x06, dSnareS3
	.byte	dKickS3, dSnareS3, dSnareS3, 0x0C, dSnareS3

Snd_GumBonus_Jump00:
	.byte	dCrashCymbal, 0x0C, dSnareS3, dKickS3, dSnareS3, dKickS3, dSnareS3, dKickS3, dSnareS3, dKickS3, dSnareS3, dKickS3
	.byte	dSnareS3, dKickS3, dSnareS3, dKickS3, dSnareS3, dCrashCymbal, dSnareS3, dKickS3, 0x06, dSnareS3, dSnareS3, 0x0C
	.byte	dCrashCymbal, dSnareS3, 0x06, dSnareS3, dKickS3, 0x0C, dSnareS3, dKickS3, dSnareS3, 0x06, dSnareS3, dKickS3
	.byte	0x0C, dSnareS3, 0x06, dSnareS3, dKickS3, dSnareS3, 0x0C, 0x06, dKickS3, dSnareS3, dClapS3, 0x0C
	.byte	dCrashCymbal, 0x0C, dSnareS3, dKickS3, dSnareS3, dKickS3, dSnareS3, dKickS3, dSnareS3, dKickS3, dSnareS3, dKickS3
	.byte	dSnareS3, dKickS3, dSnareS3, dKickS3, dSnareS3, dCrashCymbal, dSnareS3, dKickS3, 0x06, dSnareS3, dSnareS3, 0x0C
	.byte	dCrashCymbal, dSnareS3, 0x06, dSnareS3, dKickS3, 0x0C, dSnareS3, dKickS3, dSnareS3, 0x06, dSnareS3, dKickS3
	.byte	dSnareS3, dSnareS3, dSnareS3, dMuffledSnare, dSnareS3, 0x0C, 0x06, dMuffledSnare, dSnareS3, dMuffledSnare, dSnareS3, dKickS3
	.byte	0x0C, dCrashCymbal, dKickS3, 0x06, dKickS3, dSnareS3, 0x0C, dKickS3, 0x06, dKickS3, dSnareS3, dKickS3
	.byte	0x0C, 0x06, dSnareS3, 0x0C, dKickS3, dSnareS3, dKickS3, 0x06, dKickS3, dSnareS3, 0x0C, dKickS3
	.byte	0x06, dKickS3, dSnareS3, dKickS3, 0x0C, 0x06, dSnareS3, 0x0C, dCrashCymbal, dSnareS3, dKickS3, 0x06
	.byte	0x0C, dSnareS3, 0x06, dCrashCymbal, 0x0C, dSnareS3, dKickS3, 0x06, dKickS3, dSnareS3, dSnareS3, dMuffledSnare
	.byte	0x0C, dSnareS3, dMuffledSnare, dSnareS3, dElectricHighTom, 0x06, dElectricMidTom, dElectricLowTom, dElectricFloorTom, dSnareS3, dSnareS3, dSnareS3
	.byte	dSnareS3, dKickS3, 0x0C, dCrashCymbal, dKickS3, 0x06, dKickS3, dSnareS3, 0x0C, dKickS3, 0x06, dKickS3
	.byte	dSnareS3, dKickS3, 0x0C, 0x06, dSnareS3, 0x0C, dKickS3, dCrashCymbal, dKickS3, dCrashCymbal, dKickS3, dCrashCymbal
	.byte	dKickS3, dCrashCymbal, dKickS3, dSnareS3, dKickS3, dSnareS3, dSnareS3, 0x06, 0x0C, dElectricHighTom, 0x06, dSnareS3
	.byte	dElectricLowTom, dSnareS3, dElectricFloorTom, dMuffledSnare, dSnareS3, 0x0C, 0x06, dMuffledSnare, 0x0C, dSnareS3, dCrashCymbal, dClapS3
	.byte	dClapS3, dClapS3
	smpsJump            Snd_GumBonus_Jump00

Snd_GumBonus_Voices:
/* 	Voice 0x00 */
/* 	0x3C */
/* 	0x01, 0x02, 0x0F, 0x04, 	0x8D, 0x52, 0x9F, 0x1F, 	0x09, 0x00, 0x00, 0x0D */
/* 	0x00, 0x00, 0x00, 0x00, 	0x23, 0x08, 0x02, 0xF7, 	0x15, 0x80, 0x1D, 0x87 */
	smpsVcAlgorithm     0x04
	smpsVcFeedback      0x07
	smpsVcUnusedBits    0x00
	smpsVcDetune        0x00, 0x00, 0x00, 0x00
	smpsVcCoarseFreq    0x04, 0x0F, 0x02, 0x01
	smpsVcRateScale     0x00, 0x02, 0x01, 0x02
	smpsVcAttackRate    0x1F, 0x1F, 0x12, 0x0D
	smpsVcAmpMod        0x00, 0x00, 0x00, 0x00
	smpsVcDecayRate1    0x0D, 0x00, 0x00, 0x09
	smpsVcDecayRate2    0x00, 0x00, 0x00, 0x00
	smpsVcDecayLevel    0x0F, 0x00, 0x00, 0x02
	smpsVcReleaseRate   0x07, 0x02, 0x08, 0x03
	smpsVcTotalLevel    0x07, 0x1D, 0x00, 0x15

/* 	Voice 0x01 */
/* 	0x3E */
/* 	0x07, 0x01, 0x02, 0x01, 	0x1F, 0x1F, 0x1F, 0x1F, 	0x0D, 0x06, 0x00, 0x00 */
/* 	0x08, 0x06, 0x00, 0x00, 	0x15, 0x0A, 0x0A, 0x0A, 	0x1B, 0x80, 0x80, 0x80 */
	smpsVcAlgorithm     0x06
	smpsVcFeedback      0x07
	smpsVcUnusedBits    0x00
	smpsVcDetune        0x00, 0x00, 0x00, 0x00
	smpsVcCoarseFreq    0x01, 0x02, 0x01, 0x07
	smpsVcRateScale     0x00, 0x00, 0x00, 0x00
	smpsVcAttackRate    0x1F, 0x1F, 0x1F, 0x1F
	smpsVcAmpMod        0x00, 0x00, 0x00, 0x00
	smpsVcDecayRate1    0x00, 0x00, 0x06, 0x0D
	smpsVcDecayRate2    0x00, 0x00, 0x06, 0x08
	smpsVcDecayLevel    0x00, 0x00, 0x00, 0x01
	smpsVcReleaseRate   0x0A, 0x0A, 0x0A, 0x05
	smpsVcTotalLevel    0x00, 0x00, 0x00, 0x1B

/* 	Voice 0x02 */
/* 	0x3A */
/* 	0x01, 0x07, 0x01, 0x01, 	0x8E, 0x8E, 0x8D, 0x53, 	0x0E, 0x0E, 0x0E, 0x03 */
/* 	0x00, 0x00, 0x00, 0x07, 	0x1F, 0xFF, 0x1F, 0x0F, 	0x18, 0x28, 0x27, 0x80 */
	smpsVcAlgorithm     0x02
	smpsVcFeedback      0x07
	smpsVcUnusedBits    0x00
	smpsVcDetune        0x00, 0x00, 0x00, 0x00
	smpsVcCoarseFreq    0x01, 0x01, 0x07, 0x01
	smpsVcRateScale     0x01, 0x02, 0x02, 0x02
	smpsVcAttackRate    0x13, 0x0D, 0x0E, 0x0E
	smpsVcAmpMod        0x00, 0x00, 0x00, 0x00
	smpsVcDecayRate1    0x03, 0x0E, 0x0E, 0x0E
	smpsVcDecayRate2    0x07, 0x00, 0x00, 0x00
	smpsVcDecayLevel    0x00, 0x01, 0x0F, 0x01
	smpsVcReleaseRate   0x0F, 0x0F, 0x0F, 0x0F
	smpsVcTotalLevel    0x00, 0x27, 0x28, 0x18

/* 	Voice 0x03 */
/* 	0x20 */
/* 	0x36, 0x35, 0x30, 0x31, 	0xDF, 0xDF, 0x9F, 0x9F, 	0x07, 0x06, 0x09, 0x06 */
/* 	0x07, 0x06, 0x06, 0x08, 	0x20, 0x10, 0x10, 0xF8, 	0x19, 0x37, 0x13, 0x80 */
	smpsVcAlgorithm     0x00
	smpsVcFeedback      0x04
	smpsVcUnusedBits    0x00
	smpsVcDetune        0x03, 0x03, 0x03, 0x03
	smpsVcCoarseFreq    0x01, 0x00, 0x05, 0x06
	smpsVcRateScale     0x02, 0x02, 0x03, 0x03
	smpsVcAttackRate    0x1F, 0x1F, 0x1F, 0x1F
	smpsVcAmpMod        0x00, 0x00, 0x00, 0x00
	smpsVcDecayRate1    0x06, 0x09, 0x06, 0x07
	smpsVcDecayRate2    0x08, 0x06, 0x06, 0x07
	smpsVcDecayLevel    0x0F, 0x01, 0x01, 0x02
	smpsVcReleaseRate   0x08, 0x00, 0x00, 0x00
	smpsVcTotalLevel    0x00, 0x13, 0x37, 0x19

