Snd_HCZ1_Header:
	smpsHeaderStartSong 3
	smpsHeaderVoiceUVB
	smpsHeaderChan      0x06, 0x03
	smpsHeaderTempo     0x01, 0x53

	smpsHeaderDAC       Snd_HCZ1_DAC
	smpsHeaderFM        Snd_HCZ1_FM1,	0x0C, 0x14
	smpsHeaderFM        Snd_HCZ1_FM2,	0x18, 0x0C
	smpsHeaderFM        Snd_HCZ1_FM3,	0x0C, 0x14
	smpsHeaderFM        Snd_HCZ1_FM4,	0x0C, 0x0F
	smpsHeaderFM        Snd_HCZ1_FM5,	0x0C, 0x0F
	smpsHeaderPSG       Snd_HCZ1_PSG1,	0xF4, 0x04, 0x00, sTone_0C
	smpsHeaderPSG       Snd_HCZ1_PSG2,	0xE8, 0x04, 0x00, sTone_0C
	smpsHeaderPSG       Snd_HCZ1_PSG3,	0x00, 0x03, 0x00, sTone_0C

/*  Unreachable */
	smpsStop
	smpsStop

/*  DAC Data */
Snd_HCZ1_DAC:
	.byte	dKickS3, 0x14, 0x04, dSnareS3, 0x20, dKickS3, 0x10, dSnareS3, 0x14, dKickS3, 0x18, 0x04
	.byte	dSnareS3, 0x20, dKickS3, 0x10, dSnareS3, 0x18
	smpsLoop            0x00, 0x03, Snd_HCZ1_DAC
	.byte	dKickS3, 0x14, 0x04, dSnareS3, 0x20, dKickS3, 0x10, dSnareS3, 0x14, dKickS3, 0x18, 0x04
	.byte	dSnareS3, 0x20, dKickS3, 0x10, dSnareS3, 0x0C, dSnareS3
	smpsCall            Snd_HCZ1_Call00
	.byte	dKickS3, dSnareS3, 0x14, dSnareS3, 0x0C, dKickS3, dKickS3, 0x04, dSnareS3, 0x18
	smpsCall            Snd_HCZ1_Call00
	.byte	dKickS3, 0x18, dSnareS3, 0x14, dSnareS3, 0x10
	smpsPan             panLeft, 0x00
	.byte	dHighTom, 0x04
	smpsPan             panCenter, 0x00
	.byte	dMidTomS3
	smpsPan             panRight, 0x00
	.byte	dLowTomS3, 0x0C
	smpsPan             panCenter, 0x00
	.byte	dSnareS3, 0x04, dSnareS3, 0x08, dSnareS3, 0x04
	smpsCall            Snd_HCZ1_Call00
	.byte	dKickS3, dSnareS3, 0x14, dSnareS3, 0x0C, dKickS3, dKickS3, 0x04, dSnareS3, 0x18
	smpsCall            Snd_HCZ1_Call00
	.byte	dSnareS3, 0x0C, dSnareS3, dSnareS3, dSnareS3, 0x08, dSnareS3, 0x34

Snd_HCZ1_Loop00:
	.byte	dKickS3, 0x14, dKickS3, 0x04, dSnareS3, 0x08, dKickS3, 0x18, dKickS3, 0x10, dSnareS3, 0x18
	smpsLoop            0x00, 0x06, Snd_HCZ1_Loop00
	.byte	dKickS3, 0x14, dKickS3, 0x04, dSnareS3, 0x08, dKickS3, 0x18, dKickS3, 0x10, dSnareS3, 0x20
	.byte	dSnareS3, 0x0C, dSnareS3, dSnareS3, 0x04, dSnareS3, 0x0C, dSnareS3, 0x18, dSnareS3, 0x0C, dSnareS3
	smpsJump            Snd_HCZ1_DAC

/*  Unreachable */
	smpsStop

Snd_HCZ1_Call00:
	.byte	dKickS3, 0x18, dSnareS3, 0x14, dKickS3, 0x0C, dKickS3, 0x04, dKickS3, 0x0C, dSnareS3, 0x18
	smpsReturn

/*  FM1 Data */
Snd_HCZ1_FM1:
	smpsPan             panRight, 0x00

Snd_HCZ1_Jump01:
	smpsSetvoice        0x1C
	smpsAlterNote       0xFF
	smpsModSet          0x0A, 0x01, 0x04, 0x06
	smpsCall            Snd_HCZ1_Call01
	smpsSetvoice        0x21
	smpsAlterNote       0x01
	smpsModSet          0x0A, 0x01, 0x06, 0x06
	smpsCall            Snd_HCZ1_Call02
	smpsSetvoice        0x03
	smpsAlterNote       0xFE
	smpsModSet          0x0F, 0x01, 0x06, 0x06
	smpsCall            Snd_HCZ1_Call03
	smpsJump            Snd_HCZ1_Jump01

Snd_HCZ1_Call01:
	.byte	nC5, 0x08, nG4, 0x04, nF4, 0x02
	smpsFMAlterVol      0x02
	.byte	nEb4
	smpsFMAlterVol      0x02
	.byte	nD4
	smpsFMAlterVol      0x02
	.byte	nC4
	smpsFMAlterVol      0x02
	.byte	nBb3
	smpsFMAlterVol      0x02
	.byte	nA3
	smpsFMAlterVol      0x02
	.byte	nG3
	smpsFMAlterVol      0x02
	.byte	nF3
	smpsFMAlterVol      0x02
	.byte	nRst, 0x04
	smpsFMAlterVol      0xF0
	.byte	nBb3, nA3, 0x08, nG3, 0x04, nF3, 0x02, nFs3, 0x06, nF3, 0x04, nEb3
	.byte	0x08, nC3, 0x04, nBb3, 0x0C, nBb3, 0x08, nA3, 0x10, nG3, 0x02
	smpsFMAlterVol      0x02
	.byte	nFs3
	smpsFMAlterVol      0x02
	.byte	nF3
	smpsFMAlterVol      0x02
	.byte	nEb3
	smpsFMAlterVol      0x02
	.byte	nD3
	smpsFMAlterVol      0x02
	.byte	nC3
	smpsFMAlterVol      0x02
	.byte	nBb2
	smpsFMAlterVol      0x02
	.byte	nA2
	smpsFMAlterVol      0x02
	.byte	nG2
	smpsFMAlterVol      0x02
	.byte	nRst, 0x36
	smpsFMAlterVol      0xEE
	.byte	nBb3, 0x08, nB3, 0x04, nC4, 0x08, nG3, 0x04, nF3, 0x02
	smpsFMAlterVol      0x02
	.byte	nEb3
	smpsFMAlterVol      0x02
	.byte	nD3
	smpsFMAlterVol      0x02
	.byte	nC3
	smpsFMAlterVol      0x02
	.byte	nBb2
	smpsFMAlterVol      0x02
	.byte	nA2
	smpsFMAlterVol      0x02
	.byte	nG2
	smpsFMAlterVol      0x02
	.byte	nF2
	smpsFMAlterVol      0x02
	.byte	nRst, 0x04
	smpsFMAlterVol      0xF0
	.byte	nF3, 0x02, nFs3, nF3, 0x08, nEb3, 0x04, nF3, 0x08, nEb3, 0x04, nC3
	.byte	0x08, nBb2, 0x04, nG3, 0x0C, nG3, 0x08, nEb3, 0x1C, nRst, 0x48, nC5
	.byte	0x08, nG4, 0x04, nF4, 0x02
	smpsFMAlterVol      0x02
	.byte	nEb4
	smpsFMAlterVol      0x02
	.byte	nD4
	smpsFMAlterVol      0x02
	.byte	nC4
	smpsFMAlterVol      0x02
	.byte	nBb3
	smpsFMAlterVol      0x02
	.byte	nA3
	smpsFMAlterVol      0x02
	.byte	nG3
	smpsFMAlterVol      0x02
	.byte	nF3
	smpsFMAlterVol      0x02
	.byte	nRst, 0x04
	smpsFMAlterVol      0xF0
	.byte	nBb3, nA3, 0x08, nG3, 0x04, nF3, 0x02, nFs3, 0x06, nF3, 0x04, nEb3
	.byte	0x08, nC3, 0x04, nBb3, 0x0C, nBb3, 0x08, nA3, 0x10, nG3, 0x02
	smpsFMAlterVol      0x02
	.byte	nFs3
	smpsFMAlterVol      0x02
	.byte	nF3
	smpsFMAlterVol      0x02
	.byte	nEb3
	smpsFMAlterVol      0x02
	.byte	nD3
	smpsFMAlterVol      0x02
	.byte	nC3
	smpsFMAlterVol      0x02
	.byte	nBb2
	smpsFMAlterVol      0x02
	.byte	nA2
	smpsFMAlterVol      0x02
	.byte	nG2
	smpsFMAlterVol      0x02
	.byte	nRst, 0x36
	smpsFMAlterVol      0xEE
	.byte	nBb3, 0x08, nB3, 0x04, nC4, 0x08, nG3, 0x04, nF3, 0x02
	smpsFMAlterVol      0x02
	.byte	nEb3
	smpsFMAlterVol      0x02
	.byte	nD3
	smpsFMAlterVol      0x02
	.byte	nC3
	smpsFMAlterVol      0x02
	.byte	nBb2
	smpsFMAlterVol      0x02
	.byte	nA2
	smpsFMAlterVol      0x02
	.byte	nG2
	smpsFMAlterVol      0x02
	.byte	nF2
	smpsFMAlterVol      0x02
	.byte	nRst, 0x04
	smpsFMAlterVol      0xF0
	.byte	nF3, 0x02, nFs3, nF3, 0x08, nEb3, 0x04, nF3, 0x08, nEb3, 0x04, nC3
	.byte	0x08, nBb2, 0x04, nG3, 0x0C, nG3, 0x08, nEb3, 0x1C, nRst, 0x54
	smpsReturn

Snd_HCZ1_Call02:
	.byte	nCs4, 0x08, nEb4, 0x04, nRst, 0x08, nEb4, 0x04, nBb4, 0x08, nBb4, 0x04
	.byte	nRst, 0x30, nF4, 0x0C, nF4, 0x08, nFs4, 0x04, nF4, 0x0C, nF4, 0x08
	.byte	nEb4, 0x02, nRst, 0x0A, nAb3, 0x04, nB3, 0x02, nC4, 0x06, nEb4, 0x04
	.byte	nFs4, nRst, nFs4, nF4, 0x02, nEb4, nCs4, nC4, nBb3, nAb3, nFs3, nF3
	.byte	nRst, 0x08, nEb4, nF4, 0x04, nRst, 0x08, nF4, 0x04, nC5, 0x08, nC5
	.byte	0x04, nRst, 0x30, nG4, 0x0C, nG4, 0x08, nAb4, 0x04, nG4, 0x0C, nG4
	.byte	0x08, nF4, 0x04, nRst, 0x3C, nCs4, 0x08, nEb4, 0x04, nRst, 0x08, nEb4
	.byte	0x04, nBb4, 0x08, nBb4, 0x04, nRst, 0x30, nF4, 0x0C, nF4, 0x08, nFs4
	.byte	0x04, nF4, 0x0C, nF4, 0x08, nEb4, 0x02, nRst, 0x0A, nAb3, 0x04, nB3
	.byte	0x02, nC4, 0x06, nEb4, 0x04, nFs4, nRst, nFs4, nF4, 0x02, nEb4, nCs4
	.byte	nC4, nBb3, nAb3, nFs3, nF3, nRst, 0x08, nEb4, nF4, 0x04, nRst, 0x08
	.byte	nF4, 0x04, nC5, 0x08, nC5, 0x04, nRst, 0x24, nD4, 0x04, nF4, nG4
	.byte	nAb4, 0x08, nRst, 0x04, nAb4, 0x08, nRst, 0x04, nAb4, 0x08, nRst, 0x04
	.byte	nAb4, 0x08, nG4, 0x04, nRst, 0x24
	smpsReturn

Snd_HCZ1_Call03:
	.byte	nC4, 0x08, nD4, 0x04, nEb4, 0x24, nD4, 0x08, nC4, 0x02, nRst, 0x0A
	.byte	nD4, 0x10, nC4, 0x04, nRst, 0x08, nBb3, 0x04, nRst, 0x08, nG3, 0x18
	.byte	nBb3, 0x14, nC4, 0x1C, nRst, 0x0C, nC4, 0x08, nD4, 0x04, nEb4, 0x24
	.byte	nD4, 0x08, nC4, 0x04, nRst, 0x08, nD4, 0x10, nC4, 0x04, nRst, 0x08
	.byte	nBb3, 0x04, nRst, 0x08, nD4, 0x14, nD4, 0x04, nD4, 0x18, nEb4, nF4
	.byte	0x0C, nC4, 0x08, nD4, 0x04, nEb4, 0x24, nD4, 0x08, nC4, 0x04, nRst
	.byte	0x08, nD4, 0x10, nC4, 0x04, nRst, 0x08, nBb3, 0x04, nRst, 0x08, nG3
	.byte	0x18, nBb3, 0x14, nC4, 0x1C, nRst, 0x0C, nC4, 0x08, nD4, 0x04, nEb4
	.byte	0x14, nEb4, 0x04, nRst, 0x08, nD4, 0x04, nEb4, 0x14, nEb4, 0x04, nF4
	.byte	0x0C, nEb4, 0x04, nRst, 0x08, nC4, 0x04, nEb4, nAb4, nRst, 0x08, nC5
	.byte	0x04, nRst, 0x08, nC5, 0x04, nRst, 0x08, nC5, 0x04, nC5, 0x0C, nB4
	.byte	0x04, nRst, 0x2C
	smpsReturn

/*  Unreachable */
	smpsStop

/*  FM2 Data */
Snd_HCZ1_FM2:
	smpsSetvoice        0x00
	.byte	nC1, 0x12, nRst, 0x02, nC1, nRst, 0x0A, nBb0, 0x02, nRst, nBb0, 0x08
	.byte	nRst, 0x0C, nA0, 0x02, nRst, nA0, 0x08, nRst, 0x04, nBb0, 0x0A, nRst
	.byte	0x02, nBb0, 0x06, nRst, 0x02, nC1, nRst, 0x0A
	smpsSetvoice        0x14
	smpsAlterNote       0x00
	smpsModSet          0x02, 0x01, 0x01, 0x02
	smpsFMAlterVol      0xFC
	.byte	nC2, 0x02, nRst, 0x0A
	smpsSetvoice        0x00
	smpsFMAlterVol      0x04
	.byte	nC1, 0x02, nRst, 0x0A, nBb0, 0x02, nRst, nBb0, 0x08, nRst, 0x0C, nA0
	.byte	0x02, nRst, nA0, 0x08, nRst, 0x04, nBb0, 0x0A, nRst, 0x02, nBb0, 0x0A
	.byte	nRst, 0x02, nC1, 0x12, nRst, 0x02, nC1, nRst, 0x0A, nBb0, 0x02, nRst
	.byte	nBb0, 0x08, nRst, 0x0C, nA0, 0x02, nRst, nA0, 0x08, nRst, 0x04, nBb0
	.byte	0x0A, nRst, 0x02, nBb0, 0x06, nRst, 0x02, nC1, nRst, 0x0A
	smpsSetvoice        0x14
	smpsAlterNote       0x00
	smpsModSet          0x02, 0x01, 0x01, 0x02
	smpsFMAlterVol      0xFC
	.byte	nBb1, 0x02
	smpsSetvoice        0x00
	smpsFMAlterVol      0x04
	.byte	nRst, 0x0A, nC1, 0x02, nRst, 0x0A, nBb0, 0x02, nRst, nBb0, 0x08, nRst
	.byte	0x0C, nA0, 0x02, nRst, nA0, 0x08, nRst, 0x04, nBb0, 0x0A, nRst, 0x02
	.byte	nBb0, 0x0A, nRst, 0x02, nC1, 0x12, nRst, 0x02, nC1, nRst, 0x0A, nBb0
	.byte	0x02, nRst, nBb0, 0x08, nRst, 0x0C, nA0, 0x02, nRst, nA0, 0x08, nRst
	.byte	0x04, nBb0, 0x0A, nRst, 0x02, nBb0, 0x06, nRst, 0x02, nC1, nRst, 0x0A
	smpsSetvoice        0x14
	smpsAlterNote       0x00
	smpsModSet          0x02, 0x01, 0x01, 0x02
	smpsFMAlterVol      0xFC
	.byte	nC2, 0x02, nRst, 0x0A
	smpsSetvoice        0x00
	smpsFMAlterVol      0x04
	.byte	nC1, 0x02, nRst, 0x0A, nBb0, 0x02, nRst, nBb0, 0x08, nRst, 0x0C, nA0
	.byte	0x02, nRst, nA0, 0x08, nRst, 0x04, nBb0, 0x0A, nRst, 0x02, nBb0, 0x0A
	.byte	nRst, 0x02, nC1, 0x12, nRst, 0x02, nC1, nRst, 0x0A, nBb0, 0x02, nRst
	.byte	nBb0, 0x08, nRst, 0x0C, nA0, 0x02, nRst, nA0, 0x08, nRst, 0x04, nBb0
	.byte	0x0A, nRst, 0x02, nBb0, 0x06, nRst, 0x02, nC1, nRst, 0x0A
	smpsSetvoice        0x14
	smpsAlterNote       0x00
	smpsModSet          0x02, 0x01, 0x01, 0x02
	smpsFMAlterVol      0xFC
	.byte	nBb1, 0x02
	smpsSetvoice        0x00
	smpsFMAlterVol      0x04
	.byte	nRst, 0x0A, nC1, 0x02, nRst, 0x0A, nBb0, 0x02, nRst, nBb0, 0x08, nRst
	.byte	0x0C, nA0, 0x02, nRst, nA0, 0x08, nRst, 0x04, nBb0, 0x0A, nRst, 0x02
	.byte	nBb0, 0x0A, nRst, 0x02, nAb0, 0x06, nRst, nFs0, 0x0A, nRst, 0x02, nF0
	.byte	0x0A, nRst, 0x02, nF0, 0x06, nRst, 0x02, nFs0, nRst, 0x0A, nFs0, 0x02
	.byte	nRst, nF0, 0x0A, nRst, 0x02, nEb0, 0x0A, nRst, 0x02, nF0, 0x0A, nRst
	.byte	0x02, nAb0, 0x06, nRst, 0x02
	smpsSetvoice        0x14
	smpsAlterNote       0x00
	smpsModSet          0x02, 0x01, 0x01, 0x02
	smpsFMAlterVol      0xFC
	.byte	nAb1, nRst
	smpsSetvoice        0x00
	smpsFMAlterVol      0x04
	.byte	nEb1, 0x0A, nRst, 0x02, nF1, 0x0A, nRst, 0x02, nFs1, 0x06, nRst, 0x02
	.byte	nF1, nRst, 0x26, nAb0, 0x0C, nBb0, 0x06, nRst, nAb0, 0x0A, nRst, 0x02
	.byte	nG0, 0x0A, nRst, 0x02, nG0, 0x06, nRst, 0x02, nAb0, nRst, 0x0A, nAb0
	.byte	0x02, nRst, nG0, 0x0A, nRst, 0x02, nF0, 0x0A, nRst, 0x02, nG0, 0x0A
	.byte	nRst, 0x02, nBb0, 0x06, nRst, 0x02
	smpsSetvoice        0x14
	smpsAlterNote       0x00
	smpsModSet          0x02, 0x01, 0x01, 0x02
	smpsFMAlterVol      0xFC
	.byte	nBb1, nRst
	smpsSetvoice        0x00
	smpsFMAlterVol      0x04
	.byte	nF1, 0x0A, nRst, 0x02, nG1, 0x0A, nRst, 0x02, nAb1, 0x06, nRst, 0x02
	.byte	nG1, nRst, 0x1A, nBb0, 0x02, nRst, 0x06, nBb0, 0x0E, nRst, 0x02, nAb0
	.byte	0x06, nRst, nFs0, 0x0A, nRst, 0x02, nF0, 0x0A, nRst, 0x02, nF0, 0x06
	.byte	nRst, 0x02, nFs0, nRst, 0x0A, nFs0, 0x02, nRst, nF0, 0x0A, nRst, 0x02
	.byte	nEb0, 0x0A, nRst, 0x02, nF0, 0x0A, nRst, 0x02, nAb0, 0x06, nRst, 0x02
	smpsSetvoice        0x14
	smpsAlterNote       0x00
	smpsModSet          0x02, 0x01, 0x01, 0x02
	smpsFMAlterVol      0xFC
	.byte	nAb1, nRst
	smpsSetvoice        0x00
	smpsFMAlterVol      0x04
	.byte	nEb1, 0x0A, nRst, 0x02, nF1, 0x0A, nRst, 0x02, nFs1, 0x06, nRst, 0x02
	.byte	nF1, nRst, 0x26, nAb0, 0x0C, nBb0, 0x06, nRst, nAb0, 0x0A, nRst, 0x02
	.byte	nG0, 0x0A, nRst, 0x02, nG0, 0x06, nRst, 0x02, nAb0, nRst, 0x0A, nAb0
	.byte	0x02, nRst, nG0, 0x0A, nRst, 0x02, nF0, 0x0A, nRst, 0x02, nG0, 0x0A
	.byte	nRst, 0x02, nG0, 0x06, nRst, nG0, nRst, nG0, nRst, nG0, nRst, 0x02
	.byte	nG0, nRst, 0x26, nG0, 0x04, nRst, nG0
	smpsSetvoice        0x14
	smpsAlterNote       0x00
	smpsModSet          0x02, 0x01, 0x01, 0x02
	smpsFMAlterVol      0xFF
	.byte	nF0, 0x12, nRst, 0x02, nF0, nRst, nEb0, 0x06, nRst, 0x02, nF0, nRst
	.byte	0x16, nG0, 0x02, nRst, nG1, 0x0A, nRst, 0x02, nG0, 0x16, nRst, 0x02
	.byte	nAb0, 0x12, nRst, 0x02, nAb0, nRst, nAb0, 0x06, nRst, 0x02, nAb0, nRst
	.byte	0x16, nBb0, 0x02, nRst, nBb0, 0x0A, nRst, 0x02, nBb0, 0x0A, nRst, 0x02
	.byte	nBb0, 0x04, nRst, nBb0, nF0, 0x12, nRst, 0x02, nF0, nRst, nEb0, 0x06
	.byte	nRst, 0x02, nF0, nRst, 0x16, nG0, 0x02, nRst, nG1, 0x0A, nRst, 0x02
	.byte	nG0, 0x16, nRst, 0x02, nC1, 0x06, nRst, 0x02, nC1, 0x0A, nRst, 0x02
	.byte	nC1, nRst, nBb0, 0x06, nRst, 0x02, nBb0, 0x0A, nRst, 0x02, nBb1, nRst
	.byte	0x0A, nAb0, 0x02, nRst, nAb0, 0x06, nRst, nG0, 0x0C, nG0, 0x04, nRst
	.byte	nG0, nF0, 0x12, nRst, 0x02, nF0, nRst, nEb0, 0x06, nRst, 0x02, nF0
	.byte	nRst, 0x16, nG0, 0x02, nRst, nG1, 0x0A, nRst, 0x02, nG0, 0x16, nRst
	.byte	0x02, nAb0, 0x12, nRst, 0x02, nAb0, nRst, nAb0, 0x06, nRst, 0x02, nAb0
	.byte	nRst, 0x16, nBb0, 0x02, nRst, nBb0, 0x0A, nRst, 0x02, nBb0, 0x0A, nRst
	.byte	0x02, nBb0, 0x04, nRst, nBb0, nAb0, 0x12, nRst, 0x02, nAb0, nRst, nAb0
	.byte	0x06, nRst, 0x02, nAb0, nRst, 0x16, nF0, 0x02, nRst, nF0, 0x0A, nRst
	.byte	0x02, nF0, 0x0A, nRst, 0x02, nF0, 0x0A, nRst, nG0, 0x02, nRst, 0x0A
	.byte	nG0, 0x02, nRst, 0x0A, nG0, 0x02, nRst, nG0, 0x0A, nRst, 0x02, nG0
	.byte	nRst, 0x16
	smpsSetvoice        0x00
	smpsFMAlterVol      0x01
	.byte	nF0, 0x04, nRst, nFs0, 0x02, nRst, nG0, 0x06, nRst, 0x02, nBb0, nRst
	smpsJump            Snd_HCZ1_FM2

/*  Unreachable */
	smpsStop

/*  FM3 Data */
Snd_HCZ1_FM3:
	smpsPan             panLeft, 0x00
	.byte	nRst, 0x01

Snd_HCZ1_Jump00:
	smpsSetvoice        0x1C
	smpsAlterNote       0x01
	smpsModSet          0x0A, 0x01, 0x04, 0x06
	smpsCall            Snd_HCZ1_Call01
	smpsSetvoice        0x21
	smpsAlterNote       0xFF
	smpsModSet          0x0A, 0x01, 0x06, 0x06
	smpsCall            Snd_HCZ1_Call02
	smpsSetvoice        0x03
	smpsAlterNote       0x02
	smpsModSet          0x0F, 0x01, 0x06, 0x06
	smpsCall            Snd_HCZ1_Call03
	smpsJump            Snd_HCZ1_Jump00

/*  Unreachable */
	smpsStop

/*  FM4 Data */
Snd_HCZ1_FM4:
	smpsSetvoice        0x06
	smpsAlterNote       0x01
	smpsModSet          0x0A, 0x01, 0x03, 0x06
	.byte	nRst, 0x20, nBb3, 0x02, nRst, nA3, 0x06, nRst, 0x02, nG3, nRst, 0x0E
	.byte	nEb3, 0x06, nRst, 0x02, nC3, nC3, nBb4, 0x0A, nRst, 0x02, nEb4, 0x06
	.byte	nRst, 0x02, nC4, nRst, 0x0E, nBb3, 0x06, nRst, 0x02, nA3, nRst, 0x0A
	.byte	nG3, 0x02, nRst, nA3, 0x06, nRst, 0x02, nG3, nRst, 0x0A
	smpsSetvoice        0x0A
	smpsAlterNote       0x01
	smpsModSet          0x0A, 0x01, 0x03, 0x06
	smpsAlterPitch      0xF4
	.byte	nRst, 0x10, nBb5, 0x02, nRst, 0x06, nD5, 0x02, nEb5, 0x0E
	smpsSetvoice        0x06
	smpsAlterNote       0x01
	smpsModSet          0x0A, 0x01, 0x03, 0x06
	smpsAlterPitch      0x0C
	.byte	nRst, 0x20, nFs3, 0x02, nRst, nF3, 0x06, nRst, 0x02, nEb3, nRst, 0x0E
	.byte	nC3, 0x06, nRst, 0x02, nBb2, nBb2, nEb4, 0x0A, nRst, 0x02, nBb3, 0x06
	.byte	nRst, 0x02, nF3, nRst, 0x0E, nA3, 0x06, nRst, 0x02, nG3, nRst, 0x0A
	.byte	nF3, 0x02, nRst, nG3, 0x06, nRst, 0x02, nF3, nRst
	smpsSetvoice        0x0A
	smpsAlterNote       0x01
	smpsModSet          0x0A, 0x01, 0x03, 0x06
	smpsAlterPitch      0xF4
	.byte	nG4, 0x16, nRst, 0x02, nF4, 0x18
	smpsSetvoice        0x06
	smpsAlterNote       0x01
	smpsModSet          0x0A, 0x01, 0x03, 0x06
	smpsAlterPitch      0x0C
	.byte	nRst, 0x20, nBb3, 0x02, nRst, nA3, 0x06, nRst, 0x02, nG3, nRst, 0x0E
	.byte	nEb3, 0x06, nRst, 0x02, nC3, nC3, nBb4, 0x0A, nRst, 0x02, nEb4, 0x06
	.byte	nRst, 0x02, nC4, nRst, 0x0E, nBb3, 0x06, nRst, 0x02, nA3, nRst, 0x0A
	.byte	nG3, 0x02, nRst, nA3, 0x06, nRst, 0x02, nG3, nRst, 0x0A
	smpsSetvoice        0x0A
	smpsAlterNote       0x01
	smpsModSet          0x0A, 0x01, 0x03, 0x06
	smpsAlterPitch      0xF4
	.byte	nRst, 0x10, nBb5, 0x02, nRst, 0x06, nD5, 0x02, nEb5, 0x0E
	smpsSetvoice        0x06
	smpsAlterNote       0x01
	smpsModSet          0x0A, 0x01, 0x03, 0x06
	smpsAlterPitch      0x0C
	.byte	nRst, 0x20, nFs3, 0x02, nRst, nF3, 0x06, nRst, 0x02, nEb3, nRst, 0x0E
	.byte	nC3, 0x06, nRst, 0x02, nBb2, nBb2, nEb4, 0x0A, nRst, 0x02, nBb3, 0x06
	.byte	nRst, 0x02, nF3, nRst, 0x0E, nA3, 0x06, nRst, 0x02, nG3, nRst, 0x0A
	.byte	nF3, 0x02, nRst, nG3, 0x06, nRst, 0x02, nF3, nRst
	smpsSetvoice        0x0A
	smpsAlterNote       0x01
	smpsModSet          0x0A, 0x01, 0x03, 0x06
	smpsAlterPitch      0xF4
	.byte	nG4, 0x16, nRst, 0x02, nF4, 0x18
	smpsSetvoice        0x06
	smpsAlterNote       0x01
	smpsModSet          0x0A, 0x01, 0x03, 0x06
	smpsAlterPitch      0x0C
	.byte	nEb4, 0x0C, nBb2, 0x08, nC3, 0x04, nRst, 0x08, nC3, 0x04, nFs3, 0x08
	.byte	nFs3, 0x04, nFs4, 0x18, nEb4, nRst, 0x0C, nFs3, 0x06, nRst, 0x02, nF3
	.byte	nRst, 0x0A, nEb3, 0x02, nRst, nF3, 0x06, nRst, 0x02, nEb3, nRst, 0x1A
	.byte	nFs5, 0x08, nFs5, 0x04, nRst, 0x0C, nD4, nC3, 0x08, nD3, 0x04, nRst
	.byte	0x08, nD3, 0x04, nAb3, 0x08, nAb3, 0x04, nAb4, 0x18, nF4, nRst, 0x0C
	.byte	nAb3, 0x06, nRst, 0x02, nG3, nRst, 0x0A, nF3, 0x02, nRst, nG3, 0x06
	.byte	nRst, 0x02, nF3, nRst, 0x1A, nAb5, 0x08, nCs5, 0x02, nD5, 0x0E, nEb4
	.byte	0x0C, nBb2, 0x08, nC3, 0x04, nRst, 0x08, nC3, 0x04, nFs3, 0x08, nFs3
	.byte	0x04, nFs4, 0x18, nEb4, nRst, 0x0C, nFs3, 0x06, nRst, 0x02, nF3, nRst
	.byte	0x0A, nEb3, 0x02, nRst, nF3, 0x06, nRst, 0x02, nEb3, nRst, 0x1A, nFs5
	.byte	0x08, nFs5, 0x04, nRst, 0x0C, nD4, nC3, 0x08, nD3, 0x04, nRst, 0x08
	.byte	nD3, 0x04, nAb3, 0x08, nAb3, 0x04, nAb4, 0x18, nF4, nD4, 0x08, nRst
	.byte	0x04, nD4, 0x08, nRst, 0x04, nD4, 0x08, nRst, 0x04, nD4, 0x08, nD4
	.byte	0x04, nRst, 0x14, nC5, 0x02, nD5, nG5, 0x18
	smpsSetvoice        0x0A
	smpsAlterNote       0x01
	smpsModSet          0x0A, 0x01, 0x03, 0x06
	.byte	nA4, 0x02, nBb4, 0x04, nRst, 0x02, nBb4, 0x0C, nA4, 0x02, nBb4, nRst
	.byte	0x08
	smpsSetvoice        0x06
	smpsAlterNote       0x01
	smpsModSet          0x0A, 0x01, 0x03, 0x06
	.byte	nEb4, 0x02, nRst, nD4, 0x06, nRst, 0x02, nC4, nRst, 0x0A, nF4, 0x10
	.byte	nEb4, 0x04, nRst, 0x08, nD4, 0x04, nRst, 0x08, nC4, 0x16, nRst, 0x02
	.byte	nEb4, 0x06, nRst, nD4, 0x02, nEb4, 0x04, nRst, 0x02, nD4, 0x10, nRst
	.byte	0x0C, nF4, 0x08, nF4, 0x04, nRst, 0x0C
	smpsSetvoice        0x0A
	smpsAlterNote       0x01
	smpsModSet          0x0A, 0x01, 0x03, 0x06
	.byte	nA4, 0x02, nBb4, 0x10, nRst, 0x02, nBb4, nRst, 0x0A
	smpsSetvoice        0x06
	smpsAlterNote       0x01
	smpsModSet          0x0A, 0x01, 0x03, 0x06
	.byte	nEb4, 0x02, nRst, nD4, 0x06, nRst, 0x02, nC4, nRst, 0x0A, nF4, 0x10
	.byte	nEb4, 0x04, nRst, 0x08, nD4, 0x04, nRst, 0x08, nC5, 0x18, nBb4, nAb4
	.byte	nG4
	smpsSetvoice        0x0A
	smpsAlterNote       0x01
	smpsModSet          0x0A, 0x01, 0x03, 0x06
	.byte	nA4, 0x02, nBb4, 0x04, nRst, 0x02, nBb4, 0x0C, nA4, 0x02, nBb4, nRst
	.byte	0x08
	smpsSetvoice        0x06
	smpsAlterNote       0x01
	smpsModSet          0x0A, 0x01, 0x03, 0x06
	.byte	nEb4, 0x02, nRst, nD4, 0x06, nRst, 0x02, nC4, nRst, 0x0A, nF4, 0x10
	.byte	nEb4, 0x04, nRst, 0x08, nD4, 0x04, nRst, 0x08, nC4, 0x16, nRst, 0x02
	.byte	nEb4, 0x06, nRst, nD4, 0x02, nEb4, 0x04, nRst, 0x02, nD4, 0x10, nRst
	.byte	0x0C, nF4, 0x08, nF4, 0x04, nRst, 0x14, nG4, 0x02, nRst, nF4, 0x06
	.byte	nRst, 0x02, nEb4, nRst, 0x0A, nD4, 0x02, nRst, nEb4, 0x06, nRst, 0x02
	.byte	nC4, nRst, 0x1A, nEb4, 0x18, nRst, 0x08, nG4, 0x02, nRst, 0x0A, nG4
	.byte	0x02, nRst, 0x0A, nG4, 0x02, nRst, nG4, 0x0A, nRst, 0x02, nG4, nRst
	.byte	0x2E
	smpsJump            Snd_HCZ1_FM4

/*  Unreachable */
	smpsStop

/*  FM5 Data */
Snd_HCZ1_FM5:
	smpsSetvoice        0x06
	smpsAlterNote       0xFF
	smpsModSet          0x0A, 0x01, 0x03, 0x06
	.byte	nEb4, 0x08, nC4, 0x04, nRst, 0x14, nG3, 0x02, nRst, nF3, 0x06, nRst
	.byte	0x02, nEb3, nRst, 0x0E, nC3, 0x06, nRst, 0x02, nG2, nG2, nF4, 0x0A
	.byte	nRst, 0x02, nBb3, 0x06, nRst, 0x02, nA3, nRst, 0x0A, nC3, 0x02, nRst
	.byte	nG3, 0x06, nRst, 0x02, nF3, nRst, 0x0A, nEb3, 0x02, nRst, nF3, 0x06
	.byte	nRst, 0x02, nEb3, nRst, 0x0A
	smpsSetvoice        0x0A
	smpsAlterNote       0xFF
	smpsModSet          0x0A, 0x01, 0x03, 0x06
	smpsAlterPitch      0xF4
	.byte	nF4, 0x02, nRst, nFs4, 0x06, nRst, 0x02, nG4, nRst, nF5, nRst, 0x06
	.byte	nBb4, 0x10
	smpsSetvoice        0x06
	smpsAlterNote       0xFF
	smpsModSet          0x0A, 0x01, 0x03, 0x06
	smpsAlterPitch      0x0C
	.byte	nEb4, 0x08, nC4, 0x04, nRst, 0x14, nEb3, 0x02, nRst, nD3, 0x06, nRst
	.byte	0x02, nC3, nRst, 0x0E, nA2, 0x06, nRst, 0x02, nG2, nG2, nBb3, 0x0A
	.byte	nRst, 0x02, nF3, 0x06, nRst, 0x02, nD3, nRst, 0x0A, nC3, 0x02, nRst
	.byte	nF3, 0x06, nRst, 0x02, nEb3, nRst, 0x0A, nD3, 0x02, nRst, nEb3, 0x06
	.byte	nRst, 0x02, nD3, nRst
	smpsSetvoice        0x0A
	smpsAlterNote       0xFF
	smpsModSet          0x0A, 0x01, 0x03, 0x06
	smpsAlterPitch      0xF4
	.byte	nEb4, 0x16, nRst, 0x02, nD4, 0x18
	smpsSetvoice        0x06
	smpsAlterNote       0xFF
	smpsModSet          0x0A, 0x01, 0x03, 0x06
	smpsAlterPitch      0x0C
	.byte	nEb4, 0x08, nC4, 0x04, nRst, 0x14, nG3, 0x02, nRst, nF3, 0x06, nRst
	.byte	0x02, nEb3, nRst, 0x0E, nC3, 0x06, nRst, 0x02, nG2, nG2, nF4, 0x0A
	.byte	nRst, 0x02, nBb3, 0x06, nRst, 0x02, nA3, nRst, 0x0A, nC3, 0x02, nRst
	.byte	nG3, 0x06, nRst, 0x02, nF3, nRst, 0x0A, nEb3, 0x02, nRst, nF3, 0x06
	.byte	nRst, 0x02, nEb3, nRst, 0x0A
	smpsSetvoice        0x0A
	smpsAlterNote       0xFF
	smpsModSet          0x0A, 0x01, 0x03, 0x06
	smpsAlterPitch      0xF4
	.byte	nF4, 0x02, nRst, nFs4, 0x06, nRst, 0x02, nG4, nRst, nF5, nRst, 0x06
	.byte	nBb4, 0x10
	smpsSetvoice        0x06
	smpsAlterNote       0xFF
	smpsModSet          0x0A, 0x01, 0x03, 0x06
	smpsAlterPitch      0x0C
	.byte	nEb4, 0x08, nC4, 0x04, nRst, 0x14, nEb3, 0x02, nRst, nD3, 0x06, nRst
	.byte	0x02, nC3, nRst, 0x0E, nA2, 0x06, nRst, 0x02, nG2, nG2, nBb3, 0x0A
	.byte	nRst, 0x02, nF3, 0x06, nRst, 0x02, nD3, nRst, 0x0A, nC3, 0x02, nRst
	.byte	nF3, 0x06, nRst, 0x02, nEb3, nRst, 0x0A, nD3, 0x02, nRst, nEb3, 0x06
	.byte	nRst, 0x02, nD3, nRst
	smpsSetvoice        0x0A
	smpsAlterNote       0xFF
	smpsModSet          0x0A, 0x01, 0x03, 0x06
	smpsAlterPitch      0xF4
	.byte	nEb4, 0x16, nRst, 0x02, nD4, 0x18
	smpsSetvoice        0x06
	smpsAlterNote       0xFF
	smpsModSet          0x0A, 0x01, 0x03, 0x06
	smpsAlterPitch      0x0C
	.byte	nC4, 0x0C, nFs2, 0x08, nAb2, 0x04, nRst, 0x08, nAb2, 0x04, nEb3, 0x08
	.byte	nEb3, 0x04, nEb4, 0x18, nC4, nRst, 0x08, nAb2, 0x02, nRst, nEb3, 0x06
	.byte	nRst, 0x02, nCs3, nRst, 0x0A, nC3, 0x02, nRst, nCs3, 0x06, nRst, 0x02
	.byte	nC3, nRst, 0x0E, nFs3, 0x04, nAb3, nC4, nEb5, 0x08, nEb5, 0x04, nRst
	.byte	0x0C, nBb3, nAb2, 0x08, nBb2, 0x04, nRst, 0x08, nBb2, 0x04, nF3, 0x08
	.byte	nF3, 0x04, nF4, 0x18, nD4, nRst, 0x08, nBb2, 0x02, nRst, nF3, 0x06
	.byte	nRst, 0x02, nEb3, nRst, 0x0A, nD3, 0x02, nRst, nEb3, 0x06, nRst, 0x02
	.byte	nD3, nRst, 0x0E, nAb3, 0x04, nBb3, nD4, nF5, 0x08, nG4, 0x02, nAb4
	.byte	0x0E, nC4, 0x0C, nFs2, 0x08, nAb2, 0x04, nRst, 0x08, nAb2, 0x04, nEb3
	.byte	0x08, nEb3, 0x04, nEb4, 0x18, nC4, nRst, 0x08, nAb2, 0x02, nRst, nEb3
	.byte	0x06, nRst, 0x02, nCs3, nRst, 0x0A, nC3, 0x02, nRst, nCs3, 0x06, nRst
	.byte	0x02, nC3, nRst, 0x0E, nFs3, 0x04, nAb3, nC4, nEb5, 0x08, nEb5, 0x04
	.byte	nRst, 0x0C, nBb3, nAb2, 0x08, nBb2, 0x04, nRst, 0x08, nBb2, 0x04, nF3
	.byte	0x08, nF3, 0x04, nF4, 0x18, nD4, nB3, 0x08, nRst, 0x04, nB3, 0x08
	.byte	nRst, 0x04, nB3, 0x08, nRst, 0x04, nB3, 0x08, nB3, 0x04, nRst, 0x14
	.byte	nB4, 0x02, nCs5, nBb4, nB4, 0x16
	smpsSetvoice        0x0A
	smpsAlterNote       0xFF
	smpsModSet          0x0A, 0x01, 0x03, 0x06
	.byte	nG4, 0x06, nRst, 0x02, nG4, 0x0C, nG4, 0x04, nRst, 0x08
	smpsSetvoice        0x06
	smpsAlterNote       0xFF
	smpsModSet          0x0A, 0x01, 0x03, 0x06
	.byte	nC4, 0x02, nRst, nBb3, 0x06, nRst, 0x02, nAb3, nRst, 0x0A, nBb3, 0x10
	.byte	nG3, 0x04, nRst, 0x08, nF3, 0x04, nRst, 0x08, nBb3, 0x16, nRst, 0x02
	.byte	nC4, 0x06, nRst, nC4, nRst, 0x02, nF3, 0x10, nC4, 0x04, nCs4, nD4
	.byte	nBb3, 0x08, nBb3, 0x04, nEb4, 0x02, nD4, nC4, nBb3, nAb3, nRst
	smpsSetvoice        0x0A
	smpsAlterNote       0xFF
	smpsModSet          0x0A, 0x01, 0x03, 0x06
	.byte	nG4, 0x12, nRst, 0x02, nG4, nRst, 0x0A
	smpsSetvoice        0x06
	smpsAlterNote       0xFF
	smpsModSet          0x0A, 0x01, 0x03, 0x06
	.byte	nC4, 0x02, nRst, nBb3, 0x06, nRst, 0x02, nAb3, nRst, 0x0A, nBb3, 0x10
	.byte	nG3, 0x04, nRst, 0x08, nF3, 0x04, nRst, 0x08, nG4, 0x18, nF4, nEb4
	.byte	nD4
	smpsSetvoice        0x0A
	smpsAlterNote       0xFF
	smpsModSet          0x0A, 0x01, 0x03, 0x06
	.byte	nG4, 0x06, nRst, 0x02, nG4, 0x0C, nG4, 0x04, nRst, 0x08
	smpsSetvoice        0x06
	smpsAlterNote       0xFF
	smpsModSet          0x0A, 0x01, 0x03, 0x06
	.byte	nC4, 0x02, nRst, nBb3, 0x06, nRst, 0x02, nAb3, nRst, 0x0A, nBb3, 0x10
	.byte	nG3, 0x04, nRst, 0x08, nF3, 0x04, nRst, 0x08, nBb3, 0x16, nRst, 0x02
	.byte	nC4, 0x06, nRst, nC4, nRst, 0x02, nF3, 0x10, nC4, 0x04, nCs4, nD4
	.byte	nBb3, 0x08, nBb3, 0x04, nEb4, 0x02, nD4, nC4, nBb3, nAb3, nRst, 0x0A
	.byte	nEb4, 0x02, nRst, nD4, 0x06, nRst, 0x02, nC4, nRst, 0x0A, nBb3, 0x02
	.byte	nRst, nC4, 0x06, nRst, 0x02, nAb3, nRst, 0x0A, nEb3, 0x04, nAb3, 0x08
	.byte	nEb3, 0x04, nC4, 0x18, nRst, 0x08, nD4, 0x02, nRst, 0x0A, nD4, 0x02
	.byte	nRst, 0x0A, nD4, 0x02, nRst, nD4, 0x0A, nRst, 0x02, nD4, nRst, 0x2E
	smpsJump            Snd_HCZ1_FM5

/*  Unreachable */
	smpsStop

/*  PSG1 Data */
Snd_HCZ1_PSG1:
	smpsPSGvoice        sTone_0A

Snd_HCZ1_Jump02:
	.byte	nC5, 0x04, nRst, nG4, nRst, 0x0C, nC4, 0x04, nRst, 0x08, nG4, 0x04
	.byte	nRst, nC5, nRst, 0x08, nC5, 0x04, nG4, nRst, 0x14, nBb4, 0x04, nRst
	.byte	nC5, nRst, 0x08, nC5, 0x04, nG4, nRst, 0x08, nC4, 0x04, nRst, 0x08
	.byte	nG4, 0x04, nRst, nC5, nRst, 0x08, nF4, 0x02, nRst, nFs4, 0x06, nRst
	.byte	0x02, nG4, nRst, nBb5, nRst, 0x06, nD5, 0x02, nEb5, 0x0E, nC5, 0x04
	.byte	nRst, nG4, nRst, 0x0C, nC4, 0x04, nRst, 0x08, nG4, 0x04, nRst, nC5
	.byte	nRst, 0x08, nC5, 0x04, nG4, nRst, 0x14, nBb4, 0x04, nRst, nC5, nRst
	.byte	0x08, nC5, 0x04, nG4, nRst, 0x08, nC4, 0x04, nRst, 0x08, nG4, 0x04
	.byte	nRst, nC5, nFs4, 0x02, nG4, 0x14, nRst, 0x02, nF4, 0x18, nC5, 0x04
	.byte	nRst, nG4, nRst, 0x0C, nC4, 0x04, nRst, 0x08, nG4, 0x04, nRst, nC5
	.byte	nRst, 0x08, nC5, 0x04, nG4, nRst, 0x14, nBb4, 0x04, nRst, nC5, nRst
	.byte	0x08, nC5, 0x04, nG4, nRst, 0x08, nC4, 0x04, nRst, 0x08, nG4, 0x04
	.byte	nRst, nC5, nRst, 0x08, nF4, 0x02, nRst, nFs4, 0x06, nRst, 0x02, nG4
	.byte	nRst, nBb5, nRst, 0x06, nD5, 0x02, nEb5, 0x0E, nC5, 0x04, nRst, nG4
	.byte	nRst, 0x0C, nC4, 0x04, nRst, 0x08, nG4, 0x04, nRst, nC5, nRst, 0x08
	.byte	nC5, 0x04, nG4, nRst, 0x14, nBb4, 0x04, nRst, nC5, nRst, 0x08, nC5
	.byte	0x04, nG4, nRst, 0x08, nC4, 0x04, nRst, 0x08, nG4, 0x04, nRst, nC5
	.byte	nFs4, 0x02, nG4, 0x14, nRst, 0x02, nF4, 0x18, nAb3, 0x02, nRst, 0x06
	.byte	nAb3, 0x02, nRst, nAb4, nRst, 0x06, nAb3, 0x02, nRst, nAb3, nRst, 0x06
	.byte	nAb3, 0x02, nRst, nFs4, nRst, 0x06, nAb3, 0x02, nRst, 0x0A, nAb3, 0x02
	.byte	nRst, nFs4, nRst, 0x06, nAb3, 0x02, nRst, 0x0A, nAb3, 0x02, nRst, nFs4
	.byte	nRst, 0x06, nAb3, 0x02, nRst, nAb3, nRst, 0x06, nAb3, 0x02, nRst, nAb4
	.byte	nRst, 0x0A, nAb3, 0x02, nRst, 0x0A, nFs4, 0x02, nRst, 0x06, nAb3, 0x02
	.byte	nRst, 0x32, nBb3, 0x02, nRst, 0x06, nBb3, 0x02, nRst, nBb4, nRst, 0x06
	.byte	nBb3, 0x02, nRst, nBb3, nRst, 0x06, nBb3, 0x02, nRst, nAb4, nRst, 0x06
	.byte	nBb3, 0x02, nRst, 0x0A, nBb3, 0x02, nRst, nAb4, nRst, 0x06, nBb3, 0x02
	.byte	nRst, 0x0A, nBb3, 0x02, nRst, nAb4, nRst, 0x06, nBb3, 0x02, nRst, nBb3
	.byte	nRst, 0x06, nBb3, 0x02, nRst, nBb4, nRst, 0x0A, nBb3, 0x02, nRst, 0x0A
	.byte	nAb4, 0x02, nRst, 0x06, nBb3, 0x02, nRst, 0x0E, nAb3, 0x02, nRst, nAb3
	.byte	nRst, nAb3, nRst, nBb3, 0x08, nAb4, 0x04, nBb3, 0x08, nBb4, 0x04, nAb3
	.byte	0x02, nRst, 0x06, nAb3, 0x02, nRst, nAb4, nRst, 0x06, nAb3, 0x02, nRst
	.byte	nAb3, nRst, 0x06, nAb3, 0x02, nRst, nFs4, nRst, 0x06, nAb3, 0x02, nRst
	.byte	0x0A, nAb3, 0x02, nRst, nFs4, nRst, 0x06, nAb3, 0x02, nRst, 0x0A, nAb3
	.byte	0x02, nRst, nFs4, nRst, 0x06, nAb3, 0x02, nRst, nAb3, nRst, 0x06, nAb3
	.byte	0x02, nRst, nAb4, nRst, 0x0A, nAb3, 0x02, nRst, 0x0A, nFs4, 0x02, nRst
	.byte	0x06, nAb3, 0x02, nRst, 0x32, nBb3, 0x02, nRst, 0x06, nBb3, 0x02, nRst
	.byte	nBb4, nRst, 0x06, nBb3, 0x02, nRst, nBb3, nRst, 0x06, nBb3, 0x02, nRst
	.byte	nAb4, nRst, 0x06, nBb3, 0x02, nRst, 0x0A, nBb3, 0x02, nRst, nAb4, nRst
	.byte	0x06, nBb3, 0x02, nRst, 0x0A, nBb3, 0x02, nRst, nAb4, nRst, 0x06, nBb3
	.byte	0x02, nRst, nD4, nRst, 0x0A, nD4, 0x02, nRst, 0x0A, nD4, 0x02, nRst
	.byte	0x0A, nD4, 0x02, nRst, 0x06, nG4, 0x02, nRst, 0x32, nBb4, 0x02, nRst
	.byte	0x06, nBb4, 0x02, nRst, 0x0A, nBb4, 0x02, nRst, 0x0A, nEb4, 0x02, nRst
	.byte	nD4, 0x06, nRst, 0x02, nC4, nRst, 0x0A, nF4, 0x10, nEb4, 0x04, nRst
	.byte	0x08, nD4, 0x04, nRst, 0x08, nC4, 0x18, nEb4, 0x14, nD4, 0x34, nBb4
	.byte	0x02, nRst, 0x06, nBb4, 0x02, nRst, 0x0A, nBb4, 0x02, nRst, 0x0A, nEb4
	.byte	0x02, nRst, nD4, 0x06, nRst, 0x02, nC4, nRst, 0x0A, nF4, 0x10, nEb4
	.byte	0x04, nRst, 0x08, nD4, 0x04, nRst, 0x08, nC3, 0x04, nRst, nG3, nC4
	.byte	nRst, nG4, nBb2, nRst, nF3, nBb3, nRst, nF4, nRst, 0x08, nEb3, 0x04
	.byte	nAb3, nRst, nEb4, nG2, nRst, nD3, nG3, nRst, nD4, nBb4, 0x02, nRst
	.byte	0x06, nBb4, 0x02, nRst, 0x0A, nBb4, 0x02, nRst, 0x0A, nEb4, 0x02, nRst
	.byte	nD4, 0x06, nRst, 0x02, nC4, nRst, 0x0A, nF4, 0x10, nEb4, 0x04, nRst
	.byte	0x08, nD4, 0x04, nRst, 0x08, nC4, 0x18, nEb4, 0x14, nD4, 0x34, nRst
	.byte	0x08, nG4, 0x02, nRst, nF4, 0x06, nRst, 0x02, nEb4, nRst, 0x0A, nD4
	.byte	0x02, nRst, nEb4, 0x06, nRst, 0x02, nC4, nRst, 0x0A, nEb3, 0x04, nAb3
	.byte	0x08, nEb3, 0x04, nEb4, 0x18, nRst, 0x08, nG4, 0x02, nRst, 0x0A, nG4
	.byte	0x02, nRst, 0x0A, nG4, 0x02, nRst, nG4, 0x0A, nRst, 0x02, nG4, nRst
	.byte	0x2E
	smpsJump            Snd_HCZ1_Jump02

/*  Unreachable */
	smpsStop

/*  PSG2 Data */
Snd_HCZ1_PSG2:
	smpsPSGvoice        sTone_0A
	.byte	nRst, 0x01
	smpsAlterNote       0x01

Snd_HCZ1_Jump03:
	smpsJump            Snd_HCZ1_Jump02

/*  Unreachable */
	smpsJump            Snd_HCZ1_Jump03
	smpsStop

/*  PSG3 Data */
Snd_HCZ1_PSG3:
	smpsPSGvoice        sTone_02
	smpsPSGform         0xE7

Snd_HCZ1_Loop01:
	smpsPSGvoice        sTone_01
	.byte	nMaxPSG1, 0x08, nMaxPSG1, 0x04
	smpsPSGvoice        sTone_08
	.byte	nMaxPSG1, 0x08
	smpsPSGvoice        sTone_01
	.byte	nMaxPSG1, 0x04
	smpsLoop            0x01, 0x24, Snd_HCZ1_Loop01

Snd_HCZ1_Loop02:
	smpsPSGvoice        sTone_01
	.byte	nMaxPSG1, 0x08, nMaxPSG1, 0x04, nMaxPSG1, 0x08, nMaxPSG1, 0x04, nMaxPSG1, 0x08, nMaxPSG1, 0x04
	.byte	nMaxPSG1, 0x08, nMaxPSG1, 0x04, nMaxPSG1, 0x08, nMaxPSG1, 0x04, nMaxPSG1, 0x08, nMaxPSG1, 0x04
	.byte	nMaxPSG1, 0x08, nMaxPSG1, 0x04
	smpsPSGvoice        sTone_08
	.byte	nMaxPSG1, 0x08
	smpsPSGvoice        sTone_01
	.byte	nMaxPSG1, 0x04
	smpsLoop            0x01, 0x02, Snd_HCZ1_Loop02
	.byte	nMaxPSG1, 0x08, nMaxPSG1, 0x04, nMaxPSG1, 0x08, nMaxPSG1, 0x04, nMaxPSG1, 0x08, nMaxPSG1, 0x04
	.byte	nMaxPSG1, 0x08, nMaxPSG1, 0x34

Snd_HCZ1_Loop03:
	smpsPSGvoice        sTone_01
	.byte	nMaxPSG1, 0x08, nMaxPSG1, 0x04, nMaxPSG1, 0x08, nMaxPSG1, 0x04, nMaxPSG1, 0x08, nMaxPSG1, 0x04
	.byte	nMaxPSG1, 0x08, nMaxPSG1, 0x04, nMaxPSG1, 0x08, nMaxPSG1, 0x04, nMaxPSG1, 0x08, nMaxPSG1, 0x04
	.byte	nMaxPSG1, 0x08, nMaxPSG1, 0x04
	smpsPSGvoice        sTone_08
	.byte	nMaxPSG1, 0x08
	smpsPSGvoice        sTone_01
	.byte	nMaxPSG1, 0x04
	smpsLoop            0x01, 0x02, Snd_HCZ1_Loop03
	.byte	nMaxPSG1, 0x08, nMaxPSG1, 0x04, nMaxPSG1, 0x08, nMaxPSG1, 0x04, nMaxPSG1, 0x08, nMaxPSG1, 0x04
	.byte	nMaxPSG1, 0x08, nMaxPSG1, 0x04, nMaxPSG1, 0x08, nMaxPSG1, 0x04, nMaxPSG1, 0x08, nMaxPSG1, 0x04
	.byte	nMaxPSG1, 0x08, nMaxPSG1, 0x04
	smpsPSGvoice        sTone_08
	.byte	nMaxPSG1, 0x08
	smpsPSGvoice        sTone_01
	.byte	nMaxPSG1, 0x64

Snd_HCZ1_Loop04:
	smpsPSGvoice        sTone_01
	.byte	nMaxPSG1, 0x08, nMaxPSG1, 0x04
	smpsPSGvoice        sTone_08
	.byte	nMaxPSG1, 0x08
	smpsPSGvoice        sTone_01
	.byte	nMaxPSG1, 0x04, nMaxPSG1, 0x08, nMaxPSG1, 0x04
	smpsPSGvoice        sTone_08
	.byte	nMaxPSG1, 0x08
	smpsPSGvoice        sTone_01
	.byte	nMaxPSG1, 0x04
	smpsLoop            0x01, 0x0E, Snd_HCZ1_Loop04
	.byte	nRst, 0x60
	smpsJump            Snd_HCZ1_Loop01

/*  Unreachable */
	smpsStop
