Snd_HCZ2_Header:
	smpsHeaderStartSong 3
	smpsHeaderVoiceUVB
	smpsHeaderChan      0x06, 0x03
	smpsHeaderTempo     0x01, 0x25

	smpsHeaderDAC       Snd_HCZ2_DAC
	smpsHeaderFM        Snd_HCZ2_FM1,	0x18, 0x0F
	smpsHeaderFM        Snd_HCZ2_FM2,	0x18, 0x0A
	smpsHeaderFM        Snd_HCZ2_FM3,	0x18, 0x13
	smpsHeaderFM        Snd_HCZ2_FM4,	0x0C, 0x0F
	smpsHeaderFM        Snd_HCZ2_FM5,	0x0C, 0x0C
	smpsHeaderPSG       Snd_HCZ2_PSG1,	0xF4, 0x04, 0x00, sTone_0C
	smpsHeaderPSG       Snd_HCZ2_PSG2,	0xF4, 0x04, 0x00, sTone_0C
	smpsHeaderPSG       Snd_HCZ2_PSG3,	0x00, 0x03, 0x00, sTone_0C

/*  Unreachable */
	smpsStop
	smpsStop

/*  DAC Data */
Snd_HCZ2_DAC:
	.byte	dKickS3, 0x06
	smpsPan             panLeft, 0x00
	.byte	dHighTom, 0x02, dHighTom, 0x04, dHighTom, 0x06, dHighTom, dHighTom, dHighTom
	smpsPan             panCenter, 0x00
	.byte	dMidTomS3, dMidTomS3, dMidTomS3, dMidTomS3, dMidTomS3, dLowTomS3
	smpsPan             panRight, 0x00
	.byte	dLowTomS3, 0x02, dLowTomS3, 0x04, dLowTomS3, 0x06, dFloorTomS3, dFloorTomS3
	smpsPan             panCenter, 0x00
	.byte	dKickS3, 0x0C, dSnareS3, 0x1E, dKickS3, 0x0C, dKickS3, 0x12, dKickS3, 0x0C, dSnareS3
	smpsLoop            0x00, 0x02, Snd_HCZ2_DAC

Snd_HCZ2_Loop00:
	.byte	dKickS3, 0x18, dSnareS3, 0x06, dKickS3, 0x0C, dKickS3, dKickS3, 0x12, dSnareS3, 0x0C, dKickS3
	smpsLoop            0x00, 0x03, Snd_HCZ2_Loop00
	.byte	dKickS3, 0x24, dSnareS3, 0x06, dKickS3, 0x0C, dKickS3, 0x12, dKickS3, 0x0C, dSnareS3

Snd_HCZ2_Loop01:
	.byte	dKickS3, 0x18, dSnareS3, 0x06, dKickS3, 0x0C, dKickS3, dKickS3, 0x12, dSnareS3, 0x0C, dKickS3
	smpsLoop            0x00, 0x02, Snd_HCZ2_Loop01
	.byte	dKickS3, 0x18, dSnareS3, 0x06, dKickS3, 0x0C, dKickS3, dKickS3, 0x12, dSnareS3, 0x0C, dKickS3
	.byte	0x06, dSnareS3, 0x0C, dKickS3, dKickS3, 0x06, dHighTom, dMidTomS3, dLowTomS3, dSnareS3, 0x18, 0x0C
	.byte	0x02, 0x04, 0x06, dSnareS3
	smpsCall            Snd_HCZ2_Call00
	.byte	dKickS3, 0x18, dSnareS3, 0x06, dKickS3, 0x0C, dKickS3, 0x1E, dSnareS3, 0x0C, dKickS3, 0x12
	.byte	dSnareS3, dSnareS3, 0x0C, dSnareS3, 0x06, dSnareS3, 0x0C, dSnareS3, 0x12, dSnareS3, 0x06, dSnareS3
	.byte	dSnareS3, dSnareS3
	smpsCall            Snd_HCZ2_Call00
	.byte	dKickS3, 0x18, dSnareS3, 0x06, dKickS3, 0x0C, dKickS3, 0x1E, dSnareS3, 0x0C, dKickS3, 0x06
	.byte	dKickS3, 0x0C, dKickS3, dKickS3, 0x06, dSnareS3, dKickS3, dKickS3, dSnareS3, dKickS3, dKickS3, 0x0C
	.byte	dSnareS3, dSnareS3, 0x06, dSnareS3, dSnareS3

Snd_HCZ2_Loop02:
	smpsCall            Snd_HCZ2_Call01
	smpsLoop            0x00, 0x02, Snd_HCZ2_Loop02
	smpsCall            Snd_HCZ2_Call01
	.byte	dKickS3, 0x0C, dSnareS3, dKickS3, 0x06, dSnareS3, 0x0C, 0x06, dKickS3, dSnareS3, 0x12, 0x04
	.byte	dSnareS3, dSnareS3, dSnareS3, 0x06, dSnareS3

Snd_HCZ2_Loop03:
	smpsCall            Snd_HCZ2_Call01
	smpsLoop            0x00, 0x02, Snd_HCZ2_Loop03
	.byte	dKickS3, 0x12, 0x06, dSnareS3, 0x1E, dKickS3, 0x06, 0x0C, dSnareS3, 0x1E, 0x0C, 0x0C
	.byte	0x06, 0x0C, 0x18, 0x02, 0x02, 0x02, 0x06, 0x06, 0x06
	smpsJump            Snd_HCZ2_DAC

/*  Unreachable */
	smpsStop

Snd_HCZ2_Call00:
	.byte	dKickS3, 0x18, dSnareS3, 0x06, dKickS3, 0x0C, dKickS3, 0x1E, dSnareS3, 0x0C, dKickS3, dKickS3
	.byte	0x18, dSnareS3, 0x06, dKickS3, 0x0C, dKickS3, 0x1E, dSnareS3, 0x0C, dKickS3
	smpsReturn

Snd_HCZ2_Call01:
	.byte	dKickS3, 0x12, dKickS3, 0x06, dSnareS3, 0x1E, dKickS3, 0x06, dKickS3, 0x0C, dSnareS3, 0x18
	smpsReturn

/*  FM1 Data */
Snd_HCZ2_FM1:
	smpsSetvoice        0x03
	smpsAlterNote       0xFE
	smpsModSet          0x0F, 0x01, 0x06, 0x06
	smpsCall            Snd_HCZ2_Call02
	smpsSetvoice        0x0E
	smpsAlterNote       0x01
	smpsModSet          0x0F, 0x01, 0x06, 0x06
	smpsCall            Snd_HCZ2_Call03
	smpsSetvoice        0x03
	smpsAlterNote       0xFE
	smpsModSet          0x0F, 0x01, 0x06, 0x06
	smpsCall            Snd_HCZ2_Call04
	smpsJump            Snd_HCZ2_FM1

Snd_HCZ2_Call02:
	.byte	nRst, 0x7F, nRst, nRst, 0x76, nG4, 0x06, nBb4, nC5, nG4, nF4, 0x02
	.byte	nEb4, nD4, nC4, nBb3, nA3, nG3, nRst, 0x04, nBb3, 0x06, nC4, nG3
	.byte	nF3, 0x02, nFs3, 0x04, nF3, 0x06, nEb3, nC3, nG3, 0x02, nA3, nBb3
	.byte	0x08, nBb3, 0x02, nBb3, 0x04, nA3, 0x12, nG3, 0x02, nFs3, nF3, nEb3
	.byte	nD3, nC3, nBb2, nA2, nG2, nRst, 0x36, nBb3, 0x06, nB3, nC4, nFs3
	.byte	0x02, nG3, 0x04, nF3, 0x02, nEb3, nC3, nBb2, nA2, nG2, nF2, nEb2
	.byte	0x04, nF3, 0x02, nFs3, 0x04, nF3, 0x06, nEb3, nF3, nEb3, nC3, nBb2
	.byte	nG3, 0x0C, nG3, 0x06, nC4, 0x12, nA3, 0x02, nG3, nF3, nEb3, nD3
	.byte	nC3, nRst, 0x3C, nG4, 0x06, nBb4, nC5, nG4, nF4, 0x02, nEb4, nD4
	.byte	nC4, nBb3, nA3, nG3, nRst, 0x04, nBb3, 0x06, nC4, nG3, nF3, 0x02
	.byte	nFs3, 0x04, nF3, 0x06, nEb3, nC3, nG3, 0x02, nA3, nBb3, 0x08, nBb3
	.byte	0x02, nBb3, 0x04, nA3, 0x12, nG3, 0x02, nF3, nEb3, nD3, nC3, nBb2
	.byte	nA2, nG2, nF2, nRst, 0x36, nBb3, 0x06, nB3, nC4, nFs3, 0x02, nG3
	.byte	0x04, nF3, 0x02, nEb3, nC3, nBb2, nA2, nG2, nF2, nEb2, 0x04, nF3
	.byte	0x02, nFs3, 0x04, nF3, 0x06, nEb3, nF3, nEb3, nC3, nBb2, nG3, 0x0C
	.byte	nG3, 0x06, nEb3, 0x12, nD3, 0x02, nC3, nBb2, nA2, nG2, nF2, nRst
	.byte	0x1E
	smpsReturn

Snd_HCZ2_Call03:
	smpsAlterPitch      0xF4
	.byte	nF3, 0x06, nFs3, 0x02, nG3, 0x04, nBb3, 0x06, nEb4, nF4, nG4, nBb4
	.byte	nD5, 0x02, nEb5, 0x08, nRst, 0x02, nF5, 0x04, nRst, 0x02, nFs5, nG5
	.byte	0x08, nRst, 0x02, nC5, 0x0A, nRst, 0x02, nFs5, nG5, 0x26, nRst, 0x02
	.byte	nF5, 0x04, nRst, 0x02, nEb5, 0x04, nRst, 0x02, nCs5, nD5, 0x26, nRst
	.byte	0x02, nBb4, 0x34, nRst, 0x02, nCs5, nD5, 0x08, nRst, 0x02, nEb5, 0x04
	.byte	nRst, 0x02, nE5, nF5, 0x08, nRst, 0x02, nBb4, 0x0A, nRst, 0x02, nF5
	.byte	nF5, 0x26, nRst, 0x02, nEb5, 0x04, nRst, 0x02, nD5, 0x04, nRst, 0x02
	.byte	nC5, 0x2E, nRst, 0x08, nD5, 0x10, nRst, 0x02, nEb5, 0x0A, nRst, 0x02
	.byte	nF5, 0x0A, nRst, 0x02, nD5, nEb5, 0x08, nRst, 0x02, nF5, 0x04, nRst
	.byte	0x02, nFs5, nG5, 0x08, nRst, 0x02, nC5, 0x0A, nRst, 0x02, nG5, 0x28
	.byte	nRst, 0x02, nF5, 0x04, nRst, 0x02, nEb5, 0x04, nRst, 0x02, nCs5, nD5
	.byte	0x26, nRst, 0x02, nEb5, 0x1C, nRst, 0x0E, nEb5, 0x04, nRst, 0x02, nF5
	.byte	0x04, nRst, 0x02, nFs5, nG5, 0x08, nRst, 0x02, nEb5, 0x04, nRst, 0x02
	.byte	nG5, 0x0A, nRst, 0x02, nBb4, 0x0A, nRst, 0x02, nC5, 0x28, nRst, 0x02
	.byte	nEb5, 0x04, nRst, 0x02, nF5, 0x04, nRst, 0x02, nG5, 0x2E, nRst, 0x02
	.byte	nF5, 0x12, nEb5, 0x02, nD5, nC5, nBb4, nAb4, nG4, nF4, nEb4, nD4
	smpsReturn

Snd_HCZ2_Call04:
	smpsAlterPitch      0x0C
	.byte	nC4, 0x04, nRst, 0x02, nD4, 0x04, nRst, 0x02, nEb4, 0x0C, nD4, 0x02
	.byte	nC4, nBb3, nAb3, nG3, nF3, nC4, 0x0A, nRst, 0x02, nEb4, 0x04, nRst
	.byte	0x02, nE4, nF4, nRst, 0x08, nD4, 0x10, nRst, 0x02, nC4, 0x04, nRst
	.byte	0x08, nBb3, 0x04, nRst, 0x08, nFs3, 0x02, nG3, 0x14, nRst, 0x02, nFs3
	.byte	nG3, 0x08, nRst, 0x02, nF3, 0x04, nRst, 0x02, nFs3, nG3, 0x28, nC4
	.byte	0x04, nRst, 0x02, nD4, 0x04, nRst, 0x02, nEb4, 0x0C, nD4, 0x02, nC4
	.byte	nBb3, nAb3, nG3, nF3, nC4, 0x0A, nRst, 0x02, nEb4, 0x04, nRst, 0x02
	.byte	nE4, nF4, nRst, 0x08, nD4, 0x10, nRst, 0x02, nC4, 0x04, nRst, 0x08
	.byte	nB3, 0x04, nRst, 0x08, nC4, 0x10, nRst, 0x02, nC4, 0x04, nRst, 0x02
	.byte	nD4, 0x0A, nRst, 0x02, nC4, 0x04, nRst, 0x02, nD4, 0x04, nRst, 0x08
	.byte	nEb4, 0x10, nRst, 0x02, nF4, 0x0A, nRst, 0x02, nC4, 0x04, nRst, 0x02
	.byte	nD4, 0x04, nRst, 0x02, nEb4, 0x0C, nD4, 0x02, nC4, nBb3, nAb3, nG3
	.byte	nF3, nC4, 0x0A, nRst, 0x02, nEb4, 0x04, nRst, 0x02, nE4, nF4, nRst
	.byte	0x08, nD4, 0x10, nRst, 0x02, nC4, 0x04, nRst, 0x08, nBb3, 0x04, nRst
	.byte	0x08, nFs3, 0x02, nG3, 0x14, nRst, 0x02, nFs3, nG3, 0x08, nRst, 0x02
	.byte	nF3, 0x04, nRst, 0x02, nFs3, nG3, 0x28, nC4, 0x04, nRst, 0x02, nD4
	.byte	0x04, nRst, 0x02, nEb4, 0x10, nRst, 0x02, nEb4, 0x04, nRst, 0x08, nD4
	.byte	0x04, nRst, 0x02, nEb4, 0x10, nRst, 0x02, nEb4, 0x04, nRst, 0x02, nF4
	.byte	0x0A, nRst, 0x02, nEb4, 0x04, nRst, 0x08, nAb4, 0x04, nRst, 0x0E, nC5
	.byte	0x04, nRst, 0x08, nC5, 0x04, nRst, 0x08, nC5, 0x04, nRst, 0x02, nC5
	.byte	0x0A, nRst, 0x02, nB4, 0x04, nRst, 0x2C
	smpsReturn

/*  Unreachable */
	smpsStop

/*  FM2 Data */
Snd_HCZ2_FM2:
	smpsSetvoice        0x15
	smpsAlterNote       0x00
	smpsModSet          0x0F, 0x01, 0x06, 0x06
	.byte	nC1, 0x0A, nRst, 0x02, nEb1, nRst, 0x04, nC1, 0x10, nRst, 0x02, nEb1
	.byte	nRst, 0x04, nF1, nRst, 0x08, nEb1, 0x10, nRst, 0x02, nF1, 0x16, nRst
	.byte	0x02, nC1, 0x0A, nRst, 0x02, nA0, nRst, 0x04, nC1, 0x12, nA0, 0x04
	.byte	nRst, 0x02, nBb0, 0x04, nRst, 0x08, nG0, 0x10, nRst, 0x02, nBb0, 0x16
	.byte	nRst, 0x02, nC1, 0x0A, nRst, 0x02, nEb1, nRst, 0x04, nC1, 0x10, nRst
	.byte	0x02, nEb1, nRst, 0x04, nF1, nRst, 0x08, nEb1, 0x10, nRst, 0x02, nF1
	.byte	0x16, nRst, 0x02, nC1, 0x0A, nRst, 0x02, nA0, nRst, 0x04, nC1, 0x12
	.byte	nA0, 0x04, nRst, 0x02, nBb0, 0x04, nRst, 0x08, nG0, 0x10, nRst, 0x02
	.byte	nBb0, 0x16, nRst, 0x02, nC1, 0x0A, nRst, 0x02, nEb1, nRst, 0x04, nC1
	.byte	0x10, nRst, 0x02, nEb1, nRst, 0x04, nF1, nRst, 0x08, nEb1, 0x10, nRst
	.byte	0x02, nF1, 0x16, nRst, 0x02, nC1, 0x0A, nRst, 0x02, nA0, nRst, 0x04
	.byte	nC1, 0x12, nA0, 0x04, nRst, 0x02, nBb0, 0x04, nRst, 0x08, nG0, 0x10
	.byte	nRst, 0x02, nBb0, 0x16, nRst, 0x02, nC1, 0x0A, nRst, 0x02, nEb1, nRst
	.byte	0x04, nC1, 0x10, nRst, 0x02, nEb1, nRst, 0x04, nF1, nRst, 0x08, nEb1
	.byte	0x10, nRst, 0x02, nF1, 0x16, nRst, 0x02, nC1, 0x0A, nRst, 0x02, nA0
	.byte	nRst, 0x04, nC1, 0x12, nA0, 0x04, nRst, 0x02, nBb0, 0x04, nRst, 0x08
	.byte	nG0, 0x10, nRst, 0x02, nBb0, 0x16, nRst, 0x02, nC1, 0x0A, nRst, 0x02
	.byte	nEb1, nRst, 0x04, nC1, 0x10, nRst, 0x02, nEb1, 0x04, nRst, 0x02, nF1
	.byte	0x04, nRst, 0x08, nEb1, 0x10, nRst, 0x02, nF1, 0x16, nRst, 0x02, nC1
	.byte	0x0A, nRst, 0x02, nA0, nRst, 0x04, nC1, 0x12, nA0, 0x04, nRst, 0x02
	.byte	nBb0, 0x04, nRst, 0x08, nG0, 0x10, nRst, 0x02, nBb0, 0x16, nRst, 0x02
	.byte	nC1, 0x0A, nRst, 0x02, nEb1, nRst, 0x04, nC1, 0x10, nRst, 0x02, nEb1
	.byte	0x04, nRst, 0x02, nF1, 0x04, nRst, 0x08, nEb1, 0x10, nRst, 0x02, nF1
	.byte	0x10, nRst, 0x02, nEb1, 0x04, nRst, 0x08, nC2, 0x04, nRst, 0x02, nBb1
	.byte	0x04, nRst, 0x02, nG1, 0x04, nRst, 0x02, nF1, 0x04, nFs1, nF1, nEb1
	.byte	0x06, nC1, 0x04, nRst, 0x14, nG0, 0x1C, nRst, 0x02, nAb0, 0x0A, nRst
	.byte	0x02, nAb0, nRst, 0x04, nAb1, nRst, 0x08, nAb0, 0x04, nRst, 0x08, nAb0
	.byte	0x04, nRst, 0x08, nAb1, 0x04, nRst, 0x02, nAb0, 0x16, nRst, 0x02, nAb0
	.byte	0x04, nRst, 0x08, nG0, 0x0A, nRst, 0x02, nG0, nRst, 0x04, nG1, nRst
	.byte	0x08, nG0, 0x04, nRst, 0x08, nG0, 0x04, nRst, 0x08, nG1, 0x04, nRst
	.byte	0x02, nG0, 0x16, nRst, 0x02, nG0, 0x04, nRst, 0x08, nBb0, 0x0A, nRst
	.byte	0x02, nBb0, nRst, 0x04, nBb1, nRst, 0x08, nBb0, 0x04, nRst, 0x08, nBb0
	.byte	0x04, nRst, 0x08, nBb1, 0x04, nRst, 0x02, nBb0, 0x10, nRst, 0x02, nBb0
	.byte	nRst, 0x04, nBb0, nRst, 0x0E, nC1, 0x04, nRst, 0x0E, nC1, 0x04, nRst
	.byte	0x08, nC2, 0x04, nRst, 0x02, nC1, 0x04, nRst, 0x08, nC2, 0x10, nRst
	.byte	0x02, nC1, 0x0A, nRst, 0x02, nC2, 0x0A, nRst, 0x02, nAb0, 0x0A, nRst
	.byte	0x02, nAb0, nRst, 0x04, nAb1, nRst, 0x08, nAb0, 0x04, nRst, 0x08, nAb0
	.byte	0x04, nRst, 0x08, nAb1, 0x04, nRst, 0x02, nAb0, 0x16, nRst, 0x02, nAb0
	.byte	0x04, nRst, 0x08, nG0, 0x0A, nRst, 0x02, nG0, nRst, 0x04, nG1, nRst
	.byte	0x08, nG0, 0x04, nRst, 0x08, nG0, 0x04, nRst, 0x08, nG1, 0x04, nRst
	.byte	0x02, nG0, 0x16, nRst, 0x02, nG0, 0x04, nRst, 0x08, nF0, 0x0A, nRst
	.byte	0x02, nF0, nRst, 0x04, nF1, nRst, 0x08, nF0, 0x04, nRst, 0x08, nF0
	.byte	0x04, nRst, 0x08, nF1, 0x04, nRst, 0x02, nF0, 0x16, nRst, 0x02, nF0
	.byte	nRst, 0x04, nAb0, nRst, 0x08, nAb0, 0x04, nRst, 0x08, nAb0, 0x04, nRst
	.byte	0x08, nAb0, 0x04, nRst, 0x02, nAb0, 0x0A, nRst, 0x02, nG0, 0x04, nRst
	.byte	0x02, nG0, 0x04, nRst, 0x08, nG0, 0x04, nRst, 0x08, nG1, 0x04, nRst
	.byte	0x02, nG0, 0x04, nRst, 0x02, nG0, 0x04, nRst, 0x02, nF0, 0x10, nRst
	.byte	0x02, nF0, nRst, 0x22, nG0, 0x02, nRst, 0x04, nG1, 0x0A, nRst, 0x02
	.byte	nG0, 0x16, nRst, 0x02, nAb0, 0x10, nRst, 0x02, nAb0, nRst, 0x22, nBb0
	.byte	0x02, nRst, 0x04, nBb1, 0x0A, nRst, 0x02, nBb0, 0x0A, nRst, 0x02, nBb1
	.byte	0x0A, nRst, 0x02, nF0, 0x10, nRst, 0x02, nF0, nRst, 0x22, nG0, 0x02
	.byte	nRst, 0x04, nG1, 0x0A, nRst, 0x02, nG0, 0x16, nRst, 0x02, nC1, 0x10
	.byte	nRst, 0x02, nC2, nRst, 0x04, nBb0, 0x10, nRst, 0x02, nBb1, nRst, 0x0A
	.byte	nAb0, 0x02, nRst, 0x04, nAb1, 0x0A, nRst, 0x02, nG0, 0x0A, nRst, 0x02
	.byte	nG1, 0x0A, nRst, 0x02, nF0, 0x10, nRst, 0x02, nF0, nRst, 0x22, nG0
	.byte	0x02, nRst, 0x04, nG1, 0x0A, nRst, 0x02, nG0, 0x16, nRst, 0x02, nAb0
	.byte	0x10, nRst, 0x02, nAb0, nRst, 0x22, nBb0, 0x02, nRst, 0x04, nBb1, 0x0A
	.byte	nRst, 0x02, nBb0, 0x0A, nRst, 0x02, nBb1, 0x0A, nRst, 0x02, nAb0, 0x10
	.byte	nRst, 0x02, nAb0, nRst, 0x22, nF0, 0x02, nRst, 0x04, nF0, 0x0A, nRst
	.byte	0x02, nEb0, 0x0A, nRst, 0x02, nF0, 0x0A, nRst, 0x08, nG0, 0x04, nRst
	.byte	0x08, nG0, 0x04, nRst, 0x08, nG0, 0x04, nRst, 0x02, nG0, 0x0A, nRst
	.byte	0x02, nG0, 0x04, nRst, 0x14, nF0, 0x04, nRst, 0x02, nFs0, 0x04, nRst
	.byte	0x02, nG0, 0x04, nRst, 0x02, nBb0, 0x04, nRst, 0x02
	smpsJump            Snd_HCZ2_FM2

/*  Unreachable */
	smpsStop

/*  FM3 Data */
Snd_HCZ2_FM3:
	.byte	nRst, 0x07

Snd_HCZ2_Jump00:
	smpsSetvoice        0x03
	smpsAlterNote       0x02
	smpsModSet          0x0F, 0x01, 0x06, 0x06
	smpsCall            Snd_HCZ2_Call02
	smpsSetvoice        0x0E
	smpsAlterNote       0xFF
	smpsModSet          0x0F, 0x01, 0x06, 0x06
	smpsCall            Snd_HCZ2_Call03
	smpsSetvoice        0x03
	smpsAlterNote       0x02
	smpsModSet          0x0F, 0x01, 0x06, 0x06
	smpsCall            Snd_HCZ2_Call04
	smpsJump            Snd_HCZ2_Jump00

/*  Unreachable */
	smpsStop

/*  FM4 Data */
Snd_HCZ2_FM4:
	smpsSetvoice        0x06
	smpsAlterNote       0x01
	smpsModSet          0x0A, 0x01, 0x03, 0x06
	.byte	nF3, 0x04, nRst, 0x08, nF3, 0x04, nRst, 0x0E, nF3, 0x04, nRst, 0x02
	.byte	nF3, nRst, 0x04, nF3, 0x0A, nRst, 0x02, nF3, 0x0A, nRst, 0x02, nBb2
	.byte	0x04, nRst, 0x02, nF3, 0x04, nRst, 0x08, nF3, 0x04, nRst, 0x08, nEb3
	.byte	0x04, nRst, 0x08, nEb3, 0x04, nRst, 0x0E, nEb3, 0x04, nRst, 0x02, nEb3
	.byte	nRst, 0x04, nE3, nRst, 0x08, nE3, 0x10, nRst, 0x02, nE3, 0x04, nRst
	.byte	0x08, nE3, 0x04, nRst, 0x08, nF3, 0x04, nRst, 0x08, nF3, 0x04, nRst
	.byte	0x0E, nF3, 0x04, nRst, 0x02, nF3, nRst, 0x04, nF3, 0x0A, nRst, 0x02
	.byte	nF3, 0x0A, nRst, 0x02, nBb2, 0x04, nRst, 0x02, nF3, 0x04, nRst, 0x08
	.byte	nF3, 0x04, nRst, 0x08, nEb3, 0x04, nRst, 0x08, nEb3, 0x04, nRst, 0x0E
	.byte	nEb3, 0x04, nRst, 0x02, nEb3, nRst, 0x04, nE3, nRst, 0x08, nE3, 0x10
	.byte	nRst, 0x02, nE3, 0x04, nRst, 0x08, nE3, 0x04, nRst, 0x08, nF3, 0x04
	.byte	nRst, 0x08, nF3, 0x04, nRst, 0x0E, nF3, 0x04, nRst, 0x02, nF3, nRst
	.byte	0x04, nF3, 0x0A, nRst, 0x02, nF3, 0x0A, nRst, 0x02, nBb2, 0x04, nRst
	.byte	0x02, nF3, 0x04, nRst, 0x08, nF3, 0x04, nRst, 0x08, nEb3, 0x04, nRst
	.byte	0x08, nEb3, 0x04, nRst, 0x0E, nEb3, 0x04, nRst, 0x02, nEb3, nRst, 0x04
	.byte	nE3, nRst, 0x08, nE3, 0x10, nRst, 0x02, nE3, 0x04, nRst, 0x08, nE3
	.byte	0x04, nRst, 0x08, nF3, 0x04, nRst, 0x08, nF3, 0x04, nRst, 0x0E, nF3
	.byte	0x04, nRst, 0x02, nF3, nRst, 0x04, nF3, 0x0A, nRst, 0x02, nF3, 0x0A
	.byte	nRst, 0x02, nBb2, 0x04, nRst, 0x02, nF3, 0x04, nRst, 0x08, nF3, 0x04
	.byte	nRst, 0x08, nEb3, 0x04, nRst, 0x08, nEb3, 0x04, nRst, 0x0E, nEb3, 0x04
	.byte	nRst, 0x02, nEb3, nRst, 0x04, nE3, nRst, 0x08, nE3, 0x10, nRst, 0x02
	.byte	nE3, 0x04, nRst, 0x08, nE3, 0x04, nRst, 0x08, nF3, 0x04, nRst, 0x08
	.byte	nF3, 0x04, nRst, 0x0E, nF3, 0x04, nRst, 0x02, nF3, nRst, 0x04, nF3
	.byte	0x0A, nRst, 0x02, nF3, 0x0A, nRst, 0x02, nBb2, 0x04, nRst, 0x02, nF3
	.byte	0x04, nRst, 0x08, nF3, 0x04, nRst, 0x08, nEb3, 0x04, nRst, 0x08, nEb3
	.byte	0x04, nRst, 0x0E, nEb3, 0x04, nRst, 0x02, nEb3, nRst, 0x04, nE3, nRst
	.byte	0x08, nE3, 0x10, nRst, 0x02, nE3, 0x04, nRst, 0x08, nE3, 0x04, nRst
	.byte	0x08, nF3, 0x04, nRst, 0x08, nF3, 0x04, nRst, 0x0E, nF3, 0x04, nRst
	.byte	0x02, nF3, nRst, 0x04, nF3, 0x0A, nRst, 0x02, nF3, 0x0A, nRst, 0x02
	.byte	nBb2, 0x04, nRst, 0x02, nF3, 0x04, nRst, 0x08, nF3, 0x04, nRst, 0x02
	.byte	nEb3, 0x04, nRst, 0x08, nC4, 0x06, nBb3, nG3, nF3, 0x04, nFs3, nF3
	.byte	nEb3, 0x06, nC3, nRst, 0x12, nF3, 0x1E, nEb3, 0x0A, nRst, 0x02, nD3
	.byte	0x04, nRst, 0x02, nEb3, 0x0A, nRst, 0x02, nD3, 0x0A, nRst, 0x02, nEb3
	.byte	0x04, nRst, 0x0E, nC4, 0x04, nRst, 0x02, nC4, 0x04, nRst, 0x08, nD4
	.byte	0x02, nRst, 0x04, nEb4, 0x0A, nRst, 0x02, nD3, 0x0A, nRst, 0x02, nF3
	.byte	0x04, nRst, 0x02, nD3, 0x0A, nRst, 0x02, nF3, 0x0A, nRst, 0x02, nD3
	.byte	0x04, nRst, 0x0E, nBb3, 0x04, nRst, 0x02, nBb3, 0x04, nRst, 0x08, nC4
	.byte	0x02, nRst, 0x04, nD4, 0x0A, nRst, 0x02, nD3, 0x0A, nRst, 0x02, nC3
	.byte	0x04, nRst, 0x02, nD3, 0x0A, nRst, 0x02, nC3, 0x0A, nRst, 0x02, nD3
	.byte	0x04, nRst, 0x0E, nD4, 0x04, nRst, 0x02, nD4, 0x04, nRst, 0x08, nEb4
	.byte	0x02, nRst, 0x04, nF4, 0x0A, nRst, 0x08, nBb3, 0x04, nRst, 0x0E, nBb3
	.byte	0x0A, nRst, 0x02, nBb3, 0x04, nRst, 0x02, nBb3, 0x04, nRst, 0x08, nBb3
	.byte	0x10, nRst, 0x02, nEb3, 0x0A, nRst, 0x02, nF3, 0x0A, nRst, 0x02, nEb3
	.byte	0x0A, nRst, 0x02, nD3, 0x04, nRst, 0x02, nEb3, 0x0A, nRst, 0x02, nD3
	.byte	0x0A, nRst, 0x02, nEb3, 0x04, nRst, 0x0E, nC4, 0x04, nRst, 0x02, nC4
	.byte	0x04, nRst, 0x08, nD4, 0x02, nRst, 0x04, nEb4, 0x0A, nRst, 0x02, nD3
	.byte	0x0A, nRst, 0x02, nF3, 0x04, nRst, 0x02, nD3, 0x0A, nRst, 0x02, nF3
	.byte	0x0A, nRst, 0x02, nBb2, 0x04, nRst, 0x0E, nBb3, 0x04, nRst, 0x02, nBb3
	.byte	0x04, nRst, 0x08, nEb4, 0x02, nRst, 0x04, nG4, 0x0A, nRst, 0x02, nEb3
	.byte	0x0A, nRst, 0x02, nBb2, 0x04, nRst, 0x02, nEb3, 0x0A, nRst, 0x02, nBb2
	.byte	0x0A, nRst, 0x02, nC3, 0x04, nRst, 0x0E, nA3, 0x04, nRst, 0x02, nA3
	.byte	0x04, nRst, 0x08, nC4, 0x02, nRst, 0x04, nEb4, 0x0A, nRst, 0x08, nEb4
	.byte	0x04, nRst, 0x08, nEb4, 0x04, nRst, 0x08, nEb4, 0x04, nRst, 0x02, nEb4
	.byte	0x0A, nRst, 0x02, nB3, 0x04, nRst, 0x02, nB3, 0x04, nRst, 0x08, nB3
	.byte	0x04, nRst, 0x0E, nEb3, 0x04, nRst, 0x02, nF3, 0x04, nRst, 0x08, nG3
	.byte	0x04, nRst, 0x02, nF3, 0x04, nRst, 0x02, nEb3, 0x04, nRst, 0x08, nD3
	.byte	0x04, nRst, 0x02, nEb3, 0x04, nRst, 0x02, nC3, 0x04, nRst, 0x08, nBb3
	.byte	0x10, nRst, 0x02, nG3, 0x04, nRst, 0x08, nF3, 0x04, nRst, 0x0E, nD4
	.byte	0x04, nRst, 0x02, nBb3, 0x04, nRst, 0x02, nG3, 0x04, nRst, 0x02, nEb3
	.byte	0x10, nRst, 0x02, nD3, 0x34, nRst, 0x08, nG3, 0x04, nRst, 0x02, nF3
	.byte	0x04, nRst, 0x02, nEb3, 0x04, nRst, 0x08, nD3, 0x04, nRst, 0x02, nEb3
	.byte	0x04, nRst, 0x02, nC3, 0x04, nRst, 0x08, nB3, 0x10, nRst, 0x02, nG3
	.byte	0x04, nRst, 0x08, nF3, 0x04, nRst, 0x08, nG3, 0x16, nRst, 0x02, nBb3
	.byte	0x10, nRst, 0x02, nBb3, 0x04, nRst, 0x08, nAb3, 0x10, nRst, 0x02, nG3
	.byte	0x16, nRst, 0x08, nG3, 0x04, nRst, 0x02, nF3, 0x04, nRst, 0x02, nEb3
	.byte	0x04, nRst, 0x08, nD3, 0x04, nRst, 0x02, nEb3, 0x04, nRst, 0x02, nC3
	.byte	0x04, nRst, 0x08, nBb3, 0x10, nRst, 0x02, nG3, 0x04, nRst, 0x08, nF3
	.byte	0x04, nRst, 0x0E, nD4, 0x04, nRst, 0x02, nBb3, 0x04, nRst, 0x02, nG3
	.byte	0x04, nRst, 0x02, nEb3, 0x10, nRst, 0x02, nD3, 0x34, nRst, 0x08, nG3
	.byte	0x04, nRst, 0x02, nF3, 0x04, nRst, 0x02, nEb3, 0x04, nRst, 0x08, nD3
	.byte	0x04, nRst, 0x02, nEb3, 0x04, nRst, 0x02, nC3, 0x04, nRst, 0x08, nEb2
	.byte	0x04, nRst, 0x02, nAb2, 0x04, nRst, 0x02, nEb2, 0x04, nRst, 0x02, nEb3
	.byte	0x0A, nRst, 0x02, nAb3, 0x0A, nRst, 0x08, nG3, 0x04, nRst, 0x08, nG3
	.byte	0x04, nRst, 0x08, nG3, 0x04, nRst, 0x02, nG3, 0x0A, nRst, 0x02, nG3
	.byte	0x04, nRst, 0x2C
	smpsJump            Snd_HCZ2_FM4

/*  Unreachable */
	smpsStop

/*  FM5 Data */
Snd_HCZ2_FM5:
	smpsSetvoice        0x06
	smpsAlterNote       0xFF
	smpsModSet          0x0A, 0x01, 0x03, 0x06
	.byte	nBb2, 0x04, nRst, 0x08, nBb2, 0x04, nRst, 0x0E, nBb2, 0x04, nRst, 0x02
	.byte	nBb2, nRst, 0x04, nBb2, 0x0A, nRst, 0x02, nBb2, 0x0A, nRst, 0x08, nBb2
	.byte	0x04, nRst, 0x08, nBb2, 0x04, nRst, 0x08, nA2, 0x04, nRst, 0x08, nA2
	.byte	0x04, nRst, 0x0E, nA2, 0x04, nRst, 0x02, nA2, nRst, 0x04, nBb2, nRst
	.byte	0x08, nBb2, 0x10, nRst, 0x02, nBb2, 0x04, nRst, 0x08, nBb2, 0x04, nRst
	.byte	0x08, nBb2, 0x04, nRst, 0x08, nBb2, 0x04, nRst, 0x0E, nBb2, 0x04, nRst
	.byte	0x02, nBb2, nRst, 0x04, nBb2, 0x0A, nRst, 0x02, nBb2, 0x0A, nRst, 0x08
	.byte	nBb2, 0x04, nRst, 0x08, nBb2, 0x04, nRst, 0x08, nA2, 0x04, nRst, 0x08
	.byte	nA2, 0x04, nRst, 0x0E, nA2, 0x04, nRst, 0x02, nA2, nRst, 0x04, nBb2
	.byte	nRst, 0x08, nBb2, 0x10, nRst, 0x02, nBb2, 0x04, nRst, 0x08, nBb2, 0x04
	.byte	nRst, 0x08, nBb2, 0x04, nRst, 0x08, nBb2, 0x04, nRst, 0x0E, nBb2, 0x04
	.byte	nRst, 0x02, nBb2, nRst, 0x04, nBb2, 0x0A, nRst, 0x02, nBb2, 0x0A, nRst
	.byte	0x08, nBb2, 0x04, nRst, 0x08, nBb2, 0x04, nRst, 0x08, nA2, 0x04, nRst
	.byte	0x08, nA2, 0x04, nRst, 0x0E, nA2, 0x04, nRst, 0x02, nA2, nRst, 0x04
	.byte	nBb2, nRst, 0x08, nBb2, 0x10, nRst, 0x02, nBb2, 0x04, nRst, 0x08, nBb2
	.byte	0x04, nRst, 0x08, nBb2, 0x04, nRst, 0x08, nBb2, 0x04, nRst, 0x0E, nBb2
	.byte	0x04, nRst, 0x02, nBb2, nRst, 0x04, nBb2, 0x0A, nRst, 0x02, nBb2, 0x0A
	.byte	nRst, 0x08, nBb2, 0x04, nRst, 0x08, nBb2, 0x04, nRst, 0x08, nA2, 0x04
	.byte	nRst, 0x08, nA2, 0x04, nRst, 0x0E, nA2, 0x04, nRst, 0x02, nA2, nRst
	.byte	0x04, nBb2, nRst, 0x08, nBb2, 0x10, nRst, 0x02, nBb2, 0x04, nRst, 0x08
	.byte	nBb2, 0x04, nRst, 0x08, nBb2, 0x04, nRst, 0x08, nBb2, 0x04, nRst, 0x0E
	.byte	nBb2, 0x04, nRst, 0x02, nBb2, nRst, 0x04, nBb2, 0x0A, nRst, 0x02, nBb2
	.byte	0x0A, nRst, 0x08, nBb2, 0x04, nRst, 0x08, nBb2, 0x04, nRst, 0x08, nA2
	.byte	0x04, nRst, 0x08, nA2, 0x04, nRst, 0x0E, nA2, 0x04, nRst, 0x02, nA2
	.byte	nRst, 0x04, nBb2, nRst, 0x08, nBb2, 0x10, nRst, 0x02, nBb2, 0x04, nRst
	.byte	0x08, nBb2, 0x04, nRst, 0x08, nBb2, 0x04, nRst, 0x08, nBb2, 0x04, nRst
	.byte	0x0E, nBb2, 0x04, nRst, 0x02, nBb2, nRst, 0x04, nBb2, 0x0A, nRst, 0x02
	.byte	nBb2, 0x0A, nRst, 0x08, nBb2, 0x04, nRst, 0x08, nBb2, 0x04, nRst, 0x02
	.byte	nBb2, 0x04, nRst, 0x44, nB2, 0x1E, nC3, 0x0A, nRst, 0x02, nBb2, 0x04
	.byte	nRst, 0x02, nC3, 0x0A, nRst, 0x02, nBb2, 0x0A, nRst, 0x02, nC3, 0x04
	.byte	nRst, 0x0E, nAb3, 0x04, nRst, 0x02, nAb3, 0x04, nRst, 0x08, nBb3, 0x02
	.byte	nRst, 0x04, nC4, 0x0A, nRst, 0x02, nBb2, 0x0A, nRst, 0x02, nD3, 0x04
	.byte	nRst, 0x02, nBb2, 0x0A, nRst, 0x02, nD3, 0x0A, nRst, 0x02, nBb2, 0x04
	.byte	nRst, 0x0E, nG3, 0x04, nRst, 0x02, nG3, 0x04, nRst, 0x08, nAb3, 0x02
	.byte	nRst, 0x04, nBb3, 0x0A, nRst, 0x02, nBb2, 0x0A, nRst, 0x02, nAb2, 0x04
	.byte	nRst, 0x02, nBb2, 0x0A, nRst, 0x02, nAb2, 0x0A, nRst, 0x02, nBb2, 0x04
	.byte	nRst, 0x0E, nBb3, 0x04, nRst, 0x02, nBb3, 0x04, nRst, 0x08, nC4, 0x02
	.byte	nRst, 0x04, nD4, 0x0A, nRst, 0x08, nG3, 0x04, nRst, 0x0E, nF3, 0x0A
	.byte	nRst, 0x02, nF3, 0x04, nRst, 0x02, nG3, 0x04, nRst, 0x08, nD3, 0x10
	.byte	nRst, 0x02, nC3, 0x0A, nRst, 0x02, nD3, 0x0A, nRst, 0x02, nC3, 0x0A
	.byte	nRst, 0x02, nBb2, 0x04, nRst, 0x02, nC3, 0x0A, nRst, 0x02, nBb2, 0x0A
	.byte	nRst, 0x02, nC3, 0x04, nRst, 0x0E, nAb3, 0x04, nRst, 0x02, nAb3, 0x04
	.byte	nRst, 0x08, nBb3, 0x02, nRst, 0x04, nC4, 0x0A, nRst, 0x02, nBb2, 0x0A
	.byte	nRst, 0x02, nD3, 0x04, nRst, 0x02, nBb2, 0x0A, nRst, 0x02, nD3, 0x0A
	.byte	nRst, 0x02, nG2, 0x04, nRst, 0x0E, nG3, 0x04, nRst, 0x02, nG3, 0x04
	.byte	nRst, 0x08, nBb3, 0x02, nRst, 0x04, nEb4, 0x0A, nRst, 0x02, nBb2, 0x0A
	.byte	nRst, 0x02, nG2, 0x04, nRst, 0x02, nBb2, 0x0A, nRst, 0x02, nG2, 0x0A
	.byte	nRst, 0x02, nA2, 0x04, nRst, 0x0E, nF3, 0x04, nRst, 0x02, nF3, 0x04
	.byte	nRst, 0x08, nA3, 0x02, nRst, 0x04, nC4, 0x0A, nRst, 0x08, nG3, 0x04
	.byte	nRst, 0x08, nG3, 0x04, nRst, 0x08, nG3, 0x04, nRst, 0x02, nG3, 0x0A
	.byte	nRst, 0x02, nF3, 0x04, nRst, 0x02, nF3, 0x04, nRst, 0x08, nF3, 0x04
	.byte	nRst, 0x0E, nC3, 0x04, nRst, 0x02, nD3, 0x04, nRst, 0x08, nEb3, 0x04
	.byte	nRst, 0x02, nD3, 0x04, nRst, 0x02, nC3, 0x04, nRst, 0x08, nBb2, 0x04
	.byte	nRst, 0x02, nC3, 0x04, nRst, 0x02, nAb2, 0x04, nRst, 0x08, nF3, 0x10
	.byte	nRst, 0x02, nEb3, 0x04, nRst, 0x08, nD3, 0x04, nRst, 0x0E, nBb3, 0x04
	.byte	nRst, 0x02, nG3, 0x04, nRst, 0x02, nEb3, 0x04, nRst, 0x02, nC3, 0x10
	.byte	nRst, 0x02, nF2, 0x34, nRst, 0x08, nEb3, 0x04, nRst, 0x02, nD3, 0x04
	.byte	nRst, 0x02, nC3, 0x04, nRst, 0x08, nBb2, 0x04, nRst, 0x02, nC3, 0x04
	.byte	nRst, 0x02, nAb2, 0x04, nRst, 0x08, nF3, 0x10, nRst, 0x02, nEb3, 0x04
	.byte	nRst, 0x08, nD3, 0x04, nRst, 0x08, nEb3, 0x16, nRst, 0x02, nF3, 0x10
	.byte	nRst, 0x02, nF3, 0x04, nRst, 0x08, nEb3, 0x10, nRst, 0x02, nD3, 0x16
	.byte	nRst, 0x08, nEb3, 0x04, nRst, 0x02, nD3, 0x04, nRst, 0x02, nC3, 0x04
	.byte	nRst, 0x08, nBb2, 0x04, nRst, 0x02, nC3, 0x04, nRst, 0x02, nAb2, 0x04
	.byte	nRst, 0x08, nF3, 0x10, nRst, 0x02, nEb3, 0x04, nRst, 0x08, nD3, 0x04
	.byte	nRst, 0x0E, nBb3, 0x04, nRst, 0x02, nG3, 0x04, nRst, 0x02, nEb3, 0x04
	.byte	nRst, 0x02, nC3, 0x10, nRst, 0x02, nF2, 0x34, nRst, 0x08, nEb3, 0x04
	.byte	nRst, 0x02, nD3, 0x04, nRst, 0x02, nC3, 0x04, nRst, 0x08, nBb2, 0x04
	.byte	nRst, 0x02, nC3, 0x04, nRst, 0x02, nAb2, 0x04, nRst, 0x1A, nC3, 0x0A
	.byte	nRst, 0x02, nEb3, 0x0A, nRst, 0x08, nD3, 0x04, nRst, 0x08, nD3, 0x04
	.byte	nRst, 0x08, nD3, 0x04, nRst, 0x02, nD3, 0x0A, nRst, 0x02, nD3, 0x04
	.byte	nRst, 0x2C
	smpsJump            Snd_HCZ2_FM5

/*  Unreachable */
	smpsStop

/*  PSG1 Data */
Snd_HCZ2_PSG1:
	smpsPSGvoice        sTone_0A

Snd_HCZ2_Jump02:
	.byte	nC4, 0x04, nRst, 0x02, nG3, 0x04, nRst, 0x02, nBb3, 0x04, nRst, 0x02
	.byte	nG3, 0x04, nRst, 0x08, nG3, 0x04, nRst, 0x02, nBb3, 0x04, nRst, 0x02
	.byte	nG3, 0x04, nRst, 0x02, nC4, 0x04, nRst, 0x02, nG3, 0x04, nRst, 0x02
	.byte	nBb3, 0x04, nRst, 0x02, nG3, 0x04, nRst, 0x60, nRst, 0x1A, nC4, 0x04
	.byte	nRst, 0x02, nG3, 0x04, nRst, 0x02, nBb3, 0x04, nRst, 0x02, nG3, 0x04
	.byte	nRst, 0x08, nG3, 0x04, nRst, 0x02, nBb3, 0x04, nRst, 0x02, nG3, 0x04
	.byte	nRst, 0x02, nC4, 0x04, nRst, 0x02, nG3, 0x04, nRst, 0x02, nBb3, 0x04
	.byte	nRst, 0x02, nG3, 0x04, nRst, 0x60, nRst, nRst, 0x38, nF4, 0x06, nFs4
	.byte	nG4, nBb5, nRst, nC5, nFs5, 0x02, nG5, 0x12, nRst, 0x70, nC4, 0x04
	.byte	nRst, 0x02, nA4, 0x04, nRst, 0x02, nG4, 0x04, nRst, 0x08, nF4, 0x04
	.byte	nRst, 0x02, nFs4, nG4, 0x04, nE4, nRst, 0x7F, nRst, 0x31, nF4, 0x06
	.byte	nFs4, nG4, nBb5, nRst, nC5, nFs5, 0x02, nG5, 0x12, nRst, 0x70, nC5
	.byte	0x06, nBb4, nG4, nF4, 0x04, nFs4, nF4, nEb4, 0x06, nC4, nRst, 0x12
	.byte	nBb3, 0x1E, nRst, 0x3C, nC4, 0x04, nRst, 0x02, nC4, 0x04, nRst, 0x08
	.byte	nD4, 0x02, nRst, 0x04, nEb4, 0x0A, nRst, 0x3E, nBb3, 0x04, nRst, 0x02
	.byte	nBb3, 0x04, nRst, 0x08, nC4, 0x02, nRst, 0x04, nD4, 0x0A, nRst, 0x3E
	.byte	nD4, 0x04, nRst, 0x02, nD4, 0x04, nRst, 0x08, nEb4, 0x02, nRst, 0x04
	.byte	nF4, 0x0A, nRst, 0x08, nEb5, 0x04, nRst, 0x0E, nD5, 0x0A, nRst, 0x02
	.byte	nD5, 0x04, nRst, 0x02, nEb5, 0x04, nRst, 0x08, nD5, 0x10, nRst, 0x02
	.byte	nEb5, 0x0A, nRst, 0x02, nF5, 0x0A, nRst, 0x3E, nC4, 0x04, nRst, 0x02
	.byte	nC4, 0x04, nRst, 0x08, nD4, 0x02, nRst, 0x04, nEb4, 0x0A, nRst, 0x3E
	.byte	nBb3, 0x04, nRst, 0x02, nBb3, 0x04, nRst, 0x08, nEb4, 0x02, nRst, 0x04
	.byte	nG4, 0x0A, nRst, 0x3E, nA3, 0x04, nRst, 0x02, nA3, 0x04, nRst, 0x08
	.byte	nC4, 0x02, nRst, 0x04, nEb4, 0x0A, nRst, 0x08, nEb4, 0x04, nRst, 0x02
	.byte	nEb3, 0x04, nRst, 0x02, nEb4, 0x04, nRst, 0x02, nEb3, 0x04, nRst, 0x02
	.byte	nEb4, 0x04, nRst, 0x02, nEb4, 0x04, nRst, 0x02, nEb3, 0x04, nRst, 0x02
	.byte	nD4, 0x04, nRst, 0x02, nD4, 0x04, nRst, 0x08, nD4, 0x04, nRst, 0x50
	.byte	nBb3, 0x04, nRst, 0x02, nG3, 0x04, nRst, 0x02, nBb3, 0x04, nRst, 0x02
	.byte	nBb3, 0x04, nRst, 0x02, nBb3, 0x04, nRst, 0x02, nG3, 0x04, nRst, 0x02
	.byte	nBb3, 0x04, nRst, 0x38, nD4, 0x04, nRst, 0x02, nBb3, 0x04, nRst, 0x02
	.byte	nD4, 0x04, nRst, 0x02, nF4, 0x04, nRst, 0x02, nD4, 0x04, nRst, 0x02
	.byte	nBb3, 0x04, nRst, 0x02, nG3, 0x04, nRst, 0x38, nB3, 0x04, nRst, 0x02
	.byte	nG3, 0x04, nRst, 0x02, nB3, 0x04, nRst, 0x02, nF3, 0x04, nRst, 0x02
	.byte	nG3, 0x04, nRst, 0x02, nB3, 0x04, nRst, 0x02, nD4, 0x04, nRst, 0x02
	.byte	nC3, 0x04, nRst, 0x02, nEb3, 0x04, nRst, 0x02, nG3, 0x04, nRst, 0x02
	.byte	nEb3, 0x04, nRst, 0x02, nD3, 0x04, nRst, 0x02, nF3, 0x04, nRst, 0x02
	.byte	nBb3, 0x04, nRst, 0x02, nD3, 0x04, nRst, 0x02, nEb3, 0x04, nRst, 0x02
	.byte	nAb3, 0x04, nRst, 0x02, nC4, 0x04, nRst, 0x02, nEb3, 0x04, nRst, 0x02
	.byte	nF3, 0x04, nRst, 0x02, nG3, 0x04, nRst, 0x02, nD4, 0x04, nRst, 0x02
	.byte	nG3, 0x04, nRst, 0x38, nBb3, 0x04, nRst, 0x02, nG3, 0x04, nRst, 0x02
	.byte	nBb3, 0x04, nRst, 0x02, nBb3, 0x04, nRst, 0x02, nBb3, 0x04, nRst, 0x02
	.byte	nG3, 0x04, nRst, 0x02, nBb3, 0x04, nRst, 0x38, nD4, 0x04, nRst, 0x02
	.byte	nBb3, 0x04, nRst, 0x02, nD4, 0x04, nRst, 0x02, nF4, 0x04, nRst, 0x02
	.byte	nD4, 0x04, nRst, 0x02, nBb3, 0x04, nRst, 0x02, nG3, 0x04, nRst, 0x38
	.byte	nEb3, 0x04, nRst, 0x02, nAb3, 0x04, nRst, 0x02, nEb3, 0x04, nRst, 0x02
	.byte	nEb3, 0x04, nRst, 0x02, nC4, 0x04, nRst, 0x02, nAb3, 0x04, nRst, 0x02
	.byte	nEb4, 0x04, nRst, 0x08, nEb5, 0x04, nRst, 0x08, nEb5, 0x04, nRst, 0x08
	.byte	nEb5, 0x04, nRst, 0x02, nEb5, 0x0A, nRst, 0x02, nD5, 0x04, nRst, 0x2C
	smpsJump            Snd_HCZ2_Jump02

/*  Unreachable */
	smpsStop

/*  PSG2 Data */
Snd_HCZ2_PSG2:
	smpsPSGvoice        sTone_08
	.byte	nRst, 0x01
	smpsAlterNote       0x01

Snd_HCZ2_Jump03:
	smpsJump            Snd_HCZ2_Jump02

/*  Unreachable */
	smpsJump            Snd_HCZ2_Jump03
	smpsStop

/*  PSG3 Data */
Snd_HCZ2_PSG3:
	smpsPSGvoice        sTone_02
	smpsPSGform         0xE7

Snd_HCZ2_Jump01:
	.byte	nRst, 0x18, nRst, 0x18, nRst, 0x18, nRst, 0x18, nRst, 0x18
	smpsPSGvoice        sTone_01
	.byte	nMaxPSG1, 0x04, nMaxPSG1, 0x04, nMaxPSG1, 0x04
	smpsPSGvoice        sTone_08
	.byte	nMaxPSG1, 0x06
	smpsPSGvoice        sTone_01
	.byte	nMaxPSG1, 0x06, smpsNoAttack, 0x06
	smpsPSGvoice        sTone_08
	.byte	nMaxPSG1, 0x06
	smpsPSGvoice        sTone_01
	.byte	nMaxPSG1, 0x0C, smpsNoAttack, 0x18, smpsNoAttack, 0x18, smpsNoAttack, 0x18, smpsNoAttack, 0x18, smpsNoAttack, 0x18
	.byte	smpsNoAttack, 0x18, nMaxPSG1, 0x04, nMaxPSG1, 0x04, nMaxPSG1, 0x04
	smpsPSGvoice        sTone_08
	.byte	nMaxPSG1, 0x06
	smpsPSGvoice        sTone_01
	.byte	nMaxPSG1, 0x06, smpsNoAttack, 0x06
	smpsPSGvoice        sTone_08
	.byte	nMaxPSG1, 0x06
	smpsPSGvoice        sTone_01
	.byte	nMaxPSG1, 0x0C, smpsNoAttack, 0x18

Snd_HCZ2_Loop04:
	smpsPSGvoice        sTone_01
	.byte	nMaxPSG1, 0x06, nMaxPSG1, 0x06
	smpsPSGvoice        sTone_08
	.byte	nMaxPSG1, 0x06
	smpsPSGvoice        sTone_01
	.byte	nMaxPSG1, 0x06, nMaxPSG1, 0x06
	smpsPSGvoice        sTone_08
	.byte	nMaxPSG1, 0x06
	smpsPSGvoice        sTone_01
	.byte	nMaxPSG1, 0x06, nMaxPSG1, 0x06, nMaxPSG1, 0x06, nMaxPSG1, 0x06, nMaxPSG1, 0x06, nMaxPSG1, 0x06
	.byte	nMaxPSG1, 0x06, nMaxPSG1, 0x06, nMaxPSG1, 0x06, nMaxPSG1, 0x06, nMaxPSG1, 0x06, nMaxPSG1, 0x06
	smpsPSGvoice        sTone_08
	.byte	nMaxPSG1, 0x06
	smpsPSGvoice        sTone_01
	.byte	nMaxPSG1, 0x06, nMaxPSG1, 0x06
	smpsPSGvoice        sTone_08
	.byte	nMaxPSG1, 0x06
	smpsPSGvoice        sTone_01
	.byte	nMaxPSG1, 0x06, nMaxPSG1, 0x06, nMaxPSG1, 0x06, nMaxPSG1, 0x06, nMaxPSG1, 0x06, nMaxPSG1, 0x06
	.byte	nMaxPSG1, 0x06, nMaxPSG1, 0x06
	smpsPSGvoice        sTone_08
	.byte	nMaxPSG1, 0x06
	smpsPSGvoice        sTone_01
	.byte	nMaxPSG1, 0x06
	smpsLoop            0x01, 0x03, Snd_HCZ2_Loop04
	.byte	nMaxPSG1, 0x06, nMaxPSG1, 0x06
	smpsPSGvoice        sTone_08
	.byte	nMaxPSG1, 0x06
	smpsPSGvoice        sTone_01
	.byte	nMaxPSG1, 0x06, nMaxPSG1, 0x06
	smpsPSGvoice        sTone_08
	.byte	nMaxPSG1, 0x06
	smpsPSGvoice        sTone_01
	.byte	nMaxPSG1, 0x06, nMaxPSG1, 0x06, nMaxPSG1, 0x06, nMaxPSG1, 0x06, nMaxPSG1, 0x06, nMaxPSG1, 0x06
	.byte	nMaxPSG1, 0x06, nMaxPSG1, 0x06, nMaxPSG1, 0x06, nMaxPSG1, 0x06, smpsNoAttack, 0x18, smpsNoAttack, 0x18
	.byte	smpsNoAttack, 0x18, smpsNoAttack, 0x18

Snd_HCZ2_Loop05:
	smpsPSGvoice        sTone_01
	.byte	nMaxPSG1, 0x0C
	smpsPSGvoice        sTone_08
	.byte	nMaxPSG1, 0x0C
	smpsPSGvoice        sTone_01
	.byte	nMaxPSG1, 0x0C
	smpsPSGvoice        sTone_08
	.byte	nMaxPSG1, 0x0C
	smpsPSGvoice        sTone_01
	.byte	nMaxPSG1, 0x0C
	smpsPSGvoice        sTone_08
	.byte	nMaxPSG1, 0x0C
	smpsPSGvoice        sTone_01
	.byte	nMaxPSG1, 0x0C
	smpsPSGvoice        sTone_08
	.byte	nMaxPSG1, 0x0C
	smpsLoop            0x01, 0x03, Snd_HCZ2_Loop05
	.byte	smpsNoAttack, 0x18, smpsNoAttack, 0x18, smpsNoAttack, 0x18, smpsNoAttack, 0x18

Snd_HCZ2_Loop06:
	smpsPSGvoice        sTone_01
	.byte	nMaxPSG1, 0x0C
	smpsPSGvoice        sTone_08
	.byte	nMaxPSG1, 0x0C
	smpsPSGvoice        sTone_01
	.byte	nMaxPSG1, 0x0C
	smpsPSGvoice        sTone_08
	.byte	nMaxPSG1, 0x0C
	smpsPSGvoice        sTone_01
	.byte	nMaxPSG1, 0x0C
	smpsPSGvoice        sTone_08
	.byte	nMaxPSG1, 0x0C
	smpsPSGvoice        sTone_01
	.byte	nMaxPSG1, 0x0C
	smpsPSGvoice        sTone_08
	.byte	nMaxPSG1, 0x0C
	smpsLoop            0x01, 0x03, Snd_HCZ2_Loop06
	.byte	smpsNoAttack, 0x18, smpsNoAttack, 0x18, smpsNoAttack, 0x18, smpsNoAttack, 0x18
	smpsPSGvoice        sTone_01
	.byte	nMaxPSG1, 0x06, nMaxPSG1, 0x06
	smpsPSGvoice        sTone_08
	.byte	nMaxPSG1, 0x06
	smpsPSGvoice        sTone_01
	.byte	nMaxPSG1, 0x06, nMaxPSG1, 0x06, nMaxPSG1, 0x06
	smpsPSGvoice        sTone_08
	.byte	nMaxPSG1, 0x06
	smpsPSGvoice        sTone_01
	.byte	nMaxPSG1, 0x06, nMaxPSG1, 0x06, nMaxPSG1, 0x06, nMaxPSG1, 0x06, nMaxPSG1, 0x06, nMaxPSG1, 0x06
	.byte	nMaxPSG1, 0x06
	smpsPSGvoice        sTone_08
	.byte	nMaxPSG1, 0x06
	smpsPSGvoice        sTone_01
	.byte	nMaxPSG1, 0x06, nMaxPSG1, 0x06, nMaxPSG1, 0x06, nMaxPSG1, 0x06, nMaxPSG1, 0x06, nMaxPSG1, 0x06
	.byte	nMaxPSG1, 0x06, nMaxPSG1, 0x06, nMaxPSG1, 0x06, nMaxPSG1, 0x06, nMaxPSG1, 0x06, nMaxPSG1, 0x06
	.byte	nMaxPSG1, 0x06, nMaxPSG1, 0x06, nMaxPSG1, 0x06
	smpsPSGvoice        sTone_08
	.byte	nMaxPSG1, 0x06
	smpsPSGvoice        sTone_01
	.byte	nMaxPSG1, 0x06, nMaxPSG1, 0x06, nMaxPSG1, 0x06
	smpsPSGvoice        sTone_08
	.byte	nMaxPSG1, 0x06
	smpsPSGvoice        sTone_01
	.byte	nMaxPSG1, 0x06, nMaxPSG1, 0x06, nMaxPSG1, 0x06
	smpsPSGvoice        sTone_08
	.byte	nMaxPSG1, 0x06
	smpsPSGvoice        sTone_01
	.byte	nMaxPSG1, 0x06, nMaxPSG1, 0x06, nMaxPSG1, 0x06, nMaxPSG1, 0x06, nMaxPSG1, 0x06, nMaxPSG1, 0x06
	.byte	nMaxPSG1, 0x06
	smpsPSGvoice        sTone_08
	.byte	nMaxPSG1, 0x06
	smpsPSGvoice        sTone_01
	.byte	nMaxPSG1, 0x06, nMaxPSG1, 0x06, nMaxPSG1, 0x06, nMaxPSG1, 0x06, nMaxPSG1, 0x06, nMaxPSG1, 0x06
	.byte	nMaxPSG1, 0x06, nMaxPSG1, 0x06, nMaxPSG1, 0x06, nMaxPSG1, 0x06, nMaxPSG1, 0x06, nMaxPSG1, 0x06
	.byte	nMaxPSG1, 0x06, smpsNoAttack, 0x18, nMaxPSG1, 0x06, nMaxPSG1, 0x06
	smpsPSGvoice        sTone_08
	.byte	nMaxPSG1, 0x06
	smpsPSGvoice        sTone_01
	.byte	nMaxPSG1, 0x06, nMaxPSG1, 0x06, nMaxPSG1, 0x06
	smpsPSGvoice        sTone_08
	.byte	nMaxPSG1, 0x06
	smpsPSGvoice        sTone_01
	.byte	nMaxPSG1, 0x06, nMaxPSG1, 0x06, nMaxPSG1, 0x06, nMaxPSG1, 0x06, nMaxPSG1, 0x06, nMaxPSG1, 0x06
	.byte	nMaxPSG1, 0x06
	smpsPSGvoice        sTone_08
	.byte	nMaxPSG1, 0x06
	smpsPSGvoice        sTone_01
	.byte	nMaxPSG1, 0x06, nMaxPSG1, 0x06, nMaxPSG1, 0x06, nMaxPSG1, 0x06, nMaxPSG1, 0x06, nMaxPSG1, 0x06
	.byte	nMaxPSG1, 0x06, nMaxPSG1, 0x06, nMaxPSG1, 0x06, nMaxPSG1, 0x06, nMaxPSG1, 0x06, nMaxPSG1, 0x06
	.byte	nMaxPSG1, 0x06, nMaxPSG1, 0x06, nMaxPSG1, 0x06
	smpsPSGvoice        sTone_08
	.byte	nMaxPSG1, 0x06
	smpsPSGvoice        sTone_01
	.byte	nMaxPSG1, 0x06, nMaxPSG1, 0x06, nMaxPSG1, 0x06
	smpsPSGvoice        sTone_08
	.byte	nMaxPSG1, 0x06
	smpsPSGvoice        sTone_01
	.byte	nMaxPSG1, 0x06, nMaxPSG1, 0x06, nMaxPSG1, 0x06
	smpsPSGvoice        sTone_08
	.byte	nMaxPSG1, 0x06
	smpsPSGvoice        sTone_01
	.byte	nMaxPSG1, 0x06, nMaxPSG1, 0x06, nMaxPSG1, 0x06, nMaxPSG1, 0x06, nMaxPSG1, 0x06, nMaxPSG1, 0x06
	.byte	nMaxPSG1, 0x06
	smpsPSGvoice        sTone_08
	.byte	nMaxPSG1, 0x06
	smpsPSGvoice        sTone_01
	.byte	nMaxPSG1, 0x06, smpsNoAttack, 0x18, smpsNoAttack, 0x18, smpsNoAttack, 0x18, smpsNoAttack, 0x18
	smpsJump            Snd_HCZ2_Jump01

/*  Unreachable */
	smpsStop
