Snd_ICZ1_Header:
	smpsHeaderStartSong 3, 1
	smpsHeaderVoice     Snd_ICZ1_Voices
	smpsHeaderChan      0x06, 0x03
	smpsHeaderTempo     0x01, 0x19

	smpsHeaderDAC       Snd_ICZ1_DAC
	smpsHeaderFM        Snd_ICZ1_FM1,	0x18, 0x18
	smpsHeaderFM        Snd_ICZ1_FM2,	0x0C, 0x10
	smpsHeaderFM        Snd_ICZ1_FM3,	0x0C, 0x1E
	smpsHeaderFM        Snd_ICZ1_FM4,	0x0C, 0x1E
	smpsHeaderFM        Snd_ICZ1_FM5,	0x18, 0x1B
	smpsHeaderPSG       Snd_ICZ1_PSG1,	0x00, 0x03, 0x00, 0x00
	smpsHeaderPSG       Snd_ICZ1_PSG2,	0x00, 0x05, 0x00, 0x00
	smpsHeaderPSG       Snd_ICZ1_PSG3,	0x00, 0x01, 0x00, 0x00

/*  FM1 Data */
Snd_ICZ1_FM1:
	smpsSetvoice        0x02
	smpsChangeTransposition 0xF4
	smpsFMAlterVol      0x05
	.byte	nF5, 0x06, nRst, 0x02, nF5, 0x06, nRst, nF5, 0x04, nF5, 0x06, nRst
	.byte	nF5, 0x06, nRst, 0x02, nF5, 0x06, nRst, nF5, 0x04, nF5, 0x06, nRst
	.byte	nF5, 0x06, nRst, nF5, nRst, nD5, nRst, 0x2A, nD5, 0x06, nRst, 0x02
	.byte	nD5, 0x06, nRst, nD5, nRst, nD5, 0x04, nD5, 0x06, nRst
	smpsChangeTransposition 0x0C
	smpsFMAlterVol      0xF8

Snd_ICZ1_Jump00:
	smpsSetvoice        0x00
	smpsModSet          0x20, 0x01, 0x05, 0x05
	.byte	nBb4, 0x03, smpsNoAttack, nB4, 0x15, nG4, 0x06, nRst, nD4, 0x60, nRst, 0x0C
	.byte	nBb4, 0x02, smpsNoAttack, nB4, 0x04, nRst, 0x06, nB4, 0x12, nRst, 0x06, nB4
	.byte	0x03, smpsNoAttack, nC5, 0x15, nB4, 0x06, nRst, nA4, 0x60, smpsNoAttack, nA4, 0x30
	.byte	nRst, 0x18, nBb4, 0x02, smpsNoAttack, nB4, 0x16, nG4, 0x06, nRst, nD4, 0x60
	.byte	nRst, 0x0C, nCs5, 0x02, smpsNoAttack, nD5, 0x04, nRst, 0x06, nD5, 0x18, nC5
	.byte	nB4, 0x06, nRst, nA4, 0x60, smpsNoAttack, 0x48
	smpsLoop            0x00, 0x02, Snd_ICZ1_Jump00
	smpsFMAlterVol      0x03
	smpsSetvoice        0x02
	smpsChangeTransposition 0xE8
	.byte	nRst, 0x08, nG4, 0x04, nA4, nRst, nG4, nA4, nRst, nG4, nRst, 0x08
	.byte	nAb4, 0x03, smpsNoAttack, nA4, 0x0D, nG4, 0x04, nRst, 0x28, nG4, 0x04, nA4
	.byte	nRst, nG4, nA4, nRst, nG4, nRst, 0x08, nB4, 0x03, smpsNoAttack, nC5, 0x0D
	.byte	nB4, 0x04, nRst, 0x08, nA4, 0x08, nRst, 0x04, nG4, 0x08, nRst, 0x04
	.byte	nB4, 0x03, smpsNoAttack, nC5, 0x11, nD5, 0x04, nRst, 0x0C, nA4, 0x24, nRst
	.byte	0x0C, nF4, 0x04, nRst, 0x08, nF4, 0x0C, nE4, 0x08, nF4, 0x04, nRst
	.byte	0x08, nE4, 0x04, nD4, 0x30, nRst, 0x0C, nRst, 0x08, nG4, 0x04, nA4
	.byte	nRst, nG4, nA4, nRst, nG4, nRst, 0x08, nAb4, 0x03, smpsNoAttack, nA4, 0x0D
	.byte	nG4, 0x04, nRst, 0x28, nG4, 0x04, nA4, nRst, nG4, nA4, nRst, nG4
	.byte	nRst, 0x08, nB4, 0x03, smpsNoAttack, nC5, 0x0D, nB4, 0x04, nRst, 0x08, nA4
	.byte	0x08, nRst, 0x04, nG4, 0x08, nRst, 0x04, nC5, 0x10, nRst, 0x04, nD5
	.byte	0x04, nRst, 0x0C, nEb5, 0x03, smpsNoAttack, nE5, 0x2D, nRst, 0x0C, nA4, 0x04
	.byte	nG4, nA4, nB4, nA4, nB4, nC5, nB4, nC5, nD5, nC5, nD5, nE5
	.byte	nD5, nE5, nF5, nE5, nF5, nG5, nF5, nG5, nA5, nG5, nA5
	smpsChangeTransposition 0x18
	.byte	nRst, 0x60, nRst, nRst, nRst, nRst, nRst, nRst, nRst
	smpsFMAlterVol      0xFD
	smpsJump            Snd_ICZ1_Jump00

/*  FM2 Data */
Snd_ICZ1_FM2:
	smpsSetvoice        0x01
	.byte	nD2, 0x04, nRst, nD2, nRst, 0x08, nD2, 0x04, nD2, nRst, 0x08, nD2
	.byte	0x04, nRst, nD2, nRst, 0x08, nD2, 0x04, nD2, nRst, 0x08, nD2, 0x04
	.byte	nRst, 0x08, nD2, 0x04, nRst, 0x08, nG2, 0x06, nRst, 0x2A, nD2, 0x04
	.byte	nRst, nD2, nRst, 0x08, nD2, 0x04, nRst, 0x08, nD2, 0x04, nD2, nRst
	.byte	0x08

Snd_ICZ1_Jump03:
	.byte	nG2, 0x04, nRst, 0x08, nG2, 0x04, nRst, nG2, nRst, 0x08, nG2, 0x04
	.byte	nG2, nRst, 0x08, nG2, 0x05, nRst, 0x07, nD2, 0x05, nRst, 0x07, nG2
	.byte	0x05, nRst, 0x07, nD2, 0x05, nRst, 0x07, nG2, 0x04, nRst, 0x08, nG2
	.byte	0x04, nRst, nG2, nRst, 0x08, nG2, 0x04, nG2, nRst, 0x08, nG2, 0x05
	.byte	nRst, 0x07, nD2, 0x05, nRst, 0x07, nG2, 0x05, nRst, 0x07, nD2, 0x05
	.byte	nRst, 0x07, nF2, 0x04, nRst, 0x08, nF2, 0x04, nRst, nF2, nRst, 0x08
	.byte	nF2, 0x04, nF2, nRst, 0x08, nF2, 0x05, nRst, 0x07, nC2, 0x05, nRst
	.byte	0x07, nF2, 0x05, nRst, 0x07, nC2, 0x05, nRst, 0x07, nF2, 0x04, nRst
	.byte	0x08, nF2, 0x04, nRst, nF2, nRst, 0x08, nF2, 0x04, nF2, nRst, 0x08
	.byte	nF2, 0x05, nRst, 0x07, nC2, 0x05, nRst, 0x07, nF2, 0x05, nRst, 0x07
	.byte	nC2, 0x05, nRst, 0x07, nG2, 0x04, nRst, 0x08, nG2, 0x04, nRst, nG2
	.byte	nRst, 0x08, nG2, 0x04, nG2, nRst, 0x08, nG2, 0x05, nRst, 0x07, nD2
	.byte	0x05, nRst, 0x07, nG2, 0x05, nRst, 0x07, nD2, 0x05, nRst, 0x07, nG2
	.byte	0x04, nRst, 0x08, nG2, 0x04, nRst, nG2, nRst, 0x08, nG2, 0x04, nG2
	.byte	nRst, 0x08, nG2, 0x05, nRst, 0x07, nD2, 0x05, nRst, 0x07, nG2, 0x05
	.byte	nRst, 0x07, nD2, 0x05, nRst, 0x07, nF2, 0x04, nRst, 0x08, nF2, 0x04
	.byte	nRst, nF2, nRst, 0x08, nF2, 0x04, nF2, nRst, 0x08, nF2, 0x05, nRst
	.byte	0x07, nC2, 0x05, nRst, 0x07, nF2, 0x05, nRst, 0x07, nC2, 0x05, nRst
	.byte	0x07, nF2, 0x04, nRst, 0x08, nF2, 0x04, nRst, nF2, nRst, 0x08, nF2
	.byte	0x04, nF2, nRst, 0x08, nF2, 0x05, nRst, 0x07, nC2, 0x05, nRst, 0x07
	.byte	nA2, 0x05, nRst, 0x07, nF2, 0x05, nRst, 0x07
	smpsJump            Snd_ICZ1_Jump03

/*  FM3 Data */
Snd_ICZ1_FM3:
	smpsPan             panLeft, 0x00
	smpsSetvoice        0x02
	.byte	nRst, 0x01, nC5, 0x06, nRst, 0x02, nC5, 0x06, nRst, nC5, 0x04, nC5
	.byte	0x06, nRst, nC5, 0x06, nRst, 0x02, nC5, 0x06, nRst, nC5, 0x04, nC5
	.byte	0x06, nRst, nC5, 0x06, nRst, nC5, nRst, nA4, nRst, 0x2A, nA4, 0x06
	.byte	nRst, 0x02, nA4, 0x06, nRst, nA4, nRst, nA4, 0x04, nA4, 0x06, nRst
	.byte	0x05

Snd_ICZ1_Jump02:
	.byte	nG3, 0x04, nRst, 0x08, nD3, 0x04, nRst, 0x04, nG3, 0x04, nRst, 0x08
	.byte	nD3, 0x04, nG3, nRst, 0x08, nG3, 0x04, nRst, 0x20, nD3, 0x08, nRst
	.byte	0x04, nG3, 0x04, nRst, 0x08, nD3, 0x04, nRst, 0x04, nG3, 0x04, nRst
	.byte	0x08, nD3, 0x04, nG3, nRst, 0x08, nD3, 0x08, nRst, 0x04, nG3, 0x04
	.byte	nRst, 0x08, nG3, 0x0C, nD3, nF3, 0x04, nRst, 0x08, nD3, 0x04, nRst
	.byte	0x04, nF3, 0x04, nRst, 0x08, nD3, 0x04, nF3, nRst, 0x08, nF3, 0x04
	.byte	nRst, 0x20, nD3, 0x08, nRst, 0x04, nF3, 0x04, nRst, 0x08, nD3, 0x04
	.byte	nRst, 0x04, nF3, 0x04, nRst, 0x08, nD3, 0x04, nF3, nRst, 0x08, nD3
	.byte	0x08, nRst, 0x04, nA3, 0x04, nRst, 0x08, nA3, 0x0C, nD3
	smpsJump            Snd_ICZ1_Jump02

/*  FM4 Data */
Snd_ICZ1_FM4:
	smpsPan             panRight, 0x00
	smpsSetvoice        0x02
	.byte	nRst, 0x02, nF4, 0x06, nRst, 0x02, nF4, 0x06, nRst, nF4, 0x04, nF4
	.byte	0x06, nRst, nF4, 0x06, nRst, 0x02, nF4, 0x06, nRst, nF4, 0x04, nF4
	.byte	0x06, nRst, nF4, 0x06, nRst, nF4, nRst, nD4, nRst, 0x2A, nD4, 0x06
	.byte	nRst, 0x02, nD4, 0x06, nRst, nD4, nRst, nD4, 0x04, nD4, 0x06, nRst
	.byte	0x04

Snd_ICZ1_Jump01:
	.byte	nB3, 0x04, nRst, 0x08, nD3, 0x04, nRst, 0x04, nB3, 0x04, nRst, 0x08
	.byte	nD3, 0x04, nB3, nRst, 0x08, nB3, 0x04, nRst, 0x20, nD3, 0x08, nRst
	.byte	0x04, nB3, 0x04, nRst, 0x08, nD3, 0x04, nRst, 0x04, nB3, 0x04, nRst
	.byte	0x08, nD3, 0x04, nB3, nRst, 0x08, nD3, 0x08, nRst, 0x04, nB3, 0x04
	.byte	nRst, 0x08, nB3, 0x0C, nD3, nA3, 0x04, nRst, 0x08, nD3, 0x04, nRst
	.byte	0x04, nA3, 0x04, nRst, 0x08, nD3, 0x04, nA3, nRst, 0x08, nA3, 0x04
	.byte	nRst, 0x20, nD3, 0x08, nRst, 0x04, nA3, 0x04, nRst, 0x08, nD3, 0x04
	.byte	nRst, 0x04, nA3, 0x04, nRst, 0x08, nD3, 0x04, nA3, nRst, 0x08, nD3
	.byte	0x08, nRst, 0x04, nC4, 0x04, nRst, 0x08, nC4, 0x0C, nD3
	smpsJump            Snd_ICZ1_Jump01

/*  FM5 Data */
Snd_ICZ1_FM5:
	.byte	nRst, 0x60, nRst, nRst, 0x09
	smpsDetune          0x05
	smpsJump            Snd_ICZ1_Jump00

/*  DAC Data */
Snd_ICZ1_DAC:
	.byte	dKickS3, 0x04, nRst, 0x10, dKickS3, 0x04, dSnareS3, 0x04, nRst, 0x08, dKickS3, 0x04
	.byte	nRst, 0x14, dKickS3, 0x04, nRst, 0x08, dSnareS3, 0x04, nRst, 0x08, dKickS3, 0x04
	.byte	nRst, 0x08, dKickS3, 0x04, nRst, 0x14, dSnareS3, 0x04, nRst, 0x10, dSnareS3, 0x04
	.byte	dSnareS3, 0x04, nRst, dSnareS3, nRst, 0x08, dSnareS3, 0x04, dSnareS3, nRst, dSnareS3, dSnareS3
	.byte	nRst, dSnareS3

Snd_ICZ1_DACJump00:
	.byte	dKickS3, 0x04, nRst, 0x10, dKickS3, 0x04, dSnareS3, nRst, 0x08, dKickS3, 0x04, nRst
	.byte	0x08, dKickS3, 0x04, nRst, dSnareS3, dKickS3, nRst, 0x08, dSnareS3, 0x04, nRst, 0x08
	.byte	dKickS3, 0x04, nRst, 0x08, dKickS3, 0x04, nRst, 0x10, dKickS3, 0x04, dSnareS3, nRst
	.byte	0x08, dKickS3, 0x04, nRst, 0x08, dKickS3, 0x04, nRst, dSnareS3, dKickS3, nRst, 0x08
	.byte	dSnareS3, 0x04, nRst, 0x08, dKickS3, 0x04, nRst, dSnareS3, dKickS3, 0x04, nRst, 0x10
	.byte	dKickS3, 0x04, dSnareS3, nRst, 0x08, dKickS3, 0x04, nRst, 0x08, dKickS3, 0x04, nRst
	.byte	dSnareS3, dKickS3, nRst, 0x08, dSnareS3, 0x04, nRst, 0x08, dKickS3, 0x04, nRst, 0x08
	.byte	dKickS3, 0x04, nRst, 0x10, dKickS3, 0x04, dSnareS3, nRst, 0x08, dKickS3, 0x04, nRst
	.byte	0x08, dKickS3, 0x04, nRst, dSnareS3, dKickS3, nRst, 0x08, dSnareS3, 0x04, nRst, 0x08
	.byte	dKickS3, 0x04, nRst, dSnareS3, dKickS3, 0x04, nRst, 0x10, dKickS3, 0x04, dSnareS3, nRst
	.byte	0x08, dKickS3, 0x04, nRst, 0x08, dKickS3, 0x04, nRst, dSnareS3, dKickS3, nRst, 0x08
	.byte	dSnareS3, 0x04, nRst, 0x08, dKickS3, 0x04, nRst, 0x08, dKickS3, 0x04, nRst, 0x10
	.byte	dKickS3, 0x04, dSnareS3, nRst, 0x08, dKickS3, 0x04, nRst, 0x08, dKickS3, 0x04, nRst
	.byte	dSnareS3, dKickS3, nRst, 0x08, dSnareS3, 0x04, nRst, 0x08, dKickS3, 0x04, nRst, dSnareS3
	.byte	dKickS3, 0x04, nRst, 0x10, dKickS3, 0x04, dSnareS3, nRst, 0x08, dKickS3, 0x04, nRst
	.byte	0x08, dKickS3, 0x04, nRst, dSnareS3, dKickS3, nRst, 0x08, dSnareS3, 0x04, nRst, 0x08
	.byte	dKickS3, 0x04, nRst, 0x08, dKickS3, 0x04, nRst, 0x08, dSnareS3, 0x04, nRst, 0x08
	.byte	dSnareS3, 0x04, nRst, dSnareS3, nRst, 0x08, dSnareS3, 0x04, dSnareS3, nRst, 0x08, dSnareS3
	.byte	0x04, nRst, dSnareS3, dSnareS3, nRst, dSnareS3, dSnareS3, nRst, 0x08
	smpsJump            Snd_ICZ1_DACJump00
/*  PSG1 Data */
Snd_ICZ1_PSG1:
	smpsPSGvoice        sTone_05
	.byte	nRst, 0x60, nRst

Snd_ICZ1_Loop01:
	smpsCall            Snd_ICZ1_Call00
	smpsLoop            0x00, 0x04, Snd_ICZ1_Loop01

Snd_ICZ1_Jump04:
	.byte	nRst, 0x60, nRst, nRst, nRst, nRst, nRst, nRst, nRst

Snd_ICZ1_Loop02:
	smpsCall            Snd_ICZ1_Call00
	smpsLoop            0x00, 0x06, Snd_ICZ1_Loop02
	smpsJump            Snd_ICZ1_Jump04

Snd_ICZ1_Call00:
	.byte	nG3, 0x04, nRst, 0x08, nB3, 0x08, nD4, 0x04, nRst, 0x08, nC4, 0x04
	.byte	nB3, nRst, 0x08, nG3, 0x04, nRst, 0x20, nG3, 0x04, nRst, 0x08, nG3
	.byte	0x04, nRst, 0x08, nB3, 0x08, nD4, 0x04, nRst, 0x08, nC4, 0x04, nB3
	.byte	nRst, 0x08, nG3, 0x04, nRst, 0x08, nG3, 0x04, nRst, 0x08, nG3, 0x04
	.byte	nRst, 0x08, nG3, 0x04, nRst, 0x08, nF3, 0x04, nRst, 0x08, nA3, 0x08
	.byte	nC4, 0x04, nRst, 0x08, nB3, 0x04, nA3, nRst, 0x08, nF3, 0x04, nRst
	.byte	0x20, nF3, 0x04, nRst, 0x08, nF3, 0x04, nRst, 0x08, nA3, 0x08, nC4
	.byte	0x04, nRst, 0x08, nB3, 0x04, nA3, nRst, 0x08, nF3, 0x04, nRst, 0x08
	.byte	nF3, 0x04, nRst, 0x08, nF3, 0x04, nRst, 0x08, nF3, 0x04, nRst, 0x08
	smpsReturn

/*  PSG2 Data */
Snd_ICZ1_PSG2:
	.byte	nRst, 0x09
	smpsJump            Snd_ICZ1_PSG1

/*  PSG3 Data */
Snd_ICZ1_PSG3:
	smpsPSGform         0xE7
	smpsPSGvoice        sTone_02
	.byte	nMaxPSG2, 0x04, nRst, 0x08
	smpsPSGAlterVol     0xFF
	.byte	nMaxPSG2, 0x08, nRst, 0x04
	smpsPSGAlterVol     0x01
	.byte	nMaxPSG2, 0x04, nRst, 0x08
	smpsPSGAlterVol     0xFF
	.byte	nMaxPSG2, 0x08, nRst, 0x04
	smpsPSGAlterVol     0x01
	.byte	nMaxPSG2, 0x04, nRst, 0x04
	smpsPSGAlterVol     0xFF
	.byte	nMaxPSG2, 0x08, nRst, 0x04
	smpsPSGAlterVol     0x01
	.byte	nMaxPSG2, 0x04
	smpsPSGAlterVol     0xFF
	.byte	nMaxPSG2, 0x08, nRst, 0x04, nMaxPSG2, 0x08, nRst, 0x04
	smpsPSGAlterVol     0x01
	.byte	nMaxPSG2, 0x04, nRst, 0x2C
	smpsPSGAlterVol     0xFF
	.byte	nMaxPSG2, 0x08, nRst, 0x04, nMaxPSG2, 0x08, nRst, 0x04, nMaxPSG2, 0x08, nRst, 0x04
	.byte	nMaxPSG2, 0x08, nRst, 0x04
	smpsPSGAlterVol     0x02

Snd_ICZ1_Loop00:
	.byte	nMaxPSG2, 0x04, nRst, 0x08
	smpsPSGAlterVol     0xFF
	.byte	nMaxPSG2, 0x08, nRst, 0x04
	smpsPSGAlterVol     0x01
	.byte	nMaxPSG2, 0x04, nRst, 0x08
	smpsPSGAlterVol     0xFF
	.byte	nMaxPSG2, 0x08, nRst, 0x04
	smpsPSGAlterVol     0x01
	.byte	nMaxPSG2, 0x04, nRst, 0x04
	smpsPSGAlterVol     0xFF
	.byte	nMaxPSG2, 0x08, nRst, 0x04
	smpsPSGAlterVol     0x01
	.byte	nMaxPSG2, 0x04
	smpsPSGAlterVol     0xFF
	.byte	nMaxPSG2, 0x08, nRst, 0x04
	smpsPSGAlterVol     0x01
	.byte	nMaxPSG2, 0x04, nRst, 0x08
	smpsLoop            0x00, 0x03, Snd_ICZ1_Loop00
	.byte	nMaxPSG2, 0x04, nRst, 0x08
	smpsPSGAlterVol     0xFF
	.byte	nMaxPSG2, 0x08, nRst, 0x04
	smpsPSGAlterVol     0x01
	.byte	nMaxPSG2, 0x04, nRst, 0x04
	smpsPSGAlterVol     0xFF
	.byte	nMaxPSG2, 0x08, nRst, 0x04
	smpsPSGAlterVol     0x01
	.byte	nMaxPSG2, 0x04
	smpsPSGAlterVol     0xFF
	.byte	nMaxPSG2, 0x08, nRst, 0x04
	smpsPSGAlterVol     0x01
	.byte	nMaxPSG2, 0x04, nRst, 0x04
	smpsPSGAlterVol     0xFF
	.byte	nMaxPSG2, 0x08, nRst, 0x04
	smpsPSGAlterVol     0x01
	.byte	nMaxPSG2, 0x04
	smpsPSGAlterVol     0xFF
	.byte	nMaxPSG2, 0x08
	smpsPSGAlterVol     0x01
	.byte	nRst, 0x04
	smpsJump            Snd_ICZ1_Loop00

Snd_ICZ1_Voices:
/* 	Voice 0x00 */
/* 	0x3A */
/* 	0x01, 0x02, 0x01, 0x00, 	0x53, 0x1C, 0x5D, 0x11, 	0x02, 0x12, 0x14, 0x0F */
/* 	0x02, 0x03, 0x01, 0x00, 	0x1F, 0x4F, 0x1F, 0x0F, 	0x24, 0x20, 0x24, 0x80 */
	smpsVcAlgorithm     0x02
	smpsVcFeedback      0x07
	smpsVcUnusedBits    0x00
	smpsVcDetune        0x00, 0x00, 0x00, 0x00
	smpsVcCoarseFreq    0x00, 0x01, 0x02, 0x01
	smpsVcRateScale     0x00, 0x01, 0x00, 0x01
	smpsVcAttackRate    0x11, 0x1D, 0x1C, 0x13
	smpsVcAmpMod        0x00, 0x00, 0x00, 0x00
	smpsVcDecayRate1    0x0F, 0x14, 0x12, 0x02
	smpsVcDecayRate2    0x00, 0x01, 0x03, 0x02
	smpsVcDecayLevel    0x00, 0x01, 0x04, 0x01
	smpsVcReleaseRate   0x0F, 0x0F, 0x0F, 0x0F
	smpsVcTotalLevel    0x80, 0x24, 0x20, 0x24

/* 	Voice 0x01 */
/* 	0x3C */
/* 	0x01, 0x00, 0x00, 0x00, 	0x1F, 0x1F, 0x15, 0x1F, 	0x11, 0x0D, 0x12, 0x05 */
/* 	0x07, 0x04, 0x09, 0x02, 	0x55, 0x3A, 0x25, 0x1A, 	0x1A, 0x80, 0x07, 0x80 */
	smpsVcAlgorithm     0x04
	smpsVcFeedback      0x07
	smpsVcUnusedBits    0x00
	smpsVcDetune        0x00, 0x00, 0x00, 0x00
	smpsVcCoarseFreq    0x00, 0x00, 0x00, 0x01
	smpsVcRateScale     0x00, 0x00, 0x00, 0x00
	smpsVcAttackRate    0x1F, 0x15, 0x1F, 0x1F
	smpsVcAmpMod        0x00, 0x00, 0x00, 0x00
	smpsVcDecayRate1    0x05, 0x12, 0x0D, 0x11
	smpsVcDecayRate2    0x02, 0x09, 0x04, 0x07
	smpsVcDecayLevel    0x01, 0x02, 0x03, 0x05
	smpsVcReleaseRate   0x0A, 0x05, 0x0A, 0x05
	smpsVcTotalLevel    0x80, 0x07, 0x80, 0x1A

/* 	Voice 0x02 */
/* 	0x3D */
/* 	0x01, 0x02, 0x02, 0x04, 	0x94, 0x19, 0x19, 0x19, 	0x0F, 0x0D, 0x0D, 0x0D */
/* 	0x07, 0x04, 0x04, 0x04, 	0x25, 0x1A, 0x1A, 0x1A, 	0x15, 0x80, 0x80, 0x80 */
	smpsVcAlgorithm     0x05
	smpsVcFeedback      0x07
	smpsVcUnusedBits    0x00
	smpsVcDetune        0x00, 0x00, 0x00, 0x00
	smpsVcCoarseFreq    0x04, 0x02, 0x02, 0x01
	smpsVcRateScale     0x00, 0x00, 0x00, 0x02
	smpsVcAttackRate    0x19, 0x19, 0x19, 0x14
	smpsVcAmpMod        0x00, 0x00, 0x00, 0x00
	smpsVcDecayRate1    0x0D, 0x0D, 0x0D, 0x0F
	smpsVcDecayRate2    0x04, 0x04, 0x04, 0x07
	smpsVcDecayLevel    0x01, 0x01, 0x01, 0x02
	smpsVcReleaseRate   0x0A, 0x0A, 0x0A, 0x05
	smpsVcTotalLevel    0x80, 0x80, 0x80, 0x15

