Snd_Knux_Header:
	smpsHeaderStartSong 3
	smpsHeaderVoice     Snd_Knux_Voices
	smpsHeaderChan      0x06, 0x03
	smpsHeaderTempo     0x01, 0x10

	smpsHeaderDAC       Snd_Knux_DAC
	smpsHeaderFM        Snd_Knux_FM1,	0x0C, 0x11
	smpsHeaderFM        Snd_Knux_FM2,	0xFE, 0x00
	smpsHeaderFM        Snd_Knux_FM3,	0x0C, 0x17
	smpsHeaderFM        Snd_Knux_FM4,	0xF4, 0x0E
	smpsHeaderFM        Snd_Knux_FM5,	0x18, 0x10
	smpsHeaderPSG       Snd_Knux_PSG1,	0xF4, 0x05, 0x00, 0x00
	smpsHeaderPSG       Snd_Knux_PSG2,	0xF4, 0x02, 0x00, 0x00
	smpsHeaderPSG       Snd_Knux_PSG3,	0x00, 0x03, 0x00, 0x00

/*  FM1 Data */
Snd_Knux_FM1:
	smpsSetvoice        0x05

Snd_Knux_Jump01:
	.byte	nA3, 0x06, nG3, nG3, nG3, nG3, nE3, nE3, nE3, nD3, nE3, nD3
	.byte	nC3, nC3, nA2, nA2, nA2, nRst, 0x0C, nE3, nE3, nD3, nC3, nA2
	.byte	nA2, nA2, nG2, nA2, nA2, nA2, nC3, nA2, nA2, nA2, nRst, 0x0C
	.byte	nE3, nE3, nD3, nC3, nA2, nA2, nA2, nA3, nA3, nG3, nE3, nE3
	.byte	nA2, nRst, nA2, nRst, nE3, nE3, nD3, nC3, nA2, nA2, nA2, nG2
	.byte	nA2, nA2, nA2, nC3, nA2, nA2, nA2, nRst, nE3, nE3, nD3, nC3
	.byte	nA2, nA2, nA2, nG2, nA2, nA3, nG3, nA3, 0x06, nA1, 0x03, nB1
	.byte	nC2, nD2, nE2, nF2, nG2, nA2, nB2, nC3, nD3, nE3, nF3, nG3
	smpsJump            Snd_Knux_Jump01

/*  Unreachable */
	smpsStop

/*  FM2 Data */
Snd_Knux_FM2:
	smpsModSet          0x01, 0x01, 0xF0, 0x00

Snd_Knux_Jump00:
	.byte	nRst, 0x60

Snd_Knux_Loop01:
	smpsSetvoice        0x04
	.byte	nG3, 0x13, 0x05, nD3, 0x0C
	smpsSetvoice        0x07
	.byte	nRst
	smpsLoop            0x00, 0x10, Snd_Knux_Loop01
	smpsJump            Snd_Knux_Jump00

/*  Unreachable */
	smpsStop

/*  FM3 Data */
Snd_Knux_FM3:
	.byte	nRst, 0x0C
	smpsAlterNote       0xFE
	smpsJump            Snd_Knux_FM1

/*  Unreachable */
	smpsStop

/*  FM4 Data */
Snd_Knux_FM4:
	smpsSetvoice        0x06
	smpsNoteFill        0x05
	.byte	nA5, 0x06, nG5, nG5, nG5, nG5, nE5, nE5, nE5, nD5, nE5, nD5
	.byte	nC5, nC5, nA4, nA4, nA4, nRst, 0x60, nRst, nRst, nA5, 0x0C
	smpsNoteFill        0x0B
	.byte	0x0C, nG5, nE5
	smpsNoteFill        0x15
	.byte	nE5, 0x18, nRst, nRst, 0x60, nRst, nRst
	smpsNoteFill        0x0C
	.byte	nRst, 0x18, nA5, 0x0C, nG5, nA5, nRst, 0x24
	smpsJump            Snd_Knux_FM4

/*  Unreachable */
	smpsStop

/*  FM5 Data */
Snd_Knux_FM5:
	smpsAlterNote       0xFE
	smpsAlterPitch      0xE8
	smpsJump            Snd_Knux_FM4

/*  Unreachable */
	smpsSetvoice        0x03
	smpsAlterNote       0x02
	smpsStop

/*  PSG1 Data */
Snd_Knux_PSG1:
	smpsPSGvoice        sTone_0A
	.byte	nRst, 0x0B

Snd_Knux_Jump04:
	.byte	nRst, 0x60, nA3, 0x0C
	smpsNoteFill        0x05
	.byte	0x06, 0x06
	smpsNoteFill        0x00
	.byte	0x0C, 0x0C, nC4, 0x24, nA3, 0x0C, nC4, nD4, nBb3, 0x01, smpsNoAttack, nA3
	.byte	0x23, 0x06, 0x06, 0x06, nRst, nA3, 0x0C, nAb3, 0x02, smpsNoAttack, nG3, 0x0A
	.byte	nE3, 0x0C, nE3, 0x24, nC3, 0x0C, nD3, nE3, nE3, 0x02, smpsNoAttack, nD3
	.byte	0x0A, nC3, 0x0C, nA2, 0x48, nA3, 0x0C
	smpsNoteFill        0x05
	.byte	0x06, 0x06, 0x06, 0x06, 0x06, 0x06
	smpsNoteFill        0x00
	.byte	nC4, 0x24, nA3, 0x0C, nC4, nD4, nA3, 0x24
	smpsNoteFill        0x05
	.byte	0x06, 0x06, 0x06, 0x06
	smpsNoteFill        0x00
	.byte	0x0C, nE4, nD4, smpsNoAttack, nD4, nC4, nC4, 0x01, smpsNoAttack, nCs4, smpsNoAttack, nD4
	.byte	smpsNoAttack, nC4, 0x09, nA3, 0x0C, nA3, nG3, nA3, nRst, nA4, nG4, nA4
	.byte	nRst, nRst, nRst
	smpsJump            Snd_Knux_Jump04

/*  Unreachable */
	smpsStop

/*  PSG2 Data */
Snd_Knux_PSG2:
	smpsPSGvoice        sTone_0A
	smpsAlterNote       0xFF

Snd_Knux_Jump03:
	.byte	nRst, 0x60, nA3, 0x0C
	smpsNoteFill        0x05
	.byte	0x06, 0x06
	smpsNoteFill        0x00
	.byte	0x0C, 0x0C, nC4, 0x24, nA3, 0x0C, nC4, nD4, nBb3, 0x01, smpsNoAttack, nA3
	.byte	0x23, 0x06, 0x06, 0x06, nRst, nA3, 0x0C, nAb3, 0x02, smpsNoAttack, nG3, 0x0A
	.byte	nE3, 0x0C, nE3, 0x24, nC3, 0x0C, nD3, nE3, nE3, 0x02, smpsNoAttack, nD3
	.byte	0x0A, nC3, 0x0C, nA2, 0x48, nA3, 0x0C
	smpsNoteFill        0x05
	.byte	0x06, 0x06, 0x06, 0x06, 0x06, 0x06
	smpsNoteFill        0x00
	.byte	nC4, 0x24, nA3, 0x0C, nC4, nD4, nA3, 0x24
	smpsNoteFill        0x05
	.byte	0x06, 0x06, 0x06, 0x06
	smpsNoteFill        0x00
	.byte	0x0C
	smpsAlterNote       0x00
	.byte	nE4
	smpsAlterNote       0xFF
	.byte	nD4, smpsNoAttack, nD4, nC4, nC4, 0x01, smpsNoAttack, nCs4, smpsNoAttack, nD4, smpsNoAttack, nC4
	.byte	0x09, nA3, 0x0C, nA3, nG3, nA3, nRst, nA4, nG4, nA4, nRst, nRst
	.byte	nRst
	smpsJump            Snd_Knux_Jump03

/*  Unreachable */
	smpsStop

/*  PSG3 Data */
Snd_Knux_PSG3:
	smpsPSGform         0xE7

Snd_Knux_Jump02:
	smpsPSGvoice        sTone_26
	.byte	nMaxPSG2, 0x60
	smpsPSGvoice        sTone_01

Snd_Knux_Loop02:
	.byte	nMaxPSG2, 0x06, nRst, nMaxPSG2, nRst, nMaxPSG2, nRst, nMaxPSG2, nRst, nMaxPSG2, nRst, nMaxPSG2
	.byte	nRst, nMaxPSG2, nRst, nMaxPSG2, nRst
	smpsLoop            0x00, 0x08, Snd_Knux_Loop02
	smpsJump            Snd_Knux_Jump02

/*  Unreachable */
	smpsStop

/*  DAC Data */
Snd_Knux_DAC:
	.byte	dCrashCymbal, 0x3C, dEchoedClapHit, 0x06, dEchoedClapHit, nRst, dEchoedClapHit, dEchoedClapHit, nRst

Snd_Knux_Loop00:
	.byte	dLooserSnare, 0x18, dElectricFloorTom, dElectricFloorTom, 0x0C, dEchoedClapHit, 0x06, dEchoedClapHit, dElectricFloorTom, dEchoedClapHit, dEchoedClapHit, nRst
	smpsLoop            0x00, 0x08, Snd_Knux_Loop00
	smpsJump            Snd_Knux_DAC

/*  Unreachable */
	smpsStop

Snd_Knux_Voices:
/* 	Voice 0x00 */
/* 	0x01 */
/* 	0x02, 0x00, 0x00, 0x00, 	0x1F, 0x1F, 0x1F, 0x1F, 	0x10, 0x18, 0x18, 0x10 */
/* 	0x0E, 0x00, 0x00, 0x08, 	0xFF, 0xFF, 0xFF, 0x0F, 	0x12, 0x10, 0x10, 0x80 */
	smpsVcAlgorithm     0x01
	smpsVcFeedback      0x00
	smpsVcUnusedBits    0x00
	smpsVcDetune        0x00, 0x00, 0x00, 0x00
	smpsVcCoarseFreq    0x00, 0x00, 0x00, 0x02
	smpsVcRateScale     0x00, 0x00, 0x00, 0x00
	smpsVcAttackRate    0x1F, 0x1F, 0x1F, 0x1F
	smpsVcAmpMod        0x00, 0x00, 0x00, 0x00
	smpsVcDecayRate1    0x10, 0x18, 0x18, 0x10
	smpsVcDecayRate2    0x08, 0x00, 0x00, 0x0E
	smpsVcDecayLevel    0x00, 0x0F, 0x0F, 0x0F
	smpsVcReleaseRate   0x0F, 0x0F, 0x0F, 0x0F
	smpsVcTotalLevel    0x00, 0x10, 0x10, 0x12

/* 	Voice 0x01 */
/* 	0x05 */
/* 	0x00, 0x00, 0x00, 0x00, 	0x1F, 0x1F, 0x1F, 0x1F, 	0x12, 0x0C, 0x0C, 0x0C */
/* 	0x12, 0x18, 0x1F, 0x1F, 	0x1F, 0x1F, 0x1F, 0x1F, 	0x07, 0x86, 0x86, 0x86 */
	smpsVcAlgorithm     0x05
	smpsVcFeedback      0x00
	smpsVcUnusedBits    0x00
	smpsVcDetune        0x00, 0x00, 0x00, 0x00
	smpsVcCoarseFreq    0x00, 0x00, 0x00, 0x00
	smpsVcRateScale     0x00, 0x00, 0x00, 0x00
	smpsVcAttackRate    0x1F, 0x1F, 0x1F, 0x1F
	smpsVcAmpMod        0x00, 0x00, 0x00, 0x00
	smpsVcDecayRate1    0x0C, 0x0C, 0x0C, 0x12
	smpsVcDecayRate2    0x1F, 0x1F, 0x18, 0x12
	smpsVcDecayLevel    0x01, 0x01, 0x01, 0x01
	smpsVcReleaseRate   0x0F, 0x0F, 0x0F, 0x0F
	smpsVcTotalLevel    0x06, 0x06, 0x06, 0x07

/* 	Voice 0x02 */
/* 	0x3C */
/* 	0x00, 0x00, 0xF0, 0xF1, 	0x1F, 0x1F, 0x17, 0x1F, 	0x1F, 0x1F, 0x14, 0x1F */
/* 	0x09, 0x11, 0x3A, 0x1D, 	0x02, 0x0F, 0x9F, 0x7F, 	0x03, 0x80, 0x02, 0x80 */
	smpsVcAlgorithm     0x04
	smpsVcFeedback      0x07
	smpsVcUnusedBits    0x00
	smpsVcDetune        0x0F, 0x0F, 0x00, 0x00
	smpsVcCoarseFreq    0x01, 0x00, 0x00, 0x00
	smpsVcRateScale     0x00, 0x00, 0x00, 0x00
	smpsVcAttackRate    0x1F, 0x17, 0x1F, 0x1F
	smpsVcAmpMod        0x00, 0x00, 0x00, 0x00
	smpsVcDecayRate1    0x1F, 0x14, 0x1F, 0x1F
	smpsVcDecayRate2    0x1D, 0x3A, 0x11, 0x09
	smpsVcDecayLevel    0x07, 0x09, 0x00, 0x00
	smpsVcReleaseRate   0x0F, 0x0F, 0x0F, 0x02
	smpsVcTotalLevel    0x00, 0x02, 0x00, 0x03

/* 	Voice 0x03 */
/* 	0x3C */
/* 	0x22, 0x00, 0x01, 0x10, 	0x12, 0x13, 0x12, 0x12, 	0x00, 0x00, 0x00, 0x10 */
/* 	0x00, 0x00, 0x00, 0x00, 	0x0F, 0x0F, 0x0F, 0x3F, 	0x23, 0x90, 0x1E, 0x80 */
	smpsVcAlgorithm     0x04
	smpsVcFeedback      0x07
	smpsVcUnusedBits    0x00
	smpsVcDetune        0x01, 0x00, 0x00, 0x02
	smpsVcCoarseFreq    0x00, 0x01, 0x00, 0x02
	smpsVcRateScale     0x00, 0x00, 0x00, 0x00
	smpsVcAttackRate    0x12, 0x12, 0x13, 0x12
	smpsVcAmpMod        0x00, 0x00, 0x00, 0x00
	smpsVcDecayRate1    0x10, 0x00, 0x00, 0x00
	smpsVcDecayRate2    0x00, 0x00, 0x00, 0x00
	smpsVcDecayLevel    0x03, 0x00, 0x00, 0x00
	smpsVcReleaseRate   0x0F, 0x0F, 0x0F, 0x0F
	smpsVcTotalLevel    0x00, 0x1E, 0x10, 0x23

/* 	Voice 0x04 */
/* 	0x00 */
/* 	0x00, 0x03, 0x02, 0x00, 	0xD9, 0xDF, 0x1F, 0x1F, 	0x12, 0x11, 0x14, 0x0C */
/* 	0x0A, 0x00, 0x0A, 0x02, 	0xFF, 0xFF, 0xFF, 0xFF, 	0x22, 0x07, 0x27, 0x85 */
	smpsVcAlgorithm     0x00
	smpsVcFeedback      0x00
	smpsVcUnusedBits    0x00
	smpsVcDetune        0x00, 0x00, 0x00, 0x00
	smpsVcCoarseFreq    0x00, 0x02, 0x03, 0x00
	smpsVcRateScale     0x00, 0x00, 0x03, 0x03
	smpsVcAttackRate    0x1F, 0x1F, 0x1F, 0x19
	smpsVcAmpMod        0x00, 0x00, 0x00, 0x00
	smpsVcDecayRate1    0x0C, 0x14, 0x11, 0x12
	smpsVcDecayRate2    0x02, 0x0A, 0x00, 0x0A
	smpsVcDecayLevel    0x0F, 0x0F, 0x0F, 0x0F
	smpsVcReleaseRate   0x0F, 0x0F, 0x0F, 0x0F
	smpsVcTotalLevel    0x05, 0x27, 0x07, 0x22

/* 	Voice 0x05 */
/* 	0x3C */
/* 	0x36, 0x31, 0x76, 0x72, 	0x94, 0x9F, 0x96, 0x9F, 	0x12, 0x00, 0x14, 0x0F */
/* 	0x04, 0x0A, 0x04, 0x0D, 	0x2F, 0x0F, 0x4F, 0x2F, 	0x33, 0x80, 0x1A, 0x80 */
	smpsVcAlgorithm     0x04
	smpsVcFeedback      0x07
	smpsVcUnusedBits    0x00
	smpsVcDetune        0x07, 0x07, 0x03, 0x03
	smpsVcCoarseFreq    0x02, 0x06, 0x01, 0x06
	smpsVcRateScale     0x02, 0x02, 0x02, 0x02
	smpsVcAttackRate    0x1F, 0x16, 0x1F, 0x14
	smpsVcAmpMod        0x00, 0x00, 0x00, 0x00
	smpsVcDecayRate1    0x0F, 0x14, 0x00, 0x12
	smpsVcDecayRate2    0x0D, 0x04, 0x0A, 0x04
	smpsVcDecayLevel    0x02, 0x04, 0x00, 0x02
	smpsVcReleaseRate   0x0F, 0x0F, 0x0F, 0x0F
	smpsVcTotalLevel    0x00, 0x1A, 0x00, 0x33

/* 	Voice 0x06 */
/* 	0x3A */
/* 	0x01, 0x07, 0x31, 0x71, 	0x8E, 0x8E, 0x8D, 0x53, 	0x0E, 0x0E, 0x0E, 0x03 */
/* 	0x00, 0x00, 0x00, 0x07, 	0x1F, 0xFF, 0x1F, 0x0F, 	0x18, 0x28, 0x27, 0x80 */
	smpsVcAlgorithm     0x02
	smpsVcFeedback      0x07
	smpsVcUnusedBits    0x00
	smpsVcDetune        0x07, 0x03, 0x00, 0x00
	smpsVcCoarseFreq    0x01, 0x01, 0x07, 0x01
	smpsVcRateScale     0x01, 0x02, 0x02, 0x02
	smpsVcAttackRate    0x13, 0x0D, 0x0E, 0x0E
	smpsVcAmpMod        0x00, 0x00, 0x00, 0x00
	smpsVcDecayRate1    0x03, 0x0E, 0x0E, 0x0E
	smpsVcDecayRate2    0x07, 0x00, 0x00, 0x00
	smpsVcDecayLevel    0x00, 0x01, 0x0F, 0x01
	smpsVcReleaseRate   0x0F, 0x0F, 0x0F, 0x0F
	smpsVcTotalLevel    0x00, 0x27, 0x28, 0x18

/* 	Voice 0x07 */
/* 	0x01 */
/* 	0xDF, 0x09, 0x03, 0x09, 	0x10, 0x1F, 0x1F, 0x1F, 	0x09, 0x00, 0x00, 0x0E */
/* 	0x00, 0x00, 0x00, 0x13, 	0x15, 0x05, 0x05, 0x3A, 	0x0C, 0x08, 0x0C, 0x80 */
	smpsVcAlgorithm     0x01
	smpsVcFeedback      0x00
	smpsVcUnusedBits    0x00
	smpsVcDetune        0x00, 0x00, 0x00, 0x0D
	smpsVcCoarseFreq    0x09, 0x03, 0x09, 0x0F
	smpsVcRateScale     0x00, 0x00, 0x00, 0x00
	smpsVcAttackRate    0x1F, 0x1F, 0x1F, 0x10
	smpsVcAmpMod        0x00, 0x00, 0x00, 0x00
	smpsVcDecayRate1    0x0E, 0x00, 0x00, 0x09
	smpsVcDecayRate2    0x13, 0x00, 0x00, 0x00
	smpsVcDecayLevel    0x03, 0x00, 0x00, 0x01
	smpsVcReleaseRate   0x0A, 0x05, 0x05, 0x05
	smpsVcTotalLevel    0x00, 0x0C, 0x08, 0x0C

