Snd_LBZ1_Header:
	smpsHeaderStartSong 3, 1
	smpsHeaderVoice     Snd_LBZ1_Voices
	smpsHeaderChan      0x06, 0x03
	smpsHeaderTempo     0x01, 0x10

	smpsHeaderDAC       Snd_LBZ1_DAC
	smpsHeaderFM        Snd_LBZ1_FM1,	0x18, 0x12
	smpsHeaderFM        Snd_LBZ1_FM2,	0x00, 0x16
	smpsHeaderFM        Snd_LBZ1_FM3,	0x00, 0x17
	smpsHeaderFM        Snd_LBZ1_FM4,	0x00, 0x19
	smpsHeaderFM        Snd_LBZ1_FM5,	0x00, 0x19
	smpsHeaderPSG       Snd_LBZ1_PSG1,	0x00, 0x05, 0x00, sTone_0C
	smpsHeaderPSG       Snd_LBZ1_PSG2,	0x00, 0x05, 0x00, sTone_0C
	smpsHeaderPSG       Snd_LBZ1_PSG3,	0x00, 0x03, 0x00, sTone_0C

/*  DAC Data */
Snd_LBZ1_DAC:
	.byte	dSnareS3, 0x18, dSnareS3, 0x30, dSnareS3, 0x08, dSnareS3, 0x08, dSnareS3, 0x08, dSnareS3, 0x10
	.byte	dSnareS3, 0x08, dSnareS3, 0x30, dSnareS3, 0x08, dSnareS3, 0x08, dSnareS3, 0x08, dSnareS3, 0x10
	.byte	dSnareS3, 0x08, dSnareS3, 0x30, dSnareS3, 0x08, dSnareS3, 0x08, dSnareS3, 0x08, dSnareS3, 0x10
	.byte	dSnareS3, 0x08, dSnareS3, 0x48

Snd_LBZ1_Jump00:
	.byte	dKickS3, 0x18, dKickS3, dKickS3, dKickS3, dKickS3, dKickS3, dKickS3, dKickS3, dKickS3, dKickS3, dKickS3
	.byte	dKickS3, dKickS3, dKickS3, dKickS3, dSnareS3, dKickS3, dKickS3, dKickS3, dKickS3, dKickS3, dKickS3, dKickS3
	.byte	dKickS3, dKickS3, dKickS3, dKickS3, dKickS3, dKickS3, dKickS3, dKickS3, dSnareS3, dKickS3, dKickS3, dKickS3
	.byte	dKickS3, dKickS3, dKickS3, dKickS3, dKickS3, dKickS3, dKickS3, dKickS3, dKickS3, dKickS3, dKickS3, dKickS3
	.byte	dSnareS3, dKickS3, dKickS3, dKickS3, dKickS3, dKickS3, dKickS3, dKickS3, dKickS3, dKickS3, dKickS3, dKickS3
	.byte	dKickS3, dKickS3, dKickS3, dKickS3, dSnareS3, dKickS3, dSnareS3, dKickS3, dSnareS3, dKickS3, dSnareS3, dKickS3
	.byte	dSnareS3, dKickS3, dSnareS3, dKickS3, dSnareS3, dKickS3, dSnareS3, dKickS3, dSnareS3, dKickS3, dSnareS3, dKickS3
	.byte	dSnareS3, dKickS3, dSnareS3, dKickS3, dSnareS3, dKickS3, dSnareS3, dKickS3, dSnareS3, dKickS3, dSnareS3, dKickS3
	.byte	0x0C, dSnareS3, dSnareS3, dSnareS3, dKickS3, 0x18, dSnareS3, dKickS3, dSnareS3, dKickS3, dSnareS3, dKickS3
	.byte	dSnareS3, dKickS3, dSnareS3, dKickS3, dSnareS3, dKickS3, dSnareS3, dKickS3, dSnareS3, dKickS3, dSnareS3, dKickS3
	.byte	dSnareS3, dKickS3, dSnareS3, dKickS3, dSnareS3, dKickS3, dSnareS3, dKickS3, dSnareS3, dKickS3, dSnareS3, dKickS3
	.byte	dSnareS3, dKickS3, dSnareS3, dKickS3, dSnareS3, dKickS3, dSnareS3, dKickS3, dSnareS3, dKickS3, dSnareS3, dKickS3
	.byte	dSnareS3, dKickS3, dSnareS3, dKickS3, dSnareS3, 0x0C, dSnareS3
	smpsJump            Snd_LBZ1_Jump00

/*  FM1 Data */
Snd_LBZ1_FM1:
	smpsSetvoice        0x0A
	smpsDetune          0xFC
	smpsModSet          0x0F, 0x01, 0x06, 0x06
	smpsCall            Snd_LBZ1_Call04

Snd_LBZ1_Jump05:
	smpsSetvoice        0x00
	smpsCall            Snd_LBZ1_Call05
	smpsJump            Snd_LBZ1_Jump05

Snd_LBZ1_Call04:
	.byte	nBb0, 0x05, nRst, 0x13, nBb0, 0x2D, nRst, 0x03, nBb0, 0x05, nRst, 0x03
	.byte	nBb0, 0x05, nRst, 0x03, nBb0, 0x05, nRst, 0x03, nBb0, 0x05, nRst, 0x0B
	.byte	nBb0, 0x05, nRst, 0x03, nBb0, 0x2D, nRst, 0x03, nBb0, 0x05, nRst, 0x03
	.byte	nBb0, 0x05, nRst, 0x03, nBb0, 0x05, nRst, 0x03, nBb0, 0x05, nRst, 0x0B
	.byte	nBb0, 0x05, nRst, 0x03, nBb0, 0x2D, nRst, 0x03, nBb0, 0x05, nRst, 0x03
	.byte	nBb0, 0x05, nRst, 0x03, nBb0, 0x05, nRst, 0x03, nF1, 0x05, nRst, 0x0B
	.byte	nF1, 0x05, nRst, 0x03, nF1, 0x45, nRst, 0x03
	smpsReturn

Snd_LBZ1_Call05:
	.byte	nEb1, 0x03, nRst, 0x09, nEb1, 0x03, nRst, 0x09, nEb1, 0x03, nRst, 0x09
	.byte	nEb1, 0x03, nRst, 0x09, nEb1, 0x03, nRst, 0x09, nEb1, 0x03, nRst, 0x09
	.byte	nEb1, 0x03, nRst, 0x09, nEb1, 0x03, nRst, 0x09, nCs1, 0x03, nRst, 0x09
	.byte	nCs1, 0x03, nRst, 0x09, nCs1, 0x03, nRst, 0x09, nCs1, 0x03, nRst, 0x09
	.byte	nCs1, 0x03, nRst, 0x09, nCs1, 0x03, nRst, 0x09, nCs1, 0x03, nRst, 0x09
	.byte	nCs1, 0x03, nRst, 0x09, nEb1, 0x03, nRst, 0x09, nEb1, 0x03, nRst, 0x09
	.byte	nEb1, 0x03, nRst, 0x09, nEb1, 0x03, nRst, 0x09, nEb1, 0x03, nRst, 0x09
	.byte	nEb1, 0x03, nRst, 0x09, nEb1, 0x03, nRst, 0x09, nEb1, 0x03, nRst, 0x09
	.byte	nCs1, 0x03, nRst, 0x09, nCs1, 0x03, nRst, 0x09, nCs1, 0x03, nRst, 0x09
	.byte	nCs1, 0x03, nRst, 0x09, nCs1, 0x03, nRst, 0x09, nCs1, 0x03, nRst, 0x09
	.byte	nCs1, 0x03, nRst, 0x09, nCs1, 0x03, nRst, 0x09, nEb1, 0x03, nRst, 0x09
	.byte	nEb1, 0x03, nRst, 0x09, nEb1, 0x03, nRst, 0x09, nEb1, 0x03, nRst, 0x09
	.byte	nEb1, 0x03, nRst, 0x09, nEb1, 0x03, nRst, 0x09, nEb1, 0x03, nRst, 0x09
	.byte	nEb1, 0x03, nRst, 0x09, nCs1, 0x03, nRst, 0x09, nCs1, 0x03, nRst, 0x09
	.byte	nCs1, 0x03, nRst, 0x09, nCs1, 0x03, nRst, 0x09, nCs1, 0x03, nRst, 0x09
	.byte	nCs1, 0x03, nRst, 0x09, nCs1, 0x03, nRst, 0x09, nCs1, 0x03, nRst, 0x09
	.byte	nBb0, 0x03, nRst, 0x09, nBb0, 0x03, nRst, 0x09, nBb0, 0x03, nRst, 0x09
	.byte	nBb0, 0x03, nRst, 0x09, nBb0, 0x03, nRst, 0x09, nBb0, 0x03, nRst, 0x09
	.byte	nBb0, 0x03, nRst, 0x09, nBb0, 0x03, nRst, 0x09, nBb0, 0x03, nRst, 0x09
	.byte	nBb0, 0x03, nRst, 0x09, nBb0, 0x03, nRst, 0x09, nBb0, 0x03, nRst, 0x09
	.byte	nBb0, 0x03, nRst, 0x09, nBb0, 0x03, nRst, 0x09, nBb0, 0x03, nRst, 0x09
	.byte	nBb0, 0x03, nRst, 0x09, nEb1, 0x03, nRst, 0x09, nEb1, 0x03, nRst, 0x09
	.byte	nEb1, 0x03, nRst, 0x09, nEb1, 0x03, nRst, 0x09, nEb1, 0x03, nRst, 0x09
	.byte	nEb1, 0x03, nRst, 0x09, nEb1, 0x03, nRst, 0x09, nEb1, 0x03, nRst, 0x09
	.byte	nCs1, 0x03, nRst, 0x09, nCs1, 0x03, nRst, 0x09, nCs1, 0x03, nRst, 0x09
	.byte	nCs1, 0x03, nRst, 0x09, nCs1, 0x03, nRst, 0x09, nCs1, 0x03, nRst, 0x09
	.byte	nCs1, 0x03, nRst, 0x09, nCs1, 0x03, nRst, 0x09, nEb1, 0x03, nRst, 0x09
	.byte	nEb1, 0x03, nRst, 0x09, nEb1, 0x03, nRst, 0x09, nEb1, 0x03, nRst, 0x09
	.byte	nEb1, 0x03, nRst, 0x09, nEb1, 0x03, nRst, 0x09, nEb1, 0x03, nRst, 0x09
	.byte	nEb1, 0x03, nRst, 0x09, nCs1, 0x03, nRst, 0x09, nCs1, 0x03, nRst, 0x09
	.byte	nCs1, 0x03, nRst, 0x09, nCs1, 0x03, nRst, 0x09, nCs1, 0x03, nRst, 0x09
	.byte	nCs1, 0x03, nRst, 0x09, nCs1, 0x03, nRst, 0x09, nCs1, 0x03, nRst, 0x09
	.byte	nEb1, 0x03, nRst, 0x09, nEb1, 0x03, nRst, 0x09, nEb1, 0x03, nRst, 0x09
	.byte	nEb1, 0x03, nRst, 0x09, nEb1, 0x03, nRst, 0x09, nEb1, 0x03, nRst, 0x09
	.byte	nEb1, 0x03, nRst, 0x09, nEb1, 0x03, nRst, 0x09, nCs1, 0x03, nRst, 0x09
	.byte	nCs1, 0x03, nRst, 0x09, nCs1, 0x03, nRst, 0x09, nCs1, 0x03, nRst, 0x09
	.byte	nCs1, 0x03, nRst, 0x09, nCs1, 0x03, nRst, 0x09, nCs1, 0x03, nRst, 0x09
	.byte	nCs1, 0x03, nRst, 0x09, nBb0, 0x03, nRst, 0x09, nBb0, 0x03, nRst, 0x09
	.byte	nBb0, 0x03, nRst, 0x09, nBb0, 0x03, nRst, 0x09, nBb0, 0x03, nRst, 0x09
	.byte	nBb0, 0x03, nRst, 0x09, nBb0, 0x03, nRst, 0x09, nBb0, 0x03, nRst, 0x09
	.byte	nBb0, 0x03, nRst, 0x09, nBb0, 0x03, nRst, 0x09, nBb0, 0x03, nRst, 0x09
	.byte	nBb0, 0x03, nRst, 0x09, nBb0, 0x03, nRst, 0x09, nBb0, 0x03, nRst, 0x09
	.byte	nBb0, 0x03, nRst, 0x09, nBb0, 0x03, nRst, 0x09, nG0, 0x03, nRst, 0x09
	.byte	nG0, 0x03, nRst, 0x09, nG0, 0x03, nRst, 0x09, nG0, 0x03, nRst, 0x09
	.byte	nG0, 0x03, nRst, 0x09, nG0, 0x03, nRst, 0x09, nG0, 0x03, nRst, 0x09
	.byte	nG0, 0x03, nRst, 0x09, nAb0, 0x03, nRst, 0x09, nAb0, 0x03, nRst, 0x09
	.byte	nAb0, 0x03, nRst, 0x09, nAb0, 0x03, nRst, 0x09, nAb0, 0x03, nRst, 0x09
	.byte	nAb0, 0x03, nRst, 0x09, nAb0, 0x03, nRst, 0x09, nAb0, 0x03, nRst, 0x09
	.byte	nEb1, 0x03, nRst, 0x09, nEb1, 0x03, nRst, 0x09, nEb1, 0x03, nRst, 0x09
	.byte	nEb1, 0x03, nRst, 0x09, nEb1, 0x03, nRst, 0x09, nEb1, 0x03, nRst, 0x09
	.byte	nEb1, 0x03, nRst, 0x09, nEb1, 0x03, nRst, 0x09, nF1, 0x03, nRst, 0x09
	.byte	nF1, 0x03, nRst, 0x09, nF1, 0x03, nRst, 0x09, nF1, 0x03, nRst, 0x09
	.byte	nF1, 0x03, nRst, 0x09, nF1, 0x03, nRst, 0x09, nF1, 0x03, nRst, 0x09
	.byte	nF1, 0x03, nRst, 0x09, nG0, 0x03, nRst, 0x09, nG0, 0x03, nRst, 0x09
	.byte	nG0, 0x03, nRst, 0x09, nG0, 0x03, nRst, 0x09, nG0, 0x03, nRst, 0x09
	.byte	nG0, 0x03, nRst, 0x09, nG0, 0x03, nRst, 0x09, nG0, 0x03, nRst, 0x09
	.byte	nEb1, 0x03, nRst, 0x09, nEb1, 0x03, nRst, 0x09, nEb1, 0x03, nRst, 0x09
	.byte	nEb1, 0x03, nRst, 0x09, nEb1, 0x03, nRst, 0x09, nEb1, 0x03, nRst, 0x09
	.byte	nEb1, 0x03, nRst, 0x09, nEb1, 0x03, nRst, 0x09, nF1, 0x03, nRst, 0x09
	.byte	nF1, 0x03, nRst, 0x09, nF1, 0x03, nRst, 0x09, nF1, 0x03, nRst, 0x09
	.byte	nF1, 0x03, nRst, 0x09, nF1, 0x03, nRst, 0x09, nF1, 0x03, nRst, 0x09
	.byte	nF1, 0x03, nRst, 0x09, nF1, 0x03, nRst, 0x09, nF1, 0x03, nRst, 0x09
	.byte	nF1, 0x03, nRst, 0x09, nF1, 0x03, nRst, 0x09, nF1, 0x03, nRst, 0x09
	.byte	nF1, 0x03, nRst, 0x09, nF1, 0x03, nRst, 0x09, nF1, 0x03, nRst, 0x09
	.byte	nAb0, 0x03, nRst, 0x09, nAb0, 0x03, nRst, 0x09, nAb0, 0x03, nRst, 0x09
	.byte	nAb0, 0x03, nRst, 0x09, nAb0, 0x03, nRst, 0x09, nAb0, 0x03, nRst, 0x09
	.byte	nAb0, 0x03, nRst, 0x09, nAb0, 0x03, nRst, 0x09, nCs1, 0x03, nRst, 0x09
	.byte	nCs1, 0x03, nRst, 0x09, nCs1, 0x03, nRst, 0x09, nCs1, 0x03, nRst, 0x09
	.byte	nCs1, 0x03, nRst, 0x09, nCs1, 0x03, nRst, 0x09, nCs1, 0x03, nRst, 0x09
	.byte	nCs1, 0x03, nRst, 0x09, nAb0, 0x03, nRst, 0x09, nAb0, 0x03, nRst, 0x09
	.byte	nAb0, 0x03, nRst, 0x09, nAb0, 0x03, nRst, 0x09, nAb0, 0x03, nRst, 0x09
	.byte	nAb0, 0x03, nRst, 0x09, nAb0, 0x03, nRst, 0x09, nAb0, 0x03, nRst, 0x09
	.byte	nEb1, 0x03, nRst, 0x09, nEb1, 0x03, nRst, 0x09, nEb1, 0x03, nRst, 0x09
	.byte	nEb1, 0x03, nRst, 0x09, nEb1, 0x03, nRst, 0x09, nEb1, 0x03, nRst, 0x09
	.byte	nEb1, 0x03, nRst, 0x09, nEb1, 0x03, nRst, 0x09, nAb1, 0x03, nRst, 0x09
	.byte	nAb1, 0x03, nRst, 0x09, nAb1, 0x03, nRst, 0x09, nAb1, 0x03, nRst, 0x09
	.byte	nFs1, 0x03, nRst, 0x09, nFs1, 0x03, nRst, 0x09, nFs1, 0x03, nRst, 0x09
	.byte	nFs1, 0x03, nRst, 0x09, nF1, 0x03, nRst, 0x09, nF1, 0x03, nRst, 0x09
	.byte	nF1, 0x03, nRst, 0x09, nF1, 0x03, nRst, 0x09, nE1, 0x03, nRst, 0x09
	.byte	nE1, 0x03, nRst, 0x09, nE1, 0x03, nRst, 0x09, nE1, 0x03, nRst, 0x09
	.byte	nEb1, 0x08, nRst, 0x04, nD1, 0x14, nRst, 0x04, nF1, 0x08, nRst, 0x04
	.byte	nE1, 0x14, nRst, 0x04, nAb1, 0x08, nRst, 0x04, nG1, 0x14, nRst, 0x04
	.byte	nBb1, 0x08, nRst, 0x04, nA1, 0x14, nRst, 0x04, nB1, 0x14, nRst, 0x04
	.byte	nBb1, 0x14, nRst, 0x04, nAb0, 0x03, nRst, 0x09, nAb0, 0x03, nRst, 0x09
	.byte	nAb0, 0x03, nRst, 0x09, nAb0, 0x03, nRst, 0x09, nAb0, 0x03, nRst, 0x09
	.byte	nAb0, 0x03, nRst, 0x09, nAb0, 0x03, nRst, 0x09, nAb0, 0x03, nRst, 0x09
	.byte	nAb0, 0x03, nRst, 0x09, nAb0, 0x03, nRst, 0x09, nAb0, 0x03, nRst, 0x09
	.byte	nAb0, 0x03, nRst, 0x09, nAb0, 0x03, nRst, 0x09, nAb0, 0x03, nRst, 0x09
	.byte	nAb0, 0x03, nRst, 0x09, nAb0, 0x03, nRst, 0x09, nAb0, 0x03, nRst, 0x09
	.byte	nAb0, 0x03, nRst, 0x09, nAb0, 0x03, nRst, 0x09, nAb0, 0x03, nRst, 0x09
	.byte	nAb0, 0x03, nRst, 0x09, nAb0, 0x03, nRst, 0x09, nAb0, 0x03, nRst, 0x09
	.byte	nAb0, 0x03, nRst, 0x09, nAb0, 0x03, nRst, 0x09, nAb0, 0x03, nRst, 0x09
	.byte	nAb0, 0x03, nRst, 0x09, nAb0, 0x03, nRst, 0x09, nAb0, 0x03, nRst, 0x09
	.byte	nAb0, 0x03, nRst, 0x09, nAb0, 0x03, nRst, 0x09, nAb0, 0x03, nRst, 0x09
	smpsReturn

/*  FM2 Data */
Snd_LBZ1_FM2:
	smpsSetvoice        0x0A
	smpsDetune          0x04
	smpsModSet          0x0F, 0x01, 0x06, 0x06
	smpsCall            Snd_LBZ1_Call02
	smpsSetvoice        0x0A
	smpsDetune          0x04
	smpsModSet          0x0F, 0x01, 0x06, 0x06

Snd_LBZ1_Jump04:
	smpsSetvoice        0x0A
	smpsDetune          0x04
	smpsModSet          0x0F, 0x01, 0x06, 0x06
	smpsCall            Snd_LBZ1_Call03
	smpsJump            Snd_LBZ1_Jump04

Snd_LBZ1_Call02:
	.byte	nD4, 0x04, nRst, 0x14, nD4, 0x2F, nRst, 0x01, nEb4, 0x08, nD4, 0x07
	.byte	nRst, 0x01, nC4, 0x08, nBb3, 0x03, nRst, 0x0D, nD4, 0x03, nRst, 0x05
	.byte	nD4, 0x30, nEb4, 0x07, nRst, 0x01, nD4, 0x08, nC4, 0x05, nRst, 0x03
	.byte	nBb3, 0x05, nRst, 0x0B, nD4, 0x03, nRst, 0x05, nD4, 0x30, nC4, 0x06
	.byte	nRst, 0x02, nD4, 0x06, nRst, 0x02, nEb4, 0x07, nRst, 0x01, nD4, 0x02
	.byte	nRst, 0x0E, nA3, 0x03, nRst, 0x05, nA3, 0x3A, nRst, 0x0E
	smpsReturn

Snd_LBZ1_Call03:
	.byte	nEb3, 0x38, nRst, 0x04, nBb3, 0x08, nRst, 0x04, nEb4, 0x08, nRst, 0x04
	.byte	nBb3, 0x08, nRst, 0x04, nCs4, 0x14, nRst, 0x04, nC4, 0x14, nRst, 0x04
	.byte	nAb3, 0x14, nRst, 0x04, nAb3, 0x08, nRst, 0x04, nC4, 0x08, nRst, 0x04
	.byte	nBb3, 0x20, nRst, 0x04, nEb3, 0x60, 0x38, nRst, 0x04, nEb3, 0x38, nRst
	.byte	0x04, nBb3, 0x08, nRst, 0x04, nEb4, 0x08, nRst, 0x04, nBb3, 0x08, nRst
	.byte	0x04, nCs4, 0x14, nRst, 0x04, nC4, 0x14, nRst, 0x04, nAb3, 0x14, nRst
	.byte	0x04, nAb3, 0x08, nRst, 0x04, nC4, 0x08, nRst, 0x04, nBb3, 0x60, 0x5C
	.byte	nRst, 0x04, nEb3, 0x38, nRst, 0x04, nBb3, 0x08, nRst, 0x04, nEb4, 0x08
	.byte	nRst, 0x04, nBb3, 0x08, nRst, 0x04, nCs4, 0x14, nRst, 0x04, nC4, 0x14
	.byte	nRst, 0x04, nAb3, 0x14, nRst, 0x04, nAb3, 0x08, nRst, 0x04, nC4, 0x08
	.byte	nRst, 0x04, nBb3, 0x20, nRst, 0x04, nEb3, 0x60, 0x38, nRst, 0x04, nEb3
	.byte	0x38, nRst, 0x04, nBb3, 0x08, nRst, 0x04, nEb4, 0x08, nRst, 0x04, nBb3
	.byte	0x08, nRst, 0x04, nCs4, 0x14, nRst, 0x04, nC4, 0x14, nRst, 0x04, nAb3
	.byte	0x14, nRst, 0x04, nAb3, 0x08, nRst, 0x04, nC4, 0x08, nRst, 0x04, nBb3
	.byte	0x60, 0x5C, nRst, 0x04, nBb3, 0x2C, nRst, 0x04, nG3, 0x08, nRst, 0x04
	.byte	nBb3, 0x08, nRst, 0x04, nD4, 0x08, nRst, 0x04, nBb3, 0x08, nRst, 0x04
	.byte	nEb4, 0x08, nRst, 0x04, nD4, 0x08, nRst, 0x04, nC4, 0x08, nRst, 0x04
	.byte	nBb3, 0x20, nRst, 0x04, nBb3, 0x08, nRst, 0x04, nC4, 0x08, nRst, 0x04
	.byte	nD4, 0x08, nRst, 0x04, nBb3, 0x08, nRst, 0x04, nG3, 0x08, nRst, 0x04
	.byte	nBb3, 0x14, nRst, 0x04, nG3, 0x08, nRst, 0x04, nBb3, 0x08, nRst, 0x04
	.byte	nC4, 0x60, 0x08, nRst, 0x04, nBb3, 0x2C, nRst, 0x04, nBb3, 0x08, nRst
	.byte	0x04, nC4, 0x08, nRst, 0x04, nD4, 0x08, nRst, 0x04, nBb3, 0x08, nRst
	.byte	0x04, nG4, 0x08, nRst, 0x04, nF4, 0x08, nRst, 0x04, nEb4, 0x08, nRst
	.byte	0x04, nBb3, 0x08, nRst, 0x04, nC4, 0x08, nRst, 0x04, nD4, 0x08, nRst
	.byte	0x04, nEb4, 0x08, nRst, 0x04, nF4, 0x08, nRst, 0x04, nD4, 0x20, nRst
	.byte	0x04, nC4, 0x08, nRst, 0x04, nC4, 0x60, 0x2C, nRst, 0x04, nAb4, 0x08
	.byte	nRst, 0x04, nAb4, 0x08, nRst, 0x04, nAb4, 0x08, nRst, 0x04, nAb4, 0x08
	.byte	nRst, 0x04, nAb4, 0x08, nRst, 0x04, nAb4, 0x08, nRst, 0x04, nAb4, 0x08
	.byte	nRst, 0x04, nAb4, 0x08, nRst, 0x04, nAb4, 0x08, nRst, 0x04, nBb4, 0x08
	.byte	nRst, 0x04, nC5, 0x08, nRst, 0x04, nAb4, 0x20, nRst, 0x04, nF4, 0x14
	.byte	nRst, 0x04, nAb4, 0x08, nRst, 0x04, nBb4, 0x08, nRst, 0x04, nC5, 0x08
	.byte	nRst, 0x04, nAb4, 0x14, nRst, 0x04, nAb4, 0x08, nRst, 0x04, nBb4, 0x08
	.byte	nRst, 0x04, nC5, 0x08, nRst, 0x04, nC5, 0x08, nRst, 0x04, nBb4, 0x08
	.byte	nRst, 0x04, nG4, 0x08, nRst, 0x04, nEb4, 0x38, nRst, 0x04, nAb4, 0x08
	.byte	nRst, 0x04, nAb4, 0x08, nRst, 0x04, nAb4, 0x08, nRst, 0x04, nAb4, 0x08
	.byte	nRst, 0x04, nAb4, 0x08, nRst, 0x04, nAb4, 0x08, nRst, 0x04, nAb4, 0x08
	.byte	nRst, 0x04, nAb4, 0x08, nRst, 0x04, nAb4, 0x08, nRst, 0x04, nBb4, 0x08
	.byte	nRst, 0x04, nC5, 0x08, nRst, 0x04, nAb4, 0x20, nRst, 0x1C, nAb4, 0x08
	.byte	nRst, 0x04, nG4, 0x08, nRst, 0x10, nBb4, 0x08, nRst, 0x04, nA4, 0x08
	.byte	nRst, 0x10, nC5, 0x08, nRst, 0x04, nB4, 0x08, nRst, 0x10, nCs5, 0x08
	.byte	nRst, 0x04, nC5, 0x08, nRst, 0x10, nE5, 0x14, nRst, 0x04, nEb5, 0x14
	.byte	nRst, 0x04, nAb4, 0x60, 0x38, nRst, 0x04, nAb4, 0x03, nRst, nBb4, nRst
	.byte	nC5, nRst, nBb4, nRst, nAb4, nRst, nG4, nRst, nAb4, 0x20, nRst, 0x04
	.byte	nEb4, 0x08, nRst, 0x04, nEb4, 0x2C, nRst, 0x04, nF4, 0x08, nRst, 0x04
	.byte	nF4, 0x08, nRst, 0x04, nG4, 0x08, nRst, 0x04, nAb4, 0x08, nRst, 0x10
	.byte	nBb4, 0x20, nRst, 0x04
	smpsReturn

/*  FM3 Data */
Snd_LBZ1_FM3:
	.byte	nRst, 0x0C
	smpsFMAlterVol      0x06
	smpsSetvoice        0x0A
	smpsDetune          0xFC
	smpsModSet          0x0F, 0x01, 0x06, 0x06
	smpsCall            Snd_LBZ1_Call02
	smpsFMAlterVol      0x02
	smpsSetvoice        0x0A
	smpsDetune          0xFC
	smpsModSet          0x0F, 0x01, 0x06, 0x06

Snd_LBZ1_Jump03:
	smpsCall            Snd_LBZ1_Call03
	smpsJump            Snd_LBZ1_Jump03

/*  FM4 Data */
Snd_LBZ1_FM4:
	smpsSetvoice        0x08
	smpsDetune          0x03
	smpsModSet          0x03, 0x01, 0xFD, 0x05
	smpsPan             panLeft, 0x00
	smpsCall            Snd_LBZ1_Call00

Snd_LBZ1_Jump02:
	smpsCall            Snd_LBZ1_Call01
	smpsJump            Snd_LBZ1_Jump02

/*  FM5 Data */
Snd_LBZ1_FM5:
	smpsSetvoice        0x08
	smpsDetune          0xFD
	smpsModSet          0x03, 0x01, 0x03, 0x05
	smpsPan             panRight, 0x00
	smpsCall            Snd_LBZ1_Call00

Snd_LBZ1_Jump01:
	smpsCall            Snd_LBZ1_Call01
	smpsJump            Snd_LBZ1_Jump01

Snd_LBZ1_Call00:
	.byte	nF4, 0x05, nRst, 0x13, nF4, 0x2F, nRst, 0x01, nG4, 0x08, nF4, 0x07
	.byte	nRst, 0x01, nEb4, 0x08, nD4, 0x04, nRst, 0x0C, nF4, 0x03, nRst, 0x05
	.byte	nF4, 0x30, nG4, 0x08, nF4, 0x07, nRst, 0x01, nEb4, 0x08, nD4, 0x07
	.byte	nRst, 0x09, nF4, 0x04, nRst, nF4, 0x30, nEb4, 0x08, nF4, nG4, nF4
	.byte	0x05, nRst, 0x0B, nC4, 0x04, nRst, nC4, 0x46, nRst, 0x02
	smpsReturn

Snd_LBZ1_Call01:
	.byte	nRst, 0x60, nRst, nRst, 0x3C, nBb3, 0x0C, nEb4, nBb3, 0x0B, nRst, 0x01
	.byte	nCs4, 0x18, nC4, 0x17, nRst, 0x01, nAb3, 0x13, nRst, 0x05, nAb3, 0x0A
	.byte	nRst, 0x02, nC4, 0x0C, nBb3, 0x24, nEb3, 0x60, 0x3A, nRst, 0x32, nBb3
	.byte	0x0C, nC4, 0x0B, nRst, 0x01, nD4, 0x0B, nRst, 0x01, nEb4, 0x0B, nRst
	.byte	0x01, nF4, 0x0C, nBb4, 0x54, nRst, 0x60, nRst, nRst, 0x3C, nBb3, 0x0B
	.byte	nRst, 0x01, nEb4, 0x0B, nRst, 0x01, nBb3, 0x0A, nRst, 0x02, nCs4, 0x17
	.byte	nRst, 0x01, nC4, 0x17, nRst, 0x01, nAb3, 0x15, nRst, 0x03, nAb3, 0x0B
	.byte	nRst, 0x01, nC4, 0x0C, nBb3, 0x22, nRst, 0x02, nEb3, 0x60, 0x3B, nRst
	.byte	0x31, nBb3, 0x0B, nRst, 0x01, nC4, 0x0C, nD4, 0x0B, nRst, 0x01, nEb4
	.byte	0x0C, nF4, 0x0B, nRst, 0x01, nBb4, 0x48, nA4, 0x0B, nRst, 0x01, nG4
	.byte	0x5F, nRst, 0x01, nEb4, 0x5F, nRst, 0x01, nD4, 0x24, nF4, 0x16, nRst
	.byte	0x02, nF3, 0x0B, nRst, 0x01, nBb3, 0x0B, nRst, 0x01, nA3, 0x54, nRst
	.byte	0x18, nG4, 0x60, nEb4, nD4, 0x24, nF4, 0x3A, nRst, 0x02, nE4, 0x24
	.byte	nG4, 0x39, nRst, 0x03, nAb4, nRst, 0x09, nEb4, 0x02, nRst, 0x0A, nC4
	.byte	0x03, nRst, 0x09, nAb4, 0x04, nRst, 0x08, nEb4, 0x03, nRst, 0x09, nC4
	.byte	0x03, nRst, 0x09, nAb4, 0x03, nRst, 0x09, nEb4, 0x04, nRst, 0x08, nF4
	.byte	0x03, nRst, 0x09, nCs4, 0x03, nRst, 0x09, nAb3, 0x03, nRst, 0x09, nF4
	.byte	0x04, nRst, 0x08, nCs4, 0x03, nRst, 0x09, nAb3, 0x04, nRst, 0x08, nF4
	.byte	0x04, nRst, 0x08, nCs4, 0x04, nRst, 0x08, nAb4, 0x03, nRst, 0x09, nEb4
	.byte	0x03, nRst, 0x09, nC4, 0x03, nRst, 0x09, nAb4, 0x04, nRst, 0x08, nEb4
	.byte	0x05, nRst, 0x07, nC4, 0x05, nRst, 0x07, nAb4, 0x04, nRst, 0x08, nEb4
	.byte	0x03, nRst, 0x09, nBb4, 0x04, nRst, 0x08, nG4, 0x03, nRst, 0x09, nEb4
	.byte	0x03, nRst, 0x09, nBb4, 0x05, nRst, 0x07, nG4, 0x03, nRst, 0x09, nEb4
	.byte	0x04, nRst, 0x08, nBb4, 0x04, nRst, 0x08, nG4, 0x02, nRst, 0x22, nAb4
	.byte	0x18, nRst, nFs4, 0x17, nRst, 0x19, nF4, 0x17, nRst, 0x19, nE4, 0x17
	.byte	nRst, 0x01, nAb4, 0x03, nRst, 0x09, nG4, 0x04, nRst, 0x08, nFs4, 0x04
	.byte	nRst, 0x08, nF4, 0x05, nRst, 0x07, nE4, 0x04, nRst, 0x08, nEb4, 0x05
	.byte	nRst, 0x07, nD4, 0x04, nRst, 0x08, nCs4, 0x05, nRst, 0x07, nC4, 0x05
	.byte	nRst, 0x07, nB3, 0x04, nRst, 0x08, nBb3, 0x06, nRst, nA3, 0x05, nRst
	.byte	0x07, nAb3, 0x14, nRst, 0x04, nG3, 0x0E, nRst, 0x0A, nAb4, 0x04, nRst
	.byte	0x08, nEb4, 0x03, nRst, 0x09, nC4, 0x04, nRst, 0x08, nAb4, 0x05, nRst
	.byte	0x07, nEb4, 0x04, nRst, 0x08, nC4, 0x05, nRst, 0x07, nAb4, 0x05, nRst
	.byte	0x07, nEb4, 0x06, nRst, nF4, 0x04, nRst, 0x08, nCs4, 0x04, nRst, 0x08
	.byte	nAb3, 0x04, nRst, 0x08, nF4, 0x05, nRst, 0x07, nCs4, 0x04, nRst, 0x08
	.byte	nAb3, 0x05, nRst, 0x07, nF4, 0x06, nRst, nCs4, 0x05, nRst, 0x07, nAb4
	.byte	0x04, nRst, 0x08, nEb4, 0x04, nRst, 0x08, nC4, 0x05, nRst, 0x07, nAb4
	.byte	0x05, nRst, 0x07, nEb4, 0x04, nRst, 0x08, nC4, 0x06, nRst, nAb4, 0x04
	.byte	nRst, 0x08, nEb4, 0x05, nRst, 0x07, nCs4, 0x16, nRst, 0x02, nEb4, 0x0C
	.byte	nF4, 0x07, nRst, 0x11, nG4, 0x24
	smpsJump            Snd_LBZ1_Call01

/*  PSG3 Data */
Snd_LBZ1_PSG3:
	smpsPSGvoice        sTone_02
	smpsPSGform         0xE7
	.byte	nMaxPSG1, 0x18, nMaxPSG1, 0x30, nMaxPSG1, 0x08, nMaxPSG1, 0x08, nMaxPSG1, 0x08, nMaxPSG1, 0x10
	.byte	nMaxPSG1, 0x08, nMaxPSG1, 0x30, nMaxPSG1, 0x08, nMaxPSG1, 0x08, nMaxPSG1, 0x08, nMaxPSG1, 0x10
	.byte	nMaxPSG1, 0x08, nMaxPSG1, 0x30, nMaxPSG1, 0x08, nMaxPSG1, 0x08, nMaxPSG1, 0x08, nMaxPSG1, 0x10
	.byte	nMaxPSG1, 0x08, nMaxPSG1, 0x48

Snd_LBZ1_Jump07:
	.byte	nMaxPSG1, 0x0C, nMaxPSG1, 0x06, nMaxPSG1, nMaxPSG1, 0x0C, nMaxPSG1, 0x06, nMaxPSG1, nMaxPSG1, 0x0C
	.byte	nMaxPSG1, 0x06, nMaxPSG1, nMaxPSG1, 0x0C, nMaxPSG1, 0x06, nMaxPSG1
	smpsJump            Snd_LBZ1_Jump07

/*  PSG1 Data */
Snd_LBZ1_PSG1:
	smpsPSGvoice        sTone_0A
	smpsDetune          0xFF
	smpsChangeTransposition 0xF4
	smpsCall            Snd_LBZ1_Call06
	smpsChangeTransposition 0x0C
	smpsJump            Snd_LBZ1_Jump06

/*  PSG2 Data */
Snd_LBZ1_PSG2:
	smpsPSGvoice        sTone_0A
	smpsDetune          0x00
	smpsChangeTransposition 0xF4
	smpsCall            Snd_LBZ1_Call06
	smpsChangeTransposition 0x0C
	smpsJump            Snd_LBZ1_Jump06

Snd_LBZ1_Call06:
	.byte	nF5, 0x05, nRst, 0x13, nF5, 0x2F, nRst, 0x01, nG5, 0x08, nF5, 0x07
	.byte	nRst, 0x01, nEb5, 0x08, nD5, 0x04, nRst, 0x0C, nF5, 0x03, nRst, 0x05
	.byte	nF5, 0x30, nG5, 0x08, nF5, 0x07, nRst, 0x01, nEb5, 0x08, nD5, 0x07
	.byte	nRst, 0x09, nF5, 0x04, nRst, nF5, 0x30, nEb5, 0x08, nF5, nG5, nF5
	.byte	0x05, nRst, 0x0B, nC5, 0x04, nRst, nC5, 0x46, nRst, 0x02
	smpsReturn

Snd_LBZ1_Jump06:
	.byte	nRst, 0x60, nRst, nRst, 0x54, nBb1, 0x01, nRst, 0x05, nBb1, 0x02, nRst
	.byte	0x04, nBb1, 0x02, nRst, 0x22, nAb1, 0x01, nRst, 0x05, nAb1, 0x01, nRst
	.byte	0x05, nAb1, 0x01, nRst, 0x60, nRst, nRst, nRst, 0x23, nBb1, 0x01, nRst
	.byte	0x05, nBb1, 0x02, nRst, 0x04, nBb1, 0x02, nRst, 0x22, nAb1, 0x01, nRst
	.byte	0x05, nAb1, 0x01, nRst, 0x05, nAb1, 0x01, nRst, 0x60, nRst, nRst, nRst
	.byte	0x23, nBb1, 0x01, nRst, 0x05, nBb1, 0x02, nRst, 0x04, nBb1, 0x02, nRst
	.byte	0x22, nAb1, 0x01, nRst, 0x05, nAb1, 0x01, nRst, 0x05, nAb1, 0x01, nRst
	.byte	0x60, nRst, nRst, nRst, 0x47, nAb1, 0x01, nRst, 0x05, nAb1, 0x01, nRst
	.byte	0x05, nAb1, 0x01, nRst, 0x05, nAb1, 0x01, nRst, 0x05, nAb1, 0x01, nRst
	.byte	0x0B, nEb1, 0x02, nRst, 0x0A, nEb1, 0x02, nRst, 0x60, nRst, nRst, nRst
	.byte	nRst, nRst, nRst, nRst, nRst, nRst, nRst, nRst, nRst, nRst, nRst, nRst
	.byte	nRst, nRst, nRst, nRst, nRst, 0x16
	smpsJump            Snd_LBZ1_Jump06

Snd_LBZ1_Voices:
/* 	Voice 0x00 */
/* 	0x3C */
/* 	0x01, 0x00, 0x00, 0x00, 	0x1F, 0x1F, 0x15, 0x1F, 	0x11, 0x0D, 0x12, 0x05 */
/* 	0x07, 0x04, 0x09, 0x02, 	0x55, 0x3A, 0x25, 0x1A, 	0x1A, 0x80, 0x07, 0x80 */
	smpsVcAlgorithm     0x04
	smpsVcFeedback      0x07
	smpsVcUnusedBits    0x00
	smpsVcDetune        0x00, 0x00, 0x00, 0x00
	smpsVcCoarseFreq    0x00, 0x00, 0x00, 0x01
	smpsVcRateScale     0x00, 0x00, 0x00, 0x00
	smpsVcAttackRate    0x1F, 0x15, 0x1F, 0x1F
	smpsVcAmpMod        0x00, 0x00, 0x00, 0x00
	smpsVcDecayRate1    0x05, 0x12, 0x0D, 0x11
	smpsVcDecayRate2    0x02, 0x09, 0x04, 0x07
	smpsVcDecayLevel    0x01, 0x02, 0x03, 0x05
	smpsVcReleaseRate   0x0A, 0x05, 0x0A, 0x05
	smpsVcTotalLevel    0x80, 0x07, 0x80, 0x1A

/* 	Voice 0x01 */
/* 	0x3D */
/* 	0x01, 0x01, 0x01, 0x01, 	0x94, 0x19, 0x19, 0x19, 	0x0F, 0x0D, 0x0D, 0x0D */
/* 	0x07, 0x04, 0x04, 0x04, 	0x25, 0x1A, 0x1A, 0x1A, 	0x15, 0x80, 0x80, 0x80 */
	smpsVcAlgorithm     0x05
	smpsVcFeedback      0x07
	smpsVcUnusedBits    0x00
	smpsVcDetune        0x00, 0x00, 0x00, 0x00
	smpsVcCoarseFreq    0x01, 0x01, 0x01, 0x01
	smpsVcRateScale     0x00, 0x00, 0x00, 0x02
	smpsVcAttackRate    0x19, 0x19, 0x19, 0x14
	smpsVcAmpMod        0x00, 0x00, 0x00, 0x00
	smpsVcDecayRate1    0x0D, 0x0D, 0x0D, 0x0F
	smpsVcDecayRate2    0x04, 0x04, 0x04, 0x07
	smpsVcDecayLevel    0x01, 0x01, 0x01, 0x02
	smpsVcReleaseRate   0x0A, 0x0A, 0x0A, 0x05
	smpsVcTotalLevel    0x80, 0x80, 0x80, 0x15

/* 	Voice 0x02 */
/* 	0x03 */
/* 	0x00, 0xD7, 0x33, 0x02, 	0x5F, 0x9F, 0x5F, 0x1F, 	0x13, 0x0F, 0x0A, 0x0A */
/* 	0x10, 0x0F, 0x02, 0x09, 	0x35, 0x15, 0x25, 0x1A, 	0x13, 0x16, 0x15, 0x80 */
	smpsVcAlgorithm     0x03
	smpsVcFeedback      0x00
	smpsVcUnusedBits    0x00
	smpsVcDetune        0x00, 0x03, 0x0D, 0x00
	smpsVcCoarseFreq    0x02, 0x03, 0x07, 0x00
	smpsVcRateScale     0x00, 0x01, 0x02, 0x01
	smpsVcAttackRate    0x1F, 0x1F, 0x1F, 0x1F
	smpsVcAmpMod        0x00, 0x00, 0x00, 0x00
	smpsVcDecayRate1    0x0A, 0x0A, 0x0F, 0x13
	smpsVcDecayRate2    0x09, 0x02, 0x0F, 0x10
	smpsVcDecayLevel    0x01, 0x02, 0x01, 0x03
	smpsVcReleaseRate   0x0A, 0x05, 0x05, 0x05
	smpsVcTotalLevel    0x80, 0x15, 0x16, 0x13

/* 	Voice 0x03 */
/* 	0x34 */
/* 	0x70, 0x72, 0x31, 0x31, 	0x1F, 0x1F, 0x1F, 0x1F, 	0x10, 0x06, 0x06, 0x06 */
/* 	0x01, 0x06, 0x06, 0x06, 	0x35, 0x1A, 0x15, 0x1A, 	0x10, 0x80, 0x18, 0x80 */
	smpsVcAlgorithm     0x04
	smpsVcFeedback      0x06
	smpsVcUnusedBits    0x00
	smpsVcDetune        0x03, 0x03, 0x07, 0x07
	smpsVcCoarseFreq    0x01, 0x01, 0x02, 0x00
	smpsVcRateScale     0x00, 0x00, 0x00, 0x00
	smpsVcAttackRate    0x1F, 0x1F, 0x1F, 0x1F
	smpsVcAmpMod        0x00, 0x00, 0x00, 0x00
	smpsVcDecayRate1    0x06, 0x06, 0x06, 0x10
	smpsVcDecayRate2    0x06, 0x06, 0x06, 0x01
	smpsVcDecayLevel    0x01, 0x01, 0x01, 0x03
	smpsVcReleaseRate   0x0A, 0x05, 0x0A, 0x05
	smpsVcTotalLevel    0x80, 0x18, 0x80, 0x10

/* 	Voice 0x04 */
/* 	0x3E */
/* 	0x77, 0x71, 0x32, 0x31, 	0x1F, 0x1F, 0x1F, 0x1F, 	0x0D, 0x06, 0x00, 0x00 */
/* 	0x08, 0x06, 0x00, 0x00, 	0x15, 0x0A, 0x0A, 0x0A, 	0x1B, 0x80, 0x80, 0x80 */
	smpsVcAlgorithm     0x06
	smpsVcFeedback      0x07
	smpsVcUnusedBits    0x00
	smpsVcDetune        0x03, 0x03, 0x07, 0x07
	smpsVcCoarseFreq    0x01, 0x02, 0x01, 0x07
	smpsVcRateScale     0x00, 0x00, 0x00, 0x00
	smpsVcAttackRate    0x1F, 0x1F, 0x1F, 0x1F
	smpsVcAmpMod        0x00, 0x00, 0x00, 0x00
	smpsVcDecayRate1    0x00, 0x00, 0x06, 0x0D
	smpsVcDecayRate2    0x00, 0x00, 0x06, 0x08
	smpsVcDecayLevel    0x00, 0x00, 0x00, 0x01
	smpsVcReleaseRate   0x0A, 0x0A, 0x0A, 0x05
	smpsVcTotalLevel    0x80, 0x80, 0x80, 0x1B

/* 	Voice 0x05 */
/* 	0x34 */
/* 	0x33, 0x41, 0x7E, 0x74, 	0x5B, 0x9F, 0x5F, 0x1F, 	0x04, 0x07, 0x07, 0x08 */
/* 	0x00, 0x00, 0x00, 0x00, 	0xFF, 0xFF, 0xEF, 0xFF, 	0x23, 0x80, 0x29, 0x87 */
	smpsVcAlgorithm     0x04
	smpsVcFeedback      0x06
	smpsVcUnusedBits    0x00
	smpsVcDetune        0x07, 0x07, 0x04, 0x03
	smpsVcCoarseFreq    0x04, 0x0E, 0x01, 0x03
	smpsVcRateScale     0x00, 0x01, 0x02, 0x01
	smpsVcAttackRate    0x1F, 0x1F, 0x1F, 0x1B
	smpsVcAmpMod        0x00, 0x00, 0x00, 0x00
	smpsVcDecayRate1    0x08, 0x07, 0x07, 0x04
	smpsVcDecayRate2    0x00, 0x00, 0x00, 0x00
	smpsVcDecayLevel    0x0F, 0x0E, 0x0F, 0x0F
	smpsVcReleaseRate   0x0F, 0x0F, 0x0F, 0x0F
	smpsVcTotalLevel    0x87, 0x29, 0x80, 0x23

/* 	Voice 0x06 */
/* 	0x3A */
/* 	0x01, 0x07, 0x01, 0x01, 	0x8E, 0x8E, 0x8D, 0x53, 	0x0E, 0x0E, 0x0E, 0x03 */
/* 	0x00, 0x00, 0x00, 0x07, 	0x1F, 0xFF, 0x1F, 0x0F, 	0x18, 0x28, 0x27, 0x80 */
	smpsVcAlgorithm     0x02
	smpsVcFeedback      0x07
	smpsVcUnusedBits    0x00
	smpsVcDetune        0x00, 0x00, 0x00, 0x00
	smpsVcCoarseFreq    0x01, 0x01, 0x07, 0x01
	smpsVcRateScale     0x01, 0x02, 0x02, 0x02
	smpsVcAttackRate    0x13, 0x0D, 0x0E, 0x0E
	smpsVcAmpMod        0x00, 0x00, 0x00, 0x00
	smpsVcDecayRate1    0x03, 0x0E, 0x0E, 0x0E
	smpsVcDecayRate2    0x07, 0x00, 0x00, 0x00
	smpsVcDecayLevel    0x00, 0x01, 0x0F, 0x01
	smpsVcReleaseRate   0x0F, 0x0F, 0x0F, 0x0F
	smpsVcTotalLevel    0x80, 0x27, 0x28, 0x18

/* 	Voice 0x07 */
/* 	0x3C */
/* 	0x32, 0x32, 0x71, 0x42, 	0x1F, 0x18, 0x1F, 0x1E, 	0x07, 0x1F, 0x07, 0x1F */
/* 	0x00, 0x00, 0x00, 0x00, 	0x1F, 0x0F, 0x1F, 0x0F, 	0x1E, 0x80, 0x0C, 0x80 */
	smpsVcAlgorithm     0x04
	smpsVcFeedback      0x07
	smpsVcUnusedBits    0x00
	smpsVcDetune        0x04, 0x07, 0x03, 0x03
	smpsVcCoarseFreq    0x02, 0x01, 0x02, 0x02
	smpsVcRateScale     0x00, 0x00, 0x00, 0x00
	smpsVcAttackRate    0x1E, 0x1F, 0x18, 0x1F
	smpsVcAmpMod        0x00, 0x00, 0x00, 0x00
	smpsVcDecayRate1    0x1F, 0x07, 0x1F, 0x07
	smpsVcDecayRate2    0x00, 0x00, 0x00, 0x00
	smpsVcDecayLevel    0x00, 0x01, 0x00, 0x01
	smpsVcReleaseRate   0x0F, 0x0F, 0x0F, 0x0F
	smpsVcTotalLevel    0x80, 0x0C, 0x80, 0x1E

/* 	Voice 0x08 */
/* 	0x3C */
/* 	0x71, 0x72, 0x3F, 0x34, 	0x8D, 0x52, 0x9F, 0x1F, 	0x09, 0x00, 0x00, 0x0D */
/* 	0x00, 0x00, 0x00, 0x00, 	0x23, 0x08, 0x02, 0xF7, 	0x15, 0x80, 0x1D, 0x87 */
	smpsVcAlgorithm     0x04
	smpsVcFeedback      0x07
	smpsVcUnusedBits    0x00
	smpsVcDetune        0x03, 0x03, 0x07, 0x07
	smpsVcCoarseFreq    0x04, 0x0F, 0x02, 0x01
	smpsVcRateScale     0x00, 0x02, 0x01, 0x02
	smpsVcAttackRate    0x1F, 0x1F, 0x12, 0x0D
	smpsVcAmpMod        0x00, 0x00, 0x00, 0x00
	smpsVcDecayRate1    0x0D, 0x00, 0x00, 0x09
	smpsVcDecayRate2    0x00, 0x00, 0x00, 0x00
	smpsVcDecayLevel    0x0F, 0x00, 0x00, 0x02
	smpsVcReleaseRate   0x07, 0x02, 0x08, 0x03
	smpsVcTotalLevel    0x87, 0x1D, 0x80, 0x15

/* 	Voice 0x09 */
/* 	0x3D */
/* 	0x01, 0x01, 0x00, 0x00, 	0x8E, 0x52, 0x14, 0x4C, 	0x08, 0x08, 0x0E, 0x03 */
/* 	0x00, 0x00, 0x00, 0x00, 	0x1F, 0x1F, 0x1F, 0x1F, 	0x1B, 0x80, 0x80, 0x9B */
	smpsVcAlgorithm     0x05
	smpsVcFeedback      0x07
	smpsVcUnusedBits    0x00
	smpsVcDetune        0x00, 0x00, 0x00, 0x00
	smpsVcCoarseFreq    0x00, 0x00, 0x01, 0x01
	smpsVcRateScale     0x01, 0x00, 0x01, 0x02
	smpsVcAttackRate    0x0C, 0x14, 0x12, 0x0E
	smpsVcAmpMod        0x00, 0x00, 0x00, 0x00
	smpsVcDecayRate1    0x03, 0x0E, 0x08, 0x08
	smpsVcDecayRate2    0x00, 0x00, 0x00, 0x00
	smpsVcDecayLevel    0x01, 0x01, 0x01, 0x01
	smpsVcReleaseRate   0x0F, 0x0F, 0x0F, 0x0F
	smpsVcTotalLevel    0x9B, 0x80, 0x80, 0x1B

/* 	Voice 0x0A */
/* 	0x3A */
/* 	0x31, 0x53, 0x31, 0x41, 	0x8D, 0x4F, 0x15, 0x52, 	0x06, 0x08, 0x07, 0x04 */
/* 	0x02, 0x00, 0x00, 0x00, 	0x1F, 0x1F, 0x2F, 0x2F, 	0x19, 0x20, 0x2A, 0x80 */
	smpsVcAlgorithm     0x02
	smpsVcFeedback      0x07
	smpsVcUnusedBits    0x00
	smpsVcDetune        0x04, 0x03, 0x05, 0x03
	smpsVcCoarseFreq    0x01, 0x01, 0x03, 0x01
	smpsVcRateScale     0x01, 0x00, 0x01, 0x02
	smpsVcAttackRate    0x12, 0x15, 0x0F, 0x0D
	smpsVcAmpMod        0x00, 0x00, 0x00, 0x00
	smpsVcDecayRate1    0x04, 0x07, 0x08, 0x06
	smpsVcDecayRate2    0x00, 0x00, 0x00, 0x02
	smpsVcDecayLevel    0x02, 0x02, 0x01, 0x01
	smpsVcReleaseRate   0x0F, 0x0F, 0x0F, 0x0F
	smpsVcTotalLevel    0x80, 0x2A, 0x20, 0x19

