Snd_LBZ2_Header:
	smpsHeaderStartSong 3, 1
	smpsHeaderVoiceUVB
	smpsHeaderChan      0x06, 0x03
	smpsHeaderTempo     0x01, 0x25

	smpsHeaderDAC       Snd_LBZ2_DAC
	smpsHeaderFM        Snd_LBZ2_FM1,	0x0C, 0x1F
	smpsHeaderFM        Snd_LBZ2_FM2,	0x0C, 0x1F
	smpsHeaderFM        Snd_LBZ2_FM3,	0x18, 0x16
	smpsHeaderFM        Snd_LBZ2_FM4,	0x18, 0x0E
	smpsHeaderFM        Snd_LBZ2_FM5,	0x0C, 0x1A
	smpsHeaderPSG       Snd_LBZ2_PSG1,	0xF4, 0x04, 0x00, sTone_0C
	smpsHeaderPSG       Snd_LBZ2_PSG2,	0xF4, 0x04, 0x00, sTone_0C
	smpsHeaderPSG       Snd_LBZ2_PSG3,	0x00, 0x04, 0x00, sTone_0C

/*  DAC Data */
Snd_LBZ2_DAC:
	.byte	dKickS3, 0x18, dSnareS3, 0x12, dSnareS3, 0x06, dKickS3, dSnareS3, 0x12, dSnareS3, 0x18, dKickS3
	.byte	dSnareS3, dKickS3, dSnareS3, 0x0C, dSnareS3, 0x06, dSnareS3, dKickS3, 0x18, dSnareS3, 0x12, dSnareS3
	.byte	0x06, dKickS3, dSnareS3, 0x12, dSnareS3, 0x0C, dMidTomS3, 0x06, dMidTomS3, dKickS3, 0x18, dSnareS3
	.byte	0x0C, dLowTomS3, 0x06, dLowTomS3, dKickS3, 0x18, dSnareS3, 0x06, dSnareS3, dSnareS3, dSnareS3, dKickS3
	.byte	0x18, dSnareS3, 0x12, dSnareS3, 0x06, dKickS3, dSnareS3, 0x12, dSnareS3, 0x18, dKickS3, dSnareS3
	.byte	dKickS3, dSnareS3, 0x0C, dSnareS3, 0x06, dSnareS3, dKickS3, 0x18, dSnareS3, 0x12, dSnareS3, 0x06
	.byte	dKickS3, dSnareS3, 0x12, dSnareS3, 0x0C, dMidTomS3, 0x06, dMidTomS3, dKickS3, 0x18, dSnareS3, 0x0C
	.byte	dLowTomS3, 0x06, dLowTomS3, dKickS3, 0x18, dSnareS3, 0x06, dSnareS3, dSnareS3, dSnareS3, dKickS3, 0x18
	.byte	dSnareS3, 0x12, dSnareS3, 0x06, dKickS3, dSnareS3, 0x12, dSnareS3, 0x18, dKickS3, dSnareS3, dKickS3
	.byte	dSnareS3, 0x0C, dSnareS3, 0x06, dSnareS3, dKickS3, 0x18, dSnareS3, 0x12, dSnareS3, 0x06, dKickS3
	.byte	dSnareS3, 0x12, dSnareS3, 0x0C, dMidTomS3, 0x06, dMidTomS3, dKickS3, 0x18, dSnareS3, 0x0C, dLowTomS3
	.byte	0x06, dLowTomS3, dKickS3, 0x18, dSnareS3, 0x06, dSnareS3, dSnareS3, dSnareS3, dKickS3, 0x18, dSnareS3
	.byte	0x12, dSnareS3, 0x06, dKickS3, dSnareS3, 0x12, dSnareS3, 0x18, dKickS3, dSnareS3, dKickS3, dSnareS3
	.byte	0x0C, dSnareS3, 0x06, dSnareS3, dKickS3, 0x18, dSnareS3, 0x12, dSnareS3, 0x06, dKickS3, dSnareS3
	.byte	0x12, dSnareS3, 0x0C, dMidTomS3, 0x06, dMidTomS3, dKickS3, 0x18, dSnareS3, 0x0C, dLowTomS3, 0x06
	.byte	dLowTomS3, dKickS3, 0x18, dSnareS3, 0x06, dSnareS3, dSnareS3, dSnareS3, dKickS3, 0x18, dSnareS3, 0x12
	.byte	dSnareS3, 0x06, dKickS3, dSnareS3, 0x12, dSnareS3, 0x18, dKickS3, dSnareS3, dKickS3, dSnareS3, 0x0C
	.byte	dSnareS3, 0x06, dSnareS3, dKickS3, 0x18, dSnareS3, 0x12, dSnareS3, 0x06, dKickS3, dSnareS3, 0x12
	.byte	dSnareS3, 0x18, dKickS3, dSnareS3, dKickS3, dSnareS3, 0x06, dSnareS3, dSnareS3, dSnareS3, dKickS3, 0x18
	.byte	dSnareS3, 0x12, dSnareS3, 0x06, dKickS3, dSnareS3, 0x12, dSnareS3, 0x18, dKickS3, dSnareS3, dKickS3
	.byte	dSnareS3, 0x0C, dSnareS3, 0x06, dSnareS3, dKickS3, 0x18, dSnareS3, 0x12, dSnareS3, 0x06, dKickS3
	.byte	dSnareS3, 0x12, dSnareS3, 0x18, dKickS3, dSnareS3, dKickS3, dSnareS3, 0x06, dSnareS3, dSnareS3, dSnareS3
	.byte	dKickS3, 0x18, dSnareS3, 0x12, dSnareS3, 0x06, dKickS3, dSnareS3, 0x12, dSnareS3, 0x18, dKickS3
	.byte	dSnareS3, dKickS3, dSnareS3, 0x0C, dSnareS3, 0x06, dSnareS3, dKickS3, 0x18, dSnareS3, 0x12, dSnareS3
	.byte	0x06, dKickS3, dSnareS3, 0x12, dSnareS3, 0x18, dKickS3, dSnareS3, dKickS3, dSnareS3, 0x0C, dSnareS3
	.byte	0x06, dSnareS3, dKickS3, 0x18, dSnareS3, 0x12, dSnareS3, 0x06, dKickS3, dSnareS3, 0x12, dSnareS3
	.byte	0x18, dKickS3, dSnareS3, dKickS3, dSnareS3, 0x0C, dSnareS3, 0x06, dSnareS3, dSnareS3, 0x0C, dSnareS3
	.byte	dSnareS3, dKickS3, dSnareS3, dSnareS3, dSnareS3, 0x18, dKickS3, dSnareS3, 0x12, dSnareS3, 0x06, dKickS3
	.byte	dSnareS3, 0x12, dSnareS3, 0x06, dSnareS3, dSnareS3, dSnareS3, dKickS3, 0x18, dSnareS3, 0x12, dSnareS3
	.byte	0x06, dKickS3, dSnareS3, 0x12, dSnareS3, 0x18, dKickS3, dSnareS3, dKickS3, dSnareS3, 0x0C, dSnareS3
	.byte	0x06, dSnareS3, dKickS3, 0x18, dSnareS3, 0x12, dSnareS3, 0x06, dKickS3, dSnareS3, 0x12, dSnareS3
	.byte	0x18, dKickS3, dSnareS3, dKickS3, 0x0C, dSnareS3, 0x06, dSnareS3, dSnareS3, dSnareS3, dSnareS3, dSnareS3
	.byte	0x08
	smpsJump            Snd_LBZ2_DAC

/*  FM1 Data */
Snd_LBZ2_FM1:
	smpsSetvoice        0x04
	smpsDetune          0x01
	smpsModSet          0x0A, 0x01, 0x00, 0x06
	smpsPan             panRight, 0x00

Snd_LBZ2_Jump03:
	.byte	nE3, 0x04, nRst, 0x02, nG3, 0x04, nRst, 0x02, nA3, 0x04, nRst, 0x02
	.byte	nC4, 0x04, nRst, 0x02, nE4, 0x04, nRst, 0x02, nC4, 0x04, nRst, 0x02
	.byte	nA3, 0x04, nRst, 0x02, nG3, 0x04, nRst, 0x02, nE3, 0x04, nRst, 0x02
	.byte	nG3, 0x04, nRst, 0x02, nA3, 0x04, nRst, 0x02, nC4, 0x04, nRst, 0x02
	.byte	nE4, 0x04, nRst, 0x02, nC4, 0x04, nRst, 0x02, nA3, 0x04, nRst, 0x02
	.byte	nG3, 0x04, nRst, 0x02, nD3, 0x04, nRst, 0x02, nF3, 0x04, nRst, 0x02
	.byte	nBb3, 0x04, nRst, 0x02, nD4, 0x04, nRst, 0x02, nF4, 0x04, nRst, 0x02
	.byte	nD4, 0x04, nRst, 0x02, nBb3, 0x04, nRst, 0x02, nF3, 0x04, nRst, 0x08
	.byte	nA4, 0x10, nRst, 0x02, nF4, 0x04, nRst, 0x08, nD4, 0x04, nRst, 0x08
	.byte	nE3, 0x04, nRst, 0x02, nG3, 0x04, nRst, 0x02, nA3, 0x04, nRst, 0x02
	.byte	nC4, 0x04, nRst, 0x02, nE4, 0x04, nRst, 0x02, nC4, 0x04, nRst, 0x02
	.byte	nA3, 0x04, nRst, 0x02, nG3, 0x04, nRst, 0x02, nE3, 0x04, nRst, 0x02
	.byte	nG3, 0x04, nRst, 0x02, nA3, 0x04, nRst, 0x02, nC4, 0x04, nRst, 0x02
	.byte	nE4, 0x04, nRst, 0x02, nC4, 0x04, nRst, 0x02, nA3, 0x04, nRst, 0x02
	.byte	nG3, 0x04, nRst, 0x02, nD3, 0x04, nRst, 0x02, nF3, 0x04, nRst, 0x02
	.byte	nBb3, 0x04, nRst, 0x02, nD4, 0x04, nRst, 0x02, nF4, 0x04, nRst, 0x02
	.byte	nD4, 0x04, nRst, 0x02, nBb3, 0x04, nRst, 0x02, nF3, 0x04, nRst, 0x08
	.byte	nA4, 0x10, nRst, 0x02, nF4, 0x04, nRst, 0x08, nD4, 0x04, nRst, 0x08
	.byte	nE3, 0x04, nRst, 0x02, nG3, 0x04, nRst, 0x02, nA3, 0x04, nRst, 0x02
	.byte	nC4, 0x04, nRst, 0x02, nE4, 0x04, nRst, 0x02, nC4, 0x04, nRst, 0x02
	.byte	nA3, 0x04, nRst, 0x02, nG3, 0x04, nRst, 0x02, nE3, 0x04, nRst, 0x02
	.byte	nG3, 0x04, nRst, 0x02, nA3, 0x04, nRst, 0x02, nC4, 0x04, nRst, 0x02
	.byte	nE4, 0x04, nRst, 0x02, nC4, 0x04, nRst, 0x02, nA3, 0x04, nRst, 0x02
	.byte	nG3, 0x04, nRst, 0x02, nD3, 0x04, nRst, 0x02, nF3, 0x04, nRst, 0x02
	.byte	nBb3, 0x04, nRst, 0x02, nD4, 0x04, nRst, 0x02, nF4, 0x04, nRst, 0x02
	.byte	nD4, 0x04, nRst, 0x02, nBb3, 0x04, nRst, 0x02, nF3, 0x04, nRst, 0x08
	.byte	nA4, 0x10, nRst, 0x02, nF4, 0x04, nRst, 0x08, nD4, 0x04, nRst, 0x08
	.byte	nC3, 0x04, nRst, 0x02, nD3, 0x04, nRst, 0x02, nG3, 0x04, nRst, 0x02
	.byte	nD3, 0x04, nRst, 0x02, nD3, 0x04, nRst, 0x02, nG3, 0x04, nRst, 0x02
	.byte	nC4, 0x04, nRst, 0x02, nG3, 0x04, nRst, 0x02, nG3, 0x04, nRst, 0x02
	.byte	nC4, 0x04, nRst, 0x02, nD4, 0x04, nRst, 0x02, nC4, 0x04, nRst, 0x02
	.byte	nC4, 0x04, nRst, 0x02, nD4, 0x04, nRst, 0x02, nG4, 0x04, nRst, 0x02
	.byte	nD4, 0x04, nRst, 0x02, nD3, 0x04, nRst, 0x02, nG3, 0x04, nRst, 0x02
	.byte	nB3, 0x04, nRst, 0x02, nG3, 0x04, nRst, 0x02, nB3, 0x04, nRst, 0x02
	.byte	nD4, 0x04, nRst, 0x02, nG4, 0x04, nRst, 0x02, nD4, 0x04, nRst, 0x08
	.byte	nB4, 0x10, nRst, 0x02, nG4, 0x04, nRst, 0x14, nD3, 0x04, nRst, 0x02
	.byte	nF3, 0x04, nRst, 0x02, nG3, 0x04, nRst, 0x02, nBb3, 0x04, nRst, 0x02
	.byte	nD4, 0x04, nRst, 0x02, nBb3, 0x04, nRst, 0x02, nG3, 0x04, nRst, 0x02
	.byte	nF3, 0x04, nRst, 0x02, nD3, 0x04, nRst, 0x02, nF3, 0x04, nRst, 0x02
	.byte	nG3, 0x04, nRst, 0x02, nBb3, 0x04, nRst, 0x02, nD4, 0x04, nRst, 0x02
	.byte	nBb3, 0x04, nRst, 0x02, nG3, 0x04, nRst, 0x02, nF3, 0x04, nRst, 0x02
	.byte	nC3, 0x04, nRst, 0x02, nEb3, 0x04, nRst, 0x02, nAb3, 0x04, nRst, 0x02
	.byte	nC4, 0x04, nRst, 0x02, nEb4, 0x04, nRst, 0x02, nC4, 0x04, nRst, 0x02
	.byte	nAb3, 0x04, nRst, 0x02, nEb3, 0x04, nRst, 0x08, nG4, 0x10, nRst, 0x02
	.byte	nEb4, 0x04, nRst, 0x08, nC4, 0x04, nRst, 0x08, nD3, 0x04, nRst, 0x02
	.byte	nF3, 0x04, nRst, 0x02, nG3, 0x04, nRst, 0x02, nBb3, 0x04, nRst, 0x02
	.byte	nD4, 0x04, nRst, 0x02, nBb3, 0x04, nRst, 0x02, nG3, 0x04, nRst, 0x02
	.byte	nF3, 0x04, nRst, 0x02, nD3, 0x04, nRst, 0x02, nF3, 0x04, nRst, 0x02
	.byte	nG3, 0x04, nRst, 0x02, nBb3, 0x04, nRst, 0x02, nD4, 0x04, nRst, 0x02
	.byte	nBb3, 0x04, nRst, 0x02, nG3, 0x04, nRst, 0x02, nF3, 0x04, nRst, 0x02
	.byte	nC3, 0x04, nRst, 0x02, nEb3, 0x04, nRst, 0x02, nAb3, 0x04, nRst, 0x02
	.byte	nC4, 0x04, nRst, 0x02, nEb4, 0x04, nRst, 0x02, nC4, 0x04, nRst, 0x02
	.byte	nAb3, 0x04, nRst, 0x02, nEb3, 0x04, nRst, 0x08, nG4, 0x10, nRst, 0x02
	.byte	nEb4, 0x04, nRst, 0x08, nC4, 0x04, nRst, 0x08, nD3, 0x04, nRst, 0x02
	.byte	nF3, 0x04, nRst, 0x02, nG3, 0x04, nRst, 0x02, nBb3, 0x04, nRst, 0x02
	.byte	nD4, 0x04, nRst, 0x02, nBb3, 0x04, nRst, 0x02, nG3, 0x04, nRst, 0x02
	.byte	nF3, 0x04, nRst, 0x02, nD3, 0x04, nRst, 0x02, nF3, 0x04, nRst, 0x02
	.byte	nG3, 0x04, nRst, 0x02, nBb3, 0x04, nRst, 0x02, nD4, 0x04, nRst, 0x02
	.byte	nBb3, 0x04, nRst, 0x02, nG3, 0x04, nRst, 0x02, nF3, 0x04, nRst, 0x02
	.byte	nC3, 0x04, nRst, 0x02, nEb3, 0x04, nRst, 0x02, nAb3, 0x04, nRst, 0x02
	.byte	nC4, 0x04, nRst, 0x02, nEb4, 0x04, nRst, 0x02, nC4, 0x04, nRst, 0x02
	.byte	nAb3, 0x04, nRst, 0x02, nEb3, 0x04, nRst, 0x08, nG4, 0x10, nRst, 0x02
	.byte	nEb4, 0x04, nRst, 0x08, nC4, 0x04, nRst, 0x08, nBb2, 0x04, nRst, 0x02
	.byte	nC3, 0x04, nRst, 0x02, nF3, 0x04, nRst, 0x02, nC3, 0x04, nRst, 0x02
	.byte	nC3, 0x04, nRst, 0x02, nF3, 0x04, nRst, 0x02, nBb3, 0x04, nRst, 0x02
	.byte	nF3, 0x04, nRst, 0x02, nF3, 0x04, nRst, 0x02, nBb3, 0x04, nRst, 0x02
	.byte	nC4, 0x04, nRst, 0x02, nBb3, 0x04, nRst, 0x02, nBb3, 0x04, nRst, 0x02
	.byte	nC4, 0x04, nRst, 0x02, nF4, 0x04, nRst, 0x02, nC4, 0x04, nRst, 0x02
	.byte	nC3, 0x04, nRst, 0x02, nF3, 0x04, nRst, 0x02, nA3, 0x04, nRst, 0x02
	.byte	nF3, 0x04, nRst, 0x02, nA3, 0x04, nRst, 0x02, nC4, 0x04, nRst, 0x02
	.byte	nF4, 0x04, nRst, 0x02, nC4, 0x04, nRst, 0x08, nA4, 0x10, nRst, 0x02
	.byte	nF4, 0x04, nRst, 0x14, nBb3, 0x04, nRst, 0x02, nBb3, 0x04, nRst, 0x02
	.byte	nF3, 0x04, nRst, 0x02, nBb3, 0x04, nRst, 0x14, nF4, 0x0A, nRst, 0x02
	.byte	nD4, 0x10, nRst, 0x02, nF3, 0x16, nRst, 0x02, nBb3, 0x04, nRst, 0x02
	.byte	nBb3, 0x04, nRst, 0x02, nG3, 0x04, nRst, 0x02, nBb3, 0x04, nRst, 0x14
	.byte	nG4, 0x0A, nRst, 0x02, nEb4, 0x10, nRst, 0x02, nBb3, 0x16, nRst, 0x02
	.byte	nA3, 0x04, nRst, 0x02, nA3, 0x04, nRst, 0x02, nF3, 0x04, nRst, 0x02
	.byte	nA3, 0x04, nRst, 0x14, nF4, 0x0A, nRst, 0x02, nD4, 0x10, nRst, 0x02
	.byte	nF3, 0x0A, nRst, 0x02, nG3, 0x10, nRst, 0x02, nG3, 0x04, nRst, 0x02
	.byte	nE3, 0x04, nRst, 0x02, nG3, 0x04, nRst, 0x08, nG2, 0x04, nRst, 0x02
	.byte	nC3, 0x04, nRst, 0x02, nE3, 0x04, nRst, 0x02, nG3, 0x04, nRst, 0x02
	.byte	nE3, 0x04, nRst, 0x02, nG3, 0x04, nRst, 0x02, nC4, 0x04, nRst, 0x02
	.byte	nE4, 0x04, nRst, 0x02, nC4, 0x04, nRst, 0x02, nE4, 0x04, nRst, 0x02
	.byte	nG4, 0x04, nRst, 0x02, nBb3, 0x04, nRst, 0x02, nBb3, 0x04, nRst, 0x02
	.byte	nF3, 0x04, nRst, 0x02, nBb3, 0x04, nRst, 0x14, nF4, 0x0A, nRst, 0x02
	.byte	nD4, 0x10, nRst, 0x02, nF3, 0x16, nRst, 0x02, nBb3, 0x04, nRst, 0x02
	.byte	nBb3, 0x04, nRst, 0x02, nF3, 0x04, nRst, 0x02, nBb3, 0x04, nRst, 0x14
	.byte	nF4, 0x0A, nRst, 0x02, nD4, 0x10, nRst, 0x02, nF3, 0x0A, nRst, 0x02
	.byte	nBb3, 0x0A, nRst, 0x02, nF3, 0x04, nRst, 0x02, nF3, 0x04, nRst, 0x02
	.byte	nC3, 0x04, nRst, 0x02, nF3, 0x04, nRst, 0x14, nC4, 0x0A, nRst, 0x02
	.byte	nG3, 0x10, nRst, 0x02, nE3, 0x0A, nRst, 0x02, nC4, 0x0A, nRst, 0x02
	.byte	nB3, 0x04, nRst, 0x02, nB3, 0x04, nRst, 0x02, nG3, 0x04, nRst, 0x02
	.byte	nB3, 0x04, nRst, 0x08, nB3, 0x04, nRst, 0x02, nD4, 0x04, nRst, 0x02
	.byte	nD4, 0x04, nRst, 0x08, nD3, 0x04, nRst, 0x02, nE3, 0x04, nRst, 0x02
	.byte	nF3, 0x04, nRst, 0x02, nG3, 0x04, nRst, 0x02, nA3, 0x04, nRst, 0x02
	.byte	nB3, 0x04, nRst, 0x02, nD4, 0x04, nRst, 0x02, nBb3, 0x04, nRst, 0x02
	.byte	nBb3, 0x04, nRst, 0x02, nG3, 0x04, nRst, 0x08, nBb3, 0x04, nRst, 0x02
	.byte	nBb3, 0x04, nRst, 0x02, nG3, 0x04, nRst, 0x0E, nBb4, 0x10, nRst, 0x02
	.byte	nBb4, 0x04, nRst, 0x08, nBb4, 0x04, nRst, 0x08, nBb3, 0x04, nRst, 0x02
	.byte	nBb3, 0x04, nRst, 0x02, nG3, 0x04, nRst, 0x08, nBb3, 0x04, nRst, 0x02
	.byte	nBb3, 0x04, nRst, 0x02, nG3, 0x04, nRst, 0x0E, nBb4, 0x10, nRst, 0x02
	.byte	nBb4, 0x04, nRst, 0x08, nBb4, 0x04, nRst, 0x08, nBb3, 0x04, nRst, 0x02
	.byte	nBb3, 0x04, nRst, 0x02, nG3, 0x04, nRst, 0x08, nBb3, 0x04, nRst, 0x02
	.byte	nBb3, 0x04, nRst, 0x02, nG3, 0x04, nRst, 0x0E, nBb4, 0x10, nRst, 0x02
	.byte	nBb4, 0x04, nRst, 0x08, nBb4, 0x04, nRst, 0x08, nBb3, 0x04, nRst, 0x02
	.byte	nBb3, 0x04, nRst, 0x02, nF3, 0x04, nRst, 0x08, nBb3, 0x04, nRst, 0x02
	.byte	nBb3, 0x04, nRst, 0x02, nF3, 0x04, nRst, 0x0E, nBb4, 0x10, nRst, 0x02
	.byte	nBb4, 0x04, nRst, 0x08, nBb4, 0x04, nRst, 0x08, nBb3, 0x04, nRst, 0x02
	.byte	nBb3, 0x04, nRst, 0x02, nG3, 0x04, nRst, 0x08, nBb3, 0x04, nRst, 0x02
	.byte	nBb3, 0x04, nRst, 0x02, nG3, 0x04, nRst, 0x0E, nF4, 0x10, nRst, 0x02
	.byte	nAb4, 0x04, nRst, 0x08, nAb4, 0x04, nRst, 0x08, nAb3, 0x04, nRst, 0x02
	.byte	nAb3, 0x04, nRst, 0x02, nEb3, 0x04, nRst, 0x08, nAb3, 0x04, nRst, 0x02
	.byte	nAb3, 0x04, nRst, 0x02, nEb3, 0x04, nRst, 0x0E, nFs4, 0x10, nRst, 0x02
	.byte	nB4, 0x04, nRst, 0x08, nB4, 0x04, nRst, 0x08, nEb4, 0x06, nEb4, nD4
	.byte	nRst, nBb3, nBb3, nF4, nF4, nE4, nRst, nC4, nC4, nG4, nG4, nFs4
	.byte	nRst, nD4, nD4, nAb4, nAb4, nG4, nRst, nEb4, nEb4, nFs4, 0x12, nRst
	.byte	0x06, nF4, 0x12, nRst, 0x06, nBb3, 0x04, nRst, 0x02, nBb3, 0x04, nRst
	.byte	0x02, nG3, 0x04, nRst, 0x08, nBb3, 0x04, nRst, 0x02, nBb3, 0x04, nRst
	.byte	0x02, nG3, 0x04, nRst, 0x0E, nBb4, 0x10, nRst, 0x02, nBb4, 0x04, nRst
	.byte	0x08, nBb4, 0x04, nRst, 0x08, nC4, 0x04, nRst, 0x02, nC4, 0x04, nRst
	.byte	0x02, nAb3, 0x04, nRst, 0x08, nC4, 0x04, nRst, 0x02, nC4, 0x04, nRst
	.byte	0x02, nAb3, 0x04, nRst, 0x0E, nC5, 0x10, nRst, 0x02, nC5, 0x04, nRst
	.byte	0x08, nC5, 0x04, nRst, 0x08, nBb3, 0x04, nRst, 0x02, nBb3, 0x04, nRst
	.byte	0x02, nG3, 0x04, nRst, 0x08, nBb3, 0x04, nRst, 0x02, nBb3, 0x04, nRst
	.byte	0x02, nG3, 0x04, nRst, 0x0E, nBb4, 0x10, nRst, 0x02, nBb4, 0x04, nRst
	.byte	0x08, nBb4, 0x04, nRst, 0x08, nC4, 0x04, nRst, 0x02, nC4, 0x04, nRst
	.byte	0x02, nAb3, 0x04, nRst, 0x08, nC4, 0x04, nRst, 0x02, nC4, 0x04, nRst
	.byte	0x02, nAb3, 0x04, nRst, 0x0E, nC5, 0x10, nRst, 0x02, nC5, 0x04, nRst
	.byte	0x08, nC5, 0x04, nRst, 0x0A
	smpsJump            Snd_LBZ2_Jump03

/*  FM2 Data */
Snd_LBZ2_FM2:
	smpsSetvoice        0x04
	smpsDetune          0xFF
	smpsModSet          0x0A, 0x01, 0x00, 0x06
	smpsPan             panLeft, 0x00

Snd_LBZ2_Jump02:
	.byte	nE3, 0x04, nRst, 0x02, nG3, 0x04, nRst, 0x02, nA3, 0x04, nRst, 0x02
	.byte	nC4, 0x04, nRst, 0x02, nE4, 0x04, nRst, 0x02, nC4, 0x04, nRst, 0x02
	.byte	nA3, 0x04, nRst, 0x02, nG3, 0x04, nRst, 0x02, nE3, 0x04, nRst, 0x02
	.byte	nG3, 0x04, nRst, 0x02, nA3, 0x04, nRst, 0x02, nC4, 0x04, nRst, 0x02
	.byte	nE4, 0x04, nRst, 0x02, nC4, 0x04, nRst, 0x02, nA3, 0x04, nRst, 0x02
	.byte	nG3, 0x04, nRst, 0x02, nD3, 0x04, nRst, 0x02, nF3, 0x04, nRst, 0x02
	.byte	nBb3, 0x04, nRst, 0x02, nD4, 0x04, nRst, 0x02, nF4, 0x04, nRst, 0x02
	.byte	nD4, 0x04, nRst, 0x02, nBb3, 0x04, nRst, 0x02, nF3, 0x04, nRst, 0x08
	.byte	nF4, 0x10, nRst, 0x02, nD4, 0x04, nRst, 0x08, nBb3, 0x04, nRst, 0x08
	.byte	nE3, 0x04, nRst, 0x02, nG3, 0x04, nRst, 0x02, nA3, 0x04, nRst, 0x02
	.byte	nC4, 0x04, nRst, 0x02, nE4, 0x04, nRst, 0x02, nC4, 0x04, nRst, 0x02
	.byte	nA3, 0x04, nRst, 0x02, nG3, 0x04, nRst, 0x02, nE3, 0x04, nRst, 0x02
	.byte	nG3, 0x04, nRst, 0x02, nA3, 0x04, nRst, 0x02, nC4, 0x04, nRst, 0x02
	.byte	nE4, 0x04, nRst, 0x02, nC4, 0x04, nRst, 0x02, nA3, 0x04, nRst, 0x02
	.byte	nG3, 0x04, nRst, 0x02, nD3, 0x04, nRst, 0x02, nF3, 0x04, nRst, 0x02
	.byte	nBb3, 0x04, nRst, 0x02, nD4, 0x04, nRst, 0x02, nF4, 0x04, nRst, 0x02
	.byte	nD4, 0x04, nRst, 0x02, nBb3, 0x04, nRst, 0x02, nF3, 0x04, nRst, 0x08
	.byte	nF4, 0x10, nRst, 0x02, nD4, 0x04, nRst, 0x08, nBb3, 0x04, nRst, 0x08
	.byte	nE3, 0x04, nRst, 0x02, nG3, 0x04, nRst, 0x02, nA3, 0x04, nRst, 0x02
	.byte	nC4, 0x04, nRst, 0x02, nE4, 0x04, nRst, 0x02, nC4, 0x04, nRst, 0x02
	.byte	nA3, 0x04, nRst, 0x02, nG3, 0x04, nRst, 0x02, nE3, 0x04, nRst, 0x02
	.byte	nG3, 0x04, nRst, 0x02, nA3, 0x04, nRst, 0x02, nC4, 0x04, nRst, 0x02
	.byte	nE4, 0x04, nRst, 0x02, nC4, 0x04, nRst, 0x02, nA3, 0x04, nRst, 0x02
	.byte	nG3, 0x04, nRst, 0x02, nD3, 0x04, nRst, 0x02, nF3, 0x04, nRst, 0x02
	.byte	nBb3, 0x04, nRst, 0x02, nD4, 0x04, nRst, 0x02, nF4, 0x04, nRst, 0x02
	.byte	nD4, 0x04, nRst, 0x02, nBb3, 0x04, nRst, 0x02, nF3, 0x04, nRst, 0x08
	.byte	nF4, 0x10, nRst, 0x02, nD4, 0x04, nRst, 0x08, nBb3, 0x04, nRst, 0x08
	.byte	nC3, 0x04, nRst, 0x02, nD3, 0x04, nRst, 0x02, nG3, 0x04, nRst, 0x02
	.byte	nD3, 0x04, nRst, 0x02, nD3, 0x04, nRst, 0x02, nG3, 0x04, nRst, 0x02
	.byte	nC4, 0x04, nRst, 0x02, nG3, 0x04, nRst, 0x02, nG3, 0x04, nRst, 0x02
	.byte	nC4, 0x04, nRst, 0x02, nD4, 0x04, nRst, 0x02, nC4, 0x04, nRst, 0x02
	.byte	nC4, 0x04, nRst, 0x02, nD4, 0x04, nRst, 0x02, nG4, 0x04, nRst, 0x02
	.byte	nD4, 0x04, nRst, 0x02, nD3, 0x04, nRst, 0x02, nG3, 0x04, nRst, 0x02
	.byte	nB3, 0x04, nRst, 0x02, nG3, 0x04, nRst, 0x02, nB3, 0x04, nRst, 0x02
	.byte	nD4, 0x04, nRst, 0x02, nG4, 0x04, nRst, 0x02, nD4, 0x04, nRst, 0x08
	.byte	nG4, 0x10, nRst, 0x02, nD4, 0x04, nRst, 0x14, nD3, 0x04, nRst, 0x02
	.byte	nF3, 0x04, nRst, 0x02, nG3, 0x04, nRst, 0x02, nBb3, 0x04, nRst, 0x02
	.byte	nD4, 0x04, nRst, 0x02, nBb3, 0x04, nRst, 0x02, nG3, 0x04, nRst, 0x02
	.byte	nF3, 0x04, nRst, 0x02, nD3, 0x04, nRst, 0x02, nF3, 0x04, nRst, 0x02
	.byte	nG3, 0x04, nRst, 0x02, nBb3, 0x04, nRst, 0x02, nD4, 0x04, nRst, 0x02
	.byte	nBb3, 0x04, nRst, 0x02, nG3, 0x04, nRst, 0x02, nF3, 0x04, nRst, 0x02
	.byte	nC3, 0x04, nRst, 0x02, nEb3, 0x04, nRst, 0x02, nAb3, 0x04, nRst, 0x02
	.byte	nC4, 0x04, nRst, 0x02, nEb4, 0x04, nRst, 0x02, nC4, 0x04, nRst, 0x02
	.byte	nAb3, 0x04, nRst, 0x02, nEb3, 0x04, nRst, 0x08, nEb4, 0x10, nRst, 0x02
	.byte	nC4, 0x04, nRst, 0x08, nAb3, 0x04, nRst, 0x08, nD3, 0x04, nRst, 0x02
	.byte	nF3, 0x04, nRst, 0x02, nG3, 0x04, nRst, 0x02, nBb3, 0x04, nRst, 0x02
	.byte	nD4, 0x04, nRst, 0x02, nBb3, 0x04, nRst, 0x02, nG3, 0x04, nRst, 0x02
	.byte	nF3, 0x04, nRst, 0x02, nD3, 0x04, nRst, 0x02, nF3, 0x04, nRst, 0x02
	.byte	nG3, 0x04, nRst, 0x02, nBb3, 0x04, nRst, 0x02, nD4, 0x04, nRst, 0x02
	.byte	nBb3, 0x04, nRst, 0x02, nG3, 0x04, nRst, 0x02, nF3, 0x04, nRst, 0x02
	.byte	nC3, 0x04, nRst, 0x02, nEb3, 0x04, nRst, 0x02, nAb3, 0x04, nRst, 0x02
	.byte	nC4, 0x04, nRst, 0x02, nEb4, 0x04, nRst, 0x02, nC4, 0x04, nRst, 0x02
	.byte	nAb3, 0x04, nRst, 0x02, nEb3, 0x04, nRst, 0x08, nEb4, 0x10, nRst, 0x02
	.byte	nC4, 0x04, nRst, 0x08, nAb3, 0x04, nRst, 0x08, nD3, 0x04, nRst, 0x02
	.byte	nF3, 0x04, nRst, 0x02, nG3, 0x04, nRst, 0x02, nBb3, 0x04, nRst, 0x02
	.byte	nD4, 0x04, nRst, 0x02, nBb3, 0x04, nRst, 0x02, nG3, 0x04, nRst, 0x02
	.byte	nF3, 0x04, nRst, 0x02, nD3, 0x04, nRst, 0x02, nF3, 0x04, nRst, 0x02
	.byte	nG3, 0x04, nRst, 0x02, nBb3, 0x04, nRst, 0x02, nD4, 0x04, nRst, 0x02
	.byte	nBb3, 0x04, nRst, 0x02, nG3, 0x04, nRst, 0x02, nF3, 0x04, nRst, 0x02
	.byte	nC3, 0x04, nRst, 0x02, nEb3, 0x04, nRst, 0x02, nAb3, 0x04, nRst, 0x02
	.byte	nC4, 0x04, nRst, 0x02, nEb4, 0x04, nRst, 0x02, nC4, 0x04, nRst, 0x02
	.byte	nAb3, 0x04, nRst, 0x02, nEb3, 0x04, nRst, 0x08, nEb4, 0x10, nRst, 0x02
	.byte	nC4, 0x04, nRst, 0x08, nAb3, 0x04, nRst, 0x08, nBb2, 0x04, nRst, 0x02
	.byte	nC3, 0x04, nRst, 0x02, nF3, 0x04, nRst, 0x02, nC3, 0x04, nRst, 0x02
	.byte	nC3, 0x04, nRst, 0x02, nF3, 0x04, nRst, 0x02, nBb3, 0x04, nRst, 0x02
	.byte	nF3, 0x04, nRst, 0x02, nF3, 0x04, nRst, 0x02, nBb3, 0x04, nRst, 0x02
	.byte	nC4, 0x04, nRst, 0x02, nBb3, 0x04, nRst, 0x02, nBb3, 0x04, nRst, 0x02
	.byte	nC4, 0x04, nRst, 0x02, nF4, 0x04, nRst, 0x02, nC4, 0x04, nRst, 0x02
	.byte	nC3, 0x04, nRst, 0x02, nF3, 0x04, nRst, 0x02, nA3, 0x04, nRst, 0x02
	.byte	nF3, 0x04, nRst, 0x02, nA3, 0x04, nRst, 0x02, nC4, 0x04, nRst, 0x02
	.byte	nF4, 0x04, nRst, 0x02, nC4, 0x04, nRst, 0x08, nF4, 0x10, nRst, 0x02
	.byte	nC4, 0x04, nRst, 0x14, nF3, 0x04, nRst, 0x02, nF3, 0x04, nRst, 0x02
	.byte	nD3, 0x04, nRst, 0x02, nF3, 0x04, nRst, 0x14, nD4, 0x0A, nRst, 0x02
	.byte	nF3, 0x10, nRst, 0x02, nD3, 0x16, nRst, 0x02, nG3, 0x04, nRst, 0x02
	.byte	nG3, 0x04, nRst, 0x02, nEb3, 0x04, nRst, 0x02, nG3, 0x04, nRst, 0x14
	.byte	nEb4, 0x0A, nRst, 0x02, nBb3, 0x10, nRst, 0x02, nG3, 0x16, nRst, 0x02
	.byte	nF3, 0x04, nRst, 0x02, nF3, 0x04, nRst, 0x02, nD3, 0x04, nRst, 0x02
	.byte	nF3, 0x04, nRst, 0x14, nD4, 0x0A, nRst, 0x02, nF3, 0x10, nRst, 0x02
	.byte	nD3, 0x0A, nRst, 0x02, nE3, 0x10, nRst, 0x02, nE3, 0x04, nRst, 0x02
	.byte	nC3, 0x04, nRst, 0x02, nE3, 0x04, nRst, 0x08, nE2, 0x04, nRst, 0x02
	.byte	nG2, 0x04, nRst, 0x02, nC3, 0x04, nRst, 0x02, nE3, 0x04, nRst, 0x02
	.byte	nC3, 0x04, nRst, 0x02, nE3, 0x04, nRst, 0x02, nG3, 0x04, nRst, 0x02
	.byte	nC4, 0x04, nRst, 0x02, nG3, 0x04, nRst, 0x02, nC4, 0x04, nRst, 0x02
	.byte	nE4, 0x04, nRst, 0x02, nF3, 0x04, nRst, 0x02, nF3, 0x04, nRst, 0x02
	.byte	nD3, 0x04, nRst, 0x02, nF3, 0x04, nRst, 0x14, nD4, 0x0A, nRst, 0x02
	.byte	nF3, 0x10, nRst, 0x02, nD3, 0x16, nRst, 0x02, nF3, 0x04, nRst, 0x02
	.byte	nF3, 0x04, nRst, 0x02, nD3, 0x04, nRst, 0x02, nF3, 0x04, nRst, 0x14
	.byte	nD4, 0x0A, nRst, 0x02, nF3, 0x10, nRst, 0x02, nD3, 0x0A, nRst, 0x02
	.byte	nG3, 0x0A, nRst, 0x02, nC3, 0x04, nRst, 0x02, nC3, 0x04, nRst, 0x02
	.byte	nA2, 0x04, nRst, 0x02, nC3, 0x04, nRst, 0x14, nE3, 0x0A, nRst, 0x02
	.byte	nC3, 0x10, nRst, 0x02, nG2, 0x0A, nRst, 0x02, nE3, 0x0A, nRst, 0x02
	.byte	nG3, 0x04, nRst, 0x02, nG3, 0x04, nRst, 0x02, nD3, 0x04, nRst, 0x02
	.byte	nG3, 0x04, nRst, 0x08, nG3, 0x04, nRst, 0x02, nB3, 0x04, nRst, 0x02
	.byte	nB3, 0x04, nRst, 0x08, nB2, 0x04, nRst, 0x02, nC3, 0x04, nRst, 0x02
	.byte	nD3, 0x04, nRst, 0x02, nE3, 0x04, nRst, 0x02, nF3, 0x04, nRst, 0x02
	.byte	nG3, 0x04, nRst, 0x02, nA3, 0x04, nRst, 0x02, nG3, 0x04, nRst, 0x02
	.byte	nG3, 0x04, nRst, 0x02, nEb3, 0x04, nRst, 0x08, nG3, 0x04, nRst, 0x02
	.byte	nG3, 0x04, nRst, 0x02, nEb3, 0x04, nRst, 0x0E, nG4, 0x10, nRst, 0x02
	.byte	nG4, 0x04, nRst, 0x08, nG4, 0x04, nRst, 0x08, nG3, 0x04, nRst, 0x02
	.byte	nG3, 0x04, nRst, 0x02, nEb3, 0x04, nRst, 0x08, nG3, 0x04, nRst, 0x02
	.byte	nG3, 0x04, nRst, 0x02, nEb3, 0x04, nRst, 0x0E, nG4, 0x10, nRst, 0x02
	.byte	nG4, 0x04, nRst, 0x08, nG4, 0x04, nRst, 0x08, nG3, 0x04, nRst, 0x02
	.byte	nG3, 0x04, nRst, 0x02, nEb3, 0x04, nRst, 0x08, nG3, 0x04, nRst, 0x02
	.byte	nG3, 0x04, nRst, 0x02, nEb3, 0x04, nRst, 0x0E, nG4, 0x10, nRst, 0x02
	.byte	nG4, 0x04, nRst, 0x08, nG4, 0x04, nRst, 0x08, nF3, 0x04, nRst, 0x02
	.byte	nF3, 0x04, nRst, 0x02, nD3, 0x04, nRst, 0x08, nF3, 0x04, nRst, 0x02
	.byte	nF3, 0x04, nRst, 0x02, nD3, 0x04, nRst, 0x0E, nF4, 0x10, nRst, 0x02
	.byte	nF4, 0x04, nRst, 0x08, nF4, 0x04, nRst, 0x08, nG3, 0x04, nRst, 0x02
	.byte	nG3, 0x04, nRst, 0x02, nEb3, 0x04, nRst, 0x08, nG3, 0x04, nRst, 0x02
	.byte	nG3, 0x04, nRst, 0x02, nEb3, 0x04, nRst, 0x0E, nCs4, 0x10, nRst, 0x02
	.byte	nF4, 0x04, nRst, 0x08, nF4, 0x04, nRst, 0x08, nEb3, 0x04, nRst, 0x02
	.byte	nEb3, 0x04, nRst, 0x02, nC3, 0x04, nRst, 0x08, nEb3, 0x04, nRst, 0x02
	.byte	nEb3, 0x04, nRst, 0x02, nC3, 0x04, nRst, 0x0E, nEb4, 0x10, nRst, 0x02
	.byte	nFs4, 0x04, nRst, 0x08, nFs4, 0x04, nRst, 0x08, nBb3, 0x06, nBb3, nA3
	.byte	nRst, nF3, nF3, nC4, nC4, nB3, nRst, nG3, nG3, nD4, nD4, nCs4
	.byte	nRst, nA3, nA3, nEb4, nEb4, nD4, nRst, nBb3, nBb3, nEb4, 0x12, nRst
	.byte	0x06, nD4, 0x12, nRst, 0x06, nG3, 0x04, nRst, 0x02, nG3, 0x04, nRst
	.byte	0x02, nEb3, 0x04, nRst, 0x08, nG3, 0x04, nRst, 0x02, nG3, 0x04, nRst
	.byte	0x02, nEb3, 0x04, nRst, 0x0E, nG4, 0x10, nRst, 0x02, nG4, 0x04, nRst
	.byte	0x08, nG4, 0x04, nRst, 0x08, nAb3, 0x04, nRst, 0x02, nAb3, 0x04, nRst
	.byte	0x02, nEb3, 0x04, nRst, 0x08, nAb3, 0x04, nRst, 0x02, nAb3, 0x04, nRst
	.byte	0x02, nEb3, 0x04, nRst, 0x0E, nAb4, 0x10, nRst, 0x02, nAb4, 0x04, nRst
	.byte	0x08, nAb4, 0x04, nRst, 0x08, nG3, 0x04, nRst, 0x02, nG3, 0x04, nRst
	.byte	0x02, nEb3, 0x04, nRst, 0x08, nG3, 0x04, nRst, 0x02, nG3, 0x04, nRst
	.byte	0x02, nEb3, 0x04, nRst, 0x0E, nG4, 0x10, nRst, 0x02, nG4, 0x04, nRst
	.byte	0x08, nG4, 0x04, nRst, 0x08, nAb3, 0x04, nRst, 0x02, nAb3, 0x04, nRst
	.byte	0x02, nEb3, 0x04, nRst, 0x08, nAb3, 0x04, nRst, 0x02, nAb3, 0x04, nRst
	.byte	0x02, nEb3, 0x04, nRst, 0x0E, nAb4, 0x10, nRst, 0x02, nAb4, 0x04, nRst
	.byte	0x08, nAb4, 0x04, nRst, 0x0A
	smpsJump            Snd_LBZ2_Jump02

/*  FM3 Data */
Snd_LBZ2_FM3:
	smpsSetvoice        0x03
	smpsDetune          0xFE
	smpsModSet          0x0F, 0x01, 0x06, 0x06
	.byte	nC3, 0x16, nRst, 0x02, nG3, 0x10, nRst, 0x02, nC4, 0x04, nRst, 0x08
	.byte	nG3, 0x10, nRst, 0x02, nC4, 0x04, nRst, 0x08, nG3, 0x04, nRst, 0x08
	.byte	nBb3, 0x16, nRst, 0x02, nA3, 0x10, nRst, 0x02, nF3, 0x04, nRst, 0x26
	.byte	nA3, 0x0A, nRst, 0x02, nG3, 0x04, nRst, 0x14, nG3, 0x10, nRst, 0x02
	.byte	nC3, 0x04, nRst, 0x7A, nBb2, 0x0A, nRst, 0x02, nD3, 0x0A, nRst, 0x02
	.byte	nC3, 0x16, nRst, 0x02, nG3, 0x10, nRst, 0x02, nC4, 0x04, nRst, 0x08
	.byte	nG3, 0x10, nRst, 0x02, nC4, 0x04, nRst, 0x08, nG3, 0x04, nRst, 0x08
	.byte	nBb3, 0x16, nRst, 0x02, nA3, 0x10, nRst, 0x02, nF3, 0x04, nRst, 0x26
	.byte	nA3, 0x0A, nRst, 0x02, nG3, 0x52, nRst, 0x02, nG3, 0x06, nC3, nD3
	.byte	0x48, nRst, 0x0C, nG2, 0x06, nA2, nBb2, 0x16, nRst, 0x02, nF3, 0x10
	.byte	nRst, 0x02, nBb3, 0x04, nRst, 0x08, nF3, 0x10, nRst, 0x02, nBb3, 0x04
	.byte	nRst, 0x08, nF3, 0x04, nRst, 0x08, nAb3, 0x16, nRst, 0x02, nG3, 0x10
	.byte	nRst, 0x02, nEb3, 0x04, nRst, 0x26, nG3, 0x0A, nRst, 0x02, nF3, 0x04
	.byte	nRst, 0x14, nF3, 0x10, nRst, 0x02, nBb2, 0x04, nRst, 0x7A, nG2, 0x0A
	.byte	nRst, 0x02, nAb2, 0x0A, nRst, 0x02, nBb2, 0x16, nRst, 0x02, nF3, 0x10
	.byte	nRst, 0x02, nBb3, 0x04, nRst, 0x08, nF3, 0x10, nRst, 0x02, nBb3, 0x04
	.byte	nRst, 0x08, nF3, 0x04, nRst, 0x08, nAb3, 0x16, nRst, 0x02, nG3, 0x10
	.byte	nRst, 0x02, nEb3, 0x04, nRst, 0x26, nG3, 0x0A, nRst, 0x02, nF3, 0x52
	.byte	nRst, 0x02, nF3, 0x06, nBb2, nC3, 0x52, nRst, 0x0E
	smpsSetvoice        0x03
	smpsDetune          0xFE
	smpsModSet          0x0F, 0x01, 0x06, 0x06
	.byte	nF4, 0x16, nRst, 0x02, nBb4, 0x10, nRst, 0x02, nF4, 0x04, nRst, 0x08
	.byte	nD4, 0x04, nRst, 0x02, nF4, 0x0A, nRst, 0x02, nA4, 0x0A, nRst, 0x02
	.byte	nF4, 0x0A, nRst, 0x02, nBb4, 0x16, nRst, 0x02, nA4, 0x10, nRst, 0x02
	.byte	nG4, 0x04, nRst, 0x08, nF4, 0x10, nRst, 0x02, nF4, 0x0A, nRst, 0x02
	.byte	nG4, 0x0A, nRst, 0x02, nA4, 0x04, nRst, 0x08, nF4, 0x04, nRst, 0x08
	.byte	nD4, 0x04, nRst, 0x08, nF4, 0x14, nRst, 0x04, nD4, nRst, 0x08, nF4
	.byte	0x04, nRst, 0x08, nG4, 0x64, nRst, 0x08, nF4, 0x16, nRst, 0x02, nBb4
	.byte	0x10, nRst, 0x02, nF4, 0x04, nRst, 0x08, nF4, 0x04, nRst, 0x02, nG4
	.byte	0x0A, nRst, 0x02, nA4, 0x0A, nRst, 0x02, nF4, 0x0A, nRst, 0x02, nD5
	.byte	0x16, nRst, 0x02, nC5, 0x10, nRst, 0x02, nBb4, 0x04, nRst, 0x08, nF4
	.byte	0x04, nRst, 0x02, nG4, 0x04, nRst, 0x02, nA4, 0x04, nRst, 0x02, nBb4
	.byte	0x0A, nRst, 0x02, nC5, 0x0A, nRst, 0x02, nA4, 0x22, nRst, 0x02, nG4
	.byte	0x08, nRst, 0x04, nG4, 0x64, nRst, 0x02
	smpsSetvoice        0x03
	smpsDetune          0xFE
	smpsModSet          0x0F, 0x01, 0x06, 0x06
	.byte	nD3, 0x06, nE3, nF3, nG3, nA3, nB3, nD4, nEb4, 0x0A, nRst, 0x0E
	.byte	nEb4, 0x10, nRst, 0x02, nEb4, 0x04, nRst, 0x08, nEb4, 0x04, nRst, 0x02
	.byte	nEb4, 0x0A, nRst, 0x02, nEb4, 0x0A, nRst, 0x02, nEb4, 0x0A, nRst, 0x02
	.byte	nEb4, 0x08, nRst, 0x04, nF4, 0x08, nRst, 0x04, nG4, 0x08, nRst, 0x04
	.byte	nEb4, 0x20, nRst, 0x04, nC4, 0x14, nRst, 0x04, nEb4, 0x0A, nRst, 0x0E
	.byte	nEb4, 0x10, nRst, 0x02, nEb4, 0x04, nRst, 0x08, nEb4, 0x04, nRst, 0x02
	.byte	nEb4, 0x0A, nRst, 0x02, nEb4, 0x0A, nRst, 0x02, nF4, 0x0A, nRst, 0x02
	.byte	nG4, 0x08, nRst, 0x04, nF4, 0x08, nRst, 0x04, nD4, 0x08, nRst, 0x04
	.byte	nBb3, 0x38, nRst, 0x04, nEb4, 0x0A, nRst, 0x0E, nEb4, 0x10, nRst, 0x02
	.byte	nEb4, 0x04, nRst, 0x08, nEb4, 0x04, nRst, 0x02, nEb4, 0x0A, nRst, 0x02
	.byte	nEb4, 0x0A, nRst, 0x02, nEb4, 0x0A, nRst, 0x02, nEb4, 0x08, nRst, 0x04
	.byte	nF4, 0x08, nRst, 0x04, nG4, 0x08, nRst, 0x04, nEb4, 0x20, nRst, 0x1C
	.byte	nEb4, 0x06, nEb4, nD4, 0x08, nRst, 0x10, nF4, 0x06, nF4, nE4, 0x08
	.byte	nRst, 0x10, nG4, 0x06, nG4, nFs4, 0x08, nRst, 0x10, nAb4, 0x06, nAb4
	.byte	nG4, 0x08, nRst, 0x10, nB4, 0x14, nRst, 0x04, nBb4, 0x14, nRst, 0x04
	.byte	nEb4, 0x7F, smpsNoAttack, 0x19, nRst, 0x04, nEb4, nRst, 0x02, nF4, 0x04, nRst
	.byte	0x02, nG4, 0x04, nRst, 0x02, nF4, 0x04, nRst, 0x02, nEb4, 0x04, nRst
	.byte	0x02, nD4, 0x04, nRst, 0x02, nEb4, 0x20, nRst, 0x04, nBb3, 0x08, nRst
	.byte	0x04, nBb3, 0x2C, nRst, 0x04, nC4, 0x08, nRst, 0x04, nC4, 0x08, nRst
	.byte	0x04, nD4, 0x08, nRst, 0x04, nEb4, 0x08, nRst, 0x10, nF4, 0x18, nRst
	.byte	0x0E
	smpsJump            Snd_LBZ2_FM3

/*  FM4 Data */
Snd_LBZ2_FM4:
	smpsSetvoice        0x15

Snd_LBZ2_Jump01:
	.byte	nA0, 0x0A, nRst, 0x0E, nA0, 0x0A, nRst, 0x14, nA0, 0x04, nRst, 0x02
	.byte	nA0, 0x0A, nRst, 0x02, nA0, 0x04, nRst, 0x14, nBb0, 0x0A, nRst, 0x0E
	.byte	nBb0, 0x0A, nRst, 0x14, nBb0, 0x04, nRst, 0x02, nBb0, 0x0A, nRst, 0x02
	.byte	nBb0, 0x04, nRst, 0x14, nA0, 0x0A, nRst, 0x0E, nA0, 0x0A, nRst, 0x14
	.byte	nA0, 0x04, nRst, 0x02, nA0, 0x0A, nRst, 0x02, nA0, 0x04, nRst, 0x14
	.byte	nBb0, 0x0A, nRst, 0x0E, nBb0, 0x0A, nRst, 0x14, nBb0, 0x04, nRst, 0x02
	.byte	nBb0, 0x0A, nRst, 0x02, nBb0, 0x04, nRst, 0x14, nA0, 0x0A, nRst, 0x0E
	.byte	nA0, 0x0A, nRst, 0x14, nA0, 0x04, nRst, 0x02, nA0, 0x0A, nRst, 0x02
	.byte	nA0, 0x04, nRst, 0x14, nBb0, 0x0A, nRst, 0x0E, nBb0, 0x0A, nRst, 0x14
	.byte	nBb0, 0x04, nRst, 0x02, nBb0, 0x0A, nRst, 0x02, nBb0, 0x04, nRst, 0x14
	.byte	nG0, 0x0A, nRst, 0x0E, nG0, 0x0A, nRst, 0x14, nG0, 0x04, nRst, 0x02
	.byte	nG0, 0x0A, nRst, 0x02, nG0, 0x04, nRst, 0x14, nG0, 0x0A, nRst, 0x0E
	.byte	nG0, 0x0A, nRst, 0x14, nG0, 0x04, nRst, 0x02, nG0, 0x0A, nRst, 0x02
	.byte	nG0, 0x04, nRst, 0x14, nG0, 0x0A, nRst, 0x0E, nG0, 0x0A, nRst, 0x14
	.byte	nG0, 0x04, nRst, 0x02, nG0, 0x0A, nRst, 0x02, nG0, 0x04, nRst, 0x14
	.byte	nAb0, 0x0A, nRst, 0x0E, nAb0, 0x0A, nRst, 0x14, nAb0, 0x04, nRst, 0x02
	.byte	nAb0, 0x0A, nRst, 0x02, nAb0, 0x04, nRst, 0x14, nG0, 0x0A, nRst, 0x0E
	.byte	nG0, 0x0A, nRst, 0x14, nG0, 0x04, nRst, 0x02, nG0, 0x0A, nRst, 0x02
	.byte	nG0, 0x04, nRst, 0x14, nAb0, 0x0A, nRst, 0x0E, nAb0, 0x0A, nRst, 0x14
	.byte	nAb0, 0x04, nRst, 0x02, nAb0, 0x0A, nRst, 0x02, nAb0, 0x04, nRst, 0x14
	.byte	nG0, 0x0A, nRst, 0x0E, nG0, 0x0A, nRst, 0x14, nG0, 0x04, nRst, 0x02
	.byte	nG0, 0x0A, nRst, 0x02, nG0, 0x04, nRst, 0x14, nAb0, 0x0A, nRst, 0x0E
	.byte	nAb0, 0x0A, nRst, 0x14, nAb0, 0x04, nRst, 0x02, nAb0, 0x0A, nRst, 0x02
	.byte	nAb0, 0x04, nRst, 0x14, nF0, 0x0A, nRst, 0x0E, nF0, 0x0A, nRst, 0x14
	.byte	nF0, 0x04, nRst, 0x02, nF0, 0x0A, nRst, 0x02, nF0, 0x04, nRst, 0x14
	.byte	nF0, 0x0A, nRst, 0x0E, nF0, 0x0A, nRst, 0x14, nF0, 0x04, nRst, 0x02
	.byte	nF0, 0x0A, nRst, 0x02, nF0, 0x04, nRst, 0x14, nD0, 0x0A, nRst, 0x0E
	.byte	nD0, 0x0A, nRst, 0x14, nD0, 0x04, nRst, 0x02, nD0, 0x0A, nRst, 0x02
	.byte	nD0, 0x04, nRst, 0x14, nEb0, 0x0A, nRst, 0x0E, nEb0, 0x0A, nRst, 0x14
	.byte	nEb0, 0x04, nRst, 0x02, nEb0, 0x0A, nRst, 0x02, nEb0, 0x04, nRst, 0x14
	.byte	nBb0, 0x0A, nRst, 0x0E, nBb0, 0x0A, nRst, 0x14, nBb0, 0x04, nRst, 0x02
	.byte	nBb0, 0x0A, nRst, 0x02, nBb0, 0x04, nRst, 0x14, nC1, 0x0A, nRst, 0x0E
	.byte	nC1, 0x0A, nRst, 0x14, nC1, 0x04, nRst, 0x02, nC1, 0x0A, nRst, 0x02
	.byte	nC1, 0x04, nRst, 0x14, nD0, 0x0A, nRst, 0x0E, nD0, 0x0A, nRst, 0x14
	.byte	nD0, 0x04, nRst, 0x02, nD0, 0x0A, nRst, 0x02, nD0, 0x04, nRst, 0x14
	.byte	nBb0, 0x0A, nRst, 0x0E, nBb0, 0x0A, nRst, 0x14, nBb0, 0x04, nRst, 0x02
	.byte	nBb0, 0x0A, nRst, 0x02, nBb0, 0x04, nRst, 0x14, nC1, 0x0A, nRst, 0x0E
	.byte	nC1, 0x0A, nRst, 0x14, nC1, 0x04, nRst, 0x02, nC1, 0x0A, nRst, 0x02
	.byte	nC1, 0x04, nRst, 0x14, nC1, 0x0A, nRst, 0x0E, nC1, 0x0A, nRst, 0x14
	.byte	nC1, 0x04, nRst, 0x02, nC1, 0x0A, nRst, 0x02, nC1, 0x04, nRst, 0x14
	.byte	nEb0, 0x0A, nRst, 0x0E, nEb0, 0x0A, nRst, 0x14, nEb0, 0x04, nRst, 0x02
	.byte	nEb0, 0x0A, nRst, 0x02, nEb0, 0x04, nRst, 0x14, nAb0, 0x0A, nRst, 0x0E
	.byte	nAb0, 0x0A, nRst, 0x14, nAb0, 0x04, nRst, 0x02, nAb0, 0x0A, nRst, 0x02
	.byte	nAb0, 0x04, nRst, 0x14, nEb0, 0x0A, nRst, 0x0E, nEb0, 0x0A, nRst, 0x14
	.byte	nEb0, 0x04, nRst, 0x02, nEb0, 0x0A, nRst, 0x02, nEb0, 0x04, nRst, 0x14
	.byte	nBb0, 0x0A, nRst, 0x0E, nBb0, 0x0A, nRst, 0x14, nBb0, 0x04, nRst, 0x02
	.byte	nBb0, 0x0A, nRst, 0x02, nBb0, 0x04, nRst, 0x14, nEb1, 0x0A, nRst, 0x0E
	.byte	nEb1, 0x0A, nRst, 0x14, nCs1, 0x04, nRst, 0x02, nCs1, 0x0A, nRst, 0x02
	.byte	nCs1, 0x04, nRst, 0x14, nC1, 0x0A, nRst, 0x0E, nC1, 0x0A, nRst, 0x14
	.byte	nB0, 0x04, nRst, 0x02, nB0, 0x0A, nRst, 0x02, nB0, 0x04, nRst, 0x14
	.byte	nBb0, 0x08, nRst, 0x04, nA0, 0x14, nRst, 0x04, nC1, 0x08, nRst, 0x04
	.byte	nB0, 0x14, nRst, 0x04, nEb1, 0x08, nRst, 0x04, nD1, 0x14, nRst, 0x04
	.byte	nF1, 0x08, nRst, 0x04, nE1, 0x14, nRst, 0x04, nFs1, 0x14, nRst, 0x04
	.byte	nF1, 0x14, nRst, 0x04, nEb0, 0x0A, nRst, 0x0E, nEb0, 0x0A, nRst, 0x14
	.byte	nEb0, 0x04, nRst, 0x02, nEb0, 0x0A, nRst, 0x02, nEb0, 0x04, nRst, 0x14
	.byte	nEb0, 0x0A, nRst, 0x0E, nEb0, 0x0A, nRst, 0x14, nEb0, 0x04, nRst, 0x02
	.byte	nEb0, 0x0A, nRst, 0x02, nEb0, 0x04, nRst, 0x14, nEb0, 0x0A, nRst, 0x0E
	.byte	nEb0, 0x0A, nRst, 0x14, nEb0, 0x04, nRst, 0x02, nEb0, 0x0A, nRst, 0x02
	.byte	nEb0, 0x04, nRst, 0x14, nEb0, 0x0A, nRst, 0x0E, nEb0, 0x0A, nRst, 0x14
	.byte	nEb0, 0x04, nRst, 0x02, nEb0, 0x0A, nRst, 0x02, nEb0, 0x0A, nRst, 0x02
	.byte	nBb0, 0x0A, nRst, 0x04
	smpsJump            Snd_LBZ2_Jump01

/*  FM5 Data */
Snd_LBZ2_FM5:
	.byte	nRst, 0x02
	smpsFMAlterVol      0x08

Snd_LBZ2_Jump00:
	smpsSetvoice        0x03
	smpsDetune          0x02
	smpsModSet          0x0F, 0x01, 0x06, 0x06
	.byte	nC3, 0x16, nRst, 0x02, nG3, 0x10, nRst, 0x02, nC4, 0x04, nRst, 0x08
	.byte	nG3, 0x10, nRst, 0x02, nC4, 0x04, nRst, 0x08, nG3, 0x04, nRst, 0x08
	.byte	nBb3, 0x16, nRst, 0x02, nA3, 0x10, nRst, 0x02, nF3, 0x04, nRst, 0x26
	.byte	nA3, 0x0A, nRst, 0x02, nG3, 0x04, nRst, 0x14, nG3, 0x10, nRst, 0x02
	.byte	nC3, 0x04, nRst, 0x7A, nBb2, 0x0A, nRst, 0x02, nD3, 0x0A, nRst, 0x02
	.byte	nC3, 0x16, nRst, 0x02, nG3, 0x10, nRst, 0x02, nC4, 0x04, nRst, 0x08
	.byte	nG3, 0x10, nRst, 0x02, nC4, 0x04, nRst, 0x08, nG3, 0x04, nRst, 0x08
	.byte	nBb3, 0x16, nRst, 0x02, nA3, 0x10, nRst, 0x02, nF3, 0x04, nRst, 0x26
	.byte	nA3, 0x0A, nRst, 0x02, nG3, 0x52, nRst, 0x02, nG3, 0x06, nC3, nD3
	.byte	0x48, nRst, 0x0C, nG2, 0x06, nA2, nBb2, 0x16, nRst, 0x02, nF3, 0x10
	.byte	nRst, 0x02, nBb3, 0x04, nRst, 0x08, nF3, 0x10, nRst, 0x02, nBb3, 0x04
	.byte	nRst, 0x08, nF3, 0x04, nRst, 0x08, nAb3, 0x16, nRst, 0x02, nG3, 0x10
	.byte	nRst, 0x02, nEb3, 0x04, nRst, 0x26, nG3, 0x0A, nRst, 0x02, nF3, 0x04
	.byte	nRst, 0x14, nF3, 0x10, nRst, 0x02, nBb2, 0x04, nRst, 0x7A, nG2, 0x0A
	.byte	nRst, 0x02, nAb2, 0x0A, nRst, 0x02, nBb2, 0x16, nRst, 0x02, nF3, 0x10
	.byte	nRst, 0x02, nBb3, 0x04, nRst, 0x08, nF3, 0x10, nRst, 0x02, nBb3, 0x04
	.byte	nRst, 0x08, nF3, 0x04, nRst, 0x08, nAb3, 0x16, nRst, 0x02, nG3, 0x10
	.byte	nRst, 0x02, nEb3, 0x04, nRst, 0x26, nG3, 0x0A, nRst, 0x02, nF3, 0x52
	.byte	nRst, 0x02, nF3, 0x06, nBb2, nC3, 0x52, nRst, 0x0E
	smpsSetvoice        0x03
	smpsDetune          0x02
	smpsModSet          0x0F, 0x01, 0x06, 0x06
	.byte	nF4, 0x16, nRst, 0x02, nBb4, 0x10, nRst, 0x02, nF4, 0x04, nRst, 0x08
	.byte	nD4, 0x04, nRst, 0x02, nF4, 0x0A, nRst, 0x02, nA4, 0x0A, nRst, 0x02
	.byte	nF4, 0x0A, nRst, 0x02, nBb4, 0x16, nRst, 0x02, nA4, 0x10, nRst, 0x02
	.byte	nG4, 0x04, nRst, 0x08, nF4, 0x10, nRst, 0x02, nF4, 0x0A, nRst, 0x02
	.byte	nG4, 0x0A, nRst, 0x02, nA4, 0x04, nRst, 0x08, nF4, 0x04, nRst, 0x08
	.byte	nD4, 0x04, nRst, 0x08, nF4, 0x14, nRst, 0x04, nD4, nRst, 0x08, nF4
	.byte	0x04, nRst, 0x08, nG4, 0x64, nRst, 0x08, nF4, 0x16, nRst, 0x02, nBb4
	.byte	0x10, nRst, 0x02, nF4, 0x04, nRst, 0x08, nF4, 0x04, nRst, 0x02, nG4
	.byte	0x0A, nRst, 0x02, nA4, 0x0A, nRst, 0x02, nF4, 0x0A, nRst, 0x02, nD5
	.byte	0x16, nRst, 0x02, nC5, 0x10, nRst, 0x02, nBb4, 0x04, nRst, 0x08, nF4
	.byte	0x04, nRst, 0x02, nG4, 0x04, nRst, 0x02, nA4, 0x04, nRst, 0x02, nBb4
	.byte	0x0A, nRst, 0x02, nC5, 0x0A, nRst, 0x02, nA4, 0x22, nRst, 0x02, nG4
	.byte	0x08, nRst, 0x04, nG4, 0x64, nRst, 0x02
	smpsSetvoice        0x03
	smpsDetune          0x02
	smpsModSet          0x0F, 0x01, 0x06, 0x06
	.byte	nD3, 0x06, nE3, nF3, nG3, nA3, nB3, nD4, nEb4, 0x0A, nRst, 0x0E
	.byte	nEb4, 0x10, nRst, 0x02, nEb4, 0x04, nRst, 0x08, nEb4, 0x04, nRst, 0x02
	.byte	nEb4, 0x0A, nRst, 0x02, nEb4, 0x0A, nRst, 0x02, nEb4, 0x0A, nRst, 0x02
	.byte	nEb4, 0x08, nRst, 0x04, nF4, 0x08, nRst, 0x04, nG4, 0x08, nRst, 0x04
	.byte	nEb4, 0x20, nRst, 0x04, nC4, 0x14, nRst, 0x04, nEb4, 0x0A, nRst, 0x0E
	.byte	nEb4, 0x10, nRst, 0x02, nEb4, 0x04, nRst, 0x08, nEb4, 0x04, nRst, 0x02
	.byte	nEb4, 0x0A, nRst, 0x02, nEb4, 0x0A, nRst, 0x02, nF4, 0x0A, nRst, 0x02
	.byte	nG4, 0x08, nRst, 0x04, nF4, 0x08, nRst, 0x04, nD4, 0x08, nRst, 0x04
	.byte	nBb3, 0x38, nRst, 0x04, nEb4, 0x0A, nRst, 0x0E, nEb4, 0x10, nRst, 0x02
	.byte	nEb4, 0x04, nRst, 0x08, nEb4, 0x04, nRst, 0x02, nEb4, 0x0A, nRst, 0x02
	.byte	nEb4, 0x0A, nRst, 0x02, nEb4, 0x0A, nRst, 0x02, nEb4, 0x08, nRst, 0x04
	.byte	nF4, 0x08, nRst, 0x04, nG4, 0x08, nRst, 0x04, nEb4, 0x20, nRst, 0x1C
	.byte	nEb4, 0x06, nEb4, nD4, 0x08, nRst, 0x10, nF4, 0x06, nF4, nE4, 0x08
	.byte	nRst, 0x10, nG4, 0x06, nG4, nFs4, 0x08, nRst, 0x10, nAb4, 0x06, nAb4
	.byte	nG4, 0x08, nRst, 0x10, nB4, 0x14, nRst, 0x04, nBb4, 0x14, nRst, 0x04
	.byte	nEb4, 0x7F, smpsNoAttack, 0x19, nRst, 0x04, nEb4, nRst, 0x02, nF4, 0x04, nRst
	.byte	0x02, nG4, 0x04, nRst, 0x02, nF4, 0x04, nRst, 0x02, nEb4, 0x04, nRst
	.byte	0x02, nD4, 0x04, nRst, 0x02, nEb4, 0x20, nRst, 0x04, nBb3, 0x08, nRst
	.byte	0x04, nBb3, 0x2C, nRst, 0x04, nC4, 0x08, nRst, 0x04, nC4, 0x08, nRst
	.byte	0x04, nD4, 0x08, nRst, 0x04, nEb4, 0x08, nRst, 0x10, nF4, 0x18, nRst
	.byte	0x0E
	smpsJump            Snd_LBZ2_Jump00

/*  PSG1 Data */
Snd_LBZ2_PSG1:
	.byte	nRst, 0x0C, nE4, 0x02, nRst, 0x04, nE4, 0x02, nRst, 0x10, nE4, 0x02
	.byte	nRst, 0x04, nE4, 0x02, nRst, 0x0A, nE4, 0x02, nRst, 0x0A, nE4, 0x02
	.byte	nRst, 0x04, nE4, 0x02, nRst, 0x0A, nE4, 0x02, nRst, 0x16, nD4, 0x02
	.byte	nRst, 0x04, nD4, 0x02, nRst, 0x10, nD4, 0x02, nRst, 0x04, nD4, 0x02
	.byte	nRst, 0x0A, nD4, 0x02, nRst, 0x0A, nD4, 0x02, nRst, 0x04, nD4, 0x02
	.byte	nRst, 0x0A, nD4, 0x02, nRst, 0x16, nE4, 0x02, nRst, 0x04, nE4, 0x02
	.byte	nRst, 0x10, nE4, 0x02, nRst, 0x04, nE4, 0x02, nRst, 0x0A, nE4, 0x02
	.byte	nRst, 0x0A, nE4, 0x02, nRst, 0x04, nE4, 0x02, nRst, 0x0A, nE4, 0x02
	.byte	nRst, 0x16, nD4, 0x02, nRst, 0x04, nD4, 0x02, nRst, 0x10, nD4, 0x02
	.byte	nRst, 0x04, nD4, 0x02, nRst, 0x0A, nD4, 0x02, nRst, 0x0A, nD4, 0x02
	.byte	nRst, 0x04, nD4, 0x02, nRst, 0x0A, nD4, 0x02, nRst, 0x16, nE4, 0x02
	.byte	nRst, 0x04, nE4, 0x02, nRst, 0x10, nE4, 0x02, nRst, 0x04, nE4, 0x02
	.byte	nRst, 0x0A, nE4, 0x02, nRst, 0x0A, nE4, 0x02, nRst, 0x04, nE4, 0x02
	.byte	nRst, 0x0A, nE4, 0x02, nRst, 0x16, nD4, 0x02, nRst, 0x04, nD4, 0x02
	.byte	nRst, 0x10, nD4, 0x02, nRst, 0x04, nD4, 0x02, nRst, 0x0A, nD4, 0x02
	.byte	nRst, 0x0A, nD4, 0x02, nRst, 0x04, nD4, 0x02, nRst, 0x0A, nD4, 0x02
	.byte	nRst, 0x16, nD4, 0x02, nRst, 0x04, nD4, 0x02, nRst, 0x10, nD4, 0x02
	.byte	nRst, 0x04, nD4, 0x02, nRst, 0x0A, nD4, 0x02, nRst, 0x0A, nD4, 0x02
	.byte	nRst, 0x04, nD4, 0x02, nRst, 0x0A, nD4, 0x02, nRst, 0x16, nD4, 0x02
	.byte	nRst, 0x04, nD4, 0x02, nRst, 0x10, nD4, 0x02, nRst, 0x04, nD4, 0x02
	.byte	nRst, 0x0A, nD4, 0x02, nRst, 0x0A, nD4, 0x02, nRst, 0x04, nD4, 0x02
	.byte	nRst, 0x0A, nD4, 0x02, nRst, 0x16, nD4, 0x02, nRst, 0x04, nD4, 0x02
	.byte	nRst, 0x10, nD4, 0x02, nRst, 0x04, nD4, 0x02, nRst, 0x0A, nD4, 0x02
	.byte	nRst, 0x0A, nD4, 0x02, nRst, 0x04, nD4, 0x02, nRst, 0x0A, nD4, 0x02
	.byte	nRst, 0x16, nC4, 0x02, nRst, 0x04, nC4, 0x02, nRst, 0x10, nC4, 0x02
	.byte	nRst, 0x04, nC4, 0x02, nRst, 0x0A, nC4, 0x02, nRst, 0x0A, nC4, 0x02
	.byte	nRst, 0x04, nC4, 0x02, nRst, 0x0A, nC4, 0x02, nRst, 0x16, nD4, 0x02
	.byte	nRst, 0x04, nD4, 0x02, nRst, 0x10, nD4, 0x02, nRst, 0x04, nD4, 0x02
	.byte	nRst, 0x0A, nD4, 0x02, nRst, 0x0A, nD4, 0x02, nRst, 0x04, nD4, 0x02
	.byte	nRst, 0x0A, nD4, 0x02, nRst, 0x16, nC4, 0x02, nRst, 0x04, nC4, 0x02
	.byte	nRst, 0x10, nC4, 0x02, nRst, 0x04, nC4, 0x02, nRst, 0x0A, nC4, 0x02
	.byte	nRst, 0x0A, nC4, 0x02, nRst, 0x04, nC4, 0x02, nRst, 0x0A, nC4, 0x02
	.byte	nRst, 0x16, nD4, 0x02, nRst, 0x04, nD4, 0x02, nRst, 0x10, nD4, 0x02
	.byte	nRst, 0x04, nD4, 0x02, nRst, 0x0A, nD4, 0x02, nRst, 0x0A, nD4, 0x02
	.byte	nRst, 0x04, nD4, 0x02, nRst, 0x0A, nD4, 0x02, nRst, 0x16, nC4, 0x02
	.byte	nRst, 0x04, nC4, 0x02, nRst, 0x10, nC4, 0x02, nRst, 0x04, nC4, 0x02
	.byte	nRst, 0x0A, nC4, 0x02, nRst, 0x0A, nC4, 0x02, nRst, 0x04, nC4, 0x02
	.byte	nRst, 0x0A, nC4, 0x02, nRst, 0x16, nC4, 0x02, nRst, 0x04, nC4, 0x02
	.byte	nRst, 0x10, nC4, 0x02, nRst, 0x04, nC4, 0x02, nRst, 0x0A, nC4, 0x02
	.byte	nRst, 0x0A, nC4, 0x02, nRst, 0x04, nC4, 0x02, nRst, 0x0A, nC4, 0x02
	.byte	nRst, 0x16, nC4, 0x02, nRst, 0x04, nC4, 0x02, nRst, 0x10, nC4, 0x02
	.byte	nRst, 0x04, nC4, 0x02, nRst, 0x0A, nC4, 0x02, nRst, 0x0A, nC4, 0x02
	.byte	nRst, 0x04, nC4, 0x02, nRst, 0x0A, nC4, 0x02, nRst, 0x0A, nD4, 0x04
	.byte	nRst, 0x02, nD4, 0x04, nRst, 0x02, nD5, 0x04, nRst, 0x02, nD4, 0x04
	.byte	nRst, 0x02, nD5, 0x04, nRst, 0x02, nD4, 0x04, nRst, 0x02, nD4, 0x04
	.byte	nRst, 0x02, nD5, 0x04, nRst, 0x08, nD4, 0x04, nRst, 0x02, nD5, 0x04
	.byte	nRst, 0x02, nD4, 0x04, nRst, 0x02, nD4, 0x04, nRst, 0x02, nD4, 0x04
	.byte	nRst, 0x02, nD5, 0x04, nRst, 0x02, nD4, 0x04, nRst, 0x02, nEb4, 0x04
	.byte	nRst, 0x02, nEb4, 0x04, nRst, 0x02, nEb5, 0x04, nRst, 0x02, nEb4, 0x04
	.byte	nRst, 0x02, nEb5, 0x04, nRst, 0x02, nEb4, 0x04, nRst, 0x02, nEb4, 0x04
	.byte	nRst, 0x02, nEb5, 0x04, nRst, 0x08, nEb4, 0x04, nRst, 0x02, nEb5, 0x04
	.byte	nRst, 0x02, nEb4, 0x04, nRst, 0x02, nEb4, 0x04, nRst, 0x02, nEb4, 0x04
	.byte	nRst, 0x02, nEb5, 0x04, nRst, 0x02, nEb4, 0x04, nRst, 0x02, nD4, 0x04
	.byte	nRst, 0x02, nD4, 0x04, nRst, 0x02, nD5, 0x04, nRst, 0x02, nD4, 0x04
	.byte	nRst, 0x02, nD5, 0x04, nRst, 0x02, nD4, 0x04, nRst, 0x02, nD4, 0x04
	.byte	nRst, 0x02, nD5, 0x04, nRst, 0x08, nD4, 0x04, nRst, 0x02, nD5, 0x04
	.byte	nRst, 0x02, nD4, 0x04, nRst, 0x02, nD4, 0x04, nRst, 0x02, nD4, 0x04
	.byte	nRst, 0x02, nD5, 0x04, nRst, 0x02, nD4, 0x04, nRst, 0x02, nE4, 0x04
	.byte	nRst, 0x02, nE4, 0x04, nRst, 0x02, nE5, 0x04, nRst, 0x02, nE4, 0x04
	.byte	nRst, 0x02, nE5, 0x04, nRst, 0x02, nE4, 0x04, nRst, 0x02, nE4, 0x04
	.byte	nRst, 0x02, nE5, 0x04, nRst, 0x08, nE4, 0x04, nRst, 0x02, nE5, 0x04
	.byte	nRst, 0x02, nE4, 0x04, nRst, 0x02, nE4, 0x04, nRst, 0x02, nE4, 0x04
	.byte	nRst, 0x02, nE5, 0x04, nRst, 0x02, nE4, 0x04, nRst, 0x02, nD4, 0x04
	.byte	nRst, 0x02, nD4, 0x04, nRst, 0x02, nD5, 0x04, nRst, 0x02, nD4, 0x04
	.byte	nRst, 0x02, nD5, 0x04, nRst, 0x02, nD4, 0x04, nRst, 0x02, nD4, 0x04
	.byte	nRst, 0x02, nD5, 0x04, nRst, 0x08, nD4, 0x04, nRst, 0x02, nD5, 0x04
	.byte	nRst, 0x02, nD4, 0x04, nRst, 0x02, nD4, 0x04, nRst, 0x02, nD4, 0x04
	.byte	nRst, 0x02, nD5, 0x04, nRst, 0x02, nD4, 0x04, nRst, 0x02, nF4, 0x04
	.byte	nRst, 0x02, nF4, 0x04, nRst, 0x02, nF5, 0x04, nRst, 0x02, nF4, 0x04
	.byte	nRst, 0x02, nF5, 0x04, nRst, 0x02, nF4, 0x04, nRst, 0x02, nF4, 0x04
	.byte	nRst, 0x02, nF5, 0x04, nRst, 0x08, nF4, 0x04, nRst, 0x02, nF5, 0x04
	.byte	nRst, 0x02, nF4, 0x04, nRst, 0x02, nF4, 0x04, nRst, 0x02, nF4, 0x04
	.byte	nRst, 0x02, nF5, 0x04, nRst, 0x02, nF4, 0x04, nRst, 0x02, nC4, 0x04
	.byte	nRst, 0x02, nC4, 0x04, nRst, 0x02, nC5, 0x04, nRst, 0x02, nC4, 0x04
	.byte	nRst, 0x02, nC5, 0x04, nRst, 0x02, nC4, 0x04, nRst, 0x02, nC4, 0x04
	.byte	nRst, 0x02, nC5, 0x04, nRst, 0x08, nC4, 0x04, nRst, 0x02, nC5, 0x04
	.byte	nRst, 0x02, nC4, 0x04, nRst, 0x02, nC4, 0x04, nRst, 0x02, nC4, 0x04
	.byte	nRst, 0x02, nC5, 0x04, nRst, 0x02, nC4, 0x04, nRst, 0x02, nG3, 0x04
	.byte	nRst, 0x02, nG3, 0x04, nRst, 0x02, nG4, 0x04, nRst, 0x02, nG3, 0x04
	.byte	nRst, 0x02, nG4, 0x04, nRst, 0x02, nG3, 0x04, nRst, 0x02, nG3, 0x04
	.byte	nRst, 0x02, nG4, 0x04, nRst, 0x08, nG3, 0x04, nRst, 0x02, nG4, 0x04
	.byte	nRst, 0x02, nG3, 0x04, nRst, 0x02, nG3, 0x04, nRst, 0x02, nG3, 0x04
	.byte	nRst, 0x02, nG4, 0x04, nRst, 0x02, nG3, 0x04, nRst, 0x02, nEb2, 0x06
	.byte	nF2, nBb2, nEb3, nF3, nBb3, nEb4, nF4, nBb4, nF4, nEb4, nBb3, nF3
	.byte	nEb3, nBb2, nF2, nEb2, nG2, nBb2, nEb3, nG3, nBb3, nEb4, nG4, nBb4
	.byte	nG4, nEb4, nBb3, nG3, nEb3, nBb2, nG2, nEb2, nF2, nBb2, nEb3, nF3
	.byte	nBb3, nEb4, nF4, nBb4, nF4, nEb4, nBb3, nF3, nEb3, nBb2, nF2, nD2
	.byte	nF2, nBb2, nD3, nF3, nBb3, nD4, nF4, nBb4, nF4, nD4, nBb3, nF3
	.byte	nD3, nBb2, nF2, nEb2, nF2, nBb2, nEb3, nF3, nBb3, nEb4, nF4, nRst
	.byte	nCs2, nEb2, nF2, nAb2, nCs3, nEb3, nF3, nC2, nEb2, nAb2, nBb2, nC3
	.byte	nEb3, nAb3, nC4, nRst, nB1, nEb2, nFs2, nB2, nEb3, nFs3, nB3, nEb4
	.byte	nRst, nD4, nRst, nBb3, nRst, nC4, nRst, nB3, nRst, nG3, nRst, nG4
	.byte	nRst, nFs4, nRst, nD4, nRst, nEb4, nRst, nD4, nRst, nBb3, nRst, nAb4
	.byte	0x14, nRst, 0x04, nG4, 0x14, nRst, 0x04, nEb2, 0x06, nF2, nBb2, nEb3
	.byte	nF3, nBb3, nEb4, nF4, nBb4, nF4, nEb4, nBb3, nF3, nEb3, nBb2, nF2
	.byte	nEb2, nAb2, nBb2, nEb3, nAb3, nBb3, nEb4, nG4, nBb4, nG4, nEb4, nBb3
	.byte	nG3, nEb3, nBb2, nG2, nEb2, nF2, nBb2, nEb3, nF3, nBb3, nEb4, nF4
	.byte	nBb4, nF4, nEb4, nBb3, nF3, nEb3, nBb2, nF2, nEb2, nAb2, nBb2, nEb3
	.byte	nAb3, nBb3, nEb4, nG4, nBb4, nG4, nEb4, nBb3, nG3, nEb3, nBb2, nG2
	.byte	nRst, 0x02
	smpsJump            Snd_LBZ2_PSG1

/*  PSG2 Data */
Snd_LBZ2_PSG2:
	.byte	nRst, 0x0C, nG3, 0x02, nRst, 0x04, nG3, 0x02, nRst, 0x10, nG3, 0x02
	.byte	nRst, 0x04, nG3, 0x02, nRst, 0x0A, nG3, 0x02, nRst, 0x0A, nG3, 0x02
	.byte	nRst, 0x04, nG3, 0x02, nRst, 0x0A, nG3, 0x02, nRst, 0x16, nF3, 0x02
	.byte	nRst, 0x04, nF3, 0x02, nRst, 0x10, nF3, 0x02, nRst, 0x04, nF3, 0x02
	.byte	nRst, 0x0A, nF3, 0x02, nRst, 0x0A, nF3, 0x02, nRst, 0x04, nF3, 0x02
	.byte	nRst, 0x0A, nF3, 0x02, nRst, 0x16, nG3, 0x02, nRst, 0x04, nG3, 0x02
	.byte	nRst, 0x10, nG3, 0x02, nRst, 0x04, nG3, 0x02, nRst, 0x0A, nG3, 0x02
	.byte	nRst, 0x0A, nG3, 0x02, nRst, 0x04, nG3, 0x02, nRst, 0x0A, nG3, 0x02
	.byte	nRst, 0x16, nF3, 0x02, nRst, 0x04, nF3, 0x02, nRst, 0x10, nF3, 0x02
	.byte	nRst, 0x04, nF3, 0x02, nRst, 0x0A, nF3, 0x02, nRst, 0x0A, nF3, 0x02
	.byte	nRst, 0x04, nF3, 0x02, nRst, 0x0A, nF3, 0x02, nRst, 0x16, nG3, 0x02
	.byte	nRst, 0x04, nG3, 0x02, nRst, 0x10, nG3, 0x02, nRst, 0x04, nG3, 0x02
	.byte	nRst, 0x0A, nG3, 0x02, nRst, 0x0A, nG3, 0x02, nRst, 0x04, nG3, 0x02
	.byte	nRst, 0x0A, nG3, 0x02, nRst, 0x16, nF3, 0x02, nRst, 0x04, nF3, 0x02
	.byte	nRst, 0x10, nF3, 0x02, nRst, 0x04, nF3, 0x02, nRst, 0x0A, nF3, 0x02
	.byte	nRst, 0x0A, nF3, 0x02, nRst, 0x04, nF3, 0x02, nRst, 0x0A, nF3, 0x02
	.byte	nRst, 0x16, nG3, 0x02, nRst, 0x04, nG3, 0x02, nRst, 0x10, nG3, 0x02
	.byte	nRst, 0x04, nG3, 0x02, nRst, 0x0A, nG3, 0x02, nRst, 0x0A, nG3, 0x02
	.byte	nRst, 0x04, nG3, 0x02, nRst, 0x0A, nG3, 0x02, nRst, 0x16, nG3, 0x02
	.byte	nRst, 0x04, nG3, 0x02, nRst, 0x10, nG3, 0x02, nRst, 0x04, nG3, 0x02
	.byte	nRst, 0x0A, nG3, 0x02, nRst, 0x0A, nG3, 0x02, nRst, 0x04, nG3, 0x02
	.byte	nRst, 0x0A, nG3, 0x02, nRst, 0x16, nF3, 0x02, nRst, 0x04, nF3, 0x02
	.byte	nRst, 0x10, nF3, 0x02, nRst, 0x04, nF3, 0x02, nRst, 0x0A, nF3, 0x02
	.byte	nRst, 0x0A, nF3, 0x02, nRst, 0x04, nF3, 0x02, nRst, 0x0A, nF3, 0x02
	.byte	nRst, 0x16, nEb3, 0x02, nRst, 0x04, nEb3, 0x02, nRst, 0x10, nEb3, 0x02
	.byte	nRst, 0x04, nEb3, 0x02, nRst, 0x0A, nEb3, 0x02, nRst, 0x0A, nEb3, 0x02
	.byte	nRst, 0x04, nEb3, 0x02, nRst, 0x0A, nEb3, 0x02, nRst, 0x16, nF3, 0x02
	.byte	nRst, 0x04, nF3, 0x02, nRst, 0x10, nF3, 0x02, nRst, 0x04, nF3, 0x02
	.byte	nRst, 0x0A, nF3, 0x02, nRst, 0x0A, nF3, 0x02, nRst, 0x04, nF3, 0x02
	.byte	nRst, 0x0A, nF3, 0x02, nRst, 0x16, nEb3, 0x02, nRst, 0x04, nEb3, 0x02
	.byte	nRst, 0x10, nEb3, 0x02, nRst, 0x04, nEb3, 0x02, nRst, 0x0A, nEb3, 0x02
	.byte	nRst, 0x0A, nEb3, 0x02, nRst, 0x04, nEb3, 0x02, nRst, 0x0A, nEb3, 0x02
	.byte	nRst, 0x16, nF3, 0x02, nRst, 0x04, nF3, 0x02, nRst, 0x10, nF3, 0x02
	.byte	nRst, 0x04, nF3, 0x02, nRst, 0x0A, nF3, 0x02, nRst, 0x0A, nF3, 0x02
	.byte	nRst, 0x04, nF3, 0x02, nRst, 0x0A, nF3, 0x02, nRst, 0x16, nEb3, 0x02
	.byte	nRst, 0x04, nEb3, 0x02, nRst, 0x10, nEb3, 0x02, nRst, 0x04, nEb3, 0x02
	.byte	nRst, 0x0A, nEb3, 0x02, nRst, 0x0A, nEb3, 0x02, nRst, 0x04, nEb3, 0x02
	.byte	nRst, 0x0A, nEb3, 0x02, nRst, 0x16, nF3, 0x02, nRst, 0x04, nF3, 0x02
	.byte	nRst, 0x10, nF3, 0x02, nRst, 0x04, nF3, 0x02, nRst, 0x0A, nF3, 0x02
	.byte	nRst, 0x0A, nF3, 0x02, nRst, 0x04, nF3, 0x02, nRst, 0x0A, nF3, 0x02
	.byte	nRst, 0x16, nF3, 0x02, nRst, 0x04, nF3, 0x02, nRst, 0x10, nF3, 0x02
	.byte	nRst, 0x04, nF3, 0x02, nRst, 0x0A, nF3, 0x02, nRst, 0x0A, nF3, 0x02
	.byte	nRst, 0x04, nF3, 0x02, nRst, 0x0A, nF3, 0x02, nRst, 0x0A, nD4, 0x04
	.byte	nRst, 0x02, nD4, 0x04, nRst, 0x02, nD5, 0x04, nRst, 0x02, nD4, 0x04
	.byte	nRst, 0x02, nD5, 0x04, nRst, 0x02, nD4, 0x04, nRst, 0x02, nD4, 0x04
	.byte	nRst, 0x02, nD5, 0x04, nRst, 0x08, nD4, 0x04, nRst, 0x02, nD5, 0x04
	.byte	nRst, 0x02, nD4, 0x04, nRst, 0x02, nD4, 0x04, nRst, 0x02, nD4, 0x04
	.byte	nRst, 0x02, nD5, 0x04, nRst, 0x02, nD4, 0x04, nRst, 0x02, nEb4, 0x04
	.byte	nRst, 0x02, nEb4, 0x04, nRst, 0x02, nEb5, 0x04, nRst, 0x02, nEb4, 0x04
	.byte	nRst, 0x02, nEb5, 0x04, nRst, 0x02, nEb4, 0x04, nRst, 0x02, nEb4, 0x04
	.byte	nRst, 0x02, nEb5, 0x04, nRst, 0x08, nEb4, 0x04, nRst, 0x02, nEb5, 0x04
	.byte	nRst, 0x02, nEb4, 0x04, nRst, 0x02, nEb4, 0x04, nRst, 0x02, nEb4, 0x04
	.byte	nRst, 0x02, nEb5, 0x04, nRst, 0x02, nEb4, 0x04, nRst, 0x02, nD4, 0x04
	.byte	nRst, 0x02, nD4, 0x04, nRst, 0x02, nD5, 0x04, nRst, 0x02, nD4, 0x04
	.byte	nRst, 0x02, nD5, 0x04, nRst, 0x02, nD4, 0x04, nRst, 0x02, nD4, 0x04
	.byte	nRst, 0x02, nD5, 0x04, nRst, 0x08, nD4, 0x04, nRst, 0x02, nD5, 0x04
	.byte	nRst, 0x02, nD4, 0x04, nRst, 0x02, nD4, 0x04, nRst, 0x02, nD4, 0x04
	.byte	nRst, 0x02, nD5, 0x04, nRst, 0x02, nD4, 0x04, nRst, 0x02, nE4, 0x04
	.byte	nRst, 0x02, nE4, 0x04, nRst, 0x02, nE5, 0x04, nRst, 0x02, nE4, 0x04
	.byte	nRst, 0x02, nE5, 0x04, nRst, 0x02, nE4, 0x04, nRst, 0x02, nE4, 0x04
	.byte	nRst, 0x02, nE5, 0x04, nRst, 0x08, nE4, 0x04, nRst, 0x02, nE5, 0x04
	.byte	nRst, 0x02, nE4, 0x04, nRst, 0x02, nE4, 0x04, nRst, 0x02, nE4, 0x04
	.byte	nRst, 0x02, nE5, 0x04, nRst, 0x02, nE4, 0x04, nRst, 0x02, nD4, 0x04
	.byte	nRst, 0x02, nD4, 0x04, nRst, 0x02, nD5, 0x04, nRst, 0x02, nD4, 0x04
	.byte	nRst, 0x02, nD5, 0x04, nRst, 0x02, nD4, 0x04, nRst, 0x02, nD4, 0x04
	.byte	nRst, 0x02, nD5, 0x04, nRst, 0x08, nD4, 0x04, nRst, 0x02, nD5, 0x04
	.byte	nRst, 0x02, nD4, 0x04, nRst, 0x02, nD4, 0x04, nRst, 0x02, nD4, 0x04
	.byte	nRst, 0x02, nD5, 0x04, nRst, 0x02, nD4, 0x04, nRst, 0x02, nF4, 0x04
	.byte	nRst, 0x02, nF4, 0x04, nRst, 0x02, nF5, 0x04, nRst, 0x02, nF4, 0x04
	.byte	nRst, 0x02, nF5, 0x04, nRst, 0x02, nF4, 0x04, nRst, 0x02, nF4, 0x04
	.byte	nRst, 0x02, nF5, 0x04, nRst, 0x08, nF4, 0x04, nRst, 0x02, nF5, 0x04
	.byte	nRst, 0x02, nF4, 0x04, nRst, 0x02, nF4, 0x04, nRst, 0x02, nF4, 0x04
	.byte	nRst, 0x02, nF5, 0x04, nRst, 0x02, nF4, 0x04, nRst, 0x02, nC4, 0x04
	.byte	nRst, 0x02, nC4, 0x04, nRst, 0x02, nC5, 0x04, nRst, 0x02, nC4, 0x04
	.byte	nRst, 0x02, nC5, 0x04, nRst, 0x02, nC4, 0x04, nRst, 0x02, nC4, 0x04
	.byte	nRst, 0x02, nC5, 0x04, nRst, 0x08, nC4, 0x04, nRst, 0x02, nC5, 0x04
	.byte	nRst, 0x02, nC4, 0x04, nRst, 0x02, nC4, 0x04, nRst, 0x02, nC4, 0x04
	.byte	nRst, 0x02, nC5, 0x04, nRst, 0x02, nC4, 0x04, nRst, 0x02, nG3, 0x04
	.byte	nRst, 0x02, nG3, 0x04, nRst, 0x02, nG4, 0x04, nRst, 0x02, nG3, 0x04
	.byte	nRst, 0x02, nG4, 0x04, nRst, 0x02, nG3, 0x04, nRst, 0x02, nG3, 0x04
	.byte	nRst, 0x02, nG4, 0x04, nRst, 0x08, nG3, 0x04, nRst, 0x02, nG4, 0x04
	.byte	nRst, 0x02, nG3, 0x04, nRst, 0x02, nG3, 0x04, nRst, 0x02, nG3, 0x04
	.byte	nRst, 0x02, nG4, 0x04, nRst, 0x02, nG3, 0x04, nRst, 0x02, nEb2, 0x06
	.byte	nF2, nBb2, nEb3, nF3, nBb3, nEb4, nF4, nBb4, nF4, nEb4, nBb3, nF3
	.byte	nEb3, nBb2, nF2, nEb2, nG2, nBb2, nEb3, nG3, nBb3, nEb4, nG4, nBb4
	.byte	nG4, nEb4, nBb3, nG3, nEb3, nBb2, nG2, nEb2, nF2, nBb2, nEb3, nF3
	.byte	nBb3, nEb4, nF4, nBb4, nF4, nEb4, nBb3, nF3, nEb3, nBb2, nF2, nD2
	.byte	nF2, nBb2, nD3, nF3, nBb3, nD4, nF4, nBb4, nF4, nD4, nBb3, nF3
	.byte	nD3, nBb2, nF2, nEb2, nF2, nBb2, nEb3, nF3, nBb3, nEb4, nF4, nRst
	.byte	nCs2, nEb2, nF2, nAb2, nCs3, nEb3, nF3, nC2, nEb2, nAb2, nBb2, nC3
	.byte	nEb3, nAb3, nC4, nRst, nB1, nEb2, nFs2, nB2, nEb3, nFs3, nB3, nEb4
	.byte	nRst, nD4, nRst, nBb3, nRst, nC4, nRst, nB3, nRst, nG3, nRst, nG4
	.byte	nRst, nFs4, nRst, nD4, nRst, nEb4, nRst, nD4, nRst, nBb3, nRst, nAb4
	.byte	0x14, nRst, 0x04, nG4, 0x14, nRst, 0x04, nEb2, 0x06, nF2, nBb2, nEb3
	.byte	nF3, nBb3, nEb4, nF4, nBb4, nF4, nEb4, nBb3, nF3, nEb3, nBb2, nF2
	.byte	nEb2, nAb2, nBb2, nEb3, nAb3, nBb3, nEb4, nG4, nBb4, nG4, nEb4, nBb3
	.byte	nG3, nEb3, nBb2, nG2, nEb2, nF2, nBb2, nEb3, nF3, nBb3, nEb4, nF4
	.byte	nBb4, nF4, nEb4, nBb3, nF3, nEb3, nBb2, nF2, nEb2, nAb2, nBb2, nEb3
	.byte	nAb3, nBb3, nEb4, nG4, nBb4, nG4, nEb4, nBb3, nG3, nEb3, nBb2, nG2
	.byte	nRst, 0x02
	smpsJump            Snd_LBZ2_PSG2

/*  PSG3 Data */
Snd_LBZ2_PSG3:
	smpsPSGvoice        sTone_02
	smpsPSGform         0xE7

Snd_LBZ2_Jump04:
	.byte	nMaxPSG1, 0x0C, nMaxPSG1, 0x06, nMaxPSG1, nMaxPSG1, 0x0C, nMaxPSG1, 0x06, nMaxPSG1, nMaxPSG1, 0x0C
	.byte	nMaxPSG1, 0x06, nMaxPSG1, nMaxPSG1, 0x0C, nMaxPSG1, 0x06, nMaxPSG1, nMaxPSG1, 0x0C, nMaxPSG1, 0x06
	.byte	nMaxPSG1, nMaxPSG1, 0x0C, nMaxPSG1, 0x06, nMaxPSG1, nMaxPSG1, 0x0C, nMaxPSG1, 0x06, nMaxPSG1, nMaxPSG1
	.byte	0x0C, nMaxPSG1, 0x06, nMaxPSG1, nMaxPSG1, 0x0C, nMaxPSG1, 0x06, nMaxPSG1, nMaxPSG1, 0x0C, nMaxPSG1
	.byte	0x06, nMaxPSG1, nMaxPSG1, 0x0C, nMaxPSG1, 0x06, nMaxPSG1, nMaxPSG1, 0x0C, nMaxPSG1, 0x06, nMaxPSG1
	.byte	nMaxPSG1, 0x0C, nMaxPSG1, 0x06, nMaxPSG1, nMaxPSG1, 0x0C, nMaxPSG1, 0x06, nMaxPSG1, nMaxPSG1, 0x0C
	.byte	nMaxPSG1, 0x06, nMaxPSG1, nMaxPSG1, 0x0C, nMaxPSG1, nMaxPSG1, nMaxPSG1, 0x06, nMaxPSG1, nMaxPSG1, 0x0C
	.byte	nMaxPSG1, 0x06, nMaxPSG1, nMaxPSG1, 0x0C, nMaxPSG1, 0x06, nMaxPSG1, nMaxPSG1, 0x0C, nMaxPSG1, 0x06
	.byte	nMaxPSG1, nMaxPSG1, 0x0C, nMaxPSG1, 0x06, nMaxPSG1, nMaxPSG1, 0x0C, nMaxPSG1, 0x06, nMaxPSG1, nMaxPSG1
	.byte	0x0C, nMaxPSG1, 0x06, nMaxPSG1, nMaxPSG1, 0x0C, nMaxPSG1, 0x06, nMaxPSG1, nMaxPSG1, 0x0C, nMaxPSG1
	.byte	0x06, nMaxPSG1, nMaxPSG1, 0x0C, nMaxPSG1, 0x06, nMaxPSG1, nMaxPSG1, 0x0C, nMaxPSG1, 0x06, nMaxPSG1
	.byte	nMaxPSG1, 0x0C, nMaxPSG1, 0x06, nMaxPSG1, nMaxPSG1, 0x0C, nMaxPSG1, 0x06, nMaxPSG1, nMaxPSG1, 0x0C
	.byte	nMaxPSG1, 0x06, nMaxPSG1, nMaxPSG1, 0x0C, nMaxPSG1, 0x06, nMaxPSG1, nMaxPSG1, 0x0C, nMaxPSG1, nMaxPSG1
	.byte	nMaxPSG1, 0x06, nMaxPSG1, nMaxPSG1, 0x0C, nMaxPSG1, 0x06, nMaxPSG1, nMaxPSG1, 0x0C, nMaxPSG1, 0x06
	.byte	nMaxPSG1, nMaxPSG1, 0x0C, nMaxPSG1, 0x06, nMaxPSG1, nMaxPSG1, 0x0C, nMaxPSG1, 0x06, nMaxPSG1, nMaxPSG1
	.byte	0x0C, nMaxPSG1, 0x06, nMaxPSG1, nMaxPSG1, 0x0C, nMaxPSG1, 0x06, nMaxPSG1, nMaxPSG1, 0x0C, nMaxPSG1
	.byte	0x06, nMaxPSG1, nMaxPSG1, 0x0C, nMaxPSG1, 0x06, nMaxPSG1, nMaxPSG1, 0x0C, nMaxPSG1, 0x06, nMaxPSG1
	.byte	nMaxPSG1, 0x0C, nMaxPSG1, 0x06, nMaxPSG1, nMaxPSG1, 0x0C, nMaxPSG1, 0x06, nMaxPSG1, nMaxPSG1, 0x0C
	.byte	nMaxPSG1, 0x06, nMaxPSG1, nMaxPSG1, 0x0C, nMaxPSG1, 0x06, nMaxPSG1, nMaxPSG1, 0x0C, nMaxPSG1, 0x06
	.byte	nMaxPSG1, nMaxPSG1, 0x0C, nMaxPSG1, nMaxPSG1, nMaxPSG1, 0x06, nMaxPSG1, nMaxPSG1, 0x0C, nMaxPSG1, 0x06
	.byte	nMaxPSG1, nMaxPSG1, 0x0C, nMaxPSG1, 0x06, nMaxPSG1, nMaxPSG1, 0x0C, nMaxPSG1, 0x06, nMaxPSG1, nMaxPSG1
	.byte	0x0C, nMaxPSG1, 0x06, nMaxPSG1, nMaxPSG1, 0x0C, nMaxPSG1, 0x06, nMaxPSG1, nMaxPSG1, 0x0C, nMaxPSG1
	.byte	0x06, nMaxPSG1, nMaxPSG1, 0x0C, nMaxPSG1, 0x06, nMaxPSG1, nMaxPSG1, 0x0C, nMaxPSG1, 0x06, nMaxPSG1
	.byte	nMaxPSG1, 0x0C, nMaxPSG1, 0x06, nMaxPSG1, nMaxPSG1, 0x0C, nMaxPSG1, 0x06, nMaxPSG1, nMaxPSG1, 0x0C
	.byte	nMaxPSG1, 0x06, nMaxPSG1, nMaxPSG1, 0x0C, nMaxPSG1, 0x06, nMaxPSG1, nMaxPSG1, 0x0C, nMaxPSG1, 0x06
	.byte	nMaxPSG1, nMaxPSG1, 0x0C, nMaxPSG1, 0x06, nMaxPSG1, nMaxPSG1, 0x0C, nMaxPSG1, nMaxPSG1, nMaxPSG1, 0x06
	.byte	nMaxPSG1, nMaxPSG1, 0x0C, nMaxPSG1, 0x06, nMaxPSG1, nMaxPSG1, 0x0C, nMaxPSG1, 0x06, nMaxPSG1, nMaxPSG1
	.byte	0x0C, nMaxPSG1, 0x06, nMaxPSG1, nMaxPSG1, 0x0C, nMaxPSG1, 0x06, nMaxPSG1, nMaxPSG1, 0x0C, nMaxPSG1
	.byte	0x06, nMaxPSG1, nMaxPSG1, 0x0C, nMaxPSG1, 0x06, nMaxPSG1, nMaxPSG1, 0x0C, nMaxPSG1, 0x06, nMaxPSG1
	.byte	nMaxPSG1, 0x0C, nMaxPSG1, 0x06, nMaxPSG1, nMaxPSG1, 0x0C, nMaxPSG1, 0x06, nMaxPSG1, nMaxPSG1, 0x0C
	.byte	nMaxPSG1, 0x06, nMaxPSG1, nMaxPSG1, 0x0C, nMaxPSG1, 0x06, nMaxPSG1, nMaxPSG1, 0x0C, nMaxPSG1, 0x06
	.byte	nMaxPSG1, nMaxPSG1, 0x0C, nMaxPSG1, 0x06, nMaxPSG1, nMaxPSG1, 0x0C, nMaxPSG1, 0x06, nMaxPSG1, nMaxPSG1
	.byte	0x0C, nMaxPSG1, 0x06, nMaxPSG1, nMaxPSG1, 0x0C, nMaxPSG1, 0x06, nMaxPSG1, nMaxPSG1, 0x0C, nMaxPSG1
	.byte	0x06, nMaxPSG1, nMaxPSG1, 0x0C, nMaxPSG1, 0x06, nMaxPSG1, nMaxPSG1, 0x0C, nMaxPSG1, nMaxPSG1, nMaxPSG1
	.byte	0x06, nMaxPSG1, nMaxPSG1, 0x0C, nMaxPSG1, 0x06, nMaxPSG1, nMaxPSG1, 0x0C, nMaxPSG1, 0x06, nMaxPSG1
	.byte	nMaxPSG1, 0x0C, nMaxPSG1, 0x06, nMaxPSG1, nMaxPSG1, 0x0C, nMaxPSG1, 0x06, nMaxPSG1, nMaxPSG1, 0x0C
	.byte	nMaxPSG1, 0x06, nMaxPSG1, nMaxPSG1, 0x0C, nMaxPSG1, 0x06, nMaxPSG1, nMaxPSG1, 0x0C, nMaxPSG1, nMaxPSG1
	.byte	nMaxPSG1, 0x06, nMaxPSG1, nMaxPSG1, 0x0C, nMaxPSG1, 0x06, nMaxPSG1, nMaxPSG1, 0x0C, nMaxPSG1, 0x06
	.byte	nMaxPSG1, nMaxPSG1, 0x0C, nMaxPSG1, 0x06, nMaxPSG1, nMaxPSG1, 0x0C, nMaxPSG1, 0x06, nMaxPSG1, nMaxPSG1
	.byte	0x0C, nMaxPSG1, 0x06, nMaxPSG1, nMaxPSG1, 0x0C, nMaxPSG1, 0x06, nMaxPSG1, nMaxPSG1, 0x0C, nMaxPSG1
	.byte	nMaxPSG1, nMaxPSG1, 0x06, nMaxPSG1, nMaxPSG1, 0x0C, nMaxPSG1, 0x06, nMaxPSG1, nMaxPSG1, 0x0C, nMaxPSG1
	.byte	0x06, nMaxPSG1, nMaxPSG1, 0x0C, nMaxPSG1, 0x06, nMaxPSG1, nMaxPSG1, 0x0C, nMaxPSG1, 0x06, nMaxPSG1
	.byte	nMaxPSG1, 0x0C, nMaxPSG1, 0x06, nMaxPSG1, nMaxPSG1, 0x0C, nMaxPSG1, 0x06, nMaxPSG1, nMaxPSG1, 0x0C
	.byte	nMaxPSG1, nMaxPSG1, nMaxPSG1, 0x06, nMaxPSG1, nMaxPSG1, 0x0C, nMaxPSG1, 0x06, nMaxPSG1, nMaxPSG1, 0x0C
	.byte	nMaxPSG1, 0x06, nMaxPSG1, nMaxPSG1, 0x0C, nMaxPSG1, 0x06, nMaxPSG1, nMaxPSG1, 0x0C, nMaxPSG1, 0x06
	.byte	nMaxPSG1, nMaxPSG1, 0x0C, nMaxPSG1, 0x06, nMaxPSG1, nMaxPSG1, 0x0C, nMaxPSG1, 0x06, nMaxPSG1, nMaxPSG1
	.byte	0x0C, nMaxPSG1, nMaxPSG1, nMaxPSG1, 0x06, nMaxPSG1, nMaxPSG1, 0x0C, nMaxPSG1, 0x06, nMaxPSG1, nMaxPSG1
	.byte	0x0C, nMaxPSG1, 0x06, nMaxPSG1, nMaxPSG1, 0x0C, nMaxPSG1, 0x06, nMaxPSG1, nMaxPSG1, 0x0C, nMaxPSG1
	.byte	0x06, nMaxPSG1, nMaxPSG1, 0x0C, nMaxPSG1, 0x06, nMaxPSG1, nMaxPSG1, 0x0C, nMaxPSG1, 0x06, nMaxPSG1
	.byte	nMaxPSG1, 0x0C, nMaxPSG1, nMaxPSG1, nMaxPSG1, 0x06, nMaxPSG1, nMaxPSG1, 0x0C, nMaxPSG1, 0x06, nMaxPSG1
	.byte	nMaxPSG1, 0x0C, nMaxPSG1, 0x06, nMaxPSG1, nMaxPSG1, 0x0C, nMaxPSG1, 0x06, nMaxPSG1, nMaxPSG1, 0x0C
	.byte	nMaxPSG1, 0x06, nMaxPSG1, nMaxPSG1, 0x0C, nMaxPSG1, 0x06, nMaxPSG1, nMaxPSG1, 0x0C, nMaxPSG1, 0x06
	.byte	nMaxPSG1, nMaxPSG1, 0x0C, nMaxPSG1, nMaxPSG1, nMaxPSG1, 0x06, nMaxPSG1, nMaxPSG1, 0x0C, nMaxPSG1, 0x06
	.byte	nMaxPSG1, nMaxPSG1, 0x0C, nMaxPSG1, 0x06, nMaxPSG1, nMaxPSG1, 0x0C, nMaxPSG1, 0x06, nMaxPSG1, nMaxPSG1
	.byte	0x0C, nMaxPSG1, 0x06, nMaxPSG1, nMaxPSG1, 0x0C, nMaxPSG1, 0x06, nMaxPSG1, nMaxPSG1, 0x0C, nMaxPSG1
	.byte	0x06, nMaxPSG1, nMaxPSG1, 0x0C, nMaxPSG1, nMaxPSG1, nMaxPSG1, 0x06, nMaxPSG1, nMaxPSG1, 0x0C, nMaxPSG1
	.byte	0x06, nMaxPSG1, nMaxPSG1, 0x0C, nMaxPSG1, 0x06, nMaxPSG1, nMaxPSG1, 0x0C, nMaxPSG1, 0x06, nMaxPSG1
	.byte	0x02, nRst, 0x06
	smpsJump            Snd_LBZ2_Jump04

Snd_LBZ2_Voices:
/* 	Voice 0x00 */
/* 	0x3C */
/* 	0x01, 0x00, 0x00, 0x00, 	0x1F, 0x1F, 0x15, 0x1F, 	0x11, 0x0D, 0x12, 0x05 */
/* 	0x07, 0x04, 0x09, 0x02, 	0x55, 0x3A, 0x25, 0x1A, 	0x1A, 0x80, 0x07, 0x80 */
	smpsVcAlgorithm     0x04
	smpsVcFeedback      0x07
	smpsVcUnusedBits    0x00
	smpsVcDetune        0x00, 0x00, 0x00, 0x00
	smpsVcCoarseFreq    0x00, 0x00, 0x00, 0x01
	smpsVcRateScale     0x00, 0x00, 0x00, 0x00
	smpsVcAttackRate    0x1F, 0x15, 0x1F, 0x1F
	smpsVcAmpMod        0x00, 0x00, 0x00, 0x00
	smpsVcDecayRate1    0x05, 0x12, 0x0D, 0x11
	smpsVcDecayRate2    0x02, 0x09, 0x04, 0x07
	smpsVcDecayLevel    0x01, 0x02, 0x03, 0x05
	smpsVcReleaseRate   0x0A, 0x05, 0x0A, 0x05
	smpsVcTotalLevel    0x80, 0x07, 0x80, 0x1A

/* 	Voice 0x01 */
/* 	0x3D */
/* 	0x01, 0x01, 0x01, 0x01, 	0x94, 0x19, 0x19, 0x19, 	0x0F, 0x0D, 0x0D, 0x0D */
/* 	0x07, 0x04, 0x04, 0x04, 	0x25, 0x1A, 0x1A, 0x1A, 	0x15, 0x80, 0x80, 0x80 */
	smpsVcAlgorithm     0x05
	smpsVcFeedback      0x07
	smpsVcUnusedBits    0x00
	smpsVcDetune        0x00, 0x00, 0x00, 0x00
	smpsVcCoarseFreq    0x01, 0x01, 0x01, 0x01
	smpsVcRateScale     0x00, 0x00, 0x00, 0x02
	smpsVcAttackRate    0x19, 0x19, 0x19, 0x14
	smpsVcAmpMod        0x00, 0x00, 0x00, 0x00
	smpsVcDecayRate1    0x0D, 0x0D, 0x0D, 0x0F
	smpsVcDecayRate2    0x04, 0x04, 0x04, 0x07
	smpsVcDecayLevel    0x01, 0x01, 0x01, 0x02
	smpsVcReleaseRate   0x0A, 0x0A, 0x0A, 0x05
	smpsVcTotalLevel    0x80, 0x80, 0x80, 0x15

/* 	Voice 0x02 */
/* 	0x03 */
/* 	0x00, 0xD7, 0x33, 0x02, 	0x5F, 0x9F, 0x5F, 0x1F, 	0x13, 0x0F, 0x0A, 0x0A */
/* 	0x10, 0x0F, 0x02, 0x09, 	0x35, 0x15, 0x25, 0x1A, 	0x13, 0x16, 0x15, 0x80 */
	smpsVcAlgorithm     0x03
	smpsVcFeedback      0x00
	smpsVcUnusedBits    0x00
	smpsVcDetune        0x00, 0x03, 0x0D, 0x00
	smpsVcCoarseFreq    0x02, 0x03, 0x07, 0x00
	smpsVcRateScale     0x00, 0x01, 0x02, 0x01
	smpsVcAttackRate    0x1F, 0x1F, 0x1F, 0x1F
	smpsVcAmpMod        0x00, 0x00, 0x00, 0x00
	smpsVcDecayRate1    0x0A, 0x0A, 0x0F, 0x13
	smpsVcDecayRate2    0x09, 0x02, 0x0F, 0x10
	smpsVcDecayLevel    0x01, 0x02, 0x01, 0x03
	smpsVcReleaseRate   0x0A, 0x05, 0x05, 0x05
	smpsVcTotalLevel    0x80, 0x15, 0x16, 0x13

/* 	Voice 0x03 */
/* 	0x34 */
/* 	0x70, 0x72, 0x31, 0x31, 	0x1F, 0x1F, 0x1F, 0x1F, 	0x10, 0x06, 0x06, 0x06 */
/* 	0x01, 0x06, 0x06, 0x06, 	0x35, 0x1A, 0x15, 0x1A, 	0x10, 0x80, 0x18, 0x80 */
	smpsVcAlgorithm     0x04
	smpsVcFeedback      0x06
	smpsVcUnusedBits    0x00
	smpsVcDetune        0x03, 0x03, 0x07, 0x07
	smpsVcCoarseFreq    0x01, 0x01, 0x02, 0x00
	smpsVcRateScale     0x00, 0x00, 0x00, 0x00
	smpsVcAttackRate    0x1F, 0x1F, 0x1F, 0x1F
	smpsVcAmpMod        0x00, 0x00, 0x00, 0x00
	smpsVcDecayRate1    0x06, 0x06, 0x06, 0x10
	smpsVcDecayRate2    0x06, 0x06, 0x06, 0x01
	smpsVcDecayLevel    0x01, 0x01, 0x01, 0x03
	smpsVcReleaseRate   0x0A, 0x05, 0x0A, 0x05
	smpsVcTotalLevel    0x80, 0x18, 0x80, 0x10

/* 	Voice 0x04 */
/* 	0x3E */
/* 	0x77, 0x71, 0x32, 0x31, 	0x1F, 0x1F, 0x1F, 0x1F, 	0x0D, 0x06, 0x00, 0x00 */
/* 	0x08, 0x06, 0x00, 0x00, 	0x15, 0x0A, 0x0A, 0x0A, 	0x1B, 0x80, 0x80, 0x80 */
	smpsVcAlgorithm     0x06
	smpsVcFeedback      0x07
	smpsVcUnusedBits    0x00
	smpsVcDetune        0x03, 0x03, 0x07, 0x07
	smpsVcCoarseFreq    0x01, 0x02, 0x01, 0x07
	smpsVcRateScale     0x00, 0x00, 0x00, 0x00
	smpsVcAttackRate    0x1F, 0x1F, 0x1F, 0x1F
	smpsVcAmpMod        0x00, 0x00, 0x00, 0x00
	smpsVcDecayRate1    0x00, 0x00, 0x06, 0x0D
	smpsVcDecayRate2    0x00, 0x00, 0x06, 0x08
	smpsVcDecayLevel    0x00, 0x00, 0x00, 0x01
	smpsVcReleaseRate   0x0A, 0x0A, 0x0A, 0x05
	smpsVcTotalLevel    0x80, 0x80, 0x80, 0x1B

/* 	Voice 0x05 */
/* 	0x34 */
/* 	0x33, 0x41, 0x7E, 0x74, 	0x5B, 0x9F, 0x5F, 0x1F, 	0x04, 0x07, 0x07, 0x08 */
/* 	0x00, 0x00, 0x00, 0x00, 	0xFF, 0xFF, 0xEF, 0xFF, 	0x23, 0x80, 0x29, 0x87 */
	smpsVcAlgorithm     0x04
	smpsVcFeedback      0x06
	smpsVcUnusedBits    0x00
	smpsVcDetune        0x07, 0x07, 0x04, 0x03
	smpsVcCoarseFreq    0x04, 0x0E, 0x01, 0x03
	smpsVcRateScale     0x00, 0x01, 0x02, 0x01
	smpsVcAttackRate    0x1F, 0x1F, 0x1F, 0x1B
	smpsVcAmpMod        0x00, 0x00, 0x00, 0x00
	smpsVcDecayRate1    0x08, 0x07, 0x07, 0x04
	smpsVcDecayRate2    0x00, 0x00, 0x00, 0x00
	smpsVcDecayLevel    0x0F, 0x0E, 0x0F, 0x0F
	smpsVcReleaseRate   0x0F, 0x0F, 0x0F, 0x0F
	smpsVcTotalLevel    0x87, 0x29, 0x80, 0x23

/* 	Voice 0x06 */
/* 	0x3A */
/* 	0x01, 0x07, 0x01, 0x01, 	0x8E, 0x8E, 0x8D, 0x53, 	0x0E, 0x0E, 0x0E, 0x03 */
/* 	0x00, 0x00, 0x00, 0x07, 	0x1F, 0xFF, 0x1F, 0x0F, 	0x18, 0x28, 0x27, 0x80 */
	smpsVcAlgorithm     0x02
	smpsVcFeedback      0x07
	smpsVcUnusedBits    0x00
	smpsVcDetune        0x00, 0x00, 0x00, 0x00
	smpsVcCoarseFreq    0x01, 0x01, 0x07, 0x01
	smpsVcRateScale     0x01, 0x02, 0x02, 0x02
	smpsVcAttackRate    0x13, 0x0D, 0x0E, 0x0E
	smpsVcAmpMod        0x00, 0x00, 0x00, 0x00
	smpsVcDecayRate1    0x03, 0x0E, 0x0E, 0x0E
	smpsVcDecayRate2    0x07, 0x00, 0x00, 0x00
	smpsVcDecayLevel    0x00, 0x01, 0x0F, 0x01
	smpsVcReleaseRate   0x0F, 0x0F, 0x0F, 0x0F
	smpsVcTotalLevel    0x80, 0x27, 0x28, 0x18

/* 	Voice 0x07 */
/* 	0x3C */
/* 	0x32, 0x32, 0x71, 0x42, 	0x1F, 0x18, 0x1F, 0x1E, 	0x07, 0x1F, 0x07, 0x1F */
/* 	0x00, 0x00, 0x00, 0x00, 	0x1F, 0x0F, 0x1F, 0x0F, 	0x1E, 0x80, 0x0C, 0x80 */
	smpsVcAlgorithm     0x04
	smpsVcFeedback      0x07
	smpsVcUnusedBits    0x00
	smpsVcDetune        0x04, 0x07, 0x03, 0x03
	smpsVcCoarseFreq    0x02, 0x01, 0x02, 0x02
	smpsVcRateScale     0x00, 0x00, 0x00, 0x00
	smpsVcAttackRate    0x1E, 0x1F, 0x18, 0x1F
	smpsVcAmpMod        0x00, 0x00, 0x00, 0x00
	smpsVcDecayRate1    0x1F, 0x07, 0x1F, 0x07
	smpsVcDecayRate2    0x00, 0x00, 0x00, 0x00
	smpsVcDecayLevel    0x00, 0x01, 0x00, 0x01
	smpsVcReleaseRate   0x0F, 0x0F, 0x0F, 0x0F
	smpsVcTotalLevel    0x80, 0x0C, 0x80, 0x1E

/* 	Voice 0x08 */
/* 	0x3C */
/* 	0x71, 0x72, 0x3F, 0x34, 	0x8D, 0x52, 0x9F, 0x1F, 	0x09, 0x00, 0x00, 0x0D */
/* 	0x00, 0x00, 0x00, 0x00, 	0x23, 0x08, 0x02, 0xF7, 	0x15, 0x80, 0x1D, 0x87 */
	smpsVcAlgorithm     0x04
	smpsVcFeedback      0x07
	smpsVcUnusedBits    0x00
	smpsVcDetune        0x03, 0x03, 0x07, 0x07
	smpsVcCoarseFreq    0x04, 0x0F, 0x02, 0x01
	smpsVcRateScale     0x00, 0x02, 0x01, 0x02
	smpsVcAttackRate    0x1F, 0x1F, 0x12, 0x0D
	smpsVcAmpMod        0x00, 0x00, 0x00, 0x00
	smpsVcDecayRate1    0x0D, 0x00, 0x00, 0x09
	smpsVcDecayRate2    0x00, 0x00, 0x00, 0x00
	smpsVcDecayLevel    0x0F, 0x00, 0x00, 0x02
	smpsVcReleaseRate   0x07, 0x02, 0x08, 0x03
	smpsVcTotalLevel    0x87, 0x1D, 0x80, 0x15

/* 	Voice 0x09 */
/* 	0x3D */
/* 	0x01, 0x01, 0x00, 0x00, 	0x8E, 0x52, 0x14, 0x4C, 	0x08, 0x08, 0x0E, 0x03 */
/* 	0x00, 0x00, 0x00, 0x00, 	0x1F, 0x1F, 0x1F, 0x1F, 	0x1B, 0x80, 0x80, 0x9B */
	smpsVcAlgorithm     0x05
	smpsVcFeedback      0x07
	smpsVcUnusedBits    0x00
	smpsVcDetune        0x00, 0x00, 0x00, 0x00
	smpsVcCoarseFreq    0x00, 0x00, 0x01, 0x01
	smpsVcRateScale     0x01, 0x00, 0x01, 0x02
	smpsVcAttackRate    0x0C, 0x14, 0x12, 0x0E
	smpsVcAmpMod        0x00, 0x00, 0x00, 0x00
	smpsVcDecayRate1    0x03, 0x0E, 0x08, 0x08
	smpsVcDecayRate2    0x00, 0x00, 0x00, 0x00
	smpsVcDecayLevel    0x01, 0x01, 0x01, 0x01
	smpsVcReleaseRate   0x0F, 0x0F, 0x0F, 0x0F
	smpsVcTotalLevel    0x9B, 0x80, 0x80, 0x1B

/* 	Voice 0x0A */
/* 	0x3A */
/* 	0x31, 0x53, 0x31, 0x41, 	0x8D, 0x4F, 0x15, 0x52, 	0x06, 0x08, 0x07, 0x04 */
/* 	0x02, 0x00, 0x00, 0x00, 	0x1F, 0x1F, 0x2F, 0x2F, 	0x19, 0x20, 0x2A, 0x80 */
	smpsVcAlgorithm     0x02
	smpsVcFeedback      0x07
	smpsVcUnusedBits    0x00
	smpsVcDetune        0x04, 0x03, 0x05, 0x03
	smpsVcCoarseFreq    0x01, 0x01, 0x03, 0x01
	smpsVcRateScale     0x01, 0x00, 0x01, 0x02
	smpsVcAttackRate    0x12, 0x15, 0x0F, 0x0D
	smpsVcAmpMod        0x00, 0x00, 0x00, 0x00
	smpsVcDecayRate1    0x04, 0x07, 0x08, 0x06
	smpsVcDecayRate2    0x00, 0x00, 0x00, 0x02
	smpsVcDecayLevel    0x02, 0x02, 0x01, 0x01
	smpsVcReleaseRate   0x0F, 0x0F, 0x0F, 0x0F
	smpsVcTotalLevel    0x80, 0x2A, 0x20, 0x19

/* 	Voice 0x0B */
/* 	0x3C */
/* 	0x36, 0x31, 0x76, 0x71, 	0x94, 0x9F, 0x96, 0x9F, 	0x12, 0x00, 0x14, 0x0F */
/* 	0x04, 0x0A, 0x04, 0x0D, 	0x2F, 0x0F, 0x4F, 0x2F, 	0x33, 0x80, 0x1A, 0x80 */
	smpsVcAlgorithm     0x04
	smpsVcFeedback      0x07
	smpsVcUnusedBits    0x00
	smpsVcDetune        0x07, 0x07, 0x03, 0x03
	smpsVcCoarseFreq    0x01, 0x06, 0x01, 0x06
	smpsVcRateScale     0x02, 0x02, 0x02, 0x02
	smpsVcAttackRate    0x1F, 0x16, 0x1F, 0x14
	smpsVcAmpMod        0x00, 0x00, 0x00, 0x00
	smpsVcDecayRate1    0x0F, 0x14, 0x00, 0x12
	smpsVcDecayRate2    0x0D, 0x04, 0x0A, 0x04
	smpsVcDecayLevel    0x02, 0x04, 0x00, 0x02
	smpsVcReleaseRate   0x0F, 0x0F, 0x0F, 0x0F
	smpsVcTotalLevel    0x80, 0x1A, 0x80, 0x33

/* 	Voice 0x0C */
/* 	0x34 */
/* 	0x33, 0x41, 0x7E, 0x74, 	0x5B, 0x9F, 0x5F, 0x1F, 	0x04, 0x07, 0x07, 0x08 */
/* 	0x00, 0x00, 0x00, 0x00, 	0xFF, 0xFF, 0xEF, 0xFF, 	0x23, 0x90, 0x29, 0x97 */
	smpsVcAlgorithm     0x04
	smpsVcFeedback      0x06
	smpsVcUnusedBits    0x00
	smpsVcDetune        0x07, 0x07, 0x04, 0x03
	smpsVcCoarseFreq    0x04, 0x0E, 0x01, 0x03
	smpsVcRateScale     0x00, 0x01, 0x02, 0x01
	smpsVcAttackRate    0x1F, 0x1F, 0x1F, 0x1B
	smpsVcAmpMod        0x00, 0x00, 0x00, 0x00
	smpsVcDecayRate1    0x08, 0x07, 0x07, 0x04
	smpsVcDecayRate2    0x00, 0x00, 0x00, 0x00
	smpsVcDecayLevel    0x0F, 0x0E, 0x0F, 0x0F
	smpsVcReleaseRate   0x0F, 0x0F, 0x0F, 0x0F
	smpsVcTotalLevel    0x97, 0x29, 0x90, 0x23

/* 	Voice 0x0D */
/* 	0x38 */
/* 	0x63, 0x31, 0x31, 0x31, 	0x10, 0x13, 0x1A, 0x1B, 	0x0E, 0x00, 0x00, 0x00 */
/* 	0x00, 0x00, 0x00, 0x00, 	0x3F, 0x0F, 0x0F, 0x0F, 	0x1A, 0x19, 0x1A, 0x80 */
	smpsVcAlgorithm     0x00
	smpsVcFeedback      0x07
	smpsVcUnusedBits    0x00
	smpsVcDetune        0x03, 0x03, 0x03, 0x06
	smpsVcCoarseFreq    0x01, 0x01, 0x01, 0x03
	smpsVcRateScale     0x00, 0x00, 0x00, 0x00
	smpsVcAttackRate    0x1B, 0x1A, 0x13, 0x10
	smpsVcAmpMod        0x00, 0x00, 0x00, 0x00
	smpsVcDecayRate1    0x00, 0x00, 0x00, 0x0E
	smpsVcDecayRate2    0x00, 0x00, 0x00, 0x00
	smpsVcDecayLevel    0x00, 0x00, 0x00, 0x03
	smpsVcReleaseRate   0x0F, 0x0F, 0x0F, 0x0F
	smpsVcTotalLevel    0x80, 0x1A, 0x19, 0x1A

/* 	Voice 0x0E */
/* 	0x3A */
/* 	0x31, 0x25, 0x73, 0x41, 	0x5F, 0x1F, 0x1F, 0x9C, 	0x08, 0x05, 0x04, 0x1E */
/* 	0x03, 0x04, 0x02, 0x06, 	0x2F, 0x2F, 0x1F, 0x0F, 	0x29, 0x27, 0x1F, 0x80 */
	smpsVcAlgorithm     0x02
	smpsVcFeedback      0x07
	smpsVcUnusedBits    0x00
	smpsVcDetune        0x04, 0x07, 0x02, 0x03
	smpsVcCoarseFreq    0x01, 0x03, 0x05, 0x01
	smpsVcRateScale     0x02, 0x00, 0x00, 0x01
	smpsVcAttackRate    0x1C, 0x1F, 0x1F, 0x1F
	smpsVcAmpMod        0x00, 0x00, 0x00, 0x00
	smpsVcDecayRate1    0x1E, 0x04, 0x05, 0x08
	smpsVcDecayRate2    0x06, 0x02, 0x04, 0x03
	smpsVcDecayLevel    0x00, 0x01, 0x02, 0x02
	smpsVcReleaseRate   0x0F, 0x0F, 0x0F, 0x0F
	smpsVcTotalLevel    0x80, 0x1F, 0x27, 0x29

/* 	Voice 0x0F */
/* 	0x04 */
/* 	0x71, 0x41, 0x31, 0x31, 	0x12, 0x12, 0x12, 0x12, 	0x00, 0x00, 0x00, 0x00 */
/* 	0x00, 0x00, 0x00, 0x00, 	0x0F, 0x0F, 0x0F, 0x0F, 	0x23, 0x80, 0x23, 0x80 */
	smpsVcAlgorithm     0x04
	smpsVcFeedback      0x00
	smpsVcUnusedBits    0x00
	smpsVcDetune        0x03, 0x03, 0x04, 0x07
	smpsVcCoarseFreq    0x01, 0x01, 0x01, 0x01
	smpsVcRateScale     0x00, 0x00, 0x00, 0x00
	smpsVcAttackRate    0x12, 0x12, 0x12, 0x12
	smpsVcAmpMod        0x00, 0x00, 0x00, 0x00
	smpsVcDecayRate1    0x00, 0x00, 0x00, 0x00
	smpsVcDecayRate2    0x00, 0x00, 0x00, 0x00
	smpsVcDecayLevel    0x00, 0x00, 0x00, 0x00
	smpsVcReleaseRate   0x0F, 0x0F, 0x0F, 0x0F
	smpsVcTotalLevel    0x80, 0x23, 0x80, 0x23

/* 	Voice 0x10 */
/* 	0x14 */
/* 	0x75, 0x72, 0x35, 0x32, 	0x9F, 0x9F, 0x9F, 0x9F, 	0x05, 0x05, 0x00, 0x0A */
/* 	0x05, 0x05, 0x07, 0x05, 	0x2F, 0xFF, 0x0F, 0x2F, 	0x1E, 0x80, 0x14, 0x80 */
	smpsVcAlgorithm     0x04
	smpsVcFeedback      0x02
	smpsVcUnusedBits    0x00
	smpsVcDetune        0x03, 0x03, 0x07, 0x07
	smpsVcCoarseFreq    0x02, 0x05, 0x02, 0x05
	smpsVcRateScale     0x02, 0x02, 0x02, 0x02
	smpsVcAttackRate    0x1F, 0x1F, 0x1F, 0x1F
	smpsVcAmpMod        0x00, 0x00, 0x00, 0x00
	smpsVcDecayRate1    0x0A, 0x00, 0x05, 0x05
	smpsVcDecayRate2    0x05, 0x07, 0x05, 0x05
	smpsVcDecayLevel    0x02, 0x00, 0x0F, 0x02
	smpsVcReleaseRate   0x0F, 0x0F, 0x0F, 0x0F
	smpsVcTotalLevel    0x80, 0x14, 0x80, 0x1E

/* 	Voice 0x11 */
/* 	0x3D */
/* 	0x01, 0x00, 0x01, 0x02, 	0x12, 0x1F, 0x1F, 0x14, 	0x07, 0x02, 0x02, 0x0A */
/* 	0x05, 0x05, 0x05, 0x05, 	0x2F, 0x2F, 0x2F, 0xAF, 	0x1C, 0x80, 0x82, 0x80 */
	smpsVcAlgorithm     0x05
	smpsVcFeedback      0x07
	smpsVcUnusedBits    0x00
	smpsVcDetune        0x00, 0x00, 0x00, 0x00
	smpsVcCoarseFreq    0x02, 0x01, 0x00, 0x01
	smpsVcRateScale     0x00, 0x00, 0x00, 0x00
	smpsVcAttackRate    0x14, 0x1F, 0x1F, 0x12
	smpsVcAmpMod        0x00, 0x00, 0x00, 0x00
	smpsVcDecayRate1    0x0A, 0x02, 0x02, 0x07
	smpsVcDecayRate2    0x05, 0x05, 0x05, 0x05
	smpsVcDecayLevel    0x0A, 0x02, 0x02, 0x02
	smpsVcReleaseRate   0x0F, 0x0F, 0x0F, 0x0F
	smpsVcTotalLevel    0x80, 0x82, 0x80, 0x1C

/* 	Voice 0x12 */
/* 	0x1C */
/* 	0x73, 0x72, 0x33, 0x32, 	0x94, 0x99, 0x94, 0x99, 	0x08, 0x0A, 0x08, 0x0A */
/* 	0x00, 0x05, 0x00, 0x05, 	0x3F, 0x4F, 0x3F, 0x4F, 	0x1E, 0x80, 0x19, 0x80 */
	smpsVcAlgorithm     0x04
	smpsVcFeedback      0x03
	smpsVcUnusedBits    0x00
	smpsVcDetune        0x03, 0x03, 0x07, 0x07
	smpsVcCoarseFreq    0x02, 0x03, 0x02, 0x03
	smpsVcRateScale     0x02, 0x02, 0x02, 0x02
	smpsVcAttackRate    0x19, 0x14, 0x19, 0x14
	smpsVcAmpMod        0x00, 0x00, 0x00, 0x00
	smpsVcDecayRate1    0x0A, 0x08, 0x0A, 0x08
	smpsVcDecayRate2    0x05, 0x00, 0x05, 0x00
	smpsVcDecayLevel    0x04, 0x03, 0x04, 0x03
	smpsVcReleaseRate   0x0F, 0x0F, 0x0F, 0x0F
	smpsVcTotalLevel    0x80, 0x19, 0x80, 0x1E

/* 	Voice 0x13 */
/* 	0x31 */
/* 	0x33, 0x01, 0x00, 0x00, 	0x9F, 0x1F, 0x1F, 0x1F, 	0x0D, 0x0A, 0x0A, 0x0A */
/* 	0x0A, 0x07, 0x07, 0x07, 	0xFF, 0xAF, 0xAF, 0xAF, 	0x1E, 0x1E, 0x1E, 0x80 */
	smpsVcAlgorithm     0x01
	smpsVcFeedback      0x06
	smpsVcUnusedBits    0x00
	smpsVcDetune        0x00, 0x00, 0x00, 0x03
	smpsVcCoarseFreq    0x00, 0x00, 0x01, 0x03
	smpsVcRateScale     0x00, 0x00, 0x00, 0x02
	smpsVcAttackRate    0x1F, 0x1F, 0x1F, 0x1F
	smpsVcAmpMod        0x00, 0x00, 0x00, 0x00
	smpsVcDecayRate1    0x0A, 0x0A, 0x0A, 0x0D
	smpsVcDecayRate2    0x07, 0x07, 0x07, 0x0A
	smpsVcDecayLevel    0x0A, 0x0A, 0x0A, 0x0F
	smpsVcReleaseRate   0x0F, 0x0F, 0x0F, 0x0F
	smpsVcTotalLevel    0x80, 0x1E, 0x1E, 0x1E

/* 	Voice 0x14 */
/* 	0x3A */
/* 	0x70, 0x76, 0x30, 0x71, 	0x1F, 0x95, 0x1F, 0x1F, 	0x0E, 0x0F, 0x05, 0x0C */
/* 	0x07, 0x06, 0x06, 0x07, 	0x2F, 0x4F, 0x1F, 0x5F, 	0x21, 0x12, 0x28, 0x80 */
	smpsVcAlgorithm     0x02
	smpsVcFeedback      0x07
	smpsVcUnusedBits    0x00
	smpsVcDetune        0x07, 0x03, 0x07, 0x07
	smpsVcCoarseFreq    0x01, 0x00, 0x06, 0x00
	smpsVcRateScale     0x00, 0x00, 0x02, 0x00
	smpsVcAttackRate    0x1F, 0x1F, 0x15, 0x1F
	smpsVcAmpMod        0x00, 0x00, 0x00, 0x00
	smpsVcDecayRate1    0x0C, 0x05, 0x0F, 0x0E
	smpsVcDecayRate2    0x07, 0x06, 0x06, 0x07
	smpsVcDecayLevel    0x05, 0x01, 0x04, 0x02
	smpsVcReleaseRate   0x0F, 0x0F, 0x0F, 0x0F
	smpsVcTotalLevel    0x80, 0x28, 0x12, 0x21

/* 	Voice 0x15 */
/* 	0x28 */
/* 	0x71, 0x00, 0x30, 0x01, 	0x1F, 0x1F, 0x1D, 0x1F, 	0x13, 0x13, 0x06, 0x05 */
/* 	0x03, 0x03, 0x02, 0x05, 	0x4F, 0x4F, 0x2F, 0x3F, 	0x0E, 0x14, 0x1E, 0x80 */
	smpsVcAlgorithm     0x00
	smpsVcFeedback      0x05
	smpsVcUnusedBits    0x00
	smpsVcDetune        0x00, 0x03, 0x00, 0x07
	smpsVcCoarseFreq    0x01, 0x00, 0x00, 0x01
	smpsVcRateScale     0x00, 0x00, 0x00, 0x00
	smpsVcAttackRate    0x1F, 0x1D, 0x1F, 0x1F
	smpsVcAmpMod        0x00, 0x00, 0x00, 0x00
	smpsVcDecayRate1    0x05, 0x06, 0x13, 0x13
	smpsVcDecayRate2    0x05, 0x02, 0x03, 0x03
	smpsVcDecayLevel    0x03, 0x02, 0x04, 0x04
	smpsVcReleaseRate   0x0F, 0x0F, 0x0F, 0x0F
	smpsVcTotalLevel    0x80, 0x1E, 0x14, 0x0E

