Snd_LRZ1_Header:
	smpsHeaderStartSong 3
	smpsHeaderVoiceUVB
	smpsHeaderChan      0x06, 0x03
	smpsHeaderTempo     0x01, 0x26

	smpsHeaderDAC       Snd_LRZ1_DAC
	smpsHeaderFM        Snd_LRZ1_FM1,	0x0C, 0x09
	smpsHeaderFM        Snd_LRZ1_FM2,	0x0C, 0x01
	smpsHeaderFM        Snd_LRZ1_FM3,	0x0C, 0x03
	smpsHeaderFM        Snd_LRZ1_FM4,	0x0C, 0x13
	smpsHeaderFM        Snd_LRZ1_FM5,	0x0C, 0x13
	smpsHeaderPSG       Snd_LRZ1_PSG1,	0xF4, 0x04, 0x00, sTone_0C
	smpsHeaderPSG       Snd_LRZ1_PSG2,	0xF4, 0x04, 0x00, sTone_0C
	smpsHeaderPSG       Snd_LRZ1_PSG3,	0xF4, 0x01, 0x00, sTone_0C

/*  Unreachable */
	smpsStop
	smpsStop

Snd_LRZ1_Call00:
	.byte	dKickS3, 0x0C, dElectricFloorTom, 0x06, dElectricFloorTom, dSnareS3, 0x30, dSnareS3, 0x18, dKickS3, 0x0C, dElectricFloorTom
	.byte	0x06, dElectricFloorTom, dSnareS3, 0x30, dSnareS3, 0x06, dElectricFloorTom, 0x06, dMidpitchSnare, 0x0C
	smpsReturn

Snd_LRZ1_Call01:
	.byte	dKickS3, 0x06, dKickS3, dKickS3, dKickS3, dSnareS3, 0x24, dElectricFloorTom, 0x06, dElectricFloorTom, dSnareS3, 0x06
	.byte	dKickS3, 0x06, dMidpitchSnare, 0x0C
	smpsReturn

Snd_LRZ1_Call02:
	.byte	dKickS3, 0x0C, dKickS3, 0x06, dKickS3, dSnareS3, 0x0C, dKickS3, 0x06, dKickS3, 0x12, dElectricFloorTom
	.byte	0x06, dElectricFloorTom, dSnareS3, dKickS3, dMidpitchSnare, 0x0C, dKickS3, 0x0C, dKickS3, 0x06, dSnareS3, dKickS3
	.byte	dKickS3, dSnareS3, 0x18, dKickS3, 0x06, dKickS3, dSnareS3, dElectricFloorTom, dMidpitchSnare, 0x0C
	smpsReturn

/*  DAC Data */
Snd_LRZ1_DAC:
	smpsCall            Snd_LRZ1_Call00
	smpsLoop            0x01, 0x06, Snd_LRZ1_DAC

Snd_LRZ1_Loop00:
	smpsCall            Snd_LRZ1_Call01
	smpsLoop            0x01, 0x02, Snd_LRZ1_Loop00
	.byte	dKickS3, 0x0C, dKickS3, 0x06, dKickS3, 0x06, dSnareS3, 0x0C, dKickS3, 0x0C, dKickS3, 0x06
	.byte	dKickS3, 0x12, dSnareS3, 0x0C, dKickS3, 0x06, dKickS3, 0x12, dKickS3, 0x0C, dSnareS3, 0x06
	.byte	dKickS3, 0x12, dKickS3, 0x12, dSnareS3, 0x06, dSnareS3, 0x06, dSnareS3, 0x06, dSnareS3, 0x0C

Snd_LRZ1_Loop01:
	smpsCall            Snd_LRZ1_Call02
	smpsLoop            0x01, 0x02, Snd_LRZ1_Loop01
	smpsJump            Snd_LRZ1_DAC

/*  Unreachable */
	smpsStop
	smpsStop

/*  FM1 Data */
Snd_LRZ1_FM1:
	smpsSetvoice        0x22
	smpsAlterNote       0x00
	smpsModSet          0x0F, 0x01, 0x03, 0x06

Snd_LRZ1_Jump02:
	.byte	nA1, 0x04, nRst, 0x08, nG1, 0x02, nRst, 0x04, nA1, 0x44, nRst, 0x0A
	.byte	nF1, 0x04, nRst, 0x08, nF1, 0x02, nRst, 0x04, nF1, 0x04, nRst, 0x08
	.byte	nF1, 0x04, nRst, 0x08, nG1, 0x2E, nRst, 0x08, nA1, 0x04, nRst, 0x08
	.byte	nG1, 0x02, nRst, 0x04, nA1, 0x42, nRst, 0x0C, nF1, 0x04, nRst, 0x08
	.byte	nF1, 0x02, nRst, 0x04, nF1, 0x04, nRst, 0x08, nF1, 0x04, nRst, 0x08
	.byte	nG1, 0x2E, nRst, 0x08, nA1, 0x04, nRst, 0x08, nG1, 0x02, nRst, 0x04
	.byte	nA1, 0x44, nRst, 0x0A, nF1, 0x04, nRst, 0x08, nF1, 0x02, nRst, 0x04
	.byte	nF1, 0x04, nRst, 0x08, nF1, 0x04, nRst, 0x08, nG1, 0x2A, nRst, 0x0C
	.byte	nA1, 0x04, nRst, 0x08, nG1, 0x02, nRst, 0x04, nA1, 0x42, nRst, 0x0C
	.byte	nF1, 0x04, nRst, 0x08, nF1, 0x02, nRst, 0x04, nF1, 0x04, nRst, 0x08
	.byte	nF1, 0x04, nRst, 0x08, nG1, 0x2C, nRst, 0x0A, nA1, 0x04, nRst, 0x08
	.byte	nG1, 0x04, nRst, 0x02, nA1, 0x46, nRst, 0x08, nF1, 0x04, nRst, 0x08
	.byte	nF1, 0x02, nRst, 0x04, nF1, 0x04, nRst, 0x08, nF1, 0x04, nRst, 0x08
	.byte	nG1, 0x2E, nRst, 0x08, nA1, 0x04, nRst, 0x08, nG1, 0x04, nRst, 0x02
	.byte	nA1, 0x44, nRst, 0x0A, nF1, 0x04, nRst, 0x08, nF1, 0x02, nRst, 0x04
	.byte	nF1, 0x04, nRst, 0x08, nF1, 0x04, nRst, 0x08, nG1, 0x2C, nRst, 0x0A
	.byte	nF1, 0x04, nRst, 0x02, nF1, 0x04, nRst, 0x02, nF1, 0x04, nRst, 0x02
	.byte	nF1, 0x06, nF1, 0x02, nRst, 0x46, nG1, 0x04, nRst, 0x02, nG1, 0x04
	.byte	nRst, 0x02, nG1, 0x04, nRst, 0x02, nG1, 0x04, nRst, 0x02, nG1, 0x04
	.byte	nRst, 0x14, nC2, 0x10, nRst, 0x08, nG1, 0x0E, nRst, 0x0A, nA1, 0x04
	.byte	nRst, 0x08, nG1, 0x02, nRst, 0x04, nA1, 0x08, nRst, 0x0A, nC2, 0x04
	.byte	nRst, 0x08, nB1, 0x02, nRst, 0x04, nC2, 0x08, nRst, 0x0A, nD2, 0x04
	.byte	nRst, 0x08, nC2, 0x02, nRst, 0x04, nD2, 0x08, nRst, 0x0A, nE2, 0x04
	.byte	nRst, 0x08, nD2, 0x02, nRst, 0x04, nE2, 0x08, nRst, 0x0A, nG2, 0x16
	.byte	nRst, 0x02, nG1, 0x16, nRst, 0x02, nA1, 0x02, nRst, 0x0A, nA1, 0x04
	.byte	nRst, 0x02, nA1, 0x08, nRst, 0x0A, nC2, 0x04, nRst, 0x08, nC2, 0x06
	.byte	nC2, 0x04, nRst, 0x0E, nD2, 0x04, nRst, 0x02, nC2, 0x06, nA1, 0x02
	.byte	nRst, 0x0A, nG1, 0x06, nRst, 0x0C, nG1, 0x06, nRst, 0x0C, nA1, 0x24
	.byte	nRst, 0x18, nA1, 0x04, nRst, 0x08, nA1, 0x04, nRst, 0x02, nA1, 0x06
	.byte	nRst, 0x0C, nC2, 0x06, nRst, 0x06, nC2, 0x04, nRst, 0x02, nC2, 0x04
	.byte	nRst, 0x0E, nD2, 0x02, nRst, 0x04, nC2, 0x06, nA1, 0x04, nRst, 0x08
	.byte	nG1, 0x06, nRst, 0x0C, nG1, 0x06, nRst, 0x0C, nA1, 0x36, nRst, 0x06
	smpsJump            Snd_LRZ1_Jump02

/*  Unreachable */
	smpsStop

/*  FM2 Data */
Snd_LRZ1_FM2:
	smpsPan             panLeft, 0x00
	smpsSetvoice        0x0C
	smpsAlterNote       0xFE
	smpsModSet          0x0F, 0x01, 0x06, 0x06

Snd_LRZ1_Jump01:
	smpsCall            Snd_LRZ1_Call03
	smpsSetvoice        0x0C
	smpsAlterNote       0xFE
	smpsModSet          0x0F, 0x01, 0x06, 0x06
	smpsCall            Snd_LRZ1_Call04
	smpsSetvoice        0x0C
	smpsAlterNote       0xFE
	smpsModSet          0x0F, 0x01, 0x06, 0x06
	smpsCall            Snd_LRZ1_Call05
	smpsJump            Snd_LRZ1_Jump01

Snd_LRZ1_Call03:
	.byte	nRst, 0x60, nRst, 0x60, nRst, 0x60, nRst, 0x54, nD4, 0x06, nEb4, 0x06
	.byte	nE4, 0x12, nG4, 0x04, nRst, 0x0E, nC4, 0x22, nRst, 0x02, nE4, 0x04
	.byte	nRst, 0x08, nA3, 0x10, nRst, 0x02, nC4, 0x04, nRst, 0x02, nE4, 0x48
	.byte	nD4, 0x06, nEb4, 0x06, nE4, 0x12, nG4, 0x04, nRst, 0x0E, nC4, 0x20
	.byte	nRst, 0x04, nE4, 0x04, nRst, 0x08, nD4, 0x12, nC4, 0x06, nA3, 0x48
	smpsReturn

Snd_LRZ1_Call04:
	.byte	nD4, 0x06, nEb4, 0x06, nE4, 0x12, nG4, 0x04, nRst, 0x0E, nC4, 0x22
	.byte	nRst, 0x02, nE4, 0x04, nRst, 0x08, nA3, 0x12, nC4, 0x06, nE4, 0x48
	.byte	nD4, 0x06, nEb4, 0x06, nE4, 0x10, nRst, 0x02, nG4, 0x04, nRst, 0x0E
	.byte	nC4, 0x24, nE4, 0x04, nRst, 0x08, nD4, 0x12, nC4, 0x06, nA3, 0x48
	.byte	nE4, 0x06, nF4, 0x06, nG4, 0x24, nC4, 0x36, nRst, 0x06, nG4, 0x18
	.byte	nA4, 0x04, nRst, 0x08, nG4, 0x38, nRst, 0x10, nA4, 0x0C, nG4, 0x06
	.byte	nRst, 0x06, nA4, 0x04, nRst, 0x08, nC5, 0x10, nRst, 0x02, nB4, 0x04
	.byte	nRst, 0x0C, nA4, 0x06, nRst, 0x08, nB4, 0x10, nRst, 0x02, nC5, 0x04
	.byte	nRst, 0x0E, nD5, 0x04, nRst, 0x08, nC5, 0x16, nRst, 0x02, nB4, 0x16
	.byte	nRst, 0x02
	smpsReturn

Snd_LRZ1_Call05:
	.byte	nE5, 0x0C, nA4, 0x06, nE5, 0x04, nRst, 0x0E, nA4, 0x22, nRst, 0x02
	.byte	nC5, 0x14, nRst, 0x04, nB4, 0x06, nRst, 0x06, nB4, 0x04, nRst, 0x02
	.byte	nD5, 0x06, nRst, 0x06, nB4, 0x04, nRst, 0x02, nC5, 0x32, nRst, 0x0A
	.byte	nE5, 0x0C, nA4, 0x04, nRst, 0x02, nE5, 0x06, nRst, 0x0C, nA4, 0x22
	.byte	nRst, 0x02, nC5, 0x14, nRst, 0x04, nB4, 0x06, nRst, 0x06, nB4, 0x04
	.byte	nRst, 0x02, nD5, 0x06, nRst, 0x06, nB4, 0x04, nRst, 0x02, nC5, 0x26
	.byte	nRst, 0x16
	smpsReturn

/*  Unreachable */
	smpsStop

/*  FM3 Data */
Snd_LRZ1_FM3:
	.byte	nRst, 0x02
	smpsSetvoice        0x0C
	smpsAlterNote       0x02
	smpsModSet          0x0F, 0x01, 0x06, 0x06
	smpsPan             panRight, 0x00

Snd_LRZ1_Jump00:
	smpsCall            Snd_LRZ1_Call03
	smpsSetvoice        0x0C
	smpsAlterNote       0x02
	smpsModSet          0x0F, 0x01, 0x06, 0x06
	smpsPan             panRight, 0x00
	smpsCall            Snd_LRZ1_Call04
	smpsSetvoice        0x0C
	smpsAlterNote       0x02
	smpsModSet          0x0F, 0x01, 0x06, 0x06
	smpsPan             panRight, 0x00
	smpsCall            Snd_LRZ1_Call05
	smpsJump            Snd_LRZ1_Jump00

/*  Unreachable */
	smpsStop

/*  FM4 Data */
Snd_LRZ1_FM4:
	smpsSetvoice        0x06
	smpsAlterNote       0x01
	smpsModSet          0x0A, 0x01, 0x03, 0x06
	.byte	nA2, 0x0A, nRst, 0x02, nC3, 0x04, nRst, 0x02, nA2, 0x0A, nRst, 0x02
	.byte	nB2, 0x0A, nRst, 0x02, nG2, 0x0C, nA2, 0x0A, nRst, 0x02, nG2, 0x06
	.byte	nF2, 0x08, nRst, 0x04, nE2, 0x04, nRst, 0x08, nA2, 0x0C, nC3, 0x04
	.byte	nRst, 0x02, nA2, 0x0C, nB2, 0x0A, nRst, 0x02, nG2, 0x0A, nRst, 0x02
	.byte	nA2, 0x0A, nRst, 0x02, nD2, 0x06, nG2, 0x0C, nE2, 0x04, nRst, 0x08
	.byte	nA2, 0x0A, nRst, 0x02, nC3, 0x04, nRst, 0x02, nA2, 0x0C, nB2, 0x0A
	.byte	nRst, 0x02, nG2, 0x0A, nRst, 0x02, nA2, 0x0A, nRst, 0x02, nG2, 0x06
	.byte	nF2, 0x0C, nE2, 0x04, nRst, 0x08, nA2, 0x0C, nC3, 0x04, nRst, 0x02
	.byte	nA2, 0x0C, nB2, 0x0A, nRst, 0x02, nG2, 0x0A, nRst, 0x02, nA2, 0x0A
	.byte	nRst, 0x02, nD2, 0x06, nG2, 0x0C, nE2, 0x04, nRst, 0x08, nA2, 0x0A
	.byte	nRst, 0x02, nC3, 0x04, nRst, 0x02, nA2, 0x0A, nRst, 0x02, nB2, 0x0A
	.byte	nRst, 0x02, nG2, 0x0C, nA2, 0x0A, nRst, 0x02, nG2, 0x06, nF2, 0x08
	.byte	nRst, 0x04, nE2, 0x04, nRst, 0x08, nA2, 0x0C, nC3, 0x04, nRst, 0x02
	.byte	nA2, 0x0C, nB2, 0x0A, nRst, 0x02, nG2, 0x0A, nRst, 0x02, nA2, 0x0A
	.byte	nRst, 0x02, nD2, 0x06, nG2, 0x0C, nE2, 0x04, nRst, 0x08, nA2, 0x0A
	.byte	nRst, 0x02, nC3, 0x04, nRst, 0x02, nA2, 0x0C, nB2, 0x0A, nRst, 0x02
	.byte	nG2, 0x0A, nRst, 0x02, nA2, 0x0A, nRst, 0x02, nG2, 0x06, nF2, 0x0C
	.byte	nE2, 0x04, nRst, 0x08, nA2, 0x0C, nC3, 0x04, nRst, 0x02, nA2, 0x0C
	.byte	nB2, 0x0A, nRst, 0x02, nG2, 0x0A, nRst, 0x02, nA2, 0x0A, nRst, 0x02
	.byte	nD2, 0x06, nG2, 0x0C, nE2, 0x04, nRst, 0x08, nA2, 0x0A, nRst, 0x02
	.byte	nC3, 0x04, nRst, 0x02, nA2, 0x0A, nRst, 0x02, nB2, 0x0A, nRst, 0x02
	.byte	nG2, 0x0C, nA2, 0x0A, nRst, 0x02, nG2, 0x06, nF2, 0x08, nRst, 0x04
	.byte	nE2, 0x04, nRst, 0x08, nA2, 0x0C, nC3, 0x04, nRst, 0x02, nA2, 0x0C
	.byte	nB2, 0x0A, nRst, 0x02, nG2, 0x0A, nRst, 0x02, nA2, 0x0A, nRst, 0x02
	.byte	nD2, 0x06, nG2, 0x0C, nE2, 0x04, nRst, 0x08, nA2, 0x0A, nRst, 0x02
	.byte	nC3, 0x04, nRst, 0x02, nA2, 0x0C, nB2, 0x0A, nRst, 0x02, nG2, 0x0A
	.byte	nRst, 0x02, nA2, 0x0A, nRst, 0x02, nG2, 0x06, nF2, 0x0C, nE2, 0x04
	.byte	nRst, 0x08, nA2, 0x0C, nC3, 0x04, nRst, 0x02, nA2, 0x0C, nB2, 0x0A
	.byte	nRst, 0x02, nG2, 0x0A, nRst, 0x02, nA2, 0x0A, nRst, 0x02, nD2, 0x06
	.byte	nG2, 0x0C, nE2, 0x04, nRst, 0x08
	smpsSetvoice        0x06
	smpsAlterNote       0x03
	smpsModSet          0x00, 0x01, 0x03, 0x06
	.byte	nF3, 0x04, nRst, 0x02, nF3, 0x04, nRst, 0x02, nF3, 0x04, nRst, 0x02
	.byte	nF3, 0x04, nRst, 0x1A, nA3, 0x02, nB3, 0x02, nC4, 0x0E, nC4, 0x12
	.byte	nE4, 0x06, nRst, 0x06, nG3, 0x04, nRst, 0x02, nG3, 0x04, nRst, 0x02
	.byte	nG3, 0x04, nRst, 0x02, nG3, 0x04, nRst, 0x1C, nG3, 0x14, nRst, 0x02
	.byte	nD4, 0x10, nRst, 0x14, nA3, 0x0C, nG3, 0x06, nRst, 0x06, nA3, 0x04
	.byte	nRst, 0x08, nC4, 0x10, nRst, 0x02, nB3, 0x04, nRst, 0x0C, nA3, 0x06
	.byte	nRst, 0x08, nB3, 0x10, nRst, 0x02, nC4, 0x04, nRst, 0x0E, nD4, 0x04
	.byte	nRst, 0x08, nE4, 0x16, nRst, 0x02, nB3, 0x16, nRst, 0x02
	smpsSetvoice        0x0D
	smpsAlterNote       0x01
	smpsModSet          0x0F, 0x01, 0x06, 0x04
	smpsFMAlterVol      0x04
	.byte	nE3, 0x0C, nA2, 0x04, nRst, 0x02, nE3, 0x04, nRst, 0x0E, nA2, 0x24
	.byte	nC3, 0x16, nRst, 0x02, nB2, 0x06, nRst, 0x06, nB2, 0x04, nRst, 0x02
	.byte	nD3, 0x06, nRst, 0x0C, nC3, 0x36, nRst, 0x06, nE3, 0x0C, nA2, 0x04
	.byte	nRst, 0x02, nE3, 0x04, nRst, 0x0E, nA2, 0x24, nC3, 0x16, nRst, 0x02
	.byte	nB2, 0x06, nRst, 0x06, nB2, 0x04, nRst, 0x02, nD3, 0x06, nRst, 0x06
	.byte	nB2, 0x04, nRst, 0x02, nC3, 0x3C
	smpsFMAlterVol      0xFC
	smpsJump            Snd_LRZ1_FM4

/*  Unreachable */
	smpsStop

/*  FM5 Data */
Snd_LRZ1_FM5:
	smpsSetvoice        0x0B
	smpsAlterNote       0xFF
	smpsModSet          0x0A, 0x01, 0x03, 0x06
	.byte	nA3, 0x0A, nRst, 0x02, nC4, 0x04, nRst, 0x02, nA3, 0x0A, nRst, 0x02
	.byte	nB3, 0x0A, nRst, 0x02, nG3, 0x0C, nA3, 0x0A, nRst, 0x02, nG3, 0x06
	.byte	nF3, 0x08, nRst, 0x04, nE3, 0x04, nRst, 0x08, nA3, 0x0C, nC4, 0x04
	.byte	nRst, 0x02, nA3, 0x0C, nB3, 0x0A, nRst, 0x02, nG3, 0x0A, nRst, 0x02
	.byte	nA3, 0x0A, nRst, 0x02, nD3, 0x06, nG3, 0x0C, nE3, 0x04, nRst, 0x08
	.byte	nA3, 0x0A, nRst, 0x02, nC4, 0x04, nRst, 0x02, nA3, 0x0C, nB3, 0x0A
	.byte	nRst, 0x02, nG3, 0x0A, nRst, 0x02, nA3, 0x0A, nRst, 0x02, nG3, 0x08
	.byte	nRst, 0x0A, nE3, 0x04, nRst, 0x08, nA3, 0x0C, nC4, 0x04, nRst, 0x02
	.byte	nA3, 0x0C, nB3, 0x0A, nRst, 0x02, nG3, 0x0A, nRst, 0x02, nA3, 0x0A
	.byte	nRst, 0x02, nD3, 0x06, nG3, 0x0C, nE3, 0x04, nRst, 0x08, nA3, 0x0A
	.byte	nRst, 0x02, nC4, 0x06, nA3, 0x0C, nB3, 0x0C, nG3, 0x0C, nA3, 0x0A
	.byte	nRst, 0x02, nG3, 0x08, nRst, 0x0A, nE3, 0x04, nRst, 0x08, nA3, 0x0A
	.byte	nRst, 0x02, nC4, 0x06, nA3, 0x0C, nB3, 0x0A, nRst, 0x02, nG3, 0x0C
	.byte	nA3, 0x0A, nRst, 0x02, nD3, 0x04, nRst, 0x02, nG3, 0x0C, nE3, 0x04
	.byte	nRst, 0x08, nA3, 0x0A, nRst, 0x02, nC4, 0x06, nA3, 0x0C, nB3, 0x0A
	.byte	nRst, 0x02, nG3, 0x0C, nA3, 0x0A, nRst, 0x02, nG3, 0x08, nRst, 0x0A
	.byte	nE3, 0x04, nRst, 0x08, nA3, 0x0A, nRst, 0x02, nC4, 0x06, nA3, 0x0A
	.byte	nRst, 0x02, nB3, 0x0A, nRst, 0x02, nG3, 0x0C, nA3, 0x0A, nRst, 0x02
	.byte	nD3, 0x06, nG3, 0x0C, nE3, 0x04, nRst, 0x08, nA3, 0x0C, nC4, 0x06
	.byte	nA3, 0x0C, nB3, 0x0C, nG3, 0x0C, nA3, 0x0A, nRst, 0x02, nG3, 0x08
	.byte	nRst, 0x0A, nE3, 0x04, nRst, 0x08, nA3, 0x0C, nC4, 0x06, nA3, 0x0C
	.byte	nB3, 0x0A, nRst, 0x02, nG3, 0x0C, nA3, 0x08, nRst, 0x04, nD3, 0x06
	.byte	nG3, 0x0C, nE3, 0x04, nRst, 0x08, nA3, 0x0C, nC4, 0x06, nA3, 0x0C
	.byte	nB3, 0x0C, nG3, 0x0C, nA3, 0x0A, nRst, 0x02, nG3, 0x08, nRst, 0x0A
	.byte	nE3, 0x04, nRst, 0x08, nA3, 0x0A, nRst, 0x02, nC4, 0x06, nA3, 0x0C
	.byte	nB3, 0x0A, nRst, 0x02, nG3, 0x0C, nA3, 0x0A, nRst, 0x02, nD3, 0x06
	.byte	nG3, 0x0E, nRst, 0x0A
	smpsSetvoice        0x06
	smpsAlterNote       0xFD
	smpsModSet          0x00, 0x01, 0x03, 0x06
	.byte	nC4, 0x04, nRst, 0x02, nC4, 0x04, nRst, 0x02, nC4, 0x04, nRst, 0x02
	.byte	nC4, 0x04, nRst, 0x1A, nF4, 0x02, nG4, 0x02, nA4, 0x0E, nA4, 0x12
	.byte	nC5, 0x06, nB4, 0x02, nA4, 0x02, nG4, 0x02, nD4, 0x04, nRst, 0x02
	.byte	nD4, 0x04, nRst, 0x02, nD4, 0x04, nRst, 0x02, nD4, 0x04, nRst, 0x1A
	.byte	nEb4, 0x02, nE4, 0x14, nRst, 0x02, nB4, 0x10, nB4, 0x02, nA4, 0x02
	.byte	nG4, 0x02, nF4, 0x02, nRst, 0x0C, nC4, 0x0C, nC4, 0x06, nRst, 0x06
	.byte	nC4, 0x04, nRst, 0x08, nE4, 0x10, nRst, 0x02, nE4, 0x04, nRst, 0x0C
	.byte	nE4, 0x06, nRst, 0x08, nF4, 0x10, nRst, 0x02, nF4, 0x04, nRst, 0x0E
	.byte	nF4, 0x04, nRst, 0x08, nG4, 0x16, nRst, 0x02, nD4, 0x16, nRst, 0x02
	smpsSetvoice        0x0D
	smpsAlterNote       0xFF
	smpsModSet          0x0F, 0x01, 0x06, 0x04
	smpsFMAlterVol      0x04
	.byte	nC4, 0x0C, nF3, 0x04, nRst, 0x02, nC4, 0x04, nRst, 0x0E, nF3, 0x24
	.byte	nA3, 0x16, nRst, 0x02, nG3, 0x06, nRst, 0x06, nG3, 0x04, nRst, 0x02
	.byte	nB3, 0x06, nRst, 0x0C, nA3, 0x36, nRst, 0x06, nC4, 0x0C, nF3, 0x04
	.byte	nRst, 0x02, nC4, 0x04, nRst, 0x0E, nF3, 0x24, nA3, 0x16, nRst, 0x02
	.byte	nG3, 0x06, nRst, 0x06, nG3, 0x04, nRst, 0x02, nB3, 0x06, nRst, 0x06
	.byte	nG3, 0x04, nRst, 0x02, nA3, 0x3C
	smpsFMAlterVol      0xFC
	smpsJump            Snd_LRZ1_FM5

/*  Unreachable */
	smpsStop

/*  PSG1 Data */
Snd_LRZ1_PSG1:
	.byte	nRst, 0x01
	smpsPSGvoice        sTone_04
	smpsAlterNote       0xFF

Snd_LRZ1_Jump05:
	smpsCall            Snd_LRZ1_Call06
	.byte	nA3, nA3, nA3, nA3, 0x12, nC4, 0x06, nC4, nC4, nC4, 0x12, nD4
	.byte	0x06, nD4, nC4, 0x0C, nB3, nB3, 0x06, nB3, 0x0C, nB3, 0x06, nC4
	.byte	0x18, nC4, 0x06, nC4, nC4, nC4, nB3, 0x0C, nA3, 0x06, nA3, nA3
	.byte	nA3, nA3, 0x0C, nC4, 0x06, nC4, nC4, nC4, 0x12, nD4, 0x06, nC4
	.byte	nB3, 0x0C, nG3, 0x12, nG3, nA3, 0x3C
	smpsJump            Snd_LRZ1_Jump05

/*  Unreachable */
	smpsStop

Snd_LRZ1_Call06:
	.byte	nA3, 0x06, nA4, 0x0C, nA3, 0x06, nA4, 0x0C, nA3, 0x06, nA4, 0x0C
	.byte	nA3, 0x06, nA4, 0x0C, nA3, nA4, nF3, 0x06, nF4, 0x0C, nF3, 0x06
	.byte	nF4, 0x0C, nF3, 0x06, nG3, 0x0C, nG4, 0x06, nG3, 0x0C, nG4, nG3
	.byte	nA3, 0x06, nA4, 0x0C, nA3, 0x06, nA4, 0x0C, nA3, 0x06, nA4, 0x0C
	.byte	nA3, 0x06, nA4, 0x0C, nA3, nA4, nF3, 0x06, nF4, 0x0C, nF3, 0x06
	.byte	nF4, 0x0C, nF3, 0x06, nG3, 0x0C, nG4, 0x06, nG3, 0x0C, nG4, nG3
	.byte	nA3, 0x06, nA4, 0x0C, nA3, 0x06, nA4, 0x0C, nA3, 0x06, nA4, 0x0C
	.byte	nA3, 0x06, nA4, 0x0C, nA3, nA4, nF3, 0x06, nF4, 0x0C, nF3, 0x06
	.byte	nF4, 0x0C, nF3, 0x06, nG3, 0x0C, nG4, 0x06, nG3, 0x0C, nG4, nG3
	.byte	nA3, 0x06, nA4, 0x0C, nA3, 0x06, nA4, 0x0C, nA3, 0x06, nA4, 0x0C
	.byte	nA3, 0x06, nA4, 0x0C, nA3, nA4, nF3, 0x06, nF4, 0x0C, nF3, 0x06
	.byte	nF4, 0x0C, nF3, 0x06, nG3, 0x0C, nG4, 0x06, nG3, 0x0C, nG4, nG3
	.byte	nA3, 0x06, nA4, 0x0C, nA3, 0x06, nA4, 0x0C, nA3, 0x06, nA4, 0x0C
	.byte	nA3, 0x06, nA4, 0x0C, nA3, nA4, nF3, 0x06, nF4, 0x0C, nF3, 0x06
	.byte	nF4, 0x0C, nF3, 0x06, nG3, 0x0C, nG4, 0x06, nG3, 0x0C, nG4, nG3
	.byte	nA3, 0x06, nA4, 0x0C, nA3, 0x06, nA4, 0x0C, nA3, 0x06, nA4, 0x0C
	.byte	nA3, 0x06, nA4, 0x0C, nA3, nA4, nF3, 0x06, nF4, 0x0C, nF3, 0x06
	.byte	nF4, 0x0C, nF3, 0x06, nG3, 0x0C, nG4, 0x06, nG3, 0x0C, nG4, nG3
	.byte	nF3, nF3, nF3, nC3, 0x06, nF3, 0x0C, nF3, nC3, 0x06, nF3, 0x0C
	.byte	nC3, nG3, nG3, nG3, nD3, 0x06, nG3, 0x0C, nG3, nD3, 0x06, nG3
	.byte	0x0C, nD3, nD3, 0x06, nF3, nA3, nG3, nF3, nE3, nG3, nB3, nD4
	.byte	nC4, nB3, nA3, nA3, nC4, nE4, nD4, nC4, nB3, nB3, nD4, nF4
	.byte	nE4, nD4, nC4, nG4, nF4, nE4, nD4, nE4, nD4, nC4, nG3
	smpsReturn

/*  PSG2 Data */
Snd_LRZ1_PSG2:
	smpsPSGvoice        sTone_04

Snd_LRZ1_Jump04:
	smpsCall            Snd_LRZ1_Call06
	.byte	nC4, 0x0C, nC4, 0x06, nC5, 0x0C, nC4, 0x06, nE4, nE5, 0x0C, nE4
	.byte	0x06, nE4, nE5, nD5, nD5, nC5, 0x0C, nB3, nB3, 0x06, nB4, 0x0C
	.byte	nB3, 0x06, nE4, nE5, 0x0C, nE4, 0x06, nE4, nE4, 0x1E, nC4, 0x0C
	.byte	nC4, 0x06, nC5, 0x0C, nC4, 0x06, nE4, nE5, 0x0C, nE4, 0x06, nE4
	.byte	nE5, nD5, nC5, nA4, 0x0C, nB3, nB3, 0x06, nB4, 0x0C, nB3, 0x06
	.byte	nE4, nE5, 0x0C, nE4, 0x06, nE4, nE4, 0x1E
	smpsJump            Snd_LRZ1_Jump04

/*  Unreachable */
	smpsStop

/*  PSG3 Data */
Snd_LRZ1_PSG3:
	smpsPSGvoice        sTone_02
	smpsPSGform         0xE7

Snd_LRZ1_Jump03:
	.byte	nRst, 0x0C
	smpsPSGvoice        sTone_01
	.byte	nBb6, 0x06, nBb6, 0x5A, nBb6, 0x06, nBb6, 0x3C, nBb6, 0x06
	smpsPSGvoice        sTone_08
	.byte	nBb6, 0x18
	smpsPSGvoice        sTone_01
	.byte	nBb6, 0x06, nBb6, 0x5A, nBb6, 0x06, nBb6, 0x3C, nBb6, 0x06
	smpsPSGvoice        sTone_08
	.byte	nBb6, 0x18
	smpsPSGvoice        sTone_01
	.byte	nBb6, 0x06, nBb6, 0x5A, nBb6, 0x06, nBb6, 0x3C, nBb6, 0x06
	smpsPSGvoice        sTone_08
	.byte	nBb6, 0x18
	smpsPSGvoice        sTone_01
	.byte	nBb6, 0x06, nBb6, 0x5A, nBb6, 0x06, nBb6, 0x3C, nBb6, 0x06
	smpsPSGvoice        sTone_08
	.byte	nBb6, 0x18
	smpsPSGvoice        sTone_01
	.byte	nBb6, 0x06, nBb6, 0x5A, nBb6, 0x06, nBb6, 0x3C, nBb6, 0x06
	smpsPSGvoice        sTone_08
	.byte	nBb6, 0x18
	smpsPSGvoice        sTone_01
	.byte	nBb6, 0x06, nBb6, 0x5A, nBb6, 0x06, nBb6, 0x3C, nBb6, 0x06
	smpsPSGvoice        sTone_08
	.byte	nBb6, 0x48
	smpsPSGvoice        sTone_01
	.byte	nBb6, 0x06, nBb6, 0x12
	smpsPSGvoice        sTone_08
	.byte	nBb6, 0x48
	smpsPSGvoice        sTone_01
	.byte	nBb6, 0x06, nBb6, 0x12
	smpsPSGvoice        sTone_08
	.byte	nBb6, 0x60, 0x60, 0x48
	smpsPSGvoice        sTone_01
	.byte	nBb6, 0x06, nBb6, 0x12
	smpsPSGvoice        sTone_08
	.byte	nBb6, 0x5A
	smpsPSGvoice        sTone_01
	.byte	nBb6, 0x06
	smpsPSGvoice        sTone_08
	.byte	nBb6, 0x5A
	smpsPSGvoice        sTone_01
	.byte	nBb6, 0x06
	smpsPSGvoice        sTone_08
	.byte	nBb6, 0x60, 0x0C
	smpsJump            Snd_LRZ1_Jump03

/*  Unreachable */
	smpsStop
