Snd_LRZ2_Header:
	smpsHeaderStartSong 3
	smpsHeaderVoiceUVB
	smpsHeaderChan      0x06, 0x03
	smpsHeaderTempo     0x01, 0x33

	smpsHeaderDAC       Snd_LRZ2_DAC
	smpsHeaderFM        Snd_LRZ2_FM1,	0x0C, 0x15
	smpsHeaderFM        Snd_LRZ2_FM2,	0x00, 0x11
	smpsHeaderFM        Snd_LRZ2_FM3,	0x0C, 0x18
	smpsHeaderFM        Snd_LRZ2_FM4,	0x0C, 0x15
	smpsHeaderFM        Snd_LRZ2_FM5,	0x0C, 0x1A
	smpsHeaderPSG       Snd_LRZ2_PSG1,	0xF4, 0x04, 0x00, sTone_0C
	smpsHeaderPSG       Snd_LRZ2_PSG2,	0xF4, 0x03, 0x00, sTone_0C
	smpsHeaderPSG       Snd_LRZ2_PSG3,	0x00, 0x02, 0x00, sTone_0C

/*  Unreachable */
	smpsStop
	smpsStop

/*  DAC Data */
Snd_LRZ2_DAC:
	.byte	nRst, 0x18, nRst, 0x0C
	smpsPan             panRight, 0x00
	.byte	dHighTom, 0x0C
	smpsPan             panCenter, 0x00
	.byte	nRst, 0x06
	smpsPan             panCenter, 0x00
	.byte	dLowTomS3, 0x06
	smpsPan             panLeft, 0x00
	.byte	dFloorTomS3, 0x0C
	smpsPan             panCenter, 0x00
	.byte	nRst, 0x18, nRst, 0x18, nRst, 0x0C
	smpsPan             panRight, 0x00
	.byte	dHighTom, 0x0C
	smpsPan             panCenter, 0x00
	.byte	nRst, 0x06
	smpsPan             panCenter, 0x00
	.byte	dLowTomS3, 0x06
	smpsPan             panLeft, 0x00
	.byte	dFloorTomS3, 0x0C
	smpsPan             panCenter, 0x00
	.byte	nRst, 0x18, nRst, 0x18, nRst, 0x0C
	smpsPan             panRight, 0x00
	.byte	dHighTom, 0x0C
	smpsPan             panCenter, 0x00
	.byte	nRst, 0x06
	smpsPan             panCenter, 0x00
	.byte	dLowTomS3, 0x06
	smpsPan             panLeft, 0x00
	.byte	dFloorTomS3, 0x0C
	smpsPan             panCenter, 0x00
	.byte	nRst, 0x18

Snd_LRZ2_Jump00:
	.byte	dKickS3, 0x18, nRst, 0x0C
	smpsPan             panRight, 0x00
	.byte	dHighTom, 0x0C
	smpsPan             panCenter, 0x00
	.byte	nRst, 0x18, nRst, 0x0C, dKickS3, 0x0C, dKickS3, 0x18, nRst, 0x0C
	smpsPan             panRight, 0x00
	.byte	dHighTom, 0x0C
	smpsPan             panCenter, 0x00
	.byte	nRst, 0x18, nRst, 0x0C, dKickS3, 0x0C, dKickS3, 0x18, nRst, 0x0C
	smpsPan             panRight, 0x00
	.byte	dHighTom, 0x0C
	smpsPan             panCenter, 0x00
	.byte	nRst, 0x06
	smpsPan             panCenter, 0x00
	.byte	dLowTomS3, 0x06
	smpsPan             panLeft, 0x00
	.byte	dFloorTomS3, 0x0C
	smpsPan             panCenter, 0x00
	.byte	nRst, 0x0C, dSnareS3, 0x0C, dKickS3, 0x18, nRst, 0x0C
	smpsPan             panRight, 0x00
	.byte	dHighTom, 0x0C
	smpsPan             panCenter, 0x00
	.byte	nRst, 0x18, nRst, 0x0C, dKickS3, 0x0C, dKickS3, 0x12, dKickS3, 0x06, nRst, 0x0C
	smpsPan             panRight, 0x00
	.byte	dHighTom, 0x0C
	smpsPan             panCenter, 0x00
	.byte	nRst, 0x18, nRst, 0x18, dKickS3, 0x12, dKickS3, 0x06, nRst, 0x0C
	smpsPan             panRight, 0x00
	.byte	dHighTom, 0x0C
	smpsPan             panCenter, 0x00
	.byte	nRst, 0x18, nRst, 0x0C, dSnareS3, 0x0C, dKickS3, 0x12, dKickS3, 0x06, nRst, 0x0C
	smpsPan             panRight, 0x00
	.byte	dHighTom, 0x0C
	smpsPan             panCenter, 0x00
	.byte	nRst, 0x06
	smpsPan             panCenter, 0x00
	.byte	dLowTomS3, 0x06
	smpsPan             panLeft, 0x00
	.byte	dFloorTomS3, 0x0C
	smpsPan             panCenter, 0x00
	.byte	nRst, 0x18, dKickS3, 0x12, dKickS3, 0x06, nRst, 0x0C
	smpsPan             panRight, 0x00
	.byte	dHighTom, 0x0C
	smpsPan             panCenter, 0x00
	.byte	nRst, 0x18, nRst, 0x0C, dSnareS3, 0x0C, dKickS3, 0x12, dKickS3, 0x06, nRst, 0x0C
	smpsPan             panRight, 0x00
	.byte	dHighTom, 0x0C
	smpsPan             panCenter, 0x00
	.byte	nRst, 0x18, nRst, 0x18, dKickS3, 0x12, dKickS3, 0x06, nRst, 0x0C
	smpsPan             panRight, 0x00
	.byte	dHighTom, 0x0C
	smpsPan             panCenter, 0x00
	.byte	nRst, 0x18, nRst, 0x0C, dSnareS3, 0x0C, dKickS3, 0x12, dKickS3, 0x06, nRst, 0x0C
	smpsPan             panRight, 0x00
	.byte	dHighTom, 0x0C
	smpsPan             panCenter, 0x00
	.byte	nRst, 0x06
	smpsPan             panCenter, 0x00
	.byte	dLowTomS3, 0x06
	smpsPan             panLeft, 0x00
	.byte	dFloorTomS3, 0x0C
	smpsPan             panCenter, 0x00
	.byte	nRst, 0x18, dKickS3, 0x12, dKickS3, 0x06, nRst, 0x0C
	smpsPan             panRight, 0x00
	.byte	dHighTom, 0x0C
	smpsPan             panCenter, 0x00
	.byte	nRst, 0x18, nRst, 0x0C, dSnareS3, 0x0C, dKickS3, 0x12, dKickS3, 0x06, dSnareS3, 0x0C
	smpsPan             panRight, 0x00
	.byte	dHighTom, 0x0C
	smpsPan             panCenter, 0x00
	.byte	nRst, 0x06, dKickS3, 0x12, nRst, 0x0C, dSnareS3, 0x0C, dKickS3, 0x12, dKickS3, 0x06
	.byte	nRst, 0x0C
	smpsPan             panRight, 0x00
	.byte	dHighTom, 0x0C
	smpsPan             panCenter, 0x00
	.byte	nRst, 0x06
	smpsPan             panCenter, 0x00
	.byte	dLowTomS3, 0x0C
	smpsPan             panLeft, 0x00
	.byte	dFloorTomS3, 0x06
	smpsPan             panCenter, 0x00
	.byte	nRst, 0x0C, dSnareS3, 0x0C, dKickS3, 0x12, dKickS3, 0x06, nRst, 0x0C
	smpsPan             panRight, 0x00
	.byte	dHighTom, 0x0C
	smpsPan             panCenter, 0x00
	.byte	nRst, 0x06, dKickS3, 0x0C, dKickS3, 0x06, nRst, 0x0C, dSnareS3, 0x0C, dKickS3, 0x12
	.byte	dKickS3, 0x06, nRst, 0x0C
	smpsPan             panRight, 0x00
	.byte	dHighTom, 0x0C
	smpsPan             panCenter, 0x00
	.byte	nRst, 0x06
	smpsPan             panCenter, 0x00
	.byte	dLowTomS3, 0x06
	smpsPan             panLeft, 0x00
	.byte	dFloorTomS3, 0x0C
	smpsPan             panCenter, 0x00
	.byte	nRst, 0x0C, dSnareS3, 0x0C, dKickS3, 0x12, dKickS3, 0x06, dSnareS3, 0x0C
	smpsPan             panRight, 0x00
	.byte	dHighTom, 0x0C
	smpsPan             panCenter, 0x00
	.byte	nRst, 0x06, dKickS3, 0x12, nRst, 0x0C, dSnareS3, 0x0C, dKickS3, 0x12, dKickS3, 0x06
	.byte	nRst, 0x0C
	smpsPan             panRight, 0x00
	.byte	dHighTom, 0x0C
	smpsPan             panCenter, 0x00
	.byte	nRst, 0x06
	smpsPan             panCenter, 0x00
	.byte	dLowTomS3, 0x06
	smpsPan             panLeft, 0x00
	.byte	dFloorTomS3, 0x0C
	smpsPan             panCenter, 0x00
	.byte	nRst, 0x0C, dSnareS3, 0x0C, dKickS3, 0x12, dKickS3, 0x06, nRst, 0x0C
	smpsPan             panRight, 0x00
	.byte	dHighTom, 0x0C
	smpsPan             panCenter, 0x00
	.byte	nRst, 0x06, dKickS3, 0x0C, dKickS3, 0x06, nRst, 0x0C, dSnareS3, 0x0C, dKickS3, 0x12
	.byte	dKickS3, 0x06, nRst, 0x0C
	smpsPan             panRight, 0x00
	.byte	dHighTom, 0x0C
	smpsPan             panCenter, 0x00
	.byte	nRst, 0x06
	smpsPan             panCenter, 0x00
	.byte	dLowTomS3, 0x06
	smpsPan             panLeft, 0x00
	.byte	dFloorTomS3, 0x0C
	smpsPan             panCenter, 0x00
	.byte	nRst, 0x0C, dSnareS3, 0x06, nRst, 0x06
	smpsJump            Snd_LRZ2_Jump00

/*  Unreachable */
	smpsStop

/*  FM1 Data */
Snd_LRZ2_FM1:
	smpsPan             panRight, 0x00
	smpsSetvoice        0x04
	smpsAlterNote       0x05
	smpsModSet          0x0A, 0x01, 0x06, 0x06

Snd_LRZ2_Jump03:
	.byte	nA4, 0x18, smpsNoAttack, 0x18, smpsNoAttack, 0x18, nF4, 0x18, smpsNoAttack, 0x18, smpsNoAttack, 0x18
	.byte	nG4, 0x18, smpsNoAttack, 0x18, smpsNoAttack, 0x18, nE4, 0x18, smpsNoAttack, 0x18, smpsNoAttack, 0x18

Snd_LRZ2_Jump05:
	.byte	nA4, 0x18, smpsNoAttack, 0x18, smpsNoAttack, 0x18, smpsNoAttack, 0x18, smpsNoAttack, 0x18, smpsNoAttack, 0x18
	.byte	smpsNoAttack, 0x18, smpsNoAttack, 0x18, nRst, 0x18, nRst, 0x18, nRst, 0x18, nRst, 0x18
	.byte	nRst, 0x18, nRst, 0x18, nRst, 0x18, nA4, 0x18, nG4, 0x18, smpsNoAttack, 0x18
	.byte	smpsNoAttack, 0x0C, nC5, 0x0C, smpsNoAttack, 0x0C, nB4, 0x0C, nG4, 0x18, smpsNoAttack, 0x18
	.byte	nRst, 0x18, nRst, 0x18, nG4, 0x18, smpsNoAttack, 0x18, smpsNoAttack, 0x0C, nC5, 0x0C
	.byte	smpsNoAttack, 0x0C, nB4, 0x0C, nG4, 0x18, smpsNoAttack, 0x18, smpsNoAttack, 0x18, nRst, 0x18
	.byte	nG4, 0x18, smpsNoAttack, 0x18, smpsNoAttack, 0x0C, nB4, 0x0C, smpsNoAttack, 0x0C, nC5, 0x0C
	.byte	nD5, 0x18, smpsNoAttack, 0x18, smpsNoAttack, 0x18, smpsNoAttack, 0x18, nG4, 0x18, smpsNoAttack, 0x18
	.byte	smpsNoAttack, 0x0C, nC5, 0x0C, smpsNoAttack, 0x0C, nB4, 0x0C, nG4, 0x18, smpsNoAttack, 0x18
	.byte	nRst, 0x18, nRst, 0x18, nRst, 0x18, nRst, 0x18, nRst, 0x18, nRst, 0x18
	.byte	nRst, 0x18, nRst, 0x18, nRst, 0x18, nRst, 0x18, nE5, 0x18, smpsNoAttack, 0x0C
	.byte	nA4, 0x0C, smpsNoAttack, 0x18, nC5, 0x18, nB4, 0x18, smpsNoAttack, 0x18, smpsNoAttack, 0x18
	.byte	smpsNoAttack, 0x0C, nG4, 0x0C, nA4, 0x18, smpsNoAttack, 0x18, smpsNoAttack, 0x0C, nRst, 0x0C
	.byte	nRst, 0x18, nRst, 0x18, nRst, 0x18, nRst, 0x18, nRst, 0x18, nE5, 0x18
	.byte	smpsNoAttack, 0x0C, nA4, 0x0C, smpsNoAttack, 0x18, nC5, 0x18, nB4, 0x18, smpsNoAttack, 0x18
	.byte	smpsNoAttack, 0x18, smpsNoAttack, 0x18
	smpsJump            Snd_LRZ2_Jump05

/*  Unreachable */
	smpsStop

/*  FM2 Data */
Snd_LRZ2_FM2:
	smpsSetvoice        0x03
	smpsAlterNote       0x00
	smpsModSet          0x03, 0x01, 0x02, 0x05
	.byte	nF2, 0x48, nCs2, nEb2, nC2

Snd_LRZ2_Jump04:
	smpsSetvoice        0x0B
	smpsAlterNote       0x00
	smpsModSet          0x0F, 0x01, 0x06, 0x06
	smpsFMAlterVol      0x08
	.byte	nG2, 0x06, nA2, nC3, nA2, nD3, nA2, nE3, nA2, nG3, nD3, nA3
	.byte	nC4, nG3, nD3, nE3, nG3, nG2, nA2, nC3, nA2, nD3, nA2, nE3
	.byte	nA2, nG3, nD3, nA3, nE3, nG3, nE3, nD3, nE3, nG2, nA2, nC3
	.byte	nA2, nD3, nA2, nE3, nA2, nG3, nD3, nA3, nC4, nG3, nD3, nE3
	.byte	nG3, nG2, nA2, nC3, nA2, nD3, nA2, nE3, nA2, nG3, nD3, nA3
	.byte	nE3
	smpsSetvoice        0x03
	smpsAlterNote       0x00
	smpsModSet          0x03, 0x01, 0x02, 0x05
	smpsFMAlterVol      0xF8
	.byte	nE2, 0x18, nA2, 0x0A, nRst, 0x02, nA2, nRst, 0x04, nA2, 0x48, nRst
	.byte	0x06, nA2, 0x0A, nRst, 0x02, nA2, nRst, 0x04, nA3, 0x48, nRst, 0x06
	.byte	nA2, 0x0A, nRst, 0x02, nA2, nRst, 0x04, nA2, 0x48, nRst, 0x06, nA2
	.byte	0x0A, nRst, 0x02, nA2, nRst, 0x04, nA3, 0x48, nRst, 0x06, nF2, 0x0A
	.byte	nRst, 0x02, nF2, nRst, 0x04, nF2, 0x48, nRst, 0x06, nF2, 0x0A, nRst
	.byte	0x02, nF2, nRst, 0x04, nF3, 0x48, nRst, 0x06, nF2, 0x0A, nRst, 0x02
	.byte	nF2, nRst, 0x04, nF2, 0x48, nRst, 0x06, nF2, 0x0A, nRst, 0x02, nF2
	.byte	nRst, 0x04, nF3, 0x30
	smpsSetvoice        0x14
	smpsAlterNote       0x00
	smpsModSet          0x02, 0x01, 0x01, 0x02
	smpsFMAlterVol      0xFC
	.byte	nF3, 0x0C, nC3, nG2, 0x06, nA2, 0x0A, nRst, 0x02, nA2, nRst, 0x04
	.byte	nA2, 0x30, nG2, 0x0C, nG2, 0x02, nRst, 0x04, nAb2, 0x0C, nA2, 0x0A
	.byte	nRst, 0x02, nA2, nRst, 0x04, nA3, 0x3A, nRst, 0x02, nG3, nRst, 0x04
	.byte	nE3, 0x0C, nA2, 0x0A, nRst, 0x02, nA2, nRst, 0x04, nA2, 0x2E, nRst
	.byte	0x02, nG2, 0x0C, nG2, 0x02, nRst, 0x04, nAb2, 0x0C, nA2, 0x0A, nRst
	.byte	0x02, nA2, nRst, 0x04, nA3, 0x3A, nRst, 0x02, nG3, nRst, 0x04, nE3
	.byte	0x0C, nA2, 0x0A, nRst, 0x02, nA2, nRst, 0x04, nA2, 0x2E, nRst, 0x02
	.byte	nG2, 0x0C, nG2, 0x02, nRst, 0x04, nAb2, 0x0C, nA2, 0x0A, nRst, 0x02
	.byte	nA2, nRst, 0x04, nA3, 0x2E, nRst, 0x02, nA3, 0x0C, nE3, 0x0C, nG2
	.byte	0x06, nA2, 0x0A, nRst, 0x02, nA2, nRst, 0x04, nA2, 0x2E, nRst, 0x02
	.byte	nG2, 0x0C, nG2, 0x02, nRst, 0x04, nAb2, 0x0C, nA2, 0x0A, nRst, 0x02
	.byte	nA2, nRst, 0x04, nA3, 0x3A, nRst, 0x02, nG3, nRst, 0x04, nE3, 0x0C
	smpsFMAlterVol      0x04
	smpsJump            Snd_LRZ2_Jump04

/*  Unreachable */
	smpsStop

/*  FM3 Data */
Snd_LRZ2_FM3:
	.byte	nRst, 0x07
	smpsPan             panLeft, 0x00
	smpsSetvoice        0x1F
	smpsAlterNote       0x01
	smpsModSet          0x0F, 0x01, 0x06, 0x06
	smpsJump            Snd_LRZ2_Jump03

/*  Unreachable */
	smpsStop

/*  FM4 Data */
Snd_LRZ2_FM4:
	smpsAlterNote       0x01
	smpsSetvoice        0x0B
	smpsAlterNote       0x00
	smpsModSet          0x0F, 0x01, 0x06, 0x06
	.byte	nF4, 0x06, nG4, 0x06, nF4, 0x06, nG4, 0x06, nF4, 0x06, nG4, 0x06
	.byte	nF4, 0x06, nG4, 0x06, nF4, 0x06, nG4, 0x06, nF4, 0x06, nG4, 0x06
	.byte	nCs4, 0x06, nEb4, 0x06, nCs4, 0x06, nEb4, 0x06, nCs4, 0x06, nEb4, 0x06
	.byte	nCs4, 0x06, nEb4, 0x06, nCs4, 0x06, nEb4, 0x06, nCs4, 0x06, nEb4, 0x06
	.byte	nEb4, 0x06, nF4, 0x06, nEb4, 0x06, nF4, 0x06, nEb4, 0x06, nF4, 0x06
	.byte	nEb4, 0x06, nF4, 0x06, nEb4, 0x06, nF4, 0x06, nEb4, 0x06, nF4, 0x06
	.byte	nC4, 0x06, nD4, 0x06, nC4, 0x06, nD4, 0x06, nC4, 0x06, nD4, 0x06
	.byte	nC4, 0x06, nD4, 0x06, nC4, 0x06, nD4, 0x06, nC4, 0x06, nD4, 0x06

Snd_LRZ2_Jump02:
	.byte	nG2, 0x06, nA2, 0x06, nC3, 0x06, nA2, 0x06, nD3, 0x06, nA2, 0x06
	.byte	nE3, 0x06, nA2, 0x06, nG3, 0x06, nD3, 0x06, nA3, 0x06, nC4, 0x06
	.byte	nG3, 0x06, nD3, 0x06, nE3, 0x06, nG3, 0x06, nG2, 0x06, nA2, 0x06
	.byte	nC3, 0x06, nA2, 0x06, nD3, 0x06, nA2, 0x06, nE3, 0x06, nA2, 0x06
	.byte	nG3, 0x06, nD3, 0x06, nA3, 0x06, nE3, 0x06, nG3, 0x06, nE3, 0x06
	.byte	nD3, 0x06, nE3, 0x06, nG2, 0x06, nA2, 0x06, nC3, 0x06, nA2, 0x06
	.byte	nD3, 0x06, nA2, 0x06, nE3, 0x06, nA2, 0x06, nG3, 0x06, nD3, 0x06
	.byte	nA3, 0x06, nC4, 0x06, nG3, 0x06, nD3, 0x06, nE3, 0x06, nG3, 0x06
	.byte	nG2, 0x06, nA2, 0x06, nC3, 0x06, nA2, 0x06, nD3, 0x06, nA2, 0x06
	.byte	nE3, 0x06, nA2, 0x06, nG3, 0x06, nD3, 0x06, nA3, 0x06, nE3, 0x06
	.byte	nG3, 0x06, nE3, 0x06, nD3, 0x06, nE3, 0x06, nG2, 0x06, nA2, 0x06
	.byte	nC3, 0x06, nA2, 0x06, nD3, 0x06, nA2, 0x06, nE3, 0x06, nA2, 0x06
	.byte	nG3, 0x06, nD3, 0x06, nA3, 0x06, nC4, 0x06, nG3, 0x06, nD3, 0x06
	.byte	nE3, 0x06, nG3, 0x06, nG2, 0x06, nA2, 0x06, nC3, 0x06, nA2, 0x06
	.byte	nD3, 0x06, nA2, 0x06, nE3, 0x06, nA2, 0x06, nG3, 0x06, nD3, 0x06
	.byte	nA3, 0x06, nE3, 0x06, nG3, 0x06, nE3, 0x06, nD3, 0x06, nE3, 0x06
	.byte	nG2, 0x06, nA2, 0x06, nC3, 0x06, nA2, 0x06, nD3, 0x06, nA2, 0x06
	.byte	nE3, 0x06, nA2, 0x06, nG3, 0x06, nD3, 0x06, nA3, 0x06, nC4, 0x06
	.byte	nG3, 0x06, nD3, 0x06, nE3, 0x06, nG3, 0x06, nG2, 0x06, nA2, 0x06
	.byte	nC3, 0x06, nA2, 0x06, nD3, 0x06, nA2, 0x06, nE3, 0x06, nA2, 0x06
	.byte	nG3, 0x06, nD3, 0x06, nA3, 0x06, nE3, 0x06, nG3, 0x06, nE3, 0x06
	.byte	nD3, 0x06, nE3, 0x06, nG2, 0x06, nA2, 0x06, nC3, 0x06, nA2, 0x06
	.byte	nD3, 0x06, nA2, 0x06, nE3, 0x06, nA2, 0x06, nG3, 0x06, nD3, 0x06
	.byte	nA3, 0x06, nC4, 0x06, nG3, 0x06, nD3, 0x06, nE3, 0x06, nG3, 0x06
	.byte	nG2, 0x06, nA2, 0x06, nC3, 0x06, nA2, 0x06, nD3, 0x06, nA2, 0x06
	.byte	nE3, 0x06, nA2, 0x06, nG3, 0x06, nD3, 0x06, nA3, 0x06, nE3, 0x06
	.byte	nG3, 0x06, nE3, 0x06, nD3, 0x06, nE3, 0x06, nG2, 0x06, nA2, 0x06
	.byte	nC3, 0x06, nA2, 0x06, nD3, 0x06, nA2, 0x06, nE3, 0x06, nA2, 0x06
	.byte	nG3, 0x06, nD3, 0x06, nA3, 0x06, nC4, 0x06, nG3, 0x06, nD3, 0x06
	.byte	nE3, 0x06, nG3, 0x06, nG2, 0x06, nA2, 0x06, nC3, 0x06, nA2, 0x06
	.byte	nD3, 0x06, nA2, 0x06, nE3, 0x06, nA2, 0x06, nG3, 0x06, nD3, 0x06
	.byte	nA3, 0x06, nE3, 0x06, nG3, 0x06, nE3, 0x06, nD3, 0x06, nE3, 0x06
	.byte	nG2, 0x06, nA2, 0x06, nC3, 0x06, nA2, 0x06, nD3, 0x06, nA2, 0x06
	.byte	nE3, 0x06, nA2, 0x06, nG3, 0x06, nD3, 0x06, nA3, 0x06, nC4, 0x06
	.byte	nG3, 0x06, nD3, 0x06, nE3, 0x06, nG3, 0x06, nG2, 0x06, nA2, 0x06
	.byte	nC3, 0x06, nA2, 0x06, nD3, 0x06, nA2, 0x06, nE3, 0x06, nA2, 0x06
	.byte	nG3, 0x06, nD3, 0x06, nA3, 0x06, nE3, 0x06, nG3, 0x06, nE3, 0x06
	.byte	nD3, 0x06, nE3, 0x06, nG2, 0x06, nA2, 0x06, nC3, 0x06, nA2, 0x06
	.byte	nD3, 0x06, nA2, 0x06, nE3, 0x06, nA2, 0x06, nG3, 0x06, nD3, 0x06
	.byte	nA3, 0x06, nC4, 0x06, nG3, 0x06, nD3, 0x06, nE3, 0x06, nG3, 0x06
	.byte	nG2, 0x06, nA2, 0x06, nC3, 0x06, nA2, 0x06, nD3, 0x06, nA2, 0x06
	.byte	nE3, 0x06, nA2, 0x06, nG3, 0x06, nD3, 0x06, nA3, 0x06, nE3, 0x06
	.byte	nG3, 0x06, nE3, 0x06, nD3, 0x06, nE3, 0x06, nG2, 0x06, nA2, 0x06
	.byte	nC3, 0x06, nA2, 0x06, nD3, 0x06, nA2, 0x06, nE3, 0x06, nA2, 0x06
	.byte	nG3, 0x06, nD3, 0x06, nA3, 0x06, nC4, 0x06, nG3, 0x06, nD3, 0x06
	.byte	nE3, 0x06, nG3, 0x06, nG2, 0x06, nA2, 0x06, nC3, 0x06, nA2, 0x06
	.byte	nD3, 0x06, nA2, 0x06, nE3, 0x06, nA2, 0x06, nG3, 0x06, nD3, 0x06
	.byte	nA3, 0x06, nE3, 0x06, nG3, 0x06, nE3, 0x06, nD3, 0x06, nE3, 0x06
	.byte	nG2, 0x06, nA2, 0x06, nC3, 0x06, nA2, 0x06, nD3, 0x06, nA2, 0x06
	.byte	nE3, 0x06, nA2, 0x06, nG3, 0x06, nD3, 0x06, nA3, 0x06, nC4, 0x06
	.byte	nG3, 0x06, nD3, 0x06, nE3, 0x06, nG3, 0x06, nG2, 0x06, nA2, 0x06
	.byte	nC3, 0x06, nA2, 0x06, nD3, 0x06, nA2, 0x06, nE3, 0x06, nA2, 0x06
	.byte	nG3, 0x06, nD3, 0x06, nA3, 0x06, nE3, 0x06, nG3, 0x06, nE3, 0x06
	.byte	nD3, 0x06, nE3, 0x06
	smpsJump            Snd_LRZ2_Jump02

/*  Unreachable */
	smpsStop

/*  FM5 Data */
Snd_LRZ2_FM5:
	smpsPan             panRight, 0x00
	smpsAlterNote       0xFF
	smpsSetvoice        0x08
	smpsAlterNote       0xFF
	smpsModSet          0x0F, 0x01, 0x06, 0x06
	.byte	nC3, 0x06, nF3, 0x06, nA3, 0x06, nC4, 0x06, nF4, 0x06, nA4, 0x06
	.byte	nC5, 0x06, nA4, 0x06, nF4, 0x06, nC4, 0x06, nA3, 0x06, nF3, 0x06
	.byte	nAb2, 0x06, nCs3, 0x06, nF3, 0x06, nAb3, 0x06, nCs4, 0x06, nF4, 0x06
	.byte	nAb4, 0x06, nF4, 0x06, nCs4, 0x06, nAb3, 0x06, nF3, 0x06, nCs3, 0x06
	.byte	nBb2, 0x06, nEb3, 0x06, nG3, 0x06, nBb3, 0x06, nEb4, 0x06, nG4, 0x06
	.byte	nBb4, 0x06, nG4, 0x06, nEb4, 0x06, nBb3, 0x06, nG3, 0x06, nEb3, 0x06
	.byte	nG2, 0x06, nC3, 0x06, nE3, 0x06, nG3, 0x06, nC4, 0x06, nE4, 0x06
	.byte	nG4, 0x06, nE4, 0x06, nC4, 0x06, nG3, 0x06, nE3, 0x06, nC3, 0x06

Snd_LRZ2_Jump01:
	smpsSetvoice        0x0B
	smpsAlterNote       0x00
	smpsModSet          0x0F, 0x01, 0x06, 0x06
	.byte	nA4, 0x06, nA5, 0x06, nRst, 0x06, nA4, 0x06, nRst, 0x06, nA4, 0x06
	.byte	nA5, 0x06, nA4, 0x06, nRst, 0x06, nE5, 0x06, nA4, 0x06, nD5, 0x06
	.byte	nA4, 0x06, nG4, 0x06, nE5, 0x06, nG5, 0x06, nA4, 0x06, nA5, 0x06
	.byte	nRst, 0x06, nA4, 0x06, nRst, 0x06, nA4, 0x06, nA5, 0x06, nA4, 0x06
	.byte	nRst, 0x06, nE5, 0x06, nA4, 0x06, nD5, 0x06, nA4, 0x06, nG4, 0x06
	.byte	nE5, 0x06, nG5, 0x06
	smpsSetvoice        0x08
	smpsAlterNote       0xFF
	smpsModSet          0x0F, 0x01, 0x06, 0x06
	.byte	nA4, 0x04, nRst, 0x08, nC5, 0x04, nRst, 0x02, nA4, 0x04, nRst, 0x02
	.byte	nRst, 0x06, nB4, 0x04, nRst, 0x08, nG4, 0x04, nRst, 0x02, nRst, 0x06
	.byte	nA4, 0x04, nRst, 0x08, nG4, 0x04, nRst, 0x02, nF4, 0x04, nRst, 0x08
	.byte	nE4, 0x04, nRst, 0x08, nA4, 0x04, nRst, 0x08, nC5, 0x04, nRst, 0x02
	.byte	nA4, 0x04, nRst, 0x02, nRst, 0x06, nB4, 0x04, nRst, 0x08, nG4, 0x04
	.byte	nRst, 0x02, nRst, 0x06, nA4, 0x04, nRst, 0x08, nD4, 0x04, nRst, 0x02
	.byte	nG4, 0x04, nRst, 0x08, nE4, 0x04, nRst, 0x08, nA4, 0x04, nRst, 0x08
	.byte	nC5, 0x04, nRst, 0x02, nA4, 0x04, nRst, 0x02, nRst, 0x06, nB4, 0x04
	.byte	nRst, 0x08, nG4, 0x04, nRst, 0x02, nRst, 0x06, nA4, 0x04, nRst, 0x08
	.byte	nG4, 0x04, nRst, 0x02, nF4, 0x04, nRst, 0x08, nE4, 0x04, nRst, 0x08
	.byte	nA4, 0x04, nRst, 0x08, nC5, 0x04, nRst, 0x02, nA4, 0x04, nRst, 0x02
	.byte	nRst, 0x06, nB4, 0x04, nRst, 0x08, nG4, 0x04, nRst, 0x02, nRst, 0x06
	.byte	nA4, 0x04, nRst, 0x08, nD4, 0x04, nRst, 0x02, nG4, 0x04, nRst, 0x08
	.byte	nE4, 0x04, nRst, 0x08, nA4, 0x04, nRst, 0x08, nC5, 0x04, nRst, 0x02
	.byte	nA4, 0x04, nRst, 0x02, nRst, 0x06, nB4, 0x04, nRst, 0x08, nG4, 0x04
	.byte	nRst, 0x02, nRst, 0x06, nA4, 0x04, nRst, 0x08, nG4, 0x04, nRst, 0x02
	.byte	nF4, 0x04, nRst, 0x08, nE4, 0x04, nRst, 0x08, nA4, 0x04, nRst, 0x08
	.byte	nC5, 0x04, nRst, 0x02, nA4, 0x04, nRst, 0x02, nRst, 0x06, nB4, 0x04
	.byte	nRst, 0x08, nG4, 0x04, nRst, 0x02, nRst, 0x06, nA4, 0x04, nRst, 0x08
	.byte	nD4, 0x04, nRst, 0x02, nG4, 0x04, nRst, 0x08, nE4, 0x04, nRst, 0x08
	.byte	nA4, 0x04, nRst, 0x08, nC5, 0x04, nRst, 0x02, nA4, 0x04, nRst, 0x02
	.byte	nRst, 0x06, nB4, 0x04, nRst, 0x08, nG4, 0x04, nRst, 0x02, nRst, 0x06
	.byte	nA4, 0x04, nRst, 0x08, nG4, 0x04, nRst, 0x02, nF4, 0x04, nRst, 0x08
	.byte	nE4, 0x04, nRst, 0x08, nA4, 0x04, nRst, 0x08, nC5, 0x04, nRst, 0x02
	.byte	nA4, 0x04, nRst, 0x02, nRst, 0x06, nB4, 0x04, nRst, 0x08, nG4, 0x04
	.byte	nRst, 0x02, nRst, 0x06, nA4, 0x04, nRst, 0x08, nD4, 0x04, nRst, 0x02
	.byte	nG4, 0x04, nRst, 0x08, nE4, 0x04, nRst, 0x08, nA4, 0x04, nRst, 0x08
	.byte	nC5, 0x04, nRst, 0x02, nA4, 0x04, nRst, 0x02, nRst, 0x06, nB4, 0x04
	.byte	nRst, 0x08, nG4, 0x04, nRst, 0x02, nRst, 0x06, nA4, 0x04, nRst, 0x08
	.byte	nG4, 0x04, nRst, 0x02, nF4, 0x04, nRst, 0x08, nE4, 0x04, nRst, 0x08
	.byte	nA4, 0x04, nRst, 0x08, nC5, 0x04, nRst, 0x02, nA4, 0x04, nRst, 0x02
	.byte	nRst, 0x06, nB4, 0x04, nRst, 0x08, nG4, 0x04, nRst, 0x02, nRst, 0x06
	.byte	nA4, 0x04, nRst, 0x08, nD4, 0x04, nRst, 0x02, nG4, 0x04, nRst, 0x08
	.byte	nE4, 0x04, nRst, 0x08, nA4, 0x04, nRst, 0x08, nC5, 0x04, nRst, 0x02
	.byte	nA4, 0x04, nRst, 0x02, nRst, 0x06, nB4, 0x04, nRst, 0x08, nG4, 0x04
	.byte	nRst, 0x02, nRst, 0x06, nA4, 0x04, nRst, 0x08, nG4, 0x04, nRst, 0x02
	.byte	nA4, 0x04, nRst, 0x08, nE4, 0x04, nRst, 0x08, nA4, 0x04, nRst, 0x08
	.byte	nC5, 0x04, nRst, 0x02, nA4, 0x04, nRst, 0x02, nRst, 0x06, nB4, 0x04
	.byte	nRst, 0x08, nG4, 0x04, nRst, 0x02, nRst, 0x06, nA4, 0x04, nRst, 0x08
	.byte	nD4, 0x04, nRst, 0x02, nG4, 0x04, nRst, 0x08, nE4, 0x04, nRst, 0x08
	.byte	nA4, 0x04, nRst, 0x08, nC5, 0x04, nRst, 0x02, nA4, 0x04, nRst, 0x02
	.byte	nRst, 0x06, nB4, 0x04, nRst, 0x08, nG4, 0x04, nRst, 0x02, nRst, 0x06
	.byte	nA4, 0x04, nRst, 0x08, nG4, 0x04, nRst, 0x02, nA4, 0x04, nRst, 0x08
	.byte	nE4, 0x04, nRst, 0x08, nA4, 0x04, nRst, 0x08, nC5, 0x04, nRst, 0x02
	.byte	nA4, 0x04, nRst, 0x02, nRst, 0x06, nB4, 0x04, nRst, 0x08, nG4, 0x04
	.byte	nRst, 0x02, nRst, 0x06, nA4, 0x04, nRst, 0x08, nD4, 0x04, nRst, 0x02
	.byte	nG4, 0x04, nRst, 0x08, nE4, 0x04, nRst, 0x08, nA4, 0x04, nRst, 0x08
	.byte	nC5, 0x04, nRst, 0x02, nA4, 0x04, nRst, 0x02, nRst, 0x06, nB4, 0x04
	.byte	nRst, 0x08, nG4, 0x04, nRst, 0x02, nRst, 0x06, nA4, 0x04, nRst, 0x08
	.byte	nG4, 0x04, nRst, 0x02, nA4, 0x04, nRst, 0x08, nE4, 0x04, nRst, 0x08
	.byte	nA4, 0x04, nRst, 0x08, nC5, 0x04, nRst, 0x02, nA4, 0x04, nRst, 0x02
	.byte	nRst, 0x06, nB4, 0x04, nRst, 0x08, nG4, 0x04, nRst, 0x02, nRst, 0x06
	.byte	nA4, 0x04, nRst, 0x08, nD4, 0x04, nRst, 0x02, nG4, 0x04, nRst, 0x08
	.byte	nE4, 0x04, nRst, 0x08, nA4, 0x04, nRst, 0x08, nC5, 0x04, nRst, 0x02
	.byte	nA4, 0x04, nRst, 0x02, nRst, 0x06, nB4, 0x04, nRst, 0x08, nG4, 0x04
	.byte	nRst, 0x02, nRst, 0x06, nA4, 0x04, nRst, 0x08, nG4, 0x04, nRst, 0x02
	.byte	nA4, 0x04, nRst, 0x08, nE4, 0x04, nRst, 0x08, nA4, 0x04, nRst, 0x08
	.byte	nC5, 0x04, nRst, 0x02, nA4, 0x04, nRst, 0x02, nRst, 0x06, nB4, 0x04
	.byte	nRst, 0x08, nG4, 0x04, nRst, 0x02, nRst, 0x06, nA4, 0x04, nRst, 0x08
	.byte	nD4, 0x04, nRst, 0x02, nG4, 0x04, nRst, 0x08, nE4, 0x04, nRst, 0x08
	smpsJump            Snd_LRZ2_Jump01

/*  Unreachable */
	smpsStop

/*  PSG1 Data */
Snd_LRZ2_PSG1:
	smpsPSGvoice        sTone_0A
	.byte	nC3, 0x06, nF3, 0x06, nA3, 0x06, nC4, 0x06, nF4, 0x06, nA4, 0x06
	.byte	nC5, 0x06, nA4, 0x06, nF4, 0x06, nC4, 0x06, nA3, 0x06, nF3, 0x06
	.byte	nAb2, 0x06, nCs3, 0x06, nF3, 0x06, nAb3, 0x06, nCs4, 0x06, nF4, 0x06
	.byte	nAb4, 0x06, nF4, 0x06, nCs4, 0x06, nAb3, 0x06, nF3, 0x06, nCs3, 0x06
	.byte	nBb2, 0x06, nEb3, 0x06, nG3, 0x06, nBb3, 0x06, nEb4, 0x06, nG4, 0x06
	.byte	nBb4, 0x06, nG4, 0x06, nEb4, 0x06, nBb3, 0x06, nG3, 0x06, nEb3, 0x06
	.byte	nG2, 0x06, nC3, 0x06, nE3, 0x06, nG3, 0x06, nC4, 0x06, nE4, 0x06
	.byte	nG4, 0x06, nE4, 0x06, nC4, 0x06, nG3, 0x06, nE3, 0x06, nC3, 0x06

Snd_LRZ2_Jump08:
	.byte	nA4, 0x06, nA5, 0x06, nRst, 0x06, nA4, 0x06, nRst, 0x06, nA4, 0x06
	.byte	nA5, 0x06, nA4, 0x06, nRst, 0x06, nE5, 0x06, nA4, 0x06, nD5, 0x06
	.byte	nA4, 0x06, nG4, 0x06, nE5, 0x06, nG5, 0x06, nA4, 0x06, nA5, 0x06
	.byte	nRst, 0x06, nA4, 0x06, nRst, 0x06, nA4, 0x06, nA5, 0x06, nA4, 0x06
	.byte	nRst, 0x06, nE5, 0x06, nA4, 0x06, nD5, 0x06, nA4, 0x06, nG4, 0x06
	.byte	nE5, 0x06, nG5, 0x06, nA4, 0x04, nRst, 0x08, nC5, 0x04, nRst, 0x02
	.byte	nA4, 0x04, nRst, 0x02, nRst, 0x06, nB4, 0x04, nRst, 0x08, nG4, 0x04
	.byte	nRst, 0x02, nRst, 0x06, nA4, 0x04, nRst, 0x08, nG4, 0x04, nRst, 0x02
	.byte	nF4, 0x04, nRst, 0x08, nE4, 0x04, nRst, 0x08, nA4, 0x04, nRst, 0x08
	.byte	nC5, 0x04, nRst, 0x02, nA4, 0x04, nRst, 0x02, nRst, 0x06, nB4, 0x04
	.byte	nRst, 0x08, nG4, 0x04, nRst, 0x02, nRst, 0x06, nA4, 0x04, nRst, 0x08
	.byte	nD4, 0x04, nRst, 0x02, nG4, 0x04, nRst, 0x08, nE4, 0x04, nRst, 0x08
	.byte	nA4, 0x04, nRst, 0x08, nC5, 0x04, nRst, 0x02, nA4, 0x04, nRst, 0x02
	.byte	nRst, 0x06, nB4, 0x04, nRst, 0x08, nG4, 0x04, nRst, 0x02, nRst, 0x06
	.byte	nA4, 0x04, nRst, 0x08, nG4, 0x04, nRst, 0x02, nF4, 0x04, nRst, 0x08
	.byte	nE4, 0x04, nRst, 0x08, nA4, 0x04, nRst, 0x08, nC5, 0x04, nRst, 0x02
	.byte	nA4, 0x04, nRst, 0x02, nRst, 0x06, nB4, 0x04, nRst, 0x08, nG4, 0x04
	.byte	nRst, 0x02, nRst, 0x06, nA4, 0x04, nRst, 0x08, nD4, 0x04, nRst, 0x02
	.byte	nG4, 0x04, nRst, 0x08, nE4, 0x04, nRst, 0x08, nA4, 0x04, nRst, 0x08
	.byte	nC5, 0x04, nRst, 0x02, nA4, 0x04, nRst, 0x02, nRst, 0x06, nB4, 0x04
	.byte	nRst, 0x08, nG4, 0x04, nRst, 0x02, nRst, 0x06, nA4, 0x04, nRst, 0x08
	.byte	nG4, 0x04, nRst, 0x02, nF4, 0x04, nRst, 0x08, nE4, 0x04, nRst, 0x08
	.byte	nA4, 0x04, nRst, 0x08, nC5, 0x04, nRst, 0x02, nA4, 0x04, nRst, 0x02
	.byte	nRst, 0x06, nB4, 0x04, nRst, 0x08, nG4, 0x04, nRst, 0x02, nRst, 0x06
	.byte	nA4, 0x04, nRst, 0x08, nD4, 0x04, nRst, 0x02, nG4, 0x04, nRst, 0x08
	.byte	nE4, 0x04, nRst, 0x08, nA4, 0x04, nRst, 0x08, nC5, 0x04, nRst, 0x02
	.byte	nA4, 0x04, nRst, 0x02, nRst, 0x06, nB4, 0x04, nRst, 0x08, nG4, 0x04
	.byte	nRst, 0x02, nRst, 0x06, nA4, 0x04, nRst, 0x08, nG4, 0x04, nRst, 0x02
	.byte	nF4, 0x04, nRst, 0x08, nE4, 0x04, nRst, 0x08, nA4, 0x04, nRst, 0x08
	.byte	nC5, 0x04, nRst, 0x02, nA4, 0x04, nRst, 0x02, nRst, 0x06, nB4, 0x04
	.byte	nRst, 0x08, nG4, 0x04, nRst, 0x02, nRst, 0x06, nA4, 0x04, nRst, 0x08
	.byte	nD4, 0x04, nRst, 0x02, nG4, 0x04, nRst, 0x08, nE4, 0x04, nRst, 0x08
	.byte	nA4, 0x04, nRst, 0x08, nC5, 0x04, nRst, 0x02, nA4, 0x04, nRst, 0x02
	.byte	nRst, 0x06, nB4, 0x04, nRst, 0x08, nG4, 0x04, nRst, 0x02, nRst, 0x06
	.byte	nA4, 0x04, nRst, 0x08, nG4, 0x04, nRst, 0x02, nF4, 0x04, nRst, 0x08
	.byte	nE4, 0x04, nRst, 0x08, nA4, 0x04, nRst, 0x08, nC5, 0x04, nRst, 0x02
	.byte	nA4, 0x04, nRst, 0x02, nRst, 0x06, nB4, 0x04, nRst, 0x08, nG4, 0x04
	.byte	nRst, 0x02, nRst, 0x06, nA4, 0x04, nRst, 0x08, nD4, 0x04, nRst, 0x02
	.byte	nG4, 0x04, nRst, 0x08, nE4, 0x04, nRst, 0x08, nA4, 0x04, nRst, 0x08
	.byte	nC5, 0x04, nRst, 0x02, nA4, 0x04, nRst, 0x02, nRst, 0x06, nB4, 0x04
	.byte	nRst, 0x08, nG4, 0x04, nRst, 0x02, nRst, 0x06, nA4, 0x04, nRst, 0x08
	.byte	nG4, 0x04, nRst, 0x02, nA4, 0x04, nRst, 0x08, nE4, 0x04, nRst, 0x08
	.byte	nA4, 0x04, nRst, 0x08, nC5, 0x04, nRst, 0x02, nA4, 0x04, nRst, 0x02
	.byte	nRst, 0x06, nB4, 0x04, nRst, 0x08, nG4, 0x04, nRst, 0x02, nRst, 0x06
	.byte	nA4, 0x04, nRst, 0x08, nD4, 0x04, nRst, 0x02, nG4, 0x04, nRst, 0x08
	.byte	nE4, 0x04, nRst, 0x08, nA4, 0x04, nRst, 0x08, nC5, 0x04, nRst, 0x02
	.byte	nA4, 0x04, nRst, 0x02, nRst, 0x06, nB4, 0x04, nRst, 0x08, nG4, 0x04
	.byte	nRst, 0x02, nRst, 0x06, nA4, 0x04, nRst, 0x08, nG4, 0x04, nRst, 0x02
	.byte	nA4, 0x04, nRst, 0x08, nE4, 0x04, nRst, 0x08, nA4, 0x04, nRst, 0x08
	.byte	nC5, 0x04, nRst, 0x02, nA4, 0x04, nRst, 0x02, nRst, 0x06, nB4, 0x04
	.byte	nRst, 0x08, nG4, 0x04, nRst, 0x02, nRst, 0x06, nA4, 0x04, nRst, 0x08
	.byte	nD4, 0x04, nRst, 0x02, nG4, 0x04, nRst, 0x08, nE4, 0x04, nRst, 0x08
	.byte	nA4, 0x04, nRst, 0x08, nC5, 0x04, nRst, 0x02, nA4, 0x04, nRst, 0x02
	.byte	nRst, 0x06, nB4, 0x04, nRst, 0x08, nG4, 0x04, nRst, 0x02, nRst, 0x06
	.byte	nA4, 0x04, nRst, 0x08, nG4, 0x04, nRst, 0x02, nA4, 0x04, nRst, 0x08
	.byte	nE4, 0x04, nRst, 0x08, nA4, 0x04, nRst, 0x08, nC5, 0x04, nRst, 0x02
	.byte	nA4, 0x04, nRst, 0x02, nRst, 0x06, nB4, 0x04, nRst, 0x08, nG4, 0x04
	.byte	nRst, 0x02, nRst, 0x06, nA4, 0x04, nRst, 0x08, nD4, 0x04, nRst, 0x02
	.byte	nG4, 0x04, nRst, 0x08, nE4, 0x04, nRst, 0x08, nA4, 0x04, nRst, 0x08
	.byte	nC5, 0x04, nRst, 0x02, nA4, 0x04, nRst, 0x02, nRst, 0x06, nB4, 0x04
	.byte	nRst, 0x08, nG4, 0x04, nRst, 0x02, nRst, 0x06, nA4, 0x04, nRst, 0x08
	.byte	nG4, 0x04, nRst, 0x02, nA4, 0x04, nRst, 0x08, nE4, 0x04, nRst, 0x08
	.byte	nA4, 0x04, nRst, 0x08, nC5, 0x04, nRst, 0x02, nA4, 0x04, nRst, 0x02
	.byte	nRst, 0x06, nB4, 0x04, nRst, 0x08, nG4, 0x04, nRst, 0x02, nRst, 0x06
	.byte	nA4, 0x04, nRst, 0x08, nD4, 0x04, nRst, 0x02, nG4, 0x04, nRst, 0x08
	.byte	nE4, 0x04, nRst, 0x08
	smpsJump            Snd_LRZ2_Jump08

/*  Unreachable */
	smpsStop

/*  PSG2 Data */
Snd_LRZ2_PSG2:
	smpsPSGvoice        sTone_08
	.byte	nF4, 0x06, nG4, 0x06, nF4, 0x06, nG4, 0x06, nF4, 0x06, nG4, 0x06
	.byte	nF4, 0x06, nG4, 0x06, nF4, 0x06, nG4, 0x06, nF4, 0x06, nG4, 0x06
	.byte	nCs4, 0x06, nEb4, 0x06, nCs4, 0x06, nEb4, 0x06, nCs4, 0x06, nEb4, 0x06
	.byte	nCs4, 0x06, nEb4, 0x06, nCs4, 0x06, nEb4, 0x06, nCs4, 0x06, nEb4, 0x06
	.byte	nEb4, 0x06, nF4, 0x06, nEb4, 0x06, nF4, 0x06, nEb4, 0x06, nF4, 0x06
	.byte	nEb4, 0x06, nF4, 0x06, nEb4, 0x06, nF4, 0x06, nEb4, 0x06, nF4, 0x06
	.byte	nC4, 0x06, nD4, 0x06, nC4, 0x06, nD4, 0x06, nC4, 0x06, nD4, 0x06
	.byte	nC4, 0x06, nD4, 0x06, nC4, 0x06, nD4, 0x06, nC4, 0x06, nD4, 0x06

Snd_LRZ2_Jump07:
	.byte	nG2, 0x06, nA2, 0x06, nC3, 0x06, nA2, 0x06, nD3, 0x06, nA2, 0x06
	.byte	nE3, 0x06, nA2, 0x06, nG3, 0x06, nD3, 0x06, nA3, 0x06, nC4, 0x06
	.byte	nG3, 0x06, nD3, 0x06, nE3, 0x06, nG3, 0x06, nG2, 0x06, nA2, 0x06
	.byte	nC3, 0x06, nA2, 0x06, nD3, 0x06, nA2, 0x06, nE3, 0x06, nA2, 0x06
	.byte	nG3, 0x06, nD3, 0x06, nA3, 0x06, nE3, 0x06, nG3, 0x06, nE3, 0x06
	.byte	nD3, 0x06, nE3, 0x06, nG2, 0x06, nA2, 0x06, nC3, 0x06, nA2, 0x06
	.byte	nD3, 0x06, nA2, 0x06, nE3, 0x06, nA2, 0x06, nG3, 0x06, nD3, 0x06
	.byte	nA3, 0x06, nC4, 0x06, nG3, 0x06, nD3, 0x06, nE3, 0x06, nG3, 0x06
	.byte	nG2, 0x06, nA2, 0x06, nC3, 0x06, nA2, 0x06, nD3, 0x06, nA2, 0x06
	.byte	nE3, 0x06, nA2, 0x06, nG3, 0x06, nD3, 0x06, nA3, 0x06, nE3, 0x06
	.byte	nG3, 0x06, nE3, 0x06, nD3, 0x06, nE3, 0x06, nA3, 0x06, nRst, 0x06
	.byte	nA3, 0x06, nA4, 0x06, nRst, 0x18, nA3, 0x06, nA3, 0x06, nRst, 0x06
	.byte	nA3, 0x06, nRst, 0x18, nA3, 0x06, nRst, 0x06, nA3, 0x06, nA4, 0x06
	.byte	nRst, 0x18, nA3, 0x06, nA3, 0x06, nRst, 0x06, nA3, 0x06, nRst, 0x18
	.byte	nA3, 0x06, nRst, 0x06, nA3, 0x06, nA4, 0x06, nRst, 0x18, nA3, 0x06
	.byte	nA3, 0x06, nRst, 0x06, nA3, 0x06, nRst, 0x18, nA3, 0x06, nRst, 0x06
	.byte	nA3, 0x06, nA4, 0x06, nRst, 0x18, nA3, 0x06, nA3, 0x06, nRst, 0x06
	.byte	nA3, 0x06, nRst, 0x18, nA3, 0x06, nRst, 0x06, nA3, 0x06, nA4, 0x06
	.byte	nRst, 0x18, nA3, 0x06, nA3, 0x06, nRst, 0x06, nA3, 0x06, nRst, 0x18
	.byte	nA3, 0x06, nRst, 0x06, nA3, 0x06, nA4, 0x06, nRst, 0x18, nA3, 0x06
	.byte	nA3, 0x06, nRst, 0x06, nA3, 0x06, nRst, 0x18, nA3, 0x06, nRst, 0x06
	.byte	nA3, 0x06, nA4, 0x06, nRst, 0x18, nA3, 0x06, nA3, 0x06, nRst, 0x06
	.byte	nA3, 0x06, nRst, 0x18, nA3, 0x06, nRst, 0x06, nA3, 0x06, nA4, 0x06
	.byte	nRst, 0x18, nA3, 0x06, nA3, 0x06, nRst, 0x06, nA3, 0x06, nRst, 0x18
	.byte	nRst, 0x06, nA4, 0x04, nRst, 0x02, nA5, 0x04, nRst, 0x02, nA5, 0x04
	.byte	nRst, 0x02, nRst, 0x06, nA4, 0x04, nRst, 0x02, nA5, 0x04, nRst, 0x02
	.byte	nA5, 0x04, nRst, 0x02, nRst, 0x18, nRst, 0x18, nRst, 0x06, nA4, 0x04
	.byte	nRst, 0x02, nA5, 0x04, nRst, 0x02, nA5, 0x04, nRst, 0x02, nRst, 0x06
	.byte	nA4, 0x04, nRst, 0x02, nA5, 0x04, nRst, 0x02, nA5, 0x04, nRst, 0x02
	.byte	nRst, 0x18, nRst, 0x18, nRst, 0x06, nA4, 0x04, nRst, 0x02, nA5, 0x04
	.byte	nRst, 0x02, nA5, 0x04, nRst, 0x02, nRst, 0x06, nA4, 0x04, nRst, 0x02
	.byte	nA5, 0x04, nRst, 0x02, nA5, 0x04, nRst, 0x02, nRst, 0x18, nRst, 0x18
	.byte	nRst, 0x06, nA4, 0x04, nRst, 0x02, nA5, 0x04, nRst, 0x02, nA5, 0x04
	.byte	nRst, 0x02, nRst, 0x06, nA4, 0x04, nRst, 0x02, nA5, 0x04, nRst, 0x02
	.byte	nA5, 0x04, nRst, 0x02, nRst, 0x18, nRst, 0x18, nRst, 0x06, nA4, 0x04
	.byte	nRst, 0x02, nA5, 0x04, nRst, 0x02, nA5, 0x04, nRst, 0x02, nRst, 0x06
	.byte	nA4, 0x04, nRst, 0x02, nA5, 0x04, nRst, 0x02, nA5, 0x04, nRst, 0x02
	.byte	nRst, 0x18, nRst, 0x18, nRst, 0x06, nA4, 0x04, nRst, 0x02, nA5, 0x04
	.byte	nRst, 0x02, nA5, 0x04, nRst, 0x02, nRst, 0x06, nA4, 0x04, nRst, 0x02
	.byte	nA5, 0x04, nRst, 0x02, nA5, 0x04, nRst, 0x02, nRst, 0x18, nRst, 0x18
	.byte	nRst, 0x06, nA4, 0x04, nRst, 0x02, nA5, 0x04, nRst, 0x02, nA5, 0x04
	.byte	nRst, 0x02, nRst, 0x06, nA4, 0x04, nRst, 0x02, nA5, 0x04, nRst, 0x02
	.byte	nA5, 0x04, nRst, 0x02, nRst, 0x18, nRst, 0x18, nRst, 0x06, nA4, 0x04
	.byte	nRst, 0x02, nA5, 0x04, nRst, 0x02, nA5, 0x04, nRst, 0x02, nRst, 0x06
	.byte	nA4, 0x04, nRst, 0x02, nA5, 0x04, nRst, 0x02, nA5, 0x04, nRst, 0x02
	.byte	nRst, 0x18, nRst, 0x18
	smpsJump            Snd_LRZ2_Jump07

/*  Unreachable */
	smpsStop

/*  PSG3 Data */
Snd_LRZ2_PSG3:
	smpsPSGvoice        sTone_02
	smpsPSGform         0xE7
	.byte	nRst, 0x54
	smpsPSGvoice        sTone_08
	.byte	nMaxPSG1, 0x60, nMaxPSG1, 0x60, nMaxPSG1, 0x0C

Snd_LRZ2_Jump06:
	smpsPSGvoice        sTone_01
	.byte	nMaxPSG1, 0x04, nMaxPSG1, 0x04, nMaxPSG1, 0x04
	smpsPSGvoice        sTone_08
	.byte	nMaxPSG1, 0x54
	smpsPSGvoice        sTone_01
	.byte	nMaxPSG1, 0x0C, nMaxPSG1, 0x0C, nMaxPSG1, 0x48, nMaxPSG1, 0x04, nMaxPSG1, 0x04, nMaxPSG1, 0x04
	smpsPSGvoice        sTone_08
	.byte	nMaxPSG1, 0x48, nMaxPSG1, 0x60, 0x60, nMaxPSG1, 0x0C
	smpsPSGvoice        sTone_01
	.byte	nMaxPSG1, 0x0C, nMaxPSG1, 0x0C, nMaxPSG1, 0x3C
	smpsPSGvoice        sTone_08
	.byte	nMaxPSG1, 0x60, nMaxPSG1, 0x60, nMaxPSG1, 0x60, nMaxPSG1, 0x0C
	smpsPSGvoice        sTone_01
	.byte	nMaxPSG1, 0x0C, nMaxPSG1, 0x0C, nMaxPSG1, 0x3C
	smpsPSGvoice        sTone_08
	.byte	nMaxPSG1, 0x60, nMaxPSG1, 0x60, nMaxPSG1, 0x0C
	smpsPSGvoice        sTone_01
	.byte	nMaxPSG1, 0x04, nMaxPSG1, 0x04, nMaxPSG1, 0x04
	smpsPSGvoice        sTone_08
	.byte	nMaxPSG1, 0x0C, nMaxPSG1, 0x3C, nMaxPSG1, 0x0C
	smpsPSGvoice        sTone_01
	.byte	nMaxPSG1, 0x0C, nMaxPSG1, 0x0C, nMaxPSG1, 0x3C
	smpsPSGvoice        sTone_08
	.byte	nMaxPSG1, 0x60, nMaxPSG1, 0x18
	smpsPSGvoice        sTone_01
	.byte	nMaxPSG1, 0x06, nMaxPSG1, 0x42
	smpsPSGvoice        sTone_08
	.byte	nMaxPSG1, 0x24, nMaxPSG1, 0x3C, nMaxPSG1, 0x0C
	smpsPSGvoice        sTone_01
	.byte	nMaxPSG1, 0x0C, nMaxPSG1, 0x0C, nMaxPSG1, 0x3C
	smpsPSGvoice        sTone_08
	.byte	nMaxPSG1, 0x60, nMaxPSG1, 0x18
	smpsPSGvoice        sTone_01
	.byte	nMaxPSG1, 0x06, nMaxPSG1, 0x42
	smpsPSGvoice        sTone_08
	.byte	nMaxPSG1, 0x0C
	smpsJump            Snd_LRZ2_Jump06

/*  Unreachable */
	smpsStop
