Snd_MGZ1_Header:
	smpsHeaderStartSong 3
	smpsHeaderVoice     Snd_MGZ1_Voices
	smpsHeaderChan      0x06, 0x03
	smpsHeaderTempo     0x01, 0x40

	smpsHeaderDAC       Snd_MGZ1_DAC
	smpsHeaderFM        Snd_MGZ1_FM1,	0x00, 0x0C
	smpsHeaderFM        Snd_MGZ1_FM2,	0x00, 0x0D
	smpsHeaderFM        Snd_MGZ1_FM3,	0x00, 0x0D
	smpsHeaderFM        Snd_MGZ1_FM4,	0x00, 0x0D
	smpsHeaderFM        Snd_MGZ1_FM5,	0x00, 0x12
	smpsHeaderPSG       Snd_MGZ1_PSG1,	0xE8, 0x02, 0x00, 0x00
	smpsHeaderPSG       Snd_MGZ1_PSG2,	0xE8, 0x02, 0x00, 0x00
	smpsHeaderPSG       Snd_MGZ1_PSG3,	0xE8, 0x02, 0x00, 0x00

/*  FM1 Data */
Snd_MGZ1_FM1:
	smpsSetvoice        0x01
	smpsModSet          0x0D, 0x01, 0x02, 0x06
	smpsPan             panCenter, 0x00

Snd_MGZ1_Loop04:
	.byte	nCs2, 0x08, nCs3, 0x04, nB2, 0x08, nRst, 0x04, nB2, 0x08, nRst, 0x04
	.byte	nBb2, 0x08, nB2, 0x06, nRst, 0x2E, nFs2, 0x08, nFs3, 0x04, nE3, 0x08
	.byte	nRst, 0x04, nE3, 0x08, nRst, 0x04, nEb3, 0x08, nE3, 0x06, nRst, 0x16
	.byte	nFs2, 0x18
	smpsLoop            0x00, 0x0A, Snd_MGZ1_Loop04

Snd_MGZ1_Loop05:
	.byte	nB2, 0x08, nB3, 0x04, nB3, 0x08, nRst, 0x04, nB2, 0x08, nRst, 0x04
	.byte	nB3, 0x08, nB2, 0x06, nRst, 0x2E, nB2, 0x08, nB3, 0x04, nB3, 0x08
	.byte	nRst, 0x04, nB2, 0x08, nRst, 0x04, nB3, 0x08, nB2, 0x06, nRst, 0x16
	.byte	nFs2, 0x18
	smpsLoop            0x00, 0x03, Snd_MGZ1_Loop05
	.byte	nB2, 0x08, nB3, 0x04, nB3, 0x08, nRst, 0x04, nB2, 0x08, nRst, 0x04
	.byte	nB3, 0x08, nB2, 0x06, nRst, 0x2E, nB2, 0x08, nB3, 0x04, nB3, 0x08
	.byte	nRst, 0x04, nB2, 0x08, nRst, 0x04, nB3, 0x08, nB2, 0x06, nRst, 0x18
	.byte	nC3, 0x16
	smpsJump            Snd_MGZ1_FM1

/*  Unreachable */
	smpsStop

/*  FM2 Data */
Snd_MGZ1_FM2:
	smpsSetvoice        0x00
	smpsModSet          0x0D, 0x01, 0x02, 0x06
	smpsPan             panCenter, 0x00
	.byte	nRst, 0x60, nRst, nRst, nRst, nRst, 0x0C, nCs4, nCs4, 0x06, nRst, nB3
	.byte	0x08, nCs4, 0x06, nRst, 0x2E, nRst, 0x0C, nFs4, nFs4, 0x04, nRst, 0x08
	.byte	nFs4, nE4, 0x0B, nRst, 0x05, nEb4, 0x0C, nCs4, 0x06, nRst, nB3, nRst
	.byte	nB3, 0x11, nRst, 0x03, nCs4, 0x06, nRst, 0x0A, nCs4, 0x06, nRst, 0x36
	.byte	nRst, 0x60, nRst, 0x0C, nCs4, nCs4, 0x06, nRst, nB3, 0x08, nCs4, 0x06
	.byte	nRst, 0x2E, nRst, 0x08, nFs4, 0x0C, nFs4, 0x04, nFs4, 0x06, nRst, nE4
	.byte	0x08, nE4, 0x09, nRst, 0x07, nEb4, 0x06, nRst, nCs4, 0x0C, nB3, 0x06
	.byte	nRst, nCs4, 0x48, nRst, 0x18, nRst, 0x60, nRst, 0x18, nCs5, 0x06, nRst
	.byte	0x12, nB4, 0x06, nRst, 0x12, nBb4, 0x06, nRst, 0x12, nAb4, 0x3C, nBb4
	.byte	0x1E, nAb4, 0x02, nFs4, nF4, nE4, 0x60
	smpsSetvoice        0x06
	.byte	nRst, 0x38, nCs5, 0x04, nEb5, 0x08, nE5, 0x04, nEb5, 0x08, nCs5, 0x06
	.byte	nRst, nCs5, 0x04
	smpsSetvoice        0x00
	.byte	nRst, 0x18, nCs5, 0x06, nRst, 0x12, nB4, 0x06, nRst, 0x12, nBb4, 0x06
	.byte	nRst, 0x12, nAb4, 0x48, nBb4, 0x18, nE4, 0x30, nEb4, 0x06, nRst, nE4
	.byte	0x24, nCs4, 0x60
	smpsSetvoice        0x07
	.byte	nRst, 0x18, nB4, 0x06, nRst, 0x12, nEb5, 0x0C, nE5, 0x06, nRst, 0x12
	.byte	nEb5, 0x06, nRst, nRst, 0x0C, nFs5, 0x06, nRst, 0x12, nB4, 0x3C, nB5
	.byte	0x24, nFs5, 0x06, nG5, nG5, 0x0C, nFs5, nE5, nFs5, 0x06, nRst, nRst
	.byte	0x0C, nEb5, 0x06, nRst, 0x12, nB4, 0x3C, nRst, 0x18, nB4, 0x06, nRst
	.byte	0x12, nEb5, 0x0C, nE5, 0x06, nRst, nEb5, 0x04, nRst, nEb5, nE5, 0x0C
	.byte	nFs5, nEb5, 0x06, nRst, 0x12, nB4, 0x3C, nB5, 0x24, nFs5, 0x06, nG5
	.byte	nFs5, 0x0C, nE5, nEb5, nCs5, 0x06, nRst, nRst, 0x0C, nEb5, 0x06, nRst
	.byte	0x12, nB4, 0x24, nRst, 0x18
	smpsJump            Snd_MGZ1_FM2

/*  Unreachable */
	smpsStop

/*  FM3 Data */
Snd_MGZ1_FM3:
	smpsSetvoice        0x02
	smpsModSet          0x0D, 0x01, 0x02, 0x06
	smpsPan             panLeft, 0x00
	.byte	nRst, 0x08, nB4, 0x04
	smpsSetvoice        0x08
	.byte	nB2, 0x03, nRst, 0x05, nB2, 0x04
	smpsSetvoice        0x02
	.byte	nB4, nRst, 0x14, nB4, nB4, 0x04, nRst, 0x0C
	smpsSetvoice        0x08
	.byte	nB2, 0x03, nRst, 0x05, nB2, 0x04
	smpsSetvoice        0x03
	.byte	nRst, 0x42, nBb4, 0x02, nB4, nC5, nCs5, 0x18
	smpsSetvoice        0x02
	.byte	nRst, 0x08, nB4, 0x04
	smpsSetvoice        0x08
	.byte	nB2, 0x03, nRst, 0x05, nB2, 0x04
	smpsSetvoice        0x02
	.byte	nB4, nRst, 0x14, nB4, nB4, 0x04, nRst, 0x0C
	smpsSetvoice        0x08
	.byte	nB2, 0x03, nRst, 0x05, nB2, 0x04
	smpsSetvoice        0x04
	.byte	nAb4, 0x60

Snd_MGZ1_Loop02:
	smpsSetvoice        0x02
	.byte	nRst, 0x08, nB4, 0x04
	smpsSetvoice        0x08
	.byte	nB2, 0x03, nRst, 0x05, nB2, 0x04
	smpsSetvoice        0x02
	.byte	nB4, nRst, 0x14, nB4, nB4, 0x04, nRst, 0x0C
	smpsSetvoice        0x08
	.byte	nB2, 0x03, nRst, 0x05, nB2, 0x04
	smpsSetvoice        0x03
	.byte	nRst, 0x42, nBb4, 0x02, nB4, nC5, nCs5, 0x18
	smpsSetvoice        0x02
	.byte	nRst, 0x08, nB4, 0x04
	smpsSetvoice        0x08
	.byte	nB2, 0x03, nRst, 0x05, nB2, 0x04
	smpsSetvoice        0x02
	.byte	nB4, nRst, 0x14, nB4, nB4, 0x04, nRst, 0x0C
	smpsSetvoice        0x08
	.byte	nB2, 0x03, nRst, 0x05, nB2, 0x04
	smpsSetvoice        0x04
	.byte	nAb4, 0x3C
	smpsSetvoice        0x09
	.byte	nFs5, 0x24
	smpsLoop            0x00, 0x04, Snd_MGZ1_Loop02

Snd_MGZ1_Loop03:
	smpsSetvoice        0x05
	.byte	nE4, 0x08, nE4, 0x04, nB3, 0x06, nRst, nE4, nRst, nG4, 0x08, nE4
	.byte	0x06, nRst, nB3, 0x28, nEb4, 0x08, nEb4, 0x04, nB3, 0x06, nRst, nEb4
	.byte	nRst, nFs4, 0x08, nEb4, 0x06, nRst, nRst, 0x28
	smpsLoop            0x00, 0x03, Snd_MGZ1_Loop03
	.byte	nE4, 0x08, nE4, 0x04, nB3, 0x06, nRst, nE4, nRst, nG4, 0x08, nE4
	.byte	0x06, nRst, nB3, 0x28, nEb4, 0x08, nEb4, 0x04, nB3, 0x06, nRst, nEb4
	.byte	nRst, nFs4, 0x08, nEb4, 0x06, nRst, nRst, 0x10, nE4, 0x18
	smpsJump            Snd_MGZ1_FM3

/*  Unreachable */
	smpsStop

/*  FM4 Data */
Snd_MGZ1_FM4:
	smpsSetvoice        0x02
	smpsModSet          0x0D, 0x01, 0x02, 0x06
	smpsPan             panRight, 0x00
	.byte	nRst, 0x08, nE5, 0x04
	smpsSetvoice        0x08
	.byte	nE3, 0x03, nRst, 0x05, nE3, 0x04
	smpsSetvoice        0x02
	.byte	nE5, nRst, 0x14, nE5, nE5, 0x04, nRst, 0x0C
	smpsSetvoice        0x08
	.byte	nE3, 0x03, nRst, 0x05, nE3, 0x04
	smpsSetvoice        0x03
	.byte	nRst, 0x42, nEb5, 0x02, nE5, nF5, nFs5, 0x18
	smpsSetvoice        0x02
	.byte	nRst, 0x08, nE5, 0x04
	smpsSetvoice        0x08
	.byte	nE3, 0x03, nRst, 0x05, nE3, 0x04
	smpsSetvoice        0x02
	.byte	nE5, nRst, 0x14, nE5, nE5, 0x04, nRst, 0x0C
	smpsSetvoice        0x08
	.byte	nE3, 0x03, nRst, 0x05, nE3, 0x04
	smpsSetvoice        0x04
	.byte	nCs5, 0x60

Snd_MGZ1_Loop00:
	smpsSetvoice        0x02
	.byte	nRst, 0x08, nE5, 0x04
	smpsSetvoice        0x08
	.byte	nE3, 0x03, nRst, 0x05, nE3, 0x04
	smpsSetvoice        0x02
	.byte	nE5, nRst, 0x14, nE5, nE5, 0x04, nRst, 0x0C
	smpsSetvoice        0x08
	.byte	nE3, 0x03, nRst, 0x05, nE3, 0x04
	smpsSetvoice        0x03
	.byte	nRst, 0x42, nEb5, 0x02, nE5, nF5, nFs5, 0x18
	smpsSetvoice        0x02
	.byte	nRst, 0x08, nE5, 0x04
	smpsSetvoice        0x08
	.byte	nE3, 0x03, nRst, 0x05, nE3, 0x04
	smpsSetvoice        0x02
	.byte	nE5, nRst, 0x14, nE5, nE5, 0x04, nRst, 0x0C
	smpsSetvoice        0x08
	.byte	nE3, 0x03, nRst, 0x05, nE3, 0x04
	smpsSetvoice        0x04
	.byte	nCs5, 0x3C
	smpsSetvoice        0x09
	.byte	nB4, 0x24
	smpsLoop            0x00, 0x04, Snd_MGZ1_Loop00

Snd_MGZ1_Loop01:
	smpsSetvoice        0x05
	.byte	nG4, 0x08, nG4, 0x04, nE4, 0x06, nRst, nG4, nRst, nB4, 0x08, nG4
	.byte	0x06, nRst, nE4, 0x28, nFs4, 0x08, nFs4, 0x04, nEb4, 0x06, nRst, nFs4
	.byte	nRst, nB4, 0x08, nFs4, 0x06, nRst, nRst, 0x28
	smpsLoop            0x00, 0x03, Snd_MGZ1_Loop01
	.byte	nG4, 0x08, nG4, 0x04, nE4, 0x06, nRst, nG4, nRst, nB4, 0x08, nG4
	.byte	0x06, nRst, nE4, 0x28, nFs4, 0x08, nFs4, 0x04, nEb4, 0x06, nRst, nFs4
	.byte	nRst, nB4, 0x08, nFs4, 0x06, nRst, nRst, 0x10, nA4, 0x18
	smpsJump            Snd_MGZ1_FM4

/*  Unreachable */
	smpsStop

/*  FM5 Data */
Snd_MGZ1_FM5:
	.byte	nRst, 0x0B

Snd_MGZ1_Jump00:
	smpsSetvoice        0x00
	smpsModSet          0x0D, 0x01, 0x02, 0x06
	smpsPan             panCenter, 0x00
	.byte	nRst, 0x60, nRst, nRst, nRst, nRst, 0x0C, nCs4, nCs4, 0x06, nRst, nB3
	.byte	0x08, nCs4, 0x06, nRst, 0x2E, nRst, 0x0C, nFs4, nFs4, 0x04, nRst, 0x08
	.byte	nFs4, nE4, 0x0B, nRst, 0x05, nEb4, 0x0C, nCs4, 0x06, nRst, nB3, nRst
	.byte	nB3, 0x11, nRst, 0x03, nCs4, 0x06, nRst, 0x0A, nCs4, 0x06, nRst, 0x36
	.byte	nRst, 0x60, nRst, 0x0C, nCs4, nCs4, 0x06, nRst, nB3, 0x08, nCs4, 0x06
	.byte	nRst, 0x2E, nRst, 0x08, nFs4, 0x0C, nFs4, 0x04, nFs4, 0x06, nRst, nE4
	.byte	0x08, nE4, 0x09, nRst, 0x07, nEb4, 0x06, nRst, nCs4, 0x0C, nB3, 0x06
	.byte	nRst, nCs4, 0x48, nRst, 0x18, nRst, 0x60, nRst, 0x18, nCs5, 0x06, nRst
	.byte	0x12, nB4, 0x06, nRst, 0x12, nBb4, 0x06, nRst, 0x12, nAb4, 0x3C, nBb4
	.byte	0x1E, nAb4, 0x02, nFs4, nF4, nE4, 0x60
	smpsSetvoice        0x06
	.byte	nRst, 0x38, nCs5, 0x04, nEb5, 0x08, nE5, 0x04, nEb5, 0x08, nCs5, 0x06
	.byte	nRst, nCs5, 0x04
	smpsSetvoice        0x00
	.byte	nRst, 0x18, nCs5, 0x06, nRst, 0x12, nB4, 0x06, nRst, 0x12, nBb4, 0x06
	.byte	nRst, 0x12, nAb4, 0x48, nBb4, 0x18, nE4, 0x30, nEb4, 0x06, nRst, nE4
	.byte	0x24, nCs4, 0x60
	smpsSetvoice        0x07
	.byte	nRst, 0x18, nB4, 0x06, nRst, 0x12, nEb5, 0x0C, nE5, 0x06, nRst, 0x12
	.byte	nEb5, 0x06, nRst, nRst, 0x0C, nFs5, 0x06, nRst, 0x12, nB4, 0x3C, nB5
	.byte	0x24, nFs5, 0x06, nG5, nG5, 0x0C, nFs5, nE5, nFs5, 0x06, nRst, nRst
	.byte	0x0C, nEb5, 0x06, nRst, 0x12, nB4, 0x3C, nRst, 0x18, nB4, 0x06, nRst
	.byte	0x12, nEb5, 0x0C, nE5, 0x06, nRst, nEb5, 0x04, nRst, nEb5, nE5, 0x0C
	.byte	nFs5, nEb5, 0x06, nRst, 0x12, nB4, 0x3C, nB5, 0x24, nFs5, 0x06, nG5
	.byte	nFs5, 0x0C, nE5, nEb5, nCs5, 0x06, nRst, nRst, 0x0C, nEb5, 0x06, nRst
	.byte	0x12, nB4, 0x24, nRst, 0x18
	smpsJump            Snd_MGZ1_Jump00

/*  Unreachable */
	smpsStop

/*  DAC Data */
Snd_MGZ1_DAC:
	.byte	dKickS3, 0x0C, dKickS3, 0x08, dKickS3, 0x04, dSnareS3, 0x0C, dKickS3, 0x08, dKickS3, 0x0C
	.byte	dKickS3, 0x04, dKickS3, 0x08, dKickS3, 0x04, dSnareS3, 0x18, dKickS3, 0x0C, dKickS3, 0x08
	.byte	dKickS3, 0x04, dSnareS3, 0x0C, dKickS3, 0x08, dKickS3, 0x10, dKickS3, 0x08, dKickS3, 0x04
	.byte	dSnareS3, 0x0C, dSnareS3, 0x08, dSnareS3, 0x04, dKickS3, 0x0C, dKickS3, 0x08, dKickS3, 0x04
	.byte	dSnareS3, 0x0C, dKickS3, 0x08, dKickS3, 0x0C, dKickS3, 0x04, dKickS3, 0x08, dKickS3, 0x04
	.byte	dSnareS3, 0x18, dKickS3, 0x0C, dKickS3, 0x08, dKickS3, 0x04, dSnareS3, 0x0C, dKickS3, 0x08
	.byte	dKickS3, 0x10, dKickS3, 0x04, dKickS3, dKickS3, dSnareS3, 0x0C, dKickS3
	smpsLoop            0x00, 0x07, Snd_MGZ1_DAC
	smpsJump            Snd_MGZ1_DAC

/*  Unreachable */
	smpsStop

/*  PSG1 Data */
Snd_MGZ1_PSG1:
	smpsStop

/*  PSG2 Data */
Snd_MGZ1_PSG2:
	smpsStop

/*  Unreachable */
	smpsStop

/*  PSG3 Data */
Snd_MGZ1_PSG3:
	smpsStop

Snd_MGZ1_Voices:
/* 	Voice 0x00 */
/* 	0x38 */
/* 	0x41, 0x31, 0x73, 0x41, 	0x1A, 0x15, 0x18, 0x18, 	0x02, 0x0C, 0x05, 0x01 */
/* 	0x00, 0x0F, 0x00, 0x00, 	0x1F, 0x3F, 0x5F, 0x1F, 	0x2D, 0x10, 0x23, 0x81 */
	smpsVcAlgorithm     0x00
	smpsVcFeedback      0x07
	smpsVcUnusedBits    0x00
	smpsVcDetune        0x04, 0x07, 0x03, 0x04
	smpsVcCoarseFreq    0x01, 0x03, 0x01, 0x01
	smpsVcRateScale     0x00, 0x00, 0x00, 0x00
	smpsVcAttackRate    0x18, 0x18, 0x15, 0x1A
	smpsVcAmpMod        0x00, 0x00, 0x00, 0x00
	smpsVcDecayRate1    0x01, 0x05, 0x0C, 0x02
	smpsVcDecayRate2    0x00, 0x00, 0x0F, 0x00
	smpsVcDecayLevel    0x01, 0x05, 0x03, 0x01
	smpsVcReleaseRate   0x0F, 0x0F, 0x0F, 0x0F
	smpsVcTotalLevel    0x01, 0x23, 0x10, 0x2D

/* 	Voice 0x01 */
/* 	0x3B */
/* 	0x4C, 0x41, 0x40, 0x40, 	0x18, 0x1F, 0x1F, 0x1F, 	0x13, 0x10, 0x09, 0x09 */
/* 	0x00, 0x00, 0x00, 0x00, 	0xEF, 0xEF, 0xEF, 0xEF, 	0x12, 0x1B, 0x0D, 0x81 */
	smpsVcAlgorithm     0x03
	smpsVcFeedback      0x07
	smpsVcUnusedBits    0x00
	smpsVcDetune        0x04, 0x04, 0x04, 0x04
	smpsVcCoarseFreq    0x00, 0x00, 0x01, 0x0C
	smpsVcRateScale     0x00, 0x00, 0x00, 0x00
	smpsVcAttackRate    0x1F, 0x1F, 0x1F, 0x18
	smpsVcAmpMod        0x00, 0x00, 0x00, 0x00
	smpsVcDecayRate1    0x09, 0x09, 0x10, 0x13
	smpsVcDecayRate2    0x00, 0x00, 0x00, 0x00
	smpsVcDecayLevel    0x0E, 0x0E, 0x0E, 0x0E
	smpsVcReleaseRate   0x0F, 0x0F, 0x0F, 0x0F
	smpsVcTotalLevel    0x01, 0x0D, 0x1B, 0x12

/* 	Voice 0x02 */
/* 	0x3B */
/* 	0x71, 0x17, 0x13, 0x71, 	0x11, 0x10, 0x14, 0x1A, 	0x0C, 0x09, 0x0A, 0x02 */
/* 	0x00, 0x06, 0x04, 0x07, 	0x1F, 0xEF, 0xFF, 0xEF, 	0x18, 0x1E, 0x1A, 0x85 */
	smpsVcAlgorithm     0x03
	smpsVcFeedback      0x07
	smpsVcUnusedBits    0x00
	smpsVcDetune        0x07, 0x01, 0x01, 0x07
	smpsVcCoarseFreq    0x01, 0x03, 0x07, 0x01
	smpsVcRateScale     0x00, 0x00, 0x00, 0x00
	smpsVcAttackRate    0x1A, 0x14, 0x10, 0x11
	smpsVcAmpMod        0x00, 0x00, 0x00, 0x00
	smpsVcDecayRate1    0x02, 0x0A, 0x09, 0x0C
	smpsVcDecayRate2    0x07, 0x04, 0x06, 0x00
	smpsVcDecayLevel    0x0E, 0x0F, 0x0E, 0x01
	smpsVcReleaseRate   0x0F, 0x0F, 0x0F, 0x0F
	smpsVcTotalLevel    0x05, 0x1A, 0x1E, 0x18

/* 	Voice 0x03 */
/* 	0x34 */
/* 	0x61, 0x03, 0x00, 0x61, 	0x1F, 0x1E, 0x51, 0xD0, 	0x0C, 0x08, 0x01, 0x01 */
/* 	0x08, 0x00, 0x09, 0x00, 	0x8F, 0xFF, 0xFF, 0xFF, 	0x11, 0x85, 0x19, 0x86 */
	smpsVcAlgorithm     0x04
	smpsVcFeedback      0x06
	smpsVcUnusedBits    0x00
	smpsVcDetune        0x06, 0x00, 0x00, 0x06
	smpsVcCoarseFreq    0x01, 0x00, 0x03, 0x01
	smpsVcRateScale     0x03, 0x01, 0x00, 0x00
	smpsVcAttackRate    0x10, 0x11, 0x1E, 0x1F
	smpsVcAmpMod        0x00, 0x00, 0x00, 0x00
	smpsVcDecayRate1    0x01, 0x01, 0x08, 0x0C
	smpsVcDecayRate2    0x00, 0x09, 0x00, 0x08
	smpsVcDecayLevel    0x0F, 0x0F, 0x0F, 0x08
	smpsVcReleaseRate   0x0F, 0x0F, 0x0F, 0x0F
	smpsVcTotalLevel    0x06, 0x19, 0x05, 0x11

/* 	Voice 0x04 */
/* 	0x1B */
/* 	0x43, 0x50, 0x21, 0x41, 	0x08, 0x07, 0x06, 0x0E, 	0x10, 0x00, 0x06, 0x05 */
/* 	0x05, 0x01, 0x05, 0x01, 	0xCF, 0x0F, 0xDF, 0xCF, 	0x25, 0x16, 0x2D, 0x81 */
	smpsVcAlgorithm     0x03
	smpsVcFeedback      0x03
	smpsVcUnusedBits    0x00
	smpsVcDetune        0x04, 0x02, 0x05, 0x04
	smpsVcCoarseFreq    0x01, 0x01, 0x00, 0x03
	smpsVcRateScale     0x00, 0x00, 0x00, 0x00
	smpsVcAttackRate    0x0E, 0x06, 0x07, 0x08
	smpsVcAmpMod        0x00, 0x00, 0x00, 0x00
	smpsVcDecayRate1    0x05, 0x06, 0x00, 0x10
	smpsVcDecayRate2    0x01, 0x05, 0x01, 0x05
	smpsVcDecayLevel    0x0C, 0x0D, 0x00, 0x0C
	smpsVcReleaseRate   0x0F, 0x0F, 0x0F, 0x0F
	smpsVcTotalLevel    0x01, 0x2D, 0x16, 0x25

/* 	Voice 0x05 */
/* 	0x34 */
/* 	0x31, 0x30, 0x71, 0x31, 	0x16, 0x1B, 0x13, 0x1F, 	0x13, 0x06, 0x08, 0x08 */
/* 	0x08, 0x0B, 0x0C, 0x0D, 	0x9F, 0x8F, 0x9F, 0x8F, 	0x0F, 0x8C, 0x12, 0x83 */
	smpsVcAlgorithm     0x04
	smpsVcFeedback      0x06
	smpsVcUnusedBits    0x00
	smpsVcDetune        0x03, 0x07, 0x03, 0x03
	smpsVcCoarseFreq    0x01, 0x01, 0x00, 0x01
	smpsVcRateScale     0x00, 0x00, 0x00, 0x00
	smpsVcAttackRate    0x1F, 0x13, 0x1B, 0x16
	smpsVcAmpMod        0x00, 0x00, 0x00, 0x00
	smpsVcDecayRate1    0x08, 0x08, 0x06, 0x13
	smpsVcDecayRate2    0x0D, 0x0C, 0x0B, 0x08
	smpsVcDecayLevel    0x08, 0x09, 0x08, 0x09
	smpsVcReleaseRate   0x0F, 0x0F, 0x0F, 0x0F
	smpsVcTotalLevel    0x03, 0x12, 0x0C, 0x0F

/* 	Voice 0x06 */
/* 	0x07 */
/* 	0x11, 0x74, 0x71, 0x71, 	0x9F, 0x9F, 0x1F, 0x1F, 	0x0C, 0x0C, 0x0C, 0x0C */
/* 	0x0E, 0x0E, 0x03, 0x02, 	0x04, 0x04, 0xD8, 0xD8, 	0x81, 0x81, 0x81, 0x81 */
	smpsVcAlgorithm     0x07
	smpsVcFeedback      0x00
	smpsVcUnusedBits    0x00
	smpsVcDetune        0x07, 0x07, 0x07, 0x01
	smpsVcCoarseFreq    0x01, 0x01, 0x04, 0x01
	smpsVcRateScale     0x00, 0x00, 0x02, 0x02
	smpsVcAttackRate    0x1F, 0x1F, 0x1F, 0x1F
	smpsVcAmpMod        0x00, 0x00, 0x00, 0x00
	smpsVcDecayRate1    0x0C, 0x0C, 0x0C, 0x0C
	smpsVcDecayRate2    0x02, 0x03, 0x0E, 0x0E
	smpsVcDecayLevel    0x0D, 0x0D, 0x00, 0x00
	smpsVcReleaseRate   0x08, 0x08, 0x04, 0x04
	smpsVcTotalLevel    0x01, 0x01, 0x01, 0x01

/* 	Voice 0x07 */
/* 	0x2C */
/* 	0x21, 0x11, 0x42, 0x51, 	0x16, 0x12, 0x10, 0x1E, 	0x08, 0x11, 0x06, 0x09 */
/* 	0x00, 0x00, 0x00, 0x00, 	0x5F, 0x5F, 0x5F, 0x5F, 	0x11, 0x81, 0x13, 0x88 */
	smpsVcAlgorithm     0x04
	smpsVcFeedback      0x05
	smpsVcUnusedBits    0x00
	smpsVcDetune        0x05, 0x04, 0x01, 0x02
	smpsVcCoarseFreq    0x01, 0x02, 0x01, 0x01
	smpsVcRateScale     0x00, 0x00, 0x00, 0x00
	smpsVcAttackRate    0x1E, 0x10, 0x12, 0x16
	smpsVcAmpMod        0x00, 0x00, 0x00, 0x00
	smpsVcDecayRate1    0x09, 0x06, 0x11, 0x08
	smpsVcDecayRate2    0x00, 0x00, 0x00, 0x00
	smpsVcDecayLevel    0x05, 0x05, 0x05, 0x05
	smpsVcReleaseRate   0x0F, 0x0F, 0x0F, 0x0F
	smpsVcTotalLevel    0x08, 0x13, 0x01, 0x11

/* 	Voice 0x08 */
/* 	0x2B */
/* 	0x05, 0x27, 0x64, 0x42, 	0x17, 0x1F, 0x1F, 0x1F, 	0x18, 0x0A, 0x0B, 0x09 */
/* 	0x05, 0x08, 0x08, 0x00, 	0xFF, 0xFF, 0xFF, 0xFF, 	0x0F, 0x17, 0x1B, 0x81 */
	smpsVcAlgorithm     0x03
	smpsVcFeedback      0x05
	smpsVcUnusedBits    0x00
	smpsVcDetune        0x04, 0x06, 0x02, 0x00
	smpsVcCoarseFreq    0x02, 0x04, 0x07, 0x05
	smpsVcRateScale     0x00, 0x00, 0x00, 0x00
	smpsVcAttackRate    0x1F, 0x1F, 0x1F, 0x17
	smpsVcAmpMod        0x00, 0x00, 0x00, 0x00
	smpsVcDecayRate1    0x09, 0x0B, 0x0A, 0x18
	smpsVcDecayRate2    0x00, 0x08, 0x08, 0x05
	smpsVcDecayLevel    0x0F, 0x0F, 0x0F, 0x0F
	smpsVcReleaseRate   0x0F, 0x0F, 0x0F, 0x0F
	smpsVcTotalLevel    0x01, 0x1B, 0x17, 0x0F

/* 	Voice 0x09 */
/* 	0x38 */
/* 	0x4F, 0x47, 0x40, 0x40, 	0x1C, 0x0F, 0x10, 0x11, 	0x12, 0x09, 0x05, 0x07 */
/* 	0x0D, 0x13, 0x01, 0x01, 	0x2F, 0xFF, 0x1F, 0x1F, 	0x1B, 0x13, 0x17, 0x81 */
	smpsVcAlgorithm     0x00
	smpsVcFeedback      0x07
	smpsVcUnusedBits    0x00
	smpsVcDetune        0x04, 0x04, 0x04, 0x04
	smpsVcCoarseFreq    0x00, 0x00, 0x07, 0x0F
	smpsVcRateScale     0x00, 0x00, 0x00, 0x00
	smpsVcAttackRate    0x11, 0x10, 0x0F, 0x1C
	smpsVcAmpMod        0x00, 0x00, 0x00, 0x00
	smpsVcDecayRate1    0x07, 0x05, 0x09, 0x12
	smpsVcDecayRate2    0x01, 0x01, 0x13, 0x0D
	smpsVcDecayLevel    0x01, 0x01, 0x0F, 0x02
	smpsVcReleaseRate   0x0F, 0x0F, 0x0F, 0x0F
	smpsVcTotalLevel    0x01, 0x17, 0x13, 0x1B

