Snd_MHZ1_Header:
	smpsHeaderStartSong 3
	smpsHeaderVoice     Snd_MHZ1_Voices
	smpsHeaderChan      0x06, 0x03
	smpsHeaderTempo     0x01, 0x39

	smpsHeaderDAC       Snd_MHZ1_DAC
	smpsHeaderFM        Snd_MHZ1_FM1,	0x00, 0x0D
	smpsHeaderFM        Snd_MHZ1_FM2,	0x00, 0x0F
	smpsHeaderFM        Snd_MHZ1_FM3,	0x00, 0x0A
	smpsHeaderFM        Snd_MHZ1_FM4,	0x00, 0x0A
	smpsHeaderFM        Snd_MHZ1_FM5,	0x00, 0x16
	smpsHeaderPSG       Snd_MHZ1_PSG1,	0xE8, 0x02, 0x00, 0x00
	smpsHeaderPSG       Snd_MHZ1_PSG2,	0xE8, 0x02, 0x00, 0x00
	smpsHeaderPSG       Snd_MHZ1_PSG3,	0xE8, 0x02, 0x00, 0x00

/*  FM1 Data */
Snd_MHZ1_FM1:
	.byte	nRst, 0x60, nRst, 0x30

Snd_MHZ1_Jump05:
	smpsSetvoice        0x00
	smpsModSet          0x0D, 0x01, 0x02, 0x06
	smpsPan             panCenter, 0x00
	.byte	nRst, 0x60, nRst, nRst, nB5, 0x04, nBb5, nG5, nA5, nFs5, nAb5, nF5
	.byte	nG5, nE5, nFs5, nEb5, nF5, nD5, nE5, nCs5, nEb5, nC5, nD5, nB4
	.byte	nCs5, nBb4, nC5, nA4, nB4

Snd_MHZ1_Loop09:
	smpsSetvoice        0x02
	.byte	nB4, 0x01, nC5, 0x3B, nD5, 0x06, nRst, nF5, nRst, nG5, nRst, nE5
	.byte	0x01, nF5, 0x06, nRst, 0x05, nCs5, 0x06, nRst, nC5, 0x08, nBb4, 0x06
	.byte	nRst, nG4, 0x34, nRst, 0x0C, nBb4, 0x18, nC5, 0x08, nBb4, 0x03, nC5
	.byte	0x01, nCs5, 0x06, nRst, nC5, nRst, nEb5, 0x08, nD5, 0x06, nRst, nBb4
	.byte	0x04, nRst, 0x60
	smpsLoop            0x00, 0x02, Snd_MHZ1_Loop09
	.byte	nRst, 0x0C, nBb4, 0x18, nC5, 0x08, nBb4, 0x04, nCs5, 0x06, nRst, nC5
	.byte	nRst, nBb4, 0x08, nC5, 0x06, nRst, nBb4, 0x04, nRst, 0x60, nRst, 0x0C
	.byte	nBb4, 0x18, nC5, 0x08, nBb4, 0x03, nCs5, 0x01, nD5, nEb5, 0x06, nRst
	.byte	0x05, nD5, 0x06, nRst, nC5, 0x08, nD5, 0x06, nRst, nBb4, 0x04, nRst
	.byte	0x60, nD5, 0x01, nEb5, 0x3B, nF5, 0x06, nRst, 0x05, nF5, 0x02, nG5
	.byte	0x06, nRst, 0x05, nEb5, 0x06, nRst, nF5, 0x12, nRst, 0x06, nCs5, 0x14
	.byte	nBb4, 0x34, nRst, 0x0B, nA4, 0x01, nBb4, 0x18, nC5, 0x08, nBb4, 0x03
	.byte	nB4, 0x01, nC5, nCs5, 0x06, nRst, 0x05, nC5, 0x06, nRst, nBb4, 0x08
	.byte	nC5, 0x06, nRst, nBb4, 0x04, nRst, 0x60
	smpsJump            Snd_MHZ1_Jump05

/*  Unreachable */
	smpsStop

/*  FM2 Data */
Snd_MHZ1_FM2:
	smpsSetvoice        0x01
	smpsModSet          0x0D, 0x01, 0x02, 0x06
	smpsPan             panCenter, 0x00
	.byte	nD3, 0x0C, nRst, 0x18, nD3, 0x0C, nRst, 0x18, nD3, 0x0C, nD3, 0x0C
	.byte	nRst, 0x14, nD3, 0x03, nRst, 0x01, nC3, 0x08, nB2, 0x04, nA2, 0x0C

Snd_MHZ1_Jump04:
	smpsSetvoice        0x01
	smpsModSet          0x0D, 0x01, 0x02, 0x06
	smpsPan             panCenter, 0x00

Snd_MHZ1_Loop07:
	.byte	nG2, 0x08, nA2, 0x04, nD3, 0x08, nF3, 0x06, nRst, nE3, nRst, nD3
	.byte	nRst, nC3, nRst, nC3, 0x04, nD3, 0x08, nD3, 0x01, nRst, 0x03, nE3
	.byte	0x0C, nC3, 0x08, nBb2, 0x06, nRst, nBb2, 0x04, nBb2, 0x08, nBb2, 0x04
	.byte	nC3, 0x08, nBb2, 0x06, nRst, nBb2, nRst, nBb2, 0x04, nC3, 0x0C, nBb2
	smpsLoop            0x00, 0x06, Snd_MHZ1_Loop07

Snd_MHZ1_Loop08:
	.byte	nFs2, 0x08, nFs3, 0x04, nFs2, 0x06, nRst, nFs2, nRst, nFs2, nRst, nAb2
	.byte	nRst, nAb2, nRst, nAb2, nRst, nAb2, 0x08, nAb2, 0x04, nRst, 0x08, nBb2
	.byte	0x10, nBb2, 0x06, nRst, 0x12, nBb2, 0x08, nAb2, 0x04, nA2, 0x08, nBb2
	.byte	0x06, nRst, 0x16
	smpsLoop            0x00, 0x02, Snd_MHZ1_Loop08
	.byte	nC3, 0x06, nRst, nC3, nRst, nC3, nRst, nC3, 0x08, nC3, 0x04, nC3
	.byte	0x06, nRst, nC3, nRst, nC3, nRst, nC3, 0x08, nC3, 0x04, nBb2, 0x06
	.byte	nRst, nBb2, nRst, nBb2, nRst, nBb2, 0x08, nBb2, 0x04, nBb2, 0x06, nRst
	.byte	nBb2, nRst, nBb2, nRst, nBb2, 0x08, nBb2, 0x04, nFs2, 0x08, nFs3, 0x04
	.byte	nFs2, 0x06, nRst, nFs2, nRst, nFs2, nRst, nAb2, nRst, nAb2, nRst, nAb2
	.byte	nRst, nAb2, 0x08, nAb2, 0x04, nRst, 0x08, nBb2, 0x10, nBb2, 0x06, nRst
	.byte	0x12, nBb2, 0x08, nAb2, 0x04, nA2, 0x08, nBb2, 0x06, nRst, 0x16
	smpsJump            Snd_MHZ1_Jump04

/*  Unreachable */
	smpsStop

/*  FM3 Data */
Snd_MHZ1_FM3:
	smpsSetvoice        0x03
	smpsModSet          0x0D, 0x01, 0x02, 0x06
	smpsPan             panLeft, 0x00
	.byte	nRst, 0x06, nFs4, 0x02, nG4, nAb4, nA4, 0x0A, nRst, 0x02, nA4, 0x0A
	.byte	nRst, 0x02, nRst, 0x06, nFs4, 0x02, nG4, nAb4, nA4, 0x0A, nRst, 0x02
	.byte	nA4, 0x0A, nRst, 0x02, nRst, 0x0C, nA4, 0x0A, nRst, 0x02, nRst, 0x30

Snd_MHZ1_Jump03:
	smpsSetvoice        0x03
	smpsModSet          0x0D, 0x01, 0x02, 0x06
	smpsPan             panLeft, 0x00

Snd_MHZ1_Loop05:
	.byte	nRst, 0x0C, nG4, 0x08, nG4, 0x04, nG4, 0x08, nG4, 0x06, nRst, 0x0A
	.byte	nG4, 0x08, nG4, 0x04, nG4, 0x08, nG4, 0x06, nRst, 0x0A, nG4, 0x08
	.byte	nG4, 0x04, nRst, 0x60
	smpsLoop            0x00, 0x02, Snd_MHZ1_Loop05

Snd_MHZ1_Loop06:
	.byte	nRst, 0x0C, nE4, 0x08, nE4, 0x04, nE4, 0x08, nE4, 0x06, nRst, 0x0A
	.byte	nE4, 0x08, nE4, 0x04, nE4, 0x08, nE4, 0x06, nRst, 0x0A, nE4, 0x08
	.byte	nE4, 0x04, nRst, 0x60, nRst, 0x0C, nFs4, 0x08, nFs4, 0x04, nFs4, 0x08
	.byte	nFs4, 0x06, nRst, 0x0A, nF4, 0x08, nF4, 0x04, nF4, 0x08, nF4, 0x06
	.byte	nRst, 0x0A, nF4, 0x08, nF4, 0x04, nRst, 0x60
	smpsLoop            0x00, 0x02, Snd_MHZ1_Loop06
	.byte	nRst, 0x08, nFs5, 0x10, nFs5, 0x06, nRst, nFs5, nRst, nAb5, 0x08, nG5
	.byte	0x04, nAb5, 0x08, nC6, 0x06, nRst, 0x16, nRst, 0x08, nF4, 0x10, nF4
	.byte	0x06, nRst, 0x12, nF4, 0x08, nEb4, 0x04, nE4, 0x08, nF4, 0x06, nRst
	.byte	nBb4, 0x0C, nC5, 0x04, nRst, 0x08, nFs5, 0x10, nFs5, 0x06, nRst, nFs5
	.byte	nRst, nAb5, 0x08, nG5, 0x04, nAb5, 0x08, nC6, 0x06, nRst, 0x16, nRst
	.byte	0x08, nF4, 0x10, nF4, 0x06, nRst, 0x12, nF4, 0x08, nEb4, 0x04, nE4
	.byte	0x08, nF4, 0x04, nE4, 0x08, nEb4, 0x04, nD4, 0x08, nCs4, 0x04, nC4
	.byte	0x30, nC4, 0x06, nRst, nEb4, nRst, nF4, 0x08, nG4, 0x06, nRst, nEb4
	.byte	0x04, nRst, 0x08, nF4, 0x10, nF4, 0x06, nRst, nF4, nRst, nF4, 0x08
	.byte	nCs4, 0x06, nRst, nEb4, nRst, nF4, 0x10, nRst, 0x0C, nFs4, 0x18, nAb4
	.byte	0x08, nFs4, 0x04, nBb4, 0x06, nRst, nAb4, nRst, nFs4, 0x08, nAb4, 0x06
	.byte	nRst, nF4, 0x04, nRst, 0x60
	smpsJump            Snd_MHZ1_Jump03

/*  Unreachable */
	smpsStop

/*  FM4 Data */
Snd_MHZ1_FM4:
	smpsSetvoice        0x03
	smpsModSet          0x0D, 0x01, 0x02, 0x06
	smpsPan             panRight, 0x00
	.byte	nRst, 0x06, nEb4, 0x02, nE4, nF4, nFs4, 0x0A, nRst, 0x02, nFs4, 0x0A
	.byte	nRst, 0x02, nRst, 0x06, nEb4, 0x02, nE4, nF4, nFs4, 0x0A, nRst, 0x02
	.byte	nFs4, 0x0A, nRst, 0x02, nRst, 0x0C, nFs4, 0x0A, nRst, 0x02, nRst, 0x30

Snd_MHZ1_Jump02:
	smpsSetvoice        0x03
	smpsModSet          0x0D, 0x01, 0x02, 0x06
	smpsPan             panRight, 0x00

Snd_MHZ1_Loop03:
	.byte	nRst, 0x0C, nE4, 0x08, nE4, 0x04, nE4, 0x08, nE4, 0x06, nRst, 0x0A
	.byte	nE4, 0x08, nE4, 0x04, nE4, 0x08, nE4, 0x06, nRst, 0x0A, nE4, 0x08
	.byte	nE4, 0x04, nRst, 0x60
	smpsLoop            0x00, 0x02, Snd_MHZ1_Loop03

Snd_MHZ1_Loop04:
	.byte	nRst, 0x0C, nC4, 0x08, nC4, 0x04, nC4, 0x08, nC4, 0x06, nRst, 0x0A
	.byte	nC4, 0x08, nC4, 0x04, nC4, 0x08, nC4, 0x06, nRst, 0x0A, nC4, 0x08
	.byte	nC4, 0x04, nRst, 0x60, nRst, 0x0C, nCs4, 0x08, nCs4, 0x04, nCs4, 0x08
	.byte	nCs4, 0x06, nRst, 0x0A, nD4, 0x08, nD4, 0x04, nD4, 0x08, nD4, 0x06
	.byte	nRst, 0x0A, nD4, 0x08, nD4, 0x04, nRst, 0x60
	smpsLoop            0x00, 0x02, Snd_MHZ1_Loop04
	.byte	nRst, 0x08, nFs4, 0x10, nFs4, 0x06, nRst, nFs4, nRst, nAb4, 0x08, nG4
	.byte	0x04, nAb4, 0x08, nC5, 0x06, nRst, 0x16, nRst, 0x08, nD4, 0x10, nD4
	.byte	0x06, nRst, 0x12, nD4, 0x08, nC4, 0x04, nCs4, 0x08, nD4, 0x06, nRst
	.byte	nFs4, 0x0C, nAb4, 0x04, nRst, 0x08, nFs4, 0x10, nFs4, 0x06, nRst, nFs4
	.byte	nRst, nAb4, 0x08, nG4, 0x04, nAb4, 0x08, nC5, 0x03, nRst, 0x19, nRst
	.byte	0x08, nD4, 0x10, nD4, 0x06, nRst, 0x12, nD4, 0x08, nC4, 0x04, nCs4
	.byte	0x08, nD4, 0x04, nCs4, 0x08, nC4, 0x04, nB3, 0x08, nBb3, 0x04, nG3
	.byte	0x30, nG3, 0x06, nRst, nC4, nRst, nD4, 0x08, nEb4, 0x06, nRst, nC4
	.byte	0x04, nRst, 0x08, nD4, 0x10, nD4, 0x06, nRst, nD4, nRst, nD4, 0x08
	.byte	nBb3, 0x06, nRst, nC4, nRst, nD4, 0x10, nRst, 0x0C, nEb4, 0x18, nEb4
	.byte	0x08, nEb4, 0x04, nF4, 0x06, nRst, nEb4, nRst, nD4, 0x08, nEb4, 0x06
	.byte	nRst, nD4, 0x04, nRst, 0x60
	smpsJump            Snd_MHZ1_Jump02

/*  Unreachable */
	smpsStop

/*  FM5 Data */
Snd_MHZ1_FM5:
	.byte	nRst, 0x60, nRst, 0x30, nRst, 0x07

Snd_MHZ1_Jump01:
	smpsSetvoice        0x00
	smpsModSet          0x0D, 0x01, 0x02, 0x06
	smpsPan             panCenter, 0x00
	.byte	nRst, 0x60, nRst, nRst, nB5, 0x04, nBb5, nG5, nA5, nFs5, nAb5, nF5
	.byte	nG5, nE5, nFs5, nEb5, nF5, nD5, nE5, nCs5, nEb5, nC5, nD5, nB4
	.byte	nCs5, nBb4, nC5, nA4, nB4

Snd_MHZ1_Loop02:
	smpsSetvoice        0x02
	.byte	nB4, 0x01, nC5, 0x3B, nD5, 0x06, nRst, nF5, nRst, nG5, nRst, nE5
	.byte	0x01, nF5, 0x06, nRst, 0x05, nCs5, 0x06, nRst, nC5, 0x08, nBb4, 0x06
	.byte	nRst, nG4, 0x34, nRst, 0x0C, nBb4, 0x18, nC5, 0x08, nBb4, 0x03, nC5
	.byte	0x01, nCs5, 0x06, nRst, nC5, nRst, nEb5, 0x08, nD5, 0x06, nRst, nBb4
	.byte	0x04, nRst, 0x60
	smpsLoop            0x00, 0x02, Snd_MHZ1_Loop02
	.byte	nRst, 0x0C, nBb4, 0x18, nC5, 0x08, nBb4, 0x04, nCs5, 0x06, nRst, nC5
	.byte	nRst, nBb4, 0x08, nC5, 0x06, nRst, nBb4, 0x04, nRst, 0x60, nRst, 0x0C
	.byte	nBb4, 0x18, nC5, 0x08, nBb4, 0x03, nCs5, 0x01, nD5, nEb5, 0x06, nRst
	.byte	0x05, nD5, 0x06, nRst, nC5, 0x08, nD5, 0x06, nRst, nBb4, 0x04, nRst
	.byte	0x60, nD5, 0x01, nEb5, 0x3B, nF5, 0x06, nRst, 0x05, nF5, 0x02, nG5
	.byte	0x06, nRst, 0x05, nEb5, 0x06, nRst, nF5, 0x12, nRst, 0x06, nCs5, 0x14
	.byte	nBb4, 0x34, nRst, 0x0B, nA4, 0x01, nBb4, 0x18, nC5, 0x08, nBb4, 0x03
	.byte	nB4, 0x01, nC5, nCs5, 0x06, nRst, 0x05, nC5, 0x06, nRst, nBb4, 0x08
	.byte	nC5, 0x06, nRst, nBb4, 0x04, nRst, 0x60
	smpsJump            Snd_MHZ1_Jump01

/*  Unreachable */
	smpsStop

/*  DAC Data */
Snd_MHZ1_DAC:
	.byte	dKickS3, 0x0C, dSnareS3, dSnareS3, dKickS3, dSnareS3, dSnareS3, dKickS3, dSnareS3, dKickS3, 0x08, dKickS3
	.byte	0x04, dSnareS3, 0x18, dKickS3, 0x04, dKickS3, dKickS3

Snd_MHZ1_Jump00:
	.byte	nRst, 0x60, dSnareS3, 0x08, dKickS3, 0x0C, dKickS3, 0x10, dSnareS3, 0x08, dKickS3, 0x0C
	.byte	dKickS3, dKickS3, 0x04, dSnareS3, 0x0C, dKickS3, nRst, 0x60, dSnareS3, 0x08, dKickS3, 0x0C
	.byte	dKickS3, 0x10, dSnareS3, 0x08, dKickS3, 0x04, dSnareS3, 0x0C, dSnareS3, dSnareS3, 0x08, dSnareS3
	.byte	0x04, dSnareS3, 0x0C

Snd_MHZ1_Loop00:
	.byte	dKickS3, 0x08, dMidTomS3, 0x04, dMidTomS3, 0x0C, dSnareS3, dMidTomS3, dLowTomS3, 0x14, dLowTomS3, 0x04
	.byte	dSnareS3, 0x18
	smpsLoop            0x00, 0x08, Snd_MHZ1_Loop00

Snd_MHZ1_Loop01:
	.byte	dKickS3, 0x18, dSnareS3, dLowTomS3, 0x08, dLowTomS3, 0x0C, dLowTomS3, 0x04, dSnareS3, 0x18, nRst
	.byte	0x08, dKickS3, 0x10, dSnareS3, 0x18, dLowTomS3, 0x08, dLowTomS3, 0x04, dLowTomS3, 0x08, dSnareS3
	.byte	0x10, dKickS3, 0x0C
	smpsLoop            0x00, 0x02, Snd_MHZ1_Loop01
	.byte	dKickS3, 0x08, dMidTomS3, 0x0C, dMidTomS3, 0x04, dSnareS3, 0x18, dLowTomS3, 0x0C, dLowTomS3, dSnareS3
	.byte	dLowTomS3, 0x08, dLowTomS3, 0x04, dKickS3, 0x08, dMidTomS3, 0x0C, dMidTomS3, 0x04, dSnareS3, 0x18
	.byte	dLowTomS3, 0x0C, dLowTomS3, dSnareS3, dLowTomS3, 0x08, dLowTomS3, 0x04, dKickS3, 0x18, dSnareS3, dLowTomS3
	.byte	0x08, dLowTomS3, 0x0C, dLowTomS3, 0x04, dSnareS3, 0x18, nRst, 0x08, dKickS3, 0x10, dSnareS3
	.byte	0x18, dLowTomS3, 0x08, dLowTomS3, 0x04, dLowTomS3, 0x08, dSnareS3, 0x10, dKickS3, 0x0C
	smpsJump            Snd_MHZ1_Jump00

/*  Unreachable */
	smpsStop

/*  PSG1 Data */
Snd_MHZ1_PSG1:
	smpsStop

/*  PSG2 Data */
Snd_MHZ1_PSG2:
	smpsStop

/*  Unreachable */
	smpsStop

/*  PSG3 Data */
Snd_MHZ1_PSG3:
	smpsStop

Snd_MHZ1_Voices:
/* 	Voice 0x00 */
/* 	0x38 */
/* 	0x4C, 0x33, 0x74, 0x41, 	0x1F, 0x1F, 0x1F, 0x1F, 	0x11, 0x0F, 0x0D, 0x0D */
/* 	0x00, 0x0F, 0x00, 0x00, 	0xFF, 0xFF, 0xFF, 0xFF, 	0x21, 0x16, 0x26, 0x81 */
	smpsVcAlgorithm     0x00
	smpsVcFeedback      0x07
	smpsVcUnusedBits    0x00
	smpsVcDetune        0x04, 0x07, 0x03, 0x04
	smpsVcCoarseFreq    0x01, 0x04, 0x03, 0x0C
	smpsVcRateScale     0x00, 0x00, 0x00, 0x00
	smpsVcAttackRate    0x1F, 0x1F, 0x1F, 0x1F
	smpsVcAmpMod        0x00, 0x00, 0x00, 0x00
	smpsVcDecayRate1    0x0D, 0x0D, 0x0F, 0x11
	smpsVcDecayRate2    0x00, 0x00, 0x0F, 0x00
	smpsVcDecayLevel    0x0F, 0x0F, 0x0F, 0x0F
	smpsVcReleaseRate   0x0F, 0x0F, 0x0F, 0x0F
	smpsVcTotalLevel    0x01, 0x26, 0x16, 0x21

/* 	Voice 0x01 */
/* 	0x35 */
/* 	0x40, 0x30, 0x50, 0x30, 	0x18, 0x1F, 0x1F, 0x1F, 	0x0D, 0x0B, 0x09, 0x09 */
/* 	0x00, 0x00, 0x00, 0x00, 	0xEF, 0xEF, 0xEF, 0xEF, 	0x14, 0x85, 0x85, 0x85 */
	smpsVcAlgorithm     0x05
	smpsVcFeedback      0x06
	smpsVcUnusedBits    0x00
	smpsVcDetune        0x03, 0x05, 0x03, 0x04
	smpsVcCoarseFreq    0x00, 0x00, 0x00, 0x00
	smpsVcRateScale     0x00, 0x00, 0x00, 0x00
	smpsVcAttackRate    0x1F, 0x1F, 0x1F, 0x18
	smpsVcAmpMod        0x00, 0x00, 0x00, 0x00
	smpsVcDecayRate1    0x09, 0x09, 0x0B, 0x0D
	smpsVcDecayRate2    0x00, 0x00, 0x00, 0x00
	smpsVcDecayLevel    0x0E, 0x0E, 0x0E, 0x0E
	smpsVcReleaseRate   0x0F, 0x0F, 0x0F, 0x0F
	smpsVcTotalLevel    0x05, 0x05, 0x05, 0x14

/* 	Voice 0x02 */
/* 	0x3B */
/* 	0x71, 0x12, 0x13, 0x71, 	0x11, 0x10, 0x14, 0x1A, 	0x0C, 0x09, 0x0A, 0x02 */
/* 	0x00, 0x06, 0x04, 0x07, 	0x1F, 0xEF, 0xFF, 0xEF, 	0x1B, 0x24, 0x24, 0x81 */
	smpsVcAlgorithm     0x03
	smpsVcFeedback      0x07
	smpsVcUnusedBits    0x00
	smpsVcDetune        0x07, 0x01, 0x01, 0x07
	smpsVcCoarseFreq    0x01, 0x03, 0x02, 0x01
	smpsVcRateScale     0x00, 0x00, 0x00, 0x00
	smpsVcAttackRate    0x1A, 0x14, 0x10, 0x11
	smpsVcAmpMod        0x00, 0x00, 0x00, 0x00
	smpsVcDecayRate1    0x02, 0x0A, 0x09, 0x0C
	smpsVcDecayRate2    0x07, 0x04, 0x06, 0x00
	smpsVcDecayLevel    0x0E, 0x0F, 0x0E, 0x01
	smpsVcReleaseRate   0x0F, 0x0F, 0x0F, 0x0F
	smpsVcTotalLevel    0x01, 0x24, 0x24, 0x1B

/* 	Voice 0x03 */
/* 	0x34 */
/* 	0x61, 0x03, 0x00, 0x61, 	0x1F, 0x1E, 0x51, 0xD0, 	0x0C, 0x08, 0x01, 0x01 */
/* 	0x08, 0x00, 0x09, 0x00, 	0x8F, 0xFF, 0xFF, 0xFF, 	0x11, 0x85, 0x19, 0x86 */
	smpsVcAlgorithm     0x04
	smpsVcFeedback      0x06
	smpsVcUnusedBits    0x00
	smpsVcDetune        0x06, 0x00, 0x00, 0x06
	smpsVcCoarseFreq    0x01, 0x00, 0x03, 0x01
	smpsVcRateScale     0x03, 0x01, 0x00, 0x00
	smpsVcAttackRate    0x10, 0x11, 0x1E, 0x1F
	smpsVcAmpMod        0x00, 0x00, 0x00, 0x00
	smpsVcDecayRate1    0x01, 0x01, 0x08, 0x0C
	smpsVcDecayRate2    0x00, 0x09, 0x00, 0x08
	smpsVcDecayLevel    0x0F, 0x0F, 0x0F, 0x08
	smpsVcReleaseRate   0x0F, 0x0F, 0x0F, 0x0F
	smpsVcTotalLevel    0x06, 0x19, 0x05, 0x11

