Snd_MHZ2_Header:
	smpsHeaderStartSong 3
	smpsHeaderVoice     Snd_MHZ2_Voices
	smpsHeaderChan      0x06, 0x03
	smpsHeaderTempo     0x01, 0x30

	smpsHeaderDAC       Snd_MHZ2_DAC
	smpsHeaderFM        Snd_MHZ2_FM1,	0x00, 0x0D
	smpsHeaderFM        Snd_MHZ2_FM2,	0x00, 0x0F
	smpsHeaderFM        Snd_MHZ2_FM3,	0x00, 0x0A
	smpsHeaderFM        Snd_MHZ2_FM4,	0x00, 0x0A
	smpsHeaderFM        Snd_MHZ2_FM5,	0x00, 0x13
	smpsHeaderPSG       Snd_MHZ2_PSG1,	0xE8, 0x02, 0x00, 0x00
	smpsHeaderPSG       Snd_MHZ2_PSG2,	0xE8, 0x02, 0x00, 0x00
	smpsHeaderPSG       Snd_MHZ2_PSG3,	0xE8, 0x02, 0x00, 0x00

/*  FM1 Data */
Snd_MHZ2_FM1:
	.byte	nRst, 0x60

Snd_MHZ2_Jump05:
	smpsSetvoice        0x00
	smpsModSet          0x0D, 0x01, 0x02, 0x06
	smpsPan             panCenter, 0x00
	.byte	nRst, 0x60, nRst, nRst
	smpsSetvoice        0x00
	.byte	nB5, 0x04, nBb5, nG5, nA5, nFs5, nAb5, nF5, nG5, nE5, nFs5, nEb5
	.byte	nF5, nD5, nE5, nCs5, nEb5, nC5, nD5, nB4, nCs5, nBb4, nC5, nA4
	.byte	nB4

Snd_MHZ2_Loop08:
	smpsSetvoice        0x02
	.byte	nB4, 0x01, nC5, 0x3B, nD5, 0x06, nRst, nF5, nRst, nG5, nRst, nE5
	.byte	0x01, nF5, 0x06, nRst, 0x05, nCs5, 0x06, nRst, nC5, nBb4, nRst, nG4
	.byte	0x36, nRst, 0x0C, nBb4, 0x18, nC5, 0x06, nBb4, 0x05, nC5, 0x01, nCs5
	.byte	0x06, nRst, nC5, nRst, nEb5, nD5, nRst, nBb4, nRst, 0x60
	smpsLoop            0x00, 0x02, Snd_MHZ2_Loop08
	.byte	nRst, 0x0C, nBb4, 0x18, nC5, 0x06, nBb4, nCs5, nRst, nC5, nRst, nBb4
	.byte	nC5, nRst, nBb4, nRst, 0x60, nRst, 0x0C, nBb4, 0x18, nC5, 0x06, nBb4
	.byte	0x05, nCs5, 0x01, nD5, nEb5, 0x06, nRst, 0x05, nD5, 0x06, nRst, nC5
	.byte	nD5, nRst, nBb4, nRst, 0x60, nD5, 0x01, nEb5, 0x3B, nF5, 0x06, nRst
	.byte	0x05, nF5, 0x02, nG5, 0x06, nRst, 0x05, nEb5, 0x06, nRst, nF5, 0x12
	.byte	nRst, 0x06, nCs5, 0x12, nBb4, 0x36, nRst, 0x0B, nA4, 0x01, nBb4, 0x18
	.byte	nC5, 0x06, nBb4, 0x05, nB4, 0x01, nC5, nCs5, 0x06, nRst, 0x05, nC5
	.byte	0x06, nRst, nBb4, nC5, nRst, nBb4, nRst, 0x60
	smpsJump            Snd_MHZ2_Jump05

/*  Unreachable */
	smpsStop

/*  FM2 Data */
Snd_MHZ2_FM2:
	.byte	nRst, 0x60

Snd_MHZ2_Jump04:
	smpsSetvoice        0x01
	smpsModSet          0x0D, 0x01, 0x02, 0x06
	smpsPan             panCenter, 0x00

Snd_MHZ2_Loop06:
	.byte	nG2, 0x06, nA2, nD3, nF3, nRst, nE3, nRst, nD3, nRst, nC3, nRst
	.byte	nC3, nD3, nD3, 0x01, nRst, 0x05, nE3, 0x0C, nC3, 0x06, nBb2, nRst
	.byte	nBb2, nBb2, 0x02, nRst, 0x04, nBb2, 0x02, nRst, 0x04, nC3, 0x06, nBb2
	.byte	nRst, nBb2, nRst, nBb2, 0x02, nRst, 0x04, nC3, 0x0C, nBb2
	smpsLoop            0x00, 0x06, Snd_MHZ2_Loop06

Snd_MHZ2_Loop07:
	.byte	nFs2, 0x06, nFs3, nFs2, nRst, nFs2, nRst, nFs2, nRst, nAb2, nRst, nAb2
	.byte	nRst, nAb2, nRst, nAb2, nAb2, nRst, nBb2, 0x12, nBb2, 0x06, nRst, 0x12
	.byte	nBb2, 0x06, nAb2, nA2, nBb2, nRst, 0x18
	smpsLoop            0x00, 0x02, Snd_MHZ2_Loop07
	.byte	nC3, 0x06, nRst, nC3, nRst, nC3, nRst, nC3, nC3, nC3, nRst, nC3
	.byte	nRst, nC3, nRst, nC3, nC3, nBb2, nRst, nBb2, nRst, nBb2, nRst, nBb2
	.byte	nBb2, nBb2, nRst, nBb2, nRst, nBb2, nRst, nBb2, nBb2, nFs2, nFs3, nFs2
	.byte	nRst, nFs2, nRst, nFs2, nRst, nAb2, nRst, nAb2, nRst, nAb2, nRst, nAb2
	.byte	nAb2, nRst, nBb2, 0x12, nBb2, 0x06, nRst, 0x12, nBb2, 0x06, nAb2, nA2
	.byte	nBb2, nRst, 0x18
	smpsJump            Snd_MHZ2_Jump04

/*  Unreachable */
	smpsStop

/*  FM3 Data */
Snd_MHZ2_FM3:
	.byte	nRst, 0x60

Snd_MHZ2_Jump03:
	smpsSetvoice        0x03
	smpsModSet          0x0D, 0x01, 0x02, 0x06
	smpsPan             panLeft, 0x00

Snd_MHZ2_Loop04:
	.byte	nRst, 0x0C, nG4, 0x06, nG4, nG4, nG4, nRst, 0x0C, nG4, 0x06, nG4
	.byte	nG4, nG4, nRst, 0x0C, nG4, 0x06, nG4, nRst, 0x60
	smpsLoop            0x00, 0x02, Snd_MHZ2_Loop04

Snd_MHZ2_Loop05:
	.byte	nRst, 0x0C, nE4, 0x06, nE4, nE4, nE4, nRst, 0x0C, nE4, 0x06, nE4
	.byte	nE4, nE4, nRst, 0x0C, nE4, 0x06, nE4, nRst, 0x60, nRst, 0x0C, nFs4
	.byte	0x06, nFs4, nFs4, nFs4, nRst, 0x0C, nF4, 0x06, nF4, nF4, nF4, nRst
	.byte	0x0C, nF4, 0x06, nF4, nRst, 0x60
	smpsLoop            0x00, 0x02, Snd_MHZ2_Loop05
	smpsSetvoice        0x04
	.byte	nRst, 0x06, nFs5, 0x12, nFs5, 0x06, nRst, nFs5, nRst, nAb5, nG5, nAb5
	.byte	nC6, nRst, 0x18
	smpsSetvoice        0x05
	.byte	nRst, 0x06, nF4, 0x12, nF4, 0x06, nRst, 0x12, nF4, 0x06, nEb4, nE4
	.byte	nF4, nRst
	smpsSetvoice        0x06
	.byte	nBb4, 0x0C, nC5, 0x06
	smpsSetvoice        0x04
	.byte	nRst, nFs5, 0x12, nFs5, 0x06, nRst, nFs5, nRst, nAb5, nG5, nAb5, nC6
	.byte	nRst, 0x18
	smpsSetvoice        0x05
	.byte	nRst, 0x06, nF4, 0x12, nF4, 0x06, nRst, 0x12, nF4, 0x06, nEb4, nE4
	.byte	nF4
	smpsSetvoice        0x06
	.byte	nE4, nEb4, nD4, nCs4, nC4, 0x30, nC4, 0x06, nRst, nEb4, nRst, nF4
	.byte	nG4, nRst, nEb4, nRst, nF4, 0x12, nF4, 0x06, nRst, nF4, nRst, nF4
	.byte	nCs4, nRst, nEb4, nRst, nF4, 0x12
	smpsSetvoice        0x03
	.byte	nRst, 0x0C, nFs4, 0x18, nAb4, 0x06, nFs4, nBb4, nRst, nAb4, nRst, nFs4
	.byte	nAb4, nRst, nF4, nRst, 0x60
	smpsJump            Snd_MHZ2_Jump03

/*  Unreachable */
	smpsStop

/*  FM4 Data */
Snd_MHZ2_FM4:
	.byte	nRst, 0x60

Snd_MHZ2_Jump02:
	smpsSetvoice        0x03
	smpsModSet          0x0D, 0x01, 0x02, 0x06
	smpsPan             panRight, 0x00

Snd_MHZ2_Loop02:
	.byte	nRst, 0x0C, nE4, 0x06, nE4, nE4, nE4, nRst, 0x0C, nE4, 0x06, nE4
	.byte	nE4, nE4, nRst, 0x0C, nE4, 0x06, nE4, nRst, 0x60
	smpsLoop            0x00, 0x02, Snd_MHZ2_Loop02

Snd_MHZ2_Loop03:
	.byte	nRst, 0x0C, nC4, 0x06, nC4, nC4, nC4, nRst, 0x0C, nC4, 0x06, nC4
	.byte	nC4, nC4, nRst, 0x0C, nC4, 0x06, nC4, nRst, 0x60, nRst, 0x0C, nCs4
	.byte	0x06, nCs4, nCs4, nCs4, nRst, 0x0C, nD4, 0x06, nD4, nD4, nD4, nRst
	.byte	0x0C, nD4, 0x06, nD4, nRst, 0x60
	smpsLoop            0x00, 0x02, Snd_MHZ2_Loop03
	smpsSetvoice        0x04
	.byte	nRst, 0x06, nFs4, 0x12, nFs4, 0x06, nRst, nFs4, nRst, nAb4, nG4, nAb4
	.byte	nC5, nRst, 0x18
	smpsSetvoice        0x05
	.byte	nRst, 0x06, nD4, 0x12, nD4, 0x06, nRst, 0x12, nD4, 0x06, nC4, nCs4
	.byte	nD4, nRst
	smpsSetvoice        0x06
	.byte	nFs4, 0x0C, nAb4, 0x06
	smpsSetvoice        0x04
	.byte	nRst, nFs4, 0x12, nFs4, 0x06, nRst, nFs4, nRst, nAb4, nG4, nAb4, nC5
	.byte	nRst, 0x18
	smpsSetvoice        0x05
	.byte	nRst, 0x06, nD4, 0x12, nD4, 0x06, nRst, 0x12, nD4, 0x06, nC4, nCs4
	.byte	nD4
	smpsSetvoice        0x06
	.byte	nCs4, nC4, nB3, nBb3, nG3, 0x30, nG3, 0x06, nRst, nC4, nRst, nD4
	.byte	nEb4, nRst, nC4, nRst, nD4, 0x12, nD4, 0x06, nRst, nD4, nRst, nD4
	.byte	nBb3, nRst, nC4, nRst, nD4, 0x12
	smpsSetvoice        0x03
	.byte	nRst, 0x0C, nEb4, 0x18, nEb4, 0x06, nEb4, nF4, nRst, nEb4, nRst, nD4
	.byte	nEb4, nRst, nD4, nRst, 0x60
	smpsJump            Snd_MHZ2_Jump02

/*  Unreachable */
	smpsStop

/*  FM5 Data */
Snd_MHZ2_FM5:
	.byte	nRst, 0x60, nRst, 0x0E

Snd_MHZ2_Jump01:
	smpsSetvoice        0x00
	smpsModSet          0x0D, 0x01, 0x02, 0x06
	smpsPan             panCenter, 0x00
	.byte	nRst, 0x60, nRst, nRst
	smpsSetvoice        0x00
	.byte	nB5, 0x04, nBb5, nG5, nA5, nFs5, nAb5, nF5, nG5, nE5, nFs5, nEb5
	.byte	nF5, nD5, nE5, nCs5, nEb5, nC5, nD5, nB4, nCs5, nBb4, nC5, nA4
	.byte	nB4

Snd_MHZ2_Loop01:
	smpsSetvoice        0x02
	.byte	nB4, 0x01, nC5, 0x3B, nD5, 0x06, nRst, nF5, nRst, nG5, nRst, nE5
	.byte	0x01, nF5, 0x06, nRst, 0x05, nCs5, 0x06, nRst, nC5, nBb4, nRst, nG4
	.byte	0x36, nRst, 0x0C, nBb4, 0x18, nC5, 0x06, nBb4, 0x05, nC5, 0x01, nCs5
	.byte	0x06, nRst, nC5, nRst, nEb5, nD5, nRst, nBb4, nRst, 0x60
	smpsLoop            0x00, 0x02, Snd_MHZ2_Loop01
	.byte	nRst, 0x0C, nBb4, 0x18, nC5, 0x06, nBb4, nCs5, nRst, nC5, nRst, nBb4
	.byte	nC5, nRst, nBb4, nRst, 0x60, nRst, 0x0C, nBb4, 0x18, nC5, 0x06, nBb4
	.byte	0x05, nCs5, 0x01, nD5, nEb5, 0x06, nRst, 0x05, nD5, 0x06, nRst, nC5
	.byte	nD5, nRst, nBb4, nRst, 0x60, nD5, 0x01, nEb5, 0x3B, nF5, 0x06, nRst
	.byte	0x05, nF5, 0x02, nG5, 0x06, nRst, 0x05, nEb5, 0x06, nRst, nF5, 0x12
	.byte	nRst, 0x06, nCs5, 0x12, nBb4, 0x36, nRst, 0x0B, nA4, 0x01, nBb4, 0x18
	.byte	nC5, 0x06, nBb4, 0x05, nB4, 0x01, nC5, nCs5, 0x06, nRst, 0x05, nC5
	.byte	0x06, nRst, nBb4, nC5, nRst, nBb4, nRst, 0x60
	smpsJump            Snd_MHZ2_Jump01

/*  Unreachable */
	smpsStop

/*  DAC Data */
Snd_MHZ2_DAC:
	.byte	dKickS3, 0x0C, dSnareS3, dKickS3, dSnareS3, dKickS3, 0x04, dKickS3, dKickS3, dSnareS3, 0x0C, dSnareS3
	.byte	dSnareS3, 0x06, dSnareS3

Snd_MHZ2_Jump00:
	.byte	dKickS3, 0x18, dKickS3, dKickS3, dKickS3, 0x0C, dSnareS3, 0x06, dKickS3, dSnareS3, dKickS3, 0x0C
	.byte	dKickS3, 0x12, dSnareS3, 0x06, dKickS3, 0x0C, dKickS3, dKickS3, 0x06, dSnareS3, 0x0C, dKickS3
	.byte	dKickS3, 0x18, dKickS3, dKickS3, dKickS3, 0x0C, dSnareS3, 0x06, dKickS3, dSnareS3, dKickS3, 0x0C
	.byte	dKickS3, 0x12, dSnareS3, 0x06, dKickS3, dSnareS3, 0x0C, dSnareS3, dSnareS3, 0x06, dSnareS3, dSnareS3
	.byte	0x0C

Snd_MHZ2_Loop00:
	.byte	dKickS3, 0x0C, dSnareS3, dSnareS3, dKickS3, dKickS3, dKickS3, dSnareS3, 0x18, dSnareS3, 0x06, dKickS3
	.byte	0x0C, dKickS3, 0x12, dSnareS3, 0x06, dKickS3, 0x0C, dKickS3, dKickS3, 0x06, dSnareS3, 0x0C
	.byte	dKickS3
	smpsLoop            0x00, 0x03, Snd_MHZ2_Loop00
	.byte	dKickS3, 0x0C, dSnareS3, dSnareS3, dKickS3, dKickS3, dKickS3, dSnareS3, 0x18, dSnareS3, 0x06, dKickS3
	.byte	0x0C, dKickS3, 0x12, dSnareS3, 0x06, dKickS3, 0x0C, dKickS3, dKickS3, 0x06, dSnareS3, dSnareS3
	.byte	dSnareS3, dSnareS3, dKickS3, 0x0C, dSnareS3, dKickS3, dSnareS3, dKickS3, dSnareS3, dSnareS3, dSnareS3, dKickS3
	.byte	0x06, dSnareS3, 0x12, dSnareS3, 0x18, dSnareS3, 0x06, dKickS3, dKickS3, dSnareS3, 0x0C, dSnareS3
	.byte	dSnareS3, 0x06, dKickS3, 0x0C, dSnareS3, dKickS3, dSnareS3, dKickS3, dSnareS3, dSnareS3, dSnareS3, dKickS3
	.byte	0x06, dSnareS3, 0x12, dSnareS3, 0x18, dSnareS3, 0x06, dKickS3, dKickS3, dKickS3, dSnareS3, dSnareS3
	.byte	dSnareS3, dSnareS3, dKickS3, 0x0C, dKickS3, dSnareS3, dKickS3, dKickS3, dKickS3, dSnareS3, dKickS3, dKickS3
	.byte	dSnareS3, dSnareS3, dKickS3, dSnareS3, dKickS3, 0x06, dSnareS3, 0x0C, dSnareS3, dSnareS3, 0x06, dKickS3
	.byte	0x0C, dSnareS3, dKickS3, dSnareS3, dKickS3, dSnareS3, dSnareS3, dSnareS3, dKickS3, 0x06, dSnareS3, 0x12
	.byte	dSnareS3, 0x18, dSnareS3, 0x0C, dKickS3, 0x04, dKickS3, dKickS3, dSnareS3, 0x18
	smpsJump            Snd_MHZ2_Jump00

/*  Unreachable */
	smpsStop

/*  PSG1 Data */
Snd_MHZ2_PSG1:
	smpsStop

/*  PSG2 Data */
Snd_MHZ2_PSG2:
	smpsStop

/*  Unreachable */
	smpsStop

/*  PSG3 Data */
Snd_MHZ2_PSG3:
	smpsStop

Snd_MHZ2_Voices:
/* 	Voice 0x00 */
/* 	0x38 */
/* 	0x4C, 0x33, 0x74, 0x41, 	0x1F, 0x1F, 0x1F, 0x1F, 	0x11, 0x0F, 0x0D, 0x0D */
/* 	0x00, 0x0F, 0x00, 0x00, 	0xFF, 0xFF, 0xFF, 0xFF, 	0x21, 0x16, 0x26, 0x81 */
	smpsVcAlgorithm     0x00
	smpsVcFeedback      0x07
	smpsVcUnusedBits    0x00
	smpsVcDetune        0x04, 0x07, 0x03, 0x04
	smpsVcCoarseFreq    0x01, 0x04, 0x03, 0x0C
	smpsVcRateScale     0x00, 0x00, 0x00, 0x00
	smpsVcAttackRate    0x1F, 0x1F, 0x1F, 0x1F
	smpsVcAmpMod        0x00, 0x00, 0x00, 0x00
	smpsVcDecayRate1    0x0D, 0x0D, 0x0F, 0x11
	smpsVcDecayRate2    0x00, 0x00, 0x0F, 0x00
	smpsVcDecayLevel    0x0F, 0x0F, 0x0F, 0x0F
	smpsVcReleaseRate   0x0F, 0x0F, 0x0F, 0x0F
	smpsVcTotalLevel    0x01, 0x26, 0x16, 0x21

/* 	Voice 0x01 */
/* 	0x35 */
/* 	0x40, 0x30, 0x50, 0x30, 	0x18, 0x1F, 0x1F, 0x1F, 	0x0D, 0x0B, 0x09, 0x09 */
/* 	0x00, 0x00, 0x00, 0x00, 	0xEF, 0xEF, 0xEF, 0xEF, 	0x14, 0x85, 0x85, 0x85 */
	smpsVcAlgorithm     0x05
	smpsVcFeedback      0x06
	smpsVcUnusedBits    0x00
	smpsVcDetune        0x03, 0x05, 0x03, 0x04
	smpsVcCoarseFreq    0x00, 0x00, 0x00, 0x00
	smpsVcRateScale     0x00, 0x00, 0x00, 0x00
	smpsVcAttackRate    0x1F, 0x1F, 0x1F, 0x18
	smpsVcAmpMod        0x00, 0x00, 0x00, 0x00
	smpsVcDecayRate1    0x09, 0x09, 0x0B, 0x0D
	smpsVcDecayRate2    0x00, 0x00, 0x00, 0x00
	smpsVcDecayLevel    0x0E, 0x0E, 0x0E, 0x0E
	smpsVcReleaseRate   0x0F, 0x0F, 0x0F, 0x0F
	smpsVcTotalLevel    0x05, 0x05, 0x05, 0x14

/* 	Voice 0x02 */
/* 	0x3B */
/* 	0x71, 0x12, 0x13, 0x71, 	0x11, 0x10, 0x14, 0x1A, 	0x0C, 0x09, 0x0A, 0x02 */
/* 	0x00, 0x06, 0x04, 0x07, 	0x1F, 0xEF, 0xFF, 0xEF, 	0x1B, 0x24, 0x24, 0x81 */
	smpsVcAlgorithm     0x03
	smpsVcFeedback      0x07
	smpsVcUnusedBits    0x00
	smpsVcDetune        0x07, 0x01, 0x01, 0x07
	smpsVcCoarseFreq    0x01, 0x03, 0x02, 0x01
	smpsVcRateScale     0x00, 0x00, 0x00, 0x00
	smpsVcAttackRate    0x1A, 0x14, 0x10, 0x11
	smpsVcAmpMod        0x00, 0x00, 0x00, 0x00
	smpsVcDecayRate1    0x02, 0x0A, 0x09, 0x0C
	smpsVcDecayRate2    0x07, 0x04, 0x06, 0x00
	smpsVcDecayLevel    0x0E, 0x0F, 0x0E, 0x01
	smpsVcReleaseRate   0x0F, 0x0F, 0x0F, 0x0F
	smpsVcTotalLevel    0x01, 0x24, 0x24, 0x1B

/* 	Voice 0x03 */
/* 	0x34 */
/* 	0x61, 0x03, 0x00, 0x61, 	0x1F, 0x1E, 0x51, 0xD0, 	0x0C, 0x08, 0x01, 0x01 */
/* 	0x08, 0x00, 0x09, 0x00, 	0x8F, 0xFF, 0xFF, 0xFF, 	0x11, 0x85, 0x19, 0x86 */
	smpsVcAlgorithm     0x04
	smpsVcFeedback      0x06
	smpsVcUnusedBits    0x00
	smpsVcDetune        0x06, 0x00, 0x00, 0x06
	smpsVcCoarseFreq    0x01, 0x00, 0x03, 0x01
	smpsVcRateScale     0x03, 0x01, 0x00, 0x00
	smpsVcAttackRate    0x10, 0x11, 0x1E, 0x1F
	smpsVcAmpMod        0x00, 0x00, 0x00, 0x00
	smpsVcDecayRate1    0x01, 0x01, 0x08, 0x0C
	smpsVcDecayRate2    0x00, 0x09, 0x00, 0x08
	smpsVcDecayLevel    0x0F, 0x0F, 0x0F, 0x08
	smpsVcReleaseRate   0x0F, 0x0F, 0x0F, 0x0F
	smpsVcTotalLevel    0x06, 0x19, 0x05, 0x11

/* 	Voice 0x04 */
/* 	0x1B */
/* 	0x63, 0x50, 0x21, 0x41, 	0x15, 0x0F, 0x16, 0x13, 	0x10, 0x01, 0x06, 0x05 */
/* 	0x05, 0x01, 0x05, 0x01, 	0xCF, 0x0F, 0xDF, 0xCF, 	0x21, 0x12, 0x2A, 0x81 */
	smpsVcAlgorithm     0x03
	smpsVcFeedback      0x03
	smpsVcUnusedBits    0x00
	smpsVcDetune        0x04, 0x02, 0x05, 0x06
	smpsVcCoarseFreq    0x01, 0x01, 0x00, 0x03
	smpsVcRateScale     0x00, 0x00, 0x00, 0x00
	smpsVcAttackRate    0x13, 0x16, 0x0F, 0x15
	smpsVcAmpMod        0x00, 0x00, 0x00, 0x00
	smpsVcDecayRate1    0x05, 0x06, 0x01, 0x10
	smpsVcDecayRate2    0x01, 0x05, 0x01, 0x05
	smpsVcDecayLevel    0x0C, 0x0D, 0x00, 0x0C
	smpsVcReleaseRate   0x0F, 0x0F, 0x0F, 0x0F
	smpsVcTotalLevel    0x01, 0x2A, 0x12, 0x21

/* 	Voice 0x05 */
/* 	0x34 */
/* 	0x31, 0x30, 0x71, 0x31, 	0x16, 0x1B, 0x13, 0x1F, 	0x13, 0x06, 0x08, 0x08 */
/* 	0x08, 0x0B, 0x0C, 0x0D, 	0x9F, 0x8F, 0x9F, 0x8F, 	0x0F, 0x8C, 0x12, 0x83 */
	smpsVcAlgorithm     0x04
	smpsVcFeedback      0x06
	smpsVcUnusedBits    0x00
	smpsVcDetune        0x03, 0x07, 0x03, 0x03
	smpsVcCoarseFreq    0x01, 0x01, 0x00, 0x01
	smpsVcRateScale     0x00, 0x00, 0x00, 0x00
	smpsVcAttackRate    0x1F, 0x13, 0x1B, 0x16
	smpsVcAmpMod        0x00, 0x00, 0x00, 0x00
	smpsVcDecayRate1    0x08, 0x08, 0x06, 0x13
	smpsVcDecayRate2    0x0D, 0x0C, 0x0B, 0x08
	smpsVcDecayLevel    0x08, 0x09, 0x08, 0x09
	smpsVcReleaseRate   0x0F, 0x0F, 0x0F, 0x0F
	smpsVcTotalLevel    0x03, 0x12, 0x0C, 0x0F

/* 	Voice 0x06 */
/* 	0x07 */
/* 	0x14, 0x76, 0x72, 0x71, 	0x9F, 0x9F, 0x1F, 0x1F, 	0x0C, 0x0C, 0x0C, 0x0C */
/* 	0x0E, 0x0E, 0x03, 0x02, 	0x0F, 0x0F, 0xDF, 0xDF, 	0x81, 0x81, 0x81, 0x81 */
	smpsVcAlgorithm     0x07
	smpsVcFeedback      0x00
	smpsVcUnusedBits    0x00
	smpsVcDetune        0x07, 0x07, 0x07, 0x01
	smpsVcCoarseFreq    0x01, 0x02, 0x06, 0x04
	smpsVcRateScale     0x00, 0x00, 0x02, 0x02
	smpsVcAttackRate    0x1F, 0x1F, 0x1F, 0x1F
	smpsVcAmpMod        0x00, 0x00, 0x00, 0x00
	smpsVcDecayRate1    0x0C, 0x0C, 0x0C, 0x0C
	smpsVcDecayRate2    0x02, 0x03, 0x0E, 0x0E
	smpsVcDecayLevel    0x0D, 0x0D, 0x00, 0x00
	smpsVcReleaseRate   0x0F, 0x0F, 0x0F, 0x0F
	smpsVcTotalLevel    0x01, 0x01, 0x01, 0x01

