Snd_Minib_SK_Header:
	smpsHeaderStartSong 3
	smpsHeaderVoice     Snd_Minib_SK_Voices
	smpsHeaderChan      0x06, 0x03
	smpsHeaderTempo     0x01, 0x00

	smpsHeaderDAC       Snd_Minib_SK_DAC,	0x00, 0x0C
	smpsHeaderFM        Snd_Minib_SK_FM1,	0x00, 0x0C
	smpsHeaderFM        Snd_Minib_SK_FM2,	0x00, 0x0C
	smpsHeaderFM        Snd_Minib_SK_FM3,	0x00, 0x0C
	smpsHeaderFM        Snd_Minib_SK_FM4,	0x00, 0x0C
	smpsHeaderFM        Snd_Minib_SK_FM5,	0x00, 0x0E
	smpsHeaderPSG       Snd_Minib_SK_PSG1,	0xE8, 0x02, 0x00, 0x00
	smpsHeaderPSG       Snd_Minib_SK_PSG2,	0xE8, 0x02, 0x00, 0x00
	smpsHeaderPSG       Snd_Minib_SK_PSG3,	0xE8, 0x02, 0x00, 0x00

/*  FM1 Data */
Snd_Minib_SK_FM1:
	smpsSetvoice        0x00
	smpsModSet          0x0D, 0x01, 0x02, 0x06
	smpsPan             panCenter, 0x00
	.byte	nE5, 0x06, nE5, nE5, nRst, 0x12, nE5, 0x06, nE5, nE5, nRst, 0x2A

Snd_Minib_SK_Loop0E:
	smpsSetvoice        0x00
	.byte	nE5, 0x54, nF5, 0x60, nFs5, nF5, 0x6C
	smpsLoop            0x00, 0x02, Snd_Minib_SK_Loop0E
	smpsSetvoice        0x03
	.byte	nRst, 0x18, nA4, nG5, nF5, 0x0C, nE5, 0x24, nD5, 0x18, nF5, nE5
	.byte	0x0C, nC5, 0x3C, nRst, 0x0C, nD5, nC5, nE5, 0x6C, nRst, 0x18, nA4
	.byte	nG5, nF5, 0x0C, nE5, 0x24, nD5, 0x18, nF5, nE5, 0x0C, nC5, 0x60
	.byte	nA5, 0x54, nRst, 0x18
	smpsJump            Snd_Minib_SK_Loop0E

/*  Unreachable */
	smpsStop

/*  FM2 Data */
Snd_Minib_SK_FM2:
	smpsSetvoice        0x01
	smpsModSet          0x0D, 0x01, 0x02, 0x06
	smpsPan             panCenter, 0x00
	.byte	nE2, 0x06, nE2, nE2, 0x0C, nRst, nE2, 0x06, nE2, nE2, 0x0C, nRst
	.byte	0x24

Snd_Minib_SK_Loop0D:
	smpsSetvoice        0x01
	.byte	nA2, 0x06, nA2, nA3, nA3, nA2, nA2, nA3, nA3, nA2, nA2, nA3
	.byte	nA3, nA2, nA2, nA3, nA3
	smpsLoop            0x00, 0x08, Snd_Minib_SK_Loop0D
	.byte	nF2, 0x06, nF2, nF3, nF3, nF2, nF2, nF3, nF3, nF2, nF2, nF3
	.byte	nF3, nF2, nF2, nF3, nF3, nG2, nG2, nG3, nG3, nG2, nG2, nG3
	.byte	nG3, nG2, nG2, nG3, nG3, nG2, nG2, nG3, nG3, nA2, nA2, nA3
	.byte	nA3, nA2, nA2, nA3, nA3, nA2, nA2, nA3, nA3, nA2, nA2, nA3
	.byte	nA3, nA2, nA2, nA3, nA3, nA2, nA2, nA3, nA3, nG2, nG2, nG3
	.byte	nG3, nG2, nG2, nG3, nG3, nF2, nF2, nF3, nF3, nF2, nF2, nF3
	.byte	nF3, nF2, nF2, nF3, nF3, nF2, nF2, nF3, nF3, nG2, nG2, nG3
	.byte	nG3, nG2, nG2, nG3, nG3, nG2, nG2, nG3, nG3, nG2, nG2, nG3
	.byte	nG3, nA2, nA2, nA3, nA3, nA2, nA2, nA3, nA3, nA2, nA2, nA3
	.byte	nA3, nA2, nA2, nA3, nA3, nA2, nA2, nA2, 0x0C, nRst, nA2, 0x06
	.byte	nA2, nA2, 0x0C, nRst, 0x24
	smpsJump            Snd_Minib_SK_Loop0D

/*  Unreachable */
	smpsStop

/*  FM3 Data */
Snd_Minib_SK_FM3:
	smpsSetvoice        0x00
	smpsModSet          0x0D, 0x01, 0x02, 0x06
	smpsPan             panRight, 0x00
	.byte	nB4, 0x06, nB4, nB4, nRst, 0x12, nB4, 0x06, nB4, nB4, nRst, 0x2A

Snd_Minib_SK_Loop0C:
	smpsSetvoice        0x00
	.byte	nC5, 0x54, nC5, 0x60, nC5, nC5, 0x6C
	smpsLoop            0x00, 0x02, Snd_Minib_SK_Loop0C
	smpsSetvoice        0x04
	.byte	nC5, 0x54, nB4, 0x3C, nD5, 0x24, nE5, 0x7F, smpsNoAttack, nE5, 0x1D, nD5
	.byte	0x30, nC5, 0x54, nB4, 0x3C, nD5, 0x24, nE5, 0x6C, nRst, 0x60
	smpsJump            Snd_Minib_SK_Loop0C

/*  Unreachable */
	smpsStop

/*  FM4 Data */
Snd_Minib_SK_FM4:
	smpsModSet          0x0D, 0x01, 0x02, 0x06
	smpsPan             panLeft, 0x00
	.byte	nRst, 0x60

Snd_Minib_SK_Loop04:
	smpsSetvoice        0x02
	.byte	nA4, 0x06, nC5, nE5, nC5
	smpsLoop            0x00, 0x04, Snd_Minib_SK_Loop04

Snd_Minib_SK_Loop05:
	.byte	nA4, 0x06, nC5, nF5, nC5
	smpsLoop            0x00, 0x04, Snd_Minib_SK_Loop05

Snd_Minib_SK_Loop06:
	.byte	nA4, 0x06, nC5, nFs5, nC5
	smpsLoop            0x00, 0x04, Snd_Minib_SK_Loop06

Snd_Minib_SK_Loop07:
	.byte	nA4, 0x06, nC5, nF5, nC5
	smpsLoop            0x00, 0x04, Snd_Minib_SK_Loop07

Snd_Minib_SK_Loop08:
	.byte	nA4, 0x06, nC5, nE5, nC5
	smpsLoop            0x00, 0x04, Snd_Minib_SK_Loop08

Snd_Minib_SK_Loop09:
	.byte	nA4, 0x06, nC5, nF5, nC5
	smpsLoop            0x00, 0x04, Snd_Minib_SK_Loop09

Snd_Minib_SK_Loop0A:
	.byte	nA4, 0x06, nC5, nFs5, nC5
	smpsLoop            0x00, 0x04, Snd_Minib_SK_Loop0A

Snd_Minib_SK_Loop0B:
	.byte	nA4, 0x06, nC5, nF5, nC5
	smpsLoop            0x00, 0x04, Snd_Minib_SK_Loop0B
	.byte	nF4, 0x0C, nA4, nC5, nF5, 0x3C, nG4, 0x0C, nB4, nD5, nG5, 0x3C
	.byte	nA4, 0x0C, nC5, nE5, nA5, 0x3C, nA4, 0x0C, nC5, nE5, nA5, nG4
	.byte	nB4, nD5, nG5, nF4, nA4, nC5, nF5, 0x3C, nG4, 0x0C, nB4, nD5
	.byte	nG5, 0x3C, nA4, 0x0C, nC5, nE5, nA5, 0x3C, nRst, 0x60
	smpsJump            Snd_Minib_SK_Loop04

/*  Unreachable */
	smpsStop

/*  FM5 Data */
Snd_Minib_SK_FM5:
	.byte	nRst, 0x10
	smpsSetvoice        0x00
	smpsModSet          0x0D, 0x01, 0x02, 0x06
	smpsPan             panCenter, 0x00
	smpsFMAlterVol      0x0C
	.byte	nE5, 0x06, nE5, nE5, nRst, 0x12, nE5, 0x06, nE5, nE5, nRst, 0x2A
	smpsFMAlterVol      0xF4

Snd_Minib_SK_Loop03:
	smpsSetvoice        0x00
	.byte	nE5, 0x54, nF5, 0x60, nFs5, nF5, 0x6C
	smpsLoop            0x00, 0x02, Snd_Minib_SK_Loop03
	smpsSetvoice        0x03
	.byte	nRst, 0x18, nA4, nG5, nF5, 0x0C, nE5, 0x24, nD5, 0x18, nF5, nE5
	.byte	0x0C, nC5, 0x3C, nRst, 0x0C, nD5, nC5, nE5, 0x6C, nRst, 0x18, nA4
	.byte	nG5, nF5, 0x0C, nE5, 0x24, nD5, 0x18, nF5, nE5, 0x0C, nC5, 0x60
	.byte	nA5, 0x54, nRst, 0x18
	smpsJump            Snd_Minib_SK_Loop03

/*  Unreachable */
	smpsStop

/*  DAC Data */
Snd_Minib_SK_DAC:
	.byte	dSnareS3, 0x06, dSnareS3, dSnareS3, 0x18, dSnareS3, 0x06, dSnareS3, dSnareS3, 0x18, dSnareS3, 0x06
	.byte	dSnareS3, dSnareS3, dSnareS3

Snd_Minib_SK_Loop00:
	.byte	dKickS3, 0x18, dKickS3, dKickS3, dKickS3
	smpsLoop            0x00, 0x07, Snd_Minib_SK_Loop00

Snd_Minib_SK_Loop01:
	.byte	dKickS3, 0x18, dKickS3, dKickS3, 0x0C, dSnareS3, dSnareS3, 0x06, dSnareS3, dSnareS3, 0x0C
	smpsLoop            0x00, 0x03, Snd_Minib_SK_Loop01

Snd_Minib_SK_Loop02:
	.byte	dKickS3, 0x0C, dKickS3, dSnareS3, dKickS3, dKickS3, 0x06, dKickS3, dKickS3, 0x0C, dSnareS3, dKickS3
	smpsLoop            0x00, 0x04, Snd_Minib_SK_Loop02
	.byte	dKickS3, 0x0C, dKickS3, dSnareS3, dKickS3, dKickS3, 0x06, dKickS3, dKickS3, 0x0C, dSnareS3, 0x06
	.byte	dSnareS3, dSnareS3, dSnareS3, dSnareS3, dSnareS3, dSnareS3, 0x18, dSnareS3, 0x06, dSnareS3, dSnareS3, 0x18
	.byte	dSnareS3, 0x06, dSnareS3, dSnareS3, dSnareS3
	smpsJump            Snd_Minib_SK_Loop00

/*  Unreachable */
	smpsStop

/*  PSG1 Data */
Snd_Minib_SK_PSG1:
	smpsStop

/*  PSG2 Data */
Snd_Minib_SK_PSG2:
	smpsStop

/*  Unreachable */
	smpsStop

/*  PSG3 Data */
Snd_Minib_SK_PSG3:
	smpsStop

Snd_Minib_SK_Voices:
/* 	Voice 0x00 */
/* 	0x3D */
/* 	0x41, 0x10, 0x72, 0x61, 	0x0F, 0x14, 0x53, 0x14, 	0x04, 0x06, 0x06, 0x03 */
/* 	0x00, 0x0F, 0x00, 0x00, 	0x1F, 0x3F, 0x5F, 0x1F, 	0x1A, 0x8A, 0x8A, 0x8A */
	smpsVcAlgorithm     0x05
	smpsVcFeedback      0x07
	smpsVcUnusedBits    0x00
	smpsVcDetune        0x06, 0x07, 0x01, 0x04
	smpsVcCoarseFreq    0x01, 0x02, 0x00, 0x01
	smpsVcRateScale     0x00, 0x01, 0x00, 0x00
	smpsVcAttackRate    0x14, 0x13, 0x14, 0x0F
	smpsVcAmpMod        0x00, 0x00, 0x00, 0x00
	smpsVcDecayRate1    0x03, 0x06, 0x06, 0x04
	smpsVcDecayRate2    0x00, 0x00, 0x0F, 0x00
	smpsVcDecayLevel    0x01, 0x05, 0x03, 0x01
	smpsVcReleaseRate   0x0F, 0x0F, 0x0F, 0x0F
	smpsVcTotalLevel    0x0A, 0x0A, 0x0A, 0x1A

/* 	Voice 0x01 */
/* 	0x08 */
/* 	0x07, 0x70, 0x30, 0x00, 	0x9F, 0x9F, 0x9F, 0x9F, 	0x12, 0x0E, 0x0A, 0x0A */
/* 	0x00, 0x04, 0x04, 0x03, 	0x28, 0x25, 0x25, 0x25, 	0x1F, 0x2B, 0x11, 0x81 */
	smpsVcAlgorithm     0x00
	smpsVcFeedback      0x01
	smpsVcUnusedBits    0x00
	smpsVcDetune        0x00, 0x03, 0x07, 0x00
	smpsVcCoarseFreq    0x00, 0x00, 0x00, 0x07
	smpsVcRateScale     0x02, 0x02, 0x02, 0x02
	smpsVcAttackRate    0x1F, 0x1F, 0x1F, 0x1F
	smpsVcAmpMod        0x00, 0x00, 0x00, 0x00
	smpsVcDecayRate1    0x0A, 0x0A, 0x0E, 0x12
	smpsVcDecayRate2    0x03, 0x04, 0x04, 0x00
	smpsVcDecayLevel    0x02, 0x02, 0x02, 0x02
	smpsVcReleaseRate   0x05, 0x05, 0x05, 0x08
	smpsVcTotalLevel    0x01, 0x11, 0x2B, 0x1F

/* 	Voice 0x02 */
/* 	0x04 */
/* 	0x75, 0x11, 0x31, 0x71, 	0x1F, 0x1F, 0x1F, 0x1F, 	0x08, 0x05, 0x0C, 0x09 */
/* 	0x00, 0x00, 0x00, 0x00, 	0xFF, 0xFF, 0xFF, 0xFF, 	0x1E, 0x86, 0x22, 0x8D */
	smpsVcAlgorithm     0x04
	smpsVcFeedback      0x00
	smpsVcUnusedBits    0x00
	smpsVcDetune        0x07, 0x03, 0x01, 0x07
	smpsVcCoarseFreq    0x01, 0x01, 0x01, 0x05
	smpsVcRateScale     0x00, 0x00, 0x00, 0x00
	smpsVcAttackRate    0x1F, 0x1F, 0x1F, 0x1F
	smpsVcAmpMod        0x00, 0x00, 0x00, 0x00
	smpsVcDecayRate1    0x09, 0x0C, 0x05, 0x08
	smpsVcDecayRate2    0x00, 0x00, 0x00, 0x00
	smpsVcDecayLevel    0x0F, 0x0F, 0x0F, 0x0F
	smpsVcReleaseRate   0x0F, 0x0F, 0x0F, 0x0F
	smpsVcTotalLevel    0x0D, 0x22, 0x06, 0x1E

/* 	Voice 0x03 */
/* 	0x29 */
/* 	0x20, 0x31, 0x51, 0x71, 	0x0E, 0x11, 0x12, 0x17, 	0x00, 0x00, 0x00, 0x00 */
/* 	0x08, 0x00, 0x09, 0x00, 	0x89, 0xF8, 0xF9, 0xF8, 	0x20, 0x20, 0x10, 0x88 */
	smpsVcAlgorithm     0x01
	smpsVcFeedback      0x05
	smpsVcUnusedBits    0x00
	smpsVcDetune        0x07, 0x05, 0x03, 0x02
	smpsVcCoarseFreq    0x01, 0x01, 0x01, 0x00
	smpsVcRateScale     0x00, 0x00, 0x00, 0x00
	smpsVcAttackRate    0x17, 0x12, 0x11, 0x0E
	smpsVcAmpMod        0x00, 0x00, 0x00, 0x00
	smpsVcDecayRate1    0x00, 0x00, 0x00, 0x00
	smpsVcDecayRate2    0x00, 0x09, 0x00, 0x08
	smpsVcDecayLevel    0x0F, 0x0F, 0x0F, 0x08
	smpsVcReleaseRate   0x08, 0x09, 0x08, 0x09
	smpsVcTotalLevel    0x08, 0x10, 0x20, 0x20

/* 	Voice 0x04 */
/* 	0x3D */
/* 	0x31, 0x50, 0x21, 0x41, 	0x0D, 0x13, 0x13, 0x14, 	0x03, 0x01, 0x06, 0x05 */
/* 	0x05, 0x01, 0x05, 0x01, 	0xFF, 0xFF, 0xFF, 0xFF, 	0x1D, 0x8A, 0x88, 0x87 */
	smpsVcAlgorithm     0x05
	smpsVcFeedback      0x07
	smpsVcUnusedBits    0x00
	smpsVcDetune        0x04, 0x02, 0x05, 0x03
	smpsVcCoarseFreq    0x01, 0x01, 0x00, 0x01
	smpsVcRateScale     0x00, 0x00, 0x00, 0x00
	smpsVcAttackRate    0x14, 0x13, 0x13, 0x0D
	smpsVcAmpMod        0x00, 0x00, 0x00, 0x00
	smpsVcDecayRate1    0x05, 0x06, 0x01, 0x03
	smpsVcDecayRate2    0x01, 0x05, 0x01, 0x05
	smpsVcDecayLevel    0x0F, 0x0F, 0x0F, 0x0F
	smpsVcReleaseRate   0x0F, 0x0F, 0x0F, 0x0F
	smpsVcTotalLevel    0x07, 0x08, 0x0A, 0x1D

