Snd_PachBonus_Header:
	smpsHeaderStartSong 3
	smpsHeaderVoice     Snd_PachBonus_Voices
	smpsHeaderChan      0x06, 0x03
	smpsHeaderTempo     0x01, 0x16

	smpsHeaderDAC       Snd_PachBonus_DAC
	smpsHeaderFM        Snd_PachBonus_FM1,	0x00, 0x0B
	smpsHeaderFM        Snd_PachBonus_FM2,	0x00, 0x07
	smpsHeaderFM        Snd_PachBonus_FM3,	0x00, 0x0B
	smpsHeaderFM        Snd_PachBonus_FM4,	0x00, 0x0B
	smpsHeaderFM        Snd_PachBonus_FM5,	0x00, 0x14
	smpsHeaderPSG       Snd_PachBonus_PSG1,	0xE8, 0x06, 0x00, 0x00
	smpsHeaderPSG       Snd_PachBonus_PSG2,	0xE8, 0x02, 0x00, 0x00
	smpsHeaderPSG       Snd_PachBonus_PSG3,	0xE8, 0x02, 0x00, 0x00

/*  FM1 Data */
Snd_PachBonus_FM1:
	smpsSetvoice        0x00
	smpsModSet          0x0D, 0x01, 0x02, 0x06
	smpsPan             panCenter, 0x00
	.byte	nRst, 0x60, nRst

Snd_PachBonus_Jump02:
	smpsSetvoice        0x00
	.byte	nRst, 0x60, nRst

Snd_PachBonus_Loop06:
	.byte	nRst, 0x0C, nD5, nCs5, 0x06, nRst, 0x12, nB4, 0x0C, nA4, 0x06, nRst
	.byte	0x12, nAb4, 0x06, nRst, nG4, 0x08, nAb4, 0x04, nG4, 0x08, nAb4, 0x04
	.byte	nE4, 0x08, nB3, 0x06, nRst, nD4, 0x34, nRst, 0x0C, nE4, 0x08, nD4
	.byte	0x04, nE4, 0x06, nRst, 0x12, nAb4, 0x08, nD4, 0x04, nFs4, 0x06, nRst
	.byte	nE4, nRst, nA4, nRst, nAb4, 0x24, nA4, 0x0C, nB4, 0x30, nRst, 0x0C
	.byte	nD5, nCs5, 0x06, nRst, 0x12, nB4, 0x0C, nA4, 0x06, nRst, 0x12, nAb4
	.byte	0x06, nRst, nG4, 0x08, nAb4, 0x04, nG4, 0x08, nAb4, 0x04, nE4, 0x08
	.byte	nB3, 0x06, nRst, nD4, 0x34, nRst, 0x0C, nE4, 0x08, nD4, 0x04, nE4
	.byte	0x06, nRst, 0x12, nAb4, 0x08, nE4, 0x04, nFs4, 0x06, nRst, nE4, nRst
	.byte	nA4, nRst, nAb4, 0x24, nE4, 0x3C
	smpsLoop            0x00, 0x02, Snd_PachBonus_Loop06
	.byte	nRst, 0x60, nRst, nRst, 0x18, nG5, nFs5, nE5, nAb4, 0x08, nA4, 0x04
	.byte	nC5, 0x08, nCs5, 0x06, nRst, nE5, nRst, nEb5, 0x34, nRst, 0x0C
	smpsSetvoice        0x03
	.byte	nCs5, 0x06, nRst, nB4, 0x08, nCs5, 0x06, nRst, 0x2A, nE5, 0x10
	smpsSetvoice        0x00
	.byte	nBb4, 0x08, nB4, 0x04, nBb4, 0x08, nFs4, 0x06, nRst, nCs4, nRst, nBb3
	.byte	0x23, nRst, 0x11, nRst, 0x0C, nF4, 0x08, nFs4, 0x04, nAb4, 0x08, nA4
	.byte	0x06, nRst, nB4, nRst, nCs5, nRst, nEb5, nRst, nE5, 0x10, nEb5, 0x20
	.byte	nRst, 0x04, nC5, 0x08, nC5, 0x28
	smpsSetvoice        0x03
	.byte	nEb5, 0x08, nEb5, 0x04
	smpsSetvoice        0x00
	.byte	nRst, 0x0C, nA4, 0x08, nC5, 0x04, nCs5, 0x08, nE5, 0x06, nRst, 0x0A
	.byte	nG5, 0x06, nRst, nFs5, nRst, nG5, 0x0C, nA5, 0x06, nRst
	smpsSetvoice        0x03
	.byte	nG4, 0x08, nG4, 0x04, nRst, 0x30, nFs4, 0x24
	smpsJump            Snd_PachBonus_Jump02

/*  Unreachable */
	smpsStop

/*  FM2 Data */
Snd_PachBonus_FM2:
	smpsSetvoice        0x01
	smpsModSet          0x0D, 0x01, 0x02, 0x06
	smpsPan             panCenter, 0x00
	.byte	nE2, 0x0C, nAb2, nA2, nB2, 0x08, nE2, 0x06, nRst, nE2, 0x04, nAb2
	.byte	0x0C, nA2, nB2, nE2, nAb2, nA2, nB2, 0x08, nE2, 0x06, nRst, nE2
	.byte	0x04, nD3, 0x0C, nCs3, nB2

Snd_PachBonus_Jump01:
	.byte	nE2, 0x0C, nAb2, nA2, nB2, 0x08, nE2, 0x06, nRst, nE2, 0x04, nAb2
	.byte	0x0C, nA2, nB2, nE2, nAb2, nA2, nB2, 0x08, nE2, 0x06, nRst, nE2
	.byte	0x04, nCs3, 0x0C, nD3, nEb3

Snd_PachBonus_Loop05:
	.byte	nE2, 0x0C, nAb2, nA2, nB2, 0x08, nE2, 0x06, nRst, nE2, 0x04, nAb2
	.byte	0x0C, nA2, nB2, nE2, nAb2, nA2, nB2, 0x08, nE2, 0x06, nRst, nE2
	.byte	0x04, nD3, 0x0C, nCs3, nB2, nE2, nAb2, nA2, nB2, 0x08, nE2, 0x06
	.byte	nRst, nE2, 0x04, nAb2, 0x0C, nA2, nB2, nE2, nAb2, nA2, nB2, 0x08
	.byte	nE2, 0x06, nRst, nE2, 0x04, nCs3, 0x0C, nD3, nEb3
	smpsLoop            0x00, 0x04, Snd_PachBonus_Loop05
	.byte	nE2, 0x0C, nAb2, nA2, nB2, 0x08, nE3, 0x06, nRst, nE3, 0x04, nEb3
	.byte	0x0C, nD3, nB2, nA2, nAb2, nFs2, nF2, nE2, nEb2, nD2, nEb2, nA2
	.byte	nCs3, nD3, nEb3, 0x08, nE3, 0x06, nRst, nE3, 0x04, nEb3, 0x0C, nB2
	.byte	nE2, nAb2, 0x08, nAb2, 0x04, nFs2, 0x0C, nG2, nAb2, nC3, nAb2, nEb3
	.byte	nC3, nCs3, 0x08, nCs3, 0x04, nAb2, 0x0C, nCs3, nC3, nB2, nFs2, nB2
	.byte	nFs3, nBb2, 0x08, nBb2, 0x04, nFs2, 0x0C, nBb2, nFs3, nE3, nCs3, nBb2
	.byte	nE2, nFs2, nA2, nC3, nCs3, 0x08, nE3, 0x10, nCs3, 0x0C, nFs2, nG2
	.byte	nAb2, nCs3, nD3, nEb3, 0x08, nFs3, 0x10, nAb2, 0x0C, nEb3, nFs3, nA2
	.byte	nC3, nD3, nEb3, 0x08, nE3, 0x10, nG3, 0x0C, nA3, nE3, nB2, 0x08
	.byte	nB2, 0x06, nRst, 0x0A, nBb2, 0x08, nB2, 0x04, nD3, 0x08, nEb3, 0x06
	.byte	nRst, 0x0A, nB2, 0x1E, nRst, 0x06
	smpsJump            Snd_PachBonus_Jump01

/*  Unreachable */
	smpsStop

/*  FM3 Data */
Snd_PachBonus_FM3:
	smpsSetvoice        0x02
	smpsModSet          0x0D, 0x01, 0x02, 0x06
	smpsPan             panLeft, 0x00
	.byte	nRst, 0x60, nRst

Snd_PachBonus_Loop04:
	smpsSetvoice        0x02
	.byte	nFs5, 0x04, nRst, 0x14, nFs5, 0x04, nRst, 0x14, nAb5, 0x10, nRst, 0x04
	.byte	nFs5, nRst, 0x18, nRst, 0x08, nFs5, 0x04, nRst, 0x0C, nFs5, 0x04, nRst
	.byte	0x14, nAb5, 0x10, nRst, 0x04, nFs5, nRst, 0x18
	smpsLoop            0x00, 0x0A, Snd_PachBonus_Loop04
	.byte	nRst, 0x60, nRst
	smpsSetvoice        0x03
	.byte	nRst, 0x0C, nE5, 0x06, nRst, nEb5, 0x08, nE5, 0x06, nRst, 0x12, nB4
	.byte	0x04, nC5, 0x08, nCs5, 0x06, nRst, nB5, 0x10, nCs5, 0x08, nEb5, 0x04
	.byte	nCs5, 0x08, nBb4, 0x06, nRst, nFs4, nRst, nCs4, 0x34, nRst, 0x60, nRst
	.byte	0x54, nAb5, 0x08, nAb5, 0x04, nRst, 0x0C, nC5, 0x08, nE5, 0x04, nFs5
	.byte	0x08, nG5, 0x06, nRst, 0x0A, nB5, 0x06, nRst, nA5, nRst, nB5, 0x0C
	.byte	nC6, 0x06, nRst, nEb5, 0x08, nEb5, 0x06, nRst, 0x2E, nEb5, 0x24
	smpsJump            Snd_PachBonus_Loop04

/*  Unreachable */
	smpsStop

/*  FM4 Data */
Snd_PachBonus_FM4:
	smpsSetvoice        0x02
	smpsModSet          0x0D, 0x01, 0x02, 0x06
	smpsPan             panRight, 0x00
	.byte	nRst, 0x60, nRst

Snd_PachBonus_Loop03:
	.byte	nB5, 0x08, nE3, 0x06, nRst, nE4, 0x04, nB5, 0x06, nRst, nE4, 0x08
	.byte	nE5, 0x04, nCs6, 0x10, nRst, 0x04, nB5, 0x06, nRst, 0x0A, nG4, 0x08
	.byte	nAb4, 0x04, nE4, 0x08, nB5, 0x04, nE4, 0x06, nRst, nB5, nRst, nE4
	.byte	0x08, nE5, 0x04, nCs6, 0x10, nRst, 0x04, nB5, 0x06, nRst, 0x0A, nG4
	.byte	0x08, nAb4, 0x04
	smpsLoop            0x00, 0x0A, Snd_PachBonus_Loop03
	.byte	nE5, 0x0C, nA4, nCs5, nE5, nFs5, nE5, nCs5, nA4, nEb5, nAb4, nC5
	.byte	nEb5, nAb5, nAb4, nC5, nEb5, nAb5, nCs5, nE5, nAb5, nFs5, nB4, nEb5
	.byte	nFs5, nRst, nBb4, nCs5, nFs5, nBb5, nFs5, nCs5, nBb4, nCs5, nFs4, nA4
	.byte	nCs5, nE5, nCs5, nA4, nFs4, nEb5, nAb4, nB4, nEb5, nAb5, nAb4, nB4
	.byte	nEb5, nC5, nA4, nC5, nE5, nG5, nE5, nC5, nE5, nRst, 0x60
	smpsJump            Snd_PachBonus_Loop03

/*  Unreachable */
	smpsStop

/*  FM5 Data */
Snd_PachBonus_FM5:
	.byte	nRst, 0x0C
	smpsSetvoice        0x00
	smpsModSet          0x0D, 0x01, 0x02, 0x06
	smpsPan             panCenter, 0x00
	.byte	nRst, 0x60, nRst

Snd_PachBonus_Jump00:
	smpsSetvoice        0x00
	.byte	nRst, 0x60, nRst

Snd_PachBonus_Loop02:
	.byte	nRst, 0x0C, nD5, nCs5, 0x06, nRst, 0x12, nB4, 0x0C, nA4, 0x06, nRst
	.byte	0x12, nAb4, 0x06, nRst, nG4, 0x08, nAb4, 0x04, nG4, 0x08, nAb4, 0x04
	.byte	nE4, 0x08, nB3, 0x06, nRst, nD4, 0x34, nRst, 0x0C, nE4, 0x08, nD4
	.byte	0x04, nE4, 0x06, nRst, 0x12, nAb4, 0x08, nD4, 0x04, nFs4, 0x06, nRst
	.byte	nE4, nRst, nA4, nRst, nAb4, 0x24, nA4, 0x0C, nB4, 0x30, nRst, 0x0C
	.byte	nD5, nCs5, 0x06, nRst, 0x12, nB4, 0x0C, nA4, 0x06, nRst, 0x12, nAb4
	.byte	0x06, nRst, nG4, 0x08, nAb4, 0x04, nG4, 0x08, nAb4, 0x04, nE4, 0x08
	.byte	nB3, 0x06, nRst, nD4, 0x34, nRst, 0x0C, nE4, 0x08, nD4, 0x04, nE4
	.byte	0x06, nRst, 0x12, nAb4, 0x08, nE4, 0x04, nFs4, 0x06, nRst, nE4, nRst
	.byte	nA4, nRst, nAb4, 0x24, nE4, 0x3C
	smpsLoop            0x00, 0x02, Snd_PachBonus_Loop02
	.byte	nRst, 0x60, nRst, nRst, 0x18, nG5, nFs5, nE5, nAb4, 0x08, nA4, 0x04
	.byte	nC5, 0x08, nCs5, 0x06, nRst, nE5, nRst, nEb5, 0x34, nRst, 0x0C
	smpsSetvoice        0x03
	.byte	nCs5, 0x06, nRst, nB4, 0x08, nCs5, 0x06, nRst, 0x2A, nE5, 0x10
	smpsSetvoice        0x00
	.byte	nBb4, 0x08, nB4, 0x04, nBb4, 0x08, nFs4, 0x06, nRst, nCs4, nRst, nBb3
	.byte	0x23, nRst, 0x11, nRst, 0x0C, nF4, 0x08, nFs4, 0x04, nAb4, 0x08, nA4
	.byte	0x06, nRst, nB4, nRst, nCs5, nRst, nEb5, nRst, nE5, 0x10, nEb5, 0x20
	.byte	nRst, 0x04, nC5, 0x08, nC5, 0x28
	smpsSetvoice        0x03
	.byte	nEb5, 0x08, nEb5, 0x04
	smpsSetvoice        0x00
	.byte	nRst, 0x0C, nA4, 0x08, nC5, 0x04, nCs5, 0x08, nE5, 0x06, nRst, 0x0A
	.byte	nG5, 0x06, nRst, nFs5, nRst, nG5, 0x0C, nA5, 0x06, nRst
	smpsSetvoice        0x03
	.byte	nG4, 0x08, nG4, 0x04, nRst, 0x30, nFs4, 0x24
	smpsJump            Snd_PachBonus_Jump00

/*  Unreachable */
	smpsStop

/*  DAC Data */
Snd_PachBonus_DAC:
	.byte	nRst, 0x60, nRst, 0x30, dSnareS3, 0x0C, dSnareS3, dSnareS3, dSnareS3, 0x08, dSnareS3, 0x04

Snd_PachBonus_Loop00:
	.byte	dKickS3, 0x0C, dKickS3, dSnareS3, dKickS3, 0x08, dSnareS3, 0x0C, dSnareS3, 0x04, dKickS3, 0x0C
	.byte	dSnareS3, dKickS3, 0x08, dSnareS3, 0x04, dKickS3, 0x0C, dKickS3, dSnareS3, dKickS3, 0x08, dSnareS3
	.byte	0x0C, dSnareS3, 0x04, dKickS3, 0x0C, dSnareS3, 0x08, dSnareS3, 0x04, dKickS3, 0x08, dSnareS3
	.byte	0x04
	smpsLoop            0x00, 0x09, Snd_PachBonus_Loop00
	.byte	nRst, 0x60, nRst, 0x30, dSnareS3, 0x08, dSnareS3, 0x04, dSnareS3, 0x08, dSnareS3, 0x04
	.byte	dSnareS3, 0x08, dSnareS3, 0x04, dSnareS3, 0x08, dSnareS3, 0x04

Snd_PachBonus_Loop01:
	.byte	dKickS3, 0x0C, dSnareS3, dKickS3, dSnareS3, 0x08, dSnareS3, 0x04, dKickS3, 0x0C, dSnareS3, 0x08
	.byte	dKickS3, 0x0C, dKickS3, 0x04, dSnareS3, 0x08, dSnareS3, 0x04
	smpsLoop            0x00, 0x07, Snd_PachBonus_Loop01
	.byte	dKickS3, 0x14, dKickS3, 0x04, dSnareS3, 0x08, dKickS3, 0x0C, dSnareS3, 0x04, dKickS3, 0x08
	.byte	dSnareS3, 0x0C, dKickS3, 0x04, dSnareS3, dSnareS3, dSnareS3, dSnareS3, dSnareS3, dSnareS3
	smpsJump            Snd_PachBonus_Loop00

/*  Unreachable */
	smpsStop

/*  PSG1 Data */
Snd_PachBonus_PSG1:
	smpsModSet          0x0D, 0x01, 0x01, 0x06
	.byte	nRst, 0x60, nRst

Snd_PachBonus_Loop07:
	.byte	nRst, 0x60
	smpsModSet          0x0D, 0x03, 0x02, 0x0A
	smpsLoop            0x00, 0x0A, Snd_PachBonus_Loop07
	.byte	nRst, 0x18, nD6, nCs6, nA5, nAb5, 0x30, nE5, 0x18, nA5, nAb5, 0x60
	.byte	nB5, nB5, 0x18, nD6, nCs6, nA5, nAb5, 0x30, nE5, 0x18, nA5, nAb5
	.byte	0x48, nE6, 0x18, nD6, 0x60

Snd_PachBonus_Loop08:
	.byte	nRst, 0x60
	smpsLoop            0x00, 0x0A, Snd_PachBonus_Loop08
	smpsJump            Snd_PachBonus_Loop07

/*  Unreachable */
	smpsStop

/*  PSG2 Data */
Snd_PachBonus_PSG2:
	smpsStop

/*  Unreachable */
	smpsStop

/*  PSG3 Data */
Snd_PachBonus_PSG3:
	smpsStop

Snd_PachBonus_Voices:
/* 	Voice 0x00 */
/* 	0x38 */
/* 	0x41, 0x11, 0x71, 0x41, 	0x16, 0x13, 0x0F, 0x17, 	0x02, 0x0C, 0x05, 0x01 */
/* 	0x00, 0x0F, 0x00, 0x00, 	0x1F, 0x3F, 0x5F, 0x1F, 	0x2A, 0x12, 0x24, 0x81 */
	smpsVcAlgorithm     0x00
	smpsVcFeedback      0x07
	smpsVcUnusedBits    0x00
	smpsVcDetune        0x04, 0x07, 0x01, 0x04
	smpsVcCoarseFreq    0x01, 0x01, 0x01, 0x01
	smpsVcRateScale     0x00, 0x00, 0x00, 0x00
	smpsVcAttackRate    0x17, 0x0F, 0x13, 0x16
	smpsVcAmpMod        0x00, 0x00, 0x00, 0x00
	smpsVcDecayRate1    0x01, 0x05, 0x0C, 0x02
	smpsVcDecayRate2    0x00, 0x00, 0x0F, 0x00
	smpsVcDecayLevel    0x01, 0x05, 0x03, 0x01
	smpsVcReleaseRate   0x0F, 0x0F, 0x0F, 0x0F
	smpsVcTotalLevel    0x01, 0x24, 0x12, 0x2A

/* 	Voice 0x01 */
/* 	0x33 */
/* 	0x54, 0x50, 0x11, 0x11, 	0xDF, 0x5F, 0x1F, 0x1F, 	0x0C, 0x0D, 0x01, 0x01 */
/* 	0x00, 0x00, 0x00, 0x00, 	0xFF, 0xFF, 0xFF, 0xFF, 	0x22, 0x17, 0x22, 0x81 */
	smpsVcAlgorithm     0x03
	smpsVcFeedback      0x06
	smpsVcUnusedBits    0x00
	smpsVcDetune        0x01, 0x01, 0x05, 0x05
	smpsVcCoarseFreq    0x01, 0x01, 0x00, 0x04
	smpsVcRateScale     0x00, 0x00, 0x01, 0x03
	smpsVcAttackRate    0x1F, 0x1F, 0x1F, 0x1F
	smpsVcAmpMod        0x00, 0x00, 0x00, 0x00
	smpsVcDecayRate1    0x01, 0x01, 0x0D, 0x0C
	smpsVcDecayRate2    0x00, 0x00, 0x00, 0x00
	smpsVcDecayLevel    0x0F, 0x0F, 0x0F, 0x0F
	smpsVcReleaseRate   0x0F, 0x0F, 0x0F, 0x0F
	smpsVcTotalLevel    0x01, 0x22, 0x17, 0x22

/* 	Voice 0x02 */
/* 	0x3B */
/* 	0x73, 0x11, 0x10, 0x71, 	0x1F, 0x1F, 0x1F, 0x1F, 	0x0C, 0x09, 0x0A, 0x02 */
/* 	0x00, 0x06, 0x04, 0x07, 	0x1F, 0xEF, 0xFF, 0xEF, 	0x21, 0x26, 0x13, 0x83 */
	smpsVcAlgorithm     0x03
	smpsVcFeedback      0x07
	smpsVcUnusedBits    0x00
	smpsVcDetune        0x07, 0x01, 0x01, 0x07
	smpsVcCoarseFreq    0x01, 0x00, 0x01, 0x03
	smpsVcRateScale     0x00, 0x00, 0x00, 0x00
	smpsVcAttackRate    0x1F, 0x1F, 0x1F, 0x1F
	smpsVcAmpMod        0x00, 0x00, 0x00, 0x00
	smpsVcDecayRate1    0x02, 0x0A, 0x09, 0x0C
	smpsVcDecayRate2    0x07, 0x04, 0x06, 0x00
	smpsVcDecayLevel    0x0E, 0x0F, 0x0E, 0x01
	smpsVcReleaseRate   0x0F, 0x0F, 0x0F, 0x0F
	smpsVcTotalLevel    0x03, 0x13, 0x26, 0x21

/* 	Voice 0x03 */
/* 	0x35 */
/* 	0x61, 0x01, 0x61, 0x71, 	0x10, 0x11, 0x50, 0xD1, 	0x06, 0x01, 0x01, 0x01 */
/* 	0x08, 0x00, 0x09, 0x00, 	0x8F, 0xFF, 0xFF, 0xFF, 	0x17, 0x88, 0x88, 0x8A */
	smpsVcAlgorithm     0x05
	smpsVcFeedback      0x06
	smpsVcUnusedBits    0x00
	smpsVcDetune        0x07, 0x06, 0x00, 0x06
	smpsVcCoarseFreq    0x01, 0x01, 0x01, 0x01
	smpsVcRateScale     0x03, 0x01, 0x00, 0x00
	smpsVcAttackRate    0x11, 0x10, 0x11, 0x10
	smpsVcAmpMod        0x00, 0x00, 0x00, 0x00
	smpsVcDecayRate1    0x01, 0x01, 0x01, 0x06
	smpsVcDecayRate2    0x00, 0x09, 0x00, 0x08
	smpsVcDecayLevel    0x0F, 0x0F, 0x0F, 0x08
	smpsVcReleaseRate   0x0F, 0x0F, 0x0F, 0x0F
	smpsVcTotalLevel    0x0A, 0x08, 0x08, 0x17

