Snd_SlotBonus_Header:
	smpsHeaderStartSong 3
	smpsHeaderVoice     Snd_SlotBonus_Voices
	smpsHeaderChan      0x06, 0x03
	smpsHeaderTempo     0x01, 0x20

	smpsHeaderDAC       Snd_SlotBonus_DAC
	smpsHeaderFM        Snd_SlotBonus_FM1,	0xF4, 0x09
	smpsHeaderFM        Snd_SlotBonus_FM2,	0xF4, 0x0E
	smpsHeaderFM        Snd_SlotBonus_FM3,	0x00, 0x0B
	smpsHeaderFM        Snd_SlotBonus_FM4,	0x00, 0x1D
	smpsHeaderFM        Snd_SlotBonus_FM5,	0x00, 0x08
	smpsHeaderPSG       Snd_SlotBonus_PSG1,	0xE8, 0x04, 0x05, 0x00
	smpsHeaderPSG       Snd_SlotBonus_PSG2,	0xE8, 0x04, 0x05, 0x00
	smpsHeaderPSG       Snd_SlotBonus_PSG3,	0x00, 0x00, 0x00, sTone_03

/*  FM1 Data */
Snd_SlotBonus_FM1:
	smpsSetvoice        0x00
	smpsPan             panCenter, 0x00
	smpsModSet          0x07, 0x01, 0x02, 0x05
	.byte	nD4, 0x05, nRst, 0x07, nD4, 0x05, nRst, 0x07, nD4, 0x06, nA3, 0x05
	.byte	nRst, 0x07, nA3, 0x06, nB3, 0x05, nRst, 0x07, nB3, 0x0C, nCs4, 0x05
	.byte	nRst, 0x07, nCs4, 0x0C, nD4, 0x05, nRst, 0x07, nD4, 0x05, nRst, 0x07
	.byte	nD4, 0x06, nA3, 0x05, nRst, 0x07, nA3, 0x06, nB3, 0x05, nRst, 0x07
	.byte	nA3, 0x0C, nCs4, 0x05, nRst, 0x07, nA3, 0x0C, nD4, 0x05, nRst, 0x07
	.byte	nD4, 0x05, nRst, 0x07, nD4, 0x06, nA3, 0x05, nRst, 0x07, nA3, 0x06
	.byte	nB3, 0x05, nRst, 0x07, nB3, 0x0C, nCs4, 0x05, nRst, 0x07, nCs4, 0x0C
	.byte	nD4, 0x05, nRst, 0x07, nD4, 0x05, nRst, 0x07, nD4, 0x06, nA3, 0x05
	.byte	nRst, 0x07, nA3, 0x06, nB3, 0x05, nRst, 0x07, nA3, 0x0C, nCs4, 0x05
	.byte	nRst, 0x07, nA3, 0x0C

Snd_SlotBonus_Jump05:
	.byte	nD4, 0x05, nRst, 0x07, nD4, 0x05, nRst, 0x07, nD4, 0x06, nA3, 0x05
	.byte	nRst, 0x07, nA3, 0x06, nB3, 0x05, nRst, 0x07, nB3, 0x0C, nCs4, 0x05
	.byte	nRst, 0x07, nCs4, 0x0C, nD4, 0x05, nRst, 0x07, nD4, 0x05, nRst, 0x07
	.byte	nD4, 0x06, nA3, 0x05, nRst, 0x07, nA3, 0x06, nB3, 0x05, nRst, 0x07
	.byte	nA3, 0x0C, nCs4, 0x05, nRst, 0x07, nA3, 0x0C, nD4, 0x05, nRst, 0x07
	.byte	nD4, 0x05, nRst, 0x07, nD4, 0x06, nA3, 0x05, nRst, 0x07, nA3, 0x06
	.byte	nB3, 0x05, nRst, 0x07, nB3, 0x0C, nCs4, 0x05, nRst, 0x07, nCs4, 0x0C
	.byte	nD4, 0x05, nRst, 0x07, nD4, 0x05, nRst, 0x07, nD4, 0x06, nA3, 0x05
	.byte	nRst, 0x07, nA3, 0x06, nB3, 0x05, nRst, 0x07, nA3, 0x0C, nCs4, 0x05
	.byte	nRst, 0x07, nA3, 0x0C, nG3, 0x06, nRst, nG3, nRst, nG3, nRst, nG3
	.byte	nG3, nRst, nG3, nA3, nRst, nB3, 0x0A, nRst, 0x02, nD4, 0x0A, nRst
	.byte	0x02, nFs3, 0x06, nRst, nFs3, nRst, nFs3, nRst, nFs3, nCs4, nRst, nCs4
	.byte	nRst, nCs4, nB3, nCs4, nD4, nFs4, nG3, nRst, nG3, nRst, nG3, nRst
	.byte	nG3, nAb3, nRst, nAb3, nRst, nAb3, nA3, nB3, nCs4, nD4, nA3, nRst
	.byte	0x12, nA3, 0x48, nD4, 0x06, nRst, nD4, nRst, nD4, nRst, nA3, nB3
	.byte	nRst, nB3, nA3, nRst, nB3, 0x0A, nRst, 0x02, nCs4, 0x0A, nRst, 0x02
	.byte	nD4, 0x06, nRst, nD4, nRst, nD4, nA3, nRst, nA3, nB3, nRst, nA3
	.byte	0x0A, nRst, 0x02, nCs4, 0x06, nRst, nA3, 0x0A, nRst, 0x02, nD4, 0x06
	.byte	nRst, nD4, nRst, nD4, nA3, nRst, nA3, nB3, nRst, nB3, 0x0A, nRst
	.byte	0x02, nCs4, 0x06, nRst, nCs4, 0x0A, nRst, 0x02, nD4, 0x06, nRst, nD4
	.byte	nRst, nD4, nA3, nRst, nA3, nB3, nRst, nA3, 0x0A, nRst, 0x02, nCs4
	.byte	0x06, nRst, nA3, 0x0A, nRst, 0x02, nG3, 0x06, nRst, nG3, nRst, nG3
	.byte	nRst, nG3, nG3, nRst, nG3, nA3, 0x0A, nRst, 0x02, nB3, 0x06, nRst
	.byte	nD4, 0x0A, nRst, 0x02, nFs3, 0x06, nRst, nFs3, nRst, nFs3, nRst, nFs3
	.byte	nFs3, 0x0A, nRst, 0x02, nB3, 0x06, nRst, nCs4, nD4, nRst, nFs4, 0x0A
	.byte	nRst, 0x02, nG3, 0x06, nRst, nA3, nRst, nB3, nRst, nD4, nA3, nRst
	.byte	nB3, nRst, nB3, nCs4, nRst, nE4, 0x0A, nRst, 0x02, nD4, 0x08, nRst
	.byte	0x10, nD3, 0x48, nG3, 0x06, nRst, nD4, nRst, nG3, nRst, nD4, nG3
	.byte	nRst, nG3, nA3, nRst, nB3, nRst, nD4, 0x0A, nRst, 0x02, nFs3, 0x06
	.byte	nRst, nCs4, nRst, nFs3, nRst, nCs4, nFs3, nRst, nFs3, nAb3, nRst, nA3
	.byte	nRst, nCs4, 0x0A, nRst, 0x02, nE3, 0x06, nRst, nB3, nRst, nE3, nRst
	.byte	nB3, nE3, nRst, nE3, nFs3, nRst, nAb3, nRst, nB3, 0x0A, nRst, 0x02
	.byte	nA3, 0x18, nB3, nCs4, nA3, 0x0A, nRst, 0x02, nAb3, 0x0A, nRst, 0x02
	.byte	nG3, 0x06, nRst, nD4, nRst, nG3, nRst, nD4, nG3, nRst, nG3, nA3
	.byte	nRst, nB3, nRst, nD4, 0x0A, nRst, 0x02, nFs3, 0x06, nRst, nCs4, nRst
	.byte	nFs3, nRst, nCs4, nFs3, nRst, nFs3, nAb3, nRst, nA3, nRst, nCs4, 0x0A
	.byte	nRst, 0x02, nE3, 0x06, nRst, nB3, nRst, nE3, nRst, nB3, nE3, nRst
	.byte	nE3, nFs3, 0x0A, nRst, 0x02, nAb3, 0x0A, nRst, 0x02, nB3, 0x0A, nRst
	.byte	0x02, nA3, 0x0A, nRst, 0x0E, nE4, 0x18, nA4, 0x06, nRst, nE4, nRst
	.byte	nA3, 0x18
	smpsJump            Snd_SlotBonus_Jump05

/*  FM2 Data */
Snd_SlotBonus_FM2:
	smpsSetvoice        0x02
	smpsPan             panLeft, 0x00
	smpsModSet          0x07, 0x01, 0x08, 0x05

Snd_SlotBonus_Call07:
	.byte	nRst, 0x60, nRst, nRst, nRst

Snd_SlotBonus_Jump04:
	.byte	nRst, 0x0C, nA4, 0x18, nD5, 0x04, nRst, 0x08, nE5, 0x12, nD5, nE5
	.byte	0x04, nRst, 0x08, nFs5, 0x04, nRst, 0x08, nG5, 0x04, nRst, 0x08, nFs5
	.byte	0x06, nD5, nRst, nD5, 0x36, nRst, 0x0C, nA4, 0x18, nD5, 0x04, nRst
	.byte	0x08, nE5, 0x04, nFs5, nE5, nD5, 0x16, nRst, 0x02, nE5, 0x04, nRst
	.byte	0x08, nFs5, 0x04, nRst, 0x08, nG5, 0x06, nRst, nFs5, nD5, nRst, nA5
	.byte	0x36, smpsNoAttack, 0x06, nRst, 0x06, nB5, 0x18, nG5, 0x06, nRst, nCs6, 0x02
	.byte	nD6, 0x10, nCs6, 0x12, nB5, 0x04, nRst, 0x08, nA5, 0x04, nRst, 0x08
	.byte	nB5, 0x06, nRst, nA5, nFs5, nRst, nD5, 0x36, nRst, 0x0C, nE5, 0x14
	.byte	nRst, 0x04, nE5, 0x08, nRst, 0x04, nFs5, 0x0C, nE5, 0x06, nRst, nAb5
	.byte	0x0C, nB5, 0x04, nRst, 0x08, nA5, 0x04, nRst, 0x14, nG5, 0x18, nFs5
	.byte	nE5, nRst, 0x0C, nA4, 0x18, nD5, 0x04, nRst, 0x08, nE5, 0x12, nD5
	.byte	nE5, 0x04, nRst, 0x08, nFs5, 0x04, nRst, 0x08, nG5, 0x06, nRst, nFs5
	.byte	nD5, nRst, nD5, 0x36, nRst, 0x0C, nA4, 0x18, nD5, 0x06, nRst, nE5
	.byte	nFs5, nE5, nD5, 0x12, nE5, 0x04, nRst, 0x08, nFs5, 0x02, nRst, 0x0A
	.byte	nG5, 0x06, nRst, nFs5, nD5, nRst, nA5, 0x36, nRst, 0x0C, nA5, 0x02
	.byte	nB5, 0x16, nG5, 0x06, nRst, nCs6, 0x02, nD6, 0x10, nCs6, 0x12, nB5
	.byte	0x04, nRst, 0x08, nA5, 0x04, nRst, 0x08, nB5, 0x06, nRst, nA5, nFs5
	.byte	nRst, nD5, 0x32, nRst, 0x04, nE5, 0x12, nRst, 0x06, nG5, 0x14, nRst
	.byte	0x04, nFs5, 0x12, nRst, 0x06, nE5, 0x12, nRst, 0x06, nD5, 0x0A, nRst
	.byte	0x0E, nD5, 0x18, nCs5, nC5, nB4, nD5, 0x06, nRst, nB4, nRst, nG5
	.byte	0x12, nD5, 0x10, nG5, 0x06, nRst, 0x08, nFs5, 0x06, nRst, nG5, nRst
	.byte	nFs5, nCs5, nRst, nFs5, 0x36, nRst, 0x0C, nE5, 0x10, nRst, 0x08, nE5
	.byte	0x06, nRst, nE5, 0x0C, nD5, 0x04, nRst, 0x08, nCs5, 0x06, nRst, nE5
	.byte	0x04, nRst, 0x08, nD5, 0x0C, nCs5, 0x04, nRst, 0x08, nB4, 0x0C, nCs5
	.byte	0x04, nRst, 0x08, nD5, 0x0C, nCs5, 0x04, nRst, 0x08, nB4, 0x0C, nA4
	.byte	0x04, nRst, 0x08, nRst, 0x0C, nG4, 0x0E, nRst, 0x0A, nD5, 0x04, nRst
	.byte	0x08, nG5, 0x12, nRst, 0x06, nD5, 0x12, nRst, 0x06, nA5, 0x10, nRst
	.byte	0x08, nFs5, 0x10, nRst, 0x08, nFs5, 0x28, nRst, 0x08, nG5, 0x0C, nRst
	.byte	0x06, nG5, 0x0C, nRst, 0x06, nG5, nRst, nB4, 0x10, nRst, 0x02, nAb5
	.byte	0x0C, nRst, 0x06, nB4, nRst, nCs5, 0x04, nRst, 0x02, nA5, 0x06, nRst
	.byte	nCs5, 0x04, nRst, 0x02, nA5, 0x04, nRst, 0x08, nCs5, 0x04, nRst, 0x08
	.byte	nCs5, 0x26, nRst, 0x0A
	smpsJump            Snd_SlotBonus_Jump04

/*  FM3 Data */
Snd_SlotBonus_FM3:
	smpsSetvoice        0x01
	smpsPan             panCenter, 0x00
	smpsModSet          0x07, 0x01, 0x07, 0x05
	.byte	nRst, 0x60, nRst, nRst, nRst

Snd_SlotBonus_Jump03:
	.byte	nRst, 0x0C, nD5, 0x18, nCs5, 0x04, nRst, 0x08, nB4, 0x12, nA4, nCs5
	.byte	0x04, nRst, 0x08, nD5, 0x04, nRst, 0x08, nD5, 0x06, nRst, nD5, nE5
	.byte	0x04, nRst, 0x08, nFs5, 0x36, nRst, 0x0C, nD5, 0x18, nCs5, 0x04, nRst
	.byte	0x08, nB4, 0x12, nA4, nCs5, 0x04, nRst, 0x08, nD5, 0x04, nRst, 0x08
	.byte	nD5, 0x04, nRst, 0x08, nD5, 0x04, nRst, 0x02, nE5, 0x04, nRst, 0x08
	.byte	nFs5, 0x04, nRst, 0x08, nFs5, 0x04, nRst, 0x02, nFs5, 0x04, nRst, 0x08
	.byte	nE5, 0x06, nRst, nD5, 0x0C, smpsNoAttack, nD5, 0x06, nRst, nG4, 0x12, nRst
	.byte	0x06, nG4, nRst, nG4, 0x0E, nRst, 0x04, nB4, 0x0E, nRst, 0x04, nD5
	.byte	0x06, nRst, nCs5, nRst, nCs5, 0x04, nRst, 0x08, nCs5, 0x06, nB4, 0x04
	.byte	nRst, 0x08, nA4, 0x2E, nRst, 0x08, nRst, 0x0C, nG4, 0x12, nRst, 0x06
	.byte	nG4, 0x08, nRst, 0x04, nRst, 0x0C, nAb4, 0x12, nRst, 0x06, nAb4, nRst
	.byte	nA4, 0x04, nRst, 0x14, nA4, 0x18, nB4, nCs5, nRst, 0x0C, nD5, 0x14
	.byte	nRst, 0x04, nCs5, nRst, 0x08, nB4, 0x0E, nRst, 0x04, nA4, 0x0E, nRst
	.byte	0x04, nCs5, nRst, 0x08, nD5, 0x06, nRst, nD5, nRst, nD5, nE5, nRst
	.byte	nFs5, 0x2C, nRst, 0x0A, nRst, 0x0C, nD5, 0x18, nCs5, 0x04, nRst, 0x08
	.byte	nB4, 0x12, nA4, nCs5, 0x04, nRst, 0x08, nD5, 0x04, nRst, 0x08, nD5
	.byte	0x04, nRst, 0x08, nD5, 0x04, nRst, 0x02, nE5, 0x04, nRst, 0x08, nFs5
	.byte	0x04, nRst, 0x08, nFs5, 0x04, nRst, 0x02, nFs5, 0x04, nRst, 0x08, nE5
	.byte	0x06, nRst, nD5, 0x0C, nRst, nG4, 0x18, nB4, 0x04, nRst, 0x08, nD5
	.byte	0x10, nRst, 0x02, nFs5, 0x0E, nRst, 0x04, nG5, 0x06, nRst, nFs5, nRst
	.byte	nFs5, nRst, nFs5, nE5, nRst, nD5, 0x2A, nRst, 0x0C, nB4, 0x12, nRst
	.byte	0x06, nD5, 0x12, nRst, 0x06, nCs5, 0x12, nRst, 0x06, nE5, 0x12, nRst
	.byte	0x06, nFs5, 0x0E, nRst, 0x0A, nFs5, 0x14, nRst, 0x04, nG5, 0x12, nRst
	.byte	0x06, nA5, 0x12, nRst, 0x06, nG5, 0x1E, nRst, 0x06, nA5, nRst, nB5
	.byte	0x0E, nRst, 0x04, nA5, 0x0E, nRst, 0x04, nG5, nRst, 0x08, nA5, 0x1C
	.byte	nRst, 0x02, nG5, 0x06, nRst, nFs5, 0x34, nRst, 0x02, nRst, 0x0C, nG5
	.byte	0x12, nRst, 0x06, nG5, nRst, nG5, 0x0C, nFs5, 0x04, nRst, 0x08, nE5
	.byte	0x0C, nD5, 0x06, nRst, nCs5, 0x12, nRst, 0x06, nD5, 0x12, nRst, 0x06
	.byte	nE5, 0x12, nRst, 0x06, nFs5, 0x12, nRst, 0x06, nRst, 0x0C, nG5, 0x10
	.byte	nRst, 0x08, nG5, 0x04, nRst, 0x08, nG5, 0x18, nA5, 0x06, nRst, nB5
	.byte	nRst, nA5, 0x12, nRst, 0x06, nCs5, 0x12, nRst, 0x06, nFs5, 0x26, nRst
	.byte	0x0A, nE5, 0x0C, nRst, 0x06, nE5, 0x0E, nRst, 0x04, nE5, 0x06, nRst
	.byte	nE5, 0x0C, nRst, 0x06, nE5, 0x0C, nRst, 0x06, nD5, nRst, nCs5, 0x04
	.byte	nRst, 0x02, nCs5, 0x04, nRst, 0x08, nCs5, 0x02, nRst, 0x04, nCs5, nRst
	.byte	0x08, nB4, 0x04, nRst, 0x08, nA4, 0x06, nRst, 0x2A
	smpsJump            Snd_SlotBonus_Jump03

/*  FM4 Data */
Snd_SlotBonus_FM4:
	smpsSetvoice        0x03
	smpsPan             panCenter, 0x00
	smpsModSet          0x07, 0x01, 0x09, 0x05
	.byte	nRst, 0x60, nRst, nRst, nRst

Snd_SlotBonus_Jump02:
	.byte	nD5, 0x18, nCs5, nB4, nA4, nD5, nCs5, nB4, nA4, nD5, nCs5, 0x16
	.byte	nRst, 0x02, nB4, 0x18, nA4, nD5, 0x30, nE5, 0x18, nFs5, nG5, 0x30
	.byte	nB5, 0x18, nD6, nCs6, nB5, nA5, nFs5, nG5, 0x30, nAb5, nA5, 0x08
	.byte	nRst, 0x10, nCs6, 0x18, nB5, nA5, nD6, nCs6, nB5, nA5, nG5, nFs5
	.byte	nE5, nD5, nD5, nCs5, nB4, nA4, nG4, nFs4, nE4, nD4, nG4, nA4
	.byte	nB4, nD5, nCs5, nB4, nA4, nFs4, nG4, nB4, nA4, nCs5, 0x16, nRst
	.byte	0x02, nD5, 0x16, nRst, 0x02, nD5, 0x18, nE5, nFs5, 0x16, nRst, 0x02
	smpsFMAlterVol      0xFC
	.byte	nG5, 0x0C, nD6, 0x06, nB5, nG6, nD6, nB5, nG6, nD6, nB5, nG6
	.byte	nD6, nB5, nG6, nD6, nB5, nFs5, 0x0C, nD6, 0x06, nA5, nFs6, nD6
	.byte	nA5, nFs6, nD6, nA5, nFs6, nD6, nA5, nFs6, nD6, nA5, nE5, 0x0C
	.byte	nB5, 0x06, nG5, nE6, nB5, nG5, nB5, nE5, 0x0C, nB5, 0x06, nAb5
	.byte	nE6, nB5, nAb5, nB5, nA5, 0x0D, nCs6, 0x06, nRst, 0x05, nA5, 0x0D
	.byte	nCs6, 0x06, nRst, 0x05, nA5, 0x0D, nCs6, 0x06, nRst, 0x05, nA5, 0x0D
	.byte	nCs6, 0x06, nRst, 0x05, nG5, 0x0C, nD6, 0x06, nB5, nG6, nD6, nB5
	.byte	nG6, nD6, nB5, nG6, nD6, nB5, nG6, nD6, nB5, nFs5, 0x0C, nD6
	.byte	0x06, nA5, nFs6, nD6, nA5, nFs6, nD6, nA5, nFs6, nD6, nA5, nFs6
	.byte	nD6, nA5, nG5, 0x0C, nD6, 0x06, nB5, nG6, nD6, nB5, nD6, nAb5
	.byte	0x0C, nD6, 0x06, nB5, nAb6, nD6, nB5, nD6, nA5, nB5, nCs6, nD6
	.byte	nB5, nCs6, nD6, nE6, nD6, nCs6, nB5, nA5, nG5, nFs5, nE5, nCs5
	smpsFMAlterVol      0x04
	smpsJump            Snd_SlotBonus_Jump02

/*  FM5 Data */
Snd_SlotBonus_FM5:
	smpsSetvoice        0x04
	smpsPan             panRight, 0x00
	smpsModSet          0x07, 0x01, 0x08, 0x05
	.byte	nRst, 0x01

Snd_SlotBonus_Call06:
	.byte	nRst, 0x60, nRst, nRst, nRst

Snd_SlotBonus_Jump01:
	.byte	nRst, 0x0C, nA4, 0x18, nD5, 0x04, nRst, 0x08, nE5, 0x12, nD5, nE5
	.byte	0x04, nRst, 0x08, nFs5, 0x04, nRst, 0x08, nG5, 0x04, nRst, 0x08, nFs5
	.byte	0x06, nD5, nRst, nD5, 0x36, nRst, 0x0C, nA4, 0x18, nD5, 0x04, nRst
	.byte	0x08, nE5, 0x04, nFs5, nE5, nD5, 0x16, nRst, 0x02, nE5, 0x04, nRst
	.byte	0x08, nFs5, 0x04, nRst, 0x08, nG5, 0x06, nRst, nFs5, nD5, nRst, nA5
	.byte	0x36, smpsNoAttack, 0x06, nRst, 0x06, nB5, 0x18, nG5, 0x06, nRst, nCs6, 0x02
	.byte	nD6, 0x10, nCs6, 0x12, nB5, 0x04, nRst, 0x08, nA5, 0x04, nRst, 0x08
	.byte	nB5, 0x06, nRst, nA5, nFs5, nRst, nD5, 0x36, nRst, 0x0C, nE5, 0x14
	.byte	nRst, 0x04, nE5, 0x08, nRst, 0x04, nFs5, 0x0C, nE5, 0x06, nRst, nAb5
	.byte	0x0C, nB5, 0x04, nRst, 0x08, nA5, 0x04, nRst, 0x14, nG5, 0x18, nFs5
	.byte	nE5, nRst, 0x0C, nA4, 0x18, nD5, 0x04, nRst, 0x08, nE5, 0x12, nD5
	.byte	nE5, 0x04, nRst, 0x08, nFs5, 0x04, nRst, 0x08, nG5, 0x06, nRst, nFs5
	.byte	nD5, nRst, nD5, 0x36, nRst, 0x0C, nA4, 0x18, nD5, 0x06, nRst, nE5
	.byte	nFs5, nE5, nD5, 0x12, nE5, 0x04, nRst, 0x08, nFs5, 0x02, nRst, 0x0A
	.byte	nG5, 0x06, nRst, nFs5, nD5, nRst, nA5, 0x36, nRst, 0x0C, nA5, 0x02
	.byte	nB5, 0x16, nG5, 0x06, nRst, nCs6, 0x02, nD6, 0x10, nCs6, 0x12, nB5
	.byte	0x04, nRst, 0x08, nA5, 0x04, nRst, 0x08, nB5, 0x06, nRst, nA5, nFs5
	.byte	nRst, nD5, 0x32, nRst, 0x04, nE5, 0x12, nRst, 0x06, nG5, 0x14, nRst
	.byte	0x04, nFs5, 0x12, nRst, 0x06, nE5, 0x12, nRst, 0x06, nD5, 0x0A, nRst
	.byte	0x0E, nD5, 0x18, nCs5, nC5, nB4, nD5, 0x06, nRst, nB4, nRst, nG5
	.byte	0x12, nD5, 0x10, nG5, 0x06, nRst, 0x08, nFs5, 0x06, nRst, nG5, nRst
	.byte	nFs5, nCs5, nRst, nFs5, 0x36, nRst, 0x0C, nE5, 0x10, nRst, 0x08, nE5
	.byte	0x06, nRst, nE5, 0x0C, nD5, 0x04, nRst, 0x08, nCs5, 0x06, nRst, nE5
	.byte	0x04, nRst, 0x08, nD5, 0x0C, nCs5, 0x04, nRst, 0x08, nB4, 0x0C, nCs5
	.byte	0x04, nRst, 0x08, nD5, 0x0C, nCs5, 0x04, nRst, 0x08, nB4, 0x0C, nA4
	.byte	0x04, nRst, 0x08, nRst, 0x0C, nB4, 0x10, nRst, 0x08, nB4, 0x06, nRst
	.byte	nD5, 0x12, nRst, 0x06, nB5, 0x10, nRst, 0x08, nCs5, 0x10, nRst, 0x08
	.byte	nCs5, 0x0E, nRst, 0x0A, nCs5, 0x26, nRst, 0x0A, nB4, 0x0C, nRst, 0x06
	.byte	nB4, 0x0C, nRst, 0x06, nB4, nRst, nAb5, 0x0E, nRst, 0x04, nB4, 0x0C
	.byte	nRst, 0x06, nAb5, nRst, nA5, 0x04, nRst, 0x02, nCs5, 0x04, nRst, 0x08
	.byte	nA5, 0x02, nRst, 0x04, nCs5, nRst, 0x08, nA5, 0x04, nRst, 0x08, nA5
	.byte	0x26, nRst, 0x0A
	smpsJump            Snd_SlotBonus_Jump01

/*  PSG1 Data */
Snd_SlotBonus_PSG1:
	smpsPSGvoice        sTone_09
	.byte	nRst, 0x02
	smpsCall            Snd_SlotBonus_Call07

/*  PSG2 Data */
Snd_SlotBonus_PSG2:
	smpsPSGvoice        sTone_09
	.byte	nRst, 0x03
	smpsCall            Snd_SlotBonus_Call06

/*  PSG3 Data */
Snd_SlotBonus_PSG3:
	smpsPSGform         0xE7

Snd_SlotBonus_Loop00:
	smpsCall            Snd_SlotBonus_Call00
	smpsLoop            0x00, 0x04, Snd_SlotBonus_Loop00

Snd_SlotBonus_Loop01:
	smpsCall            Snd_SlotBonus_Call00
	smpsLoop            0x00, 0x07, Snd_SlotBonus_Loop01
	smpsCall            Snd_SlotBonus_Call01

Snd_SlotBonus_Loop02:
	smpsCall            Snd_SlotBonus_Call02
	smpsLoop            0x00, 0x07, Snd_SlotBonus_Loop02
	smpsCall            Snd_SlotBonus_Call03

Snd_SlotBonus_Loop03:
	smpsCall            Snd_SlotBonus_Call02
	smpsLoop            0x00, 0x03, Snd_SlotBonus_Loop03
	smpsCall            Snd_SlotBonus_Call03
	smpsCall            Snd_SlotBonus_Call04

Snd_SlotBonus_Loop04:
	smpsCall            Snd_SlotBonus_Call02
	smpsLoop            0x00, 0x02, Snd_SlotBonus_Loop04
	smpsCall            Snd_SlotBonus_Call05
	smpsJump            Snd_SlotBonus_Loop01

Snd_SlotBonus_Call00:
	smpsPSGvoice        sTone_01
	.byte	nB6, 0x18, nB6, nB6, nB6
	smpsReturn

Snd_SlotBonus_Call01:
	.byte	nRst, 0x30
	smpsPSGvoice        sTone_01
	.byte	nB6, 0x18
	smpsPSGvoice        sTone_02
	.byte	nB6, 0x18
	smpsReturn

Snd_SlotBonus_Call02:
	smpsPSGvoice        sTone_01
	.byte	nB6, 0x0C, nB6, nB6, nB6, nB6, nB6, nB6, nB6
	smpsReturn

Snd_SlotBonus_Call03:
	.byte	nRst, 0x30
	smpsPSGvoice        sTone_02
	.byte	nB6, 0x18, nB6
	smpsReturn

Snd_SlotBonus_Call04:
	.byte	nRst, 0x0C
	smpsPSGvoice        sTone_01
	.byte	nB6, 0x0C, nB6, nB6, nB6, nB6, nB6, nB6
	smpsReturn

Snd_SlotBonus_Call05:
	smpsPSGvoice        sTone_02
	.byte	nB6, 0x18, nB6, nB6, nB6
	smpsReturn

/*  DAC Data */
Snd_SlotBonus_DAC:
	.byte	dElectricFloorTom, 0x0C, dElectricFloorTom, dMuffledSnare, 0x12, dElectricHighTom, 0x06, dKickS3, dElectricHighTom, dElectricMidTom, dElectricMidTom, dElectricLowTom
	.byte	dElectricLowTom, dClapS3, 0x0C, dElectricFloorTom, dElectricFloorTom, dKickS3, 0x06, 0x0C, dKickS3, dSnareS3, dElectricMidTom, 0x06
	.byte	dElectricLowTom, 0x0C, dClapS3, dElectricFloorTom, dElectricFloorTom, dMuffledSnare, 0x06, dElectricFloorTom, 0x0C, 0x06, dElectricHighTom, dElectricHighTom
	.byte	0x0C, dElectricMidTom, 0x06, dElectricMidTom, dElectricLowTom, dClapS3, 0x0C, dKickS3, dKickS3, 0x06, dSnareS3, 0x0C
	.byte	dKickS3, 0x06, dElectricMidTom, dElectricLowTom, dKickS3, dSnareS3, dSnareS3, 0x0C, dMuffledSnare, dSnareS3, 0x06, dSnareS3

Snd_SlotBonus_Jump00:
	.byte	dKickS3, 0x18, dMuffledSnare, 0x12, dSnareS3, 0x06, dKickS3, dElectricHighTom, 0x12, dElectricMidTom, 0x0C, dClapS3
	.byte	dKickS3, 0x18, dMuffledSnare, 0x12, dSnareS3, 0x06, dKickS3, dElectricMidTom, 0x12, dElectricFloorTom, 0x0C, dClapS3
	.byte	dKickS3, 0x18, dMuffledSnare, 0x06, dSnareS3, 0x0C, 0x06, dKickS3, dElectricHighTom, dElectricHighTom, 0x0C, dElectricMidTom
	.byte	dClapS3, dKickS3, 0x18, dMuffledSnare, 0x0C, dSnareS3, 0x06, dSnareS3, dKickS3, dElectricMidTom, dElectricMidTom, 0x0C
	.byte	dElectricFloorTom, dClapS3, dKickS3, 0x18, dMuffledSnare, 0x12, dSnareS3, 0x06, dKickS3, dElectricHighTom, 0x12, dElectricMidTom
	.byte	0x0C, dClapS3, dKickS3, 0x18, dMuffledSnare, 0x12, dSnareS3, 0x06, dKickS3, dElectricMidTom, 0x12, dElectricFloorTom
	.byte	0x0C, dClapS3, dKickS3, 0x18, dMuffledSnare, 0x06, dSnareS3, 0x0C, 0x06, dKickS3, dElectricHighTom, dElectricHighTom
	.byte	0x0C, dElectricMidTom, dClapS3, dCrashCymbal, 0x18, dCrashCymbal, dMuffledSnare, 0x06, dSnareS3, dSnareS3, dSnareS3, dMuffledSnare
	.byte	dSnareS3, dSnareS3, dSnareS3, dKickS3, dKickS3, dSnareS3, 0x0C, dKickS3, dElectricLowTom, 0x06, dKickS3, 0x0C
	.byte	dElectricHighTom, 0x06, 0x0C, dElectricLowTom, 0x06, dKickS3, dSnareS3, 0x0C, dKickS3, 0x06, dKickS3, dSnareS3
	.byte	0x0C, dKickS3, dElectricLowTom, 0x06, dKickS3, 0x0C, dElectricHighTom, 0x06, 0x0C, dElectricLowTom, 0x06, dKickS3
	.byte	dElectricLowTom, 0x0C, dKickS3, 0x06, dKickS3, dSnareS3, 0x0C, dKickS3, dElectricLowTom, 0x06, dKickS3, 0x0C
	.byte	dElectricHighTom, 0x06, 0x0C, dElectricLowTom, 0x06, dKickS3, dSnareS3, dSnareS3, dKickS3, dKickS3, dSnareS3, 0x0C
	.byte	dKickS3, dElectricLowTom, 0x06, dKickS3, 0x0C, dElectricHighTom, 0x06, 0x0C, dMuffledSnare, 0x06, dSnareS3, 0x0C
	.byte	0x06, dKickS3, dKickS3, dSnareS3, 0x0C, dKickS3, dElectricLowTom, 0x06, dKickS3, 0x0C, dElectricHighTom, 0x06
	.byte	0x0C, dElectricLowTom, 0x06, dKickS3, dSnareS3, 0x0C, dKickS3, 0x06, dKickS3, dSnareS3, 0x0C, dKickS3
	.byte	dElectricLowTom, 0x06, dKickS3, 0x0C, dElectricHighTom, 0x06, 0x0C, dElectricLowTom, 0x06, dKickS3, dElectricLowTom, 0x0C
	.byte	dKickS3, 0x06, dKickS3, dSnareS3, 0x0C, dKickS3, dElectricLowTom, 0x06, dKickS3, 0x0C, dElectricHighTom, 0x06
	.byte	0x0C, dElectricLowTom, 0x06, dKickS3, dSnareS3, dSnareS3, dCrashCymbal, 0x18, dCrashCymbal, dMuffledSnare, 0x06, dSnareS3
	.byte	0x0C, 0x06, dElectricHighTom, dElectricMidTom, dElectricLowTom, dElectricFloorTom, dKickS3, 0x0C, dSnareS3, dKickS3, 0x06, 0x0C
	.byte	dElectricHighTom, 0x06, dKickS3, 0x0C, dSnareS3, dKickS3, 0x06, 0x0C, dElectricLowTom, 0x06, dKickS3, 0x0C
	.byte	dSnareS3, dKickS3, 0x06, dKickS3, dElectricMidTom, dElectricMidTom, dKickS3, 0x0C, dSnareS3, dKickS3, 0x06, dKickS3
	.byte	dElectricFloorTom, dElectricFloorTom, dKickS3, 0x0C, dSnareS3, dKickS3, 0x06, dKickS3, dElectricHighTom, dElectricHighTom, dKickS3, 0x0C
	.byte	dSnareS3, dKickS3, 0x06, dKickS3, dElectricLowTom, dElectricLowTom, dCrashCymbal, 0x18, dCrashCymbal, dMuffledSnare, 0x06, dElectricHighTom
	.byte	dSnareS3, dElectricLowTom, dMuffledSnare, 0x0C, dSnareS3, 0x06, dSnareS3, dCrashCymbal, 0x0C, dSnareS3, dKickS3, 0x06
	.byte	0x0C, dElectricHighTom, 0x06, dKickS3, 0x0C, dSnareS3, dKickS3, 0x06, 0x0C, dElectricLowTom, 0x06, dKickS3
	.byte	0x0C, dSnareS3, dKickS3, 0x06, dKickS3, dElectricMidTom, dElectricMidTom, dKickS3, 0x0C, dSnareS3, dKickS3, 0x06
	.byte	dKickS3, dElectricFloorTom, dElectricFloorTom, dKickS3, 0x0C, dSnareS3, dKickS3, 0x06, dKickS3, dElectricHighTom, dElectricHighTom, dKickS3
	.byte	0x0C, dSnareS3, dKickS3, 0x06, dKickS3, dElectricLowTom, dElectricLowTom, dSnareS3, dSnareS3, dKickS3, dSnareS3, dSnareS3
	.byte	dKickS3, dSnareS3, dKickS3, dSnareS3, 0x0C, dKickS3, 0x06, dKickS3, dClapS3, 0x18
	smpsJump            Snd_SlotBonus_Jump00

Snd_SlotBonus_Voices:
/* 	Voice 0x00 */
/* 	0x3B */
/* 	0x0D, 0x01, 0x00, 0x00, 	0x9F, 0x1F, 0x1F, 0x1F, 	0x0E, 0x0D, 0x09, 0x09 */
/* 	0x00, 0x00, 0x00, 0x00, 	0xDF, 0xDF, 0xDF, 0xDF, 	0x33, 0x15, 0x17, 0x80 */
	smpsVcAlgorithm     0x03
	smpsVcFeedback      0x07
	smpsVcUnusedBits    0x00
	smpsVcDetune        0x00, 0x00, 0x00, 0x00
	smpsVcCoarseFreq    0x00, 0x00, 0x01, 0x0D
	smpsVcRateScale     0x00, 0x00, 0x00, 0x02
	smpsVcAttackRate    0x1F, 0x1F, 0x1F, 0x1F
	smpsVcAmpMod        0x00, 0x00, 0x00, 0x00
	smpsVcDecayRate1    0x09, 0x09, 0x0D, 0x0E
	smpsVcDecayRate2    0x00, 0x00, 0x00, 0x00
	smpsVcDecayLevel    0x0D, 0x0D, 0x0D, 0x0D
	smpsVcReleaseRate   0x0F, 0x0F, 0x0F, 0x0F
	smpsVcTotalLevel    0x00, 0x17, 0x15, 0x33

/* 	Voice 0x01 */
/* 	0x3A */
/* 	0x01, 0x07, 0x01, 0x01, 	0x8E, 0x8E, 0x8D, 0x53, 	0x0E, 0x0E, 0x0E, 0x03 */
/* 	0x00, 0x00, 0x00, 0x07, 	0x1F, 0xFF, 0x1F, 0x0F, 	0x18, 0x28, 0x27, 0x80 */
	smpsVcAlgorithm     0x02
	smpsVcFeedback      0x07
	smpsVcUnusedBits    0x00
	smpsVcDetune        0x00, 0x00, 0x00, 0x00
	smpsVcCoarseFreq    0x01, 0x01, 0x07, 0x01
	smpsVcRateScale     0x01, 0x02, 0x02, 0x02
	smpsVcAttackRate    0x13, 0x0D, 0x0E, 0x0E
	smpsVcAmpMod        0x00, 0x00, 0x00, 0x00
	smpsVcDecayRate1    0x03, 0x0E, 0x0E, 0x0E
	smpsVcDecayRate2    0x07, 0x00, 0x00, 0x00
	smpsVcDecayLevel    0x00, 0x01, 0x0F, 0x01
	smpsVcReleaseRate   0x0F, 0x0F, 0x0F, 0x0F
	smpsVcTotalLevel    0x00, 0x27, 0x28, 0x18

/* 	Voice 0x02 */
/* 	0x3C */
/* 	0x01, 0x02, 0x0F, 0x04, 	0x8D, 0x52, 0x9F, 0x1F, 	0x09, 0x00, 0x00, 0x0D */
/* 	0x00, 0x00, 0x00, 0x00, 	0x23, 0x08, 0x02, 0xF7, 	0x15, 0x80, 0x1D, 0x87 */
	smpsVcAlgorithm     0x04
	smpsVcFeedback      0x07
	smpsVcUnusedBits    0x00
	smpsVcDetune        0x00, 0x00, 0x00, 0x00
	smpsVcCoarseFreq    0x04, 0x0F, 0x02, 0x01
	smpsVcRateScale     0x00, 0x02, 0x01, 0x02
	smpsVcAttackRate    0x1F, 0x1F, 0x12, 0x0D
	smpsVcAmpMod        0x00, 0x00, 0x00, 0x00
	smpsVcDecayRate1    0x0D, 0x00, 0x00, 0x09
	smpsVcDecayRate2    0x00, 0x00, 0x00, 0x00
	smpsVcDecayLevel    0x0F, 0x00, 0x00, 0x02
	smpsVcReleaseRate   0x07, 0x02, 0x08, 0x03
	smpsVcTotalLevel    0x07, 0x1D, 0x00, 0x15

/* 	Voice 0x03 */
/* 	0x06 */
/* 	0x01, 0x01, 0x01, 0x01, 	0x1F, 0x0F, 0x0F, 0x0F, 	0x0A, 0x0A, 0x08, 0x08 */
/* 	0x00, 0x00, 0x00, 0x00, 	0x0F, 0x0F, 0x0F, 0x0F, 	0x32, 0x94, 0x80, 0x80 */
	smpsVcAlgorithm     0x06
	smpsVcFeedback      0x00
	smpsVcUnusedBits    0x00
	smpsVcDetune        0x00, 0x00, 0x00, 0x00
	smpsVcCoarseFreq    0x01, 0x01, 0x01, 0x01
	smpsVcRateScale     0x00, 0x00, 0x00, 0x00
	smpsVcAttackRate    0x0F, 0x0F, 0x0F, 0x1F
	smpsVcAmpMod        0x00, 0x00, 0x00, 0x00
	smpsVcDecayRate1    0x08, 0x08, 0x0A, 0x0A
	smpsVcDecayRate2    0x00, 0x00, 0x00, 0x00
	smpsVcDecayLevel    0x00, 0x00, 0x00, 0x00
	smpsVcReleaseRate   0x0F, 0x0F, 0x0F, 0x0F
	smpsVcTotalLevel    0x00, 0x00, 0x14, 0x32

/* 	Voice 0x04 */
/* 	0x3A */
/* 	0x31, 0x25, 0x73, 0x41, 	0x5F, 0x1F, 0x1F, 0x9C, 	0x08, 0x05, 0x04, 0x1E */
/* 	0x03, 0x04, 0x02, 0x06, 	0x2F, 0x2F, 0x1F, 0x0F, 	0x29, 0x27, 0x1F, 0x80 */
	smpsVcAlgorithm     0x02
	smpsVcFeedback      0x07
	smpsVcUnusedBits    0x00
	smpsVcDetune        0x04, 0x07, 0x02, 0x03
	smpsVcCoarseFreq    0x01, 0x03, 0x05, 0x01
	smpsVcRateScale     0x02, 0x00, 0x00, 0x01
	smpsVcAttackRate    0x1C, 0x1F, 0x1F, 0x1F
	smpsVcAmpMod        0x00, 0x00, 0x00, 0x00
	smpsVcDecayRate1    0x1E, 0x04, 0x05, 0x08
	smpsVcDecayRate2    0x06, 0x02, 0x04, 0x03
	smpsVcDecayLevel    0x00, 0x01, 0x02, 0x02
	smpsVcReleaseRate   0x0F, 0x0F, 0x0F, 0x0F
	smpsVcTotalLevel    0x00, 0x1F, 0x27, 0x29

