Snd_Super_Header:
	smpsHeaderStartSong 3, 1
	smpsHeaderVoice     Snd_Super_Voices
	smpsHeaderChan      0x06, 0x03
	smpsHeaderTempo     0x01, 0x00

	smpsHeaderDAC       Snd_Super_DAC
	smpsHeaderFM        Snd_Super_FM1,	0x00, 0x0D
	smpsHeaderFM        Snd_Super_FM2,	0x0C, 0x09
	smpsHeaderFM        Snd_Super_FM3,	0x00, 0x11
	smpsHeaderFM        Snd_Super_FM4,	0x00, 0x11
	smpsHeaderFM        Snd_Super_FM5,	0x00, 0x11
	smpsHeaderPSG       Snd_Super_PSG1,	0x00, 0x02, 0x00, 0x00
	smpsHeaderPSG       Snd_Super_PSG2,	0x00, 0x02, 0x00, 0x00
	smpsHeaderPSG       Snd_Super_PSG3,	0x00, 0x02, 0x00, 0x00

/*  FM1 Data */
Snd_Super_FM1:
	smpsSetvoice        0x00
	smpsModSet          0x11, 0x01, 0x09, 0x08

Snd_Super_Jump04:
	.byte	nAb4, 0x24, nRst, 0x18, nFs4, 0x0C, nAb4, 0x06, nRst, nA4, 0x0C, nRst
	.byte	nAb4, 0x14, nRst, 0x04, nE4, 0x14, nRst, 0x04, nFs4, 0x24, nAb4, nRst
	.byte	0x18, nFs4, 0x0C, nAb4, 0x06, nRst, nA4, 0x0C, nRst, nAb4, 0x14, nRst
	.byte	0x04, nE4, 0x14, nRst, 0x04, nFs4, 0x24, nG4, 0x30, smpsNoAttack, 0x18, nB4
	.byte	nA4, 0x30, nFs4, nAb4, smpsNoAttack, 0x30, smpsNoAttack, 0x60, nC4, 0x24, nRst, nE4
	.byte	0x0C, nD4, nRst, nA3, 0x18, nFs3, nA3, 0x24, nRst, 0x30, nEb4, 0x12
	.byte	nE4, nFs4, 0x0C, 0x18, nG4, 0x0C, nE4, 0x30, nRst, 0x0C, nCs4, 0x30
	.byte	nEb4, nE4, 0x14, nRst, 0x04, nE4, 0x14, nRst, 0x04, nE4, 0x12, nFs4
	.byte	nAb4, 0x0C, nB4, 0x30, smpsNoAttack, 0x30, smpsNoAttack, 0x60, nA5, 0x24, nAb5, nE5
	.byte	0x18, smpsNoAttack, 0x30, smpsNoAttack, 0x18, nAb5, nA5, 0x10, nRst, 0x08, nA5, 0x0C
	.byte	nAb5, 0x18, nA5, 0x0C, nAb5, nE5, smpsNoAttack, 0x30, smpsNoAttack, 0x18, nFs5, 0x10
	.byte	nRst, 0x08, nG5, 0x24, nFs5, nE5, 0x18, nA5, nG5, nFs5, nE5, nAb5
	.byte	0x30, smpsNoAttack, 0x30, smpsNoAttack, 0x60, nA5, 0x24, nAb5, nE5, 0x18, nRst, 0x30
	.byte	nRst, nA5, 0x10, nRst, 0x08, nA5, 0x0C, nAb5, 0x14, nRst, 0x04, nA5
	.byte	0x0C, nAb5, nE5, nRst, 0x30, nE5, 0x10, nRst, 0x08, nFs5, 0x10, nRst
	.byte	0x08, nG5, 0x24, nFs5, nE5, 0x18, nA5, nFs5, nA5, nD6, nE6, 0x30
	.byte	smpsNoAttack, 0x30, smpsNoAttack, 0x60, smpsNoAttack, 0x60, smpsNoAttack, 0x30, nRst, 0x30
	smpsJump            Snd_Super_Jump04

/*  FM2 Data */
Snd_Super_FM2:
	smpsSetvoice        0x01
	smpsPan             panCenter, 0x00

Snd_Super_Jump03:
	.byte	nE2, 0x0C, nD2, nE2, nRst, 0x06, nE2, nRst, nE2, nD2, 0x0C, nE2
	.byte	0x12, nE3, 0x04, nRst, 0x02, nE2, 0x0C, nD2, nE2, nRst, 0x06, nE2
	.byte	nRst, nE2, nD2, 0x0C, nE2, 0x12, nE3, 0x04, nRst, 0x02, nE2, 0x0C
	.byte	nD2, nE2, nRst, 0x06, nE2, nRst, nE2, nD2, 0x0C, nE2, 0x12, nE3
	.byte	0x04, nRst, 0x02, nE2, 0x0C, nD2, nE2, nRst, 0x06, nE2, 0x0C, nE3
	.byte	0x04, nRst, 0x02, nE2, 0x0C, nD2, 0x06, nD3, 0x04, nRst, 0x02, nD2
	.byte	0x0C, nC2, nB1, nC2, nRst, 0x06, nC2, nRst, nC2, nB1, 0x0C, nC2
	.byte	0x12, nC3, 0x04, nRst, 0x02, nD2, 0x0C, nCs2, nD2, nRst, 0x06, nD2
	.byte	0x0C, nD3, 0x04, nRst, 0x02, nD2, 0x0C, nEb2, 0x06, nEb3, nEb2, 0x0C
	.byte	nE2, 0x0F, nRst, 0x03, nE2, 0x0F, nRst, 0x03, nAb2, 0x0F, nRst, 0x03
	.byte	nA2, 0x12, nB2, 0x0C, nD3, nE2, 0x0F, nRst, 0x03, nE2, 0x0F, nRst
	.byte	0x03, nAb2, 0x0F, nRst, 0x03, nA2, 0x12, nB2, 0x0C, nD3, nC2, 0x12
	.byte	nB1, nC2, 0x18, nRst, 0x24, nD2, 0x12, nCs2, nD2, 0x18, nRst, 0x24
	.byte	nEb2, 0x12, nD2, nEb2, 0x18, nRst, 0x24, nE2, 0x12, nEb2, nE2, 0x18
	.byte	nRst, 0x24, nA1, 0x12, nAb1, nA1, nAb1, nA1, 0x06, nRst, nA1, 0x0C
	.byte	0x12, nAb1, nA1, nAb1, nA1, 0x06, nRst, nA1, 0x0C, nB1, nB2, nAb1
	.byte	nAb2, nA1, nA2, nBb1, nBb2, nB1, nB2, nCs2, nCs3, nD2, nD3, nEb2
	.byte	nEb3, nE2, nD2, nE2, nRst, 0x06, nE2, nRst, nE2, nD2, 0x0C, nE2
	.byte	0x12, nE3, 0x04, nRst, 0x02, nE2, 0x0C, nD2, nE2, nRst, 0x06, nE2
	.byte	nRst, nE2, nD2, 0x0C, nE2, 0x12, nE3, 0x04, nRst, 0x02, nE2, 0x0C
	.byte	nD2, nE2, nRst, 0x06, nE2, nRst, nE2, nD2, 0x0C, nE2, 0x12, nE3
	.byte	0x04, nRst, 0x02, nE2, 0x0C, nD2, nE2, nRst, 0x06, nE2, 0x0C, nE3
	.byte	0x04, nRst, 0x02, nE2, 0x0C, nD2, 0x06, nD3, 0x04, nRst, 0x02, nD2
	.byte	0x0C, nC2, nB1, nC2, nRst, 0x06, nC2, nRst, nC2, nB1, 0x0C, nC2
	.byte	0x12, nC3, 0x06, nD2, 0x0C, nCs2, nD2, nRst, 0x06, nD2, 0x0C, nD3
	.byte	0x04, nRst, 0x02, nD2, 0x0C, nEb2, 0x06, nEb3, nEb2, 0x0C, nE2, 0x0F
	.byte	nRst, 0x03, nE2, 0x0F, nRst, 0x03, nAb2, 0x0F, nRst, 0x03, nA2, 0x12
	.byte	nB2, 0x0C, nD3, nE2, 0x0F, nRst, 0x03, nE2, 0x0F, nRst, 0x03, nAb2
	.byte	0x0F, nRst, 0x03, nA2, 0x12, nB2, 0x0C, nD3, nE2, nD2, nE2, nRst
	.byte	0x06, nE2, nRst, nE2, nD2, 0x0C, nE2, 0x12, nE3, 0x04, nRst, 0x02
	.byte	nE2, 0x0C, nD2, nE2, nRst, 0x06, nE2, nRst, nE2, nD2, 0x0C, nE2
	.byte	0x12, nE3, 0x04, nRst, 0x02, nE2, 0x0C, nD2, nE2, nRst, 0x06, nE2
	.byte	nRst, nE2, nD2, 0x0C, nE2, 0x12, nE3, 0x04, nRst, 0x02, nE2, 0x0C
	.byte	nD2, nE2, nRst, 0x06, nE2, 0x0C, nE3, 0x06, nE2, 0x0C, nD2, 0x06
	.byte	nD3, nD2, 0x0C, nC2, nB1, nC2, nRst, 0x06, nC2, nRst, nC2, nB1
	.byte	0x0C, nC2, 0x12, nC3, 0x06, nD2, 0x0C, nCs2, nD2, nRst, 0x06, nD2
	.byte	0x04, nRst, 0x08, nD2, 0x06, nCs2, 0x0C, nD2, 0x12, nD3, 0x06, nE2
	.byte	0x0F, nRst, 0x03, nE2, 0x0F, nRst, 0x03, nAb2, 0x0F, nRst, 0x03, nA2
	.byte	0x0F, nRst, 0x03, nB2, 0x0A, nRst, 0x02, nD3, 0x0A, nRst, 0x02, nE2
	.byte	0x0F, nRst, 0x03, nE2, 0x0F, nRst, 0x03, nAb2, 0x0F, nRst, 0x03, nA2
	.byte	0x0F, nRst, 0x03, nB2, 0x0A, nRst, 0x02, nD3, 0x0A, nRst, 0x02, nE2
	.byte	0x0F, nRst, 0x03, nE2, 0x0F, nRst, 0x03, nAb2, 0x0F, nRst, 0x03, nA2
	.byte	0x0F, nRst, 0x03, nB2, 0x0A, nRst, 0x02, nD3, 0x0A, nRst, 0x02, nE2
	.byte	0x0F, nRst, 0x03, nE2, 0x0F, nRst, 0x03, nAb2, 0x0F, nRst, 0x03, nA2
	.byte	0x0F, nRst, 0x03, nB2, 0x0A, nRst, 0x02, nD3, 0x0A, nRst, 0x02
	smpsJump            Snd_Super_Jump03

/*  FM3 Data */
Snd_Super_FM3:
	smpsSetvoice        0x02

Snd_Super_Jump02:
	.byte	nRst, 0x30, nRst, nRst, nRst, nRst, nRst, nRst, nRst, nRst, nRst, nRst
	.byte	nRst, nRst, nRst, nRst, nRst, 0x24
	smpsSetvoice        0x02
	.byte	nRst, 0x0C
	smpsModSet          0x07, 0x01, 0x04, 0x03
	smpsPan             panCenter, 0x00
	.byte	nE5, 0x30, nRst, nFs5, nRst, nFs5, nRst, nG5, nRst, nA5, 0x60, smpsNoAttack
	.byte	0x60, nB5, 0x60, nB2, 0x04, nCs3, nEb3, nE3, nEb3, nE3, nFs3, nAb3
	.byte	nFs3, nAb3, nA3, nB3, nA3, nB3, nCs4, nEb4, nB3, nCs4, nEb4, nE4
	.byte	nEb4, nE4, nFs4, nAb4, nB5, 0x1E, nRst, 0x06, nB5, 0x1E, nRst, 0x06
	.byte	nB5, 0x18, nA5, 0x24, nAb5, nE5, 0x18, nB5, 0x1E, nRst, 0x06, nB5
	.byte	0x1E, nRst, 0x06, nB5, 0x18, nA5, 0x10, nRst, 0x08, nA5, 0x0C, nAb5
	.byte	0x18, nA5, 0x0C, nAb5, nE5, nE6, 0x24, nD6, nC6, 0x12, nRst, 0x06
	.byte	nC6, 0x18, nB5, nA5, nB5, 0x14, nRst, 0x04, nB5, 0x30, smpsNoAttack, 0x30
	.byte	nRst, 0x30, nRst, nB5, 0x1E, nRst, 0x06, nB5, 0x1E, nRst, 0x06, nB5
	.byte	0x14, nRst, 0x04, nA5, 0x24, nAb5, nE5, 0x18, nB5, 0x1E, nRst, 0x06
	.byte	nB5, 0x1E, nRst, 0x06, nB5, 0x14, nRst, 0x04, nA5, 0x10, nRst, 0x08
	.byte	nA5, 0x0C, nAb5, 0x18, nA5, 0x0C, nAb5, nE5, nE6, 0x24, nD6, nC6
	.byte	0x14, nRst, 0x04, nC6, 0x18, nB5, nA5, nD6, nAb6, 0x30, smpsNoAttack, 0x30
	.byte	nRst, 0x30, nRst, nRst, nRst, nRst, nRst
	smpsJump            Snd_Super_Jump02

/*  FM4 Data */
Snd_Super_FM4:
	smpsSetvoice        0x03
	smpsPan             panLeft, 0x00
	smpsModSet          0x05, 0x01, 0x07, 0x03

Snd_Super_Jump01:
	.byte	nAb4, 0x0F, nRst, 0x03, nAb4, 0x04, nRst, 0x0E, nAb4, 0x0F, nRst, 0x03
	.byte	nAb4, 0x0F, nRst, 0x03, nFs4, 0x0A, nRst, 0x02, nFs4, 0x0A, nRst, 0x02
	.byte	nAb4, 0x0F, nRst, 0x03, nAb4, 0x04, nRst, 0x0E, nA4, 0x0F, nRst, 0x03
	.byte	nAb4, 0x0F, nRst, 0x03, nFs4, 0x0A, nRst, 0x02, nFs4, 0x0A, nRst, 0x02
	.byte	nAb4, 0x0F, nRst, 0x03, nAb4, 0x04, nRst, 0x0E, nAb4, 0x0F, nRst, 0x03
	.byte	nAb4, 0x0F, nRst, 0x03, nFs4, 0x0A, nRst, 0x02, nFs4, 0x0A, nRst, 0x02
	.byte	nAb4, 0x0F, nRst, 0x03, nAb4, 0x04, nRst, 0x0E, nA4, 0x0F, nRst, 0x03
	.byte	nAb4, 0x0F, nRst, 0x03, nFs4, 0x0A, nRst, 0x02, nFs4, 0x0A, nRst, 0x02
	.byte	nG4, 0x0F, nRst, 0x03, nG4, 0x04, nRst, 0x0E, nFs4, 0x0F, nRst, 0x03
	.byte	nE4, 0x0F, nRst, 0x03, nE4, 0x0A, nRst, 0x02, nE4, 0x0A, nRst, 0x02
	.byte	nA4, 0x0F, nRst, 0x03, nA4, 0x04, nRst, 0x0E, nG4, 0x0F, nRst, 0x03
	.byte	nFs4, 0x0F, nRst, 0x03, nFs4, 0x0A, nRst, 0x02, nFs4, 0x0A, nRst, 0x02
	.byte	nB4, 0x0F, nRst, 0x03, nA4, 0x04, nRst, 0x0E, nAb4, 0x0F, nRst, 0x03
	.byte	nAb4, 0x0F, nRst, 0x03, nA4, 0x0A, nRst, 0x02, nAb4, 0x0A, nRst, 0x02
	.byte	nB4, 0x0F, nRst, 0x03, nA4, 0x04, nRst, 0x0E, nAb4, 0x0F, nRst, 0x03
	.byte	nAb4, 0x0F, nRst, 0x03, nA4, 0x0A, nRst, 0x02, nAb4, 0x0A, nRst, 0x02
	smpsSetvoice        0x02
	smpsModSet          0x07, 0x01, 0x04, 0x02
	.byte	nC4, 0x30, nRst, nD4, nRst, nEb4, nRst, nE4, nRst, nE4, 0x60, smpsNoAttack
	.byte	0x60, nFs4, 0x60, smpsNoAttack, 0x60
	smpsSetvoice        0x03
	smpsModSet          0x05, 0x01, 0x07, 0x03
	.byte	nAb4, 0x0F, nRst, 0x03, nAb4, 0x04, nRst, 0x0E, nAb4, 0x0F, nRst, 0x03
	.byte	nAb4, 0x0F, nRst, 0x03, nFs4, 0x0A, nRst, 0x02, nFs4, 0x0A, nRst, 0x02
	.byte	nAb4, 0x0F, nRst, 0x03, nAb4, 0x04, nRst, 0x0E, nA4, 0x0F, nRst, 0x03
	.byte	nAb4, 0x0F, nRst, 0x03, nFs4, 0x0A, nRst, 0x02, nFs4, 0x0A, nRst, 0x02
	.byte	nAb4, 0x0F, nRst, 0x03, nAb4, 0x04, nRst, 0x0E, nAb4, 0x0F, nRst, 0x03
	.byte	nAb4, 0x0F, nRst, 0x03, nFs4, 0x0A, nRst, 0x02, nFs4, 0x0A, nRst, 0x02
	.byte	nAb4, 0x0F, nRst, 0x03, nAb4, 0x04, nRst, 0x0E, nA4, 0x0F, nRst, 0x03
	.byte	nAb4, 0x0F, nRst, 0x03, nFs4, 0x0A, nRst, 0x02, nFs4, 0x0A, nRst, 0x02
	.byte	nG4, 0x0F, nRst, 0x03, nG4, 0x04, nRst, 0x0E, nFs4, 0x0F, nRst, 0x03
	.byte	nE4, 0x0F, nRst, 0x03, nE4, 0x0A, nRst, 0x02, nE4, 0x0A, nRst, 0x02
	.byte	nA4, 0x0F, nRst, 0x03, nA4, 0x04, nRst, 0x0E, nG4, 0x0F, nRst, 0x03
	.byte	nFs4, 0x0F, nRst, 0x03, nFs4, 0x0A, nRst, 0x02, nFs4, 0x0A, nRst, 0x02
	.byte	nB4, 0x0F, nRst, 0x03, nA4, 0x04, nRst, 0x0E, nAb4, 0x0F, nRst, 0x03
	.byte	nAb4, 0x0F, nRst, 0x03, nA4, 0x0A, nRst, 0x02, nAb4, 0x0A, nRst, 0x02
	.byte	nB4, 0x0F, nRst, 0x03, nA4, 0x04, nRst, 0x0E, nAb4, 0x0F, nRst, 0x03
	.byte	nAb4, 0x0F, nRst, 0x03, nA4, 0x0A, nRst, 0x02, nAb4, 0x0A, nRst, 0x02
	.byte	nAb4, 0x0F, nRst, 0x03, nAb4, 0x04, nRst, 0x0E, nAb4, 0x0F, nRst, 0x03
	.byte	nAb4, 0x0F, nRst, 0x03, nFs4, 0x0A, nRst, 0x02, nFs4, 0x0A, nRst, 0x02
	.byte	nAb4, 0x0F, nRst, 0x03, nAb4, 0x04, nRst, 0x0E, nA4, 0x0F, nRst, 0x03
	.byte	nAb4, 0x0F, nRst, 0x03, nFs4, 0x0A, nRst, 0x02, nFs4, 0x0A, nRst, 0x02
	.byte	nAb4, 0x0F, nRst, 0x03, nAb4, 0x04, nRst, 0x0E, nAb4, 0x0F, nRst, 0x03
	.byte	nAb4, 0x0F, nRst, 0x03, nFs4, 0x0A, nRst, 0x02, nFs4, 0x0A, nRst, 0x02
	.byte	nAb4, 0x0F, nRst, 0x03, nAb4, 0x04, nRst, 0x0E, nA4, 0x0F, nRst, 0x03
	.byte	nAb4, 0x0F, nRst, 0x03, nFs4, 0x0A, nRst, 0x02, nFs4, 0x0A, nRst, 0x02
	.byte	nG4, 0x0F, nRst, 0x03, nG4, 0x04, nRst, 0x0E, nFs4, 0x0F, nRst, 0x03
	.byte	nE4, 0x0F, nRst, 0x03, nE4, 0x0A, nRst, 0x02, nE4, 0x0A, nRst, 0x02
	.byte	nA4, 0x0F, nRst, 0x03, nA4, 0x04, nRst, 0x0E, nG4, 0x0F, nRst, 0x03
	.byte	nFs4, 0x0F, nRst, 0x03, nFs4, 0x0A, nRst, 0x02, nFs4, 0x0A, nRst, 0x02
	.byte	nB4, 0x0F, nRst, 0x03, nA4, 0x04, nRst, 0x0E, nAb4, 0x0F, nRst, 0x03
	.byte	nAb4, 0x0F, nRst, 0x03, nA4, 0x0A, nRst, 0x02, nAb4, 0x0A, nRst, 0x02
	.byte	nB4, 0x0F, nRst, 0x03, nA4, 0x04, nRst, 0x0E, nAb4, 0x0F, nRst, 0x03
	.byte	nAb4, 0x0F, nRst, 0x03, nA4, 0x0A, nRst, 0x02, nAb4, 0x0A, nRst, 0x02
	.byte	nB4, 0x0F, nRst, 0x03, nA4, 0x04, nRst, 0x0E, nAb4, 0x0F, nRst, 0x03
	.byte	nAb4, 0x0F, nRst, 0x03, nA4, 0x0A, nRst, 0x02, nAb4, 0x0A, nRst, 0x02
	.byte	nB4, 0x0F, nRst, 0x03, nA4, 0x04, nRst, 0x0E, nAb4, 0x0F, nRst, 0x03
	.byte	nAb4, 0x0F, nRst, 0x03, nA4, 0x0A, nRst, 0x02, nAb4, 0x0A, nRst, 0x02
	smpsJump            Snd_Super_Jump01

/*  FM5 Data */
Snd_Super_FM5:
	smpsSetvoice        0x03
	smpsPan             panRight, 0x00
	smpsModSet          0x05, 0x01, 0x07, 0x03

Snd_Super_Jump00:
	.byte	nE4, 0x0F, nRst, 0x03, nE4, 0x04, nRst, 0x0E, nE4, 0x0F, nRst, 0x03
	.byte	nE4, 0x0F, nRst, 0x03, nE4, 0x0A, nRst, 0x02, nE4, 0x0A, nRst, 0x02
	.byte	nE4, 0x0F, nRst, 0x03, nE4, 0x04, nRst, 0x0E, nE4, 0x0F, nRst, 0x03
	.byte	nE4, 0x0F, nRst, 0x03, nE4, 0x0A, nRst, 0x02, nE4, 0x0A, nRst, 0x02
	.byte	nE4, 0x0F, nRst, 0x03, nE4, 0x04, nRst, 0x0E, nE4, 0x0F, nRst, 0x03
	.byte	nE4, 0x0F, nRst, 0x03, nE4, 0x0A, nRst, 0x02, nE4, 0x0A, nRst, 0x02
	.byte	nE4, 0x0F, nRst, 0x03, nE4, 0x04, nRst, 0x0E, nE4, 0x0F, nRst, 0x03
	.byte	nE4, 0x0F, nRst, 0x03, nE4, 0x0A, nRst, 0x02, nE4, 0x0A, nRst, 0x02
	.byte	nC4, 0x0F, nRst, 0x03, nC4, 0x04, nRst, 0x0E, nC4, 0x0F, nRst, 0x03
	.byte	nC4, 0x0F, nRst, 0x03, nC4, 0x0A, nRst, 0x02, nC4, 0x0A, nRst, 0x02
	.byte	nD4, 0x0F, nRst, 0x03, nD4, 0x04, nRst, 0x0E, nD4, 0x0F, nRst, 0x03
	.byte	nD4, 0x0F, nRst, 0x03, nD4, 0x0A, nRst, 0x02, nD4, 0x0A, nRst, 0x02
	.byte	nE4, 0x0F, nRst, 0x03, nE4, 0x04, nRst, 0x0E, nE4, 0x0F, nRst, 0x03
	.byte	nE4, 0x0F, nRst, 0x03, nE4, 0x0A, nRst, 0x02, nE4, 0x0A, nRst, 0x02
	.byte	nE4, 0x0F, nRst, 0x03, nE4, 0x04, nRst, 0x0E, nE4, 0x0F, nRst, 0x03
	.byte	nE4, 0x0F, nRst, 0x03, nE4, 0x0A, nRst, 0x02, nE4, 0x0A, nRst, 0x02
	smpsSetvoice        0x02
	smpsModSet          0x07, 0x01, 0x04, 0x02
	.byte	nG3, 0x30, nRst, nA3, nRst, nA3, nRst, nB3, nRst, nCs4, smpsNoAttack, 0x30
	.byte	nRst, 0x30, nRst, nEb4, smpsNoAttack, 0x30, nRst, 0x30, nRst
	smpsSetvoice        0x03
	smpsModSet          0x05, 0x01, 0x07, 0x03
	.byte	nE4, 0x0F, nRst, 0x03, nE4, 0x04, nRst, 0x0E, nE4, 0x0F, nRst, 0x03
	.byte	nE4, 0x0F, nRst, 0x03, nE4, 0x0A, nRst, 0x02, nE4, 0x0A, nRst, 0x02
	.byte	nE4, 0x0F, nRst, 0x03, nE4, 0x04, nRst, 0x0E, nE4, 0x0F, nRst, 0x03
	.byte	nE4, 0x0F, nRst, 0x03, nE4, 0x0A, nRst, 0x02, nE4, 0x01, nRst, 0x0B
	.byte	nE4, 0x0F, nRst, 0x03, nE4, 0x04, nRst, 0x0E, nE4, 0x0F, nRst, 0x03
	.byte	nE4, 0x0F, nRst, 0x03, nE4, 0x0A, nRst, 0x02, nE4, 0x0A, nRst, 0x02
	.byte	nE4, 0x0F, nRst, 0x03, nE4, 0x04, nRst, 0x0E, nE4, 0x0F, nRst, 0x03
	.byte	nE4, 0x0F, nRst, 0x03, nE4, 0x0A, nRst, 0x02, nE4, 0x0A, nRst, 0x02
	.byte	nC4, 0x0F, nRst, 0x03, nC4, 0x04, nRst, 0x0E, nC4, 0x0F, nRst, 0x03
	.byte	nC4, 0x0F, nRst, 0x03, nC4, 0x0A, nRst, 0x02, nC4, 0x0A, nRst, 0x02
	.byte	nD4, 0x0F, nRst, 0x03, nD4, 0x04, nRst, 0x0E, nD4, 0x0F, nRst, 0x03
	.byte	nD4, 0x0F, nRst, 0x03, nD4, 0x0A, nRst, 0x02, nD4, 0x0A, nRst, 0x02
	.byte	nE4, 0x0F, nRst, 0x03, nE4, 0x04, nRst, 0x0E, nE4, 0x0F, nRst, 0x03
	.byte	nE4, 0x0F, nRst, 0x03, nE4, 0x0A, nRst, 0x02, nE4, 0x0A, nRst, 0x02
	.byte	nE4, 0x0F, nRst, 0x03, nE4, 0x04, nRst, 0x0E, nE4, 0x0F, nRst, 0x03
	.byte	nE4, 0x0F, nRst, 0x03, nE4, 0x0A, nRst, 0x02, nE4, 0x0A, nRst, 0x02
	.byte	nE4, 0x0F, nRst, 0x03, nE4, 0x04, nRst, 0x0E, nE4, 0x0F, nRst, 0x03
	.byte	nE4, 0x0F, nRst, 0x03, nE4, 0x0A, nRst, 0x02, nE4, 0x0A, nRst, 0x02
	.byte	nE4, 0x0F, nRst, 0x03, nE4, 0x04, nRst, 0x0E, nE4, 0x0F, nRst, 0x03
	.byte	nE4, 0x0F, nRst, 0x03, nE4, 0x0A, nRst, 0x02, nE4, 0x0A, nRst, 0x02
	.byte	nE4, 0x0F, nRst, 0x03, nE4, 0x04, nRst, 0x0E, nE4, 0x0F, nRst, 0x03
	.byte	nE4, 0x0F, nRst, 0x03, nE4, 0x0A, nRst, 0x02, nE4, 0x0A, nRst, 0x02
	.byte	nE4, 0x0F, nRst, 0x03, nE4, 0x04, nRst, 0x0E, nE4, 0x0F, nRst, 0x03
	.byte	nE4, 0x0F, nRst, 0x03, nE4, 0x0A, nRst, 0x02, nE4, 0x0A, nRst, 0x02
	.byte	nC4, 0x0F, nRst, 0x03, nC4, 0x04, nRst, 0x0E, nC4, 0x0F, nRst, 0x03
	.byte	nC4, 0x0F, nRst, 0x03, nC4, 0x0A, nRst, 0x02, nC4, 0x0A, nRst, 0x02
	.byte	nD4, 0x0F, nRst, 0x03, nD4, 0x04, nRst, 0x0E, nD4, 0x0F, nRst, 0x03
	.byte	nD4, 0x0F, nRst, 0x03, nD4, 0x0A, nRst, 0x02, nD4, 0x0A, nRst, 0x02
	.byte	nE4, 0x0F, nRst, 0x03, nE4, 0x04, nRst, 0x0E, nE4, 0x0F, nRst, 0x03
	.byte	nE4, 0x0F, nRst, 0x03, nE4, 0x0A, nRst, 0x02, nE4, 0x0A, nRst, 0x02
	.byte	nE4, 0x0F, nRst, 0x03, nE4, 0x04, nRst, 0x0E, nE4, 0x0F, nRst, 0x03
	.byte	nE4, 0x0F, nRst, 0x03, nE4, 0x0A, nRst, 0x02, nE4, 0x0A, nRst, 0x02
	.byte	nE4, 0x0F, nRst, 0x03, nE4, 0x04, nRst, 0x0E, nE4, 0x0F, nRst, 0x03
	.byte	nE4, 0x0F, nRst, 0x03, nE4, 0x0A, nRst, 0x02, nE4, 0x0A, nRst, 0x02
	.byte	nE4, 0x0F, nRst, 0x03, nE4, 0x04, nRst, 0x0E, nE4, 0x0F, nRst, 0x03
	.byte	nE4, 0x0F, nRst, 0x03, nE4, 0x0A, nRst, 0x02, nE4, 0x0A, nRst, 0x02
	smpsJump            Snd_Super_Jump00

/*  PSG1 Data */
Snd_Super_PSG1:
	smpsStop

/*  PSG2 Data */
Snd_Super_PSG2:
	smpsStop

/*  PSG3 Data */
Snd_Super_PSG3:
	smpsStop

/*  DAC Data */
Snd_Super_DAC:
	.byte	dKickS3, 0x18, dSnareS3, 0x12, 0x06, dKickS3, 0x18, dSnareS3, dKickS3, dSnareS3, 0x12, 0x06
	.byte	dKickS3, 0x18, dSnareS3, dKickS3, dSnareS3, 0x12, 0x06, dKickS3, 0x18, dSnareS3, dKickS3, dSnareS3
	.byte	0x12, 0x06, dKickS3, 0x18, dSnareS3, dKickS3, dSnareS3, 0x12, 0x06, dKickS3, 0x18, dSnareS3
	.byte	dKickS3, dSnareS3, 0x12, 0x06, dKickS3, 0x18, dSnareS3, dKickS3, dSnareS3, 0x12, 0x06, dKickS3
	.byte	0x18, dSnareS3, dKickS3, dSnareS3, 0x12, 0x06, dKickS3, dSnareS3, dSnareS3, 0x0C, dSnareS3, dSnareS3
	.byte	0x06, dSnareS3, dKickS3, 0x18, dKickS3, dKickS3, dSnareS3, dKickS3, dKickS3, dKickS3, dSnareS3, 0x12
	.byte	0x06, dKickS3, 0x18, dKickS3, dKickS3, dSnareS3, dKickS3, dKickS3, dKickS3, dSnareS3, 0x0C, 0x06
	.byte	dSnareS3, dKickS3, 0x18, dSnareS3, dKickS3, dSnareS3, dKickS3, dSnareS3, dKickS3, dSnareS3, dKickS3, dSnareS3
	.byte	dKickS3, dSnareS3, dKickS3, 0x0C, dSnareS3, dKickS3, 0x06, dSnareS3, dSnareS3, 0x0C, dSnareS3, dSnareS3
	.byte	dSnareS3, 0x06, dSnareS3, dSnareS3, 0x0C, dKickS3, 0x18, dSnareS3, 0x12, 0x06, dKickS3, dSnareS3
	.byte	0x12, 0x18, dKickS3, dSnareS3, 0x12, 0x06, dKickS3, dSnareS3, 0x12, 0x18, dKickS3, dSnareS3
	.byte	0x12, 0x06, dKickS3, dSnareS3, 0x12, 0x18, dKickS3, dSnareS3, 0x12, 0x06, dKickS3, dSnareS3
	.byte	0x12, 0x0C, 0x06, dSnareS3, dKickS3, 0x18, dSnareS3, 0x12, 0x06, dKickS3, dSnareS3, 0x12
	.byte	0x18, dKickS3, dSnareS3, 0x12, 0x06, dKickS3, dSnareS3, 0x12, 0x18, dKickS3, dSnareS3, 0x12
	.byte	0x06, dKickS3, dSnareS3, 0x12, 0x18, dKickS3, dSnareS3, 0x12, 0x06, dKickS3, dSnareS3, 0x12
	.byte	0x0C, 0x06, dSnareS3, dKickS3, 0x18, dSnareS3, 0x12, 0x06, dKickS3, dSnareS3, 0x12, dSnareS3
	.byte	dSnareS3, 0x06, dKickS3, 0x18, dSnareS3, 0x12, 0x06, dKickS3, dSnareS3, 0x12, dSnareS3, dSnareS3
	.byte	0x06, dKickS3, 0x18, dSnareS3, 0x12, 0x06, dKickS3, dSnareS3, 0x12, dSnareS3, dSnareS3, 0x06
	.byte	dKickS3, 0x18, dSnareS3, 0x12, 0x06, dKickS3, dSnareS3, 0x12, dSnareS3, dSnareS3, 0x06, dKickS3
	.byte	0x18, dSnareS3, 0x12, 0x06, dKickS3, dSnareS3, 0x12, dSnareS3, dSnareS3, 0x06, dKickS3, 0x18
	.byte	dSnareS3, 0x12, 0x06, dKickS3, dSnareS3, 0x12, dSnareS3, dSnareS3, 0x06, dKickS3, 0x18, dSnareS3
	.byte	0x12, 0x06, dKickS3, dSnareS3, 0x12, dSnareS3, dSnareS3, 0x06, dKickS3, 0x18, dSnareS3, 0x12
	.byte	0x06, dKickS3, dSnareS3, 0x12, dSnareS3, dSnareS3, 0x06, dKickS3, 0x18, dSnareS3, 0x12, 0x06
	.byte	dKickS3, dSnareS3, 0x12, dSnareS3, dSnareS3, 0x06, dKickS3, 0x18, dSnareS3, 0x12, 0x06, dKickS3
	.byte	dSnareS3, 0x12, dSnareS3, dSnareS3, 0x06
	smpsJump            Snd_Super_DAC

Snd_Super_Voices:
/* 	Voice 0x00 */
/* 	0x3A */
/* 	0x11, 0x12, 0x51, 0x31, 	0x1E, 0x19, 0x14, 0x14, 	0x08, 0x0A, 0x0A, 0x05 */
/* 	0x08, 0x08, 0x05, 0x05, 	0x3F, 0x4F, 0x3F, 0x5F, 	0x19, 0x1E, 0x28, 0x80 */
	smpsVcAlgorithm     0x02
	smpsVcFeedback      0x07
	smpsVcUnusedBits    0x00
	smpsVcDetune        0x03, 0x05, 0x01, 0x01
	smpsVcCoarseFreq    0x01, 0x01, 0x02, 0x01
	smpsVcRateScale     0x00, 0x00, 0x00, 0x00
	smpsVcAttackRate    0x14, 0x14, 0x19, 0x1E
	smpsVcAmpMod        0x00, 0x00, 0x00, 0x00
	smpsVcDecayRate1    0x05, 0x0A, 0x0A, 0x08
	smpsVcDecayRate2    0x05, 0x05, 0x08, 0x08
	smpsVcDecayLevel    0x05, 0x03, 0x04, 0x03
	smpsVcReleaseRate   0x0F, 0x0F, 0x0F, 0x0F
	smpsVcTotalLevel    0x80, 0x28, 0x1E, 0x19

/* 	Voice 0x01 */
/* 	0x18 */
/* 	0x37, 0x30, 0x30, 0x31, 	0x9E, 0xDC, 0x1C, 0x9C, 	0x0D, 0x06, 0x01, 0x01 */
/* 	0x08, 0x0A, 0x03, 0x05, 	0xBF, 0xBF, 0x3F, 0x2F, 	0x2C, 0x22, 0x14, 0x82 */
	smpsVcAlgorithm     0x00
	smpsVcFeedback      0x03
	smpsVcUnusedBits    0x00
	smpsVcDetune        0x03, 0x03, 0x03, 0x03
	smpsVcCoarseFreq    0x01, 0x00, 0x00, 0x07
	smpsVcRateScale     0x02, 0x00, 0x03, 0x02
	smpsVcAttackRate    0x1C, 0x1C, 0x1C, 0x1E
	smpsVcAmpMod        0x00, 0x00, 0x00, 0x00
	smpsVcDecayRate1    0x01, 0x01, 0x06, 0x0D
	smpsVcDecayRate2    0x05, 0x03, 0x0A, 0x08
	smpsVcDecayLevel    0x02, 0x03, 0x0B, 0x0B
	smpsVcReleaseRate   0x0F, 0x0F, 0x0F, 0x0F
	smpsVcTotalLevel    0x82, 0x14, 0x22, 0x2C

/* 	Voice 0x02 */
/* 	0x2C */
/* 	0x72, 0x78, 0x34, 0x34, 	0x1F, 0x12, 0x1F, 0x12, 	0x00, 0x0A, 0x00, 0x0A */
/* 	0x00, 0x00, 0x00, 0x00, 	0x0F, 0x1F, 0x0F, 0x1F, 	0x16, 0x90, 0x17, 0x89 */
	smpsVcAlgorithm     0x04
	smpsVcFeedback      0x05
	smpsVcUnusedBits    0x00
	smpsVcDetune        0x03, 0x03, 0x07, 0x07
	smpsVcCoarseFreq    0x04, 0x04, 0x08, 0x02
	smpsVcRateScale     0x00, 0x00, 0x00, 0x00
	smpsVcAttackRate    0x12, 0x1F, 0x12, 0x1F
	smpsVcAmpMod        0x00, 0x00, 0x00, 0x00
	smpsVcDecayRate1    0x0A, 0x00, 0x0A, 0x00
	smpsVcDecayRate2    0x00, 0x00, 0x00, 0x00
	smpsVcDecayLevel    0x01, 0x00, 0x01, 0x00
	smpsVcReleaseRate   0x0F, 0x0F, 0x0F, 0x0F
	smpsVcTotalLevel    0x89, 0x17, 0x90, 0x16

/* 	Voice 0x03 */
/* 	0x3A */
/* 	0x22, 0x07, 0x0E, 0x13, 	0x5F, 0x1F, 0x19, 0x19, 	0x03, 0x03, 0x03, 0x03 */
/* 	0x02, 0x02, 0x02, 0x02, 	0x1F, 0x1F, 0x1F, 0x1F, 	0x1E, 0x19, 0x2E, 0x84 */
	smpsVcAlgorithm     0x02
	smpsVcFeedback      0x07
	smpsVcUnusedBits    0x00
	smpsVcDetune        0x01, 0x00, 0x00, 0x02
	smpsVcCoarseFreq    0x03, 0x0E, 0x07, 0x02
	smpsVcRateScale     0x00, 0x00, 0x00, 0x01
	smpsVcAttackRate    0x19, 0x19, 0x1F, 0x1F
	smpsVcAmpMod        0x00, 0x00, 0x00, 0x00
	smpsVcDecayRate1    0x03, 0x03, 0x03, 0x03
	smpsVcDecayRate2    0x02, 0x02, 0x02, 0x02
	smpsVcDecayLevel    0x01, 0x01, 0x01, 0x01
	smpsVcReleaseRate   0x0F, 0x0F, 0x0F, 0x0F
	smpsVcTotalLevel    0x84, 0x2E, 0x19, 0x1E

