Snd_Title_Header:
	smpsHeaderStartSong 3, 1
	smpsHeaderVoice     Snd_Title_Voices
	smpsHeaderChan      0x06, 0x03
	smpsHeaderTempo     0x01, 0x00

	smpsHeaderDAC       Snd_Title_DAC
	smpsHeaderFM        Snd_Title_FM1,	0x00, 0x15
	smpsHeaderFM        Snd_Title_FM2,	0x0C, 0x1C
	smpsHeaderFM        Snd_Title_FM3,	0x00, 0x10
	smpsHeaderFM        Snd_Title_FM4,	0x00, 0x05
	smpsHeaderFM        Snd_Title_FM5,	0x00, 0x05
	smpsHeaderPSG       Snd_Title_PSG1,	0xE8, 0x05, 0x00, sTone_0A
	smpsHeaderPSG       Snd_Title_PSG2,	0xF4, 0x02, 0x00, sTone_0A
	smpsHeaderPSG       Snd_Title_PSG3,	0xE8, 0x05, 0x00, sTone_0A

/*  FM1 Data */
Snd_Title_FM1:
	smpsSetvoice        0x04
	smpsAlterNote       0xF6
	.byte	nRst, 0x6C
	smpsModSet          0x2A, 0x01, 0x29, 0x00
	.byte	nE4, 0x3C, smpsNoAttack
	smpsModSet          0x01, 0x00, 0x00, 0x00
	.byte	nE4, 0x18
	smpsSetvoice        0x00
	smpsAlterNote       0x00
	smpsModSet          0x14, 0x01, 0x04, 0x07

Snd_Title_Jump00:
	.byte	nA4, 0x18, nFs4, 0x0C, nE4, nA4, nFs4, nD4, nE4, 0x30, nD5, 0x18
	smpsNoteFill        0x06
	.byte	0x0C, 0x0C, 0x0C
	smpsNoteFill        0x00
	.byte	nCs5, 0x18, nA4, 0x0C, nE4, nFs4, 0x04, nRst, 0x08, nA4, 0x18, nB4
	.byte	0x0C, smpsNoAttack, nB4, 0x30, nRst, nA4, 0x18, nFs4, 0x0C, nE4, nA4, nFs4
	.byte	nD4, nE4, 0x30, nD5, 0x18, nCs5, 0x0C, nB4, nA4, 0x0C
	smpsNoteFill        0x17
	smpsFMAlterVol      0xFE
	.byte	nCs5, 0x18
	smpsNoteFill        0x06
	.byte	nA4, 0x0C, 0x0C, nG4
	smpsNoteFill        0x00
	.byte	nG4, 0x18, nA4, 0x09
	smpsStop

/*  Unreachable */
	smpsStop

/*  FM2 Data */
Snd_Title_FM2:
	smpsSetvoice        0x01
	smpsModSet          0x15, 0x01, 0x06, 0x06
	.byte	nE1, 0x06, nE1, nRst, nE1, nRst, nE1, nE1, smpsNoAttack, nE1, nRst, nRst
	.byte	nE1, smpsNoAttack, nE1, nE1, nE1, nE1, smpsNoAttack, nE1, nE1, 0x06, nE1, nRst
	.byte	nE1, nRst, nE1, nE1, smpsNoAttack, nE1, nRst, nRst, nE1, smpsNoAttack, nE1, nE1
	.byte	nE1, nE1, nE1, nA1, 0x06, nA1, nRst, nA1, nRst, nA1, nA1, smpsNoAttack
	.byte	nA1, nFs1, 0x0C, nFs1, smpsNoAttack, nFs1, nE1, nE1, 0x06, nE1, nRst, nE1
	.byte	nRst, nE1, nD1, smpsNoAttack, nD1, nRst, nD1, nRst, nD2, smpsNoAttack, nD2, nD1
	.byte	nD1, nD1, nA1, nA1, nRst, nA1, nRst, nA1, nA1, smpsNoAttack, nA1, nFs1
	.byte	0x0C, nFs1, smpsNoAttack, nFs1, nG1, nG1, 0x06, nG1, nRst, nG1, nRst, nG1
	.byte	nE1, smpsNoAttack, nE1, nRst, nE1, nRst, nE2, smpsNoAttack, nE2, nE1, nE1, nE1
	.byte	nA1, nA1, nRst, nA1, nRst, nA1, nA1, smpsNoAttack, nA1, nFs1, 0x0C, nFs1
	.byte	smpsNoAttack, nFs1, nE1, nE1, 0x06, nE1, nRst, nE1, nRst, nE1, nD1, smpsNoAttack
	.byte	nD1, nRst, nD1, nRst, nD2, smpsNoAttack, nD2, nD1, nD1, nD1, nRst, 0x54
	.byte	nA0, 0x78
	smpsStop

/*  FM3 Data */
Snd_Title_FM3:
	smpsSetvoice        0x04
	smpsPan             panCenter, 0x00
	.byte	nRst, 0x60
	smpsModSet          0x2A, 0x01, 0x29, 0x00
	.byte	nE4, 0x3C, smpsNoAttack
	smpsModSet          0x01, 0x00, 0x00, 0x00
	.byte	nE4, 0x24
	smpsSetvoice        0x02
	smpsPan             panLeft, 0x00
	smpsModSet          0x00, 0x00, 0x00, 0x00

Snd_Title_Loop00:
	.byte	nA2, 0x06, nA2
	smpsFMAlterVol      0xFD
	.byte	nA2, nA2
	smpsFMAlterVol      0xFD
	.byte	nA2, nA2
	smpsFMAlterVol      0xFD
	.byte	nA2, nFs2
	smpsFMAlterVol      0xFD
	.byte	nFs2, nFs2
	smpsFMAlterVol      0x03
	.byte	nFs2, nFs2
	smpsFMAlterVol      0x03
	.byte	nFs2, nFs2
	smpsFMAlterVol      0x03
	.byte	nE2, nE2
	smpsFMAlterVol      0x03
	.byte	nE2, nE2
	smpsFMAlterVol      0x03
	.byte	nE3, nE2
	smpsFMAlterVol      0x03
	.byte	nB2, nE2
	smpsFMAlterVol      0x03
	.byte	nD2, nD2
	smpsFMAlterVol      0x03
	.byte	nD2, nD2
	smpsFMAlterVol      0xFD
	.byte	nD3, nD2
	smpsFMAlterVol      0xFD
	.byte	nA2, nD2
	smpsFMAlterVol      0xFD
	.byte	nD3, nD2
	smpsFMAlterVol      0xFD
	smpsLoop            0x00, 0x02, Snd_Title_Loop00
	.byte	nA2, 0x06, nA2
	smpsFMAlterVol      0xFD
	.byte	nA2, nA2
	smpsFMAlterVol      0xFD
	.byte	nA2, nA2
	smpsFMAlterVol      0xFD
	.byte	nA2, nFs2
	smpsFMAlterVol      0xFD
	.byte	nFs2, nFs2
	smpsFMAlterVol      0x03
	.byte	nFs2, nFs2
	smpsFMAlterVol      0x03
	.byte	nFs2, nFs2
	smpsFMAlterVol      0x03
	.byte	nE2, nE2
	smpsFMAlterVol      0x03
	.byte	nE2, nE2
	smpsFMAlterVol      0x03
	.byte	nE3, nE2
	smpsFMAlterVol      0x03
	.byte	nE3, nE2
	smpsFMAlterVol      0x03
	.byte	nD2, nD2
	smpsFMAlterVol      0x03
	.byte	nD2, nD2
	smpsFMAlterVol      0xFD
	.byte	nD3, nD2
	smpsFMAlterVol      0xFD
	.byte	nA2, nD2
	smpsFMAlterVol      0xFD
	.byte	nD3, nD2
	smpsFMAlterVol      0xFD
	smpsStop

/*  FM4 Data */
Snd_Title_FM4:
	smpsSetvoice        0x05
	smpsAlterNote       0xFC
	smpsPan             panRight, 0x00
	smpsModSet          0x01, 0x01, 0x06, 0x00
	.byte	nG3, 0x60, smpsNoAttack, nG3
	smpsSetvoice        0x03
	smpsModSet          0x14, 0x01, 0x04, 0x06
	.byte	nRst, 0x18, nA3, 0x0C, nRst, 0x18, nFs3, 0x09, nRst, 0x0F, nE3, 0x24
	.byte	nRst, 0x48, nRst, 0x18, nA3, 0x0C, nRst, 0x18, nA3, 0x09, nRst, 0x1B
	.byte	nB3, 0x06, nRst, nB3, 0x18, nB3, 0x30, nRst, 0x0C, nA3, 0x0C, nRst
	.byte	0x09, nRst, 0x03, nRst, 0x0C, nRst, nRst, nFs3, 0x09, nRst, 0x0F, nE3
	.byte	0x3C, nRst, 0x30
	smpsNoteFill        0x17
	.byte	nCs4, 0x18
	smpsNoteFill        0x06
	.byte	nA3, 0x0C, 0x0C, nG3
	smpsNoteFill        0x00
	.byte	nG3, 0x18, nA3, 0x09
	smpsStop

/*  FM5 Data */
Snd_Title_FM5:
	smpsPan             panLeft, 0x00
	smpsSetvoice        0x05
	smpsModSet          0x01, 0x01, 0x06, 0x00
	.byte	nG3, 0x60, smpsNoAttack, nG3
	smpsSetvoice        0x03
	smpsAlterNote       0x04
	smpsModSet          0x14, 0x01, 0x04, 0x06
	.byte	nRst, 0x18, nA3, 0x0C, nRst, 0x18, nFs3, 0x09, nRst, 0x0F, nE3, 0x24
	.byte	nRst, 0x48, nRst, 0x18, nA3, 0x0C, nRst, 0x18, nFs3, 0x09, nRst, 0x1B
	.byte	nG3, 0x06, nRst, nG3, 0x18, nE3, 0x30, nRst, 0x0C, nA3, 0x0C, nRst
	.byte	0x09, nRst, 0x03, nRst, 0x0C, nRst, nRst, nFs3, 0x09, nRst, 0x0F, nE3
	.byte	0x3C, nRst, 0x30
	smpsNoteFill        0x17
	.byte	nCs4, 0x18
	smpsNoteFill        0x06
	.byte	nA3, 0x0C, 0x0C, nG3
	smpsNoteFill        0x00
	.byte	nG3, 0x18, nA3, 0x09
	smpsStop

/*  PSG1 Data */
Snd_Title_PSG1:
	smpsPSGvoice        sTone_0A
	.byte	nRst, 0x60, nA3, 0x06, nCs4, nB3, nD4
	smpsPSGAlterVol     0xFF
	.byte	nCs4, nE4, nD4, nFs4
	smpsPSGAlterVol     0xFF
	.byte	nE4, nAb4, nFs4, nA4
	smpsPSGAlterVol     0xFF
	.byte	nAb4, nB4, nA4, nCs5
	smpsPSGAlterVol     0x03
	smpsAlterPitch      0x0C
	smpsModSet          0x00, 0x00, 0x00, 0x00
	.byte	nE4, 0x0C, nB3, nE4, nB3, nE4, nB3, nE4, nB3, nD4, nB3, nE4
	.byte	nB3, nE4, nB3, nE4, nB3, nE4, 0x0C, nB3, nE4, nB3, nE4, nB3
	.byte	nE4, nB3, nD4, nB3, nD4, nB3, nD5, nB4, nD5, nB4, nE4, 0x0C
	.byte	nB3, nE4, nB3, nE4, nB3, nE4, nB3, nD4, nB3, nE4, nB3, nE4
	.byte	nB3, nE4, nB3, nRst, 0x60, nG3, 0x0C
	smpsPSGAlterVol     0x01
	.byte	nA3, 0x18
	smpsPSGAlterVol     0x01
	.byte	nCs4, 0x24
	smpsPSGAlterVol     0x01
	.byte	nE3, 0x18
	smpsPSGAlterVol     0x01
	.byte	nG3, 0x0C
	smpsPSGAlterVol     0x01
	.byte	nA3, 0x18
	smpsPSGAlterVol     0x01
	.byte	nCs4, 0x24
	smpsPSGAlterVol     0x01
	.byte	nE3, 0x60
	smpsStop

/*  PSG2 Data */
Snd_Title_PSG2:
	smpsModSet          0x01, 0x01, 0xFD, 0x00
	smpsAlterNote       0x04
	.byte	nD1, 0x60, smpsNoAttack, 0x60, nRst, 0x06
	smpsModSet          0x00, 0x00, 0x00, 0x00
	smpsPSGAlterVol     0x03
	smpsAlterNote       0x00
	.byte	nCs4, 0x0C, nA3, nCs4, nA3, nCs4, nA3, nCs4, nA3, nCs4, nA3, nCs4
	.byte	nA3, nCs4, nA3, nCs4, nA3, nCs4, 0x0C, nA3, nCs4, nA3, nCs4, nA3
	.byte	nCs4, nA3, nCs4, nA3, nCs4, nA3, nCs5, nA4, nCs5, nA4, nCs4, 0x0C
	.byte	nA3, nCs4, nA3, nCs4, nA3, nCs4, nA3, nCs4, nA3, nCs4, nA3, nCs4
	.byte	nA3, nCs4, nA3, nRst, 0x5A, nA2, 0x18
	smpsPSGAlterVol     0x01
	.byte	nE3, 0x24
	smpsPSGAlterVol     0x01
	.byte	nA3, 0x18
	smpsPSGAlterVol     0x01
	.byte	nD4, 0x0C
	smpsPSGAlterVol     0x01
	.byte	nA2, 0x18
	smpsPSGAlterVol     0x01
	.byte	nE3, 0x24
	smpsPSGAlterVol     0x01
	.byte	nA3, 0x18
	smpsPSGAlterVol     0x01
	.byte	nD4, 0x60
	smpsStop

/*  PSG3 Data */
Snd_Title_PSG3:
	smpsAlterNote       0x02
	.byte	nRst, 0x60, nRst, 0x03, nB3, 0x06, nE4, nCs4, nFs4
	smpsPSGAlterVol     0xFF
	.byte	nD4, nAb4, nE4, nA4
	smpsPSGAlterVol     0xFF
	.byte	nFs4, nB4, nAb4, nCs5
	smpsPSGAlterVol     0xFF
	.byte	nA4, nD5, nB4, nE5, 0x03
	smpsModSet          0x15, 0x01, 0x03, 0x06
	smpsPSGAlterVol     0xFF
	smpsJump            Snd_Title_Jump00

/*  Unreachable */
	smpsStop

/*  DAC Data */
Snd_Title_DAC:
	.byte	dKickS3, 0x06, dKickS3, nRst, dKickS3, nRst, nRst, dKickS3, nRst, nRst, nRst, dKickS3
	.byte	nRst, dSnareS3, dSnareS3, nRst, nRst, dKickS3, dKickS3, nRst, dKickS3, nRst, nRst, dSnareS3
	.byte	nRst, nRst, nRst, dKickS3, nRst, dSnareS3, dSnareS3, dSnareS3, dSnareS3, dCrashCymbal, 0x06, nRst
	.byte	nRst, dKickS3, dSnareS3, dKickS3, dKickS3, nRst, dKickS3, nRst, dKickS3, nRst, dSnareS3, nRst
	.byte	dKickS3, nRst, dKickS3, dKickS3, nRst, dKickS3, dSnareS3, dKickS3, dKickS3, nRst, nRst, dKickS3
	.byte	nRst, dKickS3, dSnareS3, dKickS3, dKickS3, nRst, dKickS3, 0x06, dKickS3, nRst, dKickS3, dSnareS3
	.byte	dKickS3, dKickS3, nRst, dKickS3, nRst, dKickS3, nRst, dSnareS3, nRst, dKickS3, nRst, dKickS3
	.byte	dKickS3, nRst, dKickS3, dSnareS3, dKickS3, dKickS3, nRst, nRst, dKickS3, nRst, dKickS3, dSnareS3
	.byte	dKickS3, dKickS3, nRst, dKickS3, dKickS3, nRst, dKickS3, dSnareS3, dKickS3, dKickS3, nRst, dKickS3
	.byte	nRst, dKickS3, nRst, dSnareS3, nRst, dKickS3, nRst, dKickS3, dKickS3, nRst, dKickS3, dSnareS3
	.byte	dKickS3, dKickS3, nRst, nRst, dKickS3, nRst, dKickS3, dSnareS3, dKickS3, dKickS3, dKickS3, dKickS3
	.byte	nRst, nRst, nRst, dSnareS3, nRst, nRst, dSnareS3, dKickS3, 0x0C, dKickS3, dSnareS3, dCrashCymbal
	smpsStop

Snd_Title_Voices:
/* 	Voice 0x00 */
/* 	0x3D */
/* 	0x61, 0x02, 0x12, 0x52, 	0x1F, 0x18, 0x18, 0x1B, 	0x09, 0x02, 0x01, 0x02 */
/* 	0x06, 0x00, 0x00, 0x00, 	0x5F, 0x4F, 0x3F, 0x4F, 	0x17, 0x80, 0x80, 0x80 */
	smpsVcAlgorithm     0x05
	smpsVcFeedback      0x07
	smpsVcUnusedBits    0x00
	smpsVcDetune        0x05, 0x01, 0x00, 0x06
	smpsVcCoarseFreq    0x02, 0x02, 0x02, 0x01
	smpsVcRateScale     0x00, 0x00, 0x00, 0x00
	smpsVcAttackRate    0x1B, 0x18, 0x18, 0x1F
	smpsVcAmpMod        0x00, 0x00, 0x00, 0x00
	smpsVcDecayRate1    0x02, 0x01, 0x02, 0x09
	smpsVcDecayRate2    0x00, 0x00, 0x00, 0x06
	smpsVcDecayLevel    0x04, 0x03, 0x04, 0x05
	smpsVcReleaseRate   0x0F, 0x0F, 0x0F, 0x0F
	smpsVcTotalLevel    0x80, 0x80, 0x80, 0x17

/* 	Voice 0x01 */
/* 	0x2D */
/* 	0x01, 0x51, 0x31, 0x21, 	0x13, 0x1F, 0x19, 0x1F, 	0x0B, 0x09, 0x00, 0x0B */
/* 	0x00, 0x00, 0x00, 0x00, 	0xFF, 0xFF, 0xFF, 0xFF, 	0x0C, 0x80, 0x80, 0x80 */
	smpsVcAlgorithm     0x05
	smpsVcFeedback      0x05
	smpsVcUnusedBits    0x00
	smpsVcDetune        0x02, 0x03, 0x05, 0x00
	smpsVcCoarseFreq    0x01, 0x01, 0x01, 0x01
	smpsVcRateScale     0x00, 0x00, 0x00, 0x00
	smpsVcAttackRate    0x1F, 0x19, 0x1F, 0x13
	smpsVcAmpMod        0x00, 0x00, 0x00, 0x00
	smpsVcDecayRate1    0x0B, 0x00, 0x09, 0x0B
	smpsVcDecayRate2    0x00, 0x00, 0x00, 0x00
	smpsVcDecayLevel    0x0F, 0x0F, 0x0F, 0x0F
	smpsVcReleaseRate   0x0F, 0x0F, 0x0F, 0x0F
	smpsVcTotalLevel    0x80, 0x80, 0x80, 0x0C

/* 	Voice 0x02 */
/* 	0x0A */
/* 	0x51, 0x76, 0x01, 0x19, 	0x1C, 0x1B, 0x1C, 0x1F, 	0x00, 0x08, 0x04, 0x11 */
/* 	0x00, 0x01, 0x00, 0x00, 	0x1F, 0xFF, 0xFF, 0x7F, 	0x82, 0x10, 0x32, 0x0C */
	smpsVcAlgorithm     0x02
	smpsVcFeedback      0x01
	smpsVcUnusedBits    0x00
	smpsVcDetune        0x01, 0x00, 0x07, 0x05
	smpsVcCoarseFreq    0x09, 0x01, 0x06, 0x01
	smpsVcRateScale     0x00, 0x00, 0x00, 0x00
	smpsVcAttackRate    0x1F, 0x1C, 0x1B, 0x1C
	smpsVcAmpMod        0x00, 0x00, 0x00, 0x00
	smpsVcDecayRate1    0x11, 0x04, 0x08, 0x00
	smpsVcDecayRate2    0x00, 0x00, 0x01, 0x00
	smpsVcDecayLevel    0x07, 0x0F, 0x0F, 0x01
	smpsVcReleaseRate   0x0F, 0x0F, 0x0F, 0x0F
	smpsVcTotalLevel    0x0C, 0x32, 0x10, 0x82

/* 	Voice 0x03 */
/* 	0x2A */
/* 	0x32, 0x2A, 0x01, 0x02, 	0x12, 0x12, 0x11, 0x16, 	0x0A, 0x0E, 0x0E, 0x08 */
/* 	0x00, 0x00, 0x00, 0x00, 	0xFF, 0xFF, 0x1F, 0xCF, 	0x15, 0x15, 0x2C, 0x85 */
	smpsVcAlgorithm     0x02
	smpsVcFeedback      0x05
	smpsVcUnusedBits    0x00
	smpsVcDetune        0x00, 0x00, 0x02, 0x03
	smpsVcCoarseFreq    0x02, 0x01, 0x0A, 0x02
	smpsVcRateScale     0x00, 0x00, 0x00, 0x00
	smpsVcAttackRate    0x16, 0x11, 0x12, 0x12
	smpsVcAmpMod        0x00, 0x00, 0x00, 0x00
	smpsVcDecayRate1    0x08, 0x0E, 0x0E, 0x0A
	smpsVcDecayRate2    0x00, 0x00, 0x00, 0x00
	smpsVcDecayLevel    0x0C, 0x01, 0x0F, 0x0F
	smpsVcReleaseRate   0x0F, 0x0F, 0x0F, 0x0F
	smpsVcTotalLevel    0x85, 0x2C, 0x15, 0x15

/* 	Voice 0x04 */
/* 	0x3D */
/* 	0x12, 0x58, 0x04, 0x15, 	0x0F, 0x1A, 0x1C, 0x1A, 	0x00, 0x00, 0x0F, 0x05 */
/* 	0x00, 0x00, 0x00, 0x00, 	0x0F, 0x0F, 0x1F, 0xFF, 	0x22, 0x86, 0x86, 0x86 */
	smpsVcAlgorithm     0x05
	smpsVcFeedback      0x07
	smpsVcUnusedBits    0x00
	smpsVcDetune        0x01, 0x00, 0x05, 0x01
	smpsVcCoarseFreq    0x05, 0x04, 0x08, 0x02
	smpsVcRateScale     0x00, 0x00, 0x00, 0x00
	smpsVcAttackRate    0x1A, 0x1C, 0x1A, 0x0F
	smpsVcAmpMod        0x00, 0x00, 0x00, 0x00
	smpsVcDecayRate1    0x05, 0x0F, 0x00, 0x00
	smpsVcDecayRate2    0x00, 0x00, 0x00, 0x00
	smpsVcDecayLevel    0x0F, 0x01, 0x00, 0x00
	smpsVcReleaseRate   0x0F, 0x0F, 0x0F, 0x0F
	smpsVcTotalLevel    0x86, 0x86, 0x86, 0x22

/* 	Voice 0x05 */
/* 	0x3D */
/* 	0x51, 0x21, 0x30, 0x10, 	0x1F, 0x1F, 0x1F, 0x1F, 	0x0F, 0x00, 0x00, 0x00 */
/* 	0x00, 0x00, 0x00, 0x00, 	0x1F, 0x4F, 0x4F, 0x4F, 	0x10, 0x8E, 0x8E, 0x8E */
	smpsVcAlgorithm     0x05
	smpsVcFeedback      0x07
	smpsVcUnusedBits    0x00
	smpsVcDetune        0x01, 0x03, 0x02, 0x05
	smpsVcCoarseFreq    0x00, 0x00, 0x01, 0x01
	smpsVcRateScale     0x00, 0x00, 0x00, 0x00
	smpsVcAttackRate    0x1F, 0x1F, 0x1F, 0x1F
	smpsVcAmpMod        0x00, 0x00, 0x00, 0x00
	smpsVcDecayRate1    0x00, 0x00, 0x00, 0x0F
	smpsVcDecayRate2    0x00, 0x00, 0x00, 0x00
	smpsVcDecayLevel    0x04, 0x04, 0x04, 0x01
	smpsVcReleaseRate   0x0F, 0x0F, 0x0F, 0x0F
	smpsVcTotalLevel    0x8E, 0x8E, 0x8E, 0x10

