Snd_Boss_Header:
	smpsHeaderStartSong 3
	smpsHeaderVoice     Snd_Boss_Voices
	smpsHeaderChan      0x06, 0x03
	smpsHeaderTempo     0x01, 0x00

	smpsHeaderDAC       Snd_Boss_DAC
	smpsHeaderFM        Snd_Boss_FM1,	0x00, 0x0C
	smpsHeaderFM        Snd_Boss_FM2,	0x00, 0x0C
	smpsHeaderFM        Snd_Boss_FM3,	0x00, 0x0C
	smpsHeaderFM        Snd_Boss_FM4,	0x00, 0x0C
	smpsHeaderFM        Snd_Boss_FM5,	0x00, 0x13
	smpsHeaderPSG       Snd_Boss_PSG1,	0xE8, 0x03, 0x00, 0x00
	smpsHeaderPSG       Snd_Boss_PSG2,	0xE8, 0x02, 0x00, 0x00
	smpsHeaderPSG       Snd_Boss_PSG3,	0xE8, 0x02, 0x00, 0x00

/*  FM1 Data */
Snd_Boss_FM1:
	smpsModSet          0x0D, 0x01, 0x02, 0x06

Snd_Boss_Loop08:
	smpsPan             panCenter, 0x00
	smpsSetvoice        0x02
	.byte	nB5, 0x06, nRst, nB5, nRst, nB5, nRst, nB5, nRst, nB5, nRst, nB5
	.byte	nRst, nB5, nRst, nB5, nRst, nB5, nRst
	smpsSetvoice        0x07
	.byte	nE3, 0x24, nFs3, 0x30
	smpsLoop            0x00, 0x02, Snd_Boss_Loop08
	smpsSetvoice        0x00
	.byte	nE4, 0x3C, nFs4, 0x0C, nG4, nA4, nB4, 0x18, nA4, nG4, nFs4, nG4
	.byte	0x0C, nE4, 0x06, nRst, nE4, nRst, nE4, 0x0C, nB3, 0x06, nRst, nB3
	.byte	nRst, nE4, 0x0C, nFs4, 0x06, nRst, nA4, 0x0C, nG4, nFs4, nA4, 0x3C
	.byte	nE4, nFs4, 0x0C, nG4, nA4, nB4, 0x18, nA4, nG4, nFs4, nG4, 0x0C
	.byte	nE4, 0x06, nRst, nE4, nRst, nE4, 0x0C, nB3, 0x06, nRst, nB3, nRst
	.byte	nE4, 0x0C, nFs4, 0x06, nRst, nA4, 0x0C, nG4, nFs4, nA4, 0x18, nA4
	.byte	0x0C, nB4, nA4, nG4, nE4, 0x06, nRst, nC4, nRst, nG4, 0x0C, nE4
	.byte	0x06, nRst, nC4, nRst, nG4, 0x0C, nE4, 0x06, nRst, nA4, 0x0C, nFs4
	.byte	0x06, nRst, nD4, nRst, nA4, 0x0C, nFs4, 0x06, nRst, nD4, nRst, nA4
	.byte	0x0C, nFs4, 0x06, nRst, nB4, 0x0C, nG4, 0x06, nRst, nE4, nRst, nB4
	.byte	0x0C, nG4, 0x06, nRst, nE4, nRst, nD5, 0x0C, nC5, 0x06, nRst, nB4
	.byte	0x0C, nC5, 0x06, nRst, nB4, nRst, nG4, 0x3C, nG4, 0x0C, nE4, 0x06
	.byte	nRst, nC4, nRst, nG4, 0x0C, nE4, 0x06, nRst, nC4, nRst, nG4, 0x0C
	.byte	nE4, 0x06, nRst, nA4, 0x0C, nFs4, 0x06, nRst, nD4, nRst, nA4, 0x0C
	.byte	nFs4, 0x06, nRst, nD4, nRst, nA4, 0x0C, nFs4, 0x06, nRst, nB4, 0x0C
	.byte	nG4, 0x06, nRst, nE4, nRst, nB4, 0x0C, nG4, 0x06, nRst, nE4, nRst
	.byte	nD5, 0x0C, nC5, 0x06, nRst, nB4, 0x0C, nA4, 0x06, nRst, nB4, nRst
	.byte	nE5, 0x3C
	smpsJump            Snd_Boss_FM1

/*  Unreachable */
	smpsStop

/*  FM2 Data */
Snd_Boss_FM2:
	smpsSetvoice        0x01
	smpsModSet          0x0D, 0x01, 0x02, 0x06
	smpsPan             panCenter, 0x00

Snd_Boss_Loop06:
	.byte	nE3, 0x0C, nE3, 0x06, nRst, nE3, nRst, nE3, 0x0C, nE3, 0x06, nRst
	.byte	nE3, nRst, nE3, 0x0C, nE3, nRst, nC3, 0x24, nD3, 0x30
	smpsLoop            0x00, 0x02, Snd_Boss_Loop06

Snd_Boss_Loop07:
	.byte	nE2, 0x0C, nE3, nE2, nE3, nE2, nE3, nE2, nE3, nE2, nE3, nE2
	.byte	nE3, nE2, nE3, nE2, nE3, nE2, nE3, nE2, nE3, nE2, nE3, nE2
	.byte	nE3, nD3, nD4, nD3, nD4, nD3, nD4, nD3, nD4
	smpsLoop            0x00, 0x02, Snd_Boss_Loop07
	.byte	nC3, 0x0C, nC3, nC4, nC4, nG3, nG3, nC4, nC4, nD3, nD3, nD4
	.byte	nD4, nA3, nA3, nD4, nD4, nE2, nE2, nE3, nE3, nB2, nB2, nE2
	.byte	nE2, nE3, nD3, nE3, nE2, nE2, nB2, nE3, nB3, nC3, nC3, nC4
	.byte	nC4, nG3, nG3, nC4, nC4, nD3, nD3, nD4, nD4, nA3, nA3, nD4
	.byte	nD4, nE2, nE3, nE3, nE2, nE3, nE3, nD3, nE3, nA3, nB3, nD3
	.byte	nE3, nA2, nB2, nE2, 0x18
	smpsJump            Snd_Boss_FM2

/*  Unreachable */
	smpsStop

/*  FM3 Data */
Snd_Boss_FM3:
	smpsSetvoice        0x03
	smpsModSet          0x0D, 0x01, 0x02, 0x06

Snd_Boss_Loop04:
	smpsPan             panRight, 0x00
	.byte	nE5, 0x0C, nB4, 0x06, nRst, nB4, nRst, nB4, 0x0C, nG4, 0x06, nRst
	.byte	nG4, nRst, nG4, 0x0C, nE4, 0x06, nRst, nE4, nRst, nG4, 0x24, nA4
	.byte	0x30
	smpsLoop            0x00, 0x02, Snd_Boss_Loop04
	smpsSetvoice        0x04
	.byte	nB3, 0x0C, nRst, 0x54, nG3, 0x0C, nRst, 0x54, nB3, 0x0C, nRst, 0x54
	smpsSetvoice        0x05
	.byte	nC5, 0x0C, nB4, nA4, nA4, 0x3C
	smpsSetvoice        0x04
	.byte	nB3, 0x0C, nRst, 0x54, nG3, 0x0C, nRst, 0x54, nB3, 0x0C, nRst, 0x54
	smpsSetvoice        0x05
	.byte	nC5, 0x0C, nB4, nA4, nD5, 0x3C

Snd_Boss_Loop05:
	smpsSetvoice        0x06
	.byte	nG3, 0x30, nC4, nA3, nD4, nG3, nB3, nE4, 0x18, nB3, nG3, nE3
	smpsLoop            0x00, 0x02, Snd_Boss_Loop05
	smpsJump            Snd_Boss_FM3

/*  Unreachable */
	smpsStop

/*  FM4 Data */
Snd_Boss_FM4:
	smpsSetvoice        0x03
	smpsModSet          0x0D, 0x01, 0x02, 0x06

Snd_Boss_Loop02:
	smpsPan             panLeft, 0x00
	.byte	nB4, 0x0C, nG4, 0x06, nRst, nG4, nRst, nG4, 0x0C, nE4, 0x06, nRst
	.byte	nE4, nRst, nE4, 0x0C, nB3, 0x06, nRst, nB3, nRst, nE4, 0x24, nFs4
	.byte	0x30
	smpsLoop            0x00, 0x02, Snd_Boss_Loop02
	smpsSetvoice        0x04
	.byte	nG3, 0x0C, nRst, 0x54, nE3, 0x0C, nRst, 0x54, nG3, 0x0C, nRst, 0x54
	smpsSetvoice        0x05
	.byte	nD4, 0x0C, nD4, nD4, nFs4, 0x3C
	smpsSetvoice        0x04
	.byte	nG3, 0x0C, nRst, 0x54, nE3, 0x0C, nRst, 0x54, nG3, 0x0C, nRst, 0x54
	smpsSetvoice        0x05
	.byte	nD4, 0x0C, nD4, nD4, nFs4, 0x3C

Snd_Boss_Loop03:
	smpsSetvoice        0x06
	.byte	nE3, 0x30, nG3, nFs3, nA3, nE3, nG3, nB3, 0x18, nG3, nE3, nB2
	smpsLoop            0x00, 0x02, Snd_Boss_Loop03
	smpsJump            Snd_Boss_FM4

/*  Unreachable */
	smpsStop

/*  FM5 Data */
Snd_Boss_FM5:
	.byte	nRst, 0x1D

Snd_Boss_Jump00:
	smpsModSet          0x0D, 0x01, 0x02, 0x06

Snd_Boss_Loop01:
	smpsPan             panCenter, 0x00
	smpsSetvoice        0x02
	.byte	nB5, 0x06, nRst, nB5, nRst, nB5, nRst, nB5, nRst, nB5, nRst, nB5
	.byte	nRst, nB5, nRst, nB5, nRst, nB5, nRst
	smpsSetvoice        0x07
	.byte	nE3, 0x24, nFs3, 0x30
	smpsLoop            0x00, 0x02, Snd_Boss_Loop01
	smpsSetvoice        0x00
	.byte	nE4, 0x3C, nFs4, 0x0C, nG4, nA4, nB4, 0x18, nA4, nG4, nFs4, nG4
	.byte	0x0C, nE4, 0x06, nRst, nE4, nRst, nE4, 0x0C, nB3, 0x06, nRst, nB3
	.byte	nRst, nE4, 0x0C, nFs4, 0x06, nRst, nA4, 0x0C, nG4, nFs4, nA4, 0x3C
	.byte	nE4, nFs4, 0x0C, nG4, nA4, nB4, 0x18, nA4, nG4, nFs4, nG4, 0x0C
	.byte	nE4, 0x06, nRst, nE4, nRst, nE4, 0x0C, nB3, 0x06, nRst, nB3, nRst
	.byte	nE4, 0x0C, nFs4, 0x06, nRst, nA4, 0x0C, nG4, nFs4, nA4, 0x18, nA4
	.byte	0x0C, nB4, nA4, nG4, nE4, 0x06, nRst, nC4, nRst, nG4, 0x0C, nE4
	.byte	0x06, nRst, nC4, nRst, nG4, 0x0C, nE4, 0x06, nRst, nA4, 0x0C, nFs4
	.byte	0x06, nRst, nD4, nRst, nA4, 0x0C, nFs4, 0x06, nRst, nD4, nRst, nA4
	.byte	0x0C, nFs4, 0x06, nRst, nB4, 0x0C, nG4, 0x06, nRst, nE4, nRst, nB4
	.byte	0x0C, nG4, 0x06, nRst, nE4, nRst, nD5, 0x0C, nC5, 0x06, nRst, nB4
	.byte	0x0C, nC5, 0x06, nRst, nB4, nRst, nG4, 0x3C, nG4, 0x0C, nE4, 0x06
	.byte	nRst, nC4, nRst, nG4, 0x0C, nE4, 0x06, nRst, nC4, nRst, nG4, 0x0C
	.byte	nE4, 0x06, nRst, nA4, 0x0C, nFs4, 0x06, nRst, nD4, nRst, nA4, 0x0C
	.byte	nFs4, 0x06, nRst, nD4, nRst, nA4, 0x0C, nFs4, 0x06, nRst, nB4, 0x0C
	.byte	nG4, 0x06, nRst, nE4, nRst, nB4, 0x0C, nG4, 0x06, nRst, nE4, nRst
	.byte	nD5, 0x0C, nC5, 0x06, nRst, nB4, 0x0C, nA4, 0x06, nRst, nB4, nRst
	.byte	nE5, 0x3C
	smpsJump            Snd_Boss_Jump00

/*  Unreachable */
	smpsStop

/*  DAC Data */
Snd_Boss_DAC:
	.byte	dSnareS3, 0x0C, dKickS3, dKickS3, dSnareS3, dKickS3, dKickS3, dSnareS3, dKickS3, dSnareS3, dKickS3, 0x24
	.byte	dKickS3, 0x18, dSnareS3, 0x0C, dSnareS3, dSnareS3, dKickS3, dKickS3, dSnareS3, dKickS3, dKickS3, dSnareS3
	.byte	dKickS3, dSnareS3, dKickS3, 0x24, dKickS3, 0x0C, dSnareS3, dSnareS3, dSnareS3

Snd_Boss_Loop00:
	.byte	dKickS3, 0x0C, dSnareS3, dSnareS3, dSnareS3, 0x06, dSnareS3, dKickS3, 0x0C, dSnareS3, dKickS3, dSnareS3
	smpsLoop            0x00, 0x0F, Snd_Boss_Loop00
	.byte	dKickS3, 0x0C, dSnareS3, dSnareS3, dSnareS3, 0x06, dSnareS3, dKickS3, 0x0C, dSnareS3, dSnareS3, dSnareS3
	smpsJump            Snd_Boss_DAC

/*  Unreachable */
	smpsStop

/*  PSG1 Data */
Snd_Boss_PSG1:
	smpsModSet          0x0D, 0x01, 0x02, 0x06
	.byte	nRst, 0x60, nRst, nRst, nRst, nRst, nRst, nRst, nRst, nRst, nRst, nRst
	.byte	nRst, nRst, nRst, nRst, nD5, 0x0C, nE5, 0x06, nRst, nD5, nRst, nB4
	.byte	0x3C, nB4, 0x0C, nG4, 0x06, nRst, nE4, nRst, nB4, 0x0C, nG4, 0x06
	.byte	nRst, nE4, nRst, nB4, 0x0C, nG4, 0x06, nRst, nC5, 0x0C, nA4, 0x06
	.byte	nRst, nFs4, nRst, nC5, 0x0C, nA4, 0x06, nRst, nFs4, nRst, nC5, 0x0C
	.byte	nA4, 0x06, nRst, nD5, 0x0C, nB4, 0x06, nRst, nG4, nRst, nD5, 0x0C
	.byte	nB4, 0x06, nRst, nG4, nRst, nFs5, 0x0C, nE5, 0x06, nRst, nD5, 0x0C
	.byte	nC5, 0x06, nRst, nD5, nRst, nG5, 0x3C
	smpsJump            Snd_Boss_PSG1

/*  Unreachable */
	smpsStop

/*  PSG2 Data */
Snd_Boss_PSG2:
	smpsStop

/*  Unreachable */
	smpsStop

/*  PSG3 Data */
Snd_Boss_PSG3:
	smpsStop

Snd_Boss_Voices:
/* 	Voice 0x00 */
/* 	0x3A */
/* 	0x48, 0x56, 0x54, 0x41, 	0x0F, 0x14, 0x53, 0x14, 	0x04, 0x06, 0x06, 0x03 */
/* 	0x00, 0x0F, 0x00, 0x00, 	0x1F, 0x3F, 0x5F, 0x1F, 	0x22, 0x13, 0x26, 0x84 */
	smpsVcAlgorithm     0x02
	smpsVcFeedback      0x07
	smpsVcUnusedBits    0x00
	smpsVcDetune        0x04, 0x05, 0x05, 0x04
	smpsVcCoarseFreq    0x01, 0x04, 0x06, 0x08
	smpsVcRateScale     0x00, 0x01, 0x00, 0x00
	smpsVcAttackRate    0x14, 0x13, 0x14, 0x0F
	smpsVcAmpMod        0x00, 0x00, 0x00, 0x00
	smpsVcDecayRate1    0x03, 0x06, 0x06, 0x04
	smpsVcDecayRate2    0x00, 0x00, 0x0F, 0x00
	smpsVcDecayLevel    0x01, 0x05, 0x03, 0x01
	smpsVcReleaseRate   0x0F, 0x0F, 0x0F, 0x0F
	smpsVcTotalLevel    0x04, 0x26, 0x13, 0x22

/* 	Voice 0x01 */
/* 	0x00 */
/* 	0x71, 0x10, 0x70, 0x10, 	0x18, 0x58, 0x18, 0x1A, 	0x09, 0x08, 0x01, 0x01 */
/* 	0x00, 0x00, 0x00, 0x00, 	0xFF, 0xFF, 0xFF, 0xFF, 	0x1A, 0x17, 0x1C, 0x83 */
	smpsVcAlgorithm     0x00
	smpsVcFeedback      0x00
	smpsVcUnusedBits    0x00
	smpsVcDetune        0x01, 0x07, 0x01, 0x07
	smpsVcCoarseFreq    0x00, 0x00, 0x00, 0x01
	smpsVcRateScale     0x00, 0x00, 0x01, 0x00
	smpsVcAttackRate    0x1A, 0x18, 0x18, 0x18
	smpsVcAmpMod        0x00, 0x00, 0x00, 0x00
	smpsVcDecayRate1    0x01, 0x01, 0x08, 0x09
	smpsVcDecayRate2    0x00, 0x00, 0x00, 0x00
	smpsVcDecayLevel    0x0F, 0x0F, 0x0F, 0x0F
	smpsVcReleaseRate   0x0F, 0x0F, 0x0F, 0x0F
	smpsVcTotalLevel    0x03, 0x1C, 0x17, 0x1A

/* 	Voice 0x02 */
/* 	0x34 */
/* 	0x74, 0x21, 0x16, 0x71, 	0x11, 0x1F, 0x1F, 0x1F, 	0x08, 0x05, 0x08, 0x09 */
/* 	0x00, 0x00, 0x00, 0x00, 	0xFF, 0xFF, 0xFF, 0xFF, 	0x17, 0x88, 0x10, 0x88 */
	smpsVcAlgorithm     0x04
	smpsVcFeedback      0x06
	smpsVcUnusedBits    0x00
	smpsVcDetune        0x07, 0x01, 0x02, 0x07
	smpsVcCoarseFreq    0x01, 0x06, 0x01, 0x04
	smpsVcRateScale     0x00, 0x00, 0x00, 0x00
	smpsVcAttackRate    0x1F, 0x1F, 0x1F, 0x11
	smpsVcAmpMod        0x00, 0x00, 0x00, 0x00
	smpsVcDecayRate1    0x09, 0x08, 0x05, 0x08
	smpsVcDecayRate2    0x00, 0x00, 0x00, 0x00
	smpsVcDecayLevel    0x0F, 0x0F, 0x0F, 0x0F
	smpsVcReleaseRate   0x0F, 0x0F, 0x0F, 0x0F
	smpsVcTotalLevel    0x08, 0x10, 0x08, 0x17

/* 	Voice 0x03 */
/* 	0x2C */
/* 	0x43, 0x01, 0x21, 0x71, 	0x0E, 0x11, 0x12, 0x17, 	0x00, 0x00, 0x00, 0x00 */
/* 	0x08, 0x00, 0x09, 0x00, 	0x89, 0xF8, 0xF9, 0xF8, 	0x17, 0x8F, 0x0C, 0x89 */
	smpsVcAlgorithm     0x04
	smpsVcFeedback      0x05
	smpsVcUnusedBits    0x00
	smpsVcDetune        0x07, 0x02, 0x00, 0x04
	smpsVcCoarseFreq    0x01, 0x01, 0x01, 0x03
	smpsVcRateScale     0x00, 0x00, 0x00, 0x00
	smpsVcAttackRate    0x17, 0x12, 0x11, 0x0E
	smpsVcAmpMod        0x00, 0x00, 0x00, 0x00
	smpsVcDecayRate1    0x00, 0x00, 0x00, 0x00
	smpsVcDecayRate2    0x00, 0x09, 0x00, 0x08
	smpsVcDecayLevel    0x0F, 0x0F, 0x0F, 0x08
	smpsVcReleaseRate   0x08, 0x09, 0x08, 0x09
	smpsVcTotalLevel    0x09, 0x0C, 0x0F, 0x17

/* 	Voice 0x04 */
/* 	0x3D */
/* 	0x31, 0x50, 0x21, 0x41, 	0x0D, 0x13, 0x13, 0x14, 	0x03, 0x01, 0x06, 0x05 */
/* 	0x05, 0x01, 0x05, 0x01, 	0xFF, 0xFF, 0xFF, 0xFF, 	0x1D, 0x8A, 0x88, 0x87 */
	smpsVcAlgorithm     0x05
	smpsVcFeedback      0x07
	smpsVcUnusedBits    0x00
	smpsVcDetune        0x04, 0x02, 0x05, 0x03
	smpsVcCoarseFreq    0x01, 0x01, 0x00, 0x01
	smpsVcRateScale     0x00, 0x00, 0x00, 0x00
	smpsVcAttackRate    0x14, 0x13, 0x13, 0x0D
	smpsVcAmpMod        0x00, 0x00, 0x00, 0x00
	smpsVcDecayRate1    0x05, 0x06, 0x01, 0x03
	smpsVcDecayRate2    0x01, 0x05, 0x01, 0x05
	smpsVcDecayLevel    0x0F, 0x0F, 0x0F, 0x0F
	smpsVcReleaseRate   0x0F, 0x0F, 0x0F, 0x0F
	smpsVcTotalLevel    0x07, 0x08, 0x0A, 0x1D

/* 	Voice 0x05 */
/* 	0x07 */
/* 	0x75, 0x53, 0x12, 0x31, 	0x1F, 0x1F, 0x1F, 0x1F, 	0x00, 0x00, 0x00, 0x00 */
/* 	0x0C, 0x13, 0x0C, 0x0B, 	0xFF, 0xFF, 0xFF, 0xFF, 	0x8E, 0x86, 0x85, 0x89 */
	smpsVcAlgorithm     0x07
	smpsVcFeedback      0x00
	smpsVcUnusedBits    0x00
	smpsVcDetune        0x03, 0x01, 0x05, 0x07
	smpsVcCoarseFreq    0x01, 0x02, 0x03, 0x05
	smpsVcRateScale     0x00, 0x00, 0x00, 0x00
	smpsVcAttackRate    0x1F, 0x1F, 0x1F, 0x1F
	smpsVcAmpMod        0x00, 0x00, 0x00, 0x00
	smpsVcDecayRate1    0x00, 0x00, 0x00, 0x00
	smpsVcDecayRate2    0x0B, 0x0C, 0x13, 0x0C
	smpsVcDecayLevel    0x0F, 0x0F, 0x0F, 0x0F
	smpsVcReleaseRate   0x0F, 0x0F, 0x0F, 0x0F
	smpsVcTotalLevel    0x09, 0x05, 0x06, 0x0E

/* 	Voice 0x06 */
/* 	0x3D */
/* 	0x71, 0x23, 0x41, 0x41, 	0x10, 0x18, 0x14, 0x14, 	0x01, 0x04, 0x02, 0x03 */
/* 	0x00, 0x06, 0x04, 0x07, 	0xFF, 0xFC, 0xFF, 0xF8, 	0x1D, 0x88, 0x86, 0x86 */
	smpsVcAlgorithm     0x05
	smpsVcFeedback      0x07
	smpsVcUnusedBits    0x00
	smpsVcDetune        0x04, 0x04, 0x02, 0x07
	smpsVcCoarseFreq    0x01, 0x01, 0x03, 0x01
	smpsVcRateScale     0x00, 0x00, 0x00, 0x00
	smpsVcAttackRate    0x14, 0x14, 0x18, 0x10
	smpsVcAmpMod        0x00, 0x00, 0x00, 0x00
	smpsVcDecayRate1    0x03, 0x02, 0x04, 0x01
	smpsVcDecayRate2    0x07, 0x04, 0x06, 0x00
	smpsVcDecayLevel    0x0F, 0x0F, 0x0F, 0x0F
	smpsVcReleaseRate   0x08, 0x0F, 0x0C, 0x0F
	smpsVcTotalLevel    0x06, 0x06, 0x08, 0x1D

/* 	Voice 0x07 */
/* 	0x10 */
/* 	0x21, 0x13, 0x38, 0x44, 	0x1D, 0x1D, 0x1D, 0x1E, 	0x04, 0x07, 0x04, 0x07 */
/* 	0x00, 0x00, 0x00, 0x00, 	0x5F, 0x5F, 0x5F, 0x5F, 	0x25, 0x0A, 0x1F, 0x8B */
	smpsVcAlgorithm     0x00
	smpsVcFeedback      0x02
	smpsVcUnusedBits    0x00
	smpsVcDetune        0x04, 0x03, 0x01, 0x02
	smpsVcCoarseFreq    0x04, 0x08, 0x03, 0x01
	smpsVcRateScale     0x00, 0x00, 0x00, 0x00
	smpsVcAttackRate    0x1E, 0x1D, 0x1D, 0x1D
	smpsVcAmpMod        0x00, 0x00, 0x00, 0x00
	smpsVcDecayRate1    0x07, 0x04, 0x07, 0x04
	smpsVcDecayRate2    0x00, 0x00, 0x00, 0x00
	smpsVcDecayLevel    0x05, 0x05, 0x05, 0x05
	smpsVcReleaseRate   0x0F, 0x0F, 0x0F, 0x0F
	smpsVcTotalLevel    0x0B, 0x1F, 0x0A, 0x25

